<svg xmlns="http://www.w3.org/2000/svg" xmlns:xlink="http://www.w3.org/1999/xlink" viewBox="0 0 583.86 198.77"><defs><style>.cls-1{fill:#fff;}.cls-2{mask:url(#mask);}.cls-3{fill:#282828;}.cls-4{mask:url(#mask-2-2);}</style><mask id="mask" x="168.51" y="154.5" width="27.36" height="44.26" maskUnits="userSpaceOnUse"><g id="mask-2"><polygon id="path-1" class="cls-1" points="168.51 154.5 195.88 154.5 195.88 198.77 168.51 198.77 168.51 154.5"/></g></mask><mask id="mask-2-2" x="289.49" y="154.54" width="29.03" height="44.1" maskUnits="userSpaceOnUse"><g id="mask-4"><polygon id="path-3" class="cls-1" points="289.49 154.54 318.51 154.54 318.51 198.64 289.49 198.64 289.49 154.54"/></g></mask></defs><title>parity-substrate-3</title><g id="Layer_2" data-name="Layer 2"><g id="Layer_1-2" data-name="Layer 1"><g id="Variation-2"><g id="Logotype"><g id="Group-3"><g class="cls-2"><path id="Fill-1" class="cls-3" d="M182.22,159.36a23.43,23.43,0,0,0-3.17.22,5.82,5.82,0,0,0-5.13,5.82v12.43c0,3,2.5,5.46,5.95,5.73.8.06,1.59.09,2.36.09s1.43,0,2.12-.08c3.57-.28,5.76-2.26,6.16-5.57a70.44,70.44,0,0,0,0-13.07,5.85,5.85,0,0,0-5-5.34A24.33,24.33,0,0,0,182.22,159.36Zm-9.11,39.41c-1.59,0-4.6-.86-4.6-4.13v-31c0-3.13,2.35-5.83,3.93-6.89a16.08,16.08,0,0,1,6.13-2,35.09,35.09,0,0,1,4.09-.27,20.41,20.41,0,0,1,4.63.5c4.54,1.05,7.3,4,8.21,8.69a21,21,0,0,1,.32,3.64l0,1.17c0,2.65.08,5.39-.05,8.09a16.53,16.53,0,0,1-1,4.9c-1.36,3.68-4.16,5.93-8.32,6.7a20,20,0,0,1-3.58.32,24,24,0,0,1-3.11-.22,8.38,8.38,0,0,1-6.08-3.45v13.93Z"/></g></g><g id="Group-6"><g class="cls-4"><path id="Fill-4" class="cls-3" d="M297.12,198.64a3.77,3.77,0,0,1-.65,0l-.78-.11,4.61-11.09a4.36,4.36,0,0,0,.44-2.76c-2.76-6.85-5.4-13.44-8.09-20.17L290,157.91c-.46-1.17-.74-2-.34-2.57s1.28-.6,2.48-.6a2.56,2.56,0,0,1,2.69,2c.62,1.58,7.77,19.61,9.1,22.91l9.14-22.72a3.31,3.31,0,0,1,3-2.39,3.62,3.62,0,0,1,1.43.31,1.32,1.32,0,0,1,.92,1.75l-15.35,38a6.31,6.31,0,0,1-6,4"/></g></g><path id="Fill-7" class="cls-3" d="M214.78,172.78c-2.05,0-3.82.06-5.12.18-3.32.3-4.6,1.54-4.69,4.59a16.18,16.18,0,0,0,0,1.88,4,4,0,0,0,4.21,4.13c.93,0,1.71.05,2.44.05s1.53,0,2.23-.06a8.29,8.29,0,0,0,6.69-3.89c1-1.53,1-3.21.95-5,0-.3,0-.6,0-.91a4.39,4.39,0,0,0-.05-.71,5.54,5.54,0,0,0-.78-.08C219.05,172.85,216.85,172.78,214.78,172.78ZM226,188.46c-1.54,0-4.45-.87-4.45-4.16v-.21l-.08.08a10.75,10.75,0,0,1-8.3,4.26l-1.44,0a28.07,28.07,0,0,1-4.37-.31,8.32,8.32,0,0,1-7.07-6.2,12.9,12.9,0,0,1,0-7.36,7.76,7.76,0,0,1,6.92-5.9,68,68,0,0,1,7.87-.41c2,0,4,.06,5.7.19l.39,0a1,1,0,0,0,.38-.05,5.16,5.16,0,0,0,0-.89,35.36,35.36,0,0,0-.55-5c-.3-1.49-1.33-2.41-3.14-2.82a16.05,16.05,0,0,0-3.63-.42,11.15,11.15,0,0,0-8.56,3.5,2.67,2.67,0,0,1-1.8,1.13,1.42,1.42,0,0,1-.74-.22,12.37,12.37,0,0,1-2-1.55c-.34-.33-.49-1,.22-2a14.29,14.29,0,0,1,6.61-4.68,20.49,20.49,0,0,1,6.34-.92,24,24,0,0,1,5,.51,8.34,8.34,0,0,1,6.71,6.37,21.78,21.78,0,0,1,.66,4.59c.26,6,0,21.67,0,21.83v.6Z"/><path id="Fill-9" class="cls-3" d="M237.9,188.46c-1.56,0-4.51-.85-4.51-4.08V154.62H234c1.59,0,4.6.81,4.6,3.89v.06l0,0a16.26,16.26,0,0,1,2.93-2.36,10.72,10.72,0,0,1,5.73-1.49,16.4,16.4,0,0,1,2.06.13,13.53,13.53,0,0,1,3.12.67,1.48,1.48,0,0,1,1.05,2,6.3,6.3,0,0,1-.66,1.4l0,.07a1.43,1.43,0,0,1-1.31.85,4.8,4.8,0,0,1-1-.15,15.16,15.16,0,0,0-3.28-.38,9.62,9.62,0,0,0-3.73.67,17.1,17.1,0,0,0-2.91,1.57,4.41,4.41,0,0,0-2,4.13c0,3.28,0,7.63,0,11.83,0,3.93,0,7.72,0,10.39v.61Z"/><path id="Fill-11" class="cls-3" d="M262.17,188c-1.56,0-4.51-.76-4.51-3.68V154.52h.63A4.42,4.42,0,0,1,262.8,159v1c0,4.74,0,23.25,0,27.3V188Z"/><path id="Fill-13" class="cls-3" d="M277.59,188c-1.5,0-4.34-.76-4.34-3.68V160h-3.78c-.77,0-1.18-.86-1.18-1.49v-2.45c0-.64.4-1,1.18-1h3.78v-9.2h.62c1.5,0,4.34.56,4.34,3.68v5.52h7.38c1.07,0,1.3.53,1.3,1v2.45c0,.6-.55,1.49-1.3,1.49h-7.38v28Z"/><path id="Fill-15" class="cls-3" d="M260.21,148.07a3.53,3.53,0,1,1,3.57-3.52,3.55,3.55,0,0,1-3.57,3.52"/></g></g><path class="cls-3" d="M366.26,178.67c0,6.82-5.18,9.45-11.15,9.45h-2.63c-6,0-9.9-3-10.88-8.14-.13-.59.19-1,.85-1h1.64c.53,0,.85.33.92.92.85,3.54,3.15,5.05,7.47,5.05h2.63c4.46,0,7.93-1.38,7.93-6.3s-4.26-5.44-9.11-6c-7.09-.79-11.81-2-11.81-9.12,0-6.23,4.2-8.72,10.69-8.72h1.9c6.1,0,10.24,2.75,10.5,8.72,0,.66-.2,1-.92,1h-1.44a1,1,0,0,1-1-1c-.32-3.93-2.75-5.77-7.28-5.77h-1.64c-4.72,0-7.6,1.38-7.6,5.84,0,4.72,3.41,5.51,8.59,6.1C360.68,170.54,366.26,171.33,366.26,178.67Z"/><path class="cls-3" d="M372.81,176.44V156a.87.87,0,0,1,1-1H375a.87.87,0,0,1,1,1v20.27c0,5.7,1.31,8.65,7.21,8.65h1.05a11.2,11.2,0,0,0,9.64-5.11V156a.87.87,0,0,1,1-1h1.24a.87.87,0,0,1,1,1V186.8a.88.88,0,0,1-1,1h-1.24a.88.88,0,0,1-1-1v-4.13a12,12,0,0,1-10.16,5.38h-.53C375.5,188.05,372.81,184.05,372.81,176.44Z"/><path class="cls-3" d="M431.12,166.67v9.38c0,7.67-4.79,12.07-11.61,12.07h-2.36c-4.92,0-7.61-2-8.92-5.38v4.06a.87.87,0,0,1-1,1H406a.87.87,0,0,1-1-1V142.86a.86.86,0,0,1,1-1h1.25a.87.87,0,0,1,1,1v16.86c1.31-3.28,4-5,8.92-5h2.36C426.33,154.73,431.12,158.87,431.12,166.67Zm-3.22.2c0-6.1-3-9-8.46-9h-2.75c-5.44,0-8.46,2.89-8.46,9v9.44c0,5.64,3,8.66,8.46,8.66h2.75c5.45,0,8.46-3,8.46-8.66Z"/><path class="cls-3" d="M461.42,178.67c0,6.82-5.18,9.45-11.15,9.45h-2.63c-6,0-9.9-3-10.88-8.14-.13-.59.19-1,.85-1h1.64a.9.9,0,0,1,.92.92c.85,3.54,3.15,5.05,7.47,5.05h2.63c4.46,0,7.93-1.38,7.93-6.3s-4.26-5.44-9.11-6c-7.09-.79-11.81-2-11.81-9.12,0-6.23,4.2-8.72,10.69-8.72h1.9c6.1,0,10.23,2.75,10.5,8.72,0,.66-.2,1-.92,1H458a1,1,0,0,1-1-1c-.33-3.93-2.75-5.77-7.28-5.77H448.1c-4.72,0-7.6,1.38-7.6,5.84,0,4.72,3.41,5.51,8.59,6.1C455.84,170.54,461.42,171.33,461.42,178.67Z"/><path class="cls-3" d="M474.07,158.08v19.41c0,5.18,1.25,7.28,5.64,7.41.59-.06.86.4.86,1L480.5,187a.87.87,0,0,1-.92.92c-6.42-.13-8.72-3.48-8.72-10.3V158.08h-3.54a.88.88,0,0,1-1-1v-1c0-.73.33-1.05,1-1.05h3.54v-3.81a.87.87,0,0,1,1-1h1.25a.86.86,0,0,1,1,1V155h5.51c.72,0,1.05.32,1.05,1v1.11a.87.87,0,0,1-1,1Z"/><path class="cls-3" d="M504.18,158.34a9.66,9.66,0,0,0-3.35-.52H500A11.24,11.24,0,0,0,490.4,163v23.8a.87.87,0,0,1-1,1h-1.25a.87.87,0,0,1-1-1V156a.86.86,0,0,1,1-1h1.25a.86.86,0,0,1,1,1v4.13a12.25,12.25,0,0,1,10.69-5.38,18,18,0,0,1,4.27.53.9.9,0,0,1,.59,1.24l-.53,1.38A.86.86,0,0,1,504.18,158.34Z"/><path class="cls-3" d="M533.88,187.79h-2.09c-.73,0-1-.66-1-1.58v-3.93a11,11,0,0,1-9.91,5.84h-3c-5.9,0-9.51-3.28-9.51-9.78s3.74-9.44,9.38-9.44h13v-2c0-7-1.71-9.05-8-9.05h-1.25a16.57,16.57,0,0,0-8.13,1.77c-.59.33-1.18.46-1.38-.07l-.72-1.38c-.2-.39-.13-.72.52-1.11,2.63-1.71,6.1-2.3,9.71-2.3h1.25c8.13,0,11.21,3.74,11.21,12.07v19.41a4.94,4.94,0,0,0,.13,1C534.15,187.46,534.21,187.79,533.88,187.79Zm-3.14-10.1v-5.84H517.82c-4.07,0-6.3,1.58-6.3,6.49s2.23,6.63,6.3,6.63h2.75A10.05,10.05,0,0,0,530.74,177.69Z"/><path class="cls-3" d="M547.13,158.08v19.41c0,5.18,1.25,7.28,5.64,7.41.59-.06.86.4.86,1l-.07,1.11a.87.87,0,0,1-.92.92c-6.43-.13-8.72-3.48-8.72-10.3V158.08h-3.54a.88.88,0,0,1-1-1v-1c0-.73.33-1.05,1-1.05h3.54v-3.81a.87.87,0,0,1,1-1h1.25a.87.87,0,0,1,1,1V155h5.51c.72,0,1.05.32,1.05,1v1.11a.87.87,0,0,1-1,1Z"/><path class="cls-3" d="M583.86,166.6v4.14a2,2,0,0,1-2.16,2H561.82v3.87c0,5.31,3,8.33,8.46,8.33h2.17c4.59,0,5.84-1.9,7.87-4.33.46-.53.72-.66,1.38-.2l.85.59c.65.46.59.86.2,1.38-2.37,2.89-4.73,5.71-10.3,5.71h-2.17c-6.88,0-11.8-4.33-11.8-11.68v-9.77c0-7.8,4.92-11.94,11.8-11.94h2.17C578.09,154.73,583.86,158.93,583.86,166.6Zm-3.34.27c0-6.1-3.48-9.05-8.07-9.05h-2.17c-5.44,0-8.46,3-8.46,9v3h18.7Z"/><path class="cls-3" d="M197.77,65l-84.33,48.68-7.93-4.58L125.2,97.68V95l69.06-39.87-2.74-1.59L125.2,91.88V90l-8.91-5.14L181,47.48l-2.41-1.39-64.7,37.35-8.37-4.83L125.2,67.24V64.35L167.71,39.8l-2.08-1.21L125.2,61.94v-2.4L98.83,74.76l-8.46-4.89,8.53-4.93v-.76l55.54-32.07-1.75-1L98.9,62.15v-.76L87.29,68.1l-8.15-4.71L93.51,55.1l-1.74-1L98.9,50V48.83l42.26-24.4-1.42-.82L98.9,47.18V46.05L88.37,52.13l-1.53-.89-14.41,8.3v1.79L0,103.15v3.93L72.43,65.26v2L80.62,72,0,118.5V122L83.7,73.72l8.46,4.89L72.43,90v2L3.53,131.81l2.73,1.59L72.43,95.19v2.47l8.41,4.86-64.06,37,2.41,1.4,64.07-37L92,109,72.43,120.2v2.52L30,147.2l2.08,1.2,40.31-23.27v3l26.4-15.24,7.94,4.58-7.91,4.56v.76L43.3,154.89l1.75,1,53.81-31.07v.76l11-6.34,8.69,5-14.12,8.15,1.21.7L98.86,137v1.14l-42.3,24.43,1.42.82,40.88-23.6v1.13L109,135.08l2.07,1.19,14.11-8.12v-2.41l72.57-41.9V79.91l-72.57,41.9v-1.39l-8.69-5,81.26-46.92ZM79.14,93.83,98.83,82.46l8.37,4.84-8.34,4.81h0L87.52,98.67Zm19.6,11.32-8.81-5.09,9-5.18h0l10.72-6.18,8.91,5.14Z"/><polygon class="cls-3" points="98.86 153.51 69.81 170.28 70.91 170.92 98.86 154.78 98.86 156.29 197.77 99.19 197.77 94.88 98.86 151.99 98.86 153.51"/><polygon class="cls-3" points="98.86 168.86 83.07 177.97 83.84 178.42 98.86 169.75 98.86 171.64 197.77 114.54 197.77 109.85 98.86 166.95 98.86 168.86"/><polygon class="cls-3" points="98.86 184.21 96.33 185.67 96.77 185.92 98.86 184.72 98.86 186.99 130.15 168.93 197.77 129.68 197.77 124.82 98.86 181.92 98.86 184.21"/><polygon class="cls-3" points="98.91 2.78 101.34 1.38 100.91 1.12 98.91 2.28 98.91 0 11.15 50.67 0 57.12 0 62.17 98.91 5.07 98.91 2.78"/><polygon class="cls-3" points="98.91 18.13 114.62 9.06 113.85 8.62 98.91 17.25 98.91 15.35 0 72.45 0 77.14 98.91 20.04 98.91 18.13"/><polygon class="cls-3" points="98.91 33.48 127.89 16.75 126.8 16.11 98.91 32.21 98.91 30.7 0 87.8 0 92.11 98.91 35.01 98.91 33.48"/></g></g></svg>