<svg xmlns="http://www.w3.org/2000/svg" width="500" height="500" viewBox="0 0 500 500"><g transform="translate(139,283)translate(110.5,31)rotate(0)translate(-110.5,-31)" opacity="1"><path transform="translate(6,0)rotate(0)" d="M2.80 38L2.80 2.05L31.80 2.05L31.80 2.05Q34.70 2.05 36.75 4.10L36.75 4.10L36.75 4.10Q38.80 6.15 38.80 9L38.80 9L38.80 18.70L38.80 18.70Q38.80 21.55 36.75 23.60L36.75 23.60L36.75 23.60Q34.70 25.65 31.80 25.65L31.80 25.65L9.55 25.70L9.40 25.65L9.40 38L2.80 38ZM32.15 18.70L32.15 18.70L32.15 9L32.15 9Q32.15 8.65 31.80 8.65L31.80 8.65L9.75 8.65L9.75 8.65Q9.40 8.65 9.40 9L9.40 9L9.40 18.70L9.40 18.70Q9.40 19.05 9.75 19.05L9.75 19.05L31.80 19.05L31.80 19.05Q32.15 19.05 32.15 18.70ZM78.40 38L42.40 38L42.40 1.95L49.00 1.95L49.00 31.40L78.40 31.40L78.40 38ZM88.35 2L88.35 2L110.40 2L110.40 2Q113.30 2 115.35 4.02L115.35 4.02L115.35 4.02Q117.40 6.05 117.40 8.95L117.40 8.95L117.40 38L110.75 38L110.75 25.90L88 25.90L88 38L81.40 38L81.40 8.95L81.40 8.95Q81.40 6.05 83.42 4.02L83.42 4.02L83.42 4.02Q85.45 2 88.35 2ZM88 8.95L88 19.30L110.75 19.30L110.75 8.95L110.75 8.95Q110.75 8.60 110.40 8.60L110.40 8.60L88.35 8.60L88.35 8.60Q88 8.60 88 8.95L88 8.95ZM158.85 8.95L158.85 8.95L158.85 11.70L152.20 11.70L152.20 8.95L152.20 8.95Q152.20 8.60 151.90 8.60L151.90 8.60L129.80 8.60L129.80 8.60Q129.45 8.60 129.45 8.95L129.45 8.95L129.45 16.35L129.45 16.35Q129.45 16.70 129.80 16.70L129.80 16.70L151.90 16.70L151.90 16.70Q154.75 16.70 156.80 18.72L156.80 18.72L156.80 18.72Q158.85 20.75 158.85 23.65L158.85 23.65L158.85 31.05L158.85 31.05Q158.85 33.95 156.80 35.98L156.80 35.98L156.80 35.98Q154.75 38 151.90 38L151.90 38L129.80 38L129.80 38Q126.90 38 124.88 35.98L124.88 35.98L124.88 35.98Q122.85 33.95 122.85 31.05L122.85 31.05L122.85 28.30L129.45 28.30L129.45 31.05L129.45 31.05Q129.45 31.40 129.80 31.40L129.80 31.40L151.90 31.40L151.90 31.40Q152.20 31.40 152.20 31.05L152.20 31.05L152.20 23.65L152.20 23.65Q152.20 23.30 151.90 23.30L151.90 23.30L129.80 23.30L129.80 23.30Q126.90 23.30 124.88 21.27L124.88 21.27L124.88 21.27Q122.85 19.25 122.85 16.35L122.85 16.35L122.85 8.95L122.85 8.95Q122.85 6.05 124.88 4.02L124.88 4.02L124.88 4.02Q126.90 2 129.80 2L129.80 2L151.90 2L151.90 2Q154.75 2 156.80 4.02L156.80 4.02L156.80 4.02Q158.85 6.05 158.85 8.95ZM171.40 2L184.50 17.60L197.55 2L204.80 2L204.80 38L198.15 38L198.15 11.60L184.50 27.85L170.80 11.60L170.80 38L164.20 38L164.20 2L171.40 2Z" fill="#1B6DC1"/></g><g transform="translate(173,115)translate(76.5,80.5)rotate(213.66780592107128)translate(-76.5,-80.5) scale(0.95625,0.95625)" opacity="1"><defs class="defs"><linearGradient id="linearGradient_1_c1" class="linearGradient1" gradientTransform="translate(0.5,0.5) rotate(0) translate(-0.5,-0.5)" x1="50%" y1="0%" x2="50%" y2="100%"><stop id="stop1" offset="0%" class="linearGradientColor1" stop-color="#339dcc"/><stop id="stop2" offset="100%" class="linearGradientColor2" stop-color="#1c3b84"/></linearGradient></defs><path fill="url(#linearGradient_1_c1)" d="M122.487,79.194c-1.584-2.992-1.584-5.632-0.176-8.096c-1.76,0.176-3.696,0.704-5.456,0.353&#10;&#9;c-1.76-0.528-3.344-1.76-4.575-3.168c-1.937-2.464-1.584-5.983,0.352-8.448c2.112-2.815,5.28-3.343,9.855-1.76&#10;&#9;c-1.407-2.815-1.584-5.631,0-8.271c-5.103,1.408-7.919,0.705-10.031-2.111c-1.76-2.464-1.76-5.983,0-8.447&#10;&#9;c2.112-2.992,5.104-3.52,10.031-2.111c-1.407-2.816-1.584-5.456,0.176-8.448c-4.399,1.584-8.095,1.232-10.559-2.815&#10;&#9;c-1.584-2.641-1.057-5.983,0.88-8.271c2.288-2.64,5.279-3.168,9.503-1.584c-0.176-0.704-0.352-1.408-0.704-1.937&#10;&#9;c0.177-0.176,0.177-0.176,0.353-0.352c2.464,1.76,4.752,3.52,7.216,5.104c0,0.176-0.176,0.352-0.176,0.527&#10;&#9;c-1.408-0.352-2.816-0.704-3.873-0.88c0,2.288,0,4.928,0,7.216c1.937-0.177,4.225-0.353,6.688-0.528&#10;&#9;c-0.177-0.88-0.353-2.288-0.528-3.696c-0.176,0.177-0.176,0.353-0.353,0.528c2.992,2.64,6.16,5.456,9.505,8.447&#10;&#9;c-1.937-0.352-3.169-0.527-4.4-0.704c0,1.937,0,3.872,0,5.809c1.76-0.177,3.695-0.177,5.632-0.353c0-0.88-0.177-1.936-0.177-2.991&#10;&#9;c3.344,3.695,7.216,7.215,5.456,13.375c3.344-1.761,4.047,0.703,4.927,2.639c3.344,7.392,5.808,14.959,6.865,22.879&#10;&#9;c0.175,1.057-0.177,2.288,0,3.344c0.175,1.057,0.703,1.936,0.879,2.992c0.176,4.224,0.352,8.623,0,12.847&#10;&#9;c-0.704,8.096-2.288,16.191-5.456,23.759c-1.407,3.52-3.343,7.039-4.928,10.383c-0.352,0.705-0.352,1.584-0.527,2.465&#10;&#9;c-0.177-0.353-0.528-0.528-0.704-0.881c-1.056,1.936-2.112,3.696-2.991,5.632l-0.177,0.176c-1.76,3.695-4.752,4.928-8.623,3.344&#10;&#9;c1.761,9.855-4.752,12.319-11.264,9.68c0.176,1.408,0.527,2.816,0.705,4.224c0.176,1.76-0.705,3.168-2.112,4.048&#10;&#9;c-0.705,0.352-1.408,0.88-2.112,1.407c-3.871,2.641-5.456,1.761-7.92-0.176c-2.463-2.111-3.167-5.808-1.583-8.623&#10;&#9;c1.759-3.696,5.632-4.752,10.383-3.168c-0.704-1.584-1.056-2.992-1.056-4.399c0-1.408,0.528-2.641,0.704-3.872&#10;&#9;c-1.584,0.177-3.521,0.704-5.28,0.353c-1.583-0.353-3.344-1.584-4.399-2.992c-1.936-2.288-1.76-5.983,0.176-8.447&#10;&#9;c2.112-2.815,5.104-3.52,9.855-1.936c-1.407-2.816-1.407-5.456,0-8.272c-4.927,1.408-7.919,0.705-10.031-2.111&#10;&#9;c-1.76-2.464-1.76-5.808-0.176-8.271c2.112-2.991,4.929-3.695,10.031-2.288c-1.408-2.815-1.584-5.455,0.176-8.447&#10;&#9;c-4.224,1.76-7.919,1.408-10.383-2.64c-1.584-2.64-1.232-6.159,0.88-8.447C115.096,77.963,118.088,77.435,122.487,79.194z&#10;&#9; M125.127,60.716c0,2.287,0,4.928,0,7.039c1.937-0.176,4.225-0.352,6.512-0.528c0-1.936,0-4.048,0-5.808&#10;&#9;C129.352,61.067,127.063,60.892,125.127,60.716z M125.127,124.071c0,2.288,0,4.928,0,7.04c1.937-0.176,4.225-0.353,6.512-0.528&#10;&#9;c0-1.936,0-4.048,0-5.808C129.352,124.423,127.063,124.247,125.127,124.071z M131.639,46.108c0-1.76,0-3.872,0-5.808&#10;&#9;c-2.287-0.176-4.575-0.352-6.512-0.527c0,2.287,0,4.927,0,7.039C127.063,46.46,129.352,46.284,131.639,46.108z M131.639,88.346&#10;&#9;c0-1.936,0-4.048,0-5.808c-2.287-0.176-4.575-0.528-6.512-0.704c0,2.288,0,4.928,0,7.04&#10;&#9;C127.063,88.697,129.352,88.521,131.639,88.346z M125.127,109.992c1.937-0.176,4.225-0.352,6.512-0.528c0-1.936,0-4.048,0-5.808&#10;&#9;c-2.287-0.176-4.575-0.527-6.512-0.704C125.127,105.24,125.127,107.881,125.127,109.992z M141.494,114.743&#10;&#9;c-1.76-0.176-3.52-0.352-5.104-0.352c0,1.937,0,3.696,0,5.632c1.761-0.176,3.52-0.352,5.104-0.352&#10;&#9;C141.494,117.912,141.494,116.328,141.494,114.743z M136.391,56.492c1.761-0.177,3.344-0.353,5.104-0.353c0-1.584,0-3.167,0-4.751&#10;&#9;c-1.76-0.177-3.52-0.177-5.104-0.353C136.391,52.796,136.391,54.556,136.391,56.492z M141.318,77.259c0-1.584,0-3.168,0-4.752&#10;&#9;c-1.76-0.176-3.52-0.176-4.928-0.352c0,1.936,0,3.695,0,5.632C137.975,77.435,139.734,77.435,141.318,77.259z M136.391,93.098&#10;&#9;c0,1.936,0,3.871,0,5.632c1.761-0.177,3.344-0.353,4.928-0.353c0-1.584,0-3.168,0-4.752&#10;&#9;C139.734,93.449,137.975,93.273,136.391,93.098z M147.654,104.537c0,1.407,0,2.64,0,4.047c1.231-0.176,2.464-0.176,3.519-0.352&#10;&#9;c0-1.056,0-2.288,0-3.344C149.942,104.713,148.886,104.713,147.654,104.537z M151.173,62.651c-1.055-0.176-2.287-0.352-3.519-0.352&#10;&#9;c0,1.407,0,2.64,0,4.048c1.231-0.176,2.464-0.353,3.519-0.353C151.173,64.764,151.173,63.707,151.173,62.651z M147.654,83.418&#10;&#9;c0,1.232,0,2.64,0,3.872c1.055-0.176,2.112-0.176,3.167-0.353c0-1.056,0-2.111,0-3.167&#10;&#9;C149.767,83.594,148.709,83.594,147.654,83.418z M114.744,95.913c0,3.872-2.991,7.039-6.864,7.039c-3.871,0-7.215-3.167-7.039-7.039&#10;&#9;c0-3.872,3.168-7.039,7.039-7.039C111.576,88.874,114.744,92.041,114.744,95.913z M107.704,109.992c3.872,0,7.04,2.991,7.04,6.863&#10;&#9;s-3.168,7.216-7.04,7.04c-3.871,0-6.863-3.168-6.863-7.04C100.841,113.16,104.009,110.168,107.704,109.992z M114.744,74.794&#10;&#9;c0,3.872-3.168,7.04-7.04,7.04c-3.871,0-7.039-3.168-7.039-7.04c0-3.871,3.168-6.862,7.039-6.862&#10;&#9;C111.753,67.932,114.744,71.099,114.744,74.794z M107.88,145.189c-3.871,0-7.039-2.991-7.039-6.863&#10;&#9;c-0.176-3.871,3.168-7.215,7.039-7.215c3.873,0,7.041,3.167,7.041,7.039C114.921,142.021,111.753,145.189,107.88,145.189z&#10;&#9; M107.88,25.518c3.873,0,7.041,3.168,7.041,7.04c0,3.871-3.345,7.039-7.217,7.039c-3.871-0.176-6.863-3.344-6.863-7.039&#10;&#9;C100.841,28.686,104.009,25.518,107.88,25.518z M107.88,46.637c3.873,0,7.041,3.167,7.041,6.863c0,3.872-3.168,7.216-7.041,7.04&#10;&#9;c-3.871,0-6.863-3.168-6.863-7.04C100.841,49.804,104.009,46.637,107.88,46.637z M115.096,11.263&#10;&#9;c-0.352,3.344-2.464,6.336-5.632,7.04c-3.167,0.704-6.511-0.704-7.919-3.696c-1.408-2.991-0.704-6.688,1.937-8.447&#10;&#9;c0.703-0.527,2.111-0.703,2.991-0.527c2.464,0.879,4.752,1.76,7.039,2.991C114.217,9.151,114.568,10.383,115.096,11.263z&#10;&#9; M97.321,113.16c-3.695,0-6.688-3.168-6.688-6.688c0-3.696,3.169-6.688,6.864-6.688c3.52,0,6.512,2.991,6.512,6.688&#10;&#9;C104.009,109.992,100.841,113.16,97.321,113.16z M104.009,85.53c0,3.695-3.168,6.687-6.863,6.687&#10;&#9;c-3.695-0.176-6.688-3.343-6.513-6.862c0.178-3.521,3.169-6.513,6.688-6.513C100.841,78.666,104.009,81.834,104.009,85.53z&#10;&#9; M97.321,120.903c3.695,0,6.688,3.168,6.688,6.863c0,3.696-3.168,6.688-6.863,6.688c-3.52-0.177-6.513-3.168-6.513-6.688&#10;&#9;C90.457,124.071,93.626,120.903,97.321,120.903z M97.146,70.923c-3.695,0-6.688-3.168-6.688-6.863s3.345-6.688,6.864-6.512&#10;&#9;s6.512,3.168,6.512,6.688C104.009,67.932,100.841,71.099,97.146,70.923z M104.009,148.709c0,3.696-2.992,6.688-6.688,6.864&#10;&#9;c-3.695,0-6.688-2.992-6.688-6.688c0-3.52,2.993-6.512,6.513-6.688C100.665,142.021,103.833,145.014,104.009,148.709z&#10;&#9; M104.009,43.117c0,3.695-3.168,6.687-6.688,6.687c-3.695,0-6.688-3.167-6.688-6.863c0-3.52,2.993-6.512,6.688-6.688&#10;&#9;C100.841,36.429,104.009,39.421,104.009,43.117z M97.146,28.686c-3.695-0.176-6.688-3.344-6.513-6.863&#10;&#9;c0.178-3.696,3.345-6.688,7.04-6.512c3.521,0.176,6.512,3.344,6.336,6.864C103.833,25.87,100.665,28.861,97.146,28.686z&#10;&#9; M86.762,131.814c3.52,0,6.335,2.816,6.335,6.336s-2.991,6.336-6.511,6.336c-3.52-0.177-6.159-2.992-6.159-6.512&#10;&#9;C80.427,134.631,83.242,131.814,86.762,131.814z M93.097,95.913c0,3.52-2.815,6.336-6.335,6.336s-6.511-2.816-6.335-6.512&#10;&#9;c0-3.521,2.991-6.336,6.335-6.16C90.105,89.577,93.097,92.569,93.097,95.913z M86.586,123.367c-3.52,0-6.335-2.991-6.159-6.336&#10;&#9;c0-3.52,2.991-6.335,6.511-6.335c3.52,0.176,6.159,2.992,6.159,6.512C92.921,120.728,90.105,123.367,86.586,123.367z M93.097,32.558&#10;&#9;c0,3.52-2.815,6.336-6.335,6.336s-6.511-2.992-6.335-6.512c0-3.521,2.991-6.16,6.335-6.16&#10;&#9;C90.281,26.222,93.097,29.214,93.097,32.558z M86.762,47.341c3.52,0,6.335,2.815,6.335,6.335s-2.991,6.336-6.511,6.336&#10;&#9;s-6.159-2.992-6.159-6.512C80.427,50.156,83.242,47.341,86.762,47.341z M93.097,74.794c0,3.521-2.815,6.337-6.159,6.337&#10;&#9;c-3.52,0-6.511-2.816-6.335-6.337c0-3.52,2.815-6.335,6.335-6.335C90.105,68.459,92.921,71.274,93.097,74.794z M93.097,159.445&#10;&#9;c-0.176,3.52-2.991,6.159-6.511,6.159s-6.335-2.991-6.159-6.688c0.176-3.52,3.167-6.16,6.511-5.983&#10;&#9;C90.281,153.109,93.097,156.101,93.097,159.445z M86.762,5.104c3.52,0,6.335,2.991,6.159,6.336c0,3.52-2.991,6.335-6.511,6.335&#10;&#9;c-3.52-0.176-6.159-2.991-6.159-6.512C80.427,7.919,83.242,5.104,86.762,5.104z M76.027,27.981c-3.344,0-5.809-2.815-5.809-6.159&#10;&#9;c0.177-3.168,2.816-5.808,6.16-5.632c3.344,0,5.808,2.816,5.808,6.16C82.011,25.518,79.194,27.981,76.027,27.981z M76.203,112.456&#10;&#9;c-3.344,0-5.984-2.64-5.984-5.983s2.641-5.808,5.984-5.808s5.983,2.64,5.983,5.983C82.011,109.816,79.371,112.456,76.203,112.456z&#10;&#9; M82.011,64.235c0,3.344-2.64,5.983-6.159,5.983c-3.168,0-5.808-2.64-5.808-5.983s2.64-5.983,6.159-5.983&#10;&#9;C79.547,58.428,82.011,61.067,82.011,64.235z M76.027,142.726c3.344,0,5.983,2.641,5.983,5.983c0,3.345-2.64,5.808-5.808,5.984&#10;&#9;c-3.344,0-5.984-2.64-5.984-5.984C70.219,145.366,72.859,142.902,76.027,142.726z M76.027,79.37c3.344,0,5.983,2.64,5.983,5.984&#10;&#9;c0,3.343-2.64,5.808-5.808,5.983c-3.344,0-5.984-2.641-5.984-5.983C70.219,82.01,72.859,79.547,76.027,79.37z M76.203,49.101&#10;&#9;c-3.344,0-5.984-2.641-5.984-5.983c0-3.344,2.641-5.808,5.809-5.983c3.344,0,5.983,2.64,5.983,5.983&#10;&#9;C82.011,46.46,79.547,49.101,76.203,49.101z M82.011,127.591c0,3.345-2.64,5.983-5.983,5.983s-5.809-2.639-5.983-5.808&#10;&#9;c0-3.344,2.64-5.983,5.983-5.983S82.011,124.247,82.011,127.591z M100.841,159.445c0-3.521,2.288-6.336,5.456-7.04&#10;&#9;c3.344-0.704,6.512,0.88,7.92,3.872c0.527,1.231,0.704,1.936-0.881,2.64c-2.992,1.056-5.808,2.64-8.8,3.696&#10;&#9;c-2.64,1.056-3.167,0.703-3.695-2.289C100.841,159.973,100.841,159.621,100.841,159.445z M60.012,74.442&#10;&#9;c0.176-2.991,2.64-5.279,5.808-5.279c3.168,0.176,5.456,2.64,5.279,5.808c-0.176,3.168-2.815,5.455-5.983,5.279&#10;&#9;C62.124,80.25,59.836,77.61,60.012,74.442z M71.099,11.439c0,3.167-2.464,5.631-5.632,5.631c-2.991,0-5.455-2.464-5.455-5.455&#10;&#9;c0-3.168,2.464-5.632,5.632-5.632S71.099,8.447,71.099,11.439z M71.099,117.208c0,3.168-2.464,5.455-5.807,5.455&#10;&#9;c-2.992,0-5.456-2.464-5.28-5.632c0-3.167,2.464-5.455,5.808-5.455C68.812,111.576,71.099,114.04,71.099,117.208z M71.099,138.15&#10;&#9;c0,3.167-2.464,5.631-5.632,5.456c-2.991,0-5.455-2.465-5.455-5.632c0-3.168,2.464-5.632,5.632-5.456&#10;&#9;C68.812,132.695,71.099,135.158,71.099,138.15z M65.644,48.22c3.168,0,5.632,2.465,5.455,5.632c0,2.992-2.464,5.456-5.632,5.456&#10;&#9;c-3.167,0-5.631-2.464-5.455-5.632C60.012,50.509,62.476,48.22,65.644,48.22z M71.099,32.733c0,3.168-2.464,5.456-5.807,5.456&#10;&#9;c-2.992,0-5.456-2.464-5.28-5.632c0-3.168,2.464-5.456,5.808-5.456C68.812,27.102,71.099,29.565,71.099,32.733z M71.099,159.269&#10;&#9;c0,3.168-2.464,5.632-5.632,5.632c-2.991,0-5.455-2.464-5.455-5.455c0-3.168,2.464-5.632,5.632-5.632S71.099,156.277,71.099,159.269&#10;&#9;z M71.099,95.913c0,3.168-2.464,5.632-5.632,5.632c-3.167,0-5.455-2.464-5.455-5.456c0-3.167,2.464-5.632,5.632-5.632&#10;&#9;C68.635,90.457,71.099,92.746,71.099,95.913z M54.907,90.457c-2.991,0-5.103-2.287-5.103-5.279c0-2.815,2.287-4.928,5.103-4.928&#10;&#9;c2.992,0,5.104,2.288,5.104,5.28C60.012,88.346,57.899,90.457,54.907,90.457z M54.907,111.576c-2.991,0-5.103-2.288-5.103-5.279&#10;&#9;c0-2.816,2.287-4.929,5.103-4.929c2.992,0,5.104,2.288,5.104,5.28C60.012,109.464,57.899,111.576,54.907,111.576z M60.188,127.767&#10;&#9;c0,2.992-2.288,5.104-5.28,5.104c-2.815-0.176-4.927-2.288-4.927-5.28c0-2.991,2.288-5.104,5.28-5.104&#10;&#9;C58.075,122.663,60.188,124.775,60.188,127.767z M49.805,64.411c0-2.992,2.287-5.279,5.103-5.104c2.816,0,5.104,2.111,5.104,5.104&#10;&#9;s-2.288,5.28-5.104,5.104C52.092,69.339,49.98,67.227,49.805,64.411z M55.085,16.895c2.99,0,5.103,2.288,5.103,5.28&#10;&#9;c0,2.815-2.288,4.927-5.103,4.927c-2.993,0-5.104-2.287-5.104-5.279C49.98,19.007,52.269,16.895,55.085,16.895z M54.907,153.813&#10;&#9;c-2.991,0-5.103-2.288-5.103-5.28c0-2.815,2.287-4.927,5.103-4.927c2.992,0,5.104,2.288,5.104,5.279&#10;&#9;C60.012,151.701,57.899,153.813,54.907,153.813z M60.188,43.117c0,2.991-2.288,5.103-5.28,5.103c-2.815,0-4.927-2.287-4.927-5.103&#10;&#9;c0-2.992,2.288-5.104,5.28-5.104C58.075,38.014,60.188,40.301,60.188,43.117z M44.349,121.783c-2.64,0-4.576-2.111-4.576-4.752&#10;&#9;c0-2.64,2.112-4.575,4.753-4.575c2.64,0,4.574,2.111,4.574,4.752C49.1,119.672,46.988,121.783,44.349,121.783z M49.1,11.439&#10;&#9;c0,2.639-1.935,4.751-4.574,4.751c-2.641,0-4.753-1.936-4.753-4.575s1.937-4.752,4.576-4.752S49.1,8.799,49.1,11.439z&#10;&#9; M44.349,79.547c-2.64,0-4.576-2.112-4.576-4.753c0-2.639,2.112-4.575,4.753-4.575c2.64,0,4.574,2.112,4.574,4.752&#10;&#9;C49.1,77.435,46.988,79.547,44.349,79.547z M44.349,133.574c2.64,0,4.751,1.936,4.751,4.576c0,2.64-1.935,4.752-4.574,4.752&#10;&#9;c-2.641,0-4.753-1.937-4.753-4.576S41.709,133.574,44.349,133.574z M49.1,53.676c0,2.64-1.935,4.752-4.574,4.752&#10;&#9;c-2.641,0-4.753-1.936-4.753-4.576c0-2.64,1.937-4.751,4.576-4.751C46.988,48.925,49.1,51.036,49.1,53.676z M44.349,27.981&#10;&#9;c2.64,0,4.751,1.937,4.751,4.576s-1.935,4.752-4.574,4.752c-2.641,0-4.753-1.937-4.753-4.576S41.885,27.981,44.349,27.981z&#10;&#9; M49.1,95.913c0,2.64-2.111,4.752-4.574,4.752c-2.641,0-4.753-2.112-4.753-4.576c0-2.64,2.112-4.751,4.576-4.751&#10;&#9;C46.988,91.338,49.1,93.273,49.1,95.913z M70.219,0.176C70.747,0.176,71.275,0,71.627,0c3.344,0,6.688,0,10.208,0&#10;&#9;c0.352,2.463-0.529,4.399-2.464,5.808c-1.937,1.408-4.576,1.408-6.512,0.176C70.923,4.575,69.866,2.815,70.219,0.176z&#10;&#9; M33.789,110.696c-2.288,0-4.223-1.937-4.047-4.224c0-2.288,2.112-4.224,4.398-4.224c2.289,0.176,4.049,2.112,4.049,4.224&#10;&#9;C38.014,108.937,36.077,110.696,33.789,110.696z M38.014,127.767c0,2.288-1.937,4.048-4.225,4.048s-4.223-2.111-4.223-4.399&#10;&#9;c0.176-2.287,2.111-4.048,4.399-4.048C36.254,123.543,38.189,125.479,38.014,127.767z M33.966,144.486&#10;&#9;c2.288,0,4.224,1.936,4.224,4.223c0,2.288-1.936,4.225-4.224,4.225s-4.048-1.937-4.048-4.225&#10;&#9;C29.742,146.422,31.678,144.486,33.966,144.486z M33.966,68.459c-2.288,0-4.224-1.936-4.224-4.224s1.936-4.224,4.398-4.224&#10;&#9;c2.289,0,4.049,2.112,4.049,4.224C38.014,66.523,36.077,68.459,33.966,68.459z M38.014,21.998c0,2.288-1.76,4.224-4.048,4.224&#10;&#9;s-4.399-1.936-4.399-4.224s1.935-4.224,4.223-4.224S38.014,19.71,38.014,21.998z M33.789,47.341c-2.288,0-4.223-1.936-4.223-4.224&#10;&#9;s1.935-4.224,4.399-4.224c2.288,0,4.048,2.111,4.048,4.224C38.014,45.405,36.077,47.341,33.789,47.341z M38.014,85.354&#10;&#9;c0,2.287-1.937,4.223-4.048,4.223c-2.288,0-4.399-1.936-4.224-4.223c0-2.288,1.936-4.048,4.224-4.048&#10;&#9;C36.077,81.131,38.014,83.066,38.014,85.354z M47.692,162.613c-2.464-1.057-4.752-1.937-6.863-2.992&#10;&#9;c-0.527-0.176-0.881-1.408-0.704-1.936c0.528-1.761,1.936-2.992,3.872-3.169c1.936-0.176,3.695,0.528,4.575,2.288&#10;&#9;C49.629,158.917,49.277,160.854,47.692,162.613z M90.457,0.88c4.225,1.056,8.272,1.936,12.32,2.991&#10;&#9;c-1.057,2.464-3.52,3.872-6.161,3.696C93.45,7.216,91.338,5.104,90.457,0.88z M26.926,95.913c0,1.936-1.584,3.696-3.52,3.696&#10;&#9;c-1.937,0-3.695-1.584-3.695-3.521c0-1.936,1.584-3.695,3.52-3.695S26.926,93.978,26.926,95.913z M23.406,36.253&#10;&#9;c-1.937,0-3.695-1.584-3.695-3.52s1.584-3.696,3.52-3.696s3.695,1.584,3.695,3.521C26.926,34.493,25.342,36.077,23.406,36.253z&#10;&#9; M19.782,74.71c0.027-1.943,1.626-3.496,3.569-3.469c1.944,0.027,3.496,1.625,3.469,3.569c-0.027,1.943-1.625,3.497-3.569,3.47&#10;&#9;C21.308,78.252,19.755,76.654,19.782,74.71z M26.926,53.676c0,1.936-1.584,3.696-3.52,3.696c-1.937,0-3.695-1.584-3.695-3.521&#10;&#9;c0-1.936,1.584-3.695,3.52-3.695C25.342,50.156,26.926,51.74,26.926,53.676z M26.926,117.208c0,1.936-1.76,3.52-3.695,3.52&#10;&#9;s-3.52-1.76-3.52-3.696c0-1.936,1.759-3.52,3.695-3.52C25.342,113.512,26.926,115.096,26.926,117.208z M19.781,138.066&#10;&#9;c0.027-1.943,1.626-3.497,3.57-3.47c1.942,0.027,3.495,1.625,3.469,3.569c-0.027,1.943-1.625,3.497-3.569,3.47&#10;&#9;C21.308,141.608,19.754,140.01,19.781,138.066z M12.671,130.583c-1.583,0-2.992-1.408-2.992-2.992c0-1.76,1.409-2.991,3.168-2.991&#10;&#9;c1.584,0,2.815,1.407,2.815,2.991C15.662,129.351,14.431,130.583,12.671,130.583z M12.671,46.108c-1.583,0-2.992-1.408-2.815-2.991&#10;&#9;c0-1.584,1.584-2.992,3.167-2.816c1.585,0.176,2.816,1.408,2.816,2.992C15.662,44.7,14.255,46.108,12.671,46.108z M70.923,167.188&#10;&#9;c2.112-4.575,8.8-4.048,10.383,0C77.786,167.188,74.442,167.188,70.923,167.188z M12.847,61.419c1.584,0,2.992,1.408,2.992,2.992&#10;&#9;s-1.408,2.992-2.992,2.815c-1.583,0-2.815-1.407-2.815-2.815C9.855,62.651,11.264,61.419,12.847,61.419z M12.847,82.538&#10;&#9;c1.584,0,2.992,1.408,2.992,2.992s-1.408,2.991-2.992,2.815c-1.583,0-2.815-1.408-2.815-2.815&#10;&#9;C9.855,83.946,11.088,82.538,12.847,82.538z M12.847,103.656c1.584,0,2.992,1.408,2.992,2.992s-1.408,2.992-2.992,2.815&#10;&#9;c-1.583,0-2.815-1.407-2.815-2.815C9.855,105.064,11.088,103.656,12.847,103.656z M50.86,3.52c2.992-0.704,5.983-1.584,8.976-2.288&#10;&#9;c0.176,2.112-1.056,3.872-3.168,4.4C54.38,6.511,52.269,5.808,50.86,3.52z M2.64,51.212c0.528,0.88,1.408,1.584,1.584,2.464&#10;&#9;c0.176,1.232-0.704,2.112-1.936,2.112c-1.408,0-2.288-0.704-2.112-1.937c0.176-0.879,0.88-1.76,1.407-2.463&#10;&#9;C1.937,51.212,2.288,51.212,2.64,51.212z M1.583,119.496c-0.527-0.881-1.407-1.584-1.583-2.465c0-1.231,0.88-2.111,2.288-2.111&#10;&#9;c1.407,0,2.287,0.88,1.936,2.111c-0.176,0.881-1.056,1.584-1.584,2.465C2.288,119.496,1.937,119.496,1.583,119.496z M2.288,71.979&#10;&#9;c0.88,1.231,2.111,2.111,1.936,2.814c-0.176,0.881-1.232,1.408-1.936,2.112c-0.705-0.704-1.761-1.407-1.761-2.112&#10;&#9;C0.176,74.091,1.231,73.211,2.288,71.979z M5.104,95.913c-1.408,0.88-2.112,2.112-2.815,1.936c-0.881-0.176-1.408-1.231-2.112-1.936&#10;&#9;c0.704-0.704,1.407-1.76,2.112-1.76C2.991,93.978,3.871,95.033,5.104,95.913z M99.961,164.196c-2.815,0.704-5.279,1.232-7.919,1.937&#10;&#9;C94.153,163.141,96.97,162.437,99.961,164.196z" class="color c1"/></g></svg>