<svg width="512" height="512" viewBox="0 0 512 512" fill="none" xmlns="http://www.w3.org/2000/svg">
    <g clip-path="url(#clip0_2864_11161)">
        <rect x="504" y="504" width="496" height="496" rx="88" transform="rotate(-180 504 504)" fill="#111B24" stroke="#00EAC7" stroke-width="16"/>
        <g clip-path="url(#clip1_2864_11161)">
            <path d="M363.933 271.223H416.203C416.822 271.225 417.436 271.104 418.008 270.87C418.58 270.635 419.1 270.29 419.538 269.855C419.976 269.421 420.323 268.904 420.559 268.336C420.795 267.767 420.916 267.158 420.915 266.543V229.103C420.915 227.862 420.418 226.672 419.535 225.794C418.651 224.916 417.453 224.423 416.203 224.423H342.96L285.256 95.7024C284.765 94.6069 283.967 93.6751 282.956 93.0185C281.946 92.3619 280.767 92.0083 279.56 92H232.441C231.227 92.0003 230.039 92.3502 229.02 93.0072C228.002 93.6643 227.197 94.6005 226.703 95.7024L169.041 224.423H95.7982C94.5485 224.423 93.35 224.916 92.4664 225.794C91.5827 226.672 91.0863 227.862 91.0863 229.103V266.543C91.0849 267.158 91.2059 267.767 91.4422 268.336C91.6785 268.904 92.0255 269.421 92.4633 269.855C92.9011 270.29 93.4211 270.635 93.9934 270.87C94.5657 271.104 95.179 271.225 95.7982 271.223H148.068L91.5261 397.417C91.2075 398.128 91.0724 398.906 91.133 399.682C91.1936 400.458 91.4479 401.206 91.8731 401.86C92.2983 402.513 92.8808 403.051 93.5679 403.425C94.2551 403.799 95.0252 403.996 95.8086 404H137.87C139.084 404 140.272 403.65 141.291 402.993C142.309 402.336 143.114 401.399 143.608 400.298L256.001 149.564L368.394 400.298C368.887 401.399 369.692 402.336 370.711 402.993C371.729 403.65 372.917 404 374.132 404H416.193C416.979 404.001 417.753 403.808 418.444 403.436C419.135 403.065 419.722 402.527 420.151 401.873C420.58 401.219 420.837 400.468 420.899 399.69C420.961 398.911 420.826 398.13 420.507 397.417L363.933 271.223Z" fill="white"/>
        </g>
    </g>
    <defs>
        <clipPath id="clip0_2864_11161">
            <rect width="512" height="512" rx="96" fill="white"/>
        </clipPath>
        <clipPath id="clip1_2864_11161">
            <rect width="329.829" height="312" fill="white" transform="translate(91.0863 92)"/>
        </clipPath>
    </defs>
</svg>
