<svg fill="none" viewBox="0 0 31.985 32"
	xmlns="http://www.w3.org/2000/svg">
	<path d="M25.058 17.832c.304.662 1.2.896 1.715.38l.944-.944a2.5 2.5 0 013.536 3.535l-7.636 7.636A9.978 9.978 0 0115.966 32a9.983 9.983 0 01-7.882-3.844L.732 20.804a2.5 2.5 0 013.536-3.536l.93.93c.504.505 1.379.278 1.677-.37a.97.97 0 00.09-.405V6a2.5 2.5 0 015 0v5.778c0 .497.51.835.984.685a.727.727 0 00.517-.683V2.5a2.5 2.5 0 015 0v9.28c0 .315.216.588.516.683.474.15.984-.188.984-.685V6.001a2.5 2.5 0 015 0v11.417a.99.99 0 00.092.414z" clip-rule="evenodd" fill="#fd4848" fill-rule="evenodd"></path>
	<path d="M23.966 23s-3.582 5-8 5-8-5-8-5 3.582-5 8-5 8 5 8 5z" fill="#d5ff5c"></path>
	<g stroke="#fd4848" stroke-width="0.501">
		<path d="M19.716 23a3.75 3.75 0 11-7.499 0 3.75 3.75 0 017.499 0z"></path>
		<path d="M18.215 23a2.25 2.25 0 11-4.499 0 2.25 2.25 0 014.499 0z"></path>
		<path d="M21.215 23a5.25 5.25 0 11-10.499 0 5.25 5.25 0 0110.499 0z"></path>
		<path d="M22.715 23a6.75 6.75 0 11-13.499 0 6.75 6.75 0 0113.499 0z"></path>
		<path d="M16.716 23a.75.75 0 11-1.499 0 .75.75 0 011.499 0z" fill="#162beb"></path>
	</g>
	<path d="M15.966 24a1 1 0 100-2 1 1 0 000 2z" fill="#fd4848"></path>
	<path d="M8.326 23.061a8.182 8.182 0 01-.047-.06l.047-.062a16.59 16.59 0 012.147-2.25c1.432-1.236 3.374-2.438 5.493-2.438 2.118 0 4.06 1.202 5.493 2.439a16.594 16.594 0 012.147 2.25l.047.06-.047.061a16.605 16.605 0 01-2.147 2.25c-1.433 1.236-3.375 2.439-5.493 2.439-2.119 0-4.06-1.203-5.493-2.44a16.594 16.594 0 01-2.147-2.249z" stroke="#d5ff5c" stroke-width="0.501"></path>
</svg>