<?xml version="1.0" encoding="utf-8"?>
<!-- Generator: Adobe Illustrator 25.0.1, SVG Export Plug-In . SVG Version: 6.00 Build 0)  -->
<svg version="1.1" id="Capa_1" xmlns="http://www.w3.org/2000/svg" xmlns:xlink="http://www.w3.org/1999/xlink" x="0px" y="0px"
	 viewBox="0 0 282 278.23" style="enable-background:new 0 0 282 278.23;" xml:space="preserve">
<style type="text/css">
	.st0{fill:#29ADD3;}
</style>
<g>
	<g>
		<path class="st0" d="M14.5,139.21L14.5,139.21c0,69.14,56.05,125.2,125.2,125.2l0,0c69.14,0,125.2-56.05,125.2-125.2l0,0
			c0-69.14-56.05-125.2-125.2-125.2l0,0C70.55,14.02,14.5,70.07,14.5,139.21z M142.55,120.87l15.48,15.48
			c1.57,1.57,1.57,4.14,0,5.71l-15.48,15.48c-1.57,1.57-4.14,1.57-5.71,0l-15.48-15.48c-1.57-1.57-1.57-4.14,0-5.71l15.48-15.48
			C138.41,119.3,140.98,119.3,142.55,120.87z M139.9,217.88c-44.18,0-80.05-35.87-80.05-79.51c0-37.97,26.65-69.69,62.3-77.73
			c2.27-0.51,4.44,1.19,4.44,3.44V88.2c0,1.44-0.91,2.75-2.31,3.26c-0.35,0.13-0.7,0.27-1.05,0.41
			c-19.05,6.83-32.68,25.05-32.68,46.45c0,27.25,22.09,49.34,49.34,49.34l0,0l0,0c0.04,0,0.08,0,0.12,0
			c27.19-0.07,49.21-22.13,49.21-49.34c0-21.56-13.83-39.88-33.11-46.59c-0.2-0.08-0.41-0.17-0.61-0.24
			c-1.39-0.52-2.3-1.82-2.3-3.26V64.09c0-2.25,2.17-3.95,4.44-3.44c35.43,8.08,61.88,39.77,61.88,77.71
			C219.55,182.01,183.88,217.88,139.9,217.88z"/>
	</g>
</g>
</svg>
