<?xml version="1.0" encoding="utf-8"?>
<!-- Generator: Adobe Illustrator 25.0.1, SVG Export Plug-In . SVG Version: 6.00 Build 0)  -->
<svg version="1.1" id="Capa_1" xmlns="http://www.w3.org/2000/svg" xmlns:xlink="http://www.w3.org/1999/xlink" x="0px" y="0px"
     viewBox="0 0 247.86 247.85" style="enable-background:new 0 0 247.86 247.85;" xml:space="preserve">
<style type="text/css">
	.st0{fill:#1195F1;}
	.st1{fill:#2B9FF3;}
	.st2{fill:#3EA8F4;}
	.st3{fill:#51B1F5;}
	.st4{fill:#FFFFFF;}
</style>
  <path class="st0" d="M247.86,123.93c0,68.45-55.48,123.93-123.93,123.93S0,192.37,0,123.93C0,55.49,55.49,0,123.93,0
	S247.86,55.49,247.86,123.93"/>
  <path class="st1" d="M231.19,123.93c0,59.25-48.03,107.28-107.28,107.28S16.63,183.18,16.63,123.93
	c0-59.25,48.03-107.28,107.28-107.28S231.19,64.68,231.19,123.93"/>
  <path class="st2" d="M212.3,123.93c0,48.82-39.57,88.39-88.39,88.39s-88.39-39.57-88.39-88.39c0-48.81,39.57-88.39,88.39-88.39
	S212.3,75.11,212.3,123.93"/>
  <path class="st3" d="M193.15,123.93c0,38.23-30.99,69.22-69.22,69.22s-69.22-30.99-69.22-69.22c0-38.23,30.99-69.22,69.22-69.22
	S193.15,85.7,193.15,123.93"/>
  <path class="st4" d="M195.34,194.33l-7.33-19.95c-0.31-0.86-1.12-1.42-2.03-1.42h-28.09c-1.51,0-2.56,1.51-2.03,2.93l7.48,19.95
	c0.32,0.84,1.13,1.41,2.03,1.41h27.94C194.82,197.25,195.86,195.75,195.34,194.33"/>
  <path class="st4" d="M126.26,146.64c-17.69,1.39-32.35-13.26-30.95-30.95c1.1-13.92,12.37-25.19,26.29-26.29
	c17.69-1.4,32.35,13.25,30.95,30.95C151.45,134.26,140.18,145.54,126.26,146.64 M181.06,155.42l-35.04-95.47
	c-7.53-20.51-36.54-20.51-44.08,0l-50.39,137.3h33.19l9.17-25.44c0.69-1.92,2.5-3.19,4.54-3.19h73.39
	C178.67,168.62,183.41,161.83,181.06,155.42"/>
  <path class="st4" d="M121.5,134.26l-13.17-13.17c-1.34-1.34-1.34-3.52,0-4.86l13.17-13.17c1.34-1.34,3.52-1.34,4.86,0l13.17,13.17
	c1.33,1.34,1.33,3.52,0,4.86l-13.17,13.17C125.02,135.6,122.84,135.6,121.5,134.26"/>
  <path class="st4" d="M195.34,194.33l-7.33-19.95c-0.31-0.86-1.12-1.43-2.03-1.43h-28.1c-1.51,0-2.56,1.51-2.03,2.93l7.48,19.95
	c0.32,0.84,1.13,1.41,2.03,1.41h27.94C194.82,197.25,195.86,195.75,195.34,194.33"/>
  <path class="st4" d="M126.26,146.63c-17.69,1.4-32.35-13.26-30.96-30.95c1.1-13.92,12.38-25.19,26.29-26.28
	c17.69-1.4,32.34,13.25,30.95,30.95C151.45,134.26,140.18,145.54,126.26,146.63 M181.06,155.41l-35.04-95.47
	c-7.53-20.51-36.54-20.51-44.08,0L51.55,197.25h33.19l9.17-25.43c0.69-1.92,2.5-3.19,4.54-3.19h73.39
	C178.67,168.62,183.41,161.83,181.06,155.41"/>
  <path class="st4" d="M121.5,134.26l-13.17-13.17c-1.34-1.34-1.34-3.52,0-4.86l13.17-13.17c1.34-1.34,3.52-1.34,4.86,0l13.17,13.17
	c1.33,1.34,1.33,3.52,0,4.86l-13.17,13.17C125.02,135.6,122.84,135.6,121.5,134.26"/>
</svg>
