<svg width="128" height="128" xmlns="http://www.w3.org/2000/svg">

 <g>
  <title>background</title>
  <rect fill="none" id="canvas_background" height="402" width="582" y="-1" x="-1"/>
 </g>
 <g>
  <title>Layer 1</title>
  <path fill="#240041" id="svg_1" d="m117.264,114.56c5.77,2.285 5.287,-2.091 10.736,2.303c0,-6.502 -10.43,-9.11 -12.221,-15.016c4.303,1.372 8.055,1.045 10.818,-0.009c-4.808,-2.241 -12.771,-8.96 -12.005,-11.862c2.776,1.622 6.108,1.407 10.442,-0.556c-5.889,-3.822 -12.969,-9.031 -13.811,-16.543c3.117,1.221 3.714,2.49 10.686,3.93c-4.928,-5.165 -3.554,-7.601 -7.697,-10.378c-3.916,-2.623 -9.017,-3.389 -10.799,-8.347c4.928,1.186 9.616,0.659 11.899,-2.109c-3.241,-0.137 -7.891,-3.031 -12.577,-6.797c-3.353,-2.694 -3.09,-3.196 -5.967,-6.56c3.973,-0.484 5.074,2.022 11.727,2.022c-4.608,-3.822 -5.201,-7.613 -8.567,-9.621c-3.964,-2.365 -5.51,-1.012 -11.269,-2.05c3.816,-2.572 3.716,-9.162 2.855,-12.58c-1.445,2.344 -3.486,6.59 -9.333,7.401c-4.624,0.642 -8.45,-0.982 -8.45,-0.982c0.35,-0.237 3.039,-3.902 1.196,-9.933c-0.992,3.888 -4.943,6.893 -13.168,6.893c-1.844,0 -3.589,0.369 -5.208,0.935c-1.46,-1.423 -3.554,-3.008 -6.264,-3.894c-5.616,-1.835 -9.251,-0.691 -9.251,-0.691s2.447,1.593 5.188,5.461c1.005,1.417 1.62,2.818 1.996,4.015c-0.888,0.689 -1.575,1.237 -2.013,1.473l0.005,0.004c-0.919,0.527 -1.837,1.121 -2.759,1.781l-39.816,-28.621c-4.402,-3.166 -4.875,-2.609 -1.053,1.235l34.27,34.452c-2.286,3.175 -4.852,7.236 -6.891,11.337c-1.208,1.745 1.073,4.967 -2.128,10.746c-2.344,4.233 -4.341,8.308 -5.209,10.595c-1.523,4 -6.927,12.247 -5.983,14.648c1.812,4.608 4.685,7.776 4.685,7.776s0.792,1.23 8.636,0.801c8.852,-0.485 9.143,-7.754 12.636,-11.396c3.49,-3.643 12.197,1.328 17.748,-12.959c3.824,12.821 4.555,21.87 0.462,31.135c-4.091,9.267 -7.31,10.557 -8.984,23.225l57.07,0l4.449,0l7.436,0c2.117,-0.249 4.516,-0.638 7.221,-1.23c-4.007,-1.406 -9.625,-5.748 -10.738,-10.034z"/>
 </g>
</svg>