<?xml version="1.0" encoding="utf-8"?>
<!-- Generator: Adobe Illustrator 16.0.0, SVG Export Plug-In . SVG Version: 6.00 Build 0)  -->
<!DOCTYPE svg PUBLIC "-//W3C//DTD SVG 1.1//EN" "http://www.w3.org/Graphics/SVG/1.1/DTD/svg11.dtd">
<svg version="1.1" id="Layer_1" xmlns="http://www.w3.org/2000/svg" xmlns:xlink="http://www.w3.org/1999/xlink" x="0px" y="0px"
     width="143px" height="143px" viewBox="0 0 143 143" enable-background="new 0 0 143 143" xml:space="preserve">
<g>
	<linearGradient id="SVGID_1_" gradientUnits="userSpaceOnUse" x1="118.3359" y1="47.4048" x2="28.313" y2="95.2708">
		<stop  offset="0.0626" style="stop-color:#F499B7"/>
    <stop  offset="0.0704" style="stop-color:#F396B8"/>
    <stop  offset="0.16" style="stop-color:#EE74BD"/>
    <stop  offset="0.2455" style="stop-color:#EA5CC1"/>
    <stop  offset="0.3246" style="stop-color:#E84EC3"/>
    <stop  offset="0.391" style="stop-color:#E749C4"/>
    <stop  offset="0.8322" style="stop-color:#7D1DEA"/>
	</linearGradient>
  <path fill="url(#SVGID_1_)" d="M73.503,120.658c-22.806,0-40.523-10.956-46.239-28.591l-1.28-3.951l3.748-1.79
		c0.396-0.195,10.229-5.133,9.616-14.846c-0.646-10.256-8.963-15.065-9.317-15.266l-3.657-2.065l1.578-3.896
		c7.479-18.051,24.506-28.826,45.551-28.826c16.535,0,31.025,6.461,39.753,17.726l2.205,2.846L98.069,65.392l-3.881-3.755
		c-0.073-0.069-8.338-7.865-17.935-7.909c-9.239-0.043-12.884,3.429-13.038,3.577l-6.846-6.563c0.63-0.672,6.497-6.593,19.929-6.499
		c8.555,0.039,15.947,4.128,20.312,7.213l6.818-9.171c-7.071-7.268-17.768-11.373-29.926-11.373c-15.702,0-28.593,7.262-35.2,19.614
		c3.991,3.344,9.856,9.966,10.512,20.358c0.708,11.229-6.492,18.29-11.171,21.659c5.539,11.582,18.907,18.629,35.859,18.629
		c11.741,0,23.757-4.563,31.178-11.615l-7.751-9.706c-4.13,2.919-11.185,6.711-20.407,7.188
		c-13.092,0.675-20.839-5.341-21.163-5.598l5.891-7.434c0.181,0.136,5.439,4.048,14.781,3.558c11.053-0.57,18.14-7.655,18.21-7.728
		l3.75-3.814l3.355,4.161l15.668,19.618l-2.402,2.963C105.805,113.635,89.668,120.658,73.503,120.658z"/>
</g>
</svg>
