<svg xmlns="http://www.w3.org/2000/svg" viewBox="0 0 128 128"><defs><style>.cls-1{fill:#e6007a;}</style></defs><g id="图层_2" data-name="图层 2"><g id="图层_1-2" data-name="图层 1"><path class="cls-1" d="M8.46,63.94A55.5,55.5,0,0,1,96.91,19.28a4.22,4.22,0,1,0,5-6.77A63.94,63.94,0,0,0,12.5,101.92a4.23,4.23,0,1,0,6.8-5h0A55,55,0,0,1,8.46,63.94Z"/><path class="cls-1" d="M115.41,25.93a4.23,4.23,0,1,0-6.8,5h0A55.5,55.5,0,0,1,31,108.63a4.23,4.23,0,0,0-5,6.8,64,64,0,0,0,89.44-89.5Z"/><path class="cls-1" d="M38.92,49c8.5,1,15.67,6.77,21.3,17,6.9,12.58,16.47,20,27.67,21.35a27.13,27.13,0,0,0,3.25.2,24.08,24.08,0,0,0,12.34-3.24,19.33,19.33,0,0,0,9.35-14.19,18.66,18.66,0,0,0-3.62-14.3,23.57,23.57,0,0,0-15.85-8.6,33,33,0,0,0-20.61,4.42A4.23,4.23,0,0,0,76.89,59,24.77,24.77,0,0,1,92.3,55.61,15.27,15.27,0,0,1,102.47,61a10.33,10.33,0,0,1,2,7.94c-1.08,7.72-8.65,10.9-15.56,10-8.51-1-15.68-6.77-21.29-17C60.76,49.33,51.18,41.94,40,40.56a24.65,24.65,0,0,0-15.61,3.07A19.31,19.31,0,0,0,15,57.82a18.66,18.66,0,0,0,3.63,14.32,23.55,23.55,0,0,0,15.85,8.6A33,33,0,0,0,55.13,76.3,4.23,4.23,0,0,0,51,68.91h0A24.83,24.83,0,0,1,35.58,72.3,15.29,15.29,0,0,1,25.4,66.94a10.3,10.3,0,0,1-2-8C24.48,51.27,32,48.1,38.92,49Z"/></g></g></svg>