<svg width="640" height="640" viewBox="0 0 640 640" fill="none" xmlns="http://www.w3.org/2000/svg">
<path d="M637.299 319.3C637.299 494.5 495.299 636.6 319.999 636.6C144.699 636.6 2.69922 494.6 2.69922 319.3C2.69922 144 144.799 2.1001 319.999 2.1001C495.199 2.1001 637.299 144.1 637.299 319.3Z" fill="#552BBF"/>
<path d="M321 169C346.902 169 367.9 148.002 367.9 122.1C367.9 96.198 346.902 75.2002 321 75.2002C295.097 75.2002 274.1 96.198 274.1 122.1C274.1 148.002 295.097 169 321 169Z" fill="#56F39A"/>
<path d="M321 564C346.902 564 367.9 543.002 367.9 517.1C367.9 491.198 346.902 470.2 321 470.2C295.097 470.2 274.1 491.198 274.1 517.1C274.1 543.002 295.097 564 321 564Z" fill="#56F39A"/>
<path d="M147.798 262.9C173.701 262.9 194.698 241.902 194.698 216C194.698 190.098 173.701 169.1 147.798 169.1C121.896 169.1 100.898 190.098 100.898 216C100.898 241.902 121.896 262.9 147.798 262.9Z" fill="#56F39A"/>
<path d="M494.298 262.9C520.201 262.9 541.198 241.902 541.198 216C541.198 190.098 520.201 169.1 494.298 169.1C468.396 169.1 447.398 190.098 447.398 216C447.398 241.902 468.396 262.9 494.298 262.9Z" fill="#56F39A"/>
<path d="M147.798 471.7C173.701 471.7 194.698 450.702 194.698 424.8C194.698 398.898 173.701 377.9 147.798 377.9C121.896 377.9 100.898 398.898 100.898 424.8C100.898 450.702 121.896 471.7 147.798 471.7Z" fill="#56F39A"/>
<path d="M494.298 471.7C520.201 471.7 541.198 450.702 541.198 424.8C541.198 398.898 520.201 377.9 494.298 377.9C468.396 377.9 447.398 398.898 447.398 424.8C447.398 450.702 468.396 471.7 494.298 471.7Z" fill="#56F39A"/>
<path d="M440.325 335.65C438.308 353.708 432.075 369.612 421.625 383.362C411.175 397.021 397.379 407.654 380.238 415.262C363.096 422.779 343.708 426.537 322.075 426.537C298.333 426.537 277.388 422.046 259.238 413.062C241.088 404.079 227.017 391.475 217.025 375.25C207.125 358.933 202.175 340.142 202.175 318.875C202.175 297.608 207.125 278.862 217.025 262.637C227.017 246.321 241.088 233.671 259.238 224.687C277.388 215.704 298.333 211.212 322.075 211.212C343.708 211.212 363.096 215.017 380.238 222.625C397.379 230.142 411.175 240.775 421.625 254.525C432.075 268.183 438.308 284.042 440.325 302.1H382.988C380.238 289.083 373.592 278.908 363.05 271.575C352.508 264.242 338.804 260.575 321.938 260.575C309.196 260.575 298.15 262.958 288.8 267.725C279.542 272.4 272.392 279.137 267.35 287.937C262.4 296.646 259.925 306.958 259.925 318.875C259.925 330.792 262.4 341.15 267.35 349.95C272.392 358.658 279.542 365.396 288.8 370.162C298.15 374.837 309.196 377.175 321.938 377.175C338.988 377.175 352.738 373.646 363.188 366.587C373.729 359.437 380.329 349.125 382.988 335.65H440.325Z" fill="white"/>
</svg>
