<?xml version="1.0" encoding="UTF-8"?>
<svg width="69px" height="69px" viewBox="0 0 69 69" version="1.1" xmlns="http://www.w3.org/2000/svg" xmlns:xlink="http://www.w3.org/1999/xlink">
    <title>编组 3</title>
    <defs>
        <linearGradient x1="100%" y1="75.92%" x2="0%" y2="24.08%" id="linearGradient-1">
            <stop stop-color="#FE3876" offset="0%"></stop>
            <stop stop-color="#7C30DD" offset="71.4447846%"></stop>
            <stop stop-color="#3A30DD" offset="100%"></stop>
        </linearGradient>
    </defs>
    <g id="页面-1" stroke="none" stroke-width="1" fill="none" fill-rule="evenodd">
        <g id="编组-3">
            <circle id="椭圆形" fill="#FFFFFF" cx="34.1120002" cy="34.1120002" r="34.1120002"></circle>
            <path d="M52.4686129,21.4545455 C53.6710081,21.4545455 54.6457419,22.4313787 54.6457419,23.6363636 C54.6457419,24.8160238 53.7115488,25.7770216 52.5441151,25.8168944 L49.8841249,29.8153825 L49.8549718,29.8584625 C49.2558836,30.7288063 48.2737704,31.2555493 47.2188427,31.2723146 L47.1669037,31.2727273 L43.9428081,31.272561 C44.2448401,31.965296 44.477159,32.6955414 44.6308778,33.4543913 L51.4862729,33.4545455 L51.5214163,33.4539784 C51.8603355,33.4430359 52.1749648,33.2742887 52.3720485,32.9977534 L52.3920133,32.9687639 L54.9532663,29.1186108 C54.7579803,28.7915141 54.6457419,28.4088926 54.6457419,28 C54.6457419,26.7950151 55.6204758,25.8181818 56.822871,25.8181818 C58.0252661,25.8181818 59,26.7950151 59,28 C59,29.1915938 58.0468104,30.1600787 56.8628727,30.1814573 L54.2034942,34.1790188 L54.174341,34.2220989 C53.5752528,35.0924426 52.5931397,35.6191857 51.5382119,35.635951 L51.4862729,35.6363636 L44.8486066,35.6362545 C44.8486613,36.3836163 44.7736913,37.113321 44.6308778,37.8183359 L51.4862729,37.8181818 C52.5608363,37.8181818 53.5654317,38.3478349 54.174341,39.2324466 L54.2034942,39.2755266 L56.8628727,43.2730882 C58.0468104,43.2944668 59,44.2629517 59,45.4545455 C59,46.6595304 58.0252661,47.6363636 56.822871,47.6363636 C55.6204758,47.6363636 54.6457419,46.6595304 54.6457419,45.4545455 C54.6457419,45.0456528 54.7579803,44.6630313 54.9532663,44.3359346 L52.3920133,40.4857816 C52.1966345,40.1920821 51.8720223,40.0118869 51.5214163,40.000567 L51.4862729,40 L43.9428081,40.0001663 C43.6031929,40.779101 43.1754358,41.5106093 42.6721711,42.1820295 L47.1320149,42.1818182 C48.2065782,42.1818182 49.2111736,42.7114713 49.8200829,43.5960829 L49.8492361,43.639163 L52.5086147,47.6367245 C53.6925524,47.6581032 54.6457419,48.6265881 54.6457419,49.8181818 C54.6457419,51.0231667 53.6710081,52 52.4686129,52 C51.2662178,52 50.2914839,51.0231667 50.2914839,49.8181818 C50.2914839,49.4092892 50.4037223,49.0266677 50.5990083,48.699571 L48.0377553,44.849418 C47.8423764,44.5557185 47.5177643,44.3755233 47.1671583,44.3642034 L47.1320149,44.3636364 L40.4951567,44.3638681 C38.6756868,45.7337145 36.4139438,46.5454545 33.9630162,46.5454545 C31.5120886,46.5454545 29.2503455,45.7337145 27.4308757,44.3638681 L20.8679851,44.3636364 L20.8328417,44.3642034 C20.4939226,44.3751459 20.1792933,44.5438931 19.9822096,44.8204284 L19.9622447,44.849418 L17.4010569,48.6996801 C17.5963027,49.0267528 17.7085161,49.4093347 17.7085161,49.8181818 C17.7085161,51.0231667 16.7337822,52 15.5313871,52 C14.3289919,52 13.3542581,51.0231667 13.3542581,49.8181818 C13.3542581,48.6265539 14.3075022,47.6580477 15.4914871,47.6367227 L18.1507639,43.639163 L18.1799171,43.5960829 C18.7790053,42.7257392 19.7611184,42.1989961 20.8160461,42.1822308 L20.8679851,42.1818182 L25.2538612,42.1820295 C24.7505966,41.5106093 24.3228394,40.779101 23.9832243,40.0001663 L16.5137271,40 L16.4785837,40.000567 C16.1396645,40.0115096 15.8250352,40.1802568 15.6279515,40.4567921 L15.6079867,40.4857816 L13.0467988,44.3360438 C13.2420446,44.6631164 13.3542581,45.0456983 13.3542581,45.4545455 C13.3542581,46.6595304 12.3795242,47.6363636 11.177129,47.6363636 C9.97473387,47.6363636 9,46.6595304 9,45.4545455 C9,44.2629176 9.95324419,43.2944113 11.1372291,43.2730863 L13.7965058,39.2755266 L13.825659,39.2324466 C14.4247472,38.3621028 15.4068603,37.8353597 16.4617881,37.8185944 L16.5137271,37.8181818 L23.2951546,37.8183359 C23.1607419,37.1547925 23.0864258,36.4693785 23.0781478,35.7680481 L23.077371,35.6362544 L16.5137271,35.6363636 C15.4391637,35.6363636 14.4345683,35.1067106 13.825659,34.2220989 L13.7965058,34.1790188 L11.1372291,30.1814591 C9.95324419,30.1601342 9,29.1916279 9,28 C9,26.7950151 9.97473387,25.8181818 11.177129,25.8181818 C12.3795242,25.8181818 13.3542581,26.7950151 13.3542581,28 C13.3542581,28.4088472 13.2420446,28.791429 13.0467988,29.1185017 L15.6079867,32.9687639 C15.8033655,33.2624633 16.1279777,33.4426586 16.4785837,33.4539784 L16.5137271,33.4545455 L23.2951546,33.4543913 C23.4488734,32.6955414 23.6811923,31.965296 23.9832243,31.272561 L20.8330963,31.2727273 C19.758533,31.2727273 18.7539376,30.7430742 18.1450282,29.8584625 L18.1158751,29.8153825 L15.4558868,25.8168944 C14.2884523,25.7770226 13.3542581,24.8160245 13.3542581,23.6363636 C13.3542581,22.4313787 14.3289919,21.4545455 15.5313871,21.4545455 C16.7337822,21.4545455 17.7085161,22.4313787 17.7085161,23.6363636 C17.7085161,24.0567157 17.5898985,24.4493035 17.3843777,24.7823442 L19.9273559,28.6051275 C20.1227347,28.898827 20.4473469,29.0790222 20.7979529,29.0903421 L20.8330963,29.0909091 L25.2538612,29.0906977 C27.2398619,26.4411161 30.4017244,24.7272727 33.9630162,24.7272727 C37.524308,24.7272727 40.6861705,26.4411161 42.6721711,29.0906977 L47.1669037,29.0909091 L47.2020471,29.0903421 C47.5409662,29.0793995 47.8555956,28.9106523 48.0526793,28.634117 L48.0726441,28.6051275 L50.6156223,24.7823442 C50.4101015,24.4493035 50.2914839,24.0567157 50.2914839,23.6363636 C50.2914839,22.4313787 51.2662178,21.4545455 52.4686129,21.4545455 Z M33.9630162,26.9090909 C29.1534355,26.9090909 25.2545001,30.816424 25.2545001,35.6363636 C25.2545001,40.4563033 29.1534355,44.3636364 33.9630162,44.3636364 C38.7725968,44.3636364 42.6715323,40.4563033 42.6715323,35.6363636 C42.6715323,30.816424 38.7725968,26.9090909 33.9630162,26.9090909 Z M33.9630162,29.0909091 C37.5702017,29.0909091 40.4944033,32.0214089 40.4944033,35.6363636 C40.4944033,39.2513184 37.5702017,42.1818182 33.9630162,42.1818182 C30.3558307,42.1818182 27.4316291,39.2513184 27.4316291,35.6363636 C27.4316291,32.0214089 30.3558307,29.0909091 33.9630162,29.0909091 Z M41.5829678,16 L41.6549734,16.0005846 C44.0265525,16.039119 45.9372258,17.9777662 45.9372258,20.3636364 C45.9372258,22.7736062 43.9877581,24.7272727 41.5829678,24.7272727 C39.1781775,24.7272727 37.2287097,22.7736062 37.2287097,20.3636364 C37.2287097,19.1794271 37.6994158,18.1053938 38.4635546,17.3191918 L38.5040424,17.2780795 L41.5829678,20.3636364 L41.5829678,16 Z M26.3430646,16 L26.3430646,20.3636364 L29.42199,17.2780795 C30.2099557,18.0677424 30.6973226,19.1586515 30.6973226,20.3636364 C30.6973226,22.7736062 28.7478549,24.7272727 26.3430646,24.7272727 C23.9382743,24.7272727 21.9888065,22.7736062 21.9888065,20.3636364 C21.9888065,17.9777662 23.8994799,16.039119 26.271059,16.0005846 L26.3430646,16 Z" id="形状" fill="url(#linearGradient-1)"></path>
        </g>
    </g>
</svg>