<?xml version="1.0" standalone="no"?>
<!DOCTYPE svg PUBLIC "-//W3C//DTD SVG 20010904//EN"
  "http://www.w3.org/TR/2001/REC-SVG-20010904/DTD/svg10.dtd">
<svg version="1.0" xmlns="http://www.w3.org/2000/svg"
     width="200.000000pt" height="200.000000pt" viewBox="0 0 200.000000 200.000000"
     preserveAspectRatio="xMidYMid meet">

  <g transform="translate(0.000000,200.000000) scale(0.100000,-0.100000)"
     fill="#000000" stroke="none">
    <path d="M662 1668 c-41 -7 -124 -45 -130 -60 -2 -5 -8 -8 -14 -8 -14 0 -93
-64 -142 -114 -97 -100 -165 -251 -186 -407 -19 -148 28 -337 117 -466 40 -59
149 -173 165 -173 4 0 13 -6 20 -13 25 -26 128 -76 200 -99 96 -30 300 -33
393 -5 283 83 492 328 512 600 l6 77 -132 0 c-72 0 -131 -3 -131 -6 0 -3 5
-14 11 -26 6 -11 11 -59 11 -107 0 -137 -38 -229 -136 -326 -122 -122 -278
-162 -440 -114 -135 40 -221 116 -284 249 -34 71 -36 80 -36 180 0 100 2 109
36 183 79 166 231 267 404 267 61 0 73 3 77 18 3 9 15 52 28 95 19 66 20 81 9
102 -7 13 -16 22 -20 20 -4 -2 -38 11 -76 30 -38 19 -75 35 -81 35 -7 0 -13 4
-13 9 0 5 -14 12 -30 16 -17 4 -28 11 -25 16 4 5 -2 6 -11 2 -12 -4 -15 -3
-10 5 4 8 2 10 -7 6 -8 -3 -21 1 -28 8 -10 10 -26 12 -57 6z"/>
    <path d="M1235 1269 c20 -62 67 -112 139 -149 38 -19 162 -19 196 1 74 43 118
92 132 147 l6 22 -240 0 -239 0 6 -21z"/>
  </g>
</svg>
