<?xml version="1.0" encoding="UTF-8"?>
<svg width="1028px" height="1028px" viewBox="0 0 1028 1028" version="1.1" xmlns="http://www.w3.org/2000/svg" xmlns:xlink="http://www.w3.org/1999/xlink">
    <title>group</title>
    <defs>
        <radialGradient cx="49.9966152%" cy="50.0014665%" fx="49.9966152%" fy="50.0014665%" r="64.1690427%" gradientTransform="translate(0.499966,0.500015),scale(0.660584,1.000000),translate(-0.499966,-0.500015)" id="radialGradient-1">
            <stop stop-color="#FDA649" offset="0%"></stop>
            <stop stop-color="#FFBC75" offset="50%"></stop>
            <stop stop-color="#FA8C16" offset="100%"></stop>
        </radialGradient>
        <radialGradient cx="50.002707%" cy="50.0051014%" fx="50.002707%" fy="50.0051014%" r="56.8694256%" gradientTransform="translate(0.500027,0.500051),scale(0.794171,1.000000),translate(-0.500027,-0.500051)" id="radialGradient-2">
            <stop stop-color="#FDA649" offset="0%"></stop>
            <stop stop-color="#FFBC75" offset="50%"></stop>
            <stop stop-color="#FA8C16" offset="100%"></stop>
        </radialGradient>
    </defs>
    <g id="page-1" stroke="none" stroke-width="1" fill="none" fill-rule="evenodd">
        <g id="group" transform="translate(-0.004229, 0.000000)" fill-rule="nonzero">
            <circle id="oval" fill="#FFFFFF" transform="translate(514.000000, 514.000000) rotate(-90.000000) translate(-514.000000, -514.000000) " cx="514" cy="514" r="514"></circle>
            <g id="group-2" transform="translate(225.004229, 158.000000)">
                <path d="M16.4596698,174.958777 L312.248797,4.41061054 C322.436829,-1.47020351 334.99396,-1.47020351 345.181991,4.41061054 L531.503233,111.836861 C540.364532,116.936624 546.351885,125.856896 547.708553,135.980393 C549.065221,146.10389 545.637348,156.282549 538.430703,163.529864 L475.224464,226.914672 C464.692808,237.489935 448.352024,239.659741 435.41922,232.200199 L345.528365,180.368832 C335.12217,174.378698 322.308618,174.378698 311.902424,180.368832 L0,362 L0,203.434205 C0,191.687348 6.27300337,180.832205 16.4596698,174.958777 Z" id="route" fill="url(#radialGradient-1)"></path>
                <path d="M532.544967,632.653603 L345.375743,740.584309 C335.185824,746.471897 322.623879,746.471897 312.43396,740.584309 L16.470892,569.851008 C6.2772803,563.971204 0,553.104277 0,541.344669 L0,397.372421 L152.508257,309 L152.508257,453.332387 C152.509512,465.091229 158.78763,475.956831 168.979148,481.838725 L312.461688,564.587447 C322.651608,570.475035 335.213553,570.475035 345.403472,564.587447 L436.187477,512.228865 C449.097531,504.779507 465.406031,506.921271 475.950539,517.450872 L539.324652,580.84908 C546.577031,588.080688 550.049991,598.271079 548.721582,608.421638 C547.393173,618.572198 541.414546,627.527957 532.544967,632.653603 L532.544967,632.653603 Z" id="route" fill="url(#radialGradient-2)"></path>
            </g>
        </g>
        <path d="" id="route-2" stroke="#979797"></path>
    </g>
</svg>