<?xml version="1.0" encoding="utf-8"?>
<!-- Generator: Adobe Illustrator 24.0.1, SVG Export Plug-In . SVG Version: 6.00 Build 0)  -->
<svg version="1.1" id="图层_1" xmlns="http://www.w3.org/2000/svg" xmlns:xlink="http://www.w3.org/1999/xlink" x="0px" y="0px"
	 viewBox="0 0 590 590" style="enable-background:new 0 0 590 590;" xml:space="preserve">
<style type="text/css">
	.st0{fill:#1F1F1F;}
	.st1{fill:#FA8C16;}
	.st2{fill:#FFFFFF;}
</style>
<title>资源 59</title>
<circle class="st0" cx="295" cy="295" r="295"/>
<g>
	<path class="st1" d="M146.5,185.9l163.7-94.5c5.6-3.2,12.6-3.2,18.2,0l103.1,59.5c8.7,5,11.7,16.1,6.7,24.9
		c-0.8,1.4-1.8,2.6-2.9,3.8l-35,35.1c-5.8,5.9-14.9,7.1-22,2.9l-49.7-28.7c-5.8-3.3-12.8-3.3-18.6,0L137.3,289.5v-87.9
		C137.3,195.1,140.8,189.1,146.5,185.9z"/>
	<path class="st2" d="M431.9,438.9l-103.5,59.8c-5.6,3.2-12.6,3.2-18.2,0l-163.7-94.5c-5.6-3.3-9.1-9.3-9.1-15.8v-79.7l84.3-48.9
		v79.9c0,6.5,3.5,12.5,9.1,15.8l79.3,45.8c5.6,3.2,12.6,3.2,18.2,0l50.2-29c7.1-4.1,16.2-2.9,22,2.9l35.1,35.1
		c7.1,7.1,7.1,18.7,0,25.8C434.5,437.1,433.2,438.1,431.9,438.9z"/>
</g>
</svg>
