<svg width="288" height="288" viewBox="0 0 288 288" fill="none" xmlns="http://www.w3.org/2000/svg">
<circle cx="144" cy="144" r="143.5" fill="white" stroke="#EEEEEE"/>
<path fill-rule="evenodd" clip-rule="evenodd" d="M152.226 239.566C201.347 235.393 239.913 194.2 239.913 144C239.913 91.0285 196.972 48.0865 144 48.0865C91.0285 48.0865 48.0865 91.0285 48.0865 144C48.0865 196.057 89.5582 238.427 141.265 239.875V168.117C128.753 165.581 119.334 154.52 119.334 141.26C119.334 126.125 131.603 113.856 146.738 113.856C161.873 113.856 174.142 126.125 174.142 141.26C174.142 154.515 164.731 165.572 152.226 168.114V239.566ZM144 250.875C203.025 250.875 250.875 203.025 250.875 144C250.875 84.9746 203.025 37.125 144 37.125C84.9746 37.125 37.125 84.9746 37.125 144C37.125 203.025 84.9746 250.875 144 250.875ZM146.738 157.702C155.819 157.702 163.18 150.341 163.18 141.26C163.18 132.179 155.819 124.818 146.738 124.818C137.657 124.818 130.296 132.179 130.296 141.26C130.296 150.341 137.657 157.702 146.738 157.702ZM190.595 146.74C196.649 146.74 201.556 141.832 201.556 135.778C201.556 129.724 196.649 124.817 190.595 124.817C184.541 124.817 179.633 129.724 179.633 135.778C179.633 141.832 184.541 146.74 190.595 146.74ZM228.952 124.818C228.952 130.871 224.044 135.779 217.99 135.779C211.936 135.779 207.029 130.871 207.029 124.818C207.029 118.764 211.936 113.856 217.99 113.856C224.044 113.856 228.952 118.764 228.952 124.818ZM102.893 146.74C96.8392 146.74 91.9315 141.832 91.9315 135.778C91.9315 129.724 96.8392 124.817 102.893 124.817C108.947 124.817 113.855 129.724 113.855 135.778C113.855 141.832 108.947 146.74 102.893 146.74ZM64.5233 124.818C64.5233 130.871 69.4309 135.779 75.4848 135.779C81.5387 135.779 86.4464 130.871 86.4464 124.818C86.4464 118.764 81.5387 113.856 75.4848 113.856C69.4309 113.856 64.5233 118.764 64.5233 124.818Z" fill="black"/>
</svg>
