
<?xml version="1.0" encoding="UTF-8"?>
<svg width="117px" height="117px" viewBox="0 0 117 117" version="1.1" xmlns="http://www.w3.org/2000/svg" xmlns:xlink="http://www.w3.org/1999/xlink">
    <title>编组</title>
    <defs>
        <linearGradient x1="100%" y1="99.1489517%" x2="0%" y2="0.851048287%" id="linearGradient-1">
            <stop stop-color="#FE3876" offset="0%"></stop>
            <stop stop-color="#7C30DD" offset="71.4447846%"></stop>
            <stop stop-color="#3A30DD" offset="100%"></stop>
        </linearGradient>
    </defs>
    <g id="组件" stroke="none" stroke-width="1" fill="none" fill-rule="evenodd">
        <g id="编组" transform="translate(0.000000, 0.500000)">
            <ellipse id="椭圆形" fill="url(#linearGradient-1)" cx="58.5" cy="58" rx="58.5" ry="58"></ellipse>
            <path d="M37.7963293,41.5 C39.9824632,41.5 41.7547918,43.279328 41.7547918,45.4743151 C41.7547918,47.1928414 40.6681548,48.6567557 39.1471488,49.2111776 L39.1473608,69.7990411 C41.9789596,69.6735315 44.6120387,69.1533422 46.9514658,68.2911374 L46.9513819,52.5074105 C45.4303759,51.9529886 44.3437389,50.4890743 44.3437389,48.7705479 C44.3437389,46.5755608 46.1160675,44.7962329 48.3022014,44.7962329 C50.4883354,44.7962329 52.260664,46.5755608 52.260664,48.7705479 C52.260664,50.4890743 51.1740269,51.9529886 49.653021,52.5074105 L49.6531476,67.0732838 C52.2541893,65.6614956 54.3379792,63.7507164 55.7197953,61.4432064 C54.7822379,60.5949052 54.1929941,59.366518 54.1929941,58 C54.1929941,55.4408465 56.2592231,53.3664384 58.8080736,53.3664384 C59.0173771,53.3664384 59.2234261,53.3804264 59.4253438,53.4075224 C62.9403905,47.2712649 70.477406,43.5546777 79.4700228,43.4607288 L79.819818,43.4589041 L94.2653923,43.4589041 C95.0113936,43.4589041 95.6161473,44.0660796 95.6161473,44.8150685 C95.6161473,45.5373078 95.053819,46.1276823 94.3447594,46.1689307 L94.2653923,46.1712329 L91.6764452,46.1712329 L91.6765426,66.7888024 C93.1975662,67.3431828 94.2841527,68.8070168 94.2841527,70.5256849 C94.2841527,72.720491 92.5117418,74.5 90.3256902,74.5 C88.1396386,74.5 86.3672276,72.720491 86.3672276,70.5256849 C86.3672276,68.8068464 87.4540297,67.3428925 88.9752902,66.7886375 L88.9749352,46.1712329 L81.1702728,46.1712329 L81.1706704,66.7888024 C82.691694,67.3431828 83.7782806,68.8070168 83.7782806,70.5256849 C83.7782806,72.720491 82.0058696,74.5 79.819818,74.5 C77.6337664,74.5 75.8613554,72.720491 75.8613554,70.5256849 C75.8613554,68.8070168 76.947942,67.3431828 78.4689656,66.7888024 L78.4687864,46.2009589 C75.6371877,46.3264685 73.0041086,46.8466578 70.6646814,47.7088626 L70.6647983,63.4925695 C72.1858218,64.0469499 73.2724084,65.510784 73.2724084,67.2294521 C73.2724084,69.4242582 71.5,71.2037671 69.3139458,71.2037671 C67.1278942,71.2037671 65.3554833,69.4242582 65.3554833,67.2294521 C65.3554833,65.510784 66.4420698,64.0469499 67.9630934,63.4925695 L67.9629996,48.9267162 C65.3619579,50.3385044 63.278168,52.2492836 61.8963519,54.5567936 C62.8339332,55.4050054 63.4231532,56.633386 63.4231532,58 C63.4231532,60.5589739 61.3568404,62.6335616 58.8080736,62.6335616 C58.5987771,62.6335616 58.3927338,62.6195724 58.1908208,62.5924743 C54.6758024,68.7287126 47.1387685,72.445322 38.1461244,72.5392712 L37.7963293,72.5410959 L23.350755,72.5410959 C22.6047536,72.5410959 22,71.9339204 22,71.1849315 C22,70.4626922 22.5623283,69.8723177 23.2713879,69.8310693 L23.350755,69.8287671 L25.9397021,69.8286164 L25.939706,49.2112026 C24.4186642,48.6567997 23.3319945,47.1928672 23.3319945,45.4743151 C23.3319945,43.279328 25.1043231,41.5 27.2904571,41.5 C29.476591,41.5 31.2489196,43.279328 31.2489196,45.4743151 C31.2489196,47.1926976 30.1624645,48.6565106 28.6416586,49.2110383 L28.6412121,69.8286164 L36.4454242,69.8286164 L36.4455097,49.2111776 C34.9245037,48.6567557 33.8378667,47.1928414 33.8378667,45.4743151 C33.8378667,43.279328 35.6101953,41.5 37.7963293,41.5 Z" id="路径" fill="#FFFFFF"></path>
        </g>
    </g>
</svg>
