<?xml version="1.0" encoding="UTF-8"?>
<svg width="500px" height="500px" viewBox="0 0 500 500" version="1.1" xmlns="http://www.w3.org/2000/svg" xmlns:xlink="http://www.w3.org/1999/xlink">
    <title>head@2x</title>
    <g id="页面-1" stroke="none" stroke-width="1" fill="none" fill-rule="evenodd">
        <g id="画板备份-2" transform="translate(-1902, -185)">
            <g id="head" transform="translate(1902, 185)">
                <circle id="椭圆形" stroke="#979797" fill="#000000" cx="250" cy="250" r="249.5"></circle>
                <g id="white备份" transform="translate(78, 122)">
                    <path d="M316.731707,165.802469 L316.731,188.189 L327.219512,188.1893 L327.219,209.176 L344,209.176955 L344,236.460905 L333.512,236.46 L333.512195,249.753086 L306.243902,249.753086 L306.243902,254.650206 L278.97561,254.650206 L278.975,242.757 L253.105691,242.757202 L253.105691,215.473251 L265.691,215.473 L265.691057,201.481481 L275.479,201.481 L275.479675,181.893004 L289.463,181.893 L289.463415,165.802469 L316.731707,165.802469 Z M199.268293,0 L199.268293,27.2839506 L190.878,27.283 L190.878049,55.2674897 L188.081,55.267 L188.081,63.662 L228.634146,63.6625514 L228.634,93.045 L261.495935,93.0452675 L261.495,119.629 L289.463415,119.62963 L289.463415,165.802469 L243.317073,165.802469 L243.317,139.218 L218.146,139.218 L218.146341,153.209877 L188.081,153.209 L188.081301,167.901235 L159.414,167.901 L159.414634,181.193416 L114.666,181.193 L114.666667,195.884774 L72.016,195.884 L72.0162602,202.880658 L25.8699187,202.880658 L25.869,193.086 L0,193.08642 L0,146.91358 L16.78,146.913 L16.7804878,112.633745 L41.951,112.633 L41.9512195,89.5473251 L72.016,89.547 L72.0162602,75.5555556 L102.081,75.555 L102.081301,60.8641975 L127.252,60.864 L127.252033,32.18107 L146.13,32.181 L146.130081,16.090535 L171.999,16.09 L172,0 L199.268293,0 Z" id="形状结合" fill="#FFFFFF"></path>
                    <path d="M146.130081,116.831276 L146.129236,139.916782 L180.390244,139.917695 L180.390244,186.090535 L134.243902,186.090535 L134.243236,163.003782 L99.9837398,163.004115 L99.9837398,116.831276 L146.130081,116.831276 Z M48.2439024,80.1028807 L79.0081301,80.1028807 L79.0081301,110.884774 L48.2439024,110.884774 Z M302.747967,224.218107 L333.512195,224.218107 L333.512195,255 L302.747967,255 Z M218.146341,49.6707819 L218.146236,72.7567819 L238.422764,72.7572016 L238.422764,103.539095 L207.658537,103.539095 L207.658236,95.8427819 L172,95.8436214 L172,49.6707819 L218.146341,49.6707819 Z M19.5772358,163.004115 L35.6585366,163.004115 L35.6585366,179.09465 L19.5772358,179.09465 Z" id="形状结合" fill="#FF0083"></path>
                </g>
            </g>
        </g>
    </g>
</svg>