<svg width="36" height="36" viewBox="0 0 36 36" fill="none" xmlns="http://www.w3.org/2000/svg">
<path fill-rule="evenodd" clip-rule="evenodd" d="M0 18V17.9976C0.00132155 8.05741 8.05981 0 18 0C27.9411 0 36 8.05888 36 18C36 27.9411 27.9411 36 18 36C8.05888 36 0 27.9411 0 18ZM11.8872 13.8452C11.8872 13.0849 11.2868 12.4687 10.5463 12.4687C9.80574 12.4687 9.20536 13.0849 9.20536 13.8452C9.20536 14.4404 9.57346 14.9474 10.0887 15.1394L10.0887 22.2803H7.44501L7.44516 15.1394C7.96033 14.9473 8.32836 14.4403 8.32836 13.8452C8.32836 13.0849 7.72799 12.4687 6.98744 12.4687C6.2469 12.4687 5.64652 13.0849 5.64652 13.8452C5.64652 14.4404 6.01463 14.9474 6.52988 15.1394L6.52988 22.2803L5.65288 22.2804L5.62599 22.2812C5.3858 22.2955 5.19531 22.4999 5.19531 22.7501C5.19531 23.0095 5.40017 23.2198 5.65288 23.2198H10.5463L10.6648 23.2192C13.711 23.1866 16.2642 21.8994 17.4549 19.7741C17.5233 19.7835 17.5931 19.7883 17.664 19.7883C18.5274 19.7883 19.2273 19.0698 19.2273 18.1835C19.2273 17.7101 19.0277 17.2847 18.7101 16.9909C19.1782 16.1917 19.8841 15.5299 20.7652 15.0409L20.7652 20.0858C20.25 20.2778 19.8819 20.7848 19.8819 21.3801C19.8819 22.1403 20.4823 22.7566 21.2228 22.7566C21.9633 22.7566 22.5637 22.1403 22.5637 21.3801C22.5637 20.7848 22.1957 20.2778 21.6804 20.0858L21.6804 14.6191C22.4728 14.3205 23.3648 14.1403 24.324 14.0968L24.3241 21.2275C23.8088 21.4195 23.4407 21.9265 23.4407 22.5218C23.4407 23.2819 24.0411 23.8983 24.7817 23.8983C25.5222 23.8983 26.1226 23.2819 26.1226 22.5218C26.1226 21.9265 25.7545 21.4195 25.2393 21.2275L25.2391 14.0865H27.8829L27.8831 21.2274C27.3677 21.4194 26.9996 21.9264 26.9996 22.5218C26.9996 23.2819 27.6 23.8983 28.3405 23.8983C29.081 23.8983 29.6814 23.2819 29.6814 22.5218C29.6814 21.9265 29.3133 21.4195 28.7981 21.2275L28.7981 14.0865H29.6751L29.7019 14.0858C29.9421 14.0715 30.1326 13.867 30.1326 13.6168C30.1326 13.3574 29.9278 13.1471 29.6751 13.1471H24.7817L24.6632 13.1478C21.6169 13.1803 19.0638 14.4675 17.8731 16.5928C17.8047 16.5835 17.7349 16.5786 17.664 16.5786C16.8006 16.5786 16.1006 17.2971 16.1006 18.1835C16.1006 18.6568 16.3002 19.0822 16.6178 19.376C16.1497 20.1752 15.4439 20.837 14.5628 21.326L14.5627 16.2811C15.078 16.0891 15.446 15.582 15.446 14.9868C15.446 14.2266 14.8457 13.6103 14.1051 13.6103C13.3646 13.6103 12.7642 14.2266 12.7642 14.9868C12.7642 15.582 13.1323 16.0891 13.6475 16.2811L13.6476 21.7478C12.8551 22.0464 11.9631 22.2266 11.0039 22.2701L11.0039 15.1394C11.5191 14.9474 11.8872 14.4404 11.8872 13.8452Z" fill="#FF0083"/>
</svg>
