<?xml version="1.0" standalone="no"?>
<!DOCTYPE svg PUBLIC "-//W3C//DTD SVG 20010904//EN"
 "http://www.w3.org/TR/2001/REC-SVG-20010904/DTD/svg10.dtd">
<svg version="1.0" xmlns="http://www.w3.org/2000/svg"
 width="32.000000pt" height="32.000000pt" viewBox="0 0 32.000000 32.000000"
 preserveAspectRatio="xMidYMid meet">
<metadata>
Created by potrace 1.16, written by Peter Selinger 2001-2019
</metadata>
<g transform="translate(0.000000,32.000000) scale(0.100000,-0.100000)"
fill="#000000" stroke="none">
<path d="M0 160 l0 -160 160 0 160 0 0 160 0 160 -160 0 -160 0 0 -160z m250
29 c0 -87 -1 -92 -29 -120 -20 -20 -39 -29 -61 -29 -45 0 -90 47 -90 95 0 38
35 85 64 85 9 0 12 7 9 20 -8 29 15 25 49 -7 l28 -27 0 37 c0 26 4 37 15 37
12 0 15 -17 15 -91z"/>
</g>
</svg>
