<svg version="1.2" baseProfile="tiny-ps" xmlns="http://www.w3.org/2000/svg" viewBox="0 0 243 243" width="243" height="243">
	<title>dolphin_logo</title>
	<style>
		tspan { white-space:pre }
		.shp0 { fill: #c4a5bd }
		.shp1 { fill: #ffffff }
	</style>
	<g id="2">
		<path id="Shape 4" class="shp0" d="M128.85 192.96C128.85 192.96 187.87 181.38 160.49 139.53C143.48 113.54 109.11 115.91 75.59 125.2C47.03 133.12 40.96 129.89 40.96 129.89C40.96 129.89 18.17 126.06 49.75 103.62C49.75 103.62 34.11 30.48 133.24 46.68C244.56 64.86 229.51 210.83 131.48 204.35C131.48 204.35 124.3 202.79 128.85 192.96ZM147.3 42.3C147.3 42.3 170.87 46.83 190.37 65.95C190.37 65.95 191.82 42.73 203.55 34.41C203.55 34.41 216.45 22.4 198.28 23.03C181.12 23.62 159.44 26.68 147.3 42.3ZM102.62 142.12C102.62 142.12 120.88 143.35 128.25 160.17C135.61 176.99 138.68 191.32 141.57 194.67C144.47 198.03 110.3 194.55 106.09 185.67C101.88 176.8 116.83 169.77 100.16 145.41C100.16 145.41 98.39 141.22 102.62 142.12ZM84.34 228.42C84.34 228.42 101.54 234.69 115.14 222.27C128.74 209.86 137.39 197.98 141.4 196.08C145.42 194.19 112.75 183.52 105.28 189.95C97.81 196.37 108.61 208.86 83.43 224.41C83.43 224.41 80.11 227.53 84.34 228.42ZM111.21 122.6C111.21 122.6 116.84 146.74 135.3 152.85C135.3 152.85 132.49 128.6 135.11 126.73C136.46 125.77 129.82 122.92 123.31 122.11C117.19 121.35 111.21 122.6 111.21 122.6Z" />
		<path id="Ellipse 1" class="shp1" d="M81.39 81.72C86.25 81.72 90.19 85.64 90.19 90.47C90.19 95.3 86.25 99.22 81.39 99.22C76.53 99.22 72.59 95.3 72.59 90.47C72.59 85.64 76.53 81.72 81.39 81.72Z" />
	</g>
</svg>
