<?xml version="1.0" encoding="UTF-8" standalone="no"?>
<svg
   xmlns:dc="http://purl.org/dc/elements/1.1/"
   xmlns:cc="http://creativecommons.org/ns#"
   xmlns:rdf="http://www.w3.org/1999/02/22-rdf-syntax-ns#"
   xmlns:svg="http://www.w3.org/2000/svg"
   xmlns="http://www.w3.org/2000/svg"
   xmlns:sodipodi="http://sodipodi.sourceforge.net/DTD/sodipodi-0.dtd"
   xmlns:inkscape="http://www.inkscape.org/namespaces/inkscape"
   inkscape:version="1.0 (4035a4fb49, 2020-05-01)"
   sodipodi:docname="DotMog-2020.svg"
   viewBox="0 0 786.66669 785.33331"
   height="785.33331"
   width="786.66669"
   xml:space="preserve"
   id="svg833"
   version="1.1"><metadata
     id="metadata839"><rdf:RDF><cc:Work
         rdf:about=""><dc:format>image/svg+xml</dc:format><dc:type
           rdf:resource="http://purl.org/dc/dcmitype/StillImage" /><dc:title></dc:title></cc:Work></rdf:RDF></metadata><defs
     id="defs837"><clipPath
       id="clipPath851"
       clipPathUnits="userSpaceOnUse"><path
         id="path849"
         d="M 0,0 H 841.89 V 595.276 H 0 Z" /></clipPath><clipPath
       id="clipPath859"
       clipPathUnits="userSpaceOnUse"><path
         id="path857"
         d="M 0,595.276 H 841.89 V 0 H 0 Z" /></clipPath></defs><sodipodi:namedview
     inkscape:current-layer="g841"
     inkscape:window-maximized="0"
     inkscape:window-y="107"
     inkscape:window-x="240"
     inkscape:cy="392.66666"
     inkscape:cx="393.33334"
     inkscape:zoom="1.0677966"
     inkscape:pagecheckerboard="true"
     showgrid="false"
     id="namedview835"
     inkscape:window-height="1149"
     inkscape:window-width="1974"
     inkscape:pageshadow="2"
     inkscape:pageopacity="0"
     guidetolerance="10"
     gridtolerance="10"
     objecttolerance="10"
     borderopacity="1"
     bordercolor="#666666"
     pagecolor="#ffffff" /><g
     transform="matrix(1.3333333,0,0,-1.3333333,0,785.33333)"
     inkscape:label="dotMog_logo"
     inkscape:groupmode="layer"
     id="g841"><g
       transform="translate(-126,-3)"
       id="g843"><g
         id="g845"><g
           clip-path="url(#clipPath851)"
           id="g847"><g
             id="g853"><g
               clip-path="url(#clipPath859)"
               id="g855"><g
                 transform="translate(688.6416,419.6647)"
                 id="g861"><path
                   id="path863"
                   style="fill:#686564;fill-opacity:1;fill-rule:nonzero;stroke:none"
                   d="m 0,0 c 26.935,43.354 10.5,85.273 10.5,85.273 0,0 -13.578,40.382 -29.502,14.019 -6.896,-11.417 -18.414,-19.687 -29.262,-25.406 -53.877,60.304 -132.204,98.298 -219.433,98.298 -87.23,0 -165.556,-37.995 -219.433,-98.298 -10.847,5.718 -22.366,13.989 -29.262,25.406 -15.924,26.363 -29.502,-14.019 -29.502,-14.019 0,0 -16.435,-41.921 10.5,-85.273 -16.978,-37.185 -26.514,-78.48 -26.514,-122.027 0,-162.489 131.722,-294.211 294.211,-294.211 162.488,0 294.212,131.722 294.212,294.211 C 26.515,-78.48 16.979,-37.184 0,0" /></g><g
                 transform="translate(583.4326,190.509)"
                 id="g865"><path
                   id="path867"
                   style="fill:#ffffff;fill-opacity:1;fill-rule:nonzero;stroke:none"
                   d="m 0,0 -2.582,0.731 0.495,147.005 v 54.663 c 0.375,4.542 2.944,8.562 6.7,10.94 3.671,2.326 6.402,5.85 6.402,10.196 v 17.469 H -95.34 l -67.147,-85.167 -67.148,85.167 h -106.354 v -17.469 c 0,-4.346 2.729,-7.87 6.401,-10.196 3.756,-2.378 6.325,-6.398 6.7,-10.94 V 147.736 L -322.393,0.731 -324.975,0 c -6.44,-1.265 -11.118,-6.904 -11.118,-13.441 v -13.305 h 116.358 v 14.387 c 0,4.769 -2.609,8.319 -6.686,10.367 l -5.385,2.495 v 110.555 l 57.537,-69.281 c 2,-2.796 5.962,-5.943 11.782,-6.32 5.819,0.377 9.781,3.524 11.781,6.32 l 57.537,69.281 V 0.503 l -5.385,-2.495 c -4.077,-2.048 -6.686,-5.598 -6.686,-10.367 V -26.746 H 11.118 v 13.305 C 11.118,-6.904 6.439,-1.265 0,0" /></g></g></g></g></g></g></g></svg>
