<svg id="Layer_1" data-name="Layer 1" xmlns="http://www.w3.org/2000/svg" viewBox="0 0 120.11 118.02"><defs><style>.cls-1{fill:#706c69;}.cls-2{fill:#fff;}</style></defs><path class="cls-1" d="M110.92,35.82a19.29,19.29,0,0,0,2-16.2s-2.58-7.68-5.61-2.67a14.07,14.07,0,0,1-5.56,4.83,55.87,55.87,0,0,0-83.39,0A14,14,0,0,1,12.8,17c-3-5-5.61,2.67-5.61,2.67a19.31,19.31,0,0,0,2,16.2,55.91,55.91,0,1,0,101.74,0Z"/><path class="cls-2" d="M90.93,79.37l-.49-.14.1-27.94V40.9a2.73,2.73,0,0,1,1.27-2.07A2.36,2.36,0,0,0,93,36.89V33.57H72.81L60.05,49.75,47.29,33.57H27.08v3.32a2.36,2.36,0,0,0,1.22,1.94,2.73,2.73,0,0,1,1.27,2.07V51.29l.1,27.94-.49.14a2.61,2.61,0,0,0-2.12,2.55v2.53H49.18V81.72a2.14,2.14,0,0,0-1.27-2l-1-.48v-21L57.82,71.43a2.68,2.68,0,0,0,4.47,0L73.23,58.26v21l-1,.48a2.14,2.14,0,0,0-1.27,2v2.73H93V81.92A2.6,2.6,0,0,0,90.93,79.37Z"/></svg>
