<svg width="50" height="50" xmlns="http://www.w3.org/2000/svg">

 <g>
  <title>background</title>
  <rect fill="none" id="canvas_background" height="402" width="582" y="-1" x="-1"/>
 </g>
 <g>
  <title fill="#240041">Layer 1</title>
  <path fill="#240041" id="svg_1" fill-rule="evenodd" d="m13.595,24.999c0,-6.289 5.117,-11.405 11.406,-11.405c6.289,0 11.407,5.117 11.407,11.405c0,6.289 -5.117,11.406 -11.407,11.406c-6.289,0 -11.406,-5.117 -11.406,-11.406m11.406,-9.639c-5.316,0 -9.639,4.322 -9.639,9.639c0,5.314 4.323,9.639 9.639,9.639c5.316,0 9.639,-4.325 9.639,-9.639c0,-5.316 -4.323,-9.639 -9.639,-9.639zm-15.157,-10.541c-2.798,2.474 -3.73,7.451 -0.967,10.257c-1.045,1.69 -1.831,3.555 -2.303,5.541l-5.681,0c-0.467,0 -0.851,0.362 -0.88,0.829c-0.23,3.729 2.625,7.896 6.562,7.936c0.473,1.985 1.259,3.85 2.303,5.54l-4.022,4.023c-0.332,0.33 -0.348,0.86 -0.038,1.208c2.439,2.762 7.415,3.768 10.258,0.969c1.69,1.044 3.554,1.831 5.539,2.303l0,5.682c0,0.794 0.688,0.894 1.294,0.894c3.575,0 7.438,-2.806 7.475,-6.576c1.985,-0.473 3.851,-1.259 5.54,-2.303l4.022,4.021c0.328,0.329 0.861,0.345 1.21,0.038c2.805,-2.478 3.73,-7.445 0.969,-10.258c1.044,-1.69 1.83,-3.554 2.302,-5.539l5.68,0c0.466,0 0.852,-0.363 0.881,-0.828c0.232,-3.73 -2.622,-7.899 -6.559,-7.939c-0.473,-1.986 -1.259,-3.851 -2.303,-5.542l4.022,-4.02c0.33,-0.329 0.348,-0.859 0.038,-1.208c-2.474,-2.802 -7.452,-3.729 -10.257,-0.969c-1.691,-1.045 -3.556,-1.832 -5.543,-2.304l0,-5.679c0,-0.467 -0.361,-0.852 -0.828,-0.883c-3.727,-0.23 -7.898,2.625 -7.938,6.561c-1.986,0.473 -3.852,1.259 -5.542,2.304l-4.023,-4.023c-0.333,-0.331 -0.865,-0.343 -1.211,-0.035z" clip-rule="evenodd"/>
  <g id="Layer_2"/>
  <text xml:space="preserve" text-anchor="start" font-family="Helvetica, Arial, sans-serif" font-size="24" id="svg_2" y="31.173535" x="18.347941" stroke-width="0" stroke="#0f0f00" fill="#ff4057">e</text>
 </g>
</svg>