<?xml version="1.0" encoding="UTF-8" standalone="yes"?><svg xmlns="http://www.w3.org/2000/svg" xmlns:xlink="http://www.w3.org/1999/xlink" width="512px" height="512px" viewBox="0 0 512 512" version="1.1" style="zoom: 1;"><!-- Generator: Sketch 57.1 (83088) - https://sketch.com --><title>logo-white-with-bg</title><desc>Created with Sketch.</desc><g id="logo-white-with-bg" stroke="none" stroke-width="1" fill="none" fill-rule="evenodd"><rect fill="#111111" x="0" y="0" width="512" height="512"></rect><path d="M160.5,199.5 L160.5,319.5" id="Line" stroke="#FFFFFF" stroke-width="22" stroke-linecap="square"></path><path d="M160.5,199.5 L160.5,319.5" id="Line" stroke="#FFFFFF" stroke-width="22" stroke-linecap="square" transform="translate(160.500000, 259.500000) rotate(60.000000) translate(-160.500000, -259.500000)"></path><path d="M160.5,199.5 L160.5,319.5" id="Line" stroke="#FFFFFF" stroke-width="22" stroke-linecap="square" transform="translate(160.500000, 259.500000) rotate(-60.000000) translate(-160.500000, -259.500000)"></path><path d="M348.5,206.5 L348.5,256.5" id="Line" stroke="#FFFFFF" stroke-width="22" stroke-linecap="square" transform="translate(348.500000, 231.500000) scale(1, -1) translate(-348.500000, -231.500000)"></path><path d="M385.739092,271 L385.739092,321" id="Line" stroke="#FFFFFF" stroke-width="22" stroke-linecap="square" transform="translate(385.739092, 296.000000) scale(-1, 1) rotate(60.000000) translate(-385.739092, -296.000000)"></path><path d="M311.260908,271 L311.260908,321" id="Line" stroke="#FFFFFF" stroke-width="22" stroke-linecap="square" transform="translate(311.260908, 296.000000) scale(-1, 1) rotate(-60.000000) translate(-311.260908, -296.000000)"></path></g></svg>