<?xml version="1.0" encoding="utf-8"?>
<!-- Generator: Adobe Illustrator 25.2.0, SVG Export Plug-In . SVG Version: 6.00 Build 0)  -->
<svg version="1.1" id="Layer_1" xmlns="http://www.w3.org/2000/svg" xmlns:xlink="http://www.w3.org/1999/xlink" x="0px" y="0px"
	 viewBox="0 0 178.5 178.5" style="enable-background:new 0 0 178.5 178.5;" xml:space="preserve">
<style type="text/css">
	.st0{fill:#496DDB;}
</style>
<g>
	<path class="st0" d="M109.2,72c-1.1-4.2-3.7-6.9-8-8.1c-3.6-1-7.3-1.4-11-1.6c-4.2,0.1-8.5,0.4-12.6,1.6c-4.3,1.2-6.9,3.9-8,8.1
		c-0.6,2.3-0.8,4.7-0.9,7c-0.2,2.2-0.2,2.5,1.3,2.5h37.8c2.6,0,2.6,0,2.3-2.6C110,76.7,109.7,74.3,109.2,72z"/>
	<path class="st0" d="M108.5,96.9H70.8c-2.6,0-2.6,0-2.3,2.6c0.1,2.3,0.3,4.7,0.9,7c1.1,4.2,3.7,6.9,8,8.1c3.6,1,7.3,1.4,11,1.6
		c4.2-0.1,8.5-0.4,12.6-1.6c4.3-1.2,6.9-3.9,8-8.1c0.6-2.3,0.8-4.7,0.9-7C110.1,97.3,110.1,97,108.5,96.9z"/>
	<path class="st0" d="M89.2,0C40,0,0,40,0,89.2s40,89.2,89.2,89.2c49.3,0,89.2-40,89.2-89.2S138.5,0,89.2,0z M126.8,69.1
		c0.4,2.6,0.7,5.2,1,7.9v4.6h13.8c1.1,0,2.1,0,3.1,0.2c2.4,0.4,3.9,1.8,4,4.1l0,6.7c-0.1,2.3-1.6,3.7-4,4.1c-1,0.2-2,0.2-3.1,0.2
		h-14v4.5c-0.3,2.7-0.6,5.3-1,7.9c-0.4,2.6-1.1,4.9-2,6.9h17.7c2.1,0,4.1,0.2,5.5,2.2c2.1,3.3,1,7.7-2.3,9.8
		c-0.4,0.3-0.9,0.6-1.4,0.7c-3.7,1.2-7.5,1.4-11.4,1.6c-15.9,0.3-32.2,0.4-43.2,0.4c-13,0-30.4-0.2-43.6-0.5
		c-3.9-0.1-7.7-0.3-11.3-1.6c-0.6-0.1-1-0.3-1.4-0.7c-3.3-2.1-4.4-6.4-2.3-9.8c1.3-2,3.3-2.2,5.4-2.2h17.5c-0.8-2-1.5-4.3-1.9-6.8
		c-0.4-2.6-0.7-5.2-1-7.9v-4.6H36.9c-1.1,0-2.1,0-3.1-0.2c-2.4-0.4-3.9-1.8-4-4.1l0-6.7c0.1-2.3,1.6-3.7,4-4.1c1-0.2,2-0.2,3.1-0.2
		h14V77c0.3-2.7,0.6-5.3,1-7.9c0.4-2.6,1.1-4.9,2-6.9H36.2c-2.1,0-4.1-0.2-5.5-2.2c-2.1-3.3-1-7.7,2.3-9.8c0.4-0.3,0.9-0.6,1.4-0.7
		c3.7-1.2,7.5-1.4,11.3-1.6c15.9-0.3,32.2-0.4,43.2-0.4c13,0,30.5,0.2,43.6,0.5c3.9,0.1,7.7,0.3,11.3,1.6c0.6,0.1,1,0.3,1.4,0.7
		c3.3,2.1,4.4,6.4,2.3,9.8c-1.3,2-3.3,2.2-5.4,2.2h-17.5C125.7,64.3,126.3,66.5,126.8,69.1z"/>
</g>
</svg>
