<svg width="512" height="512" viewBox="0 0 512 512" fill="none" xmlns="http://www.w3.org/2000/svg">
  <path
    d="M0 256C0 114.615 114.615 0 256 0C397.385 0 512 114.615 512 256C512 397.385 397.385 512 256 512C114.615 512 0 397.385 0 256Z"
    fill="#7866D5" />
  <path
    d="M232 116C136 116 96 157.017 96 212L96 300C96 354.983 136 396 232 396L325 396C412 396 416 385.501 416 368C416 348.001 408 340 388 340L232 340C184 340 160 316.055 160 292L160 284L388 284C404 284 416 273.5 416 256C416 238.5 404 228 388 228L160 228L160 220C160 195.945 184 172 232 172L388 172C408 172 416 163.999 416 144C416 126.499 412 116 325 116L232 116Z"
    fill="white" />
</svg>