<svg width="309" height="308" viewBox="0 0 309 308" fill="none" xmlns="http://www.w3.org/2000/svg">
<path d="M254.04 94.1006L203.959 124.176L254.04 154.378L303.999 124.176L254.04 94.1006Z" fill="white"/>
<path d="M53.9596 94.1006L4 124.176L53.9596 154.378L104.04 124.176L53.9596 94.1006Z" fill="white"/>
<path d="M104.041 244.226V304L154.001 273.924V214.15L104.041 244.226Z" fill="#1792FF"/>
<path d="M104.04 124.538V184.312L53.959 154.236V94.4624L104.04 124.538Z" fill="#A4D8FF"/>
<path d="M104.04 184.337V243.985L53.959 214.035V154.261L104.04 184.337Z" fill="#A4D8FF"/>
<path d="M53.9596 154.252V214.026L4 183.95V124.176L53.9596 154.252Z" fill="#A4D8FF"/>
<path d="M154.001 214.151V273.925L104.041 243.975V184.201L154.001 214.151Z" fill="#A4D8FF"/>
<path d="M203.96 124.302V184.076L154 154V94.2266L203.96 124.302Z" fill="#A4D8FF"/>
<path d="M104.04 64.1508V123.925L53.959 93.8489V34.0752L104.04 64.1508Z" fill="#A4D8FF"/>
<path d="M203.96 243.974V303.748L154 273.798V214.024L203.96 243.974Z" fill="#A4D8FF"/>
<path d="M104.04 243.974V303.748L53.959 273.798V214.024L104.04 243.974Z" fill="#A4D8FF"/>
<path d="M203.959 124.302V184.076L254.04 154V94.2266L203.959 124.302Z" fill="#1792FF"/>
<path d="M203.959 64.1508V123.925L254.04 93.8489V34.0752L203.959 64.1508Z" fill="#1792FF"/>
<path d="M104.041 124.302V184.076L154.001 154V94.2266L104.041 124.302Z" fill="#1792FF"/>
<path d="M203.959 184.076V243.849L254.04 213.774V154L203.959 184.076Z" fill="#1792FF"/>
<path d="M254.041 154.252V214.026L304.001 183.95V124.176L254.041 154.252Z" fill="#1792FF"/>
<path d="M154 214.026V273.8L203.96 243.85V184.076L154 214.026Z" fill="#1792FF"/>
<path d="M203.959 243.849V303.623L254.04 273.547V213.773L203.959 243.849Z" fill="#1792FF"/>
<path d="M104.04 64.2871L53.959 94.3627L104.04 124.564L153.999 94.3627L104.04 64.2871Z" fill="white"/>
<path d="M154.001 34.0752L104.041 64.2767L154.001 94.3523L203.96 64.2767L154.001 34.0752Z" fill="white"/>
<path d="M154.001 154L104.041 184.076L154.001 214.151L203.96 184.076L154.001 154Z" fill="white"/>
<path d="M203.96 4L154 34.0756L203.96 64.2771L254.04 34.0756L203.96 4Z" fill="white"/>
<path d="M104.04 4L53.959 34.0756L104.04 64.2771L153.999 34.0756L104.04 4Z" fill="white"/>
<path d="M203.96 63.8994L154 94.1009L203.96 124.176L254.04 94.1009L203.96 63.8994Z" fill="white"/>
<path d="M53.9596 34.0756V94.101L4 124.177V183.95L53.9596 214.026V273.8L104.04 303.749L154 273.8L203.959 303.749L254.04 273.8V214.026L304 183.95V124.177L254.04 94.101V34.0756L203.959 4L154 34.0756L104.04 4L53.9596 34.0756Z" stroke="#001423" stroke-width="8" stroke-miterlimit="10" stroke-linejoin="round"/>
<path d="M4 124.176L53.9596 154.629" stroke="white" stroke-width="8" stroke-miterlimit="10" stroke-linecap="round" stroke-linejoin="round"/>
<path d="M104.041 244.228V303.75" stroke="white" stroke-width="8" stroke-miterlimit="10" stroke-linecap="round" stroke-linejoin="round"/>
<path d="M104.041 184.34V244.239" stroke="#001423" stroke-width="8" stroke-miterlimit="10" stroke-linejoin="round"/>
<path d="M53.959 94.1006V214.026" stroke="#001423" stroke-width="8" stroke-miterlimit="10" stroke-linejoin="round"/>
<path d="M203.959 243.976V184.076" stroke="#001423" stroke-width="8" stroke-miterlimit="10" stroke-linejoin="round"/>
<path d="M203.959 303.75V243.977" stroke="white" stroke-width="8" stroke-miterlimit="10" stroke-linecap="round" stroke-linejoin="round"/>
<path d="M304.001 123.924L254.041 154.377" stroke="white" stroke-width="8" stroke-miterlimit="10" stroke-linecap="round" stroke-linejoin="round"/>
<path d="M254.04 34.0752L203.959 64.5283" stroke="white" stroke-width="8" stroke-miterlimit="10" stroke-linecap="round" stroke-linejoin="round"/>
<path d="M53.959 34.0752L104.04 64.5283" stroke="white" stroke-width="8" stroke-miterlimit="10" stroke-linecap="round" stroke-linejoin="round"/>
<path d="M254.041 215.401V95.6016" stroke="#001423" stroke-width="8" stroke-miterlimit="10" stroke-linejoin="round"/>
<path d="M54.082 154.261L104.042 184.211" stroke="#001423" stroke-width="8" stroke-miterlimit="10" stroke-linejoin="round"/>
<path d="M53.959 214.024L153.999 274.301" stroke="#001423" stroke-width="8" stroke-miterlimit="10" stroke-linejoin="round"/>
<path d="M253.072 214.024L153.152 274.301" stroke="#001423" stroke-width="8" stroke-miterlimit="10" stroke-linejoin="round"/>
<path d="M254.04 154.391L203.959 184.089" stroke="#001423" stroke-width="8" stroke-miterlimit="10" stroke-linejoin="round"/>
<path d="M205.653 64.6445L154 94.2168" stroke="#001423" stroke-width="8" stroke-miterlimit="10" stroke-linejoin="round"/>
<path d="M154 34.0752L257.306 96.114" stroke="#001423" stroke-width="8" stroke-miterlimit="10" stroke-linejoin="round"/>
<path d="M203.114 183.446L154.001 153.496V94.226L104.041 64.1504" stroke="#001423" stroke-width="8" stroke-miterlimit="10" stroke-linejoin="round"/>
<path d="M153.999 33.9502L53.959 94.1014" stroke="#001423" stroke-width="8" stroke-miterlimit="10" stroke-linejoin="round"/>
<path d="M153.996 153.246L103.674 183.573" stroke="#001423" stroke-width="8" stroke-miterlimit="10" stroke-linejoin="round"/>
<path d="M53.959 94.1006L104.04 124.554V184.202L153.999 214.151V273.799" stroke="white" stroke-width="8" stroke-miterlimit="10" stroke-linecap="round" stroke-linejoin="round"/>
<path d="M254.04 94.1006L203.96 124.554V184.202L154 214.151" stroke="white" stroke-width="8" stroke-miterlimit="10" stroke-linecap="round" stroke-linejoin="round"/>
<path d="M104.041 124.567L154.001 94.3652L203.96 124.567" stroke="white" stroke-width="8" stroke-miterlimit="10" stroke-linecap="round" stroke-linejoin="round"/>
</svg>
