<svg width="522" height="522" viewBox="0 0 522 522" fill="none" xmlns="http://www.w3.org/2000/svg">
<path d="M261 0C209.38 0 158.919 15.309 115.996 43.9873C73.0735 72.6656 39.6208 113.428 19.8685 161.121C0.112278 208.811 -5.0564 261.29 5.01687 311.921C15.0862 362.551 39.9441 409.054 76.4445 445.554C112.945 482.058 159.451 506.916 210.078 516.986C260.709 527.055 313.184 521.886 360.877 502.134C408.567 482.378 449.329 448.925 478.007 406.006C506.686 363.083 521.995 312.622 521.995 261.002C521.975 191.787 494.472 125.409 445.528 76.4701C396.585 27.527 330.212 0.0236593 260.996 0.00394642L261 0Z" fill="#A466FF"/>
<path d="M251.571 385.748C251.495 386.59 251.008 387.729 249.573 388.668C235.256 398.064 218.843 403.802 201.703 403.972C171.545 403.925 143.947 387.555 123.044 357.363C104.245 328.499 93.8464 295.738 93 261.301C93 259.913 93.1777 259.46 93.419 259.012C93.7279 258.44 94.3882 257.937 95.1457 257.577L115.105 248.681C115.596 248.461 116.125 248.317 116.666 248.313C117.377 248.308 117.978 248.495 118.609 248.837C119.417 249.278 120.293 250.505 120.297 251.343C120.361 285.573 129.401 317.974 145.729 341.89C161.168 364.541 181.275 376.725 202.224 376.759C212.368 376.797 222.288 374.105 231.019 369.031C232.035 368.438 233.059 367.833 234.045 367.181C234.388 366.953 235.362 366.763 236.157 366.83C236.953 366.898 237.757 367.423 238.252 368.019C242.277 373.28 246.348 378.139 250.724 382.989C251.478 383.822 251.617 385.232 251.571 385.748Z" fill="white"/>
<path d="M401.622 357.795C381.037 387.509 352.94 404.205 322.815 404.158C292.691 404.111 265.025 387.331 244.152 357.549C224.515 329.037 213.685 291.299 213.748 251.381C213.807 214.549 235.209 185.656 262.016 185.698C288.818 185.74 310.17 214.701 310.11 251.533C310.534 283.643 302.844 315.342 287.752 343.685C287.57 344.053 286.681 345.183 285.509 345.289C284.459 345.382 283.494 344.916 283.05 344.446C282.965 344.358 282.868 344.247 282.72 344.091C280.227 341.145 277.696 338.229 275.614 335.284C273.108 331.657 270.988 328.191 268.944 324.284C268.343 323.176 268.457 322.431 269.257 320.522C276.735 302.658 283.223 275.145 283.173 251.085C283.134 233.077 273.989 212.526 261.838 212.504C249.688 212.488 240.445 233.009 240.419 251.017C240.364 285.251 249.523 317.648 265.85 341.564C281.323 364.181 301.396 376.365 322.345 376.399C343.295 376.433 363.444 363.902 378.951 341.742C395.316 317.805 404.61 285.64 404.665 251.271C404.716 216.902 395.592 184.813 379.234 160.825C375.231 154.778 370.461 149.293 365.133 144.383C364.252 143.571 363.402 142.716 362.488 141.937C361.933 141.319 361.595 140.541 361.518 139.711C361.446 138.886 361.641 137.993 362.259 137.316C362.792 136.694 363.402 136.457 363.419 136.44L383.907 127.315C384.639 126.955 385.21 126.938 385.841 127.091C386.471 127.243 386.81 127.641 387.326 128.14C392.54 133.448 397.306 139.182 401.576 145.276C421.217 173.789 432.043 211.527 431.98 251.445C431.921 291.358 421.349 329.342 401.622 357.79V357.796Z" fill="white"/>
</svg>
