<?xml version="1.0" encoding="UTF-8"?>
<svg id="Layer_1" data-name="Layer 1" xmlns="http://www.w3.org/2000/svg" xmlns:xlink="http://www.w3.org/1999/xlink" viewBox="0 0 500 500">
  <defs>
    <style>
      .cls-1 {
        fill: url(#linear-gradient-7);
      }

      .cls-2 {
        fill: url(#linear-gradient-5);
      }

      .cls-3 {
        fill: url(#linear-gradient-6);
      }

      .cls-4 {
        fill: url(#linear-gradient-4);
      }

      .cls-5 {
        fill: url(#linear-gradient-3);
      }

      .cls-6 {
        fill: url(#linear-gradient-2);
      }

      .cls-7 {
        fill: url(#linear-gradient);
      }

      .cls-8 {
        fill: #3798d4;
      }
    </style>
    <linearGradient id="linear-gradient" x1="104.72" y1="197.78" x2="398.88" y2="197.78" gradientUnits="userSpaceOnUse">
      <stop offset="0" stop-color="#022f35"/>
      <stop offset="1" stop-color="#194453"/>
    </linearGradient>
    <linearGradient id="linear-gradient-2" x1="119.91" y1="421.94" x2="153.28" y2="421.94" xlink:href="#linear-gradient"/>
    <linearGradient id="linear-gradient-3" x1="160.17" y1="421.94" x2="173.22" y2="421.94" xlink:href="#linear-gradient"/>
    <linearGradient id="linear-gradient-4" x1="181.57" y1="421.94" x2="230.93" y2="421.94" xlink:href="#linear-gradient"/>
    <linearGradient id="linear-gradient-5" x1="236.49" y1="421.94" x2="270.37" y2="421.94" xlink:href="#linear-gradient"/>
    <linearGradient id="linear-gradient-6" x1="275.94" y1="421.94" x2="317.3" y2="421.94" xlink:href="#linear-gradient"/>
    <linearGradient id="linear-gradient-7" x1="320.01" y1="421.94" x2="375.3" y2="421.94" xlink:href="#linear-gradient"/>
  </defs>
  <g>
    <path class="cls-8" d="M295.59,141.49h0c-15.91-15.91-41.8-15.91-57.71,0l-18.92,18.92-28.12-28.12,37.62-37.62-19.55-19.84-57.3,57.3,9.74,9.88-.09.09,38,38-2.78,2.78c-15.91,15.91-15.91,41.8,0,57.71,7.96,7.95,18.41,11.93,28.86,11.93s20.9-3.98,28.86-11.93l41.4-41.4c15.91-15.91,15.91-41.8,0-57.71ZM275.9,179.51l-18.92,18.92-3.63-3.63c-5.44-5.44-14.26-5.44-19.69,0-5.44,5.44-5.44,14.26,0,19.69l3.63,3.63-2.78,2.78c-5.05,5.05-13.27,5.05-18.33,0-5.05-5.05-5.05-13.27,0-18.33l41.4-41.4c2.53-2.53,5.84-3.79,9.16-3.79s6.64,1.26,9.16,3.79c5.05,5.05,5.05,13.28,0,18.33Z"/>
    <rect class="cls-8" x="278.92" y="231.63" width="27.85" height="46.66" transform="translate(-94.51 281.73) rotate(-45)"/>
    <path class="cls-7" d="M385.62,165.77l-101.83-101.83c-17.64-17.64-46.35-17.64-63.99,0l-.71.71,19.55,19.84.85-.85c3.39-3.39,7.85-5.09,12.3-5.09s8.91,1.7,12.3,5.09l101.83,101.83c3.29,3.29,5.1,7.65,5.1,12.3s-1.81,9.02-5.1,12.3l-101.83,101.83c-3.29,3.29-7.66,5.1-12.3,5.1s-9.02-1.81-12.3-5.1l-101.83-101.83c-3.29-3.29-5.1-7.66-5.1-12.3s1.81-9.02,5.1-12.3l23.3-23.3-19.55-19.84-23.45,23.45c-8.55,8.55-13.25,19.91-13.25,32s4.71,23.45,13.25,32l101.83,101.83h0c8.55,8.55,19.91,13.25,32,13.25s23.45-4.71,32-13.25l101.83-101.83c8.55-8.55,13.25-19.91,13.25-32s-4.71-23.45-13.25-32Z"/>
  </g>
  <g>
    <path class="cls-6" d="M119.91,394.58h33.37v11.51h-20.31v11.66h17.82v11.51h-17.82v20.02h-13.05v-54.71Z"/>
    <path class="cls-5" d="M160.17,394.58h13.05v54.71h-13.05v-54.71Z"/>
    <path class="cls-4" d="M194.63,416.66v32.63h-13.05v-54.71h12.54l23.76,32.71v-32.71h13.05v54.71h-12.47l-23.83-32.63Z"/>
    <path class="cls-2" d="M246.91,406.32h-10.42v-11.73h33.88v11.73h-10.42v42.97h-13.05v-42.97Z"/>
    <path class="cls-3" d="M289.14,431.69h-.15v17.6h-13.05v-54.71h15.25c12.25,0,23.91,4.03,23.91,18.55,0,8.07-5.35,13.42-12.17,16.21l14.37,19.95h-15.62l-12.54-17.6ZM289,406.17v15.25h3.37c5.79,0,9.83-2.93,9.83-8.07,0-4.77-3.45-7.19-9.97-7.19h-3.23Z"/>
    <path class="cls-1" d="M358.36,441.15h-21.85l-2.93,8.14h-13.57l21.19-54.71h12.91l21.19,54.71h-14.01l-2.93-8.14ZM354.69,430.88l-7.19-20.02-7.26,20.02h14.45Z"/>
  </g>
</svg>