<?xml version="1.0" encoding="UTF-8"?>
<svg id="Layer_2" data-name="Layer 2" xmlns="http://www.w3.org/2000/svg" xmlns:xlink="http://www.w3.org/1999/xlink" viewBox="0 0 86.84 86.83">
  <defs>
    <style>
      .cls-1 {
        fill: #5196d2;
      }

      .cls-2 {
        fill: url(#linear-gradient);
      }
    </style>
    <linearGradient id="linear-gradient" x1="0" y1="43.41" x2="86.84" y2="43.41" gradientUnits="userSpaceOnUse">
      <stop offset="0" stop-color="#0f2e34"/>
      <stop offset="1" stop-color="#244251"/>
    </linearGradient>
  </defs>
  <g id="SLIDE_2" data-name="SLIDE 2">
    <g>
      <path class="cls-1" d="M56.35,26.8h0c-4.7-4.7-12.34-4.7-17.04,0l-5.59,5.59-8.3-8.3,11.11-11.11-5.77-5.86L13.84,24.04l2.88,2.92-.03.03,11.22,11.22-.82.82c-4.7,4.7-4.7,12.34,0,17.04,2.35,2.35,5.43,3.52,8.52,3.52s6.17-1.17,8.52-3.52l12.22-12.22c4.7-4.7,4.7-12.34,0-17.04ZM50.53,38.02l-5.59,5.59-1.07-1.07c-1.61-1.61-4.21-1.61-5.81,0-1.61,1.61-1.61,4.21,0,5.81l1.07,1.07-.82.82c-1.49,1.49-3.92,1.49-5.41,0-1.49-1.49-1.49-3.92,0-5.41l12.22-12.22c.75-.75,1.73-1.12,2.71-1.12s1.96.37,2.71,1.12c1.49,1.49,1.49,3.92,0,5.41Z"/>
      <rect class="cls-1" x="51.43" y="53.41" width="8.22" height="13.77" transform="translate(-26.37 56.93) rotate(-45)"/>
      <path class="cls-2" d="M82.92,33.97L52.86,3.91c-5.21-5.21-13.68-5.21-18.89,0l-.21.21,5.77,5.86.25-.25c1-1,2.32-1.5,3.63-1.5s2.63.5,3.63,1.5l30.06,30.06c.97.97,1.5,2.26,1.5,3.63s-.53,2.66-1.5,3.63l-30.06,30.06c-.97.97-2.26,1.5-3.63,1.5s-2.66-.53-3.63-1.5l-30.06-30.06c-.97-.97-1.5-2.26-1.5-3.63s.53-2.66,1.5-3.63l6.88-6.88-5.77-5.86-6.92,6.92c-2.52,2.52-3.91,5.88-3.91,9.45s1.39,6.92,3.91,9.45l30.06,30.06h0c2.52,2.52,5.88,3.91,9.45,3.91s6.92-1.39,9.45-3.91l30.06-30.06c2.52-2.52,3.91-5.88,3.91-9.45s-1.39-6.92-3.91-9.45Z"/>
    </g>
  </g>
</svg>