<svg xmlns="http://www.w3.org/2000/svg" xmlns:xlink="http://www.w3.org/1999/xlink" width="2006" height="2006" viewBox="0 0 2006 2006">
  <defs>
    <clipPath id="a" transform="translate(10 12)">
      <path d="M1551.62,1028.11c-28-16.46-474.23-275-474.23-275s-27.34-19-54.4-25.36V662.4c103-27.89,163.79-134,135.9-236.92S1025,261.68,922,289.58,758.15,423.58,786,526.5A193.15,193.15,0,0,0,942.35,666.76v61.63c-24.89,5.2-59.28,18.12-103.73,47.77-23,11.58-406.72,242-406.72,242s-90.51,36.26-82.35,154.83c-1.67,24.69-.52,110.32-.52,110.32s-7.69,82.33,81.23,131.72,480.81,278.23,480.81,278.23,69.16,57.64,164.66,0,508.83-297.94,508.83-297.94,47.73-39.52,49.41-93.86,0-116.9,0-116.9,19.76-113.62-82.33-156.43Zm-631-561.27a74.09,74.09,0,1,1,74.1-74.08,74.09,74.09,0,0,1-74.1,74.08ZM581.74,1122c-39.1,0-70.75-23.22-70.75-51.83s31.71-52,70.82-52,70.81,23.23,70.81,52S621,1122,581.81,1122Zm410,100.33c-119.12,0-215.71-67.83-215.71-151.49,0-71.7,71-131.63,166.32-147.32V1011a47.28,47.28,0,0,0,11.86,31.84,38.1,38.1,0,0,0,28.5,13.24c22.32,0,40.31-20.11,40.31-45V921.13c104.3,10.64,184.48,73.51,184.48,149.7,0,83.66-96.57,151.49-215.71,151.49Z" style="fill: none"/>
    </clipPath>
    <linearGradient id="b" x1="394.53" y1="954.99" x2="1602.48" y2="991.9" gradientUnits="userSpaceOnUse">
      <stop offset="0" stop-color="#f25416"/>
      <stop offset="1" stop-color="#fdb93f"/>
    </linearGradient>
  </defs>
  <rect width="2006" height="2006" style="fill: #0d0d0d"/>
  <g style="clip-path: url(#a)">
    <rect x="60" y="122" width="1848" height="1702" style="fill: url(#b)"/>
  </g>
</svg>
