<?xml version="1.0" encoding="utf-8"?>
<!-- Generator: Adobe Illustrator 25.2.1, SVG Export Plug-In . SVG Version: 6.00 Build 0)  -->
<svg version="1.1" id="Layer_1" xmlns="http://www.w3.org/2000/svg" xmlns:xlink="http://www.w3.org/1999/xlink" x="0px" y="0px"
	 viewBox="0 0 360 360" style="enable-background:new 0 0 360 360;" xml:space="preserve">
<style type="text/css">
	.st0{fill:#282829;}
	.st1{fill:#F7941D;}
</style>
<path class="st0" d="M333.47,360H26.53C11.88,360,0,348.12,0,333.47V26.53C0,11.88,11.88,0,26.53,0h306.94
	C348.12,0,360,11.88,360,26.53v306.94C360,348.12,348.12,360,333.47,360z"/>
<g>
	<path class="st1" d="M99.79,171.86l11.55-11.55l-24.17-24.17L43.31,180l43.86,43.86l24.2-24.2l-11.57-11.57
		C95.31,183.61,95.31,176.34,99.79,171.86z"/>
	<path class="st1" d="M188.19,99.69l11.57,11.57l24.1-24.1L180,43.31l-43.86,43.86l24.17,24.17l11.64-11.64
		C176.44,95.21,183.7,95.21,188.19,99.69z"/>
	<path class="st1" d="M260.35,188.09l-11.64,11.64l24.13,24.13L316.69,180l-43.86-43.86l-24.1,24.1l11.61,11.61
		C264.83,176.34,264.83,183.61,260.35,188.09z"/>
	<path class="st1" d="M171.95,260.25l-11.61-11.61l-24.2,24.2L180,316.69l43.86-43.86l-24.13-24.13l-11.55,11.55
		C183.7,264.73,176.44,264.73,171.95,260.25z"/>
</g>
<path class="st1" d="M236.98,186.58l-50.4,50.4c-3.64,3.64-9.53,3.64-13.17,0l-50.4-50.4c-3.64-3.64-3.64-9.53,0-13.17l50.4-50.4
	c3.64-3.64,9.53-3.64,13.17,0l50.4,50.4C240.62,177.05,240.62,182.95,236.98,186.58z"/>
</svg>
