<svg width="200" height="200" viewBox="0 0 200 200" fill="none" xmlns="http://www.w3.org/2000/svg">
<circle cx="100" cy="100" r="100" fill="white"/>
<path fill-rule="evenodd" clip-rule="evenodd" d="M100 185C146.944 185 185 146.944 185 100C185 53.0558 146.944 15 100 15C53.0558 15 15 53.0558 15 100C15 146.944 53.0558 185 100 185ZM100 200C155.228 200 200 155.228 200 100C200 44.7715 155.228 0 100 0C44.7715 0 0 44.7715 0 100C0 155.228 44.7715 200 100 200Z" fill="url(#paint0_angular)"/>
<path d="M67 145C65.8954 145 65 144.105 65 143V57C65 55.8954 65.8954 55 67 55H78.7193C79.8239 55 80.7193 55.8954 80.7193 57V90.4143C80.7193 91.5189 81.6147 92.4143 82.7193 92.4143H117.281C118.385 92.4143 119.281 91.5189 119.281 90.4143V57C119.281 55.8954 120.176 55 121.281 55H133C134.105 55 135 55.8954 135 57V143C135 144.105 134.105 145 133 145H121.281C120.176 145 119.281 144.105 119.281 143V107.786C119.281 106.681 118.385 105.786 117.281 105.786H82.7193C81.6147 105.786 80.7193 106.681 80.7193 107.786V143C80.7193 144.105 79.8239 145 78.7193 145H67Z" fill="#2F2F2F"/>
<defs>
<radialGradient id="paint0_angular" cx="0" cy="0" r="1" gradientUnits="userSpaceOnUse" gradientTransform="translate(100 100) rotate(-90) scale(100)">
<stop offset="0.248297" stop-color="#501BF2"/>
<stop offset="0.495497" stop-color="#F029A7"/>
<stop offset="0.751859" stop-color="#F9C778"/>
<stop offset="0.998434" stop-color="#07DAFF"/>
</radialGradient>
</defs>
</svg>
