<svg width="192" height="193" viewBox="0 0 192 193" fill="none" xmlns="http://www.w3.org/2000/svg">
<path d="M96 192.5C149.019 192.5 192 149.519 192 96.5C192 43.4807 149.019 0.5 96 0.5C42.9807 0.5 0 43.4807 0 96.5C0 149.519 42.9807 192.5 96 192.5Z" fill="#026B71"/>
<path d="M96 192.5C149.019 192.5 192 149.519 192 96.5C192 43.4807 149.019 0.5 96 0.5C42.9807 0.5 0 43.4807 0 96.5C0 149.519 42.9807 192.5 96 192.5Z" fill="url(#paint0_linear_75_13430)"/>
<path d="M96 192.5C149.019 192.5 192 149.519 192 96.5C192 43.4807 149.019 0.5 96 0.5C42.9807 0.5 0 43.4807 0 96.5C0 149.519 42.9807 192.5 96 192.5Z" fill="#0A373B"/>
<path fill-rule="evenodd" clip-rule="evenodd" d="M75.6533 149.338H90.0845H93.7398C93.6823 149.338 93.6357 149.292 93.6357 149.234V111.602C93.6357 106.703 96.5007 102.258 100.961 100.234L104.449 98.652C108.909 96.6283 111.774 92.1826 111.774 87.2842V80.3073V48.6033C111.774 48.5458 111.821 48.4993 111.878 48.4993H93.7919L93.7919 80.3073V87.2842C93.7919 92.1826 90.9269 96.6283 86.4661 98.652L82.9791 100.234C78.5182 102.258 75.6533 106.703 75.6533 111.602V149.338ZM133.176 48.4999H139.282C142.729 48.4999 145.523 51.2943 145.523 54.7414V86.2364C145.523 91.1348 142.659 95.5805 138.198 97.6042L134.711 99.1862C130.25 101.21 127.385 105.656 127.385 110.554V117.531V143.097C127.385 146.545 124.59 149.339 121.143 149.339H109.298C109.356 149.339 109.402 149.292 109.402 149.235V117.531V110.554C109.402 105.656 112.267 101.21 116.728 99.1862L120.215 97.6042C124.676 95.5805 127.541 91.1348 127.541 86.2364V48.6039C127.541 48.5466 127.495 48.5001 127.437 48.4999H131.092H132.067C132.037 48.4995 132.007 48.4993 131.977 48.4993H133.086C133.116 48.4993 133.146 48.4995 133.176 48.4999ZM78.225 48.4993H66.38C62.9329 48.4993 60.1385 51.2937 60.1385 54.7408L60.1385 80.3073V87.2842C60.1385 92.1826 57.2736 96.6283 52.8128 98.652L49.3257 100.234C44.8649 102.258 42 106.703 42 111.602V143.097C42 146.544 44.7944 149.338 48.2415 149.338H56.4312H60.0862C60.0288 149.338 59.9824 149.292 59.9824 149.234V111.602C59.9824 106.703 62.8473 102.258 67.3082 100.234L70.7952 98.652C75.256 96.6283 78.121 92.1826 78.121 87.2842V80.3073L78.121 48.6033C78.121 48.5458 78.1675 48.4993 78.225 48.4993Z" fill="white"/>
<path fill-rule="evenodd" clip-rule="evenodd" d="M75.6533 149.338H90.0845H93.7398C93.6823 149.338 93.6357 149.292 93.6357 149.234V111.602C93.6357 106.703 96.5007 102.258 100.961 100.234L104.449 98.652C108.909 96.6283 111.774 92.1826 111.774 87.2842V80.3073V48.6033C111.774 48.5458 111.821 48.4993 111.878 48.4993H93.7919L93.7919 80.3073V87.2842C93.7919 92.1826 90.9269 96.6283 86.4661 98.652L82.9791 100.234C78.5182 102.258 75.6533 106.703 75.6533 111.602V149.338ZM133.176 48.4999H139.282C142.729 48.4999 145.523 51.2943 145.523 54.7414V86.2364C145.523 91.1348 142.659 95.5805 138.198 97.6042L134.711 99.1862C130.25 101.21 127.385 105.656 127.385 110.554V117.531V143.097C127.385 146.545 124.59 149.339 121.143 149.339H109.298C109.356 149.339 109.402 149.292 109.402 149.235V117.531V110.554C109.402 105.656 112.267 101.21 116.728 99.1862L120.215 97.6042C124.676 95.5805 127.541 91.1348 127.541 86.2364V48.6039C127.541 48.5466 127.495 48.5001 127.437 48.4999H131.092H132.067C132.037 48.4995 132.007 48.4993 131.977 48.4993H133.086C133.116 48.4993 133.146 48.4995 133.176 48.4999ZM78.225 48.4993H66.38C62.9329 48.4993 60.1385 51.2937 60.1385 54.7408L60.1385 80.3073V87.2842C60.1385 92.1826 57.2736 96.6283 52.8128 98.652L49.3257 100.234C44.8649 102.258 42 106.703 42 111.602V143.097C42 146.544 44.7944 149.338 48.2415 149.338H56.4312H60.0862C60.0288 149.338 59.9824 149.292 59.9824 149.234V111.602C59.9824 106.703 62.8473 102.258 67.3082 100.234L70.7952 98.652C75.256 96.6283 78.121 92.1826 78.121 87.2842V80.3073L78.121 48.6033C78.121 48.5458 78.1675 48.4993 78.225 48.4993Z" fill="url(#paint1_linear_75_13430)"/>
<defs>
<linearGradient id="paint0_linear_75_13430" x1="36.2295" y1="7.70001" x2="156.191" y2="177.959" gradientUnits="userSpaceOnUse">
<stop stop-color="#FEE45D"/>
<stop offset="0.145" stop-color="#FEE45D"/>
<stop offset="0.775" stop-color="#AEFEC3"/>
</linearGradient>
<linearGradient id="paint1_linear_75_13430" x1="61.5344" y1="52.2808" x2="123.965" y2="143.246" gradientUnits="userSpaceOnUse">
<stop stop-color="#FEE45D"/>
<stop offset="0.145" stop-color="#FEE45D"/>
<stop offset="0.775" stop-color="#AEFEC3"/>
</linearGradient>
</defs>
</svg>
