<?xml version="1.0" encoding="UTF-8"?>
<!DOCTYPE svg PUBLIC "-//W3C//DTD SVG 1.1//EN" "http://www.w3.org/Graphics/SVG/1.1/DTD/svg11.dtd">
<svg xmlns="http://www.w3.org/2000/svg" version="1.1" width="2090px" height="2090px" style="shape-rendering:geometricPrecision; text-rendering:geometricPrecision; image-rendering:optimizeQuality; fill-rule:evenodd; clip-rule:evenodd" xmlns:xlink="http://www.w3.org/1999/xlink">
<g><path style="opacity:1" fill="#060c1a" d="M 289.5,-0.5 C 358.833,-0.5 428.167,-0.5 497.5,-0.5C 570.379,147.847 587.546,302.514 549,463.5C 498.211,648.718 389.377,788.218 222.5,882C 152.721,919.093 78.7214,943.26 0.5,954.5C 0.5,736.833 0.5,519.167 0.5,301.5C 5.9979,200.655 48.6646,119.822 128.5,59C 176.743,24.5476 230.409,4.71429 289.5,-0.5 Z"/></g>
<g><path style="opacity:1" fill="#11234d" d="M 497.5,-0.5 C 886.5,-0.5 1275.5,-0.5 1664.5,-0.5C 1686.57,127.628 1694.24,256.628 1687.5,386.5C 1668.76,386.116 1654.93,394.116 1646,410.5C 1637.26,435.767 1644.43,454.933 1667.5,468C 1670.72,469.352 1674.05,470.186 1677.5,470.5C 1678.57,471.434 1679.9,471.768 1681.5,471.5C 1671.21,586.288 1649.21,698.621 1615.5,808.5C 1512.83,723.818 1410.49,638.651 1308.5,553C 1275.58,525.809 1238.91,504.809 1198.5,490C 1176.31,482.429 1153.48,478.596 1130,478.5C 1073.09,478.8 1017.59,487.633 963.5,505C 911.754,523.522 865.754,551.188 825.5,588C 775.869,635.627 728.369,685.127 683,736.5C 601.632,826.987 525.299,921.321 454,1019.5C 408.422,1083.63 366.088,1149.96 327,1218.5C 307.722,1251.39 293.722,1286.39 285,1323.5C 274.042,1378.82 279.376,1432.48 301,1484.5C 334.68,1553.19 378.847,1614.36 433.5,1668C 517.904,1747.59 603.904,1825.09 691.5,1900.5C 530.441,1979.44 361.107,2032.78 183.5,2060.5C 103.954,2023.45 48.7878,1963.78 18,1881.5C 7.29365,1850.57 1.12698,1818.91 -0.5,1786.5C -0.5,1291.5 -0.5,796.5 -0.5,301.5C -0.166667,301.5 0.166667,301.5 0.5,301.5C 0.5,519.167 0.5,736.833 0.5,954.5C 78.7214,943.26 152.721,919.093 222.5,882C 389.377,788.218 498.211,648.718 549,463.5C 587.546,302.514 570.379,147.847 497.5,-0.5 Z"/></g>
<g><path style="opacity:0.999" fill="#162e66" d="M 1664.5,-0.5 C 1709.5,-0.5 1754.5,-0.5 1799.5,-0.5C 1899.17,9.73654 1978.01,55.4032 2036,136.5C 2066.67,183.015 2084.5,234.015 2089.5,289.5C 2089.5,600.833 2089.5,912.167 2089.5,1223.5C 2075.43,1207.26 2060.77,1191.43 2045.5,1176C 2014.53,1147.52 1982.87,1120.02 1950.5,1093.5C 1911.03,1058.87 1871.36,1024.37 1831.5,990C 1759.6,929.259 1687.6,868.759 1615.5,808.5C 1649.21,698.621 1671.21,586.288 1681.5,471.5C 1679.9,471.768 1678.57,471.434 1677.5,470.5C 1703.18,472.639 1719.35,461.306 1726,436.5C 1728.32,408.144 1715.49,391.478 1687.5,386.5C 1694.24,256.628 1686.57,127.628 1664.5,-0.5 Z"/></g>
<g><path style="opacity:1" fill="#fdfdfd" d="M 1497.5,144.5 C 1503.74,143.536 1508.24,145.869 1511,151.5C 1515.28,173.775 1519.28,196.109 1523,218.5C 1533.74,256.902 1558.24,281.735 1596.5,293C 1605.41,295.081 1614.41,296.748 1623.5,298C 1631.21,301.584 1633.05,307.084 1629,314.5C 1628.1,315.701 1626.93,316.535 1625.5,317C 1593.92,319.712 1567.09,332.212 1545,354.5C 1536.54,365.091 1529.87,376.758 1525,389.5C 1519.81,415.144 1514.81,440.81 1510,466.5C 1502.82,473.691 1496.48,473.024 1491,464.5C 1487.49,440.407 1483.49,416.407 1479,392.5C 1467.5,358.333 1444.67,335.5 1410.5,324C 1400.94,321.463 1391.28,319.463 1381.5,318C 1372.26,312.913 1371.26,306.58 1378.5,299C 1397.15,296.92 1414.82,291.587 1431.5,283C 1455.15,269.015 1470.98,248.848 1479,222.5C 1483.11,198.859 1487.11,175.192 1491,151.5C 1492.69,148.642 1494.86,146.309 1497.5,144.5 Z"/></g>
<g><path style="opacity:1" fill="#fdfdfd" d="M 1687.5,386.5 C 1715.49,391.478 1728.32,408.144 1726,436.5C 1719.35,461.306 1703.18,472.639 1677.5,470.5C 1674.05,470.186 1670.72,469.352 1667.5,468C 1644.43,454.933 1637.26,435.767 1646,410.5C 1654.93,394.116 1668.76,386.116 1687.5,386.5 Z"/></g>
<g><path style="opacity:1" fill="#fefefe" d="M 1615.5,808.5 C 1687.6,868.759 1759.6,929.259 1831.5,990C 1871.36,1024.37 1911.03,1058.87 1950.5,1093.5C 1919.98,1076.7 1888.15,1074.03 1855,1085.5C 1822.98,1097.25 1793.81,1113.75 1767.5,1135C 1740.49,1157 1714.99,1180.83 1691,1206.5C 1488.06,1450.23 1280.39,1690.23 1068,1926.5C 1046.28,1949.55 1023.95,1971.89 1001,1993.5C 978.966,2021.7 971.466,2053.36 978.5,2088.5C 960.167,2088.5 941.833,2088.5 923.5,2088.5C 844.718,2027.73 767.385,1965.06 691.5,1900.5C 603.904,1825.09 517.904,1747.59 433.5,1668C 378.847,1614.36 334.68,1553.19 301,1484.5C 279.376,1432.48 274.042,1378.82 285,1323.5C 293.722,1286.39 307.722,1251.39 327,1218.5C 366.088,1149.96 408.422,1083.63 454,1019.5C 525.299,921.321 601.632,826.987 683,736.5C 728.369,685.127 775.869,635.627 825.5,588C 865.754,551.188 911.754,523.522 963.5,505C 1017.59,487.633 1073.09,478.8 1130,478.5C 1153.48,478.596 1176.31,482.429 1198.5,490C 1238.91,504.809 1275.58,525.809 1308.5,553C 1410.49,638.651 1512.83,723.818 1615.5,808.5 Z"/></g>
<g><path style="opacity:1" fill="#0d2fab" d="M 1449.5,911.5 C 1483.33,908.038 1513.67,916.538 1540.5,937C 1570.95,965.678 1583.12,1000.84 1577,1042.5C 1563.88,1107.95 1528.38,1157.11 1470.5,1190C 1429.3,1213.04 1385.96,1218.38 1340.5,1206C 1304.15,1191.16 1282.65,1164.33 1276,1125.5C 1270.8,1090.29 1276.47,1056.96 1293,1025.5C 1327.14,962.492 1379.31,924.492 1449.5,911.5 Z"/></g>
<g><path style="opacity:1" fill="#e6e9f6" d="M 1950.5,1093.5 C 1982.87,1120.02 2014.53,1147.52 2045.5,1176C 2060.77,1191.43 2075.43,1207.26 2089.5,1223.5C 2089.5,1330.17 2089.5,1436.83 2089.5,1543.5C 2080.78,1497.99 2053.11,1477.15 2006.5,1481C 1985.55,1483.47 1966.22,1490.47 1948.5,1502C 1901.43,1533.94 1869.26,1577.11 1852,1631.5C 1845.05,1656.63 1846.38,1681.3 1856,1705.5C 1869.15,1730.09 1889.82,1742.09 1918,1741.5C 1943.21,1740.99 1966.38,1733.82 1987.5,1720C 2033.63,1689.87 2065.47,1648.7 2083,1596.5C 2085.77,1586.15 2087.94,1575.81 2089.5,1565.5C 2089.5,1613.17 2089.5,1660.83 2089.5,1708.5C 2017.28,1800.25 1941.45,1889.25 1862,1975.5C 1827.15,2013.24 1792.32,2050.91 1757.5,2088.5C 1714.83,2088.5 1672.17,2088.5 1629.5,2088.5C 1633.2,2027.36 1604.53,1998.86 1543.5,2003C 1511.57,2007.8 1483.24,2020.47 1458.5,2041C 1447.03,2050.13 1436.53,2060.3 1427,2071.5C 1422.62,2077.04 1418.45,2082.71 1414.5,2088.5C 1380,2088.83 1345.66,2088.5 1311.5,2087.5C 1368.5,2060.16 1407,2016.5 1427,1956.5C 1432.43,1937.44 1433.76,1918.1 1431,1898.5C 1421.09,1855.29 1393.93,1833.62 1349.5,1833.5C 1318.28,1834.64 1289.61,1843.81 1263.5,1861C 1217.93,1890.24 1186.1,1930.41 1168,1981.5C 1160.01,2007.78 1160.68,2033.78 1170,2059.5C 1175.74,2070.69 1183.58,2080.02 1193.5,2087.5C 1122,2088.5 1050.34,2088.83 978.5,2088.5C 971.466,2053.36 978.966,2021.7 1001,1993.5C 1023.95,1971.89 1046.28,1949.55 1068,1926.5C 1280.39,1690.23 1488.06,1450.23 1691,1206.5C 1714.99,1180.83 1740.49,1157 1767.5,1135C 1793.81,1113.75 1822.98,1097.25 1855,1085.5C 1888.15,1074.03 1919.98,1076.7 1950.5,1093.5 Z"/></g>
<g><path style="opacity:1" fill="#0e2fab" d="M 606.5,1125.5 C 635.78,1121.65 662.114,1128.48 685.5,1146C 710.72,1171.33 720.554,1201.83 715,1237.5C 703.296,1301.12 670.129,1349.96 615.5,1384C 587.214,1401.32 556.548,1408.99 523.5,1407C 496.59,1402.31 476.423,1388.14 463,1364.5C 446.945,1330.63 445.278,1295.96 458,1260.5C 481.504,1201.33 522.337,1158.83 580.5,1133C 589.195,1130.16 597.862,1127.66 606.5,1125.5 Z"/></g>
<g><path style="opacity:1" fill="#0d2fab" d="M 1817.5,1282.5 C 1844.57,1278.59 1868.91,1284.76 1890.5,1301C 1910.05,1319.78 1919.05,1342.78 1917.5,1370C 1916.32,1401.54 1907.82,1431.04 1892,1458.5C 1868.9,1499.26 1836.4,1530.1 1794.5,1551C 1772.86,1560.93 1750.2,1564.93 1726.5,1563C 1690.14,1555.85 1668.31,1534.02 1661,1497.5C 1656.81,1468.91 1660.14,1441.24 1671,1414.5C 1691.67,1365.83 1724.51,1327.66 1769.5,1300C 1784.81,1291.85 1800.81,1286.01 1817.5,1282.5 Z"/></g>
<g><path style="opacity:1" fill="#0e2fab" d="M 2089.5,1543.5 C 2089.5,1550.83 2089.5,1558.17 2089.5,1565.5C 2087.94,1575.81 2085.77,1586.15 2083,1596.5C 2065.47,1648.7 2033.63,1689.87 1987.5,1720C 1966.38,1733.82 1943.21,1740.99 1918,1741.5C 1889.82,1742.09 1869.15,1730.09 1856,1705.5C 1846.38,1681.3 1845.05,1656.63 1852,1631.5C 1869.26,1577.11 1901.43,1533.94 1948.5,1502C 1966.22,1490.47 1985.55,1483.47 2006.5,1481C 2053.11,1477.15 2080.78,1497.99 2089.5,1543.5 Z"/></g>
<g><path style="opacity:0.994" fill="#162e66" d="M 2089.5,1708.5 C 2089.5,1738.5 2089.5,1768.5 2089.5,1798.5C 2077.77,1909.52 2024.1,1993.36 1928.5,2050C 1884.08,2074.1 1836.74,2087.27 1786.5,2089.5C 1776.83,2089.5 1767.17,2089.5 1757.5,2089.5C 1757.5,2089.17 1757.5,2088.83 1757.5,2088.5C 1792.32,2050.91 1827.15,2013.24 1862,1975.5C 1941.45,1889.25 2017.28,1800.25 2089.5,1708.5 Z"/></g>
<g><path style="opacity:1" fill="#0d2fab" d="M 1311.5,2087.5 C 1310.61,2088.11 1309.61,2088.44 1308.5,2088.5C 1270.09,2088.83 1231.76,2088.49 1193.5,2087.5C 1183.58,2080.02 1175.74,2070.69 1170,2059.5C 1160.68,2033.78 1160.01,2007.78 1168,1981.5C 1186.1,1930.41 1217.93,1890.24 1263.5,1861C 1289.61,1843.81 1318.28,1834.64 1349.5,1833.5C 1393.93,1833.62 1421.09,1855.29 1431,1898.5C 1433.76,1918.1 1432.43,1937.44 1427,1956.5C 1407,2016.5 1368.5,2060.16 1311.5,2087.5 Z"/></g>
<g><path style="opacity:0.992" fill="#162e66" d="M 691.5,1900.5 C 767.385,1965.06 844.718,2027.73 923.5,2088.5C 923.5,2088.83 923.5,2089.17 923.5,2089.5C 716.833,2089.5 510.167,2089.5 303.5,2089.5C 261.534,2087.97 221.534,2078.31 183.5,2060.5C 361.107,2032.78 530.441,1979.44 691.5,1900.5 Z"/></g>
<g><path style="opacity:1" fill="#0e2fab" d="M 1629.5,2088.5 C 1557.83,2088.5 1486.17,2088.5 1414.5,2088.5C 1418.45,2082.71 1422.62,2077.04 1427,2071.5C 1436.53,2060.3 1447.03,2050.13 1458.5,2041C 1483.24,2020.47 1511.57,2007.8 1543.5,2003C 1604.53,1998.86 1633.2,2027.36 1629.5,2088.5 Z"/></g>
<g><path style="opacity:0.58" fill="#a9b2d0" d="M 1193.5,2087.5 C 1231.76,2088.49 1270.09,2088.83 1308.5,2088.5C 1308.5,2088.83 1308.5,2089.17 1308.5,2089.5C 1180.17,2089.5 1051.83,2089.5 923.5,2089.5C 923.5,2089.17 923.5,2088.83 923.5,2088.5C 941.833,2088.5 960.167,2088.5 978.5,2088.5C 1050.34,2088.83 1122,2088.5 1193.5,2087.5 Z"/></g>
<g><path style="opacity:0.58" fill="#a8b1d2" d="M 1311.5,2087.5 C 1345.66,2088.5 1380,2088.83 1414.5,2088.5C 1486.17,2088.5 1557.83,2088.5 1629.5,2088.5C 1672.17,2088.5 1714.83,2088.5 1757.5,2088.5C 1757.5,2088.83 1757.5,2089.17 1757.5,2089.5C 1607.83,2089.5 1458.17,2089.5 1308.5,2089.5C 1308.5,2089.17 1308.5,2088.83 1308.5,2088.5C 1309.61,2088.44 1310.61,2088.11 1311.5,2087.5 Z"/></g>
</svg>
