<?xml version="1.0" encoding="UTF-8"?>
<svg id="Ebene_2" xmlns="http://www.w3.org/2000/svg" xmlns:xlink="http://www.w3.org/1999/xlink" viewBox="-1 -1 29.78 32" style="background-color:#2e154b">
    <defs>
        <style>
            .cls-1{fill:url(#Unbenannter_Verlauf_12-2);}.cls-1,.cls-2{stroke-width:0px;}.cls-2{fill:url(#Unbenannter_Verlauf_12);}
        </style>
        <linearGradient id="Unbenannter_Verlauf_12" x1="12.81" y1="479.5" x2="33.92" y2="479.5"
                        gradientTransform="translate(-8.36 500) scale(1 -1)" gradientUnits="userSpaceOnUse">
            <stop offset="0" stop-color="#b000fd"/>
            <stop offset="0" stop-color="#b000fd"/>
            <stop offset=".98" stop-color="#30daff"/>
        </linearGradient>
        <linearGradient id="Unbenannter_Verlauf_12-2" x1="8.36" y1="488" x2="36.14" y2="488"
                        xlink:href="#Unbenannter_Verlauf_12"/>
    </defs>
    <g id="Ebene_1-2">
        <path class="cls-2"
              d="m4.44,11v13.62c0,.17.04.33.13.47.08.14.21.26.35.35,1.39.79,5.46,3.08,7.69,4.33.19.11.48.28.61.21.75-.37,1.48-.81,2.28-1.26-.21-.14-.32-.22-.44-.29-2.71-1.54-5.42-3.09-8.13-4.63v-2.75l2.16,1.23c2.77,1.57,5.54,3.13,8.32,4.69.21.12.51.3.66.23.81-.39,1.59-.85,2.48-1.34l-13.63-7.76v-2.72c1.18.66,2.35,1.33,3.53,2,4.05,2.29,8.1,4.57,12.15,6.86.12.07.26.11.4.11s.28-.04.4-.11c.71-.41,1.42-.81,2.13-1.21l-2.86-1.63L4.44,11Z"/>
        <path class="cls-1"
              d="m27.3,7.25c-1.83-.98-3.64-1.98-5.46-2.98l-2.86-1.57-2.51,1.37c2.76,1.5,5.52,3,8.29,4.5.16.07.3.18.39.32.09.14.13.3.12.47v2.03h-.02c-1.38-.75-5.65-2.95-7.02-3.7-1.37-.75-2.79-1.53-4.18-2.29l-2.66,1.45c3.67,2,10.01,5.32,13.89,7.41,0,.9,0,1.79,0,2.68-.05-.03-.09-.06-.14-.09-5.27-2.87-13.43-7.2-18.7-10.09l2.4-1.31,2.67-1.45,2.41-1.32,2.51-1.37L14.35.18c-.17-.09-.44-.22-.57-.16-.41.2-.81.41-1.22.63L3.61,5.53l-.11.05-.4.23L.45,7.25c-.14.06-.26.16-.34.29-.08.13-.11.28-.1.42.01,4.72.02,9.45,0,14.17-.01.16.02.31.11.45s.21.24.36.31c.69.36,1.37.74,2.06,1.11v-3.12c-.01-.08-.02-.16-.02-.24.02-3.91.02-7.81.02-11.72l1.23-.67c4.59,2.5,10.64,5.72,16.04,8.61l.04.02c1.63.88,3.2,1.72,4.66,2.5l3.22,1.73c0-4.36.01-8.73.04-13.09.01-.16-.02-.31-.11-.45-.08-.14-.21-.24-.36-.31Z"/>
    </g>
</svg>
