<?xml version="1.0" encoding="UTF-8"?>
<svg id="Ebene_2" xmlns="http://www.w3.org/2000/svg" xmlns:xlink="http://www.w3.org/1999/xlink" viewBox="0 0 500 500" style="background-color:#201040">
    <defs>
        <style>
            .cls-1{fill:url(#Unbenannter_Verlauf_2);}.cls-1,.cls-2,.cls-3{stroke-width:0px;}.cls-2{fill:#2e154b;}.cls-3{fill:url(#Unbenannter_Verlauf_2-2);}
        </style>
        <linearGradient id="Unbenannter_Verlauf_2" x1="130.46" y1="324.41" x2="415.9" y2="324.41"
                        gradientTransform="translate(-8.36)" gradientUnits="userSpaceOnUse">
            <stop offset="0" stop-color="#b000fd"/>
            <stop offset="0" stop-color="#b000fd"/>
            <stop offset=".98" stop-color="#30daff"/>
        </linearGradient>
        <linearGradient id="Unbenannter_Verlauf_2-2" x1="70.47" y1="209.42" x2="446.25" y2="209.42"
                        xlink:href="#Unbenannter_Verlauf_2"/>
    </defs>
    <g id="Ebene_1-2">
        <circle class="cls-2" cx="250" cy="250" r="250"/>
        <g id="Ebene_1-2">
            <path class="cls-1"
                  d="m122.1,195.85v184.34c0,2.3.54,4.47,1.76,6.36,1.08,1.89,2.84,3.52,4.74,4.74,18.81,10.69,73.9,41.69,104.08,58.61,2.57,1.49,6.5,3.79,8.26,2.84,10.15-5.01,20.03-10.96,30.86-17.05-2.84-1.89-4.33-2.98-5.96-3.93-36.68-20.84-73.36-41.82-110.04-62.67v-37.22l29.23,16.65c37.49,21.25,74.98,42.36,112.61,63.48,2.84,1.62,6.9,4.06,8.93,3.11,10.96-5.28,21.52-11.5,33.57-18.14l-184.48-105.03v-36.81c15.97,8.93,31.81,18,47.78,27.07,54.82,30.99,109.63,61.85,164.45,92.85,1.62.95,3.52,1.49,5.41,1.49s3.79-.54,5.41-1.49c9.61-5.55,19.22-10.96,28.83-16.38l-38.71-22.06L122.1,195.85Z"/>
            <path class="cls-3"
                  d="m431.5,145.1c-24.77-13.26-49.27-26.8-73.9-40.33l-38.71-21.25-33.97,18.54c37.36,20.3,74.71,40.6,112.2,60.91,2.17.95,4.06,2.44,5.28,4.33,1.22,1.89,1.76,4.06,1.62,6.36v27.48h-.27c-18.68-10.15-76.47-39.93-95.01-50.08s-37.76-20.71-56.57-30.99l-36,19.63c49.67,27.07,135.48,72,188,100.29v36.27c-.68-.41-1.22-.81-1.89-1.22-71.33-38.84-181.77-97.45-253.1-136.56l32.48-17.73,36.14-19.63,32.62-17.87,33.97-18.54-28.15-15.29c-2.3-1.22-5.96-2.98-7.71-2.17-5.55,2.71-10.96,5.55-16.51,8.53l-121.14,66.05-1.49.68-5.41,3.11-35.87,19.49c-1.89.81-3.52,2.17-4.6,3.93-1.08,1.76-1.49,3.79-1.35,5.68.14,63.88.27,127.9,0,191.79-.14,2.17.27,4.2,1.49,6.09,1.22,1.89,2.84,3.25,4.87,4.2,9.34,4.87,18.54,10.02,27.88,15.02v-42.23c-.14-1.08-.27-2.17-.27-3.25.27-52.92.27-105.71.27-158.63l16.65-9.07c62.12,33.84,144.01,77.42,217.1,116.53l.54.27c22.06,11.91,43.31,23.28,63.07,33.84l43.58,23.41c0-59.01.14-118.16.54-177.17.14-2.17-.27-4.2-1.49-6.09-1.08-1.89-2.84-3.25-4.87-4.2v-.14Z"/>
        </g>
    </g>
</svg>
