<?xml version="1.0" encoding="utf-8"?>
<!-- Generator: Adobe Illustrator 26.5.0, SVG Export Plug-In . SVG Version: 6.00 Build 0)  -->
<svg version="1.1" id="Слой_1" xmlns="http://www.w3.org/2000/svg" xmlns:xlink="http://www.w3.org/1999/xlink" x="0px" y="0px"
	 viewBox="0 0 360.18 360.18" style="enable-background:new 0 0 360.18 360.18;" xml:space="preserve">
<style type="text/css">
	.st0{fill:url(#SVGID_1_);}
</style>
<linearGradient id="SVGID_1_" gradientUnits="userSpaceOnUse" x1="75.158" y1="325.8342" x2="278.2903" y2="43.706">
	<stop  offset="0" style="stop-color:#03B3FF"/>
	<stop  offset="1" style="stop-color:#0BF0A6"/>
</linearGradient>
<path class="st0" d="M180.09,0C80.79,0,0,80.79,0,180.09s80.79,180.09,180.09,180.09s180.09-80.79,180.09-180.09S279.4,0,180.09,0z
	 M101.01,135c-26.29,2.2-49.31,16.04-63.89,36.36c-4.38-9.75-6.84-20.54-6.84-31.91c0-40.21,30.55-73.4,69.65-77.63
	c-4.8,10.83-7.49,22.8-7.49,35.4C92.44,110.74,95.52,123.56,101.01,135z M99.85,217.07c-24.27-2.65-45.22-16.46-57.62-36.18
	c12.27-19.51,32.91-33.23,56.85-36.08c-4.77,10.8-7.44,22.74-7.44,35.29C91.64,193.3,94.59,205.83,99.85,217.07z M100.31,226.72
	c-5.04,11.06-7.88,23.32-7.88,36.25c0,13.24,2.97,25.8,8.25,37.07c-39.47-3.87-70.41-37.24-70.41-77.71
	c0-11.36,2.46-22.16,6.84-31.91C51.57,210.55,74.31,224.34,100.31,226.72z M165.94,156.31c-13.71-11.97-31.15-19.74-50.34-21.32
	c12.85-18.09,33.18-30.5,56.46-32.65c-5.06,11.07-7.91,23.36-7.91,36.31C164.15,144.7,164.77,150.6,165.94,156.31z M170.17,174.66
	c-21.04-2.68-39.49-13.76-51.87-29.77C139.34,147.57,157.79,158.65,170.17,174.66z M171.49,185.36
	c-12.62,17.3-32.16,29.24-54.52,31.71C129.59,199.76,149.13,187.82,171.49,185.36z M165.6,205.76c-0.93,5.12-1.45,10.38-1.45,15.77
	c0,12.95,2.84,25.24,7.91,36.31c-22.63-2.09-42.49-13.86-55.38-31.13C135.28,224.95,152.2,217.34,165.6,205.76z M172.07,267.43
	c-13.59,19.14-35.56,31.91-60.53,32.91c-6.08-11.11-9.54-23.84-9.54-37.37c0-11.1,2.34-21.66,6.53-31.22
	C123.16,251.72,146.01,265.29,172.07,267.43z M180.38,272.23c14.35,20.16,36.99,34.02,62.91,36.53
	c-14.21,19.55-37.24,32.3-63.2,32.3c-25.63,0-48.42-12.42-62.66-31.54C143.47,306.83,166.16,292.68,180.38,272.23z M179.91,191.06
	c4.2,9.58,6.56,20.15,6.56,31.27c0,10.81-2.21,21.11-6.19,30.47c-4.2-9.58-6.56-20.15-6.56-31.27
	C173.72,210.72,175.93,200.42,179.91,191.06z M173.72,138.66c0-10.81,2.21-21.11,6.19-30.47c4.2,9.58,6.56,20.15,6.56,31.27
	c0,10.81-2.21,21.11-6.19,30.47C176.07,160.34,173.72,149.77,173.72,138.66z M194.24,204.67c13.22,11.54,29.92,19.2,48.3,21.14
	c-12.48,17.22-31.81,29.16-53.96,31.8c4.77-10.8,7.44-22.74,7.44-35.29C196.03,216.28,195.41,210.38,194.24,204.67z M189.32,185.44
	c21.72,2.57,40.75,14.07,53.26,30.75C220.86,213.61,201.83,202.11,189.32,185.44z M208.59,180.09
	c17.08-5.89,31.79-16.91,42.27-31.22c4.19,9.57,6.53,20.13,6.53,31.22c0,11.1-2.34,21.66-6.53,31.22
	C240.38,197,225.67,185.98,208.59,180.09z M189.32,174.75c12.51-16.67,31.54-28.18,53.26-30.75
	C230.07,160.67,211.04,172.18,189.32,174.75z M194.58,155.22c0.93-5.12,1.45-10.38,1.45-15.77c0-13.21-2.95-25.73-8.21-36.98
	c22.47,2.45,42.1,14.47,54.72,31.89C224.32,136.29,207.75,143.84,194.58,155.22z M188.56,267.25c25.79-2.72,48.27-16.69,62.47-36.88
	c4.58,9.93,7.15,20.96,7.15,32.59c0,13.21-3.31,25.66-9.13,36.59C224.19,298.69,202.26,286.15,188.56,267.25z M251.03,129.81
	c-14.2-20.19-36.67-34.16-62.47-36.88c13.7-18.89,35.63-31.43,60.5-32.3c5.82,10.92,9.13,23.37,9.13,36.59
	C258.19,108.85,255.61,119.88,251.03,129.81z M179.81,88.75c-14.45-20.3-37.3-34.2-63.45-36.57c14.16-19.98,37.44-33.05,63.73-33.05
	c25.96,0,48.99,12.75,63.2,32.3C217.02,53.97,194.12,68.16,179.81,88.75z M170.99,92.84c-25.61,2.42-48.04,15.9-62.46,35.6
	c-4.19-9.57-6.53-20.13-6.53-31.22c0-12.9,3.16-25.07,8.72-35.8C135.37,62.15,157.18,74.33,170.99,92.84z M108.36,147.5
	c10.53,14.98,25.62,26.52,43.24,32.59c-17.62,6.08-32.71,17.62-43.24,32.59c-4.58-9.93-7.15-20.96-7.15-32.59
	C101.2,168.46,103.78,157.43,108.36,147.5z M259.05,143.78c24.82,2.29,46.29,16.24,58.91,36.31
	c-12.62,20.07-34.09,34.02-58.91,36.31c5.06-11.07,7.91-23.36,7.91-36.31C266.95,167.14,264.11,154.86,259.05,143.78z M259.87,60.98
	c39.29,4.05,70.03,37.34,70.03,77.68c0,11.36-2.46,22.16-6.84,31.91c-14.51-20.22-37.39-34.04-63.54-36.33
	c5.27-11.25,8.23-23.79,8.23-37.01C267.75,84.3,264.91,72.03,259.87,60.98z M259.52,225.95c26.15-2.29,49.03-16.11,63.54-36.33
	c4.38,9.75,6.84,20.54,6.84,31.91c0,40.34-30.74,73.63-70.03,77.68c5.04-11.05,7.87-23.32,7.87-36.24
	C267.75,249.74,264.79,237.2,259.52,225.95z"/>
</svg>
