<?xml version="1.0" encoding="utf-8"?>
<!-- Generator: Adobe Illustrator 22.1.0, SVG Export Plug-In . SVG Version: 6.00 Build 0)  -->
<svg version="1.1" id="图层_1" xmlns="http://www.w3.org/2000/svg" xmlns:xlink="http://www.w3.org/1999/xlink" x="0px" y="0px"
	 viewBox="0 0 113.4 113.4" style="enable-background:new 0 0 113.4 113.4;" xml:space="preserve">
<style type="text/css">
	.st0{fill:#009FE8;}
</style>
<g id="XMLID_20_">
	<path id="XMLID_63_" class="st0" d="M90.9,15.4c-0.9,0.5-1.5,1.3-1.9,2.1c-0.9,1.9-2.4,3.5-4.3,4.6c-2,1.1-4.1,1.5-6.2,1.4l0,0
		c-0.9-0.1-1.8,0-2.6,0.5c-2,1.2-2.8,3.8-1.6,5.8s3.8,2.8,5.8,1.6c0.8-0.5,1.4-1.2,1.8-2l0,0c0.9-1.9,2.4-3.6,4.4-4.7
		c1.9-1.1,4.1-1.5,6.1-1.3c0.9,0.1,1.8,0,2.7-0.5c2-1.2,2.8-3.8,1.6-5.8S92.9,14.3,90.9,15.4z"/>
	<path id="XMLID_62_" class="st0" d="M60.6,33.7c-0.9,0.5-1.5,1.2-1.8,2.1c-0.9,1.9-2.4,3.5-4.3,4.6c-2,1.1-4.1,1.5-6.2,1.3l0,0
		c-0.9-0.1-1.8,0-2.6,0.5c-2.1,1.2-2.8,3.8-1.6,5.8s3.8,2.8,5.8,1.6c0.8-0.5,1.4-1.2,1.8-2l0,0c0.9-1.9,2.4-3.6,4.4-4.7
		c1.9-1.1,4.1-1.5,6.1-1.3c0.9,0.1,1.8,0,2.7-0.5c2.1-1.2,2.8-3.8,1.6-5.8S62.6,32.5,60.6,33.7z"/>
	<path id="XMLID_61_" class="st0" d="M45.6,42.2c-0.9,0.5-1.5,1.2-1.8,2.1c-0.9,1.9-2.4,3.5-4.3,4.6c-2,1.1-4.1,1.5-6.2,1.3l0,0
		c-0.9-0.1-1.8,0-2.6,0.5c-2.1,1.2-2.8,3.8-1.6,5.8s3.8,2.8,5.8,1.6c0.8-0.5,1.4-1.2,1.8-2l0,0c0.9-1.9,2.4-3.6,4.4-4.7
		c1.9-1.1,4.1-1.5,6.1-1.3c0.9,0.1,1.8,0,2.7-0.5c2.1-1.2,2.8-3.8,1.6-5.8C50.3,41.7,47.7,41,45.6,42.2z"/>
	<path id="XMLID_60_" class="st0" d="M81.6,78.4c-0.2,0.9-0.8,1.7-1.5,2.3c-1.6,1.4-2.7,3.2-3.3,5.4c-0.6,2.2-0.4,4.4,0.3,6.4l0,0
		c0.3,0.8,0.4,1.7,0.2,2.7c-0.6,2.3-2.9,3.7-5.2,3.1s-3.7-2.9-3.1-5.2c0.2-0.9,0.8-1.7,1.5-2.2l0,0c1.6-1.4,2.8-3.2,3.4-5.4
		c0.6-2.2,0.4-4.3-0.3-6.3c-0.4-0.8-0.5-1.8-0.2-2.7c0.6-2.3,2.9-3.7,5.2-3.1C80.8,73.8,82.2,76.1,81.6,78.4z"/>
	<circle id="XMLID_59_" class="st0" cx="59.5" cy="48.7" r="4.3"/>
	<circle id="XMLID_58_" class="st0" cx="86.3" cy="42.5" r="4.3"/>
	<circle id="XMLID_57_" class="st0" cx="66.5" cy="85.7" r="4.3"/>
	<g id="XMLID_53_">
		<path id="XMLID_56_" class="st0" d="M73.9,54.3c-0.8,0.5-1.8,0.7-2.7,0.6c-2.1-0.1-4.2,0.4-6.1,1.6c-1.9,1.2-3.3,2.9-4.2,4.8l0,0
			c-0.3,0.8-0.9,1.6-1.7,2.1c-2,1.2-4.6,0.6-5.9-1.4c-1.2-2-0.6-4.6,1.4-5.9c0.8-0.5,1.7-0.7,2.6-0.6l0,0c2.1,0.1,4.3-0.4,6.2-1.6
			c1.9-1.2,3.3-2.8,4.1-4.7c0.3-0.8,0.9-1.6,1.7-2.1c2-1.2,4.6-0.6,5.9,1.4S75.9,53.1,73.9,54.3z"/>
		<path id="XMLID_55_" class="st0" d="M82.7,69.1c-0.8,0.5-1.8,0.7-2.7,0.6c-2.1-0.1-4.2,0.4-6.1,1.6s-3.3,2.9-4.2,4.8l0,0
			c-0.3,0.8-0.9,1.6-1.7,2.1c-2,1.2-4.6,0.6-5.9-1.4c-1.2-2-0.6-4.6,1.4-5.9c0.8-0.5,1.7-0.7,2.6-0.6l0,0c2.1,0.1,4.3-0.4,6.2-1.6
			c1.9-1.2,3.3-2.8,4.1-4.7c0.3-0.8,0.9-1.6,1.7-2.1c2-1.2,4.6-0.6,5.9,1.4C85.3,65.3,84.7,67.8,82.7,69.1z"/>
		<path id="XMLID_54_" class="st0" d="M60.6,57.5c0.5,0.8,0.7,1.8,0.6,2.7c-0.1,2.1,0.3,4.2,1.5,6.1s2.8,3.4,4.8,4.3l0,0
			c0.8,0.3,1.5,0.9,2,1.7c1.2,2,0.5,4.6-1.5,5.9c-2,1.2-4.6,0.5-5.9-1.5c-0.5-0.8-0.7-1.7-0.6-2.6l0,0c0.2-2.1-0.3-4.3-1.5-6.2
			c-1.1-1.9-2.8-3.3-4.7-4.2c-0.8-0.3-1.6-0.9-2.1-1.8c-1.2-2-0.5-4.6,1.5-5.9C56.8,54.8,59.4,55.5,60.6,57.5z"/>
	</g>
	<path id="XMLID_25_" class="st0" d="M87,27c-0.8,0.5-1.4,1.3-1.8,2.1c-0.9,1.9-2.3,3.5-4.2,4.7c-1.9,1.2-4.1,1.6-6.2,1.5l0,0
		c-0.9-0.1-1.8,0.1-2.6,0.6c-2,1.2-2.7,3.8-1.5,5.9s3.8,2.7,5.9,1.5c0.8-0.5,1.4-1.2,1.7-2l0,0c0.9-1.9,2.3-3.6,4.3-4.8
		c1.9-1.1,4-1.6,6.1-1.5c0.9,0.1,1.8-0.1,2.7-0.6c2-1.2,2.7-3.8,1.5-5.9S89,25.8,87,27z"/>
	<path id="XMLID_24_" class="st0" d="M81.5,50.2c-0.8,0.5-1.4,1.2-1.8,2.1c-0.9,1.9-2.3,3.5-4.3,4.6s-4.1,1.6-6.2,1.4l0,0
		c-0.9-0.1-1.8,0.1-2.6,0.5c-2,1.2-2.7,3.8-1.5,5.8c1.2,2,3.8,2.7,5.8,1.5c0.8-0.5,1.4-1.2,1.8-2l0,0c0.9-1.9,2.3-3.6,4.3-4.7
		c1.9-1.1,4.1-1.6,6.1-1.4c0.9,0.1,1.8,0,2.7-0.5c2-1.2,2.7-3.8,1.5-5.8C86.2,49.7,83.6,49,81.5,50.2z"/>
	<path id="XMLID_23_" class="st0" d="M77.9,37.2c0.5,0.8,0.7,1.8,0.7,2.7c0,2.1,0.5,4.2,1.7,6.1c1.2,1.9,3,3.3,4.9,4.1l0,0
		c0.8,0.3,1.6,0.9,2.1,1.7c1.3,2,0.7,4.6-1.3,5.9c-2,1.3-4.6,0.7-5.9-1.3c-0.5-0.8-0.7-1.7-0.7-2.6l0,0c0.1-2.1-0.5-4.3-1.7-6.2
		s-2.9-3.2-4.8-4c-0.9-0.3-1.6-0.9-2.2-1.7c-1.2-2-0.7-4.7,1.3-6C74,34.7,76.6,35.2,77.9,37.2z"/>
	<path id="XMLID_22_" class="st0" d="M42.7,53.7c-0.8,0.5-1.4,1.3-1.7,2.2c-0.8,1.9-2.1,3.6-4,4.9c-1.9,1.2-4,1.8-6.1,1.8l0,0
		c-0.9-0.1-1.8,0.2-2.6,0.7c-2,1.3-2.5,3.9-1.2,5.9s3.9,2.5,5.9,1.2c0.8-0.5,1.3-1.3,1.6-2.1l0,0c0.8-2,2.1-3.7,4-5
		c1.9-1.2,4-1.8,6-1.7c0.9,0.1,1.8-0.1,2.7-0.7c2-1.3,2.5-3.9,1.2-5.9S44.7,52.4,42.7,53.7z"/>
	<circle id="XMLID_21_" class="st0" cx="20.4" cy="61.5" r="4.3"/>
</g>
</svg>
