<svg width="512" height="512" viewBox="0 0 512 512" fill="none" xmlns="http://www.w3.org/2000/svg">
<rect width="512" height="512" fill="#D33AD6"/>
<path fill-rule="evenodd" clip-rule="evenodd" d="M304.007 146.22C301.35 146.106 298.52 146.512 295.517 147.437C294.015 147.9 291.59 148.537 288.24 149.347C285.121 150.041 282.811 150.62 281.31 151.083C268.258 153.861 260.692 155.482 258.613 155.945C255.263 156.178 250.354 157.047 243.886 158.551C243.215 158.707 242.576 158.855 241.969 158.995C241.865 159.481 241.741 159.978 241.596 160.485C239.46 167.024 236.345 174.565 232.252 183.109C228.29 191.877 225.11 199.307 222.712 205.398C221.151 209.863 219.254 214.264 217.021 218.599C216.984 218.79 216.602 219.412 215.876 220.463C215.391 221.164 215.075 221.897 214.927 222.663C214.762 224.419 213.08 229.059 209.881 236.585C206.905 242.961 204.347 248.525 202.208 253.276C197.277 263.445 194.635 268.993 194.282 269.918C193.408 271.735 191.827 275.402 189.54 280.918C188.386 283.277 187.205 286.227 185.998 289.768C183.915 295.125 181.947 301.697 180.093 309.482L177.17 320.537C177.022 321.303 176.66 322.722 176.085 324.796C175.678 326.902 175.279 328.514 174.889 329.63C174.424 331.129 173.56 333.346 172.295 336.279C171.068 339.021 170.417 340.584 170.343 340.967L168.753 345.128C168.081 344.998 167.259 344.74 166.288 344.354C166.224 344.328 166.16 344.303 166.097 344.278C166.567 346.334 167.079 348.42 167.63 350.537C168.121 352.6 168.209 353.923 167.893 354.506C167.712 355.336 167.711 356.205 167.889 357.113C167.565 362.909 167.268 366.43 166.996 367.674C166.725 368.919 166.452 370.598 166.18 372.711C165.907 374.825 165.634 376.504 165.363 377.748C165.318 377.956 165.362 378.183 165.496 378.429L165.361 379.052C164.413 381.67 163.958 385.047 163.997 389.184C163.903 391.337 163.788 393.159 163.651 394.65C162.395 393.507 161.7 392.812 161.565 392.565C161.251 392.279 160.803 391.747 160.22 390.968L158.807 389.682C157.91 388.617 157.125 387.902 156.452 387.538C157.398 385.789 157.201 382.378 155.862 377.305C157.57 376.374 158.829 375.779 159.638 375.521C160.852 375.134 161.145 374.22 160.519 372.78C160.384 372.533 160.093 372.144 159.645 371.611C159.331 371.325 159.039 370.936 158.77 370.443C158.68 370.858 158.477 371.356 158.161 371.94C157.801 372.73 157.485 373.313 157.215 373.689L156.543 372.89C156.277 370.659 155.717 369.342 154.864 368.939L154.663 368.569C155.339 367.195 154.868 366.332 153.252 365.979C152.039 365.497 151.278 364.245 150.967 362.221C150.392 356.228 149.859 352.635 149.366 351.441C149.232 351.195 149.188 350.968 149.233 350.76C149.278 350.553 149.233 350.326 149.099 350.079L149.167 349.768C148.994 345.384 148.798 341.973 148.577 339.535C148.045 335.073 147.556 331.707 147.111 329.436C146.976 329.19 146.955 328.425 147.047 327.141C147.139 325.857 146.983 324.845 146.58 324.105C146.356 323.405 145.841 322.749 145.033 322.138C145.303 321.762 145.506 321.264 145.642 320.641C146.049 318.774 146.186 317.718 146.052 317.471C145.917 317.224 145.671 316.627 145.313 315.68C144.91 314.94 144.664 314.343 144.575 313.889L144.982 312.022C145.208 310.985 145.254 310.343 145.12 310.097C145.031 309.643 145.01 308.878 145.056 307.801C145.058 306.932 144.947 306.148 144.723 305.447C144.5 304.746 144.074 304.11 143.446 303.538C143.311 303.292 143.267 303.065 143.312 302.857C143.223 302.403 143.201 302.073 143.246 301.865C143.12 296.405 142.946 292.89 142.724 291.321C143.218 291.646 143.487 291.705 143.532 291.497C143.757 291.329 143.938 290.934 144.073 290.311L144.209 289.689C143.445 289.74 142.95 290.284 142.724 291.321C142.635 290.867 142.547 289.978 142.459 288.655C142.551 287.372 142.485 286.379 142.261 285.679C141.95 283.655 142.2 282.08 143.01 280.953C143.821 279.826 143.913 278.542 143.286 277.102C142.167 274.467 141.924 272.132 142.556 270.097C142.601 269.89 142.579 269.559 142.49 269.105C142.088 267.496 141.847 263.858 141.766 258.191C141.813 257.114 141.842 253.101 141.853 246.149C141.945 244.866 141.948 242.693 141.864 239.633C141.913 236.819 141.916 234.646 141.874 233.116C141.832 231.586 141.947 229.329 142.222 226.347C141.664 226.577 141.243 226.805 140.96 227.032C141.099 215.928 140.766 200.502 139.251 187.479C138.035 187.522 136.819 187.139 135.602 186.328C133.984 185.405 133.117 183.961 133 181.996C133.23 180.148 133.575 178.53 134.036 177.143C135.075 175.179 135.131 173.272 134.206 171.424C133.512 170.038 133.973 168.651 135.59 167.264C136.744 166.108 138.591 164.605 141.132 162.755C146.905 159.287 152.333 156.858 157.415 155.469C158.917 155.006 161.111 154.197 163.999 153.04L170.755 150.957C172.141 150.263 173.296 149.974 174.22 150.089C175.606 149.973 182.652 147.89 195.357 143.841C197.898 143.146 201.767 141.932 206.964 140.196C212.162 138.461 216.031 137.246 218.572 136.552C220.535 135.858 226.368 134.526 236.071 132.558C237.341 132.211 239.016 131.806 241.095 131.343C242.25 130.764 243.116 130.475 243.694 130.475C246.698 130.705 250.856 130.067 256.169 128.563C261.713 126.943 265.582 126.017 267.777 125.785C269.394 125.553 271.762 125.09 274.881 124.395L282.158 123.352C283.197 123.121 284.699 122.658 286.662 121.964C288.972 121.385 290.647 120.98 291.687 120.749C309.705 116.35 323.104 113.109 331.882 111.026C334.192 110.447 337.715 109.695 342.451 108.768C347.187 107.842 350.709 107.089 353.02 106.511C368.266 103.5 379.586 101.3 386.979 99.9101L398.934 97.8252C404.363 97.1296 408.406 96.5501 411.062 96.0868C411.293 95.9712 411.582 95.9711 411.929 96.0865L412.969 96.4326C413.546 96.4324 413.951 96.3744 414.182 96.2588C413.606 99.7253 412.28 102.557 410.202 104.753L407.604 107.354C405.641 108.625 403.852 111.11 402.237 114.808C401.315 117.582 398.314 121.107 393.234 125.384C391.327 126.962 388.556 129.046 384.922 131.637C387.301 136.803 387.871 141.904 386.631 146.94C386.391 147.175 386.267 147.767 386.257 148.717C385.382 153.443 384.62 157.54 383.972 161.008C376.69 172.398 360.906 188.423 346.131 203.424C337.984 211.696 330.144 219.657 324.206 226.356C325.154 223.562 325.285 221.34 324.597 219.69L306.196 241.944C303.792 244.77 300.42 249.248 296.082 255.378C291.508 261.269 288.136 265.747 285.967 268.812C282.353 273.763 277.536 280.126 271.518 287.902C270.793 289.082 267.659 293.562 262.116 301.343L249.114 318.31C243.335 325.851 234.432 336.922 222.405 351.523C220.725 353.169 217.971 355.396 214.141 358.207C214.597 360.112 213.75 361.647 211.6 362.812C209.69 363.742 208.732 364.445 208.727 364.92C207.993 367.05 205.73 367.62 201.94 366.63C201.2 369.235 200.343 371.72 199.369 374.086C198.385 377.401 196.943 379.049 195.042 379.029C194.332 378.784 193.257 379.366 191.818 380.776C191.338 381.246 190.855 381.954 190.37 382.899L188.571 384.662C184.746 386.997 181.742 390.41 179.558 394.9C177.577 401.387 169.974 407.428 166.089 410.514C165.153 411.259 164.431 411.832 164.058 412.197C161.903 413.837 158.208 415.105 152.973 416C154.188 413.4 155.275 411.63 156.234 410.689C156.959 409.509 158.042 408.214 159.481 406.804L163.081 403.279C166.21 399.273 168.142 396.205 168.876 394.075C169.62 390.995 170.957 388.04 172.887 385.209C174.326 383.799 176.856 380.381 180.475 374.956C184.334 369.295 187.58 365.41 190.215 363.299C191.199 359.984 193.616 355.971 197.465 351.261C197.945 350.791 198.547 349.966 199.272 348.785C199.997 347.605 200.599 346.78 201.079 346.31C203.968 342.54 205.42 339.942 205.435 338.517L189.957 353.676L188.899 352.596C192.773 345.51 195.787 341.147 197.942 339.507C201.541 335.981 205.038 330.911 208.431 324.295C208.916 323.35 210.006 321.342 211.7 318.272C213.399 314.727 214.969 312.249 216.408 310.839C219.298 307.068 221.229 304.001 222.204 301.635C222.694 300.215 223.178 299.27 223.658 298.8C226.768 296.695 228.35 293.029 228.403 287.804C229.833 287.344 231.868 285.821 234.508 283.236C237.387 280.416 239.652 279.608 241.303 280.813C241.337 277.488 242.671 274.77 245.306 272.66C245.781 272.665 246.266 271.72 246.76 269.824C247 269.589 247.605 268.527 248.575 266.637C249.299 265.456 250.626 263.451 252.556 260.621C254.025 256.361 256.667 253.538 260.482 252.153C260.957 252.158 261.434 251.925 261.914 251.455C262.394 250.985 262.872 250.752 263.347 250.757C262.666 247.662 263.4 245.532 265.55 244.367C269.85 242.037 272.252 239.449 272.756 236.603L273.836 235.546C274.556 234.841 274.918 234.251 274.923 233.776C275.163 233.541 276.246 232.246 278.17 229.89C280.335 227.3 281.899 225.297 282.864 223.882C283.584 223.177 284.669 221.644 286.118 219.284C287.568 216.924 288.535 215.271 289.019 214.326C294.558 207.02 297.699 201.827 298.444 198.747L299.545 195.552C307.023 184.465 310.884 178.567 311.129 177.857C314.503 173.142 317.047 168.299 318.761 163.328C319.251 161.908 320.22 160.018 321.67 157.658C323.359 155.062 324.324 153.647 324.564 153.412C324.804 153.177 325.529 151.997 326.738 149.872C327.948 147.747 328.797 145.974 329.287 144.554C329.744 143.227 330.452 141.82 331.408 140.332C322.115 141.98 312.625 144.217 303.952 146.365C303.958 146.352 303.963 146.339 303.968 146.326C303.974 146.311 303.98 146.295 303.986 146.279C303.993 146.26 304 146.24 304.007 146.22ZM163.843 178.769C163.808 179.996 163.767 181.556 163.72 183.449C163.758 187.586 163.731 190.731 163.638 192.883C163.365 194.997 162.865 198.582 162.138 203.638C161.411 208.695 160.933 212.611 160.704 215.386C160.838 215.632 160.77 215.943 160.5 216.319C160.23 216.695 159.98 218.705 159.749 222.348C159.793 223.01 159.769 223.982 159.677 225.266C159.54 226.757 159.471 227.937 159.469 228.806C159.377 230.09 159.375 231.828 159.461 234.02C159.547 236.212 159.634 237.969 159.722 239.292L159.506 248.045C159.814 251.807 159.923 253.895 159.833 254.31C159.782 257.993 159.751 263.31 159.74 270.261C159.778 274.398 160.04 279.236 160.525 284.774C160.703 285.682 160.655 288.062 160.379 291.913C160.283 295.804 160.57 298.8 161.241 300.902C161.375 301.149 161.487 301.499 161.576 301.953C161.62 302.615 161.619 303.049 161.574 303.256C161.551 304.524 161.57 306.043 161.629 307.813C162.464 304.64 163.432 300.916 164.533 296.64C165.165 295.174 165.621 294.169 165.9 293.627L166.233 291.904C166.55 291.171 166.745 290.613 166.819 290.23C167.636 287.806 168.62 284.52 169.771 280.373C170.942 277.024 171.564 275.158 171.638 274.775C172.826 270.436 173.96 267.278 175.039 265.302C175.84 263.868 176.797 261.173 177.911 257.217C179.323 253.518 181.405 248.16 184.157 241.144C184.752 239.869 185.459 238.019 186.276 235.595C187.299 233.012 188.024 231.066 188.451 229.759C189.679 227.017 191.334 222.967 193.416 217.609C195.666 212.284 197.284 208.426 198.269 206.034C201.058 198.827 203.922 192.13 206.861 185.945C208.405 182.47 211.057 177.322 214.817 170.501C215.338 169.609 216.036 168.254 216.91 166.437C217.202 165.903 217.473 165.41 217.723 164.955C212.173 166.483 205.301 168.399 197.107 170.704C186.828 173.828 177.819 176.027 170.079 177.301C167.954 177.74 165.875 178.229 163.843 178.769ZM218.062 323.328C216.848 325.928 215.41 327.101 213.75 326.846C215.19 325.435 216.627 324.263 218.062 323.328ZM186.866 377.161L187.571 377.881L188.637 378.249C188.872 378.489 188.987 378.846 188.982 379.321C188.502 379.791 188.024 380.024 187.549 380.019C187.789 379.784 187.562 378.831 186.866 377.161ZM253.798 278.451C253.803 277.975 253.691 277.38 253.46 276.665C253.935 276.67 254.293 276.555 254.533 276.32L253.798 278.451ZM261.797 262.856C262.268 263.336 262.383 263.694 262.143 263.929L261.783 264.281C261.313 263.801 261.08 263.324 261.085 262.849C261.32 263.089 261.558 263.091 261.797 262.856ZM160.163 384.762L159.354 384.586C158.996 383.639 158.909 382.316 159.091 380.617C159.273 378.919 159.343 377.738 159.299 377.077L159.838 377.195C160.913 379.168 161.696 380.751 162.189 381.945C161.199 383.033 160.523 383.972 160.163 384.762ZM155.072 365.398C153.546 364.631 152.583 362.574 152.184 359.227C153.398 358.84 154.228 359.347 154.675 360.748L155.482 362.228C155.839 363.175 155.906 363.733 155.681 363.901C155.636 364.109 155.433 364.608 155.072 365.398ZM151.274 338.819C151.138 339.442 151.271 340.557 151.673 342.166C152.254 343.814 152.252 345.117 151.666 346.076C150.276 344.686 150.145 342.267 151.274 338.819ZM150.911 354.712C151.228 353.26 151.835 352.632 152.734 352.828L153.137 353.568C152.911 354.605 152.169 354.986 150.911 354.712ZM161.436 389.277C161.301 389.031 161.144 388.888 160.965 388.849C161.01 388.641 161.168 388.35 161.438 387.974C161.663 387.806 161.798 387.618 161.843 387.411L162.246 388.151L161.436 389.277ZM153.737 357.284C153.333 357.413 152.951 357.439 152.592 357.36L152.39 356.99L153.065 356.486L153.334 356.544L153.737 357.284Z" fill="white"/>
<path d="M201.417 384.744C205.976 380.279 209.338 376.751 211.503 374.16C212.943 372.75 213.43 371.568 212.964 370.613C212.734 369.898 211.429 369.765 209.049 370.215C205.709 371.605 203.662 374.315 202.908 378.346C202.658 379.531 202.044 381.544 201.065 384.384L201.417 384.744Z" fill="white"/>
</svg>
