<svg xmlns="http://www.w3.org/2000/svg" viewBox="0 0 240 240"><defs><style>.cls-1{fill:#fff;}.cls-2{fill:#4038ff;}</style></defs><title>Icon-basic-1bg</title><g id="Layer_2" data-name="Layer 2"><g id="Layer_13" data-name="Layer 13"><rect class="cls-1" width="240" height="240"/><path class="cls-2" d="M135.28,49.73l12.7,0-.15,59.67a57,57,0,0,1-14.49,37.86,67.76,67.76,0,0,0,1.72-15Z"/><path class="cls-2" d="M94.28,153.78v0a34.19,34.19,0,0,1-26.15,12.61L72,153.73Z"/><path class="cls-2" d="M102,130.94v1.28a34,34,0,0,1-2,11.41l-25-.06,3.83-12.69Z"/><path class="cls-2" d="M158.14,49.78l12.7,0-.09,36.84a57,57,0,0,1-14.49,37.86,67.76,67.76,0,0,0,1.72-15Z"/><path class="cls-2" d="M125.11,49.69l-.21,82.59a57.22,57.22,0,0,1-57.32,57H61.23l3.83-12.69h2.56a44.5,44.5,0,0,0,44.57-44.35l.22-82.58Z"/></g></g></svg>