<svg id="图层_1" data-name="图层 1" xmlns="http://www.w3.org/2000/svg" viewBox="0 0 24 24"><defs><style>.cls-1,.cls-6{fill:red;}.cls-1,.cls-2,.cls-3{stroke:#000072;stroke-miterlimit:10;stroke-width:0.42px;}.cls-2{fill:aqua;stroke-linecap:round;}.cls-3,.cls-7{fill:#fff;}.cls-4{fill:#ff1e97;}.cls-5{fill:#000072;}</style></defs><rect class="cls-1" x="3.7" y="4.1" width="11.5" height="15.71" rx="1.3" transform="translate(-4.7 6.3) rotate(-30)"/><line class="cls-2" x1="4.5" y1="11.6" x2="11.1" y2="7.8"/><line class="cls-2" x1="5.9" y1="14" x2="12.4" y2="10.2"/><line class="cls-2" x1="7.2" y1="16.4" x2="13.8" y2="12.6"/><rect class="cls-3" x="7.1" y="3.7" width="13.1" height="16.66" rx="1.3" transform="translate(-4.2 8.4) rotate(-30)"/><circle class="cls-4" cx="20.4" cy="15.3" r="0.8"/><path class="cls-5" d="M19.8,11.1c-.1-.9-1.6-1.1-2.9-1.2h-.1a3.6,3.6,0,0,0-2.3-1.4A3.8,3.8,0,0,0,10,11.1H9.9c-1.1.4-2.4,1.2-2.3,2.1s.7.9,1.6,1l1.1.2h0A4.5,4.5,0,0,0,13,16.3a4,4,0,0,0,4.7-3.1h0C18.8,12.6,20,12,19.8,11.1Zm-6.6,4.5a3.7,3.7,0,0,1-2-1.2l2.9-.3,2.8-.7A3.3,3.3,0,0,1,13.2,15.6Zm4.6-3.3-.5.2H17l-3.1.8a19.5,19.5,0,0,1-3.2.2H9.9c-1-.1-1.5-.4-1.5-.5s.3-.6,1.4-1.1a3.7,3.7,0,0,0,.1,1.5h.8a3.7,3.7,0,0,1-.2-1.8,3.3,3.3,0,0,1,3.9-2.5A3.1,3.1,0,0,1,17,12.5h.2l.6-.3a8.3,8.3,0,0,0-.4-1.5l-.3-.4.3.4c1.2.1,1.7.4,1.7.5S18.8,11.8,17.8,12.3Z"/><ellipse class="cls-6" cx="14.4" cy="14.6" rx="0.9" ry="0.4" transform="translate(-2.7 3.2) rotate(-11.7)"/><circle class="cls-5" cx="8.4" cy="8.9" r="1.4"/><circle class="cls-7" cx="7.7" cy="8.2" r="0.3"/><circle class="cls-7" cx="9.2" cy="8.4" r="0.2"/><circle class="cls-7" cx="8.4" cy="8.9" r="0.2"/><circle class="cls-7" cx="8" cy="10.1" r="0.1"/><circle class="cls-7" cx="7.2" cy="8.9" r="0.1"/><circle class="cls-7" cx="8.8" cy="9.6" r="0.1"/></svg>