<svg width="665" height="681" viewBox="0 0 665 681" fill="none" xmlns="http://www.w3.org/2000/svg">
<circle cx="332.003" cy="340" r="295.5" fill="white" stroke="white" stroke-width="5"/>
<path d="M205.359 124.903L276.801 96.3868L331.469 129.447L333.704 331.199L340.52 569.109L279.828 597.106L217.13 567.171L205.359 124.903Z" fill="url(#paint0_linear_1042_546)"/>
<path d="M513.664 440.946L522.057 515.142L447.874 549.189L279.611 451.778L348.165 331.939L513.664 440.946Z" fill="url(#paint1_linear_1042_546)"/>
<path d="M449.56 196.907L519.913 234.475L518.837 302.952L329.582 410.766L279.829 299.197L449.56 196.907Z" fill="url(#paint2_linear_1042_546)"/>
<path fill-rule="evenodd" clip-rule="evenodd" d="M529.919 225.448L454.568 182.568L350.171 243.264L350.252 123.178L274.901 80.2976L199.536 124.115L199.455 244.201L199.427 300.303L199.618 352.928L199.91 380.917L199.428 449.494L199.411 504.293L199.419 567.419L274.722 610.217L350.087 566.4L350.08 503.274L454.479 562.616L455.228 562.18L529.845 518.799L529.907 432.183L425.507 372.842L529.904 312.145L529.919 225.448ZM331.202 134.253L331.122 254.339L284.372 281.519L284.507 107.732L331.202 134.253ZM218.568 135.026L265.317 107.845L265.234 390.268L218.484 417.448L218.568 135.026ZM199.411 504.293L199.435 428.523L199.429 482.307L199.411 504.293ZM218.484 417.448L265.234 390.268L265.244 518.105L218.495 545.286L218.484 417.448ZM331.103 555.572L274.787 588.314L228.044 561.71L284.36 528.968L284.341 390.203L331.084 416.806L331.103 555.572ZM454.461 540.761L350.062 481.419L350.068 427.635L501.211 513.58L454.461 540.761ZM510.858 443.259L510.804 496.96L359.661 411.014L406.41 383.834L510.858 443.259ZM340.593 400.235L293.85 373.631L454.562 280.193L501.306 306.797L340.593 400.235ZM454.628 258.289L453.879 258.725L284.432 357.241L284.438 303.457L454.717 204.457L510.953 236.475L510.863 290.307L454.628 258.289Z" fill="#151515"/>
<defs>
<linearGradient id="paint0_linear_1042_546" x1="276.877" y1="96.388" x2="269.013" y2="596.936" gradientUnits="userSpaceOnUse">
<stop stop-color="#FFF509"/>
<stop offset="1" stop-color="#FFF854"/>
</linearGradient>
<linearGradient id="paint1_linear_1042_546" x1="493.397" y1="396.789" x2="295.962" y2="487.405" gradientUnits="userSpaceOnUse">
<stop stop-color="#FFF509"/>
<stop offset="1" stop-color="#FFF854"/>
</linearGradient>
<linearGradient id="paint2_linear_1042_546" x1="400.981" y1="196.144" x2="397.593" y2="411.835" gradientUnits="userSpaceOnUse">
<stop stop-color="#FFF509"/>
<stop offset="1" stop-color="#FFF854"/>
</linearGradient>
</defs>
</svg>
