<svg width="324" height="324" viewBox="0 0 324 324" fill="none" xmlns="http://www.w3.org/2000/svg">
<path d="M162.19 296.382C241.852 296.382 306.431 231.602 306.431 151.691C306.431 71.7804 241.852 7 162.19 7C82.5288 7 17.9502 71.7804 17.9502 151.691C17.9502 231.602 82.5288 296.382 162.19 296.382Z" fill="url(#paint0_linear_12_5892)"/>
<path d="M161.502 2C249.451 2 321.003 73.776 321.003 162C321.003 250.224 249.451 322 161.502 322C73.5524 322 2 250.224 2 162C2 73.776 73.5524 2 161.502 2ZM161.502 291.524C187.039 291.524 212.003 283.928 233.237 269.695C254.471 255.463 271.021 235.234 280.793 211.567C290.566 187.899 293.123 161.856 288.141 136.731C283.159 111.606 270.861 88.527 252.804 70.4127C234.746 52.2984 211.739 39.9625 186.692 34.9648C161.645 29.9671 135.683 32.5321 112.089 42.3354C88.4956 52.1388 68.3297 68.7402 54.1418 90.0403C39.9538 111.34 32.3811 136.383 32.3811 162C32.4196 196.34 46.0357 229.263 70.2421 253.545C94.4486 277.827 127.268 291.485 161.502 291.524Z" fill="#44259D"/>
<path d="M161.502 322C249.592 322 321.003 250.366 321.003 162C321.003 73.6344 249.592 2 161.502 2C73.4113 2 2 73.6344 2 162C2 250.366 73.4113 322 161.502 322Z" stroke="#FEDC4A" stroke-width="4" stroke-miterlimit="10"/>
<path d="M232.5 135.304C218.129 138.277 189.288 149.712 173.958 150.352C217.851 120.853 215.088 53 162.016 53C111.419 53 106.407 121.004 150.073 150.352C134.746 149.712 107.135 138.277 92.7643 135.304C86.9999 147 86.4999 172.992 92.7643 186.896C108.408 183.661 133.31 173.451 150.073 172.992C149.761 202.101 146.681 243.656 141.289 268.375C159.053 271.36 165.96 272.355 182.737 268.375C178.296 244.003 174.27 202.101 173.958 172.992C190.721 173.451 216.856 183.661 232.5 186.896C238 172.992 237 150.352 232.5 135.304ZM162.016 135.304C124.773 118.31 128.084 74.1144 162.016 72.5694C195.725 72.5694 200.567 115.22 162.016 135.304Z" fill="#44259D"/>
<path d="M161.963 113C168.569 113 173.925 107.627 173.925 101C173.925 94.3726 168.569 89 161.963 89C155.356 89 150 94.3726 150 101C150 107.627 155.356 113 161.963 113Z" fill="#44259D"/>
<defs>
<linearGradient id="paint0_linear_12_5892" x1="162.19" y1="7" x2="162.19" y2="296.382" gradientUnits="userSpaceOnUse">
<stop stop-color="#FEEC88"/>
<stop offset="1" stop-color="#FFB627"/>
</linearGradient>
</defs>
</svg>
