<?xml version="1.0" encoding="utf-8"?>
<!-- Generator: Adobe Illustrator 27.0.1, SVG Export Plug-In . SVG Version: 6.00 Build 0)  -->
<svg version="1.1" xmlns="http://www.w3.org/2000/svg" xmlns:xlink="http://www.w3.org/1999/xlink" x="0px" y="0px"
	 viewBox="0 0 400 400" style="enable-background:new 0 0 400 400;" xml:space="preserve">
<style type="text/css">
	.st0{fill:#D73D80;}
	.st1{display:none;}
	.st2{display:inline;fill:none;stroke:#000000;stroke-miterlimit:10;}
</style>
<g id="Layer_3">
	<path class="st0" d="M129.8,111.9H81.6c-7.4,0-7,6.2-6,8.6c1,2.5,46.5,69.1,47.1,70.1c0.6,1,4.9,8.2,4.9,12.8
		c0,4.7-1.2,65.6-1.2,80.6c0,3.9,4.7,6.8,10.7,0.6c7.7-8,66.6-70.4,68.7-72.4c2.1-1.9,5.1-2.1,7,0.6c1.9,2.7,43.8,63.2,48.3,69.3
		c3.5,4.7,6,4.7,8.8,4.7h48.1c5.6,0,9-3.3,6.2-8.6c-2.7-5.3-47.7-67.9-50.4-72.4c-2.7-4.5-4.1-4.9-7.2-4.9h-40.7
		c-4.5,0-5.6-3.2-3.7-5.3c3.7-4,65.8-70.4,69.5-74.1c3.7-3.7,1.2-9.5-4.9-9.5h-63.2c-4.9,0-7.6,0.8-9.9,3.1
		c-1.8,1.8-74.9,79-76.5,80.6c-1.6,1.6-2.9,1.2-2.9-1.2v-76.7C134.1,115,133.5,111.9,129.8,111.9z"/>
</g>
<g id="Layer_2" class="st1">
	<circle class="st2" cx="200" cy="200" r="200"/>
</g>
</svg>
