<?xml version="1.0" encoding="UTF-8"?>
<svg id="Layer_1" xmlns="http://www.w3.org/2000/svg" version="1.1" viewBox="0 0 258.9 197">
  <!-- Generator: Adobe Illustrator 29.2.1, SVG Export Plug-In . SVG Version: 2.1.0 Build 116)  -->
  <path d="M76.9,32.5h-36.1c-5.5,0-5.2,4.7-4.5,6.4.8,1.9,34.8,51.7,35.3,52.5.4.7,3.6,6.1,3.6,9.6s-.9,49.1-.9,60.3,3.5,5.1,8,.4c5.8-6,49.9-52.8,51.5-54.2,1.6-1.5,3.8-1.6,5.2.4,1.5,2,32.8,47.4,36.1,51.9,2.6,3.5,4.5,3.5,6.6,3.5h36c4.2,0,6.7-2.5,4.7-6.4-2-3.9-35.7-50.9-37.8-54.2-2-3.4-3.1-3.6-5.4-3.6h-30.5c-3.4,0-4.2-2.4-2.8-3.9,2.8-3,49.3-52.8,52-55.5,2.8-2.8.9-7.1-3.6-7.1h-47.4c-3.6,0-5.7.6-7.4,2.3-1.3,1.3-56.1,59.2-57.3,60.3-1.2,1.2-2.2.9-2.2-.9v-57.4c0-2-.4-4.4-3.2-4.4Z"/>
</svg>