<?xml version="1.0" encoding="utf-8"?>
<!-- Generator: Adobe Illustrator 24.0.1, SVG Export Plug-In . SVG Version: 6.00 Build 0)  -->
<svg version="1.1" id="Laag_1" xmlns="http://www.w3.org/2000/svg" xmlns:xlink="http://www.w3.org/1999/xlink" x="0px" y="0px"
	 viewBox="0 0 600 600" style="enable-background:new 0 0 600 600;" xml:space="preserve">
<style type="text/css">
	.st0{fill:url(#SVGID_1_);}
	.st1{fill:url(#SVGID_2_);}
	.st2{fill:url(#SVGID_3_);}
	.st3{fill:url(#SVGID_4_);}
	.st4{fill:url(#SVGID_5_);}
	.st5{fill:url(#SVGID_6_);}
	.st6{fill:url(#SVGID_7_);}
	.st7{fill:url(#SVGID_8_);}
</style>
<g>
	<g>
		<linearGradient id="SVGID_1_" gradientUnits="userSpaceOnUse" x1="371.7036" y1="491.9633" x2="371.7036" y2="204.5268">
			<stop  offset="0.1762" style="stop-color:#624293"/>
			<stop  offset="1" style="stop-color:#E84281"/>
		</linearGradient>
		<polygon class="st0" points="245.2,347.1 248.2,344.1 250.2,342.2 261.5,330.8 261.5,285.5 289.2,313.2 289.2,313.2 312.9,336.9 
			312.9,336.9 438.3,462.2 409.2,491.3 515.4,492 488.9,465.4 488.9,465.4 336.7,313.2 317.9,294.4 312.9,289.5 311.9,288.4 
			311.6,288.2 228,204.5 228,345.9 228,364.3 235.8,356.5 		"/>
		<linearGradient id="SVGID_2_" gradientUnits="userSpaceOnUse" x1="406.754" y1="590.8431" x2="406.754" y2="9.7974">
			<stop  offset="0.1762" style="stop-color:#624293"/>
			<stop  offset="1" style="stop-color:#E84281"/>
		</linearGradient>
		<polygon class="st1" points="244.8,9.8 244.8,43.3 552,43.3 552,557.3 261.5,557.3 261.5,398.5 232.5,427.6 228,432.6 228,443.3 
			228,590.8 585.5,590.8 585.5,9.8 		"/>
		<linearGradient id="SVGID_3_" gradientUnits="userSpaceOnUse" x1="416.4572" y1="308.8028" x2="416.4572" y2="134.3072">
			<stop  offset="0.1762" style="stop-color:#624293"/>
			<stop  offset="1" style="stop-color:#E84281"/>
		</linearGradient>
		<polygon class="st2" points="409.7,192.7 317.3,285.1 320.4,288.2 341,308.8 370,279.8 370.1,279.9 462.5,187.6 462.4,187.5 
			515.6,134.3 409.4,135 438.5,164.1 409.8,192.9 		"/>
		<linearGradient id="SVGID_4_" gradientUnits="userSpaceOnUse" x1="162.117" y1="590.8431" x2="162.117" y2="9.7974">
			<stop  offset="0.1762" style="stop-color:#624293"/>
			<stop  offset="1" style="stop-color:#E84281"/>
		</linearGradient>
		<polygon class="st3" points="235.4,414.6 261.5,388.4 261.5,388.3 308.5,341.3 284.8,317.6 233.3,369.1 232.5,369.9 228,374.4 
			206,396.4 206,9.8 15.7,9.8 15.7,590.8 183.9,590.8 183.9,557.3 49.2,557.3 49.2,43.3 172.5,43.3 172.5,477.3 226.3,423.6 
			226.3,423.6 228,421.9 		"/>
	</g>
	<g>
		<linearGradient id="SVGID_5_" gradientUnits="userSpaceOnUse" x1="300.6017" y1="590.8431" x2="300.6017" y2="9.7974">
			<stop  offset="9.116022e-02" style="stop-color:#3A2A78"/>
			<stop  offset="1" style="stop-color:#E82D81"/>
		</linearGradient>
		<polygon class="st4" points="245.2,347.1 248.2,344.1 250.2,342.2 261.5,330.8 261.5,285.5 289.2,313.2 289.2,313.2 312.9,336.9 
			312.9,336.9 438.3,462.2 409.2,491.3 515.4,492 488.9,465.4 488.9,465.4 336.7,313.2 317.9,294.4 312.9,289.5 311.9,288.4 
			311.6,288.2 228,204.5 228,345.9 228,364.3 235.8,356.5 		"/>
		<linearGradient id="SVGID_6_" gradientUnits="userSpaceOnUse" x1="300.6017" y1="590.8431" x2="300.6017" y2="9.7974">
			<stop  offset="9.116022e-02" style="stop-color:#3A2A78"/>
			<stop  offset="1" style="stop-color:#E82D81"/>
		</linearGradient>
		<polygon class="st5" points="244.8,9.8 244.8,43.3 552,43.3 552,557.3 261.5,557.3 261.5,398.5 232.5,427.6 228,432.6 228,443.3 
			228,590.8 585.5,590.8 585.5,9.8 		"/>
		<linearGradient id="SVGID_7_" gradientUnits="userSpaceOnUse" x1="300.6017" y1="590.8431" x2="300.6017" y2="9.7974">
			<stop  offset="9.116022e-02" style="stop-color:#3A2A78"/>
			<stop  offset="1" style="stop-color:#E82D81"/>
		</linearGradient>
		<polygon class="st6" points="409.7,192.7 317.3,285.1 320.4,288.2 341,308.8 370,279.8 370.1,279.9 462.5,187.6 462.4,187.5 
			515.6,134.3 409.4,135 438.5,164.1 409.8,192.9 		"/>
		<linearGradient id="SVGID_8_" gradientUnits="userSpaceOnUse" x1="300.6017" y1="590.8431" x2="300.6017" y2="9.7974">
			<stop  offset="9.116022e-02" style="stop-color:#3A2A78"/>
			<stop  offset="1" style="stop-color:#E82D81"/>
		</linearGradient>
		<polygon class="st7" points="235.4,414.6 261.5,388.4 261.5,388.3 308.5,341.3 284.8,317.6 233.3,369.1 232.5,369.9 228,374.4 
			206,396.4 206,9.8 15.7,9.8 15.7,590.8 183.9,590.8 183.9,557.3 49.2,557.3 49.2,43.3 172.5,43.3 172.5,477.3 226.3,423.6 
			226.3,423.6 228,421.9 		"/>
	</g>
</g>
</svg>
