<svg id="Layer_1" data-name="Layer 1" xmlns="http://www.w3.org/2000/svg" xmlns:xlink="http://www.w3.org/1999/xlink" viewBox="0 0 500 500"><defs><style>.cls-1{fill:url(#linear-gradient);}.cls-2{fill:url(#linear-gradient-2);}.cls-3{fill:url(#linear-gradient-3);}.cls-4{fill:url(#linear-gradient-4);}.cls-5{fill:#231f20;}</style><linearGradient id="linear-gradient" x1="294.1" y1="372.25" x2="294.1" y2="193.99" gradientUnits="userSpaceOnUse"><stop offset="0.18" stop-color="#624098"/><stop offset="1" stop-color="#e84181"/></linearGradient><linearGradient id="linear-gradient-2" x1="315.83" y1="433.57" x2="315.83" y2="73.22" xlink:href="#linear-gradient"/><linearGradient id="linear-gradient-3" x1="321.85" y1="258.66" x2="321.85" y2="150.44" xlink:href="#linear-gradient"/><linearGradient id="linear-gradient-4" x1="164.11" y1="433.57" x2="164.11" y2="73.22" xlink:href="#linear-gradient"/></defs><polygon class="cls-1" points="215.64 282.42 217.52 280.54 218.71 279.36 225.76 272.3 225.76 244.18 242.95 261.37 242.94 261.39 257.64 276.09 257.65 276.07 335.4 353.82 317.37 371.84 383.22 372.25 366.75 355.78 366.76 355.77 272.36 261.37 260.72 249.73 257.65 246.67 256.98 245.99 256.84 245.85 204.97 193.99 204.97 281.69 204.97 293.08 209.84 288.23 215.64 282.42"/><polygon class="cls-2" points="215.37 73.22 215.37 94.01 405.9 94.01 405.9 412.78 225.76 412.78 225.76 314.31 207.76 332.31 204.97 335.45 204.97 342.04 204.97 433.57 426.7 433.57 426.7 73.22 215.37 73.22"/><polygon class="cls-3" points="317.65 186.68 260.38 243.94 262.27 245.85 275.07 258.66 293.05 240.68 293.12 240.75 350.4 183.47 350.34 183.41 383.32 150.44 317.47 150.85 335.55 168.92 317.72 186.75 317.65 186.68"/><polygon class="cls-4" points="209.57 324.24 225.76 308.05 225.76 307.97 254.92 278.81 240.22 264.1 208.26 296.07 207.76 296.57 204.97 299.35 191.36 312.97 191.36 73.22 73.3 73.22 73.3 433.57 177.61 433.57 177.61 412.78 94.09 412.78 94.09 94.01 170.57 94.01 170.57 363.17 203.89 329.84 203.89 329.84 204.97 328.77 209.57 324.24"/><polygon class="cls-5" points="215.64 282.42 217.52 280.54 218.71 279.36 225.76 272.3 225.76 244.18 242.95 261.37 242.94 261.39 257.64 276.09 257.65 276.07 335.4 353.82 317.37 371.84 383.22 372.25 366.75 355.78 366.76 355.77 272.36 261.37 260.72 249.73 257.65 246.67 256.98 245.99 256.84 245.85 204.97 193.99 204.97 281.69 204.97 293.08 209.84 288.23 215.64 282.42"/><polygon class="cls-5" points="215.37 73.22 215.37 94.01 405.9 94.01 405.9 412.78 225.76 412.78 225.76 314.31 207.76 332.31 204.97 335.45 204.97 342.04 204.97 433.57 426.7 433.57 426.7 73.22 215.37 73.22"/><polygon class="cls-5" points="317.65 186.68 260.38 243.94 262.27 245.85 275.07 258.66 293.05 240.68 293.12 240.75 350.4 183.47 350.34 183.41 383.32 150.44 317.47 150.85 335.55 168.92 317.72 186.75 317.65 186.68"/><polygon class="cls-5" points="209.57 324.24 225.76 308.05 225.76 307.97 254.92 278.81 240.22 264.1 208.26 296.07 207.76 296.57 204.97 299.35 191.36 312.97 191.36 73.22 73.3 73.22 73.3 433.57 177.61 433.57 177.61 412.78 94.09 412.78 94.09 94.01 170.57 94.01 170.57 363.17 203.89 329.84 203.89 329.84 204.97 328.77 209.57 324.24"/></svg>