<svg width="36" height="36" viewBox="0 0 36 36" fill="none" xmlns="http://www.w3.org/2000/svg">
<rect width="36" height="36" rx="18" fill="white"/>
<path d="M33.6458 18.7167L31.5706 16.8143L29.5592 19.0083C28.7961 19.8407 27.6856 20.2652 26.5618 20.1541L26.035 20.1021C25.2858 20.028 24.5455 20.311 24.0368 20.866L16.0724 29.5533L18.1476 31.4558L27.2374 21.5408C27.8244 20.9006 28.7123 20.6289 29.5571 20.831L29.9518 20.9255C30.7966 21.1277 31.6846 20.856 32.2715 20.2157L33.6458 18.7167Z" fill="url(#paint0_linear_247_330)"/>
<path d="M29.1848 14.6277L27.1096 12.7253L22.9844 17.225C22.2213 18.0574 21.1108 18.4819 19.987 18.3709L19.4602 18.3188C18.711 18.2448 17.9707 18.5278 17.462 19.0827L11.6115 25.4643L13.6867 27.3668L20.6626 19.7576C21.2496 19.1173 22.1375 18.8456 22.9823 19.0478L23.377 19.1423C24.2218 19.3444 25.1098 19.0727 25.6968 18.4325L29.1848 14.6277Z" fill="url(#paint1_linear_247_330)"/>
<path d="M24.7251 10.5386L22.6499 8.63617L16.4108 15.4417C15.6477 16.2741 14.5372 16.6986 13.4134 16.5875L12.8867 16.5355C12.1375 16.4614 11.3972 16.7444 10.8884 17.2994L7.15178 21.3752L9.22695 23.2777L14.089 17.9742C14.676 17.334 15.564 17.0623 16.4087 17.2644L16.8035 17.3589C17.6482 17.5611 18.5362 17.2894 19.1232 16.6491L24.7251 10.5386Z" fill="url(#paint2_linear_247_330)"/>
<path d="M20.2639 6.44952L18.1887 4.54706L9.83578 13.6583C9.07267 14.4907 7.96219 14.9152 6.83841 14.8042L6.31163 14.7521C5.56245 14.6781 4.82213 14.9611 4.31339 15.516L2.6906 17.2861L4.76578 19.1886L7.51399 16.1909C8.10097 15.5506 8.98894 15.2789 9.83371 15.4811L10.2284 15.5755C11.0732 15.7777 11.9612 15.506 12.5482 14.8657L20.2639 6.44952Z" fill="url(#paint3_linear_247_330)"/>
<defs>
<linearGradient id="paint0_linear_247_330" x1="31.5706" y1="16.8143" x2="18.1476" y2="31.4558" gradientUnits="userSpaceOnUse">
<stop offset="0.209652" stop-color="#ECDA39"/>
<stop offset="0.335908" stop-color="#0CFEC0"/>
</linearGradient>
<linearGradient id="paint1_linear_247_330" x1="27.1096" y1="12.7253" x2="13.6867" y2="27.3668" gradientUnits="userSpaceOnUse">
<stop offset="0.321604" stop-color="#ECDA39"/>
<stop offset="0.506424" stop-color="#28D596"/>
</linearGradient>
<linearGradient id="paint2_linear_247_330" x1="22.6499" y1="8.63617" x2="9.22696" y2="23.2777" gradientUnits="userSpaceOnUse">
<stop offset="0.501239" stop-color="#ECDA39"/>
<stop offset="0.641372" stop-color="#15B786"/>
</linearGradient>
<linearGradient id="paint3_linear_247_330" x1="18.1887" y1="4.54706" x2="4.76578" y2="19.1886" gradientUnits="userSpaceOnUse">
<stop offset="0.649631" stop-color="#ECDA39"/>
<stop offset="0.796711" stop-color="#13A076"/>
</linearGradient>
</defs>
</svg>
