<?xml version="1.0" encoding="UTF-8" standalone="no"?>
<svg
   xmlns:dc="http://purl.org/dc/elements/1.1/"
   xmlns:cc="http://creativecommons.org/ns#"
   xmlns:rdf="http://www.w3.org/1999/02/22-rdf-syntax-ns#"
   xmlns:svg="http://www.w3.org/2000/svg"
   xmlns="http://www.w3.org/2000/svg"
   xmlns:sodipodi="http://sodipodi.sourceforge.net/DTD/sodipodi-0.dtd"
   xmlns:inkscape="http://www.inkscape.org/namespaces/inkscape"
   inkscape:version="1.0 (4035a4fb49, 2020-05-01)"
   sodipodi:docname="moonbase alpha favicon color.svg"
   viewBox="0 0 340 340"
   height="340"
   width="340"
   xml:space="preserve"
   id="svg2"
   version="1.1"><metadata
     id="metadata8"><rdf:RDF><cc:Work
         rdf:about=""><dc:format>image/svg+xml</dc:format><dc:type
           rdf:resource="http://purl.org/dc/dcmitype/StillImage" /><dc:title></dc:title></cc:Work></rdf:RDF></metadata><defs
     id="defs6"><clipPath
       id="clipPath18"
       clipPathUnits="userSpaceOnUse"><path
         id="path16"
         d="M 0,255 H 255 V 0 H 0 Z" /></clipPath></defs><sodipodi:namedview
     inkscape:current-layer="g10"
     inkscape:window-maximized="0"
     inkscape:window-y="671"
     inkscape:window-x="4109"
     inkscape:cy="110.46548"
     inkscape:cx="78.204261"
     inkscape:zoom="0.47209776"
     showgrid="false"
     id="namedview4"
     inkscape:window-height="480"
     inkscape:window-width="850"
     inkscape:pageshadow="2"
     inkscape:pageopacity="0"
     guidetolerance="10"
     gridtolerance="10"
     objecttolerance="10"
     borderopacity="1"
     bordercolor="#666666"
     pagecolor="#ffffff" /><g
     transform="matrix(1.3333333,0,0,-1.3333333,0,340)"
     inkscape:label="moonbase alpha favicon color"
     inkscape:groupmode="layer"
     id="g10"><g
       id="g12"><g
         clip-path="url(#clipPath18)"
         id="g14"><g
           transform="translate(301.5,128.455)"
           id="g20"><path
             id="path22"
             style="fill:#1e0e2d;fill-opacity:1;fill-rule:nonzero;stroke:none"
             d="m 0,0 c 0,-96.098 -77.902,-174 -174,-174 -96.098,0 -174,77.902 -174,174 0,96.098 77.902,174 174,174 C -77.902,174 0,96.098 0,0" /></g><g
           transform="translate(245.255,50.6645)"
           id="g24"><path
             id="path26"
             style="fill:#53cbc9;fill-opacity:1;fill-rule:nonzero;stroke:none"
             d="m 0,0 h -52.15 c -2.273,0.112 -4.024,2.045 -3.912,4.318 0.104,2.116 1.796,3.808 3.912,3.912 H 0 C 2.273,8.342 4.206,6.591 4.318,4.318 4.43,2.045 2.679,0.112 0.406,0 0.271,-0.007 0.135,-0.007 0,0" /></g><g
           transform="translate(142.9349,50.6645)"
           id="g28"><path
             id="path30"
             style="fill:#53cbc9;fill-opacity:1;fill-rule:nonzero;stroke:none"
             d="m 0,0 h -134.93 c -2.273,-0.112 -4.206,1.639 -4.318,3.912 -0.112,2.273 1.639,4.206 3.912,4.318 0.135,0.007 0.271,0.007 0.406,0 H 0 C 2.273,8.118 4.024,6.185 3.912,3.912 3.808,1.796 2.116,0.104 0,0" /></g><g
           transform="translate(215.4449,29.8645)"
           id="g32"><path
             id="path34"
             style="fill:#53cbc9;fill-opacity:1;fill-rule:nonzero;stroke:none"
             d="m 0,0 c -2.27,0 -4.11,1.84 -4.11,4.11 v 187 c 0.112,2.273 2.045,4.024 4.318,3.912 2.116,-0.105 3.808,-1.796 3.912,-3.912 L 4.12,4.07 C 4.098,1.812 2.258,-0.006 0,0" /></g><g
           transform="translate(169.575,145.2045)"
           id="g36"><path
             id="path38"
             style="fill:#53cbc9;fill-opacity:1;fill-rule:nonzero;stroke:none"
             d="m 0,0 c -2.27,0 -4.11,1.84 -4.11,4.11 v 71.7 c -0.006,2.27 1.829,4.115 4.099,4.121 2.27,0.006 4.115,-1.829 4.121,-4.099 V 75.81 4.11 C 4.11,1.84 2.27,0 0,0" /></g><g
           transform="translate(34.0549,29.8645)"
           id="g40"><path
             id="path42"
             style="fill:#53cbc9;fill-opacity:1;fill-rule:nonzero;stroke:none"
             d="m 0,0 c -2.271,0 -4.115,1.839 -4.12,4.11 v 187 c 0.112,2.273 2.045,4.024 4.318,3.912 2.116,-0.105 3.808,-1.796 3.912,-3.912 L 4.11,4.07 C 4.088,1.816 2.254,0 0,0" /></g><g
           transform="translate(184.6949,195.8845)"
           id="g44"><path
             id="path46"
             style="fill:#53cbc9;fill-opacity:1;fill-rule:nonzero;stroke:none"
             d="m 0,0 h -176.69 c -2.27,0 -4.11,1.84 -4.11,4.11 0,2.27 1.84,4.11 4.11,4.11 H 0 C 2.27,8.22 4.11,6.38 4.11,4.11 4.11,1.84 2.27,0 0,0" /></g><g
           transform="translate(58.9849,108.2445)"
           id="g48"><path
             id="path50"
             style="fill:#53cbc9;fill-opacity:1;fill-rule:nonzero;stroke:none"
             d="M 0,0 C -2.27,0.007 -4.104,1.852 -4.098,4.122 -4.094,5.2 -3.668,6.234 -2.91,7 l 68,68 c 1.607,1.604 4.211,1.602 5.815,-0.005 1.604,-1.607 1.602,-4.211 -0.005,-5.815 l -68,-68 C 2.128,0.418 1.085,-0.007 0,0" /></g><g
           transform="translate(60.575,74.8045)"
           id="g52"><path
             id="path54"
             style="fill:#53cbc9;fill-opacity:1;fill-rule:nonzero;stroke:none"
             d="M 0,0 C -2.275,0.025 -4.099,1.89 -4.074,4.166 -4.062,5.226 -3.642,6.242 -2.9,7 L 80,89.93 c 1.607,1.604 4.211,1.602 5.815,-0.005 1.604,-1.607 1.602,-4.211 -0.005,-5.815 L 3,1.21 C 2.208,0.413 1.124,-0.025 0,0" /></g><g
           transform="translate(87.325,66.6045)"
           id="g56"><path
             id="path58"
             style="fill:#53cbc9;fill-opacity:1;fill-rule:nonzero;stroke:none"
             d="M 0,0 C -2.275,0.02 -4.104,1.881 -4.084,4.156 -4.074,5.22 -3.654,6.239 -2.91,7 l 65.32,65.33 c 1.604,1.607 4.208,1.609 5.815,0.005 1.607,-1.604 1.609,-4.208 0.005,-5.815 L 2.91,1.2 C 2.137,0.431 1.091,-0.001 0,0" /></g><g
           transform="translate(111.2449,177.6845)"
           id="g60"><path
             id="path62"
             style="fill:#f45b5b;fill-opacity:1;fill-rule:nonzero;stroke:none"
             d="m 0,0 c -10.18,0 -20.35,-5 -28.66,-14.2 -12.89,-14.23 -19.27,-36.14 -17.06,-58.61 0.031,-0.341 0.105,-0.677 0.22,-1 5.76,-15.65 17.52,-24.27 33.11,-24.27 18.38,0 38.79,12.68 48.54,30.15 6.09,10.91 6.11,27.21 0.06,39.65 C 27.33,-10.05 14.46,0 0,0 m -11.5,-120.75 c -7.599,-0.001 -15.148,1.218 -22.36,3.61 -29.81,9.69 -44.69,34.39 -39.67,66.2 3.138,18.531 11.861,35.661 25,49.1 14.09,14.32 31.72,22.21 49.63,22.21 1.33,0 2.69,0 4,-0.13 h 0.12 c 17.77,0 35.14,-11.43 46.45,-30.5 1.343,-2.241 4.248,-2.968 6.489,-1.625 0.828,0.496 1.484,1.234 1.881,2.115 1.07,2.38 2,4.57 2.87,6.58 6.39,14.82 7.9,18.34 24.15,18.34 3.26,0 7.16,-0.16 12.28,-0.51 1.32,-0.07 1.61,-0.57 1.75,-0.81 3,-5.27 -8.8,-27.61 -16.61,-42.4 -5.15,-9.75 -9.6,-18.17 -10.78,-22.71 -0.27,-1.019 -0.178,-2.101 0.26,-3.06 0.87,-2 1.75,-4 2.65,-6.08 9.54,-22.08 21.42,-49.56 47.71,-49.56 2.445,0.009 4.885,0.237 7.29,0.68 h 0.17 c -0.121,-0.242 -0.268,-0.47 -0.44,-0.68 -6.54,-6.91 -14.34,-10.42 -23.19,-10.42 -17.56,0 -36.71,14.29 -44.52,33.23 -0.719,1.807 -2.465,2.995 -4.41,3 -1.444,0.001 -2.807,-0.668 -3.69,-1.81 -16.91,-21.77 -42,-34.77 -67.03,-34.77" /></g></g></g></g></svg>
