<?xml version="1.0" encoding="UTF-8" standalone="no"?>
<svg
   width="256"
   height="256"
   viewBox="0 0 256 256"
   fill="none"
   version="1.1"
   id="svg1"
   sodipodi:docname="moonbeam.svg"
   inkscape:version="1.3.2 (091e20e, 2023-11-25, custom)"
   xmlns:inkscape="http://www.inkscape.org/namespaces/inkscape"
   xmlns:sodipodi="http://sodipodi.sourceforge.net/DTD/sodipodi-0.dtd"
   xmlns="http://www.w3.org/2000/svg"
   xmlns:svg="http://www.w3.org/2000/svg">
  <defs
     id="defs1" />
  <sodipodi:namedview
     id="namedview1"
     pagecolor="#ffffff"
     bordercolor="#000000"
     borderopacity="0.25"
     inkscape:showpageshadow="2"
     inkscape:pageopacity="0.0"
     inkscape:pagecheckerboard="0"
     inkscape:deskcolor="#d1d1d1"
     inkscape:zoom="0.97826087"
     inkscape:cx="74.622222"
     inkscape:cy="129.31111"
     inkscape:window-width="1649"
     inkscape:window-height="1266"
     inkscape:window-x="4480"
     inkscape:window-y="367"
     inkscape:window-maximized="0"
     inkscape:current-layer="svg1" />
  <rect
     style="fill:#000000;fill-opacity:1;stroke:none;stroke-width:2.91835;stroke-dasharray:2.91835, 2.91835"
     id="rect1"
     width="256"
     height="256"
     x="0"
     y="0"
     ry="5.5375123" />
  <path
     d="m 212.98084,127.91888 c 0,-46.710992 -38.05272,-84.57597 -84.98568,-84.57597 C 81.062387,43.34291 43,81.207888 43,127.91888 c 0,9.65705 1.630282,18.93249 4.622333,27.57812 0.01918,0.0381 0.182208,0.53436 0.182208,0.53436 1.208327,3.8265 -4.785361,5.32484 -4.785361,7.61505 0,3.58797 12.639474,3.10124 12.639474,7.27139 0,3.63579 -12.505216,4.76182 -12.505216,8.42608 0,5.06714 27.686093,3.30181 28.040909,7.65318 0.268484,3.35894 -9.5229,3.569 -9.580392,7.15697 -0.09588,5.7351 37.784228,3.85515 37.784228,7.67217 0,2.89155 -17.233021,1.8418 -17.233021,5.25804 0,3.41624 22.680098,5.57285 47.680918,5.57285 25.00082,0 42.24352,-2.76726 42.24352,-5.75426 0,-2.98681 -16.09192,-2.37598 -15.75627,-5.06696 0.57549,-4.70451 36.2978,-2.29988 36.2978,-7.74863 0,-2.87239 -9.82004,-3.54035 -9.50355,-6.6321 0.45064,-4.37054 29.85326,-3.72156 29.85326,-8.26383 0,-3.569 -14.57665,-4.44701 -14.54781,-8.1589 0.0192,-3.78854 14.54781,-3.6263 14.45199,-7.17613 -0.0769,-2.72912 -6.50204,-2.66232 -4.48813,-8.44524 C 211.36975,146.79406 213,137.54728 213,127.91888 Z m -27.00506,24.0188 c -2.95369,6.65107 -9.58988,5.31516 -10.33802,8.11108 -0.77662,2.89136 8.18029,3.3113 8.18029,6.33626 0,3.67393 -27.30238,2.20443 -27.03389,7.05203 0.17247,3.0536 19.39075,3.56899 19.02626,6.75619 -0.52748,4.61856 -29.7766,2.30937 -30.06425,6.73703 -0.21099,3.24451 14.27933,3.35893 14.30817,6.31728 0.0286,2.49059 -11.37364,3.84566 -33.21945,3.84566 -24.87616,0 -36.978585,-1.33609 -35.597651,-4.11284 1.284927,-2.59572 23.312891,-2.11848 23.092411,-6.20286 -0.22067,-4.07451 -39.117161,-2.88169 -40.287104,-6.84196 -0.978301,-3.29214 12.783221,-3.96977 12.69689,-7.09966 -0.08615,-3.1872 -17.61649,-2.46194 -18.000145,-6.32677 -0.24932,-2.52874 9.158409,-2.37617 8.75559,-5.56337 -0.297323,-2.31886 -4.181316,-1.99437 -6.482872,-6.77517 -3.711144,-7.98716 -5.801895,-16.88081 -5.801895,-26.26119 0,-34.506043 28.11769,-62.484933 62.794726,-62.484933 34.67703,0 62.79454,27.97889 62.79454,62.484933 0,8.51204 -1.71659,16.62312 -4.81411,24.01861 z"
     fill="#ffffff"
     id="path1"
     style="stroke-width:1.8606" />
</svg>
