<svg version="1.2" xmlns="http://www.w3.org/2000/svg" viewBox="0 0 1000 1000" width="1000" height="1000"><style>.a{fill:#d5e3e4}.b{fill:#d5e2e4}.c{fill:#a7acb7}</style><path class="a" d="m532 0.8q0.6 0 1.1 0.1 29.1 2 57.7 7.1 0.5 0.1 1.1 0.2c19.7 3.5 39.4 8.4 58.5 14.6q0.5 0.1 0.9 0.3 6.4 2 12.7 4.2 1.2 0.4 2.4 0.8c35.5 12.2 69.7 29 109.8 54.8q1.6 1 3.2 2.1 6.4 4.3 12.6 8.8 1.8 1.3 3.6 2.6c3.6 2.6 7.2 5.3 10.8 8.1q1.2 1 2.3 1.9 6 4.7 11.8 9.6 2 1.7 4.2 3.4c1.9 1.6 3.7 3.2 5.5 4.9q1.3 1.1 2.6 2.3c1.9 1.7 3.9 3.5 5.8 5.2q0.9 0.9 1.8 1.7c2.2 2 4.3 3.9 6.3 6q1.1 1.1 2.3 2.1c2 1.7 3.8 3.6 5.6 5.4q0.9 0.9 1.8 1.7c1.9 1.9 3.7 3.8 5.4 5.8 0.9 1 1.8 2 2.8 2.9q2.2 2.2 4.2 4.5 1.6 1.8 3.2 3.5 2.7 2.9 5.2 5.8 0.3 0.3 0.5 0.6 2.2 2.5 4.3 5c0.3 0.3 0.3 0.3 0.6 0.7q3.6 4.2 7 8.5 0.5 0.6 1 1.2 1.4 1.8 2.8 3.6 0.6 0.8 1.3 1.6 7.6 9.8 14.7 19.9 1 1.4 2 2.9c2.8 3.9 5.4 7.8 8 11.9q1 1.5 1.9 2.9 11.8 18.4 21.9 37.7 0.6 1.1 1.2 2.2c3.6 6.8 7 13.7 10.2 20.7q0.9 2.1 1.9 4.2c14.6 32 25.6 66 42.2 163.6q0.1 1.7 0.3 3.4c2.3 25.6 2.2 52.3-0.1 77.9q-0.2 1.8-0.3 3.5c-3.1 36.3-10.2 72.1-21 106.8q-0.1 0.5-0.3 1c-9.7 31.3-22.6 62.1-40.7 93.9q-0.9 1.7-1.9 3.3c-6.6 12.1-14 23.7-21.9 35q-0.7 1-1.4 2c-8.4 12.1-17.4 24-27 35.3q-1.7 2-3.4 4.2c-1.6 1.9-3.2 3.7-4.9 5.5q-1.1 1.3-2.3 2.6-2 2.3-4.1 4.6-1.8 1.9-3.5 3.8c-1.5 1.8-3.1 3.4-4.8 5-0.8 0.8-1.5 1.6-2.2 2.4-1.9 2.2-3.9 4.2-5.9 6.2q-1 1-2 2c-2 2-4.1 4-6.2 5.8-1 0.8-1.8 1.7-2.7 2.6-1.4 1.4-2.8 2.7-4.3 4q-1.8 1.6-3.5 3.2-2.9 2.7-5.8 5.2c-0.3 0.3-0.3 0.3-0.6 0.5q-2.1 1.9-4.3 3.7-0.7 0.6-1.4 1.2-4.2 3.6-8.7 7.1-1.8 1.4-3.5 2.8c-3.6 2.9-7.2 5.6-10.9 8.4q-1.4 1-2.9 2.1-10.2 7.6-20.9 14.6-0.4 0.2-0.8 0.5-23.6 15.5-48.9 28.3-1 0.6-2.1 1.1c-7.6 4-15.5 7.5-23.4 10.9q-1.1 0.5-2.3 1.1c-22.5 9.9-45.9 17.8-69.7 24.1-0.5 0.1-0.5 0.1-0.9 0.2-22.6 6-45.5 10.3-68.7 13q-0.5 0.1-0.9 0.1c-18.5 2.1-36.9 2.9-55.4 2.9q-2.9-0.1-5.8 0c-13 0-26-0.2-39-1.3q-1.2-0.1-2.4-0.2-4-0.4-8-0.8-0.6-0.1-1.2-0.1c-36.6-3.9-72.4-12.1-152.1-41.4q-0.7-0.3-1.5-0.7c-11.8-5.3-23.5-11-34.7-17.5q-2-1.2-4-2.2c-7.7-4.2-15.2-8.8-22.6-13.6q-0.5-0.3-1-0.6c-12.1-7.8-24-16.1-35.4-25q-0.3-0.3-0.7-0.5-5.3-4.2-10.6-8.5-0.9-0.8-1.9-1.6-6.1-4.9-11.9-10.2-1.2-1.1-2.5-2.2c-4.5-3.9-9-8-13.2-12.2q-1.1-1.1-2.2-2c-2.1-1.9-4.1-3.9-6.2-5.9q-1-1-2-2c-2-2-4-4.1-5.8-6.2-0.9-1-1.8-2-2.8-2.9q-2.2-2.2-4.2-4.5-1.3-1.4-2.5-2.8c-2-2.1-4-4.3-5.8-6.6q-1.4-1.7-2.9-3.3c-1.8-1.9-3.4-3.9-5.1-5.9q-0.9-1.2-1.8-2.3c-2.7-3.2-5.2-6.4-7.7-9.6q-1-1.4-2.1-2.7-4.9-6.4-9.5-12.9-0.8-1.1-1.7-2.3c-6.1-8.5-11.8-17.2-17.3-26.1q-0.4-0.6-0.8-1.2-6-9.9-11.6-20-0.3-0.6-0.6-1.2c-16.6-30-29.9-61.6-59.9-197.1q0-0.5-0.1-1-0.3-4-0.6-7.9c-0.1-0.7-0.1-0.7-0.1-1.5-0.7-10.6-0.8-21.2-0.8-31.8q0-2 0-4.1c0-12.4 0.1-24.7 1.2-37.1q0.2-1.8 0.3-3.5c3.4-39.5 11.4-78.4 46.6-172q0.4-0.8 0.8-1.6c3.1-6.6 6.3-13.1 9.9-19.4q1-1.9 2-3.8c5.7-11.1 12.4-22 19.3-32.4q0.4-0.6 0.8-1.2c11.6-17.6 24.2-34.5 37.9-50.6q0.8-1 1.7-2 3.4-4 7-7.9 1.2-1.3 2.3-2.6 4.6-5.3 9.6-10.1 1-1.1 1.9-2.2c1.7-2 3.6-3.8 5.4-5.6q0.9-0.9 1.7-1.8c1.9-1.9 3.8-3.7 5.8-5.4 1-0.9 2-1.8 2.9-2.8q2.2-2.2 4.5-4.2 1.5-1.3 2.9-2.7c2.2-2.1 4.5-4.1 6.9-6q1.7-1.4 3.3-2.9c1.9-1.8 3.9-3.4 5.9-5.1q1.2-0.9 2.2-1.8 5.1-4.2 10.4-8.2 2.2-1.7 4.5-3.5 4.5-3.5 9.2-6.9 1.2-0.8 2.3-1.5c4.4-3.2 9-6.3 13.5-9.3q0.6-0.4 1.1-0.8c8.8-5.8 17.6-11.3 26.7-16.5q0.6-0.3 1.1-0.7c30.5-17.5 62.8-31.7 216.5-64.9q0.5 0 1-0.1c20.9-1.3 42.1-1.3 63 0.1z"/><path  d="m365.9 281.9q1.1 0 2.2 0 2.9 0.1 5.7 0.1 1.4 0 2.8 0c7.7 0.1 15 0.9 22.6 2.4q0.7 0.1 1.5 0.3 2.2 0.4 4.5 0.9 0.6 0.1 1.3 0.3c3.5 0.7 6.9 1.8 10.3 2.9 0.4 0.1 0.4 0.1 0.8 0.3 7.8 2.5 15.4 5.2 22.8 8.9q0.5 0.2 1 0.5c5.3 2.7 10.5 5.7 15.7 8.7q3.2 1.9 6.5 3.8 1.3 0.7 2.6 1.5 0.6 0.4 1.3 0.8 2 1.1 3.9 2.2 0.6 0.4 1.3 0.8 1.3 0.7 2.6 1.4 3.3 1.9 6.5 3.8 0.7 0.4 1.3 0.8 1.3 0.7 2.6 1.5 3.3 1.9 6.6 3.8 0.7 0.4 1.3 0.8 1.3 0.8 2.5 1.5 0.6 0.4 1.1 0.7c0.5 0.3 0.5 0.3 1 0.6 1.3 0.5 2.1 0.4 3.4 0 1-0.5 1-0.5 2-1.1q0.5-0.3 1.1-0.6c0.6-0.4 0.6-0.4 1.2-0.7q1.3-0.8 2.6-1.6 0.7-0.4 1.3-0.8 3.3-1.9 6.6-3.8 1.3-0.7 2.6-1.5 0.6-0.4 1.3-0.7 3.2-1.9 6.5-3.8 1.3-0.8 2.6-1.5 0.6-0.4 1.3-0.7 2-1.2 3.9-2.3 0.6-0.4 1.3-0.8 1.3-0.7 2.6-1.4 3.3-1.9 6.6-3.9c4.1-2.3 8.1-4.7 12.3-6.9q0.5-0.2 1-0.5 2.8-1.4 5.6-2.6c0.9-0.4 0.9-0.4 1.9-1.1 1.1-0.6 2.1-0.9 3.4-1.2 1.6-0.5 3.1-1.1 4.6-1.9 2.6-1.3 5.3-2 8.1-2.8q1.7-0.5 3.4-1 1.3-0.4 2.6-0.8 0.7-0.2 1.5-0.5c4.5-1.3 8.9-2.1 13.5-2.8q1.8-0.3 3.5-0.6c6.3-1 12.4-1.4 18.8-1.3q0.6 0 1.2 0 3.4 0 6.9 0 1.4 0 2.8 0c7.3 0.1 14.2 0.8 21.4 2.2 1.3 0.2 2.7 0.4 4 0.5 6.4 0.8 12.9 3.6 19 5.6q1.3 0.4 2.6 0.9c5.3 1.7 10.4 3.7 15.4 6.3q1.7 0.8 3.3 1.7c8.1 4 15.8 8.6 23 14.2q1.1 0.9 2.1 1.7c4.2 3.2 8.3 6.5 11.9 10.2 0.7 0.7 1.4 1.4 2.2 2 1.6 1.4 3.1 2.9 4.6 4.5 0.4 0.4 0.4 0.4 0.8 0.9 6.3 6.8 12.1 14.2 17.1 22.1q0.3 0.4 0.5 0.9c7.7 12.2 15.5 26.6 18.5 40.9 0.2 1.1 0.6 2.2 1 3.4 0.8 2.8 1.4 5.6 2 8.5q0.2 0.8 0.3 1.6 0.3 1.5 0.6 3 0.4 1.6 0.7 3.1c0.7 3.6 1 7.1 1.2 10.7 0.1 0.4 0.1 0.4 0.1 0.8 0.3 5.7 0.4 11.4 0.4 17.2q0 1.6 0 3.2 0 3.4 0 6.9 0 5.1 0 10.3 0 9.7 0 19.4 0 7.5 0 15 0 2.2 0 4.3 0 0.6 0 1.1 0 15.1 0 30.3 0 0.5 0 1.1 0 2.9 0 5.8c0 0.5 0 0.5 0 1.1q0 1.2 0 2.3 0 18.1 0.1 36.1 0 20.3 0 40.6 0 2.1 0 4.3c0 0.5 0 0.5 0 1.1q0 8.5 0 17.1 0 8.6 0 17.2 0 5.1 0 10.2 0 3.4 0 6.8 0 2 0 3.9c0 10.8-2 19.2-9.5 27.2-5.1 4.9-12 8.1-19.1 8.2q-0.4 0-0.8 0c-7.4 0.4-12.9-1.6-19.2-5.2q-0.4-0.3-0.9-0.5-2.4-1.4-4.7-2.7-3.1-1.9-6.2-3.6-4.3-2.4-8.4-4.9-3.3-1.9-6.6-3.8-5.3-3-10.6-6.1-3.1-1.8-6.2-3.6-3.7-2.1-7.4-4.3-6.7-3.9-13.4-7.7-6.4-3.6-12.8-7.4-2.5-1.5-5-2.9-3.8-2.2-7.6-4.4-6.7-3.9-13.4-7.7-6.4-3.6-12.8-7.4-2.5-1.5-5-2.9-3.8-2.2-7.6-4.4-6.7-3.9-13.4-7.7-6.4-3.6-12.8-7.4-2.5-1.5-5-2.9-3.8-2.2-7.6-4.4-6.7-3.9-13.4-7.7c-4.2-2.4-8.4-4.8-12.6-7.3q-3.3-1.9-6.6-3.8-4.7-2.7-9.4-5.4-4.7-2.8-9.4-5.5c-4.3-2.4-8.6-4.8-12.8-7.3q-0.4-0.3-0.9-0.5-1.9-1.1-3.7-2.3-0.6-0.4-1.3-0.8c-0.5-0.3-0.5-0.3-1.1-0.7-1.3-0.5-2-0.4-3.4 0-1 0.5-1.9 1.1-2.9 1.7q-0.9 0.5-1.8 1-0.5 0.3-1 0.7-3 1.7-6.1 3.5-1.3 0.8-2.7 1.5-0.6 0.4-1.3 0.8-3.3 1.9-6.6 3.8-1.3 0.8-2.6 1.5c-0.6 0.4-0.6 0.4-1.3 0.8-3.9 2.2-3.9 2.2-5.2 3q-1.3 0.7-2.6 1.4-3.3 1.9-6.5 3.8-6.3 3.6-12.5 7.3-5.6 3.2-11.2 6.4-5.5 3.1-10.9 6.3-6.3 3.7-12.7 7.3-3.2 1.9-6.5 3.8-1.3 0.8-2.6 1.5c-0.6 0.4-0.6 0.4-1.3 0.8-76.7 44.2-76.7 44.2-78 45q-1.3 0.7-2.6 1.4-3.3 1.9-6.5 3.8-6.3 3.6-12.5 7.3-5.6 3.2-11.2 6.4-4.9 2.8-9.7 5.6-7.6 4.4-15.2 8.8-0.6 0.4-1.3 0.7-1.9 1.1-3.7 2.2c-0.6 0.3-0.6 0.3-1.1 0.6-7.8 4.4-15.9 6-24.7 3.7-8.7-2.4-14.6-7.9-19.1-15.6-3.6-6.6-3.5-13.2-3.5-20.5q0-1.6 0-3.2 0-3.4 0-6.9 0-5.1 0-10.3 0-8.6 0-17.3 0-8.5 0-17.1 0-0.5 0-1.1 0-2.1 0-4.3 0-20.3 0-40.7 0.1-18 0.1-36 0-1.2 0-2.3 0-0.6 0-1.2 0-2.9 0-5.7 0-0.6 0-1.2 0-15.1 0-30.2 0-0.5 0-1.1 0-2.1 0-4.3 0-7.5 0-15 0-9.6 0-19.3 0-5.1 0-10.2 0-3.4 0-6.9 0-1.9 0-3.8c0-5.5 0.1-11 0.5-16.4q0-0.8 0.1-1.6c0.2-4.1 0.8-8.1 1.6-12.1q0.2-1 0.4-1.9c2-10.2 2-10.2 3.5-14.1 0.4-0.9 0.6-1.9 0.9-2.9 0.6-2.4 1.4-4.8 2.3-7.2q0.1-0.5 0.3-1.1c7.2-19.2 18.1-37.2 32-52.3q1.1-1.3 2.3-2.6c2.8-3.3 6-6.4 9.4-9.2q0.6-0.5 1.2-1.1c11.6-10.1 24.9-18.5 38.9-24.8 1.1-0.5 2-1 3.1-1.6 1.4-0.8 2.8-1.3 4.4-1.7q1-0.5 2-0.9c2.2-1 4.3-1.7 6.6-2.3 1-0.3 2-0.6 3-1 2.5-0.8 5-1.4 7.5-2q0.7-0.2 1.4-0.4 2.2-0.5 4.3-1 0.7-0.2 1.4-0.3c2.7-0.7 5.3-1.2 8.1-1.5q0.5-0.1 1-0.2 1.1-0.1 2.2-0.2 1.4-0.2 2.8-0.4c4.5-0.6 9-0.7 13.6-0.7z"/><path class="a" d="m709.6 342q0.3 0.2 0.6 0.5c7.3 6 14 12.5 19.7 20q0.8 1.1 1.6 2.1c5.2 6.6 9.4 13.9 12.9 21.4 0.3 0.7 0.3 0.7 0.7 1.3 4.1 8.4 6.8 17.3 8.9 26.3q0.1 0.5 0.3 1.1c2.3 9.8 2.7 19.9 2.6 29.9q0 1.6 0 3.2 0.1 3.3 0 6.7 0 5.1 0 10.1 0 8.5 0 16.9 0 8.4 0 16.8 0 0.5 0 1 0 2.7 0 5.4 0 18.7 0 37.5 0 18.2 0 36.4 0 0.6 0 1.1 0 5.7 0 11.3 0 11.5 0 23 0 0.6 0 1.1-0.1 35.3-0.1 70.5-0.6-0.3-1.2-0.7-0.7-0.4-1.5-0.8-0.4-0.3-0.8-0.5-2.7-1.5-5.5-3c-3.6-2.1-7.2-4.2-10.9-6.3q-3.8-2.3-7.7-4.5-0.6-0.3-1.3-0.7-1.3-0.8-2.6-1.5-3.2-1.9-6.5-3.8-1.3-0.8-2.6-1.5-44.2-25.5-88.4-51-0.6-0.4-1.3-0.8-1.3-0.7-2.6-1.4-3.3-1.9-6.5-3.8-6.3-3.6-12.5-7.3-5.3-3-10.5-6-5.8-3.3-11.6-6.7-6.3-3.7-12.7-7.3-3.2-1.9-6.5-3.8-1.3-0.8-2.6-1.5c-5.2-3-5.2-3-6.5-3.8q-1.3-0.7-2.6-1.4-3-1.8-6-3.5c-6.9-4-6.9-4-13.9-8 1-1.1 2.1-1.8 3.4-2.5q0.7-0.4 1.4-0.8c0.4-0.2 0.4-0.2 0.7-0.4q1.9-1.1 3.9-2.2 0.3-0.2 0.7-0.4 3.6-2 7.1-4.1 5.2-3 10.4-6 5.8-3.3 11.6-6.7 6.3-3.7 12.7-7.3 3.2-1.9 6.5-3.8 1.3-0.8 2.6-1.5c0.6-0.4 0.6-0.4 1.3-0.7 45.5-26.3 45.5-26.3 46.8-27.1q1.3-0.7 2.6-1.4 3.3-2 6.6-3.9 3.3-1.8 6.5-3.7 1.6-1 3.2-1.9c3-1.7 5.9-3.3 8.4-5.6q0.4-0.4 0.9-0.8c5.1-4.7 8.6-11.6 9.2-18.5 0.1-6.3-0.3-11.8-3.3-17.5-0.3-0.5-0.3-0.5-0.5-1-3-5.3-7.4-9.2-12.6-12.2q-0.6-0.3-1.2-0.7-1.8-1-3.7-2.1-1.3-0.7-2.5-1.5-3.3-1.9-6.6-3.7-3.2-1.9-6.5-3.8-1.3-0.8-2.6-1.5-33.8-19.5-67.6-39-0.6-0.4-1.3-0.8-1.3-0.7-2.6-1.4-3.3-1.9-6.5-3.8-6.9-4-13.7-8-3.4-1.9-6.8-3.8-0.4-0.3-0.8-0.5-1.9-1.1-3.8-2.1-0.6-0.4-1.3-0.8-0.7-0.4-1.3-0.7c-0.9-0.6-0.9-0.6-1.3-1.4 0.4-0.2 0.4-0.2 0.8-0.5 6.7-3.7 6.7-3.7 13.4-7.5q4.4-2.7 8.9-5.2 3.4-2 6.7-3.9c15.3-9 31.1-15.3 48.6-18.1q0.6-0.1 1.2-0.2c34.5-5.3 71.1 5 98 27z"/><path class="a" d="m369.8 313.9c0.6 0 0.6 0 1.2 0 6.3 0 12.4 0.3 18.6 1.3 0.6 0.1 0.6 0.1 1.3 0.2 17.9 2.9 34 9.8 49.5 19.1q3.1 1.8 6.3 3.7 1.4 0.7 2.7 1.5 0.6 0.3 1.3 0.7 2 1.2 4.1 2.4 6.6 3.8 13.2 7.6c-1 1.1-2.1 1.8-3.4 2.5q-0.7 0.4-1.4 0.8c-0.4 0.2-0.4 0.2-0.7 0.4q-1.9 1.1-3.9 2.2-0.3 0.2-0.7 0.4-3.6 2-7.2 4.1-6.9 4.1-13.8 8-3.2 1.9-6.5 3.8-1.3 0.8-2.6 1.5-0.6 0.4-1.3 0.8c-66.3 38.2-66.3 38.2-67.6 39q-1.3 0.7-2.6 1.4-3.3 2-6.6 3.9-3.3 1.8-6.5 3.7-1.6 1-3.2 1.9c-6.2 3.5-11.2 7.3-14.8 13.6q-0.2 0.4-0.5 0.8c-3.5 6.4-4.2 14.7-2.4 21.7q0.4 1.4 0.9 2.7 0.2 0.5 0.3 1.1c2.3 6.5 7.7 11.9 13.6 15.2q1.6 0.9 3.2 1.8 3 1.8 6 3.5 3.7 2.1 7.3 4.2 3.9 2.3 7.8 4.5 6.3 3.6 12.6 7.3 5.2 3 10.4 6 5.8 3.3 11.6 6.7 6.3 3.7 12.7 7.3 3.2 1.9 6.5 3.8 1.3 0.8 2.6 1.5 13 7.5 26 15 0.6 0.4 1.3 0.8 1.3 0.7 2.6 1.4 3.3 2 6.7 3.9c4.5 2.6 9.1 5.3 13.6 8-1.3 1.1-2.6 2-4 2.8q-0.6 0.3-1.2 0.6-0.7 0.4-1.3 0.8-5.2 2.8-10.3 5.8-5 2.9-10 5.8-0.6 0.3-1.3 0.7-1.3 0.8-2.6 1.5-3.2 1.9-6.5 3.8-1.3 0.8-2.6 1.5c-0.6 0.4-0.6 0.4-1.3 0.8-66.3 38.2-66.3 38.2-67.6 39q-1.3 0.7-2.6 1.4-3.3 1.9-6.5 3.8-6.3 3.6-12.5 7.3-5.6 3.2-11.2 6.4-5.5 3.1-10.9 6.3-6.3 3.7-12.7 7.3-3.2 1.9-6.5 3.8-1.3 0.8-2.6 1.5-0.6 0.4-1.3 0.8-12.3 7.1-24.7 14.2-0.6 0.4-1.3 0.8-1.3 0.7-2.6 1.4-4 2.4-8 4.7-2 1.1-4 2.3-2.1 1.2-4.2 2.4-0.7 0.4-1.5 0.9c-0.6 0.3-0.6 0.3-1.3 0.7-0.9 0.5-0.9 0.5-1.7 0.5q0-35.7-0.1-71.5 0-0.5 0-1 0-11.5 0-23 0-5.7 0-11.3 0-0.6 0-1.2 0-18.1 0-36.3 0-18.7 0-37.4 0-2.7 0-5.3 0-0.5 0-1.1 0-8.3 0-16.7 0-8.4 0-16.8 0-5 0-10-0.1-3.3 0-6.7 0-1.9 0-3.8c-0.1-21 4.2-41.7 14.1-60.4q0.6-1.1 1.2-2.2c4.6-9 10.7-17.3 17.5-24.7q0.9-1 1.7-1.9c4.4-5.1 9.4-9.5 14.8-13.5q0.7-0.5 1.4-1.1c22-16.5 48.6-25.4 76-25.4z"/><path class="b" d="m500.6 369.4c2 0.8 3.8 2 5.7 3.1q1.3 0.7 2.6 1.5 0.7 0.4 1.3 0.8 3.3 1.9 6.5 3.8 1.4 0.7 2.7 1.5c0.6 0.4 0.6 0.4 1.3 0.7q3.2 1.9 6.5 3.8 1.3 0.8 2.6 1.5c44.2 25.5 44.2 25.5 88.4 51q0.6 0.4 1.3 0.8 1.3 0.7 2.6 1.4 3.3 1.9 6.6 3.8 8.3 4.8 16.5 9.7c-0.6 1.7-1.9 2.1-3.4 2.9q-1 0.6-2 1.1c-0.5 0.3-0.5 0.3-1.1 0.6-1.9 1-3.8 2.2-5.7 3.3q-5.1 2.9-10.2 5.9-0.6 0.3-1.3 0.7-1.3 0.8-2.6 1.5-3.2 1.9-6.5 3.8-1.3 0.8-2.6 1.5-0.6 0.4-1.3 0.8c-76.7 44.2-76.7 44.2-78 45q-1.3 0.7-2.6 1.4-3.3 1.9-6.5 3.8-7.1 4.1-14.2 8.2-1.1 0.7-2.2 1.3-1 0.6-2 1.2-0.4 0.3-0.9 0.6-0.4 0.3-0.8 0.5c-1.6 0.5-2.9-0.3-4.4-1-0.5-0.4-0.5-0.4-1-0.7q-0.7-0.3-1.3-0.7-0.6-0.4-1.3-0.8-0.7-0.4-1.4-0.8-1.4-0.8-2.9-1.7-3.3-1.9-6.7-3.8-4.9-2.9-9.8-5.8-5.3-3-10.5-6-5.8-3.3-11.6-6.7-6.3-3.7-12.7-7.3-3.2-1.9-6.5-3.8-1.3-0.8-2.6-1.5c-23.4-13.5-23.4-13.5-46.8-27q-0.6-0.4-1.3-0.8-1.3-0.7-2.6-1.4-3.3-1.9-6.6-3.8-8.3-4.8-16.5-9.7c0.5-1.5 0.9-1.6 2.3-2.3q0.6-0.4 1.2-0.7 0.7-0.4 1.3-0.7 1.4-0.8 2.8-1.5 0.3-0.2 0.7-0.4 3.5-2 6.9-4 1.2-0.7 2.4-1.4 0.6-0.3 1.2-0.7 3.2-1.8 6.4-3.7 0.6-0.3 1.3-0.7 1.3-0.8 2.6-1.5 3.2-1.9 6.5-3.8 1.3-0.8 2.6-1.5c0.6-0.4 0.6-0.4 1.3-0.7 76.7-44.3 76.7-44.3 78-45.1q1.3-0.7 2.6-1.4 3.3-1.9 6.5-3.8 7.3-4.2 14.4-8.4c0.6-0.3 0.6-0.3 1.2-0.6q0.5-0.3 1-0.6c1.5-0.9 1.5-0.9 2.6-0.7z"/><path class="c" d="m286.8 344.8q0.4 0.2 0.8 0.4c-4.4 4.4-8.7 8.7-13.2 13.2 0-1.2 0-1.2 0.5-1.8q0.4-0.3 0.7-0.7c1.1-1 2.1-2 3-3.1 2.1-2.4 4.3-4.5 6.7-6.6q0.8-0.7 1.5-1.4z"/></svg>