<?xml version="1.0" encoding="utf-8"?>
<!-- Generator: Adobe Illustrator 23.1.1, SVG Export Plug-In . SVG Version: 6.00 Build 0)  -->
<svg version="1.1" id="Layer_1" xmlns="http://www.w3.org/2000/svg" xmlns:xlink="http://www.w3.org/1999/xlink" x="0px" y="0px"
	 viewBox="0 0 100 100" style="enable-background:new 0 0 100 100;" xml:space="preserve">
<style type="text/css">
	.st0{fill:#FFFFFF;}
</style>
<circle class="st0" cx="50" cy="50" r="48.5"/>
<g>
	<g>
		<polygon points="47.5,51.4 52.1,51.4 52.1,48.5 47.6,48.4 		"/>
		<path d="M79.5,27.5c-4.2-4.3-10.4-6.5-18-6.5c-5,0-7.9,1.5-10.4,4.4C48.6,28.4,48,32.3,48,35l-0.1,7.8l4.3,0.1l0.1-7.8
			c0-2,0.7-3.9,1.8-5.4c1.2-1.5,2.8-2.3,4.6-2.3h0.1c2.1,0,3.7,0.5,4.7,1.4c1.2,0.9,1.8,2.4,1.7,4.3c0,1.9-0.8,3.7-2.2,5
			c-1.4,1.4-3.2,2.1-5.2,2l-4.2-0.1v2.7l4.2,0.1c0.1,0,0.1,0,0.2,0c5.4,0,9.8-4.3,9.9-9.7c0-1.3-0.2-2.6-0.7-3.8L67,29l0.3,0.4
			c1.4,1.7,2.1,3.9,2.1,6.1c-0.1,5-4.2,9.1-9.4,9.1c-0.1,0-0.1,0-0.2,0l-7.8-0.1l-4.4-0.1l-12.1-0.2c-0.1,0-0.2,0-0.3,0
			c-4.2,0-8.2,1.6-11.3,4.5c-3.2,3-4.9,7-4.9,11.5c0,2.5,0.4,4.9,1.6,7.2l-0.1,0.1c-2-2.7-3-6-2.9-9.5c0.1-4.2,1.8-8.1,4.8-11
			s6.9-4.5,11.1-4.4l12.7,0.2v-2.7l-12.7-0.2c-0.1,0-0.2,0-0.3,0c-4.8,0-9.3,1.8-12.7,5.2c-3.6,3.4-5.6,8-5.7,12.9
			c-0.1,6.1,1.8,11.5,5.4,15.1c3.9,4,9.6,6,16.9,6c4.9,0,8.7-1.5,11.4-4.5c2-2.4,3.2-5.8,3.3-9.5l0.1-7.8l-4.3-0.1L47.5,65
			c0,2-0.7,3.9-1.8,5.4c-1.3,1.6-2.8,2.3-4.7,2.3c-2.1,0-3.7-0.5-4.7-1.4c-1.2-0.9-1.8-2.4-1.7-4.3c0.1-3.9,3.3-7,7.2-7h0.1L46,60
			v-2.7l-4.2-0.1c-0.1,0-0.1,0-0.2,0c-5.4,0-9.8,4.3-9.9,9.7c0,1.3,0.2,2.6,0.7,3.8l0.2,0.4l-0.3-0.4c-1.4-1.7-2.1-3.9-2.1-6.1
			c0.1-5,4.2-9.1,9.4-9.1c0.1,0,0.1,0,0.2,0l7.8,0.1l4.4,0.1l12.1,0.2c0.1,0,0.2,0,0.3,0c8.8,0,16.1-7.2,16.3-16
			c0-2.5-0.4-4.9-1.6-7.2l0.1-0.1c2,2.7,3,6,2.9,9.5c-0.1,4.2-1.8,8.1-4.8,11c-3,2.9-7,4.5-11.1,4.4l-12.7-0.2V60l12.7,0.2
			c0.1,0,0.2,0,0.3,0c4.8,0,9.7-1.9,13.4-5.2c4-3.5,5.2-8.1,5.3-12.9C85.2,36.5,83.2,31.2,79.5,27.5z M64.3,53.1c-0.1,0-0.2,0-0.2,0
			L52,52.9l-4.4-0.1l-7.8-0.1c-0.1,0-0.1,0-0.2,0c-3.2,0-6.1,1.2-8.3,3.4c-2.3,2.2-3.6,5.3-3.7,8.4c0,1.7,0.3,3.4,0.9,4.9l0.2,0.5
			l-0.4-0.5c-1.6-2.1-2.4-4.5-2.4-7.2C26,56,31.2,51,37.4,51c0.1,0,0.1,0,0.2,0l8.4,0.1v-2.7l-8.4-0.1c-0.1,0-0.2,0-0.2,0
			c-7.7,0-14,6.2-14.1,13.9c0,2.1,0.4,4.1,1.3,6.1l0.3,0.6l-0.4-0.6c-1.8-2.4-2.7-5.3-2.6-8.3c0.1-7.4,6.2-13.4,13.6-13.4
			c0.1,0,0.2,0,0.2,0l12.2,0.2l4.3,0.1h0.1L60,47c0.1,0,0.1,0,0.2,0c3.2,0,6.1-1.2,8.3-3.4c2.3-2.2,3.6-5.3,3.7-8.4
			c0-1.7-0.3-3.4-0.9-4.9L71,29.8l0.4,0.5c1.6,2.1,2.4,4.5,2.4,7.2c0,3-1.3,5.9-3.5,8c-2.1,2.1-4.9,3.3-8,3.3c-0.1,0-0.1,0-0.2,0
			l-8.4-0.1v2.7l8.4,0.1c0.1,0,0.2,0,0.2,0c3.7,0,7.2-1.4,9.8-4c2.7-2.6,4.2-6.1,4.3-9.9c0-2.1-0.4-4.1-1.3-6.1l-0.3-0.6l0.4,0.6
			c1.8,2.4,2.7,5.3,2.6,8.3C77.8,47.1,71.7,53.1,64.3,53.1z"/>
	</g>
</g>
</svg>
