<?xml version="1.0" encoding="utf-8"?>
<!-- Generator: Adobe Illustrator 23.0.1, SVG Export Plug-In . SVG Version: 6.00 Build 0)  -->
<svg version="1.1" xmlns="http://www.w3.org/2000/svg" xmlns:xlink="http://www.w3.org/1999/xlink" x="0px" y="0px"
	 viewBox="0 0 454.4 247.1" style="enable-background:new 0 0 454.4 247.1;" xml:space="preserve">
<style type="text/css">
	.st0{display:none;}
	.st1{display:inline;}
</style>
<g id="Layer_1" class="st0">
	<g class="st1">
		<path d="M237.3,179.6v30.9c0,3.2-1.6,4.1-2.6,4.4c-0.3,0.1-0.5,0.1-0.8,0.1c-1.7,0-3.2-1.4-4.1-2.9c-1.7-3-3.7-6.8-5.6-10.5
			c-0.7-1.2-1.3-2.4-1.9-3.6c-2.7-5-4.9-9.2-6.7-12.4c0,0,0,19.2,0,24s-4.4,5-4.4,5v-30.9c0-3.2,1.6-4.1,2.6-4.4
			c2-0.5,3.9,1,4.9,2.8c1.9,3.4,4.5,8.1,7.5,13.9c0.6,1.2,1.3,2.4,1.9,3.6c1.6,3.2,3.3,6.4,4.8,9.1c0,0,0-20.9,0-24.9
			S237.3,179.6,237.3,179.6z M266.9,203.1c0,6.5-5.2,11.7-11.7,11.7s-11.7-5.3-11.7-11.7c0-6.5,5.3-11.7,11.7-11.7
			C261.6,191.4,266.9,196.6,266.9,203.1z M262.5,203c0-4-3.3-7.3-7.3-7.3s-7.3,3.3-7.3,7.3s3.3,7.3,7.3,7.3
			C259.2,210.3,262.5,207,262.5,203z M296.1,183.9c0,0.7,0,1.7,0,3c0,0,0,0.1,0,0.2c0,0.9,0,2,0,3.1c0,0.3,0,0.7,0,1
			c0,3.8,0,4.9,0,5.2v0.1v1.1v6.2v6.9v4.7c0,0-4.4,0.1-4.4-4.4c0-0.1,0-0.2,0-0.3c-2.1,2.4-5.3,4-8.8,4c-6.5,0-11.7-5.3-11.7-11.7
			c0-6.5,5.3-11.7,11.7-11.7c3.5,0,6.7,1.5,8.8,4v-4.1v-1v-10.8C291.7,179.4,296.1,179.3,296.1,183.9z M290.2,203
			c0-4-3.3-7.3-7.3-7.3s-7.3,3.3-7.3,7.3s3.3,7.3,7.3,7.3S290.2,207,290.2,203z M303.8,179.4v10.8v13.7c0,2.8,0,5.9,0,7.1
			c0,4.5,4.4,4.4,4.4,4.4v-11.5c0,0,0-6.2,0-13.7c0-2.8,0-5.2,0-6.4C308.2,179.3,303.8,179.4,303.8,179.4z M329.8,207.5l3.1,3.1
			c-2.2,2.1-5.1,3.4-8.3,3.4c-6.5,0-11.7-5.3-11.7-11.7c0-6.5,5.3-11.7,11.7-11.7c6.5,0,11.7,5.3,11.7,11.7l0.1,2.2h-18.6
			c0.9,3,3.7,5.1,6.9,5.1C326.7,209.6,328.5,208.8,329.8,207.5z M317.6,200.1h13.9c-0.9-3-3.7-5.1-6.9-5.1
			C321.3,195,318.6,197.2,317.6,200.1z M154.5,194.2l4.6,0.1v-3l-4.5-0.1L154.5,194.2z M185.1,171.4c3.5,3.6,5.4,8.5,5.3,13.9
			c-0.1,4.6-1.2,9-5,12.3c-3.5,3.1-8.1,4.9-12.7,4.9c-0.1,0-0.2,0-0.3,0l-12.1-0.2v-2.6l12.1,0.2c3.9,0.1,7.7-1.4,10.6-4.2
			c2.9-2.8,4.5-6.5,4.6-10.5c0.1-3.3-0.9-6.4-2.8-9l-0.1,0.1c1.1,2.1,1.5,4.4,1.5,6.8c-0.2,8.4-7.1,15.2-15.5,15.2
			c-0.1,0-0.2,0-0.3,0l-11.5-0.2l-4.2-0.1l-7.4-0.1c-0.1,0-0.1,0-0.2,0c-4.9,0-8.8,3.9-8.9,8.7c0,2.1,0.7,4.2,2,5.8l0.3,0.4
			l-0.2-0.4c-0.5-1.1-0.7-2.4-0.7-3.6c0.1-5.1,4.3-9.2,9.4-9.2c0.1,0,0.1,0,0.2,0l4,0.1v2.6l-4-0.1h-0.1c-3.7,0-6.7,3-6.8,6.7
			c-0.1,1.8,0.5,3.2,1.6,4.1c1,0.8,2.5,1.3,4.5,1.3c1.8,0,3.3-0.7,4.5-2.2c1-1.4,1.7-3.2,1.7-5.1l0.1-7.4l4.1,0.1l-0.1,7.4
			c-0.1,3.5-1.2,6.7-3.1,9c-2.5,2.9-6.1,4.3-10.8,4.3c-7,0-12.4-1.9-16.1-5.7c-3.4-3.5-5.2-8.6-5.1-14.4c0.1-4.7,2-9.1,5.4-12.3
			c3.3-3.2,7.5-4.9,12.1-4.9c0.1,0,0.2,0,0.3,0l12.1,0.2v2.6l-12.1-0.2c-4-0.1-7.7,1.4-10.6,4.2c-2.9,2.8-4.5,6.5-4.6,10.5
			c-0.1,3.3,0.9,6.4,2.8,9l0.1-0.1c-1.1-2.1-1.5-4.4-1.5-6.8c0-4.2,1.7-8,4.7-10.9c2.9-2.8,6.7-4.3,10.7-4.3c0.1,0,0.2,0,0.3,0
			l11.5,0.2l4.2,0.1l7.4,0.1c0.1,0,0.1,0,0.2,0c4.9,0,8.8-3.9,8.9-8.7c0-2.1-0.7-4.2-2-5.8l-0.3-0.4l0.2,0.4
			c0.5,1.1,0.7,2.4,0.7,3.6c-0.1,5.1-4.3,9.2-9.4,9.2c-0.1,0-0.1,0-0.2,0l-4-0.1v-2.6l4,0.1c1.9,0.1,3.6-0.6,4.9-1.9
			c1.3-1.3,2.1-3,2.1-4.8c0.1-1.8-0.5-3.2-1.6-4.1c-1-0.8-2.5-1.3-4.5-1.3h-0.1c-1.7,0-3.3,0.8-4.4,2.2c-1,1.4-1.7,3.2-1.7,5.1
			l-0.1,7.4l-4.1-0.1l0.1-7.4c0-2.6,0.6-6.3,3-9.1c2.4-2.8,5.1-4.2,9.9-4.2C175.2,165.2,181.1,167.3,185.1,171.4z M183.6,183.1
			c0.1-2.9-0.8-5.6-2.5-7.9l-0.4-0.6l0.3,0.6c0.8,1.9,1.2,3.8,1.2,5.8c-0.1,3.6-1.5,6.9-4.1,9.4c-2.5,2.5-5.8,3.8-9.3,3.8
			c0,0-0.1,0-0.2,0l-8-0.1v-2.6l8,0.1c0.1,0,0.1,0,0.2,0c2.9,0,5.6-1.1,7.6-3.1c2.1-2,3.3-4.7,3.3-7.6c0-2.5-0.8-4.8-2.3-6.8
			l-0.4-0.5l0.2,0.5c0.6,1.5,0.9,3.1,0.9,4.7c-0.1,3-1.3,5.9-3.5,8c-2.1,2.1-4.9,3.2-7.9,3.2c-0.1,0-0.1,0-0.2,0l-7.4-0.1H159
			l-4.1-0.1l-11.6-0.2c0,0-0.1,0-0.2,0c-7,0-12.8,5.7-12.9,12.7c-0.1,2.9,0.8,5.6,2.5,7.9l0.4,0.6l-0.3-0.6
			c-0.8-1.9-1.2-3.8-1.2-5.8c0.1-7.3,6.1-13.2,13.4-13.2c0,0,0.1,0,0.2,0l8,0.1v2.6l-8-0.1c-0.1,0-0.1,0-0.2,0
			c-5.9,0-10.8,4.8-10.9,10.7c0,2.5,0.8,4.8,2.3,6.8l0.4,0.5l-0.2-0.5c-0.6-1.5-0.9-3.1-0.9-4.7c0.1-3,1.3-5.9,3.5-8
			c2.1-2.1,4.9-3.2,7.9-3.2c0.1,0,0.1,0,0.2,0l7.4,0.1l4.2,0.1l11.5,0.2c0,0,0.1,0,0.2,0C177.6,195.8,183.4,190.1,183.6,183.1z"/>
	</g>
	<g id="Layer_1_copy" class="st1">
	</g>
</g>
<g id="Layer_2">
	<g>
		<polygon points="224.8,124.9 229.2,124.9 229.2,122.1 224.9,122 		"/>
		<path d="M255.3,102.2c-4-4.1-9.9-6.2-17.1-6.2c-4.8,0-7.5,1.4-9.9,4.2c-2.4,2.8-3,6.5-3,9.1l-0.1,7.4l4.1,0.1l0.1-7.4
			c0-1.9,0.7-3.7,1.7-5.1c1.1-1.4,2.7-2.2,4.4-2.2h0.1c2,0,3.5,0.5,4.5,1.3c1.1,0.9,1.7,2.3,1.6,4.1c0,1.8-0.8,3.5-2.1,4.8
			s-3,2-4.9,1.9l-4-0.1v2.6l4,0.1c0.1,0,0.1,0,0.2,0c5.1,0,9.3-4.1,9.4-9.2c0-1.2-0.2-2.5-0.7-3.6l-0.2-0.4l0.3,0.4
			c1.3,1.6,2,3.7,2,5.8c-0.1,4.8-4,8.7-8.9,8.7c-0.1,0-0.1,0-0.2,0l-7.4-0.1l-4.2-0.1l-11.5-0.2c-0.1,0-0.2,0-0.3,0
			c-4,0-7.8,1.5-10.7,4.3c-3,2.9-4.7,6.7-4.7,10.9c0,2.4,0.4,4.7,1.5,6.8l-0.1,0.1c-1.9-2.6-2.9-5.7-2.8-9c0.1-4,1.7-7.7,4.6-10.5
			s6.6-4.3,10.6-4.2l12.1,0.2v-2.6l-12.1-0.2c-0.1,0-0.2,0-0.3,0c-4.6,0-8.8,1.7-12.1,4.9c-3.4,3.2-5.3,7.6-5.4,12.3
			c-0.1,5.8,1.7,10.9,5.1,14.4c3.7,3.8,9.1,5.7,16.1,5.7c4.7,0,8.3-1.4,10.8-4.3c1.9-2.3,3-5.5,3.1-9l0.1-7.4l-4.1-0.1l-0.1,7.4
			c0,1.9-0.7,3.7-1.7,5.1c-1.2,1.5-2.7,2.2-4.5,2.2c-2,0-3.5-0.5-4.5-1.3c-1.1-0.9-1.7-2.3-1.6-4.1c0.1-3.7,3.1-6.7,6.8-6.7h0.1
			l4,0.1v-2.6l-4-0.1c-0.1,0-0.1,0-0.2,0c-5.1,0-9.3,4.1-9.4,9.2c0,1.2,0.2,2.5,0.7,3.6l0.2,0.4l-0.3-0.4c-1.3-1.6-2-3.7-2-5.8
			c0.1-4.8,4-8.7,8.9-8.7c0.1,0,0.1,0,0.2,0l7.4,0.1l4.2,0.1l11.5,0.2c0.1,0,0.2,0,0.3,0c8.4,0,15.3-6.8,15.5-15.2
			c0-2.4-0.4-4.7-1.5-6.8l0.1-0.1c1.9,2.6,2.9,5.7,2.8,9c-0.1,4-1.7,7.7-4.6,10.5c-2.9,2.8-6.7,4.3-10.6,4.2l-12.1-0.2v2.6l12.1,0.2
			c0.1,0,0.2,0,0.3,0c4.6,0,9.2-1.8,12.7-4.9c3.8-3.3,4.9-7.7,5-12.3C260.7,110.7,258.8,105.7,255.3,102.2z M240.8,126.5
			c-0.1,0-0.2,0-0.2,0l-11.5-0.2l-4.2-0.1l-7.4-0.1c-0.1,0-0.1,0-0.2,0c-3,0-5.8,1.1-7.9,3.2c-2.2,2.1-3.4,5-3.5,8
			c0,1.6,0.3,3.2,0.9,4.7l0.2,0.5l-0.4-0.5c-1.5-2-2.3-4.3-2.3-6.8c0.1-5.9,5-10.7,10.9-10.7c0.1,0,0.1,0,0.2,0l8,0.1V122l-8-0.1
			c-0.1,0-0.2,0-0.2,0c-7.3,0-13.3,5.9-13.4,13.2c0,2,0.4,3.9,1.2,5.8l0.3,0.6l-0.4-0.6c-1.7-2.3-2.6-5-2.5-7.9
			c0.1-7,5.9-12.7,12.9-12.7c0.1,0,0.2,0,0.2,0l11.6,0.2l4.1,0.1h0.1l7.4,0.1c0.1,0,0.1,0,0.2,0c3,0,5.8-1.1,7.9-3.2
			c2.2-2.1,3.4-5,3.5-8c0-1.6-0.3-3.2-0.9-4.7l-0.2-0.5l0.4,0.5c1.5,2,2.3,4.3,2.3,6.8c0,2.9-1.2,5.6-3.3,7.6c-2,2-4.7,3.1-7.6,3.1
			c-0.1,0-0.1,0-0.2,0l-8-0.1v2.6l8,0.1c0.1,0,0.2,0,0.2,0c3.5,0,6.8-1.3,9.3-3.8c2.6-2.5,4-5.8,4.1-9.4c0-2-0.4-3.9-1.2-5.8
			l-0.3-0.6l0.4,0.6c1.7,2.3,2.6,5,2.5,7.9C253.6,120.8,247.8,126.5,240.8,126.5z"/>
	</g>
</g>
</svg>
