<?xml version="1.0" encoding="UTF-8"?>
<svg width="112px" height="112px" viewBox="0 0 112 112" version="1.1" xmlns="http://www.w3.org/2000/svg" xmlns:xlink="http://www.w3.org/1999/xlink">
    <title>编组 51</title>
    <g id="OmniBTC-官网" stroke="none" stroke-width="1" fill="none" fill-rule="evenodd">
        <g id="编组-51">
            <rect id="矩形" fill="#FFFFFF" x="0" y="0" width="112" height="112"></rect>
            <g id="编组-16" transform="translate(19.702107, 16.000000)">
                <path d="M14.6156618,55.6821809 L51.2517718,29.0644889 C57.2577762,24.7008713 65.6640157,26.0322888 70.0276333,32.0382932 C74.3912509,38.0442976 73.0598333,46.4505371 67.053829,50.8141546 L30.417719,77.4318466 C24.4117146,81.7954642 16.0054751,80.4640467 11.6418575,74.4580423 C7.27823993,68.452038 8.60965747,60.0457985 14.6156618,55.6821809 Z" id="矩形" fill="#7569E5"></path>
                <path d="M5.54195767,29.1858454 L42.1780677,2.56815337 C48.184072,-1.79546422 56.5903116,-0.464046684 60.9539291,5.54195767 C65.3175467,11.547962 63.9861292,19.9542015 57.9801248,24.3178191 L21.3440148,50.9355111 C15.3380105,55.2991287 6.93177095,53.9677112 2.56815337,47.9617068 C-1.79546422,41.9557024 -0.464046684,33.5494629 5.54195767,29.1858454 Z" id="矩形" fill="#48E8CC"></path>
                <polygon id="路径-4" fill="#FFFFFF" transform="translate(34.554657, 21.708970) rotate(9.000000) translate(-34.554657, -21.708970) " points="40.9944032 37.7171364 50.4076257 28.3712041 38.5329043 28.3712041 50.4076257 5.70080393 18.7016883 37.7171364"></polygon>
                <polygon id="路径-4" fill="#FFFFFF" transform="translate(38.038922, 58.426835) scale(-1, -1) rotate(9.000000) translate(-38.038922, -58.426835) " points="44.478668 74.435001 53.8918904 65.0890687 42.017169 65.0890687 53.8918904 42.4186685 22.185953 74.435001"></polygon>
            </g>
        </g>
    </g>
</svg>