<?xml version="1.0" encoding="UTF-8"?>
<svg width="232px" height="232px" viewBox="0 0 232 232" version="1.1" xmlns="http://www.w3.org/2000/svg" xmlns:xlink="http://www.w3.org/1999/xlink">
    <title>画板</title>
    <g id="画板" stroke="none" stroke-width="1" fill="none" fill-rule="evenodd">
        <g id="编组-2" transform="translate(11.000000, 26.000000)">
            <g id="编组-10" transform="translate(105.448360, 89.979093) rotate(-30.000000) translate(-105.448360, -89.979093) translate(12.785535, 39.579093)">
                <path d="M89.3748904,25.2287347 L92.6628247,25.212055 L92.6628247,25.212055 L95.9507591,25.2287347 L95.9507591,25.2287347 L99.2099081,25.2784052 L99.2099081,25.2784052 L102.438374,25.3605136 L102.438374,25.3605136 L105.63426,25.4745071 L105.63426,25.4745071 L108.795669,25.6198328 L108.795669,25.6198328 L111.920702,25.7959377 L111.920702,25.7959377 L115.007462,26.0022691 L115.007462,26.0022691 L118.054052,26.2382739 L118.054052,26.2382739 L121.058574,26.5033994 C121.555717,26.549983 122.051028,26.5977569 122.544467,26.6467096 L125.48233,26.9544793 L125.48233,26.9544793 L128.373382,27.2899875 C128.851218,27.3481863 129.327024,27.4075179 129.800761,27.4679707 L132.618038,27.8440498 L132.618038,27.8440498 L135.38376,28.2464851 C135.840312,28.3157233 136.294637,28.3860366 136.746695,28.4574135 L139.431527,28.8983465 L139.431527,28.8983465 L142.06006,29.3642534 L142.06006,29.3642534 L144.630396,29.8545814 L144.630396,29.8545814 L147.140639,30.3687777 L147.140639,30.3687777 L149.588891,30.9062892 L149.588891,30.9062892 L151.973254,31.4665632 C152.365219,31.5618084 152.754442,31.657979 153.140885,31.7550634 L155.425857,32.3484444 L155.425857,32.3484444 L157.642198,32.9632057 L157.642198,32.9632057 L159.788008,33.5987943 L159.788008,33.5987943 L161.861391,34.2546574 L161.861391,34.2546574 L163.860449,34.930242 C164.514204,35.1586624 165.155254,35.3902776 165.783285,35.6249954 L167.628002,36.3383645 C167.928839,36.45878 168.226342,36.579948 168.520472,36.7018572 L170.244451,37.4421134 C170.524928,37.566941 170.801953,37.6924866 171.075485,37.8187387 L172.674457,38.584638 L172.674457,38.584638 L174.18772,39.3669415 C181.291634,43.1868281 185.325649,47.5621737 185.325649,52.212055 C185.325649,58.3050028 178.399231,63.9265719 166.715527,68.4447224 L164.831514,69.1488528 L164.831514,69.1488528 L162.870329,69.8340909 L162.870329,69.8340909 L160.833871,70.4998838 L160.833871,70.4998838 L158.724038,71.1456788 C158.366389,71.2516141 158.005763,71.3566931 157.642198,71.4609042 L155.425857,72.0756655 C155.050695,72.1763594 154.672674,72.2761624 154.291832,72.3750631 L151.973254,72.9575467 C151.58129,73.0527918 151.186585,73.1471116 150.789178,73.2404944 L148.372633,73.7894563 L148.372633,73.7894563 L145.893148,74.3153794 L145.893148,74.3153794 L143.352621,74.8177106 L143.352621,74.8177106 L140.752949,75.2958972 L140.752949,75.2958972 L138.09603,75.7493862 L138.09603,75.7493862 L135.38376,76.1776248 L135.38376,76.1776248 L132.618038,76.5800602 L132.618038,76.5800602 L129.800761,76.9561393 C129.327024,77.016592 128.851218,77.0759236 128.373382,77.1341225 L125.48233,77.4696306 C124.996535,77.5232525 124.508789,77.5757185 124.019132,77.6270173 L121.058574,77.9207105 L121.058574,77.9207105 L118.054052,78.185836 C117.54974,78.2276122 117.043675,78.2681751 116.535897,78.3075131 L113.468984,78.5287503 C112.954511,78.5631426 112.438404,78.5962871 111.920702,78.6281722 L108.795669,78.8042771 L108.795669,78.8042771 L105.63426,78.9496028 L105.63426,78.9496028 L102.438374,79.0635963 L102.438374,79.0635963 L99.2099081,79.1457047 L99.2099081,79.1457047 L95.9507591,79.1953753 C95.4051161,79.2009198 94.8582737,79.2050897 94.3102715,79.2078735 L91.015378,79.2078735 L91.015378,79.2078735 L87.7415991,79.1746293 L87.7415991,79.1746293 L84.4975543,79.1086707 C83.9594634,79.0949821 83.4226905,79.0799535 82.8872751,79.0635963 L79.6913891,78.9496028 L79.6913891,78.9496028 L76.5299809,78.8042771 L76.5299809,78.8042771 L73.4049479,78.6281722 L73.4049479,78.6281722 L70.3181876,78.4218408 C69.8070224,78.3849641 69.2975309,78.346851 68.7897527,78.3075131 L65.7639592,78.0568788 L65.7639592,78.0568788 L62.7811822,77.7774003 C62.2877428,77.7284476 61.7961748,77.6783161 61.3065178,77.6270173 L58.391823,77.3053093 C57.9099679,77.2493874 57.4301027,77.1923213 56.9522671,77.1341225 L54.1099241,76.7714288 L54.1099241,76.7714288 L51.3181874,76.3821025 L51.3181874,76.3821025 L48.5789544,75.9666964 L48.5789544,75.9666964 L45.8941228,75.5257635 L45.8941228,75.5257635 L43.2655898,75.0598565 L43.2655898,75.0598565 L40.6952531,74.5695285 C40.2718187,74.4858028 39.8508883,74.4010826 39.4325013,74.3153794 L36.9530166,73.7894563 L36.9530166,73.7894563 L34.5364719,73.2404944 L34.5364719,73.2404944 L32.1847645,72.6690465 C31.4118791,72.4748777 30.6501162,72.2770533 29.899792,72.0756655 L27.6834519,71.4609042 L27.6834519,71.4609042 L25.5376415,70.8253156 C25.1859894,70.7176793 24.837355,70.6091982 24.491778,70.4998838 L22.4553201,69.8340909 L22.4553201,69.8340909 L20.4941358,69.1488528 L20.4941358,69.1488528 L18.6101224,68.4447224 L18.6101224,68.4447224 L16.8051775,67.7222527 C6.21650843,63.333522 0,57.9843214 0,52.212055 C0,48.2035366 2.99793038,44.399043 8.3761228,40.9785498 L9.71227376,40.1650964 C10.1726803,39.8964643 10.6480042,39.630382 11.1379293,39.3669415 L12.651192,38.584638 L12.651192,38.584638 L14.2501643,37.8187387 C14.5236967,37.6924866 14.8007213,37.566941 15.0811986,37.4421134 L16.8051775,36.7018572 C17.0993072,36.579948 17.3968105,36.45878 17.6976478,36.3383645 L19.5423641,35.6249954 C20.170395,35.3902776 20.8114457,35.1586624 21.4652002,34.930242 L23.4642585,34.2546574 L23.4642585,34.2546574 L25.5376415,33.5987943 L25.5376415,33.5987943 L27.6834519,32.9632057 L27.6834519,32.9632057 L29.899792,32.3484444 L29.899792,32.3484444 L32.1847645,31.7550634 C32.5712072,31.657979 32.9604305,31.5618084 33.3523949,31.4665632 L35.7367582,30.9062892 L35.7367582,30.9062892 L38.1850101,30.3687777 L38.1850101,30.3687777 L40.6952531,29.8545814 L40.6952531,29.8545814 L43.2655898,29.3642534 L43.2655898,29.3642534 L45.8941228,28.8983465 L45.8941228,28.8983465 L48.5789544,28.4574135 L48.5789544,28.4574135 L51.3181874,28.0420075 L51.3181874,28.0420075 L54.1099241,27.6526811 C54.5794835,27.5899974 55.0511514,27.5284234 55.5248884,27.4679707 L58.391823,27.1188006 L58.391823,27.1188006 L61.3065178,26.7970926 C61.7961748,26.7457938 62.2877428,26.6956623 62.7811822,26.6467096 L65.7639592,26.3672311 L65.7639592,26.3672311 L68.7897527,26.1165969 C69.2975309,26.0772589 69.8070224,26.0391458 70.3181876,26.0022691 L73.4049479,25.7959377 L73.4049479,25.7959377 L76.5299809,25.6198328 L76.5299809,25.6198328 L79.6913891,25.4745071 L79.6913891,25.4745071 L82.8872751,25.3605136 L82.8872751,25.3605136 L86.1157413,25.2784052 L86.1157413,25.2784052 L89.3748904,25.2287347 L89.3748904,25.2287347 Z M94.1933617,28.2756393 L91.1322877,28.2756393 L91.1322877,28.2756393 L88.0944987,28.3124373 L88.0944987,28.3124373 L85.0897931,28.3853418 L85.0897931,28.3853418 L82.1206146,28.4936311 L82.1206146,28.4936311 L79.1894072,28.6365836 L79.1894072,28.6365836 L76.2986148,28.8134779 C75.8203198,28.8457486 75.3438105,28.8794036 74.8691379,28.9144276 L72.0435503,29.1408814 L72.0435503,29.1408814 L69.2644873,29.3994729 C68.805323,29.4452095 68.348199,29.4922552 67.8931663,29.5405948 L65.1884727,29.8460398 L65.1884727,29.8460398 L62.5364136,30.1818185 L62.5364136,30.1818185 L59.9394327,30.5472094 L59.9394327,30.5472094 L57.3999741,30.9414908 L57.3999741,30.9414908 L54.9204815,31.3639411 C54.5123657,31.4366568 54.1068503,31.5105161 53.7039863,31.5855041 L51.3190252,32.0488548 C50.9269701,32.1282971 50.5376682,32.2088378 50.1511703,32.2904621 L47.8662394,32.7930897 C46.7410057,33.0507842 45.6419252,33.3179597 44.5703724,33.5942103 L42.464378,34.1586913 L42.464378,34.1586913 L40.4342349,34.7466508 C40.1023345,34.8465606 39.7736963,34.9474185 39.4483714,35.0492096 L37.5365878,35.671034 C26.3093252,39.4677259 19.5079631,44.434846 19.5079631,49.8710058 C19.5079631,55.3071655 26.3093252,60.2742856 37.5365878,64.0709775 L39.4483714,64.692802 C39.7736963,64.7945931 40.1023345,64.895451 40.4342349,64.9953607 L42.464378,65.5833202 L42.464378,65.5833202 L44.5703724,66.1478012 C45.2847409,66.3319683 46.011344,66.5121019 46.7497744,66.688082 L49.0001399,67.203441 C49.3809787,67.2872173 49.7646725,67.3699251 50.1511703,67.4515494 L52.503399,67.9281728 C52.9009095,68.0054029 53.3011222,68.0815195 53.7039863,68.1565074 L56.1525793,68.5927716 L56.1525793,68.5927716 L58.6623604,69.0012277 L58.6623604,69.0012277 L61.2308856,69.381154 C61.6637327,69.4420575 62.0989257,69.5017422 62.5364136,69.560193 L65.1884727,69.8959717 C65.6349367,69.9494271 66.0835937,70.0016186 66.534393,70.0525311 L69.2644873,70.3425386 L69.2644873,70.3425386 L72.0435503,70.6011301 C72.5106724,70.6415706 72.979733,70.680672 73.4506813,70.7184193 L76.2986148,70.9285336 C76.7769099,70.9608044 77.2569907,70.991691 77.7388064,71.0211784 L80.6501118,71.181192 C81.1386633,71.2050224 81.6288479,71.2274236 82.1206146,71.2483805 L85.0897931,71.3566698 L85.0897931,71.3566698 L88.0944987,71.4295742 L88.0944987,71.4295742 L91.1322877,71.4663722 C91.641207,71.4694562 92.151403,71.4710058 92.6628247,71.4710058 L95.7162389,71.4525316 C96.222554,71.4463936 96.7275416,71.4387361 97.2311507,71.4295742 L100.235856,71.3566698 L100.235856,71.3566698 L103.205035,71.2483805 L103.205035,71.2483805 L106.136242,71.1054279 C106.621477,71.078754 107.105027,71.0506658 107.586843,71.0211784 L110.456512,70.8275839 C110.931184,70.7925598 111.40402,70.7561666 111.874968,70.7184193 L114.677599,70.4758065 L114.677599,70.4758065 L117.432483,70.2014168 C117.887516,70.1530772 118.340457,70.1034436 118.791256,70.0525311 L121.469938,69.731829 C121.911965,69.6758609 122.351748,69.6186439 122.789236,69.560193 L125.386217,69.1948022 C125.814321,69.1314761 126.240029,69.0669463 126.663289,69.0012277 L129.17307,68.5927716 L129.17307,68.5927716 L131.621663,68.1565074 L131.621663,68.1565074 L134.006624,67.6931567 L134.006624,67.6931567 L136.32551,67.203441 L136.32551,67.203441 L138.575875,66.688082 C139.314305,66.5121019 140.040909,66.3319683 140.755277,66.1478012 L142.861271,65.5833202 L142.861271,65.5833202 L144.891414,64.9953607 C145.223315,64.895451 145.551953,64.7945931 145.877278,64.692802 L147.789062,64.0709775 C148.10093,63.9655139 148.409383,63.8591471 148.714371,63.7518922 L150.502296,63.0978265 C160.102653,59.443175 165.817686,54.8541522 165.817686,49.8710058 C165.817686,44.8878593 160.102653,40.2988365 150.502296,36.644185 L148.714371,35.9901193 C148.409383,35.8828644 148.10093,35.7764977 147.789062,35.671034 L145.877278,35.0492096 C145.551953,34.9474185 145.223315,34.8465606 144.891414,34.7466508 L142.861271,34.1586913 L142.861271,34.1586913 L140.755277,33.5942103 C140.040909,33.4100433 139.314305,33.2299096 138.575875,33.0539295 L136.32551,32.5385705 L136.32551,32.5385705 L134.006624,32.0488548 L134.006624,32.0488548 L131.621663,31.5855041 L131.621663,31.5855041 L129.17307,31.1492399 C128.759804,31.0788265 128.343989,31.0095718 127.925675,30.9414908 L125.386217,30.5472094 L125.386217,30.5472094 L122.789236,30.1818185 L122.789236,30.1818185 L120.137177,29.8460398 L120.137177,29.8460398 L117.432483,29.5405948 L117.432483,29.5405948 L114.677599,29.266205 C114.214405,29.2231014 113.749221,29.1813219 113.282099,29.1408814 L110.456512,28.9144276 C109.981839,28.8794036 109.50533,28.8457486 109.027035,28.8134779 L106.136242,28.6365836 L106.136242,28.6365836 L103.205035,28.4936311 L103.205035,28.4936311 L100.235856,28.3853418 L100.235856,28.3853418 L97.2311507,28.3124373 L97.2311507,28.3124373 L94.1933617,28.2756393 L94.1933617,28.2756393 Z" id="形状" fill="#48E8CC" opacity="0"></path>
                <path d="M92.6628247,0 C120.497976,0 143.062825,22.5648486 143.062825,50.4 C143.062825,59.7295463 140.527893,68.4670275 136.109222,75.9612502 C122.956662,78.0006704 108.557893,79.212055 92.6628247,79.212055 C91.188517,79.212055 89.9892727,80.8269362 88.8113015,82.5149506 L88.4397217,83.0486406 C87.2634169,84.7349684 86.0816703,86.3321402 84.6406913,86.298408 C95.915209,93.9251932 110.090723,94.2048539 127.167234,87.1373901 C118.149798,95.6098269 106.012426,100.8 92.6628247,100.8 C64.8276733,100.8 42.2628247,78.2351514 42.2628247,50.4 C42.2628247,22.5648486 64.8276733,0 92.6628247,0 Z" id="形状结合" fill="#7569E5"></path>
                <circle id="椭圆形" fill="#7569E5" cx="149.059429" cy="13.7603267" r="5.99660444"></circle>
                <circle id="椭圆形" fill="#7569E5" cx="45.2611269" cy="93.2509547" r="2.99830222"></circle>
                <circle id="椭圆形" fill="#7569E5" cx="29.1817553" cy="87.7306559" r="8.51860097"></circle>
            </g>
            <path d="M73.8685041,91.3830927 C86.2750288,91.3830927 96.3325041,101.440568 96.3325041,113.847093 L96.3325041,125.079093 L95.4685041,125.079093 C83.5391535,125.079093 73.8685041,115.408443 73.8685041,103.479093 L73.8685041,91.3830927 Z M120.180216,91.3830927 C129.48511,91.3830927 137.028216,98.9261992 137.028216,108.231093 C137.028216,117.535986 129.48511,125.079093 120.180216,125.079093 L100.524216,125.079093 L100.524216,109.635093 C100.524216,99.5547915 108.695915,91.3830927 118.776216,91.3830927 L120.180216,91.3830927 Z M96.3325041,54.8790927 L96.3325041,66.1110927 C96.3325041,78.283532 86.6509757,88.1947291 74.5681997,88.5644031 L73.8685041,88.5750927 L73.8685041,76.4790927 C73.8685041,64.5497421 83.5391535,54.8790927 95.4685041,54.8790927 L96.3325041,54.8790927 Z M120.180216,54.8790927 C129.48511,54.8790927 137.028216,62.4221992 137.028216,71.7270927 C137.028216,81.0319862 129.48511,88.5750927 120.180216,88.5750927 L118.776216,88.5750927 C108.695915,88.5750927 100.524216,80.403394 100.524216,70.3230927 L100.524216,54.8790927 L120.180216,54.8790927 Z" id="形状结合" fill="#FFFFFF"></path>
            <path d="M152.728877,67.7962381 L154.008853,68.0065579 L156.637386,68.4724648 L159.207723,68.9627928 L161.717966,69.4769891 L164.166218,70.0145007 L166.550581,70.5747747 C166.942545,70.6700198 167.331769,70.7661904 167.718211,70.8632748 L170.003184,71.4566559 L172.219524,72.0714171 L174.365334,72.7070057 L176.438717,73.3628688 L178.437776,74.0384534 C179.09153,74.2668738 179.732581,74.498489 180.360612,74.7332068 L182.205328,75.4465759 C182.506165,75.5669914 182.803669,75.6881595 183.097798,75.8100687 L184.821777,76.5503249 C185.102254,76.6751524 185.379279,76.800698 185.652812,76.9269501 L187.251784,77.6928494 L188.765046,78.4751529 C195.868961,82.2950396 199.902976,86.6703851 199.902976,91.3202664 C199.902976,97.4132143 192.976557,103.034783 181.292853,107.552934 L179.40884,108.257064 L177.447656,108.942302 L175.411198,109.608095 L173.301364,110.25389 C172.943716,110.359826 172.583089,110.464904 172.219524,110.569116 L170.003184,111.183877 C169.628022,111.284571 169.25,111.384374 168.869158,111.483275 L166.550581,112.065758 C166.158616,112.161003 165.763911,112.255323 165.366504,112.348706 L162.949959,112.897668 L160.470475,113.423591 L157.929947,113.925922 L155.330275,114.404109 L152.673356,114.857598 L149.961086,115.285836 L147.195364,115.688272 L144.378087,116.064351 C143.90435,116.124803 143.428544,116.184135 142.950709,116.242334 L140.059657,116.577842 C139.573861,116.631464 139.086115,116.68393 138.596458,116.735229 L135.635901,117.028922 L132.631378,117.294047 C132.127066,117.335824 131.621001,117.376387 131.113223,117.415724 L128.046311,117.636962 C127.531837,117.671354 127.01573,117.704499 126.498028,117.736384 L123.372995,117.912489 L120.211587,118.057814 L117.015701,118.171808 L113.787234,118.253916 L110.528085,118.303587 C109.982442,118.309131 109.4356,118.313301 108.887598,118.316085 L105.592704,118.316085 L102.318925,118.282841 L99.0748806,118.216882 C98.5367898,118.203194 98.0000169,118.188165 97.4646015,118.171808 L94.2687155,118.057814 L91.1073073,117.912489 L87.9822743,117.736384 L84.895514,117.530052 C84.3843488,117.493176 83.8748573,117.455062 83.3670791,117.415724 L80.3412856,117.16509 L77.3585085,116.885612 C76.8650691,116.836659 76.3735012,116.786528 75.8838441,116.735229 L72.9691494,116.413521 C72.4872943,116.357599 72.0074291,116.300533 71.5295935,116.242334 L68.6872505,115.87964 L65.8955137,115.490314 L63.1562808,115.074908 L60.4714491,114.633975 L57.8429162,114.168068 L55.2725795,113.67774 C54.8491451,113.594014 54.4282146,113.509294 54.0098276,113.423591 L51.530343,112.897668 L49.1137982,112.348706 L46.7620909,111.777258 C45.9892055,111.583089 45.2274426,111.385265 44.4771184,111.183877 L42.2607782,110.569116 L40.1149679,109.933527 C39.7633157,109.825891 39.4146814,109.71741 39.0691044,109.608095 L37.0326465,108.942302 L35.0714622,108.257064 L33.1874488,107.552934 L31.3825039,106.830464 C20.7938348,102.441733 14.5773264,97.0925328 14.5773264,91.3202664 C14.5773264,87.3117481 17.5752567,83.5072545 22.9534492,80.0867613 L24.2896001,79.2733079 C24.7500066,79.0046757 25.2253306,78.7385934 25.7152557,78.4751529 L27.2285183,77.6928494 L28.8274906,76.9269501 C29.1010231,76.800698 29.3780477,76.6751524 29.6585249,76.5503249 L31.3825039,75.8100687 C31.6766336,75.6881595 31.9741369,75.5669914 32.2749742,75.4465759 L34.1196905,74.7332068 C34.7477213,74.498489 35.3887721,74.2668738 36.0425265,74.0384534 L38.0415848,73.3628688 L40.1149679,72.7070057 L42.2607782,72.0714171 L44.4771184,71.4566559 L46.7620909,70.8632748 C47.1485336,70.7661904 47.5377569,70.6700198 47.9297213,70.5747747 L50.3140845,70.0145007 L52.7623364,69.4769891 L55.2725795,68.9627928 L57.8429162,68.4724648 L60.4714491,68.0065579 L61.7538583,67.7962539 C61.0061696,69.3583139 60.3460246,70.9427561 59.7718204,72.5435995 L59.1476988,72.7024218 L59.1476988,72.7024218 L57.0417044,73.2669027 L55.0115613,73.8548623 C54.6796609,73.954772 54.3510227,74.0556299 54.0256978,74.157421 L52.1139141,74.7792454 C40.8866516,78.5759374 34.0852895,83.5430574 34.0852895,88.9792172 C34.0852895,94.415377 40.8866516,99.382497 52.1139141,103.179189 L54.0256978,103.801013 C54.3510227,103.902804 54.6796609,104.003662 55.0115613,104.103572 L57.0417044,104.691532 L59.1476988,105.256013 C59.8620673,105.44018 60.5886704,105.620313 61.3271007,105.796293 L63.5774663,106.311652 C63.9583051,106.395429 64.3419988,106.478137 64.7284967,106.559761 L67.0807253,107.036384 C67.4782358,107.113614 67.8784486,107.189731 68.2813126,107.264719 L70.7299057,107.700983 L73.2396867,108.109439 L75.808212,108.489365 C76.2410591,108.550269 76.676252,108.609954 77.1137399,108.668404 L79.7657991,109.004183 C80.212263,109.057639 80.6609201,109.10983 81.1117193,109.160743 L83.8418137,109.45075 L86.6208766,109.709342 C87.0879987,109.749782 87.5570594,109.788883 88.0280076,109.826631 L90.8759412,110.036745 C91.3542362,110.069016 91.834317,110.099902 92.3161328,110.12939 L95.2274381,110.289403 C95.7159897,110.313234 96.2061743,110.335635 96.697941,110.356592 L99.6671194,110.464881 L102.671825,110.537786 L105.709614,110.574584 C106.218533,110.577668 106.728729,110.579217 107.240151,110.579217 L110.293565,110.560743 C110.79988,110.554605 111.304868,110.546948 111.808477,110.537786 L114.813183,110.464881 L117.782361,110.356592 L120.713569,110.213639 C121.198803,110.186965 121.682354,110.158877 122.164169,110.12939 L125.033838,109.935795 C125.50851,109.900771 125.981346,109.864378 126.452295,109.826631 L129.254925,109.584018 L132.009809,109.309628 C132.464842,109.261289 132.917784,109.211655 133.368583,109.160743 L136.047265,108.84004 C136.489292,108.784072 136.929074,108.726855 137.366562,108.668404 L139.963543,108.303014 C140.391648,108.239688 140.817355,108.175158 141.240615,108.109439 L143.750397,107.700983 L146.19899,107.264719 L148.583951,106.801368 L150.902836,106.311652 L153.153201,105.796293 C153.891632,105.620313 154.618235,105.44018 155.332603,105.256013 L157.438598,104.691532 L159.468741,104.103572 C159.800641,104.003662 160.129279,103.902804 160.454604,103.801013 L162.366388,103.179189 C162.678256,103.073725 162.98671,102.967359 163.291697,102.860104 L165.079623,102.206038 C174.679979,98.5513865 180.395013,93.9623637 180.395013,88.9792172 C180.395013,83.9960708 174.679979,79.4070479 165.079623,75.7523964 L163.291697,75.0983307 C162.98671,74.9910759 162.678256,74.8847091 162.366388,74.7792454 L160.454604,74.157421 C160.129279,74.0556299 159.800641,73.954772 159.468741,73.8548623 L157.438598,73.2669027 L155.332603,72.7024218 L154.69967,72.5418604 C154.124247,70.9297742 153.4667,69.3456038 152.728877,67.7962381 Z" id="形状结合" fill="#48E8CC" transform="translate(107.240151, 93.055789) rotate(-30.000000) translate(-107.240151, -93.055789) "></path>
        </g>
    </g>
</svg>