<?xml version="1.0" encoding="UTF-8" standalone="no"?>
<svg
   width="21.382622"
   height="23.886986"
   viewBox="0 0 21.382622 23.886986"
   version="1.1"
   id="svg1"
   xmlns="http://www.w3.org/2000/svg"
   xmlns:svg="http://www.w3.org/2000/svg">
  <defs
     id="defs1">
    <clipPath
       clipPathUnits="userSpaceOnUse"
       id="clipPath3">
      <rect
         style="opacity:0.65;fill:#000000"
         id="rect4"
         width="21.382622"
         height="24.191183"
         x="0.022413176"
         y="0.043039709" />
    </clipPath>
  </defs>
  <g
     id="Page-1"
     stroke="none"
     stroke-width="1"
     fill="none"
     fill-rule="evenodd"
     clip-path="url(#clipPath3)"
     transform="translate(-0.02241318,-0.04303971)">
    <g
       id="home-[TBD]"
       transform="translate(-360,-26)">
      <g
         id="navbar"
         transform="translate(299)">
        <g
           id="Group-5"
           transform="translate(61,26)">
          <g
             id="Group-7-Copy-4">
            <path
               d="m 21.466366,23.930013 v -6.223909 h -6.738412 c -1.83248,0 -3.529923,0.967578 -4.468464,2.547254 l -2.1845615,3.676655 z"
               id="Stroke-1"
               fill="#63d2f9" />
            <polygon
               id="Stroke-3"
               fill="#4e5ee4"
               points="0.019867965,0.019952416 0.019867965,6.2438615 17.768265,6.2438615 21.466378,0.019952416 " />
            <path
               d="M 8.514063,9.7469728 0.03940997,23.930025 H 7.2596145 L 17.393787,6.9620128 h -3.987029 c -2.00544,0 -3.8633611,1.0575459 -4.892695,2.78496 z"
               id="Stroke-5"
               fill="#63b0f9" />
          </g>
          <path
             d="m 172.76828,17.951276 c -2.61413,0 -4.42522,-1.935196 -4.42522,-4.658171 0,-2.7401 1.81109,-4.6924216 4.3227,-4.6924216 1.86236,0 2.85333,1.198794 3.1267,1.6611856 h 0.10252 V 4.8844221 h 1.34977 V 17.728643 h -1.29852 v -1.404301 h -0.10251 c -0.22212,0.325387 -1.14475,1.626934 -3.07544,1.626934 z m 0.0854,-1.215919 c 1.93069,0 3.09252,-1.575558 3.09252,-3.442252 0,-2.19208 -1.36686,-3.4593764 -3.12669,-3.4593764 -1.82818,0 -3.09253,1.4385524 -3.09253,3.4593764 0,2.089327 1.26435,3.442252 3.1267,3.442252 z m 11.55884,1.215919 c -2.66538,0 -4.63024,-1.969447 -4.63024,-4.675296 0,-2.688724 1.99903,-4.6752966 4.64733,-4.6752966 2.68247,0 4.63025,2.0036986 4.63025,4.6752966 0,2.671598 -1.98195,4.675296 -4.64734,4.675296 z m 0,-1.233045 c 1.91361,0 3.26339,-1.455678 3.26339,-3.442251 0,-1.969447 -1.34978,-3.4422514 -3.26339,-3.4422514 -1.9136,0 -3.24629,1.4899294 -3.24629,3.4422514 0,2.003698 1.34977,3.442251 3.24629,3.442251 z m 11.23422,1.233045 c -2.68247,0 -4.5619,-2.037949 -4.5619,-4.675296 0,-2.637347 1.93069,-4.6752966 4.54482,-4.6752966 1.93069,0 3.7247,1.1645427 4.2031,3.1511156 h -1.40104 c -0.3588,-1.164543 -1.48646,-1.9180704 -2.76789,-1.9180704 -1.89652,0 -3.17796,1.5070554 -3.17796,3.4422514 0,2.003698 1.34978,3.442251 3.21213,3.442251 1.28143,0 2.42618,-0.753527 2.7679,-1.91807 h 1.38394 c -0.46131,1.986573 -2.27241,3.151115 -4.2031,3.151115 z m 9.85027,0 c -2.10155,0 -3.29756,-1.147417 -3.45133,-2.808603 h 1.31561 c 0.15377,1.061789 0.90554,1.626935 2.20406,1.626935 1.33269,0 2.06738,-0.650774 2.06738,-1.558432 0,-2.500342 -5.31367,-0.599397 -5.31367,-4.127277 0,-1.5070548 1.34977,-2.4832156 3.21212,-2.4832156 1.64024,0 3.0071,0.9590352 3.14379,2.5688446 h -1.29852 c -0.1196,-0.839156 -0.75178,-1.4043019 -1.9307,-1.4043019 -1.11057,0 -1.82818,0.5480199 -1.82818,1.3186729 0,2.260583 5.33077,0.376764 5.33077,4.058774 0,1.678312 -1.38395,2.808603 -3.45133,2.808603 z"
             id="docs"
             fill="#282846"
             fill-rule="nonzero"
             opacity="0.9" />
          <path
             d="m 36.827578,17.951276 c -3.630633,0 -6.302231,-2.654472 -6.302231,-6.216603 0,-3.527879 2.688723,-6.2166026 6.319357,-6.2166026 3.630633,0 6.319356,2.7229748 6.319356,6.2166026 0,3.52788 -2.705849,6.216603 -6.336482,6.216603 z m 0.01713,-2.174954 c 2.294834,0 3.938894,-1.712563 3.938894,-4.041649 0,-2.2948338 -1.64406,-4.0416479 -3.938894,-4.0416479 -2.31196,0 -3.956021,1.7468141 -3.956021,4.0416479 0,2.329086 1.644061,4.041649 3.956021,4.041649 z m 8.750563,5.891216 V 8.7205628 h 2.19208 v 1.1474171 h 0.11988 c 0.239758,-0.3767638 1.061789,-1.3700502 2.705849,-1.3700502 2.517467,0 4.247156,1.8838193 4.247156,4.6924223 0,2.808603 -1.712563,4.760924 -4.178654,4.760924 -1.592683,0 -2.448964,-0.890532 -2.7401,-1.387176 h -0.11988 v 5.103438 z m 4.589668,-5.737086 c 1.438553,0 2.414714,-1.113166 2.414714,-2.705849 0,-1.64406 -0.976161,-2.705849 -2.43184,-2.705849 -1.472804,0 -2.397587,1.181668 -2.397587,2.705849 0,1.678312 1.027537,2.705849 2.414713,2.705849 z m 11.045398,2.020824 c -2.654473,0 -4.538292,-1.986572 -4.538292,-4.675296 0,-2.842854 1.900945,-4.7780503 4.538292,-4.7780503 2.894231,0 4.469789,2.1407033 4.469789,4.6752963 v 0.702151 H 58.84987 c 0.0685,1.37005 1.010412,2.294834 2.448965,2.294834 1.09604,0 1.935196,-0.513769 2.243457,-1.250171 h 2.072201 c -0.445266,1.832442 -2.055075,3.031236 -4.38416,3.031236 z m -2.346211,-5.651457 h 4.692422 c -0.102754,-1.21592 -1.044664,-2.020824 -2.346211,-2.020824 -1.250171,0 -2.209206,0.890533 -2.346211,2.020824 z m 9.212955,5.428824 V 8.7205628 h 2.123578 V 9.816603 h 0.119879 c 0.359638,-0.6678995 1.250171,-1.3186733 2.534593,-1.3186733 2.020824,0 3.253869,1.4214271 3.253869,3.3394973 v 5.891216 h -2.226331 v -5.308944 c 0,-1.096041 -0.702151,-1.832443 -1.729689,-1.832443 -1.078914,0 -1.849568,0.856282 -1.849568,1.986573 v 5.154814 z m 10.240493,0 V 15.690694 L 84.571298,7.8300301 V 7.7101508 H 78.560203 V 5.7407035 h 8.85395 v 2.0208241 l -6.233729,7.8606634 v 0.137005 h 6.26798 v 1.969447 z m 15.138422,0.222633 c -2.654472,0 -4.538291,-1.986572 -4.538291,-4.675296 0,-2.842854 1.900945,-4.7780503 4.538291,-4.7780503 2.894231,0 4.469789,2.1407033 4.469789,4.6752963 v 0.702151 H 91.09553 c 0.0685,1.37005 1.010412,2.294834 2.448965,2.294834 1.09604,0 1.935196,-0.513769 2.243457,-1.250171 h 2.072201 c -0.445266,1.832442 -2.055075,3.031236 -4.384161,3.031236 z m -2.346211,-5.651457 h 4.692422 c -0.102753,-1.21592 -1.044663,-2.020824 -2.346211,-2.020824 -1.250171,0 -2.209206,0.890533 -2.346211,2.020824 z m 9.212955,9.367719 V 8.7205628 h 2.19208 v 1.1474171 h 0.11988 c 0.23975,-0.3767638 1.06179,-1.3700502 2.70585,-1.3700502 2.51746,0 4.24715,1.8838193 4.24715,4.6924223 0,2.808603 -1.71256,4.760924 -4.17865,4.760924 -1.59268,0 -2.44897,-0.890532 -2.7401,-1.387176 h -0.11988 v 5.103438 z m 4.58967,-5.737086 c 1.43855,0 2.41471,-1.113166 2.41471,-2.705849 0,-1.64406 -0.97616,-2.705849 -2.43184,-2.705849 -1.4728,0 -2.39759,1.181668 -2.39759,2.705849 0,1.678312 1.02754,2.705849 2.41472,2.705849 z m 7.07225,5.737086 V 8.7205628 h 2.19208 v 1.1474171 h 0.11988 c 0.23976,-0.3767638 1.06179,-1.3700502 2.70585,-1.3700502 2.51746,0 4.24715,1.8838193 4.24715,4.6924223 0,2.808603 -1.71256,4.760924 -4.17865,4.760924 -1.59269,0 -2.44897,-0.890532 -2.7401,-1.387176 h -0.11988 v 5.103438 z m 4.58966,-5.737086 c 1.43856,0 2.41472,-1.113166 2.41472,-2.705849 0,-1.64406 -0.97616,-2.705849 -2.43184,-2.705849 -1.47281,0 -2.39759,1.181668 -2.39759,2.705849 0,1.678312 1.02754,2.705849 2.41471,2.705849 z m 11.0454,2.020824 c -2.65447,0 -4.53829,-1.986572 -4.53829,-4.675296 0,-2.842854 1.90095,-4.7780503 4.53829,-4.7780503 2.89423,0 4.46979,2.1407033 4.46979,4.6752963 v 0.702151 h -6.85025 c 0.0685,1.37005 1.01041,2.294834 2.44897,2.294834 1.09603,0 1.93519,-0.513769 2.24345,-1.250171 h 2.0722 c -0.44526,1.832442 -2.05507,3.031236 -4.38416,3.031236 z m -2.34621,-5.651457 h 4.69242 c -0.10275,-1.21592 -1.04466,-2.020824 -2.34621,-2.020824 -1.25017,0 -2.2092,0.890533 -2.34621,2.020824 z m 11.40504,5.428824 c -1.57556,0 -2.46609,-0.941909 -2.46609,-2.534593 V 4.8844221 h 2.22633 V 14.988543 c 0,0.513769 0.25688,0.787779 0.71927,0.787779 h 0.35964 v 1.952321 z m 4.09239,-10.2068742 c -0.80491,0 -1.37005,-0.4966432 -1.37005,-1.3015477 0,-0.7706533 0.56514,-1.2844221 1.37005,-1.2844221 0.8049,0 1.37005,0.5137688 1.37005,1.2844221 0,0.8049045 -0.56515,1.3015477 -1.37005,1.3015477 z M 139.67777,17.728643 V 8.7205628 h 2.22633 v 9.0080802 z m 4.93155,0 V 8.7205628 h 2.12358 V 9.816603 h 0.11988 c 0.35964,-0.6678995 1.25017,-1.3186733 2.53459,-1.3186733 2.02083,0 3.25387,1.4214271 3.25387,3.3394973 v 5.891216 h -2.22633 v -5.308944 c 0,-1.096041 -0.70215,-1.832443 -1.72969,-1.832443 -1.07891,0 -1.84957,0.856282 -1.84957,1.986573 v 5.154814 z"
             id="OpenZeppelin"
             fill="#282846"
             fill-rule="nonzero" />
          <polygon
             id="|-copy-5"
             fill="#282846"
             fill-rule="nonzero"
             opacity="0.9"
             points="161.43348,18.090452 160.27506,18.090452 160.27506,5.7127744 161.43348,5.7127744 " />
        </g>
      </g>
    </g>
  </g>
</svg>
