<svg width="36" height="36" viewBox="0 0 36 36" fill="none" xmlns="http://www.w3.org/2000/svg">
<path d="M10.3481 17.0693C10.4808 15.1715 12.054 13.7165 13.9296 13.6907C13.3565 15.1259 13.0593 16.2345 12.8676 16.9497C12.6911 17.6078 12.604 17.9327 12.4735 17.8722C11.944 17.627 11.7639 17.3123 11.6626 17.1354C11.5715 16.9762 11.5442 16.9286 11.3838 17.1432C11.0452 17.5963 11.2255 18.8037 11.3838 19.3303C11.4873 19.6745 11.6135 19.9539 11.7355 20.1818C10.817 19.4624 10.2608 18.317 10.3481 17.0693Z" fill="#4B30DD"/>
<path d="M19.2316 23.1934C19.416 23.1141 19.6295 23.1998 19.7086 23.3848C19.7279 23.4302 19.7379 23.479 19.7379 23.5284V24.5724L19.3258 24.9859L18.2583 24.629L17.1685 25.3581L16.0568 24.9861L15.3197 25.7257L13.8939 25.4396C14.7952 24.7725 15.5325 24.3157 16.1057 24.0692C16.7206 23.8047 17.7626 23.5128 19.2316 23.1934Z" fill="#4B30DD"/>
<path d="M13.55 25.7392C13.5284 25.7862 13.5166 25.838 13.5166 25.8918C13.5166 26.0931 13.6792 26.2563 13.8799 26.2563H19.3747C19.5753 26.2563 19.7379 26.0931 19.7379 25.8918V25.0846L19.4236 25.4L18.3116 25.0279L17.2222 25.7571L16.1545 25.3999L15.4388 26.1184L13.55 25.7392Z" fill="#4B30DD"/>
<path d="M16.4063 18.2273C16.4455 18.1347 16.4024 18.0277 16.3101 17.9883C16.2178 17.949 16.1112 17.9922 16.072 18.0849L15.0785 20.4337C15.0393 20.5264 15.4462 20.8137 15.5716 20.7869L19.1821 20.0168C19.3783 19.9749 19.5035 19.7813 19.4618 19.5844L19.191 18.3056C19.1824 18.2651 19.1671 18.2265 19.1456 18.1912C19.0409 18.0195 18.8174 17.9653 18.6462 18.0703L15.7109 19.8708L16.4063 18.2273Z" fill="#4B30DD"/>
<path d="M22.8253 12.0701C24.9316 12.0701 26.6391 13.7837 26.6391 15.8976C26.6391 17.1177 26.0703 18.2044 25.1843 18.9053C25.1152 17.1353 23.0284 15.7153 20.4644 15.7153C19.9575 15.7153 19.4693 15.7708 19.0117 15.8735C19.0245 13.7707 20.727 12.0701 22.8253 12.0701Z" fill="#4B30DD"/>
<path d="M13.7435 22.3865C13.7435 22.9904 12.9304 23.4801 11.9274 23.4801C10.9244 23.4801 10.1113 22.9904 10.1113 22.3865C10.1113 21.7825 10.9244 21.2929 11.9274 21.2929C12.9304 21.2929 13.7435 21.7825 13.7435 22.3865Z" fill="#4B30DD"/>
<path d="M6.77521 24.7856C6.80887 24.835 6.84314 24.8842 6.87802 24.9332L7.02521 25.1399L7.07002 25.0769L7.17118 25.0967C7.08582 25.4647 6.91173 25.7567 6.64932 25.9777L6.60638 26.0126C6.28803 26.262 5.89285 26.371 5.4127 26.3375L5.37669 26.3344L5.38008 26.2977C5.43289 25.7951 5.62253 25.4114 5.94821 25.1371C6.18029 24.9417 6.45483 24.8243 6.77521 24.7856Z" fill="#4B30DD"/>
<path d="M7.08999 24.4111C7.87503 23.1945 8.27686 21.854 8.29663 20.386L8.2974 20.2718C8.2974 18.746 7.88843 17.357 7.06926 16.1005L7.02516 16.0337L6.98116 16.1005C6.16199 17.357 5.75302 18.746 5.75302 20.2718C5.75302 21.7845 6.15503 23.1628 6.96025 24.4108C7.00297 24.4098 7.04623 24.4099 7.08999 24.4111Z" fill="#4B30DD"/>
<path fill-rule="evenodd" clip-rule="evenodd" d="M0 18V17.9976C0.00132155 8.05741 8.05981 0 18 0C27.9411 0 36 8.05888 36 18C36 27.9411 27.9411 36 18 36C8.05888 36 0 27.9411 0 18ZM20.2262 10.1857C18.9597 10.9749 17.8358 11.6753 17.5586 11.6753C17.362 11.6753 17.3537 11.0901 17.3586 10.4802L17.3598 10.341C17.3657 9.72311 17.3714 9.12358 17.1954 9.12358C16.8321 9.12358 15.1166 11.0667 14.6528 12.0398C14.4368 12.4929 14.2459 12.9235 14.0767 13.3301C11.9488 13.2794 10.1371 14.9059 9.98757 17.0441C9.88993 18.4404 10.5248 19.7199 11.5666 20.5079C11.0751 20.5545 10.6105 20.6967 10.2295 20.9261C9.77169 21.2018 9.3092 21.6935 9.3092 22.3865C9.3092 23.0796 9.77169 23.5713 10.2295 23.847C10.3624 23.927 10.5054 23.9964 10.6562 24.0548C10.6569 24.1193 10.6574 24.1848 10.6574 24.2514C10.6574 24.5266 10.6992 24.7961 10.7793 25.0578L7.51076 24.4202C8.27577 23.1631 8.6588 21.7791 8.6588 20.2718C8.6588 18.5566 8.16282 17.001 7.1724 15.6104L7.02521 15.4037L6.87802 15.6104C5.8876 17.001 5.39162 18.5566 5.39162 20.2718C5.39162 21.7928 5.78165 23.1882 6.56064 24.4545C6.24295 24.5191 5.96049 24.6543 5.71542 24.8607C5.26401 25.2409 5.02764 25.7881 5.00518 26.4889L5 26.6505L5.16006 26.6735C5.85205 26.7731 6.43054 26.6344 6.88211 26.2541C7.21014 25.9779 7.42462 25.6134 7.52597 25.1659L11.1686 25.8765C12.2904 27.5906 15.1348 28.808 18.4666 28.808C21.3419 28.808 24.1872 27.1069 27.0024 23.7046C29.1931 20.8739 30.5249 18.4437 30.9978 16.4141C31.047 16.2031 30.2743 16.2165 29.4677 16.2373L29.3575 16.2401C28.5127 16.2621 27.6697 16.2813 27.7288 16.0496C27.9256 15.2784 28.2531 14.4112 28.5813 13.542L28.6874 13.2609L28.7476 13.1007L28.8073 12.9407L28.8663 12.7812C29.3941 11.3482 29.8191 9.98532 29.5449 9.12358C29.4484 8.82016 27.9563 9.40573 26.4626 10.0022L26.2835 10.0738C24.8515 10.6459 23.4693 11.1956 23.3701 10.9462C23.2225 10.5748 23.5365 10.0376 23.8807 9.52029L23.9352 9.43881L23.9898 9.35782L24.0289 9.30014C24.4143 8.73135 24.76 8.22093 24.4598 8.03C24.0766 7.78632 22.0099 9.07417 20.2262 10.1857Z" fill="#4B30DD"/>
</svg>
