<svg width="36" height="36" viewBox="0 0 36 36" fill="none" xmlns="http://www.w3.org/2000/svg">
<path d="M20.2834 11.1197C20.2834 10.9516 20.1475 10.8152 19.9798 10.8152C19.8121 10.8152 19.6762 10.9516 19.6762 11.1197C19.6762 11.2879 19.8121 11.4243 19.9798 11.4243C20.1475 11.4243 20.2834 11.2879 20.2834 11.1197Z" fill="#4B30DD"/>
<path fill-rule="evenodd" clip-rule="evenodd" d="M0 18V17.9976C0.00132155 8.05741 8.05981 0 18 0C27.9411 0 36 8.05888 36 18C36 27.9411 27.9411 36 18 36C8.05888 36 0 27.9411 0 18ZM14.7893 18.3589C14.9173 18.3169 15.0331 18.2789 15.0607 18.3206C15.1165 18.4045 15.0477 18.531 14.9309 18.6901L14.8851 18.7512C14.4612 19.2656 14.2364 19.6147 14.2106 19.7986C14.123 20.423 14.5743 20.7261 14.7138 20.8197C14.7223 20.8254 14.7295 20.8303 14.7355 20.8344L14.1742 24.7549L14.1718 24.7792C14.1652 24.884 14.2131 24.985 14.2983 25.046L14.3186 25.0594L16.4098 26.3176L15.9998 28.2364L15.9957 28.26C15.981 28.3703 16.0276 28.48 16.1171 28.5458L16.1383 28.5601L17.8543 30C15.6396 29.9927 13.3589 29.0209 11.4111 27.8101L10.4079 25.4555L11.5603 23.8104L11.5742 23.7886C11.6302 23.6924 11.6292 23.573 11.5717 23.4777L11.5574 23.4562L10.1514 21.5181L10.9965 20.7106C11.4092 21.5914 11.9286 22.1772 12.4355 22.2363C12.7742 22.2756 13.3818 22.1117 13.4452 21.8311C13.4663 21.7379 13.4207 21.6608 13.346 21.5736L13.3096 21.5325L13.2058 21.4197L13.1613 21.369C13.1091 21.3076 13.0559 21.238 13.0077 21.156C12.6504 20.5485 12.7629 19.5982 13.2433 18.9957C13.4749 18.7052 14.2634 18.1916 14.5142 18.1237C14.6039 18.0994 14.5637 18.1751 14.5202 18.2572C14.4752 18.3419 14.4267 18.4334 14.5142 18.4282C14.592 18.4236 14.694 18.3901 14.7893 18.3589ZM15.3323 20.951C15.6482 20.8762 15.9496 20.6172 16.1912 20.3505L19.31 25.5635L19.3239 25.5847C19.4022 25.694 19.5434 25.7387 19.6701 25.6944L19.6937 25.6851L23.4054 24.0307L23.6708 26.957L23.6737 26.9798C23.701 27.1448 23.8571 27.2569 24.0215 27.2301L24.0461 27.225L26.6599 26.9548C25.6838 27.6174 25.0259 28.0234 24.6863 28.1729C22.0309 29.3413 19.8535 29.4868 19.08 29.5384C19.016 29.5427 18.9617 29.5463 18.9175 29.5498L16.6387 28.153L17.049 26.2324L17.0531 26.2086C17.0679 26.0975 17.0204 25.9872 16.9299 25.9217L16.9083 25.9074L14.8041 24.6412L15.3323 20.951ZM9.84704 18.7336L10.2575 18.0371C10.3518 18.7842 10.5245 19.4924 10.7476 20.1072L9.54003 21.261L9.52151 21.2804C9.43387 21.3801 9.42101 21.526 9.48999 21.6397L9.50395 21.6607L10.9386 23.6385L9.81368 25.2439L9.79959 25.266C9.75602 25.3412 9.74658 25.4316 9.77367 25.5141L9.7829 25.5387L10.7187 27.7161C10.2471 27.3503 9.65246 26.6089 9.16595 26.0023C9.02133 25.8219 8.88627 25.6535 8.76684 25.5105C7.69367 24.2249 6.95897 22.7591 6.53754 21.225L7.61035 18.7422L9.56397 18.8824L9.58834 18.8832C9.68537 18.8824 9.77625 18.8349 9.83264 18.7558L9.84704 18.7336ZM18.8155 20.3371L21.2559 18.4335L22.7603 21.451L22.772 21.4723C22.8628 21.6237 23.0641 21.6656 23.2075 21.5633L23.2275 21.5478L25.8844 19.304L27.8308 21.5337C27.9104 21.6112 28.0583 21.6034 28.2747 21.5105L30 20.8644C29.7976 22.4527 28.6812 24.1484 26.6507 25.9515L24.2436 26.5485L23.9719 23.5521L23.969 23.5294C23.9384 23.343 23.7456 23.2292 23.5682 23.2926L23.5462 23.3014L19.6926 25.0191L16.5945 19.8404L16.7376 19.6365C16.8961 19.408 17.0531 19.1668 17.1637 18.9018L18.4021 20.2991L18.4205 20.3181C18.522 20.4144 18.6767 20.4287 18.794 20.3525L18.8155 20.3371ZM16.7976 13.5689C17.0763 13.6162 17.3649 13.6897 17.6523 13.7974C17.8777 13.8818 18.0798 13.9788 18.2645 14.0785L18.3635 14.133L18.4594 14.1878L18.5974 14.2694L18.897 14.4512L19.0173 14.5225L19.0954 14.567C19.3187 14.6915 19.6374 14.7528 20.0514 14.7509L20.665 15.4345L20.6823 15.4523C20.8186 15.5819 21.0403 15.5564 21.1438 15.399L21.1562 15.3786L21.7394 14.3257L23.8875 16.0761L23.9069 16.0907C24.045 16.1863 24.2354 16.1507 24.3298 16.0115L24.3426 15.9909L25.3915 14.15L27.6994 15.7841L27.7192 15.797C27.88 15.8934 28.0901 15.8209 28.1576 15.6455L28.165 15.6239L28.6336 12.7946C28.8379 13.2012 29.257 14.312 29.5445 16.2966C29.7362 17.6196 29.7347 18.5373 29.5399 19.0498L28.0372 20.8467L26.145 18.6781L26.1272 18.6593C26.0225 18.558 25.8601 18.5456 25.7414 18.6299L25.7209 18.6457L23.1312 20.8328L21.6335 17.8289L21.6221 17.8081C21.5337 17.6602 21.3391 17.6157 21.1956 17.7103L21.1754 17.7247L18.6672 19.6812L17.3178 18.1588C17.3177 18.1342 17.317 18.1093 17.3157 18.0843C17.2736 17.2194 16.6004 16.44 15.9031 15.8866L15.81 15.8141L15.717 15.7444C15.6706 15.7103 15.6242 15.6772 15.5782 15.6452L15.4867 15.5827C15.4563 15.5624 15.4262 15.5426 15.3963 15.5232L15.3073 15.4668L15.2202 15.4136C15.1771 15.3878 15.1349 15.3632 15.0936 15.3398L15.0123 15.2948L14.9727 15.2736L14.896 15.2337L14.6568 15.1146L14.6022 15.0862L14.5204 15.0416L14.4682 15.0114L14.4196 14.9814C14.3349 14.9269 14.2763 14.8762 14.2866 14.8437C14.2983 14.8069 14.3961 14.8019 14.5197 14.8089L14.5894 14.8139L14.6988 14.8241L14.9086 14.8465L14.9679 14.8518C15.0415 14.8576 15.0913 14.8574 15.0943 14.8437C15.0965 14.8336 15.0724 14.8195 15.0304 14.8022L14.9827 14.784L14.9549 14.7741L14.8927 14.7532L14.5482 14.6427L14.5081 14.6294L14.4293 14.6023L14.3543 14.575C14.1972 14.5155 14.0791 14.4557 14.0847 14.4049C14.0904 14.353 14.2236 14.327 14.3998 14.3082L14.4778 14.3006L14.8125 14.2724L14.8945 14.2644L14.9729 14.2553C15.1505 14.2326 15.2866 14.1987 15.2964 14.135C15.3054 14.0764 15.178 14.02 15.0317 13.9658L14.8947 13.9164L14.8286 13.8921L14.7675 13.8681C14.6809 13.8323 14.6198 13.7975 14.6232 13.7636C14.6252 13.744 14.649 13.7215 14.692 13.698L14.7201 13.6839L14.7526 13.6696L14.7895 13.6553L14.8306 13.641L14.8758 13.6269L14.9249 13.613L14.951 13.6062L15.0058 13.5928L15.0642 13.58L15.1262 13.5677L15.1915 13.5561L15.2601 13.5453L15.3318 13.5353L15.4065 13.5263L15.484 13.5183L15.5643 13.5114L15.6054 13.5085L15.6895 13.5035C15.718 13.5021 15.7468 13.5009 15.7761 13.4999L15.8649 13.4978L15.9558 13.4972C16.0632 13.4975 16.1746 13.5012 16.2893 13.509L16.3883 13.5166L16.4888 13.5263C16.5225 13.5299 16.5564 13.5339 16.5906 13.5382L16.6936 13.5524L16.7976 13.5689ZM7.5391 13.8454L8.03017 13.5593L9.09579 14.6649L9.11528 14.6834C9.18258 14.7419 9.27222 14.7678 9.36023 14.7542L9.38656 14.7489L10.4852 14.478C10.3982 14.7928 10.3301 15.1072 10.2813 15.4176C10.2006 15.931 10.1695 16.4548 10.1796 16.9725L9.41989 18.2616L7.43913 18.1193L7.41523 18.1185C7.30429 18.1193 7.20245 18.1809 7.15 18.2788L7.13884 18.3019L6.16406 20.5599C5.80427 18.6093 6.07101 16.2535 6.62648 14.3846L7.00533 14.1593L7.5391 13.8454ZM18.114 10.1875C19.085 9.78258 19.5316 9.59632 20.8907 9.44487C22.0868 9.31159 22.5505 9.39164 22.7794 9.43118C22.812 9.43681 22.8399 9.44162 22.8644 9.44487C22.945 9.45556 22.8319 9.56296 22.7178 9.67123C22.6065 9.77698 22.4942 9.88356 22.5608 9.90165C22.6395 9.92307 22.7193 9.94454 22.7997 9.96619C23.4995 10.1545 24.2491 10.3562 24.8292 10.6566L24.9548 10.7228C25.0376 10.7672 25.1181 10.8121 25.1964 10.8571L25.3123 10.9248L25.3689 10.9586L25.4796 11.0264C25.516 11.049 25.5518 11.0715 25.587 11.094L25.6908 11.1613L25.7911 11.2281L25.8399 11.2613L25.9349 11.327L26.0262 11.3918L26.1138 11.4555L26.1978 11.518L26.3166 11.6089L26.3911 11.6674L26.4955 11.7516L26.5602 11.8051L26.6778 11.9049L26.7553 11.9729L26.8443 12.0533L26.9164 12.1206L26.9824 12.1843L27.0984 12.3014C27.3727 12.5843 27.6779 12.9517 28.0141 13.4036C27.8994 14.4735 27.7968 15.0201 27.7064 15.0435C27.6161 15.0668 26.8701 14.5388 25.4686 13.4594L25.4484 13.4462C25.3109 13.3642 25.1327 13.4039 25.0427 13.5365L25.0299 13.5571C24.4836 14.7665 24.1379 15.3731 23.9929 15.3771C23.8478 15.381 23.1307 14.7967 21.8413 13.6241L21.8218 13.6094C21.6826 13.5131 21.4905 13.5503 21.3971 13.6916L21.3844 13.7125C21.078 14.2332 20.8938 14.5656 20.8318 14.7099C20.7916 14.8035 20.6733 14.5834 20.5075 14.2752C20.2903 13.8713 19.9917 13.3161 19.6809 13.1172L19.5978 13.0653C19.5138 13.0142 19.4275 12.9654 19.3399 12.9195L19.2519 12.8746L19.1635 12.8318C19.1339 12.8179 19.1044 12.8043 19.0748 12.7912L18.9861 12.753C18.9566 12.7407 18.9271 12.7287 18.8977 12.7173C18.2944 12.4816 17.7347 12.4321 17.2549 12.4218L17.1315 12.4199L17.0119 12.4192L16.7998 12.4192L16.6549 12.4184L16.5627 12.4167L16.4741 12.4135C16.1272 12.3975 15.8705 12.3369 15.7339 12.1096C15.5944 11.8775 15.5757 11.452 15.7676 11.232C15.7981 11.1971 15.8548 11.1569 15.9376 11.1115L15.9905 11.0836L16.0193 11.0692L16.0816 11.0394L16.1502 11.0084L16.225 10.9761L16.3062 10.9426L16.3936 10.9077L16.4873 10.8717L16.6397 10.8152L17.1342 10.6019C17.4611 10.4617 17.7825 10.3258 18.0984 10.194L18.114 10.1875ZM8.13222 11.1572L11.0966 10.5628L11.4701 12.1867C11.1596 12.7027 10.9028 13.2463 10.7027 13.7971L9.41103 14.1156L8.30165 12.965L8.28286 12.9471C8.19232 12.8679 8.06329 12.8497 7.95452 12.9009L7.93154 12.913L7.31465 13.271L6.61953 13.5559C6.84896 12.9551 7.28889 12.3438 7.69815 11.775C7.84942 11.5648 7.9965 11.3604 8.12722 11.1645L8.13222 11.1572ZM8.44138 10.3584C9.26271 9.30736 10.4497 8.50479 11.5707 7.80599L13.998 8.17487L13.6549 9.77988C12.9924 10.2516 12.416 10.8386 11.9335 11.492L11.6219 10.1377L11.6154 10.114C11.5715 9.97469 11.4341 9.8861 11.2894 9.90386L11.2664 9.90757L8.44138 10.3584ZM12.4287 7.32046C12.4909 7.28861 14.3974 6.47729 15.3995 6.234L17.1096 7.37408L16.1292 8.67391C15.592 8.80999 15.0832 8.98582 14.6232 9.20675C14.538 9.24764 14.454 9.29036 14.371 9.33482L14.6593 7.98608L14.6634 7.96267C14.6844 7.80702 14.5829 7.66026 14.4301 7.6254L14.4079 7.62119L12.4287 7.32046ZM20.8649 6.95213L20.1305 6.29766C20.7572 6.40483 21.3143 6.54034 21.8017 6.70419C22.447 6.92114 22.964 7.21175 23.3496 7.49715L23.4302 7.55819C23.4957 7.60895 23.557 7.65936 23.6141 7.70898L23.6806 7.76811C23.7021 7.78767 23.7229 7.80708 23.743 7.8263L23.8014 7.88338L23.8291 7.91146L23.8813 7.96656L23.9295 8.02012C23.9526 8.04648 23.9741 8.07221 23.9941 8.09719L24.0321 8.14615C24.1578 8.31385 24.2082 8.44217 24.182 8.49783C24.1056 8.66009 23.8382 8.70318 23.487 8.68862L23.4012 8.68405L23.3572 8.681L23.2671 8.67346L23.1747 8.66418L23.0802 8.65335L22.984 8.64116L22.8864 8.62779L22.738 8.60595L22.5884 8.58252L21.9991 8.48578L21.9055 8.47106L21.7245 8.44426C21.1799 8.36737 20.5876 8.3165 19.9742 8.29864L20.8776 7.39548L20.8953 7.37619C20.9958 7.25712 20.9899 7.07992 20.8813 6.9678L20.8649 6.95213ZM16.2292 6.05576C16.3327 6.03631 16.4368 6.01772 16.5418 6C17.4577 6.01663 18.2932 6.06602 19.0481 6.14815L20.2205 7.19262L19.1168 8.29563C18.421 8.31114 17.7141 8.37124 17.0326 8.48545L17.7885 7.48322L17.8027 7.46275C17.8865 7.33069 17.8563 7.15533 17.7328 7.0592L17.7144 7.04596L16.2292 6.05576Z" fill="#4B30DD"/>
</svg>
