<?xml version="1.0" encoding="UTF-8"?>
<svg width="200px" height="200px" viewBox="0 0 200 200" version="1.1" xmlns="http://www.w3.org/2000/svg" xmlns:xlink="http://www.w3.org/1999/xlink">
    <title>编组 2</title>
    <g id="页面-1" stroke="none" stroke-width="1" fill="none" fill-rule="evenodd">
        <g id="编组-2">
            <g id="Pangolin1" fill="#5745DE" fill-rule="nonzero">
                <rect id="矩形" x="0" y="0" width="200" height="200"></rect>
            </g>
            <g id="编组" transform="translate(26.345543, 44.000000)">
                <path d="M50.6987511,30.5856533 C38.6623907,30.5856533 28.8881789,40.3385959 28.8153318,52.4074661 L28.8078204,53.6519129 L30.0220897,53.3794169 C32.4996143,52.8234318 35.1031185,52.5368175 37.7639563,52.5368175 C51.310626,52.5368175 62.2787772,59.9652929 62.633507,69.0622399 L62.7093986,71.0084604 L64.2369512,69.8001075 C69.4688334,65.661487 72.5834196,59.3598208 72.5834196,52.5453757 C72.5834196,40.418149 62.7861159,30.5856533 50.6987511,30.5856533 Z M50.6987511,32.5656533 C61.6909997,32.5656533 70.6034196,41.5100867 70.6034196,52.5453757 L70.5992324,52.9581958 C70.490494,58.31536 68.2689039,63.2938516 64.5231494,66.9208949 L64.396,67.041 L64.3607202,66.8497334 C62.5235336,57.5568468 51.2443555,50.5568175 37.7639563,50.5568175 L37.0001026,50.5643076 C34.9672332,50.6042202 32.968096,50.8033693 31.0301218,51.1551324 L30.84,51.191 L30.8501,51.0439762 C31.6139708,40.7062947 40.2138354,32.5656533 50.6987511,32.5656533 Z" id="形状结合" fill="#FFFFFF" fill-rule="nonzero" transform="translate(50.695620, 50.797057) rotate(-86.000000) translate(-50.695620, -50.797057) "></path>
                <path d="M72.0134179,20.1355282 C75.6706399,20.1355282 106.232919,-2.11860821 109.822818,0.16436399 C111.579448,1.28148139 109.299517,4.39478916 107.0299,7.76198841 L106.662583,8.30997104 C104.771854,11.1498695 103.041921,14.1018822 103.852913,16.1412954 C104.38501,17.4793686 111.656197,14.619409 119.324013,11.5571686 L120.304549,11.1654534 L120.304549,11.1654534 L121.777018,10.5778008 C129.620856,7.45263562 137.174634,4.55985138 137.682376,6.15571325 C139.278097,11.1711506 136.550933,19.2850848 133.417987,27.666788 L132.838884,29.208646 C132.70958,29.5516615 132.58,29.8948344 132.450409,30.2379721 L132.061873,31.2670876 C131.9972,31.4385251 131.932592,31.6099057 131.868081,31.7812054 L131.482451,32.8078393 C130.01072,36.7380693 128.625715,40.6000138 127.732534,44.1009253 C127.429749,45.2877198 131.448035,45.2728968 135.755531,45.1676877 L136.475433,45.1495065 C141.163218,45.0283657 145.927543,44.8735998 145.64225,46.0980417 C143.051455,57.2174107 135.754905,70.5315202 123.752597,86.0403701 C108.329177,104.680123 92.7410911,114 76.988339,114 C53.3592108,114 34.2040177,102.823257 34.2040177,89.0360447 C34.2040177,81.4981934 33.1117428,76.6378829 42.1638915,72.0605552 C44.0050339,71.1295593 40.2587328,68.9753848 38.1839546,62.074973 C37.3164358,59.1897313 36.3285461,52.5750387 38.1839546,50.0922745 C40.0393631,47.6095103 38.6437623,51.5339916 44.1538599,54.0865074 C45.9226981,54.9059098 46.235446,42.8154375 56.0936705,22.1326446 C58.6346265,16.8016576 68.0334811,6.15571325 70.0234495,6.15571325 C71.0347449,6.15571325 70.9513267,9.76619489 70.9198223,13.3174883 L70.9146809,14.0031109 C70.8965863,17.1900364 70.9811948,20.1355282 72.0134179,20.1355282 Z M83.7923297,84.2881395 C83.3594008,83.2743438 82.1895403,82.8047187 81.1793731,83.2392026 C73.1310458,84.9890615 67.4224362,86.5884895 64.0535442,88.0374865 C60.7325711,89.4658731 56.4063831,92.1825206 51.0749802,96.187429 C50.3433009,96.5021322 49.8688987,97.2241659 49.8688987,98.0230686 C49.8688987,99.1260456 50.7598379,100.020185 51.8588672,100.020185 L51.8588672,100.020185 L81.9632601,100.020185 C83.0622893,100.020185 83.9532285,99.1260456 83.9532285,98.0230686 L83.9532285,98.0230686 L83.9532285,85.0748422 C83.9532285,84.8043792 83.8984889,84.5367343 83.7923297,84.2881395 Z" id="形状结合" fill="#FFFFFF"></path>
                <path d="M65.1737462,54.7215516 C65.6795771,54.9370353 65.9155752,55.5232493 65.7008627,56.0308971 L61.8910695,65.0349073 L77.9724612,55.1709263 C78.9101382,54.595607 80.1349947,54.8920863 80.7082548,55.8331314 C80.8259301,56.0263032 80.9100181,56.2381507 80.9569234,56.4596153 L82.4408361,63.4659524 C82.6693371,64.5448267 81.9831037,65.6053291 80.9080909,65.8346509 L61.1278532,70.0541725 C60.4405655,70.2007848 58.2115764,68.6266968 58.4262888,68.119049 L63.8690871,55.2505615 C64.0837996,54.7429137 64.6679153,54.5060679 65.1737462,54.7215516 Z" id="路径" fill="#5745DE"></path>
                <path d="M100.86796,22.1326446 C112.407767,22.1326446 121.762629,31.5211091 121.762629,43.102367 C121.762629,49.7868147 118.646202,55.7407672 113.791964,59.5806561 C113.413835,49.8836319 101.981135,42.1038088 87.9331653,42.1038088 C85.1563798,42.1038088 82.4817761,42.4077764 79.9745228,42.9704329 C80.044058,31.4502541 89.3717815,22.1326446 100.86796,22.1326446 Z" id="形状结合" fill="#5745DE"></path>
                <ellipse id="椭圆形" stroke="#FFFFFF" stroke-width="1.98" fill="#5745DE" cx="40.173923" cy="80.0490208" rx="9.94984215" ry="5.99134926"></ellipse>
                <polygon id="矩形" fill="#FFFFFF" transform="translate(28.234112, 94.028836) rotate(11.000000) translate(-28.234112, -94.028836) " points="14.3011729 92.0226077 42.1643743 92.0413515 42.167052 96.0350639 14.3038506 96.0163201"></polygon>
                <path d="M15.1107312,41.529507 L14.3043334,40.397215 L13.4979357,41.529507 C8.07177524,49.148573 5.35445973,57.6706859 5.35445973,67.0677641 C5.35445973,76.4648423 8.07177524,84.9869552 13.4979357,92.6060212 L14.3043334,93.7383132 L15.1107312,92.6060212 C20.5368917,84.9869552 23.2542072,76.4648423 23.2542072,67.0677641 C23.2542072,57.6706859 20.5368917,49.148573 15.1107312,41.529507 Z M14.3040736,43.849 L14.5456572,44.2147494 C19.03363,51.0986778 21.2742072,58.7088145 21.2742072,67.0677641 L21.270006,67.6932817 C21.1607737,75.8067667 18.9214307,83.2089486 14.5456572,89.9207788 L14.3030736,90.285 L14.0630097,89.9207788 C9.57503687,83.0368504 7.33445973,75.4267138 7.33445973,67.0677641 C7.33445973,58.7088145 9.57503687,51.0986778 14.0630097,44.2147494 L14.3040736,43.849 Z" id="椭圆形" fill="#FFFFFF" fill-rule="nonzero"></path>
                <path d="M10.970644,87.3166544 L10.3105765,86.7257467 L9.65027898,87.3163973 C6.79554738,89.8700172 5.34035583,92.7863037 5.3460402,96.0206578 C5.35177822,99.2538895 6.81618892,102.173156 9.67814921,104.73525 L10.3382166,105.326158 L10.9985142,104.735507 C13.8532458,102.181887 15.3084373,99.2656007 15.302753,96.0312466 C15.297015,92.798015 13.8326043,89.878748 10.970644,87.3166544 Z M10.3100736,89.419 L10.4527429,89.5633074 C12.3760541,91.5548716 13.3186116,93.7020449 13.3227394,96.0347434 L13.3179511,96.3378044 C13.2437666,98.5524016 12.3094636,100.594711 10.4778731,102.491747 L10.3380736,102.632 L10.1960502,102.488597 C8.27273906,100.497033 7.3301816,98.3498595 7.3260403,96.017161 C7.32194382,93.6854674 8.25607544,91.5434226 10.17092,89.5601574 L10.3100736,89.419 Z" id="椭圆形" fill="#FFFFFF" fill-rule="nonzero" transform="translate(10.324397, 96.025952) rotate(50.000000) translate(-10.324397, -96.025952) "></path>
                <polygon id="直线" fill="#FFFFFF" fill-rule="nonzero" points="86.9356711 87.6359756 88.3382503 89.0335347 82.2312931 95.1624282 76.139 93.124 70.1701441 97.1189531 64.321 95.162 60.3998045 99.098288 48.9582992 96.8017673 49.3479501 94.8604863 59.747 96.947 63.7855111 92.8952434 69.876 94.933 75.8466602 90.9387184 81.695 92.894"></polygon>
            </g>
        </g>
    </g>
</svg>