<?xml version="1.0" encoding="UTF-8"?>
<svg width="200px" height="200px" viewBox="0 0 200 200" version="1.1" xmlns="http://www.w3.org/2000/svg" xmlns:xlink="http://www.w3.org/1999/xlink">
    <title>Pangolin</title>
    <g id="页面-1" stroke="none" stroke-width="1" fill="none" fill-rule="evenodd">
        <g id="Pangolin" fill-rule="nonzero">
            <circle id="蒙版" fill="rgb(87,68,2222)" cx="100" cy="100" r="100"></circle>
            <path d="M113.471594,101.95602 C113.692916,101.625891 115.140879,102.395622 115.976436,102.444852 C116.766086,102.491377 115.140559,100.837591 115.976436,101.061821 C117.125896,101.370174 120.73997,103.702682 121.801583,105.022198 C124.003244,107.758523 124.518867,112.074269 122.881538,114.833414 C122.660499,115.205807 122.416755,115.522035 122.177181,115.8008 L121.973479,116.031002 L121.497836,116.543406 L121.330896,116.729997 C120.98838,117.126211 120.779407,117.476146 120.876106,117.899592 C121.16697,119.174054 123.951752,119.918125 125.504187,119.739714 C127.827114,119.471567 130.207872,116.810779 132.099255,112.810417 L135.972605,116.478135 L129.528503,125.280076 L129.463076,125.377876 C129.199486,125.810551 129.195,126.353079 129.451401,126.789999 L129.515202,126.888855 L134.797231,134.360566 L130.199308,145.054263 C121.271721,150.553346 110.818536,154.966646 100.667793,155 L108.53268,148.460239 L108.63017,148.395301 C109.039964,148.096791 109.253809,147.59853 109.186534,147.097641 L109.167793,146.990339 L107.28822,138.275762 L116.873171,132.561215 L116.966295,132.50055 C117.35683,132.223385 117.576288,131.764766 117.546142,131.288796 L117.534719,131.178724 L114.962244,113.373114 C115.442141,113.041798 117.793607,111.675856 117.36813,108.668488 C117.250008,107.833571 116.219568,106.248023 114.27681,103.911844 L114.066533,103.634104 C113.531445,102.911702 113.216164,102.337098 113.471594,101.95602 Z M108.290301,111.174985 C109.397562,112.386311 110.779009,113.562738 112.227063,113.902677 L114.647892,130.662172 L105.003418,136.412974 L104.904739,136.477594 C104.489868,136.775039 104.27232,137.27629 104.339785,137.780647 L104.358636,137.888698 L106.239359,146.611711 L95.7949911,152.955498 C93.1392129,152.746456 82.53076,152.447132 69.3546593,146.701819 C67.7979213,146.023018 64.7825825,144.178978 60.308643,141.169698 L72.28885,142.396903 L72.4015548,142.419855 C73.1547708,142.541787 73.870372,142.032515 73.9956497,141.283187 L74.0090221,141.179554 L75.2250379,127.889212 L92.2373967,135.403018 L92.3454175,135.445515 C92.9261383,135.64674 93.573238,135.443525 93.9321531,134.947218 L93.995986,134.850753 L108.290301,111.174985 Z M135.48641,100.668342 L137.367719,103.831945 L137.433749,103.932722 C137.692178,104.292009 138.108698,104.507379 138.55345,104.511196 L138.66515,104.507704 L147.619216,103.870827 L152.536294,115.146905 C150.604716,122.114089 147.237327,128.771438 142.318644,134.610055 C139.929876,137.44571 136.176408,142.472293 133.372621,144.627273 L137.661704,134.738124 L137.703992,134.626762 C137.828171,134.251669 137.784907,133.841192 137.585211,133.499812 L137.52062,133.399575 L132.364633,126.108195 L138.940237,117.125507 L139.004196,117.030159 C139.320393,116.513965 139.261429,115.851282 138.859757,115.39828 L138.774863,115.310581 L133.240348,110.070043 C134.262747,107.277923 135.054281,104.061567 135.48641,100.668342 Z M85.0771482,102.469032 L96.2622742,111.114422 L96.3609458,111.184145 C96.8984563,111.530277 97.6075085,111.465582 98.0726113,111.027972 L98.1568579,110.941559 L103.833106,104.595562 C104.340097,105.799232 105.059411,106.89468 105.785813,107.932241 L106.441771,108.85829 L92.242128,132.378311 L74.5799583,124.577179 L74.4789552,124.53703 C73.6662155,124.249074 72.7825543,124.765952 72.642005,125.612639 L72.6287581,125.715794 L71.3833584,139.324368 L60.3508014,136.61296 C51.0443765,128.423907 45.9274427,120.722618 45,113.509093 L52.9077832,116.44352 C53.8992469,116.865601 54.577328,116.900692 54.9420265,116.548792 L63.8633728,106.422486 L76.040677,116.61274 L76.1324745,116.683444 C76.7895896,117.148139 77.7122981,116.957554 78.1283637,116.270155 L78.1818871,116.173355 L85.0771482,102.469032 Z M101.593478,81.4131803 C102.910994,80.9239542 104.233656,80.5901703 105.511063,80.3753746 L105.987871,80.3003326 L106.459845,80.2360185 C106.616299,80.216321 106.771849,80.1983403 106.926396,80.1820051 L107.386932,80.1378654 L107.840863,80.1031719 C108.366367,80.0680405 108.877179,80.0513232 109.36908,80.0499673 L109.785979,80.052496 L110.193024,80.0621213 C110.326998,80.0664651 110.459231,80.0719205 110.589625,80.0784163 L110.975191,80.1009537 C111.0385,80.1052064 111.101324,80.1097013 111.163652,80.1144297 L111.531558,80.1455297 L111.886953,80.181804 L112.229246,80.2228255 L112.557847,80.268167 L112.872164,80.3174014 L113.171607,80.3701013 L113.455585,80.4258396 L113.723509,80.4841892 L113.974786,80.5447228 C114.015246,80.55497 114.054987,80.5652904 114.093998,80.5756751 L114.3192,80.6386837 L114.526278,80.7028083 L114.714644,80.7676218 L114.883706,80.8326969 L115.032874,80.8976064 L115.161557,80.9619232 C115.35863,81.0683866 115.467888,81.1706001 115.477026,81.2596639 C115.492683,81.4135952 115.21268,81.5716963 114.81558,81.7341913 L114.535458,81.8431747 L114.232397,81.9534747 L113.604486,82.1780837 C112.933987,82.4243375 112.350328,82.6801743 112.391639,82.9462693 C112.436637,83.2355531 113.060039,83.3896841 113.874129,83.4927967 L114.233569,83.5341095 L114.609576,83.5706469 L116.143635,83.6984771 L116.500746,83.7332135 C117.308496,83.8184235 117.919218,83.9367494 117.945197,84.1723256 C117.970668,84.4027457 117.429649,84.6747649 116.70932,84.944582 L116.365538,85.068797 L116.004751,85.1917424 C115.943673,85.2120743 115.882238,85.2323135 115.820624,85.2524399 L114.241811,85.7539296 L113.956636,85.8491604 C113.912389,85.8643947 113.869901,85.879297 113.829348,85.8938473 L113.610658,85.9767664 C113.418008,86.0551431 113.307703,86.1194137 113.317811,86.1652721 C113.33138,86.2275085 113.559749,86.2282432 113.897115,86.2019332 L114.168924,86.1776682 L115.130407,86.076326 L115.631932,86.0295847 L115.951249,86.0072822 C116.518063,85.975358 116.9659,85.9981632 117.01972,86.1652721 C117.066965,86.3126841 116.798545,86.5430729 116.410145,86.7904338 L116.187567,86.9266444 L115.948249,87.063841 L115.57332,87.2662777 L115.323025,87.3955254 L114.96545,87.5719685 L114.226855,87.9364249 L113.874956,88.1174932 C113.815093,88.1489876 113.754644,88.1811356 113.693639,88.2139301 L113.321187,88.4183998 C113.131872,88.5244579 112.938105,88.6362091 112.74071,88.7534643 L112.341329,88.9952575 L111.933739,89.2513926 C111.79667,89.339124 111.658478,89.4291897 111.519405,89.5215338 L111.099794,89.8053453 C110.888912,89.9506127 110.676601,90.1008805 110.463683,90.25596 L110.037284,90.5724784 L109.610733,90.9014919 C106.414699,93.4151113 103.329497,96.9546817 103.136172,100.882788 C103.130559,100.996508 103.127432,101.109273 103.126694,101.221107 L96.9418894,108.135381 L85.4458568,99.2498145 L85.3536984,99.1842414 C84.6956099,98.7544347 83.8038944,98.9566376 83.3988223,99.6284905 L83.3466692,99.7230026 L76.4818422,113.365537 L64.612457,103.432708 L64.5186002,103.360631 C63.9744298,102.978058 63.2300178,103.034417 62.750446,103.494497 L62.6686595,103.579871 L53.9960627,113.428831 L47.1089713,105.267652 C46.216139,102.940447 46.2089959,98.7724433 47.0875422,92.7636401 C48.4053616,83.7504353 50.3264165,78.7055539 51.2626267,76.8587926 L53.4104656,89.7087499 L53.4444123,89.8067266 C53.7535308,90.6033347 54.7168753,90.9327263 55.453586,90.4947246 L55.5444307,90.4359558 L66.1224343,83.0146601 L70.9297194,91.37527 L70.9884427,91.4687598 C71.4209899,92.1008987 72.2939095,92.2629405 72.9269172,91.8286028 L73.0156414,91.7624839 L82.8610437,83.8126686 L85.5342843,88.5946932 L85.5907815,88.6873289 C86.0651359,89.4021774 87.0814255,89.5177947 87.7061013,88.9290313 L87.7852831,88.8482328 L90.5977772,85.7434779 C92.4953984,85.7520901 93.9559822,85.4737626 94.9795287,84.9084956 L95.3373841,84.7065259 L95.8889723,84.3824961 L97.2617832,83.5566537 L97.894635,83.1860866 L98.333754,82.9375796 L98.7877593,82.6898078 C99.6343306,82.2372314 100.56076,81.796595 101.593478,81.4131803 Z M145.695034,80.3318484 L147.945777,81.6311156 L150.392239,83.0568857 L152.128648,84.0801294 C154.674555,92.5678143 155.897095,103.267124 154.248043,112.126063 L149.78031,101.87129 L149.72917,101.766312 C149.488745,101.321489 149.022003,101.041699 148.513518,101.038194 L148.403985,101.041713 L139.325497,101.68794 L135.8434,95.8333198 C135.889801,93.4822241 135.747462,91.1034148 135.377566,88.7715926 C135.153922,87.361795 134.841482,85.9337881 134.442956,84.5044 L139.478267,85.7346325 L139.598944,85.7585601 C140.002314,85.8202757 140.413166,85.7026094 140.721622,85.4370293 L140.810977,85.3529493 L145.695034,80.3318484 Z M86.7508445,61.6454602 C93.0134712,62.3369753 95.0490336,63.1882996 99.5490788,65.0477837 C100.99706,65.6461748 102.470164,66.2636107 103.96839,66.9000914 L106.234572,67.8690962 L106.932988,68.1255468 L107.362578,68.2893596 L107.763353,68.4474492 L108.135312,68.5998154 L108.478455,68.7464582 L108.792782,68.8873777 L109.078293,69.0225738 C109.123477,69.0446296 109.16746,69.0664468 109.210243,69.0880256 L109.45253,69.2146368 C109.832329,69.4208858 110.092062,69.6032877 110.231728,69.7618422 C111.111279,70.7610815 111.02569,72.6938663 110.386206,73.7477353 C109.760264,74.779973 108.58352,75.0551551 106.993799,75.1279798 L106.587845,75.1422912 L106.165162,75.1500971 L105.500818,75.1538212 L104.528587,75.1540629 L103.980558,75.1571467 L103.415267,75.1656847 C101.216074,75.2122319 98.6508506,75.4370384 95.8854422,76.5075721 C95.7507837,76.559698 95.6156875,76.6138146 95.480363,76.6698192 L95.0739139,76.843394 C94.9383421,76.9030717 94.8027513,76.9645347 94.6673509,77.0276801 L94.2619302,77.2220613 L93.8589081,77.4259211 C93.4575039,77.6343148 93.0615817,77.8560019 92.6767943,78.088209 L92.2959279,78.3238199 C89.7843539,79.9165673 87.4466919,86.5400041 87.0208195,85.5573612 C86.7369045,84.9022659 85.8926872,83.392392 84.4881676,81.0277395 L84.4301096,80.9328397 C84.0016685,80.2909656 83.1215072,80.1221205 82.4834449,80.5594027 L82.394015,80.6260093 C76.4845008,85.9517027 73.197356,88.60559 72.5325806,88.5876711 C71.8678052,88.5696312 70.283478,85.8143102 67.7795991,80.3217081 L67.7208678,80.228235 C67.3086005,79.6260677 66.4916895,79.4458115 65.8617218,79.8180035 L65.7687026,79.877992 C59.3452732,84.7803435 55.9264234,87.1785031 55.512153,87.0724708 C55.0978826,86.9664385 54.6278736,84.4838992 54.1021258,79.6248531 C55.6428879,77.5721674 57.0417908,75.9035719 58.2988345,74.6190664 L58.8304792,74.0870327 L59.1331672,73.7978267 L59.4638351,73.4921073 L59.8715015,73.1271113 L60.2268466,72.8182488 L60.7655206,72.3646583 L61.0622264,72.1217295 L61.5409497,71.7393814 L61.8822582,71.4736598 L62.426975,71.060809 L62.8116722,70.7772099 L63.2133847,70.4878363 L63.6319185,70.1934745 L64.0670791,69.8949111 C64.1409807,69.8448441 64.2155669,69.7946348 64.2908338,69.7442995 L64.7505705,69.4409083 L65.2264484,69.1352817 C65.3877429,69.033121 65.5516953,68.9307188 65.7182732,68.8282062 L66.2258506,68.5204682 C66.3117488,68.469167 66.3982952,68.417871 66.4854858,68.3665966 L67.016328,68.0593396 C67.3753333,67.8548488 67.7445165,67.6512271 68.1236187,67.4495233 L68.6996789,67.1485371 C71.6640845,65.6278794 75.593788,64.6637814 79.096523,63.7200055 C79.7135766,63.5537468 76.9749178,61.7414271 77.7048282,61.6454602 C78.606698,61.5268845 80.4882178,60.9539451 86.7508445,61.6454602 Z M131.640643,66.7225641 L145.227307,69.4223083 L145.250249,69.455501 C147.470237,72.7521368 150.720228,76.5793831 152.160501,80.3163682 L148.974524,79.0224999 L146.147113,77.3963607 L146.0418,77.3417113 C145.543251,77.1092357 144.951888,77.1916394 144.536904,77.5514116 L144.450776,77.6327374 L139.366085,82.8583203 L133.445959,81.4120208 C132.528909,78.9101101 131.351647,76.4415126 129.928911,74.097765 L131.640643,66.7225641 Z M129.467812,54.2022052 C134.605687,57.3759303 140.045921,61.0209361 143.810332,65.7945509 L130.862165,63.746863 L130.756897,63.7300175 C130.09348,63.6493526 129.464181,64.0517184 129.262723,64.6844953 L129.233176,64.7920483 L127.804602,70.9427804 C125.593479,67.9754211 122.951699,65.3095288 119.914978,63.1669616 L118.342303,55.8775327 L129.467812,54.2022052 Z M90.9259289,67.8690962 C90.1573171,67.8690962 89.5342341,68.4882999 89.5342341,69.2521264 C89.5342341,70.0159529 90.1573171,70.6351566 90.9259289,70.6351566 C91.6945408,70.6351566 92.3176238,70.0159529 92.3176238,69.2521264 C92.3176238,68.4882999 91.6945408,67.8690962 90.9259289,67.8690962 Z M111.918907,47.0627578 C116.511941,48.167694 125.250261,51.8524566 125.535318,51.9970693 L116.4638,53.3628857 L116.361934,53.3820305 C115.661486,53.5403515 115.196672,54.2068995 115.292812,54.9138129 L115.311481,55.0200942 L116.632901,61.14564 C116.252656,60.9437068 115.867346,60.7497141 115.477026,60.5639997 C113.368565,59.5605851 111.036545,58.7620185 108.574403,58.1439829 L104.080973,52.2405946 L111.918907,47.0627578 Z M90.2349894,47.3518755 L86.8691196,50.3242531 L86.7941798,50.3954441 C86.2961385,50.9046448 86.2692509,51.709409 86.7296845,52.2502034 L86.8109385,52.3377957 L90.9517975,56.4396424 C88.1400305,56.5207526 85.4252653,56.7517981 82.9294711,57.1010357 L82.0995691,57.2227374 L81.6709449,57.2896056 L78.9698397,57.728961 L78.283987,57.8353403 L77.6040997,57.934543 L77.1566731,57.9952609 L76.715674,58.0506437 L76.2826129,58.0998332 L75.8590004,58.1419713 L75.4463469,58.1761998 C75.3785685,58.1811978 75.3113096,58.1858304 75.2446018,58.1900798 L74.851219,58.2108348 C73.2417737,58.2769618 72.0160598,58.0812378 71.6657773,57.3443054 C71.5456058,57.0915026 71.7765827,56.5087247 72.3528197,55.7470966 L72.5268485,55.5247524 C72.6185553,55.4112775 72.7172967,55.2944464 72.8230556,55.1746996 L73.0439251,54.9314489 L73.2834774,54.6812063 C73.324958,54.6389601 73.3672158,54.5964552 73.4102501,54.5537079 L73.6777695,54.2944462 C73.7700454,54.2071432 73.8654224,54.1190013 73.9638954,54.0301509 L74.2685973,53.7616052 C74.530247,53.5362637 74.811215,53.3073107 75.1114218,53.0767859 L75.4808994,52.7995323 C77.2481755,51.5033798 79.6177817,50.1835246 82.57576,49.1981882 C84.8096518,48.4540534 87.3627283,47.8386158 90.2349894,47.3518755 Z M106.683602,46 C107.164489,46.0804931 107.642015,46.1649005 108.11618,46.2532222 L101.308952,50.7504144 L101.224771,50.8105479 C100.658698,51.2471201 100.520166,52.0435337 100.904334,52.6433256 L100.96935,52.7363145 L104.433757,57.2880612 C101.310268,56.7693643 98.0706365,56.4964423 94.8813312,56.42597 L89.8227203,51.416477 L95.1960235,46.6728374 C98.6563521,46.2998298 102.485545,46.0755507 106.683602,46 Z" id="形状" fill="#FFFFFF" transform="translate(100.000000, 100.500000) scale(-1, 1) translate(-100.000000, -100.500000) "></path>
        </g>
    </g>
</svg>