<svg width="620" height="620" viewBox="0 0 620 620" fill="none" xmlns="http://www.w3.org/2000/svg">
<title>Pontem</title>
<path d="M309.527 17C148.25 17 17 148.194 17 309.535C17 425.477 84.8591 525.928 182.924 573.235V573.413H183.341C221.59 591.764 264.367 602.071 309.527 602.071C470.805 602.071 602.055 470.817 602.055 309.535C602.055 148.254 470.805 17 309.527 17ZM309.527 41.0105C457.578 41.0105 578.045 161.48 578.045 309.535C578.045 352.075 568.036 392.291 550.401 428.099C511.735 409.331 472.473 395.39 432.854 385.976V161.957C432.854 154.212 426.658 147.896 419.091 147.896H369.88H245.958H196.746C189.12 147.896 182.984 154.212 182.984 161.957V386.989C144.556 396.462 106.367 410.106 68.7732 428.099C51.0786 392.291 41.0693 352.075 41.0693 309.476C41.0098 161.48 161.476 41.0105 309.527 41.0105ZM84.2037 455.267C116.018 439.478 149.084 427.384 182.924 419.043V546.245C142.828 524.737 108.869 493.279 84.2037 455.267ZM245.958 570.375V270.63C245.958 236.014 274.376 207.178 308.336 207.178C342.295 207.178 369.88 235.24 369.88 269.915C369.88 270.153 369.82 270.392 369.82 270.63H369.88V374.894C340.925 371.617 311.851 370.426 282.837 371.975L258.886 406.65C296.122 403.493 332.346 403.79 368.093 407.782C368.39 407.842 368.748 407.842 369.046 407.842C369.284 407.842 369.522 407.901 369.88 407.961C376.076 408.676 398.834 411.595 419.568 416.779L369.88 433.64V571.09C350.457 575.558 330.32 578.001 309.587 578.001C287.603 578.06 266.333 575.32 245.958 570.375ZM432.854 547.913V419.579C466.694 428.099 500.236 440.551 533.838 456.876C508.577 495.185 473.784 526.643 432.854 547.913Z" fill="url(#paint0_linear)"/>
<defs>
<linearGradient id="paint0_linear" x1="309.523" y1="614.834" x2="309.523" y2="-72.7024" gradientUnits="userSpaceOnUse">
<stop offset="0.0858" stop-color="#8D29C1"/>
<stop offset="0.2383" stop-color="#942BBB"/>
<stop offset="0.4667" stop-color="#A92FAC"/>
<stop offset="0.7413" stop-color="#CA3793"/>
<stop offset="1" stop-color="#F03F77"/>
</linearGradient>
</defs>
</svg>
