<svg width="1787" height="1787" viewBox="0 0 1787 1787" fill="none" xmlns="http://www.w3.org/2000/svg">
<rect x="549.491" y="343.977" width="486.457" height="486.457" transform="rotate(-45 549.491 343.977)" fill="#002060"/>
<rect x="549.491" y="1443.02" width="486.457" height="486.457" transform="rotate(-45 549.491 1443.02)" fill="#002060"/>
<rect x="1099.04" y="896.209" width="486.457" height="486.457" transform="rotate(-45 1099.04 896.209)" fill="#002060"/>
<path d="M994.84 895.871L1237.08 653.634L1479.31 895.871L1237.08 1138.11L994.84 895.871Z" fill="#4E87F7"/>
<rect y="896.209" width="486.457" height="486.457" transform="rotate(-45 0 896.209)" fill="#002060"/>
<path d="M306.947 895.871L549.185 653.634L791.422 895.871L549.185 1138.11L306.947 895.871Z" fill="#4E87F7"/>
<path d="M650.894 551.926L893.131 309.688L1135.37 551.926L893.131 794.163L650.894 551.926Z" fill="#4E87F7"/>
<path d="M650.894 1239.82L893.131 997.581L1135.37 1239.82L893.131 1482.06L650.894 1239.82Z" fill="#4E87F7"/>
</svg>
