<?xml version="1.0" encoding="UTF-8"?>
<svg xmlns="http://www.w3.org/2000/svg" version="1.1" viewBox="0 0 481.9 481.9">
  <defs>
    <style>
      .cls-1 {
        fill: #fff;
      }

      .cls-2 {
        fill: #2849d3;
      }
    </style>
  </defs>
  <!-- Generator: Adobe Illustrator 28.7.1, SVG Export Plug-In . SVG Version: 1.2.0 Build 142)  -->
  <g>
    <g id="_Слой_1" data-name="Слой_1">
      <circle class="cls-2" cx="240.9" cy="240.9" r="240.7"/>
      <g id="Logo">
        <g>
          <path class="cls-1" d="M241,267.8c17.8,0,32.2-14.4,32.2-32.2s-14.4-32.2-32.2-32.2-32.2,14.4-32.2,32.2,14.4,32.2,32.2,32.2h0Z"/>
          <path class="cls-1" d="M399.9,241.8c-1.2,0-2.4.1-3.5.3-4.3-10.7-12.1-17.8-21-17.8s-.9,0-1.3,0v-35.7c0-16.2-13.2-29.4-29.4-29.4h-73.4v-.9c0-5.2-4.2-9.5-9.5-9.5h-17.2v-29.9c8.4-2.1,14.6-9.7,14.6-18.7s-8.6-19.3-19.3-19.3-19.3,8.6-19.3,19.3,6.2,16.6,14.6,18.7v29.9h-17.2c-5.2,0-9.5,4.2-9.5,9.5v.9h-73.4c-16.2,0-29.4,13.2-29.4,29.4v35.7c-8.6.4-16,7.4-20.2,17.8-1.1-.2-2.3-.3-3.5-.3-10.7,0-19.3,8.6-19.3,19.3s8.6,19.3,19.3,19.3,2.4-.1,3.5-.3c4.2,10.4,11.6,17.4,20.2,17.8v35.7c0,16.2,13.2,29.4,29.4,29.4h209.6c16.2,0,29.4-13.2,29.4-29.4v-35.7c.4,0,.9,0,1.3,0,8.9,0,16.7-7.1,21-17.8,1.1.2,2.3.3,3.5.3,10.7,0,19.3-8.6,19.3-19.3s-8.6-19.3-19.3-19.3h0ZM241,181.5c29.8,0,54.1,24.2,54.1,54.1s-24.2,54.1-54.1,54.1-54.1-24.2-54.1-54.1,24.2-54.1,54.1-54.1h0ZM326.6,300.5c-1.3,1.5-32.5,37.5-89,37.5s-82.1-37-83.1-38.6c-3.3-5.1-1.9-11.8,3.2-15.1,5-3.3,11.8-1.9,15.1,3.2.9,1.3,19.9,28.7,64.8,28.7s71.3-28.6,72.3-29.8c3.9-4.5,10.8-5.1,15.4-1.2,4.6,3.9,5.1,10.8,1.2,15.4h0Z"/>
        </g>
      </g>
    </g>
  </g>
</svg>