<?xml version="1.0" encoding="UTF-8"?>
<svg xmlns="http://www.w3.org/2000/svg" version="1.1" viewBox="0 0 500 500">
  <defs>
    <style>
      .cls-1 {
        fill: #fff;
      }

      .cls-2 {
        fill: #2849d3;
      }
    </style>
  </defs>
  <!-- Generator: Adobe Illustrator 28.7.1, SVG Export Plug-In . SVG Version: 1.2.0 Build 142)  -->
  <g>
    <g id="Logo">
      <rect class="cls-2" x="-6.56" y="-5.55" width="512.41" height="512"/>
      <g>
        <path class="cls-1" d="M249.65,280.13c19.03,0,34.51-15.48,34.51-34.51s-15.48-34.51-34.51-34.51-34.51,15.48-34.51,34.51,15.48,34.51,34.51,34.51Z"/>
        <path class="cls-1" d="M419.97,252.24c-1.29,0-2.54.13-3.76.36-4.6-11.45-12.97-19.11-22.53-19.11-.47,0-.95.02-1.41.06v-38.26c0-17.33-14.18-31.52-31.52-31.52h-78.68v-.93c0-5.59-4.53-10.13-10.13-10.13h-18.4v-32.06c8.97-2.26,15.63-10.36,15.63-20.03,0-11.42-9.26-20.68-20.68-20.68s-20.68,9.26-20.68,20.68c0,9.67,6.65,17.77,15.63,20.03v32.06h-18.4c-5.59,0-10.13,4.53-10.13,10.13v.93h-78.68c-17.33,0-31.52,14.18-31.52,31.52v38.24c-9.19.46-17.19,7.98-21.65,19.08-1.22-.22-2.47-.36-3.76-.36-11.42,0-20.68,9.26-20.68,20.68s9.26,20.68,20.68,20.68c1.28,0,2.54-.13,3.76-.36,4.46,11.1,12.45,18.62,21.65,19.08v38.24c0,17.33,14.18,31.52,31.52,31.52h224.51c17.33,0,31.52-14.18,31.52-31.52v-38.26c.47.04.94.06,1.41.06,9.56,0,17.93-7.66,22.53-19.11,1.22.22,2.47.36,3.76.36,11.42,0,20.68-9.26,20.68-20.68s-9.26-20.68-20.68-20.68ZM249.65,187.69c31.94,0,57.92,25.98,57.92,57.92s-25.98,57.92-57.92,57.92-57.92-25.98-57.92-57.92,25.98-57.92,57.92-57.92ZM341.36,315.17c-1.39,1.64-34.8,40.13-95.32,40.13s-87.92-39.64-89.01-41.33c-3.52-5.42-1.99-12.67,3.44-16.19,5.39-3.51,12.62-2,16.16,3.38.94,1.4,21.29,30.73,69.42,30.73s76.38-30.61,77.51-31.91c4.22-4.87,11.6-5.44,16.49-1.25,4.89,4.2,5.49,11.54,1.32,16.45Z"/>
      </g>
    </g>
  </g>
</svg>