<svg xmlns="http://www.w3.org/2000/svg" xmlns:xlink="http://www.w3.org/1999/xlink" width="179" zoomAndPan="magnify" viewBox="0 0 134.25 134.250003" height="179" preserveAspectRatio="xMidYMid meet" version="1.0"><defs><clipPath id="e2e541abdc"><path d="M 0 0 L 133.503906 0 L 133.503906 133.503906 L 0 133.503906 Z M 0 0 " clip-rule="nonzero"/></clipPath><clipPath id="92c404c5c6"><path d="M 0 0 L 133.503906 0 L 133.503906 133.503906 L 0 133.503906 Z M 0 0 " clip-rule="nonzero"/></clipPath></defs><g clip-path="url(#e2e541abdc)"><path fill="#ffffff" d="M 0 0 L 134.25 0 L 134.25 141.707031 L 0 141.707031 Z M 0 0 " fill-opacity="1" fill-rule="nonzero"/><path fill="#ffffff" d="M 0 0 L 133.503906 0 L 133.503906 133.503906 L 0 133.503906 Z M 0 0 " fill-opacity="1" fill-rule="nonzero"/><path fill="#ffffff" d="M 0 0 L 133.503906 0 L 133.503906 133.503906 L 0 133.503906 Z M 0 0 " fill-opacity="1" fill-rule="nonzero"/></g><path fill="#000000" d="M 121.570312 66.378906 C 121.570312 68.1875 121.480469 69.988281 121.304688 71.789062 C 121.128906 73.585938 120.863281 75.375 120.511719 77.148438 C 120.15625 78.917969 119.71875 80.671875 119.195312 82.402344 C 118.667969 84.128906 118.0625 85.832031 117.371094 87.5 C 116.679688 89.171875 115.90625 90.800781 115.054688 92.394531 C 114.203125 93.992188 113.273438 95.539062 112.269531 97.042969 C 111.265625 98.546875 110.191406 99.996094 109.042969 101.390625 C 107.894531 102.789062 106.683594 104.128906 105.40625 105.40625 C 104.128906 106.683594 102.789062 107.894531 101.390625 109.042969 C 99.996094 110.191406 98.546875 111.265625 97.042969 112.269531 C 95.539062 113.273438 93.992188 114.203125 92.394531 115.054688 C 90.800781 115.90625 89.171875 116.679688 87.5 117.371094 C 85.832031 118.0625 84.128906 118.667969 82.402344 119.195312 C 80.671875 119.71875 78.917969 120.15625 77.148438 120.511719 C 75.375 120.863281 73.585938 121.128906 71.789062 121.304688 C 69.988281 121.480469 68.1875 121.570312 66.378906 121.570312 C 64.570312 121.570312 62.769531 121.480469 60.96875 121.304688 C 59.171875 121.128906 57.382812 120.863281 55.613281 120.511719 C 53.839844 120.15625 52.085938 119.71875 50.359375 119.195312 C 48.628906 118.667969 46.929688 118.0625 45.257812 117.371094 C 43.589844 116.679688 41.957031 115.90625 40.363281 115.054688 C 38.769531 114.203125 37.21875 113.273438 35.714844 112.269531 C 34.214844 111.265625 32.761719 110.191406 31.367188 109.042969 C 29.96875 107.894531 28.632812 106.683594 27.351562 105.40625 C 26.074219 104.128906 24.863281 102.789062 23.714844 101.390625 C 22.570312 99.996094 21.492188 98.546875 20.488281 97.042969 C 19.484375 95.539062 18.554688 93.992188 17.703125 92.394531 C 16.851562 90.800781 16.082031 89.171875 15.390625 87.5 C 14.695312 85.832031 14.089844 84.128906 13.5625 82.402344 C 13.039062 80.671875 12.601562 78.917969 12.246094 77.148438 C 11.894531 75.375 11.628906 73.585938 11.453125 71.789062 C 11.277344 69.988281 11.1875 68.1875 11.1875 66.378906 C 11.1875 64.570312 11.277344 62.769531 11.453125 60.96875 C 11.628906 59.171875 11.894531 57.382812 12.246094 55.613281 C 12.601562 53.839844 13.039062 52.085938 13.5625 50.359375 C 14.089844 48.628906 14.695312 46.929688 15.390625 45.257812 C 16.082031 43.589844 16.851562 41.957031 17.703125 40.363281 C 18.554688 38.769531 19.484375 37.21875 20.488281 35.714844 C 21.492188 34.214844 22.570312 32.761719 23.714844 31.367188 C 24.863281 29.96875 26.074219 28.632812 27.351562 27.351562 C 28.632812 26.074219 29.96875 24.863281 31.367188 23.714844 C 32.761719 22.570312 34.214844 21.492188 35.714844 20.488281 C 37.21875 19.484375 38.769531 18.554688 40.363281 17.703125 C 41.957031 16.851562 43.589844 16.082031 45.257812 15.390625 C 46.929688 14.695312 48.628906 14.089844 50.359375 13.5625 C 52.085938 13.039062 53.839844 12.601562 55.613281 12.246094 C 57.382812 11.894531 59.171875 11.628906 60.96875 11.453125 C 62.769531 11.277344 64.570312 11.1875 66.378906 11.1875 C 68.1875 11.1875 69.988281 11.277344 71.789062 11.453125 C 73.585938 11.628906 75.375 11.894531 77.148438 12.246094 C 78.917969 12.601562 80.671875 13.039062 82.402344 13.5625 C 84.128906 14.089844 85.832031 14.695312 87.5 15.390625 C 89.171875 16.082031 90.800781 16.851562 92.394531 17.703125 C 93.992188 18.554688 95.539062 19.484375 97.042969 20.488281 C 98.546875 21.492188 99.996094 22.570312 101.390625 23.714844 C 102.789062 24.863281 104.128906 26.074219 105.40625 27.351562 C 106.683594 28.632812 107.894531 29.96875 109.042969 31.367188 C 110.191406 32.761719 111.265625 34.214844 112.269531 35.714844 C 113.273438 37.21875 114.203125 38.769531 115.054688 40.363281 C 115.90625 41.957031 116.679688 43.589844 117.371094 45.257812 C 118.0625 46.929688 118.667969 48.628906 119.195312 50.359375 C 119.71875 52.085938 120.15625 53.839844 120.511719 55.613281 C 120.863281 57.382812 121.128906 59.171875 121.304688 60.96875 C 121.480469 62.769531 121.570312 64.570312 121.570312 66.378906 Z M 121.570312 66.378906 " fill-opacity="1" fill-rule="nonzero"/><path fill="#496ddb" d="M 81.445312 53.699219 C 80.625 50.566406 78.683594 48.554688 75.476562 47.660156 C 72.792969 46.914062 70.035156 46.613281 67.273438 46.464844 C 64.140625 46.539062 60.933594 46.765625 57.875 47.660156 C 54.667969 48.554688 52.730469 50.566406 51.910156 53.699219 C 51.460938 55.414062 51.3125 57.207031 51.238281 58.921875 C 51.089844 60.5625 51.089844 60.785156 52.207031 60.785156 L 80.402344 60.785156 C 82.339844 60.785156 82.339844 60.785156 82.117188 58.847656 C 82.042969 57.207031 81.816406 55.414062 81.445312 53.699219 Z M 81.445312 53.699219 " fill-opacity="1" fill-rule="nonzero"/><path fill="#496ddb" d="M 80.921875 72.269531 L 52.804688 72.269531 C 50.867188 72.269531 50.867188 72.269531 51.089844 74.210938 C 51.164062 75.925781 51.3125 77.714844 51.761719 79.429688 C 52.582031 82.5625 54.519531 84.578125 57.726562 85.472656 C 60.414062 86.21875 63.171875 86.515625 65.933594 86.664062 C 69.0625 86.589844 72.269531 86.367188 75.328125 85.472656 C 78.535156 84.578125 80.476562 82.5625 81.296875 79.429688 C 81.742188 77.714844 81.890625 75.925781 81.96875 74.210938 C 82.117188 72.570312 82.117188 72.347656 80.921875 72.269531 Z M 80.921875 72.269531 " fill-opacity="1" fill-rule="nonzero"/><g clip-path="url(#92c404c5c6)"><path fill="#496ddb" d="M 66.527344 0 C 29.832031 0 0 29.832031 0 66.527344 C 0 103.222656 29.832031 133.058594 66.527344 133.058594 C 103.296875 133.058594 133.058594 103.222656 133.058594 66.527344 C 133.058594 29.832031 103.296875 0 66.527344 0 Z M 94.570312 51.535156 C 94.871094 53.476562 95.09375 55.414062 95.316406 57.429688 L 95.316406 60.859375 L 105.609375 60.859375 C 106.429688 60.859375 107.175781 60.859375 107.921875 61.007812 C 109.710938 61.308594 110.832031 62.351562 110.90625 64.066406 L 110.90625 69.0625 C 110.832031 70.78125 109.710938 71.824219 107.921875 72.121094 C 107.175781 72.269531 106.429688 72.269531 105.609375 72.269531 L 95.167969 72.269531 L 95.167969 75.628906 C 94.945312 77.640625 94.722656 79.582031 94.421875 81.519531 C 94.125 83.457031 93.601562 85.175781 92.929688 86.664062 L 106.132812 86.664062 C 107.699219 86.664062 109.191406 86.816406 110.234375 88.308594 C 111.800781 90.769531 110.980469 94.050781 108.519531 95.617188 C 108.21875 95.839844 107.847656 96.0625 107.472656 96.136719 C 104.714844 97.03125 101.878906 97.183594 98.972656 97.332031 C 87.113281 97.554688 74.957031 97.628906 66.753906 97.628906 C 57.054688 97.628906 44.078125 97.480469 34.234375 97.257812 C 31.324219 97.183594 28.492188 97.03125 25.804688 96.0625 C 25.359375 95.988281 25.058594 95.839844 24.761719 95.542969 C 22.300781 93.976562 21.480469 90.769531 23.046875 88.230469 C 24.015625 86.742188 25.507812 86.589844 27.074219 86.589844 L 40.125 86.589844 C 39.527344 85.097656 39.007812 83.382812 38.707031 81.519531 C 38.410156 79.582031 38.1875 77.640625 37.964844 75.628906 L 37.964844 72.195312 L 27.519531 72.195312 C 26.699219 72.195312 25.953125 72.195312 25.210938 72.046875 C 23.417969 71.75 22.300781 70.703125 22.226562 68.988281 L 22.226562 63.992188 C 22.300781 62.277344 23.417969 61.234375 25.210938 60.933594 C 25.953125 60.785156 26.699219 60.785156 27.519531 60.785156 L 37.964844 60.785156 L 37.964844 57.429688 C 38.1875 55.414062 38.410156 53.476562 38.707031 51.535156 C 39.007812 49.597656 39.527344 47.882812 40.199219 46.390625 L 27 46.390625 C 25.433594 46.390625 23.941406 46.242188 22.898438 44.75 C 21.332031 42.289062 22.152344 39.007812 24.613281 37.441406 C 24.910156 37.21875 25.285156 36.992188 25.65625 36.917969 C 28.417969 36.023438 31.25 35.875 34.085938 35.726562 C 45.941406 35.5 58.101562 35.425781 66.304688 35.425781 C 76 35.425781 89.050781 35.578125 98.824219 35.800781 C 101.730469 35.875 104.566406 36.023438 107.25 36.992188 C 107.699219 37.066406 107.996094 37.21875 108.296875 37.515625 C 110.757812 39.082031 111.578125 42.289062 110.011719 44.824219 C 109.039062 46.316406 107.550781 46.464844 105.984375 46.464844 L 92.929688 46.464844 C 93.75 47.957031 94.199219 49.597656 94.570312 51.535156 Z M 94.570312 51.535156 " fill-opacity="1" fill-rule="nonzero"/></g></svg>