<?xml version="1.0" encoding="utf-8"?>
<!-- Generator: Adobe Illustrator 21.0.0, SVG Export Plug-In . SVG Version: 6.00 Build 0)  -->
<svg version="1.1" id="layer_1" xmlns="http://www.w3.org/2000/svg" xmlns:xlink="http://www.w3.org/1999/xlink" x="0px" y="0px"
	 viewBox="0 0 43 43" style="enable-background:new 0 0 43 43;" xml:space="preserve">
<style type="text/css">
	.st0{fill:#F9FFF3;}
	.st1{fill:#ff5995;}
</style>
<title>clover</title>
<circle class="st0" cx="21.5" cy="21.5" r="21.2"/>
<path class="st1" d="M27.1,21.5c-3.1,0-5.6-2.5-5.6-5.6c0,3.1-2.5,5.5-5.6,5.6c3.1,0,5.6,2.5,5.6,5.6C21.5,24,24,21.5,27.1,21.5
	L27.1,21.5z M21.5,27.5c0,3.3-2.7,6-6,6s-6-2.7-6-6s2.7-6,6-6c-3.3,0-6-2.7-6-6s2.7-6,6-6s6,2.7,6,6c0-3.3,2.7-6,6-6s6,2.7,6,6
	s-2.7,6-6,6c3.3,0,6,2.7,6,6s-2.7,6-6,6S21.5,30.8,21.5,27.5L21.5,27.5z"/>
</svg>
