<svg id="Layer_1" data-name="Layer 1" xmlns="http://www.w3.org/2000/svg" xmlns:xlink="http://www.w3.org/1999/xlink" viewBox="0 0 1024 1024"><defs><style>.cls-1{fill:url(#linear-gradient);}.cls-2{fill:url(#linear-gradient-2);}.cls-3{fill:url(#linear-gradient-3);}.cls-4{fill:#9500ff;}.cls-5{fill:url(#linear-gradient-4);}</style><linearGradient id="linear-gradient" x1="861.35" y1="355.1" x2="713.31" y2="823.9" gradientUnits="userSpaceOnUse"><stop offset="0.08" stop-color="#62dfff"/><stop offset="1" stop-color="#97ecff"/></linearGradient><linearGradient id="linear-gradient-2" x1="58.51" y1="48.21" x2="288.79" y2="689.72" gradientUnits="userSpaceOnUse"><stop offset="0.03" stop-color="#6e17e8"/><stop offset="1" stop-color="#9500ff"/></linearGradient><linearGradient id="linear-gradient-3" x1="326.2" y1="294.51" x2="326.2" y2="672.84" xlink:href="#linear-gradient-2"/><linearGradient id="linear-gradient-4" x1="633.85" y1="-116.96" x2="781.9" y2="541" gradientUnits="userSpaceOnUse"><stop offset="0.08" stop-color="#6e17e8"/><stop offset="1" stop-color="#62dfff"/></linearGradient></defs><polygon class="cls-1" points="992.1 512 844.95 768 697.81 1024 550.67 768 697.81 512 844.95 256 992.1 512"/><polygon class="cls-2" points="326.2 384.02 179.06 128.03 31.91 384.02 179.06 640 326.2 384.02"/><polygon class="cls-3" points="473.36 640 326.2 384.02 179.06 640 326.2 895.99 473.36 640"/><polygon class="cls-4" points="543.09 518.7 473.35 640.01 326.21 384.01 395.95 262.7 543.09 518.7"/><polygon class="cls-5" points="992.1 0 844.95 256 697.81 512 550.67 256 603.85 163.47 421.83 163.47 422.03 163.15 328.24 0 992.1 0"/></svg>