<?xml version="1.0" encoding="utf-8"?>
<!-- Generator: Adobe Illustrator 24.0.1, SVG Export Plug-In . SVG Version: 6.00 Build 0)  -->
<svg version="1.1" id="layer_1" xmlns="http://www.w3.org/2000/svg" xmlns:xlink="http://www.w3.org/1999/xlink" x="0px" y="0px"
	 viewBox="0 0 600 600" style="enable-background:new 0 0 600 600;" xml:space="preserve">
<style type="text/css">
	.st0{fill:#0F0F0F;}
	.st1{fill:#FFA940;}
</style>
<path class="st0" d="M501.6,236.2C501.6,236.2,501.6,236.1,501.6,236.2c-0.4-1.4-0.7-2.7-1.1-4c0,0,0,0,0,0
	c-1.2-4.1-2.4-8.1-3.9-12.1c-14-39.5-40.4-73.2-74.5-96.3c-3.8-2.6-7.7-5-11.7-7.3c-0.4-0.3-0.9-0.5-1.3-0.8
	c-2.1-1.1-4.5-1.8-7.1-1.8c-5.5,0-10.4,3-12.9,7.5c0,0,0,0,0,0c-0.1,0.2-0.2,0.3-0.3,0.5c0,0,0,0,0,0.1l-9.4,16.2l-19,32.9
	l-17.1,29.7l-41.2,71.4l-1.3,2.3l-2.1,3.6c-0.8,1.8-1.1,3.7-1.1,5.8c0,8.5,6.9,15.4,15.4,15.4c1.1,0,2.3-0.1,3.3-0.3l1.2-0.3
	c0,0,0.1,0,0.1,0l0.7-0.2l3.7-1l80.2-21.5l33-8.8l36.7-9.8l16.2-4.3c0,0,0,0,0,0l5.1-1.4c0,0,0,0,0,0c5.1-2.4,8.6-7.5,8.6-13.5
	C501.7,237.4,501.7,236.8,501.6,236.2z M427.3,238.7l-33.1,8.9l-51.5,13.8l26.5-45.9l17.1-29.6l19-32.9c26.6,18.6,47.3,45,58.8,75.8
	L427.3,238.7z"/>
<path class="st1" d="M412.4,331.6c0,1.4-0.2,2.8-0.5,4.2c-0.2,0.6-0.4,1.2-0.6,1.8c-15.9,49.9-62.7,86.1-117.9,86.1
	c-17.6,0-34.3-3.7-49.4-10.2c-9.2-4-17.8-9.1-25.6-15.1c-8-6.1-15.2-13.2-21.5-21c-2.2-2.7-4.3-5.5-6.2-8.5
	c-4.9-7.3-9.1-15.2-12.4-23.5c-3.6-9-6.1-18.6-7.4-28.5c-0.8-5.5-1.1-11.1-1.1-16.9c0-63.8,48.3-116.4,110.4-123h0
	c1.2-0.1,2.4-0.3,3.7-0.3c9.3,0.1,16.8,7.7,16.8,17c0,2.2-0.4,4.3-1.2,6.3l-2.4,4.1c-2.6,3.5-6.6,5.9-11.2,6.5
	c-0.4,0-0.8,0.1-1.2,0.1c-45.4,4.4-81,42.8-81,89.4c0,2.7,0.1,5.4,0.3,8c0.9,10.1,3.4,19.7,7.4,28.5c1.3,2.9,2.7,5.7,4.3,8.4
	c3,5.2,6.5,10,10.5,14.5c2.9,3.3,6.1,6.4,9.5,9.2c7.6,6.4,16.2,11.6,25.6,15.2c10,3.9,20.9,6,32.3,6c40,0,73.9-26.2,85.5-62.3
	c0.2-0.6,0.4-1.2,0.6-1.9c1.8-4.8,5.8-8.6,10.7-10.2c0.6-0.2,1.2-0.3,1.8-0.5c1.1-0.2,2.3-0.3,3.4-0.3
	C404.8,314.7,412.4,322.3,412.4,331.6z"/>
<path class="st0" d="M488.3,309.3L488.3,309.3c-0.1,2-0.2,3.9-0.3,5.8c-7.7,100.7-91.9,180.1-194.6,180.1c-30.6,0-59.5-7-85.3-19.6
	c-9-4.3-17.5-9.4-25.7-15c-8.1-5.6-15.8-11.8-22.9-18.6c-16.4-15.4-30.1-33.6-40.4-53.9c-3.9-7.8-7.4-15.8-10.2-24.1
	c-3.2-9.2-5.7-18.7-7.5-28.5c-2.1-11.5-3.2-23.3-3.2-35.4c0-107.8,87.4-195.1,195.1-195.1c10.4,0,20.6,0.8,30.6,2.4
	c1.7,0.3,3.3,0.5,4.9,0.9c0,0,0,0,0,0c6.8,2.3,11.6,8.6,11.6,16.1c0,2.4-0.5,4.6-1.3,6.6c0,0.1-0.1,0.2-0.1,0.2l-1.7,3
	c0,0,0,0,0,0.1c-3.1,4.3-8.1,7.1-13.8,7.1c-0.2,0-0.4,0-0.6,0c0,0,0,0-0.1,0c-1.5-0.3-3-0.6-4.6-0.8c-8.1-1.3-16.4-1.9-24.9-1.9
	c-89.2,0-161.5,72.3-161.5,161.5c0,9.1,0.8,18,2.2,26.7c1.6,9.8,4.2,19.4,7.5,28.5c3,8.3,6.7,16.3,11,23.9
	c6.7,11.9,14.9,23,24.4,32.8c6.8,7.1,14.4,13.6,22.4,19.4c8,5.8,16.6,10.8,25.7,15c20.8,9.7,43.9,15.2,68.4,15.2
	c85.3,0,155.1-66.1,161.1-149.8c0,0,0,0,0,0c0.1-1.1,0.2-2.2,0.2-3.3c0,0,0,0,0,0c1-5.8,4.9-10.6,10.1-12.8c0,0,0,0,0.1,0l4.2-1.1h0
	c0.8-0.1,1.6-0.2,2.4-0.2C480.2,294.1,487.4,300.8,488.3,309.3z"/>
</svg>
