<svg data-name="Layer 1" xmlns="http://www.w3.org/2000/svg" viewBox="-40 -40 535.64 447.08" width="2500" height="2014"><path d="M214.52 62.29C133.14 67.44 95 125.63 88.29 137.12h-.61a15.5 15.5 0 0 0-13 23.92c-2.22 4.17-11.15 22.55-13.15 51.89l-20.68-20.35A13.48 13.48 0 0 1 37.3 178c23.88-74.91 80.94-111.3 80.94-111.3a15.48 15.48 0 0 0 21.87-12.45c88-40.41 162.51-8.37 178.09-.68a15.51 15.51 0 0 0 22.87 13.64 177.56 177.56 0 0 1 26.33 22.65l-20.22 20.22C311.47 70.13 257.7 62.7 242.39 61.37a15.49 15.49 0 0 0-27.87.92zM355.4 295.62a6.81 6.81 0 0 0 5 11.46h56.79v9.5a50.49 50.49 0 0 1-50.5 50.5h-276a50.49 50.49 0 0 1-50.5-50.5v-9.5l55.17-.08a7.29 7.29 0 0 0 6.77-4.33 7.26 7.26 0 0 0-1.53-8.13l-90-89.15a35.75 35.75 0 0 1-9-36c14-45.1 60.76-146.7 200.58-168.33 0 0 103-13 175 51 0 0 64.93 51.2 78 125 1.71 9.67-1.35 21.31-8.33 28.21zM56.18 319.08a34 34 0 0 0 34 34h276a34 34 0 0 0 34-34zm374.69-118.76a23 23 0 0 0 5.89-22.74c-7.83-26.75-31-86.21-87.61-124.49a15.46 15.46 0 0 0-23.06-13c-97.47-47.13-179.54-6.8-192.21.05a15.48 15.48 0 0 0-24.7 12.45 15.65 15.65 0 0 0 .27 2.85l-.27-.35c-57.77 37-79.91 96.9-88.41 122a19.68 19.68 0 0 0 4.78 20.29l104.16 105.18a8.07 8.07 0 0 0 11.2.27 8.08 8.08 0 0 0 .2-11.71l-6.45-9.37c-21.48-38.67-13.57-75.2-3.73-96.84l32.44 19.53a71 71 0 1 0 108.4-30.16l18.23-31.6c20.78 16.32 72.62 68 26.25 150.09a8 8 0 0 0 12.6 9.73zm-53.94-99.92l-25 25.77a7.33 7.33 0 0 1-10.72-.19c-11.7-13.1-44.28-43.06-100.44-47.68a15.49 15.49 0 0 1-24.23-.12A151.72 151.72 0 0 0 157.32 95l13.17 24.79a1.45 1.45 0 0 0 2 .58c63.53-34.75 123.72 5.7 123.72 5.7 78 54 52 134 52 134l32.35-32.34c1.93-30-7.73-52.05-11.71-59.7a15.53 15.53 0 1 1 14.09-7.42c8.72 16.22 12.64 41.59 13.84 50.89l21.85-21.84c2.84-2.84 2.86-7 1.61-10.86-11.32-34.46-27.87-60.15-43.31-78.4zm-203.84 37.52a8.19 8.19 0 0 1-11.09-3.21l-17.52-32.17a142 142 0 0 0-42.59 44A15.47 15.47 0 0 1 90 167.89c-9.86 14.56-13.3 44.92-14.39 58.88l32.23 31.68c-3.6-17.8-10.69-74 31.78-114a2.15 2.15 0 0 1 3 .06l8.87 8.86a2.16 2.16 0 0 1-.1 3.14 79.41 79.41 0 0 0-13.69 16L169.93 192a71 71 0 0 1 89.81-25l18.52-32.08c-45.86-24.36-89.04-5.78-105.17 3zm-84.91 6.16a9 9 0 1 0 9 9 9 9 0 0 0-9-9zm37-100a9 9 0 1 0 9 9 9 9 0 0 0-9-9zm104 16a9 9 0 1 0 9 9 9 9 0 0 0-9-9zm105-16a9 9 0 1 0 9 9 9 9 0 0 0-9-9zm36 100a9 9 0 1 0 9 9 9 9 0 0 0-9-9z" fill="#2e86ab"/></svg>
