<svg width="512" height="512" viewBox="0 0 512 512" fill="none" xmlns="http://www.w3.org/2000/svg">
<path d="M512 256C512 397.385 397.385 512 256 512C114.615 512 0 397.385 0 256C0 114.615 114.615 0 256 0C397.385 0 512 114.615 512 256Z" fill="#FEC125"/>
<path d="M512 256C512 397.385 397.385 512 256 512C114.615 512 0 397.385 0 256C0 114.615 114.615 0 256 0C397.385 0 512 114.615 512 256Z" fill="#FEC125"/>
<path d="M512 256C512 397.385 397.385 512 256 512C114.615 512 0 397.385 0 256C0 114.615 114.615 0 256 0C397.385 0 512 114.615 512 256Z" fill="#FEC125"/>
<path d="M512 256C512 397.385 397.385 512 256 512C114.615 512 0 397.385 0 256C0 114.615 114.615 0 256 0C397.385 0 512 114.615 512 256Z" fill="#FEC125"/>
<path d="M386 256C386 327.797 327.797 386 256 386C184.203 386 126 327.797 126 256C126 184.203 184.203 126 256 126C327.797 126 386 184.203 386 256Z" fill="white"/>
<path d="M386 256C386 327.797 327.797 386 256 386C184.203 386 126 327.797 126 256C126 184.203 184.203 126 256 126C327.797 126 386 184.203 386 256Z" fill="white"/>
<path d="M386 256C386 327.797 327.797 386 256 386C184.203 386 126 327.797 126 256C126 184.203 184.203 126 256 126C327.797 126 386 184.203 386 256Z" fill="white"/>
<path d="M386 256C386 327.797 327.797 386 256 386C184.203 386 126 327.797 126 256C126 184.203 184.203 126 256 126C327.797 126 386 184.203 386 256Z" fill="white"/>
<path d="M256.5 17L291.574 113.75H221.426L256.5 17Z" fill="white"/>
<path d="M256.5 496L291.574 399.25H221.426L256.5 496Z" fill="white"/>
<path d="M495.992 258.449L398.96 292.734L399.531 222.589L495.992 258.449Z" fill="white"/>
<path d="M17.0079 254.551L113.469 290.411L114.04 220.266L17.0079 254.551Z" fill="white"/>
<path d="M425.716 87.0115L382.179 180.26L332.537 130.698L425.716 87.0115Z" fill="white"/>
<path d="M87.2845 425.989L180.463 382.302L130.821 332.74L87.2845 425.989Z" fill="white"/>
<path d="M426.531 425.17L333.143 381.934L382.546 332.133L426.531 425.17Z" fill="white"/>
<path d="M86.4688 87.8297L130.455 180.867L179.857 131.066L86.4688 87.8297Z" fill="white"/>
</svg>
