<svg xmlns="http://www.w3.org/2000/svg" xmlns:xlink="http://www.w3.org/1999/xlink" width="54" height="54" fill="none" xmlns:v="https://vecta.io/nano"><style><![CDATA[.B{opacity:.6}.C{fill:#000}.D{opacity:.8}.E{fill-rule:evenodd}]]></style><g class="E"><path d="M30.223 21.658c3.126-3.181 8.351-5.465 10.734-6.35l-.024.031-8.617 11.221c-.572.803-1.717 2.636-2.842 4.57-1.039 1.787-2.068 3.671-2.611 4.918-.689-1.236-1.436-3.087-1.306-5.406.139-2.494 1.293-5.55 4.667-8.982z" fill="url(#A)" class="B"/><path d="M41.538 15.066l.307-.395-.492.171h-.001-.001 0c-2.071.721-7.932 3.126-11.352 6.606-3.415 3.475-4.608 6.597-4.753 9.176s.767 4.608 1.51 5.866h0 0c.005 0 .317.034.401.032.688-.021 2.619-.081 5.127-1.319 3.137-1.549 5.016-4.075 6.15-6.257.884-1.7 1.414-3.97 1.573-6.234.158-2.231.46-5.266 1.513-7.608l.017-.039zm-.58.243c-2.384.886-7.608 3.169-10.734 6.35-3.373 3.432-4.527 6.489-4.667 8.982-.13 2.319.617 4.17 1.306 5.406.533-1.221 1.53-3.053 2.547-4.807l.071-.122.043-.073.372-.634c.813-1.375 1.598-2.635 2.128-3.426l.292-.425.423-.579c1.675-2.257 6.142-8.003 8.057-10.466l.134-.172.003-.004.024-.031zm-1.598 2.56l-2.824 3.647-3.963 5.218c-.555.779-1.669 2.56-2.776 4.46l-.044.076-.217.375-.656 1.157-.358.648c-.577 1.057-1.076 2.035-1.394 2.771.007 0 .013 0 .02-.001h.002c.668-.02 2.546-.078 4.994-1.286 3.058-1.51 4.896-3.976 6.013-6.123.859-1.653 1.383-3.88 1.54-6.117.137-1.939.385-4.528 1.157-6.746l-1.495 1.923z" fill="url(#B)"/><path d="M40.853 15.944l-8.281 10.788c-.562.79-1.699 2.607-2.821 4.536l-2.625 4.95.02-.001h.002c.669-.021 2.546-.078 4.993-1.286 3.058-1.51 4.897-3.976 6.013-6.123.859-1.653 1.383-3.88 1.54-6.117.137-1.939.385-4.528 1.157-6.747z" fill="url(#C)" class="B"/><path d="M23.783 21.658c-3.126-3.181-8.35-5.465-10.734-6.35l.024.031 8.617 11.221c.572.803 1.717 2.636 2.842 4.57 1.039 1.787 2.067 3.671 2.611 4.918.689-1.236 1.436-3.087 1.306-5.406-.139-2.494-1.293-5.55-4.666-8.982z" fill="url(#D)" class="B"/><path d="M12.469 15.065l-.306-.394.492.171.002.001h0c2.072.721 7.932 3.125 11.352 6.605 3.415 3.475 4.609 6.597 4.753 9.176s-.767 4.608-1.511 5.866c-.005 0-.317.034-.401.032-.688-.021-2.619-.081-5.127-1.319-3.137-1.549-5.016-4.075-6.15-6.257-.884-1.7-1.414-3.97-1.574-6.234-.158-2.243-.464-5.299-1.529-7.646v-.002zm.684.88l5.456 7.048 2.767 3.659.058.081a31.66 31.66 0 0 1 .846 1.277c.57.897 1.279 2.062 1.981 3.27 1.055 1.814 2.09 3.713 2.618 4.939-.007 0-.013 0-.02-.001h-.002c-.668-.02-2.546-.078-4.994-1.286-3.058-1.51-4.897-3.976-6.013-6.123-.859-1.653-1.383-3.88-1.54-6.117-.137-1.939-.385-4.528-1.157-6.747zm11.493 15.381c1 1.727 1.973 3.52 2.497 4.721.689-1.236 1.436-3.087 1.306-5.406-.139-2.494-1.293-5.55-4.667-8.982-3.126-3.181-8.35-5.465-10.734-6.35l.024.031.006.008 5.898 7.618 2.713 3.594c.5.703 1.44 2.194 2.421 3.851l.415.708.12.207z" fill="url(#E)"/><path d="M13.152 15.944l8.281 10.788c.562.79 1.699 2.607 2.821 4.536l2.625 4.95-.02-.001h-.002c-.669-.021-2.546-.078-4.994-1.286-3.058-1.51-4.896-3.976-6.013-6.123-.859-1.653-1.383-3.88-1.54-6.117-.137-1.939-.385-4.528-1.157-6.747z" fill="url(#F)" class="B"/><path d="M3.551 23.52l-1.678-.823c.447-.013 1.049.014 1.525.18.712.248 1.077.59 1.263.909.117.2.168.399.186.571l-.547-.377-.749-.46z" fill="url(#G)"/><path d="M3.492 22.621c-.77-.269-1.806-.201-2.158-.16l-.463.055.402.194c.303.248.558.642.744.949.193.321.445.621.711.814.333.241.81.485 1.404.488.399.002.772-.197.944-.288l.074-.038c.015-.243-.022-.601-.246-.985s-.648-.764-1.411-1.03zm.168.96l-.109-.061-1.678-.824c.447-.013 1.049.014 1.525.18.712.249 1.077.59 1.263.909.117.2.168.399.186.571-.313-.23-.765-.522-1.066-.704l-.122-.072zm-1.727-.553a6.61 6.61 0 0 1 .324.494c.181.3.41.569.637.734.305.221.725.432 1.24.435a1.85 1.85 0 0 0 .587-.086l-.576-.399-.728-.448-1.485-.73z" class="C"/><path d="M1.933 23.027c.127.174.236.348.324.494.181.3.41.569.637.734.305.221.725.432 1.24.435.258.001.454-.043.587-.086-.391-.293-1.072-.723-1.304-.846l-1.485-.73z" fill="url(#H)"/><path d="M49.961 23.563l1.678-.824c-.447-.013-1.049.014-1.525.18-.712.248-1.077.59-1.263.909-.117.2-.168.399-.186.571l.547-.377.749-.46z" fill="url(#I)"/><path d="M50.021 22.664c.77-.269 1.806-.201 2.158-.16l.463.055-.403.194c-.303.248-.558.642-.743.949-.194.321-.445.621-.712.814-.333.241-.81.485-1.404.488-.399.002-.772-.197-.944-.288l-.073-.038c-.015-.243.022-.601.246-.985s.648-.764 1.411-1.03zm-.168.96l.109-.061 1.678-.823c-.447-.013-1.049.014-1.525.18-.712.249-1.077.59-1.263.909-.117.2-.168.399-.186.571.313-.23.765-.523 1.066-.704l.122-.072zm1.727-.553c-.127.174-.236.348-.324.494-.181.3-.41.569-.637.734-.305.221-.725.432-1.24.435a1.85 1.85 0 0 1-.587-.086l.576-.399.728-.448 1.485-.73z" class="C"/><path d="M51.579 23.071c-.127.174-.236.348-.324.494-.181.3-.41.569-.637.734-.305.221-.725.432-1.24.435a1.86 1.86 0 0 1-.587-.086c.391-.293 1.072-.723 1.303-.846l1.485-.73z" fill="url(#J)"/><path d="M26.827 9.947l.107-1.828c-.235.371-.512.893-.602 1.378-.135.726-.015 1.204.176 1.521.12.199.27.341.415.443l-.061-.65-.034-.863z" fill="url(#K)"/><path d="M26.058 9.448c.146-.784.724-1.626.937-1.901l.28-.364-.029.437c.069.379.291.792.472 1.102.188.324.329.686.368 1.008.048.402.026.926-.268 1.429-.197.338-.561.554-.727.653l-.07.043c-.224-.109-.523-.319-.752-.7s-.355-.929-.21-1.707zm.768.622v-.123l.107-1.828c-.235.371-.512.892-.602 1.378-.135.726-.015 1.204.176 1.521.12.199.27.341.414.443a15.08 15.08 0 0 1-.092-1.251l-.003-.139zm.372-1.735c.09.194.191.373.277.52.176.303.301.63.333.905.043.368.021.828-.234 1.264-.128.219-.265.362-.37.453l-.066-.686-.034-.838.094-1.618z" class="C"/><path d="M27.199 8.335a6.52 6.52 0 0 0 .277.52c.176.303.301.63.333.905.043.368.021.828-.234 1.264-.128.219-.265.362-.37.453-.065-.477-.106-1.267-.1-1.524l.094-1.618z" fill="url(#L)"/><path d="M22.091 23.861c.722-3.87 3.46-8.079 4.789-9.883l-.002.035-.751 12.495c-.02.873.052 2.788.191 4.769.128 1.83.314 3.727.539 4.917-1.138-.59-2.629-1.611-3.704-3.401-1.156-1.925-1.84-4.756-1.061-8.932z" fill="url(#M)" class="B"/><path d="M27.189 13.518l.029-.441-.28.364c-1.179 1.531-4.331 6.136-5.121 10.371-.789 4.228-.101 7.127 1.095 9.117s2.899 3.065 4.088 3.645c0 0 .253-.126.315-.169.502-.346 1.91-1.317 3.153-3.443 1.555-2.66 1.678-5.444 1.421-7.613-.2-1.691-.952-3.636-1.977-5.399-1.016-1.747-2.332-4.171-2.723-6.432zm-.049 22.676l.015-.01.002-.001c.488-.336 1.858-1.28 3.07-3.355 1.516-2.592 1.64-5.312 1.387-7.448-.195-1.644-.93-3.554-1.943-5.296-.878-1.51-2.001-3.558-2.546-5.582l-.719 12.012c-.02.858.052 2.758.19 4.733.13 1.861.319 3.778.545 4.947zM22.091 23.86c.722-3.87 3.46-8.079 4.789-9.883l-.002.035h0l-.751 12.495c-.02.873.052 2.788.191 4.769.128 1.83.314 3.727.539 4.917-1.138-.59-2.629-1.611-3.704-3.401-1.156-1.925-1.84-4.755-1.061-8.932z" fill="url(#N)"/><path d="M27.124 14.501l-.719 12.012c-.02.858.052 2.758.19 4.733l.545 4.947.015-.01.002-.001c.488-.336 1.858-1.28 3.07-3.355 1.516-2.592 1.64-5.312 1.387-7.448-.195-1.644-.93-3.554-1.943-5.297-.878-1.51-2.001-3.558-2.546-5.582z" fill="url(#O)" class="B"/><path d="M18.034 26.184c-3.816-1.279-8.922-1.01-11.186-.763l.032.015 11.548 5.474c.791.41 2.469 1.408 4.173 2.495 1.575 1.004 3.181 2.09 4.136 2.863.029-1.256-.155-3.023-1.231-4.813-1.157-1.924-3.355-3.891-7.473-5.271z" fill="url(#P)" class="B"/><path d="M6.286 25.459l-.409-.191.463-.06h.001 0c1.947-.253 7.609-.68 11.783.72 4.168 1.398 6.426 3.401 7.622 5.391s1.324 3.964 1.261 5.259c0 0-.237.153-.305.185-.555.258-2.113.979-4.623.996-3.141.021-5.692-1.236-7.507-2.516-1.415-.997-2.788-2.588-3.864-4.322-1.066-1.718-2.591-4.022-4.422-5.46zm.912.426c1.544 1.454 2.827 3.41 3.749 4.895 1.064 1.713 2.413 3.273 3.789 4.242 1.787 1.26 4.281 2.485 7.342 2.465 2.45-.016 3.965-.719 4.504-.969h.002c-.918-.77-2.536-1.865-4.134-2.885l-1.258-.789c-1.225-.756-2.31-1.391-2.894-1.693-1.541-.798-8.138-3.882-11.1-5.264zm19.576 10.77h0 0zm-4.042-3.166c1.532.981 3.078 2.029 4.006 2.78.029-1.256-.155-3.023-1.231-4.813-1.157-1.924-3.355-3.891-7.473-5.271-3.816-1.279-8.922-1.01-11.186-.763l.032.015h0l.004.002 1.197.559 10.347 4.913.337.18c.855.47 2.28 1.325 3.737 2.251l.09.058.14.089z" fill="url(#Q)"/><path d="M7.198 25.885l11.1 5.264c.778.403 2.442 1.393 4.142 2.477l4.16 2.884-.016.008-.002.001c-.54.25-2.054.953-4.504.969-3.061.02-5.555-1.205-7.342-2.465-1.376-.97-2.725-2.529-3.789-4.242-.922-1.485-2.205-3.442-3.749-4.895z" fill="url(#R)" class="B"/><path d="M35.463 26.184c3.816-1.279 8.922-1.01 11.186-.763l-.032.015-11.548 5.474c-.791.41-2.469 1.408-4.173 2.495-1.575 1.004-3.181 2.09-4.136 2.863-.029-1.256.155-3.023 1.231-4.813 1.157-1.924 3.355-3.891 7.473-5.271z" fill="url(#S)" class="B"/><path d="M47.211 25.459l.409-.191-.463-.06h-.001 0c-1.947-.253-7.608-.68-11.783.72-4.169 1.398-6.426 3.401-7.623 5.391s-1.324 3.964-1.261 5.259c0 0 .237.153.305.185.555.258 2.113.979 4.623.996 3.141.021 5.692-1.236 7.507-2.516 1.415-.997 2.788-2.588 3.864-4.322 1.066-1.718 2.591-4.022 4.422-5.46zm-.912.426c-1.544 1.454-2.827 3.41-3.748 4.895-1.064 1.713-2.414 3.273-3.789 4.242-1.787 1.26-4.281 2.485-7.342 2.465-2.45-.016-3.965-.719-4.504-.969h-.002c.918-.77 2.536-1.865 4.134-2.885l1.257-.789c1.225-.756 2.31-1.391 2.894-1.693 1.541-.798 8.138-3.882 11.1-5.264zm-19.575 10.77h0 0zm4.042-3.166c-1.532.981-3.078 2.029-4.006 2.78-.029-1.256.155-3.023 1.231-4.813 1.157-1.924 3.355-3.891 7.473-5.271 3.816-1.279 8.922-1.01 11.186-.763l-.032.015h-.001l-.003.002-1.197.559-10.347 4.913-.337.18c-.855.47-2.28 1.325-3.737 2.251l-.09.058-.14.089z" class="C"/><path d="M46.298 25.885l-11.1 5.264c-.778.403-2.442 1.393-4.142 2.477l-4.16 2.884.016.008.002.001c.54.25 2.055.953 4.504.969 3.061.02 5.555-1.205 7.342-2.465 1.376-.97 2.725-2.529 3.789-4.242.922-1.485 2.205-3.442 3.749-4.895z" fill="url(#T)" class="B"/><path d="M12.525 31.027c-4.443.843-9.249 3.896-11.306 5.374l.04-.003 14.369-.996c1.004-.034 3.209.018 5.49.143 2.108.115 4.294.292 5.666.52-.695-1.236-1.89-2.852-3.965-4.003-2.231-1.237-5.498-1.945-10.293-1.035z" fill="url(#U)" class="B"/><path d="M.694 36.746l-.507.038.415-.312c1.745-1.31 7.001-4.821 11.863-5.744 4.854-.921 8.2-.21 10.507 1.07s3.568 3.127 4.252 4.419h0s-.142.278-.19.347c-.391.553-1.489 2.107-3.919 3.496-3.039 1.737-6.241 1.911-8.741 1.66-1.948-.195-4.198-.99-6.241-2.086-2.019-1.083-4.816-2.483-7.416-2.884l-.023-.003zm1.131-.085c2.336.568 4.709 1.767 6.459 2.706 2.019 1.083 4.228 1.86 6.122 2.05 2.461.247 5.589.073 8.552-1.62 2.371-1.355 3.438-2.866 3.818-3.404l.001-.001.011-.016c-1.003-.171-2.481-.315-4.055-.425l-1.647-.102c-2.275-.124-4.462-.175-5.449-.142-1.956.067-10.139.678-13.813.954zm4.942-.672l7.43-.513 1.431-.073.411-.009h.603l1.252.021.88.027 2.344.104c2.108.115 4.294.292 5.666.52-.695-1.236-1.89-2.852-3.965-4.003-2.231-1.237-5.498-1.946-10.293-1.036-4.443.843-9.249 3.896-11.306 5.374l.04-.003.04-.003 5.468-.407z" class="C"/><path d="M1.825 36.661l13.813-.954c.987-.034 3.174.018 5.449.142l5.701.527-.011.016-.001.002c-.38.538-1.448 2.049-3.818 3.404-2.962 1.693-6.09 1.867-8.551 1.62-1.894-.19-4.103-.967-6.122-2.05-1.75-.939-4.123-2.138-6.459-2.706z" fill="url(#V)" class="D"/><path d="M41.33 31.027c4.444.843 9.249 3.896 11.307 5.374l-.04-.003-14.369-.996c-1.004-.034-3.209.018-5.491.143-2.108.115-4.294.292-5.666.52.695-1.236 1.89-2.852 3.965-4.003 2.231-1.237 5.498-1.945 10.293-1.035z" fill="url(#W)" class="B"/><path d="M53.161 36.746l.507.038-.415-.312c-1.745-1.31-7.001-4.821-11.863-5.744-4.854-.921-8.2-.21-10.507 1.07s-3.568 3.127-4.251 4.419h0s.142.278.19.347c.391.553 1.489 2.107 3.919 3.496 3.039 1.737 6.241 1.911 8.741 1.66 1.948-.195 4.198-.99 6.241-2.086 2.019-1.083 4.816-2.483 7.416-2.884l.023-.003zm-1.131-.085c-2.336.568-4.709 1.767-6.459 2.706-2.019 1.083-4.228 1.86-6.122 2.05-2.462.247-5.589.073-8.551-1.62-2.371-1.355-3.438-2.866-3.818-3.404l-.001-.001-.011-.016c1.002-.171 2.478-.315 4.05-.425l1.651-.102c2.275-.124 4.462-.175 5.449-.142 1.956.067 10.139.678 13.813.954zm-16.498-1.235l-2.795.119c-2.107.115-4.294.292-5.666.52.695-1.236 1.89-2.852 3.965-4.003 2.231-1.237 5.498-1.946 10.293-1.036 4.443.843 9.249 3.896 11.306 5.374l-.04-.003-.04-.003-14.329-.993c-.575-.02-1.544-.011-2.696.024z" class="C"/><path d="M52.03 36.661l-13.813-.954c-.988-.034-3.174.018-5.449.142l-5.701.527.011.016.001.002c.38.538 1.447 2.049 3.818 3.404 2.962 1.693 6.09 1.867 8.552 1.62 1.894-.19 4.103-.967 6.122-2.05 1.75-.939 4.123-2.138 6.459-2.706z" fill="url(#X)" class="D"/><path d="M27.96 24.997c1.968-2.711 5.586-4.987 7.31-5.939l-5.196 9.392c-.34.671-.994 2.182-1.62 3.767l-1.395 3.966c-.657-.857-1.416-2.16-1.583-3.9-.183-1.894.334-4.326 2.484-7.287z" fill="url(#Y)" class="B"/><path d="M35.75 18.768l.217-.387-.412.215c-1.482.772-5.638 3.235-7.823 6.245-2.181 3.004-2.724 5.499-2.534 7.47s1.098 3.394 1.807 4.264l.092-.016c.615-.106 2.317-.397 3.981-1.547 2.196-1.519 3.326-3.638 3.932-5.414.472-1.385.61-3.161.469-4.891-.14-1.713-.262-4.052.271-5.939zm-.481.291c-1.724.951-5.342 3.228-7.31 5.938-2.15 2.961-2.667 5.393-2.484 7.288.168 1.74.927 3.042 1.583 3.9.136-.502.342-1.132.585-1.818s.524-1.426.81-2.148c.626-1.585 1.28-3.097 1.62-3.767.668-1.319 3.709-6.743 5.043-9.12l.153-.272zm-6.924 14.206l.372-.96c.625-1.58 1.273-3.076 1.606-3.734.399-.789 1.655-3.058 2.883-5.26l2.069-3.697c-.302 1.735-.192 3.666-.074 5.114.139 1.706.001 3.444-.456 4.784-.595 1.743-1.697 3.805-3.829 5.278-1.69 1.168-3.089 1.424-3.603 1.515l.048-.177c.105-.374.246-.814.411-1.292l.265-.748.306-.823z" fill="url(#Z)"/><path d="M35.275 19.613l-4.952 8.958c-.333.658-.981 2.154-1.606 3.734l-1.403 3.999c.514-.091 1.912-.346 3.603-1.515 2.132-1.474 3.234-3.535 3.829-5.278.457-1.34.595-3.078.456-4.784-.118-1.448-.228-3.379.074-5.114z" fill="url(#a)" class="D"/><path opacity=".7" d="M26.054 24.997c-1.968-2.711-5.586-4.987-7.31-5.939l5.196 9.392c.34.671.994 2.182 1.62 3.767l1.395 3.966c.657-.857 1.416-2.16 1.583-3.9.183-1.894-.334-4.326-2.484-7.287z" fill="url(#b)"/><path d="M18.264 18.768l-.217-.387.412.215c1.482.772 5.638 3.235 7.823 6.245 2.181 3.004 2.724 5.499 2.534 7.47s-1.098 3.394-1.807 4.264l-.092-.016c-.615-.106-2.317-.397-3.981-1.547-2.197-1.519-3.326-3.638-3.932-5.414-.472-1.385-.61-3.161-.469-4.891.14-1.713.262-4.052-.271-5.939zm.481.291c1.724.951 5.342 3.228 7.31 5.938 2.15 2.961 2.667 5.393 2.484 7.288-.167 1.74-.927 3.042-1.583 3.9-.136-.502-.341-1.132-.585-1.818s-.524-1.426-.81-2.148c-.626-1.585-1.28-3.097-1.62-3.767-.668-1.319-3.709-6.743-5.043-9.12l-.153-.272zm6.924 14.206l-.372-.96c-.625-1.58-1.273-3.076-1.606-3.734-.399-.789-1.654-3.058-2.883-5.26l-2.069-3.697c.302 1.735.192 3.666.074 5.114-.139 1.706-.001 3.444.456 4.784.595 1.743 1.697 3.805 3.829 5.278 1.69 1.168 3.089 1.424 3.603 1.515l-.048-.177a24.2 24.2 0 0 0-.411-1.292l-.265-.748-.306-.823z" fill="url(#c)"/><path d="M18.739 19.613l4.952 8.958c.333.658.981 2.154 1.606 3.734l1.403 3.999c-.513-.091-1.912-.346-3.603-1.515-2.132-1.474-3.234-3.535-3.829-5.278-.457-1.34-.595-3.078-.456-4.784.118-1.448.228-3.379-.074-5.114z" fill="url(#d)" class="D"/><path d="M16.609 30.721c-.439-1.084-1.054-2.506-1.888-3.672l6.915 4.826c.49.368 1.523 1.245 2.573 2.193l2.526 2.46c-.441.121-1.557.403-3.199.142-2.129-.338-3.715-1.476-4.806-2.56-.838-.832-1.588-2.072-2.121-3.389z" fill="url(#e)" class="D"/><path opacity=".7" d="M21.805 31.659L14.5 26.564c1.671.105 5.13.521 7.561 1.814 2.701 1.437 3.99 3.059 4.559 4.526.514 1.324.448 2.537.287 3.402-.581-.65-1.542-1.564-2.488-2.42l-2.614-2.228z" fill="url(#f)"/><path d="M14.03 26.27l-.467-.016.368.254.037.041c1.078 1.209 1.848 2.964 2.378 4.272.542 1.338 1.31 2.614 2.182 3.479 1.116 1.108 2.752 2.287 4.96 2.638 1.764.28 3.152-.075 3.573-.191.203-.901.414-2.4-.183-3.936s-1.938-3.206-4.686-4.668c-2.755-1.466-6.771-1.823-8.162-1.871zm12.529 10.066l.173.19c-.441.121-1.557.403-3.199.142-2.129-.338-3.715-1.476-4.806-2.56-.838-.832-1.588-2.072-2.121-3.389-.439-1.084-1.054-2.505-1.888-3.672l1.798 1.24 3.292 2.285 1.825 1.301.21.162 2.363 2.03.022.02.786.722 1.546 1.528zm.346-.029c.161-.865.227-2.078-.287-3.402-.57-1.468-1.858-3.089-4.559-4.526-2.43-1.293-5.89-1.71-7.561-1.814l1.583 1.091 3.436 2.381 2.285 1.622 1.336 1.1 1.08.95.198.178.178.161.588.542.284.268 1.438 1.449z" fill="url(#g)"/><path opacity=".7" d="M19.636 35.818l-8.967.511c1.367-.942 4.327-2.737 7.051-3.22 3.028-.537 5.075-.065 6.464.728 1.253.715 1.985 1.699 2.417 2.471-.871-.149-2.207-.272-3.496-.358l-3.47-.132z" fill="url(#h)"/></g><path d="M10.192 36.631l.055.009c1.619.28 3.348 1.173 4.604 1.866 1.284.709 2.704 1.231 3.94 1.37 1.582.178 3.615.093 5.559-.986 1.553-.862 2.404-1.989 2.656-2.337l-.176.073-.222-.042c-.265.364-.951 1.267-2.397 2.07-1.874 1.041-3.841 1.127-5.389.953-1.188-.134-2.571-.639-3.835-1.337-1.04-.574-2.435-1.303-3.836-1.7l-.579.036-.365.023-.016.001z" fill="url(#i)"/><path d="M10.67 36.33l8.967-.511c.632-.014 2.011.035 3.44.13l3.525.36c-.871-.149-2.207-.272-3.496-.358l-3.47-.132-8.967.511z" class="B C"/><g class="E"><path opacity=".7" d="M26.627 29.378l.861-8.715c-1.017 1.297-2.968 4.112-3.566 6.748-.664 2.929-.257 4.941.504 6.324.686 1.248 1.667 1.997 2.442 2.447-.12-.854-.196-2.16-.236-3.418l-.005-3.385z" fill="url(#j)"/><path d="M29.316 24.942c-.55-1.035-1.245-2.421-1.599-3.8l-.812 8.252c-.037.602-.039 1.937.005 3.331l.242 3.472c.384-.245 1.335-.879 2.212-2.257 1.137-1.786 1.299-3.699 1.179-5.213-.093-1.162-.559-2.528-1.226-3.785z" fill="url(#k)"/><path d="M32.058 31.644l7.358-5.022c-1.672.088-5.136.47-7.579 1.739-2.716 1.41-4.021 3.019-4.606 4.48-.528 1.319-.475 2.533-.323 3.399.588-.644 1.558-1.549 2.513-2.395l2.637-2.202z" fill="url(#l)" class="D"/><path d="M39.887 26.332l.467-.012-.37.249-.038.041c-1.091 1.199-1.879 2.945-2.423 4.248-.556 1.333-1.337 2.601-2.218 3.457-1.127 1.096-2.776 2.259-4.987 2.588a8.53 8.53 0 0 1-3.571-.226c-.193-.903-.389-2.404.224-3.934s1.971-3.186 4.735-4.621c2.771-1.438 6.79-1.755 8.181-1.79zM28.891 34.32l-1.984 1.921c-.152-.867-.205-2.081.323-3.399.585-1.462 1.89-3.07 4.606-4.48 2.444-1.269 5.907-1.651 7.579-1.739l-5.886 3.991-1.472 1.031c-.375.276-1.051.829-1.809 1.48l-.828.722-.529.474zm-.662.986l-1.151 1.156c.44.125 1.553.418 3.198.174 2.133-.317 3.73-1.439 4.832-2.512.847-.823 1.61-2.056 2.157-3.367.45-1.079 1.08-2.495 1.926-3.653l-1.288.869-5.677 3.888-.211.16-.507.405-1.899 1.621-1.379 1.259z" fill="url(#m)"/><path d="M37.265 30.757c.45-1.079 1.08-2.495 1.926-3.653l-6.965 4.757c-.494.364-1.536 1.229-2.596 2.167l-2.551 2.435c.44.125 1.553.418 3.197.174 2.133-.317 3.73-1.44 4.832-2.512.847-.823 1.61-2.056 2.157-3.367z" fill="url(#n)" class="D"/><path d="M9.742 36.66l.373-.273c1.113-.815 4.467-2.997 7.555-3.544 3.081-.546 5.198-.07 6.655.761s2.256 2.126 2.68 2.95l-.176.073c-.822-.169-2.303-.31-3.743-.406l-3.445-.132-9.069.518-.365.023-.466.029zm.927-.33l8.967-.511c.636-.014 2.03.036 3.47.132l3.496.358c-.432-.772-1.163-1.756-2.417-2.471-1.389-.793-3.437-1.265-6.464-.728-2.724.483-5.684 2.278-7.051 3.22z" class="C"/><path d="M14.988 38.271c-1.04-.574-2.435-1.303-3.836-1.7l8.491-.482c.619-.014 1.987.035 3.415.13l3.551.366c-.265.364-.951 1.267-2.397 2.07-1.874 1.041-3.841 1.127-5.389.952-1.188-.134-2.571-.639-3.835-1.337z" fill="url(#o)" class="D"/><path d="M34.146 35.841l8.967.511c-1.367-.942-4.327-2.737-7.051-3.22-3.028-.537-5.075-.065-6.464.728-1.253.715-1.985 1.699-2.417 2.471.871-.149 2.207-.272 3.496-.358l3.47-.132z" fill="url(#p)" class="D"/><path d="M43.667 36.409l.373.273-.45-.028-.055.009c-1.618.28-3.348 1.173-4.604 1.866-1.284.709-2.704 1.231-3.94 1.37-1.582.178-3.615.093-5.559-.986-1.553-.862-2.403-1.989-2.656-2.337h0c.423-.825 1.225-2.12 2.68-2.95s3.574-1.307 6.655-.761c3.088.547 6.442 2.729 7.556 3.544zm-1.037.184l-8.49-.482c-.623-.014-2.006.036-3.445.132l-3.521.364c.266.364.952 1.267 2.397 2.07 1.874 1.041 3.841 1.127 5.389.953 1.188-.134 2.571-.639 3.835-1.337 1.04-.574 2.435-1.303 3.836-1.7zm-15.449-.263c.432-.772 1.163-1.755 2.416-2.471 1.389-.793 3.437-1.265 6.464-.728 2.724.483 5.684 2.278 7.051 3.22l-8.967-.511c-.632-.014-2.011.035-3.44.13l-3.525.36z" class="C"/><path d="M38.795 38.293c1.04-.574 2.435-1.303 3.836-1.7l-8.49-.482c-.619-.014-1.987.035-3.415.13l-3.551.366c.265.364.951 1.267 2.397 2.07 1.874 1.041 3.841 1.127 5.389.952 1.188-.134 2.571-.639 3.834-1.337z" fill="url(#q)" class="D"/><path d="M24.551 33.951l-.125-.216c-.761-1.383-1.168-3.395-.504-6.324.597-2.636 2.549-5.451 3.566-6.747l-.861 8.715c-.038.615-.039 1.96.004 3.356l.051 1.245.115-.319.133-.352-.02-.554-.006-3.36.813-8.252c.354 1.379 1.049 2.765 1.599 3.8.668 1.257 1.134 2.623 1.226 3.785l.015.223.265-.208-.003-.036c-.096-1.209-.578-2.611-1.256-3.889-.664-1.249-1.514-2.968-1.741-4.554l-.007-.054.046-.437-.294.353c-.877 1.054-3.24 4.239-3.917 7.226-.643 2.837-.304 4.859.418 6.298l.009.01.473.29zm2.233 2.454l-.271-.443.179.114.13.351-.039-.022z" class="C"/></g><defs><linearGradient id="A" x1="37.778" y1="15.009" x2="26.16" y2="33.29" xlink:href="#r"><stop stop-color="#ff1c1a"/><stop offset="1" stop-color="#fed471"/></linearGradient><linearGradient id="B" x1="42.278" y1="14.7" x2="27.651" y2="35.557" xlink:href="#r"><stop offset=".306"/><stop offset="1" stop-opacity="0"/></linearGradient><linearGradient id="C" x1="38.913" y1="20.423" x2="25.181" y2="49.28" xlink:href="#r"><stop stop-color="#860f99"/><stop offset=".986" stop-color="#020103"/></linearGradient><linearGradient id="D" x1="16.228" y1="15.009" x2="27.847" y2="33.29" xlink:href="#r"><stop stop-color="#ff1c1a"/><stop offset="1" stop-color="#fed471"/></linearGradient><linearGradient id="E" x1="12.079" y1="14.7" x2="26.699" y2="36.254" xlink:href="#r"><stop offset=".254"/><stop offset="1" stop-opacity="0"/></linearGradient><linearGradient id="F" x1="15.093" y1="20.423" x2="28.825" y2="49.28" xlink:href="#r"><stop stop-color="#860f99"/><stop offset=".986" stop-color="#020103"/></linearGradient><linearGradient id="G" x1="1.647" y1="22.611" x2="4.804" y2="24.863" xlink:href="#r"><stop stop-color="#ff1c1a"/><stop offset="1" stop-color="#fed471"/></linearGradient><linearGradient id="H" x1="2.047" y1="23.175" x2="6.238" y2="26.473" xlink:href="#r"><stop stop-color="#860f99"/><stop offset=".986" stop-color="#020103"/></linearGradient><linearGradient id="I" x1="51.865" y1="22.654" x2="48.708" y2="24.906" xlink:href="#r"><stop stop-color="#ff1c1a"/><stop offset="1" stop-color="#fed471"/></linearGradient><linearGradient id="J" x1="51.465" y1="23.219" x2="47.274" y2="26.517" xlink:href="#r"><stop stop-color="#860f99"/><stop offset=".986" stop-color="#020103"/></linearGradient><linearGradient id="K" x1="26.972" y1="7.884" x2="27.283" y2="11.685" xlink:href="#r"><stop stop-color="#ff1c1a"/><stop offset="1" stop-color="#fed471"/></linearGradient><linearGradient id="L" x1="27.273" y1="8.505" x2="27.941" y2="13.713" xlink:href="#r"><stop stop-color="#860f99"/><stop offset=".986" stop-color="#020103"/></linearGradient><linearGradient id="M" x1="25.224" y1="15.869" x2="25.586" y2="33.169" xlink:href="#r"><stop stop-color="#860f99"/><stop offset="1" stop-color="#020103"/></linearGradient><linearGradient id="N" x1="26.737" y1="13.077" x2="26.737" y2="36.574" xlink:href="#r"><stop offset=".154"/><stop offset="1" stop-opacity="0"/></linearGradient><linearGradient id="O" x1="27.835" y1="16.903" x2="27.571" y2="34.674" xlink:href="#r"><stop stop-color="#ff1c1a"/><stop offset="1" stop-color="#fed471"/></linearGradient><linearGradient id="P" x1="9.247" y1="23.917" x2="26.149" y2="33.785" xlink:href="#r"><stop stop-color="#ff1c1a"/><stop offset="1" stop-color="#fed471"/></linearGradient><linearGradient id="Q" x1="6.038" y1="25.199" x2="24.037" y2="34.872" xlink:href="#r"><stop offset=".209"/><stop offset="1" stop-opacity="0"/></linearGradient><linearGradient id="R" x1="10.617" y1="28.667" x2="33.54" y2="46.214" xlink:href="#r"><stop stop-color="#860f99"/><stop offset=".986" stop-color="#020103"/></linearGradient><linearGradient id="S" x1="44.25" y1="23.917" x2="27.349" y2="33.785" xlink:href="#r"><stop stop-color="#ff1c1a"/><stop offset="1" stop-color="#fed471"/></linearGradient><linearGradient id="T" x1="42.879" y1="28.667" x2="19.957" y2="46.214" xlink:href="#r"><stop stop-color="#860f99"/><stop offset=".986" stop-color="#020103"/></linearGradient><linearGradient id="U" x1="2.684" y1="33.628" x2="24.779" y2="33.487" xlink:href="#r"><stop stop-color="#ff1c1a"/><stop offset="1" stop-color="#fed471"/></linearGradient><linearGradient id="V" x1="6.748" y1="37.494" x2="39.186" y2="41.42" xlink:href="#r"><stop stop-color="#860f99"/><stop offset=".986" stop-color="#020103"/></linearGradient><linearGradient id="W" x1="51.171" y1="33.628" x2="29.076" y2="33.487" xlink:href="#r"><stop stop-color="#ff1c1a"/><stop offset="1" stop-color="#fed471"/></linearGradient><linearGradient id="X" x1="47.107" y1="37.494" x2="14.669" y2="41.42" xlink:href="#r"><stop stop-color="#860f99"/><stop offset=".986" stop-color="#020103"/></linearGradient><linearGradient id="Y" x1="34.506" y1="19.565" x2="28.336" y2="36.789" xlink:href="#r"><stop stop-color="#ff1c1a"/><stop offset="1" stop-color="#fed471"/></linearGradient><linearGradient id="Z" x1="34.461" y1="19.6" x2="26.836" y2="36.487" xlink:href="#r"><stop/><stop offset="1" stop-opacity="0"/></linearGradient><linearGradient id="a" x1="34.525" y1="22.849" x2="27.136" y2="46.913" xlink:href="#r"><stop stop-color="#860f99"/><stop offset=".986" stop-color="#020103"/></linearGradient><linearGradient id="b" x1="19.508" y1="19.565" x2="25.677" y2="36.789" xlink:href="#r"><stop stop-color="#ff1c1a"/><stop offset="1" stop-color="#fed471"/></linearGradient><linearGradient id="c" x1="19.54" y1="18.2" x2="26.463" y2="36.47" xlink:href="#r"><stop/><stop offset="1" stop-opacity="0"/></linearGradient><linearGradient id="d" x1="19.49" y1="22.849" x2="26.879" y2="46.913" xlink:href="#r"><stop stop-color="#860f99"/><stop offset=".986" stop-color="#020103"/></linearGradient><linearGradient id="e" x1="23.786" y1="36.667" x2="11.943" y2="28.768" xlink:href="#r"><stop stop-color="#fecc57"/><stop offset="1" stop-color="#ff0502"/></linearGradient><linearGradient id="f" x1="16.438" y1="27.059" x2="24.542" y2="24.885" xlink:href="#r"><stop stop-color="#860f99"/><stop offset=".986" stop-color="#020103"/></linearGradient><linearGradient id="g" x1="14.21" y1="26.6" x2="26.183" y2="35.149" xlink:href="#r"><stop/><stop offset="1" stop-opacity="0"/></linearGradient><linearGradient id="h" x1="17.403" y1="41.756" x2="24.281" y2="32.487" xlink:href="#r"><stop stop-color="#ff1c1a"/><stop offset="1" stop-color="#fed471"/></linearGradient><linearGradient id="i" x1="17.409" y1="39.2" x2="26.631" y2="37.04" xlink:href="#r"><stop/><stop offset="1" stop-opacity="0"/></linearGradient><linearGradient id="j" x1="32.799" y1="27.426" x2="23.368" y2="34.234" xlink:href="#r"><stop stop-color="#ff1c1a"/><stop offset="1" stop-color="#fed471"/></linearGradient><linearGradient id="k" x1="26.864" y1="25.055" x2="35.948" y2="35.762" xlink:href="#r"><stop stop-color="#a010b7"/><stop offset=".986" stop-color="#020103"/></linearGradient><linearGradient id="l" x1="37.589" y1="34.951" x2="26.261" y2="31.973" xlink:href="#r"><stop stop-color="#ff1c1a"/><stop offset="1" stop-color="#fed471"/></linearGradient><linearGradient id="m" x1="27.278" y1="30.925" x2="29.673" y2="38.344" xlink:href="#r"><stop offset=".235"/><stop offset="1" stop-opacity="0"/></linearGradient><linearGradient id="n" x1="35.584" y1="29.013" x2="33.589" y2="42.767" xlink:href="#r"><stop stop-color="#860f99"/><stop offset=".986" stop-color="#020103"/></linearGradient><linearGradient id="o" x1="15.196" y1="35.887" x2="25.337" y2="45.652" xlink:href="#r"><stop stop-color="#860f99"/><stop offset=".986" stop-color="#020103"/></linearGradient><linearGradient id="p" x1="38.721" y1="46.201" x2="32.638" y2="31.373" xlink:href="#r"><stop stop-color="#ff1c1a"/><stop offset="1" stop-color="#fed471"/></linearGradient><linearGradient id="q" x1="38.587" y1="35.909" x2="28.447" y2="45.674" xlink:href="#r"><stop stop-color="#a010b7"/><stop offset=".986" stop-color="#020103"/></linearGradient><linearGradient id="r" gradientUnits="userSpaceOnUse"/></defs></svg>