<svg width="121" height="121" viewBox="0 0 121 121" fill="none" xmlns="http://www.w3.org/2000/svg">
<ellipse cx="60" cy="60.7656" rx="60" ry="60" fill="white"/>
<path d="M23.3236 60.9175V51.0673H55.0783V40.931H23.3236V31.0819H96.6817V40.931H64.9323V51.0662H96.6817V60.9169H64.9323L96.8096 108.385C110.924 97.4089 120.004 80.266 120.004 61.0019C120.004 27.8625 93.1396 1 60.0013 1C26.8646 1.00106 0 27.863 0 61.0024C0 80.2655 9.07853 97.4094 23.1936 108.385L55.0773 60.9175H23.3236V60.9175Z" fill="#E3232C"/>
<path d="M31.4341 113.778C39.9288 118.383 49.6607 121 60.0018 121C70.3445 121 80.0742 118.381 88.57 113.778L60.0018 71.2241L31.4341 113.778Z" fill="#E3232C"/>
</svg>
