<svg width="246" height="246" viewBox="0 0 246 246" fill="none" xmlns="http://www.w3.org/2000/svg">
<circle cx="123" cy="123" r="100" transform="rotate(-15 123 123)" fill="black"/>
<path d="M79.153 102.245C72.6755 84.4486 81.8515 64.7705 99.6482 58.293C106.141 76.1312 104.899 72.7201 111.377 90.5169C117.854 108.314 116.613 104.903 123.105 122.741C105.309 129.218 85.6304 120.042 79.153 102.245Z" fill="white"/>
<path d="M166.957 143.488C173.435 161.285 164.259 180.963 146.462 187.441C139.969 169.603 141.211 173.014 134.734 155.217C128.256 137.42 129.498 140.831 123.005 122.993C140.802 116.516 160.48 125.692 166.957 143.488Z" fill="white"/>
<path d="M98.114 191.632C83.6059 179.459 81.7135 157.829 93.8872 143.321C108.429 155.523 105.648 153.19 120.156 165.363C134.664 177.537 131.884 175.204 146.425 187.406C134.252 201.914 112.622 203.806 98.114 191.632Z" fill="white"/>
<path d="M147.859 54.3177C162.367 66.4914 164.259 88.1212 152.086 102.629C137.544 90.4273 140.324 92.7605 125.816 80.5868C111.308 68.4131 114.089 70.7464 99.5473 58.5443C111.721 44.0363 133.351 42.144 147.859 54.3177Z" fill="white"/>
</svg>
