<svg width="256" height="256" viewBox="0 0 256 256" fill="none" xmlns="http://www.w3.org/2000/svg">
<path d="M128 256C198.692 256 256 198.692 256 128C256 57.3076 198.692 0 128 0C57.3076 0 0 57.3076 0 128C0 198.692 57.3076 256 128 256Z" fill="#171717"/>
<path d="M189.273 61.9977C194.942 61.9977 199.538 57.402 199.538 51.733C199.538 46.0641 194.942 41.4684 189.273 41.4684C183.604 41.4684 179.009 46.0641 179.009 51.733C179.009 57.402 183.604 61.9977 189.273 61.9977Z" fill="#EB027D"/>
<path d="M168.648 67.5605C173.268 67.5605 177.013 63.8154 177.013 59.1957C177.013 54.576 173.268 50.8309 168.648 50.8309C164.029 50.8309 160.284 54.576 160.284 59.1957C160.284 63.8154 164.029 67.5605 168.648 67.5605Z" fill="#EB027D"/>
<path d="M102.086 136.324C104.562 136.324 106.569 134.317 106.569 131.841C106.569 129.365 104.562 127.358 102.086 127.358C99.6099 127.358 97.6028 129.365 97.6028 131.841C97.6028 134.317 99.6099 136.324 102.086 136.324Z" fill="#EB027D"/>
<path d="M103.062 147.807C103.124 145.151 101.022 142.947 98.3654 142.884C95.7091 142.822 93.5051 144.925 93.4427 147.581C93.3802 150.237 95.4829 152.441 98.1392 152.504C100.796 152.566 103 150.463 103.062 147.807Z" fill="#EB027D"/>
<path d="M100.555 113.977C103.491 113.977 105.872 111.596 105.872 108.66C105.872 105.723 103.491 103.343 100.555 103.343C97.6185 103.343 95.238 105.723 95.238 108.66C95.238 111.596 97.6185 113.977 100.555 113.977Z" fill="#EB027D"/>
<path d="M98.0538 100.295C101.541 100.295 104.368 97.468 104.368 93.9805C104.368 90.4931 101.541 87.666 98.0538 87.666C94.5664 87.666 91.7393 90.4931 91.7393 93.9805C91.7393 97.468 94.5664 100.295 98.0538 100.295Z" fill="#EB027D"/>
<path d="M106.255 125.266C108.73 125.266 110.738 123.259 110.738 120.783C110.738 118.307 108.73 116.3 106.255 116.3C103.779 116.3 101.771 118.307 101.771 120.783C101.771 123.259 103.779 125.266 106.255 125.266Z" fill="#EB027D"/>
<path d="M114.141 133.03C116.186 133.03 117.845 131.371 117.845 129.326C117.845 127.28 116.186 125.622 114.141 125.622C112.095 125.622 110.437 127.28 110.437 129.326C110.437 131.371 112.095 133.03 114.141 133.03Z" fill="#EB027D"/>
<path d="M112.856 141.818C114.902 141.818 116.56 140.16 116.56 138.114C116.56 136.069 114.902 134.41 112.856 134.41C110.81 134.41 109.152 136.069 109.152 138.114C109.152 140.16 110.81 141.818 112.856 141.818Z" fill="#EB027D"/>
<path d="M114.401 113.075C116.876 113.075 118.884 111.067 118.884 108.592C118.884 106.116 116.876 104.108 114.401 104.108C111.925 104.108 109.917 106.116 109.917 108.592C109.917 111.067 111.925 113.075 114.401 113.075Z" fill="#EB027D"/>
<path d="M117.421 122.123C119.467 122.123 121.125 120.464 121.125 118.419C121.125 116.373 119.467 114.715 117.421 114.715C115.375 114.715 113.717 116.373 113.717 118.419C113.717 120.464 115.375 122.123 117.421 122.123Z" fill="#EB027D"/>
<path d="M122.328 145.112C124.034 145.112 125.417 143.729 125.417 142.023C125.417 140.317 124.034 138.934 122.328 138.934C120.622 138.934 119.239 140.317 119.239 142.023C119.239 143.729 120.622 145.112 122.328 145.112Z" fill="#EB027D"/>
<path d="M124.685 150.066C124.725 148.361 123.374 146.946 121.669 146.906C119.963 146.866 118.548 148.216 118.509 149.921C118.469 151.627 119.819 153.042 121.524 153.082C123.23 153.122 124.645 151.771 124.685 150.066Z" fill="#EB027D"/>
<path d="M122.957 137.855C124.663 137.855 126.046 136.472 126.046 134.766C126.046 133.06 124.663 131.677 122.957 131.677C121.251 131.677 119.868 133.06 119.868 134.766C119.868 136.472 121.251 137.855 122.957 137.855Z" fill="#EB027D"/>
<path d="M123.995 129.517C125.701 129.517 127.084 128.134 127.084 126.428C127.084 124.722 125.701 123.339 123.995 123.339C122.289 123.339 120.906 124.722 120.906 126.428C120.906 128.134 122.289 129.517 123.995 129.517Z" fill="#EB027D"/>
<path d="M125.171 121.344C126.877 121.344 128.26 119.961 128.26 118.255C128.26 116.549 126.877 115.166 125.171 115.166C123.465 115.166 122.082 116.549 122.082 118.255C122.082 119.961 123.465 121.344 125.171 121.344Z" fill="#EB027D"/>
<path d="M125.786 112.296C127.831 112.296 129.49 110.637 129.49 108.592C129.49 106.546 127.831 104.888 125.786 104.888C123.74 104.888 122.082 106.546 122.082 108.592C122.082 110.637 123.74 112.296 125.786 112.296Z" fill="#EB027D"/>
<path d="M140.752 83.4562C144.24 83.4562 147.067 80.6291 147.067 77.1417C147.067 73.6542 144.24 70.8271 140.752 70.8271C137.265 70.8271 134.438 73.6542 134.438 77.1417C134.438 80.6291 137.265 83.4562 140.752 83.4562Z" fill="#EB027D"/>
<path d="M131.964 92.2721C134.9 92.2721 137.281 89.8916 137.281 86.9552C137.281 84.0188 134.9 81.6384 131.964 81.6384C129.027 81.6384 126.647 84.0188 126.647 86.9552C126.647 89.8916 129.027 92.2721 131.964 92.2721Z" fill="#EB027D"/>
<path d="M127.631 102.373C130.107 102.373 132.114 100.366 132.114 97.8896C132.114 95.4136 130.107 93.4065 127.631 93.4065C125.155 93.4065 123.148 95.4136 123.148 97.8896C123.148 100.366 125.155 102.373 127.631 102.373Z" fill="#EB027D"/>
<path d="M116.833 88.8961C120.321 88.8961 123.148 86.0689 123.148 82.5815C123.148 79.094 120.321 76.2669 116.833 76.2669C113.346 76.2669 110.519 79.094 110.519 82.5815C110.519 86.0689 113.346 88.8961 116.833 88.8961Z" fill="#EB027D"/>
<path d="M113.717 101.361C116.654 101.361 119.034 98.9808 119.034 96.0444C119.034 93.108 116.654 90.7275 113.717 90.7275C110.781 90.7275 108.4 93.108 108.4 96.0444C108.4 98.9808 110.781 101.361 113.717 101.361Z" fill="#EB027D"/>
<path d="M114.964 149.724C115.015 147.535 113.282 145.72 111.094 145.669C108.905 145.619 107.09 147.352 107.039 149.54C106.988 151.728 108.721 153.544 110.91 153.594C113.098 153.645 114.913 151.912 114.964 149.724Z" fill="#EB027D"/>
<path d="M152.835 74.6815C156.79 74.6815 159.997 71.4749 159.997 67.5195C159.997 63.564 156.79 60.3575 152.835 60.3575C148.879 60.3575 145.673 63.564 145.673 67.5195C145.673 71.4749 148.879 74.6815 152.835 74.6815Z" fill="#EB027D"/>
<path d="M148.42 45.4321C154.089 45.4321 158.684 40.8365 158.684 35.1675C158.684 29.4985 154.089 24.9029 148.42 24.9029C142.751 24.9029 138.155 29.4985 138.155 35.1675C138.155 40.8365 142.751 45.4321 148.42 45.4321Z" fill="#EB027D"/>
<path d="M133.618 60.8358C138.237 60.8358 141.982 57.0908 141.982 52.4711C141.982 47.8514 138.237 44.1063 133.618 44.1063C128.998 44.1063 125.253 47.8514 125.253 52.4711C125.253 57.0908 128.998 60.8358 133.618 60.8358Z" fill="#EB027D"/>
<path d="M123.408 75.3921C127.363 75.3921 130.57 72.1856 130.57 68.2302C130.57 64.2747 127.363 61.0682 123.408 61.0682C119.452 61.0682 116.246 64.2747 116.246 68.2302C116.246 72.1856 119.452 75.3921 123.408 75.3921Z" fill="#EB027D"/>
<path d="M110.519 45.2818C116.188 45.2818 120.783 40.6861 120.783 35.0172C120.783 29.3482 116.188 24.7526 110.519 24.7526C104.85 24.7526 100.254 29.3482 100.254 35.0172C100.254 40.6861 104.85 45.2818 110.519 45.2818Z" fill="#EB027D"/>
<path d="M102.824 66.1527C107.443 66.1527 111.189 62.4076 111.189 57.7879C111.189 53.1682 107.443 49.4232 102.824 49.4232C98.204 49.4232 94.459 53.1682 94.459 57.7879C94.459 62.4076 98.204 66.1527 102.824 66.1527Z" fill="#EB027D"/>
<path d="M98.7919 84.6317C102.747 84.6317 105.954 81.4252 105.954 77.4697C105.954 73.5143 102.747 70.3077 98.7919 70.3077C94.8364 70.3077 91.6299 73.5143 91.6299 77.4697C91.6299 81.4252 94.8364 84.6317 98.7919 84.6317Z" fill="#EB027D"/>
<path d="M91.5751 127.658C94.5115 127.658 96.8919 125.278 96.8919 122.341C96.8919 119.405 94.5115 117.025 91.5751 117.025C88.6387 117.025 86.2583 119.405 86.2583 122.341C86.2583 125.278 88.6387 127.658 91.5751 127.658Z" fill="#EB027D"/>
<path d="M82.9098 115.289C86.3972 115.289 89.2244 112.462 89.2244 108.974C89.2244 105.487 86.3972 102.66 82.9098 102.66C79.4223 102.66 76.5952 105.487 76.5952 108.974C76.5952 112.462 79.4223 115.289 82.9098 115.289Z" fill="#EB027D"/>
<path d="M77.5519 99.1197C81.5073 99.1197 84.7139 95.9132 84.7139 91.9577C84.7139 88.0022 81.5073 84.7957 77.5519 84.7957C73.5964 84.7957 70.3899 88.0022 70.3899 91.9577C70.3899 95.9132 73.5964 99.1197 77.5519 99.1197Z" fill="#EB027D"/>
<path d="M90.3985 141.968C90.471 138.844 87.9972 136.253 84.873 136.18C81.7488 136.108 79.1574 138.582 79.0849 141.706C79.0124 144.83 81.4863 147.421 84.6104 147.494C87.7346 147.566 90.326 145.093 90.3985 141.968Z" fill="#EB027D"/>
<path d="M79.9301 55.6284C85.5991 55.6284 90.1947 51.0328 90.1947 45.3638C90.1947 39.6948 85.5991 35.0992 79.9301 35.0992C74.2611 35.0992 69.6655 39.6948 69.6655 45.3638C69.6655 51.0328 74.2611 55.6284 79.9301 55.6284Z" fill="#EB027D"/>
<path d="M76.1987 79.3285C80.8185 79.3285 84.5635 75.5835 84.5635 70.9638C84.5635 66.344 80.8185 62.599 76.1987 62.599C71.579 62.599 67.834 66.344 67.834 70.9638C67.834 75.5835 71.579 79.3285 76.1987 79.3285Z" fill="#EB027D"/>
<path d="M61.3651 68.4578C61.49 63.1225 57.2662 58.6962 51.9309 58.5713C46.5957 58.4464 42.1694 62.6703 42.0445 68.0055C41.9196 73.3408 46.1434 77.7671 51.4787 77.892C56.8139 78.0168 61.2402 73.793 61.3651 68.4578Z" fill="#EB027D"/>
<path d="M63.5778 94.9036C63.6811 90.489 60.1862 86.8265 55.7716 86.7232C51.357 86.6199 47.6945 90.1148 47.5912 94.5294C47.4878 98.944 50.9828 102.607 55.3974 102.71C59.812 102.813 63.4745 99.3182 63.5778 94.9036Z" fill="#EB027D"/>
<path d="M69.7268 115.755C69.8189 111.823 66.7062 108.561 62.7746 108.469C58.843 108.377 55.5812 111.49 55.4891 115.422C55.3971 119.353 58.5097 122.615 62.4414 122.707C66.373 122.799 69.6348 119.687 69.7268 115.755Z" fill="#EB027D"/>
<path d="M78.7504 131.095C78.8327 127.579 76.0487 124.661 72.5321 124.579C69.0155 124.497 66.0981 127.281 66.0157 130.797C65.9334 134.314 68.7174 137.231 72.234 137.314C75.7506 137.396 78.6681 134.612 78.7504 131.095Z" fill="#EB027D"/>
<path d="M107.58 231.097C113.249 231.097 117.845 226.501 117.845 220.832C117.845 215.164 113.249 210.568 107.58 210.568C101.911 210.568 97.3154 215.164 97.3154 220.832C97.3154 226.501 101.911 231.097 107.58 231.097Z" fill="white"/>
<path d="M189.965 125.197C190.047 121.68 187.263 118.763 183.747 118.68C180.23 118.598 177.313 121.382 177.23 124.899C177.148 128.415 179.932 131.333 183.449 131.415C186.965 131.497 189.883 128.713 189.965 125.197Z" fill="white"/>
<path d="M173.09 153.34C176.578 153.34 179.405 150.513 179.405 147.026C179.405 143.538 176.578 140.711 173.09 140.711C169.603 140.711 166.776 143.538 166.776 147.026C166.776 150.513 169.603 153.34 173.09 153.34Z" fill="white"/>
<path d="M176.902 114.295C176.975 111.171 174.502 108.579 171.378 108.506C168.254 108.433 165.662 110.906 165.588 114.03C165.515 117.154 167.989 119.746 171.113 119.819C174.237 119.892 176.829 117.419 176.902 114.295Z" fill="white"/>
<path d="M178.448 171.204C182.404 171.204 185.61 167.998 185.61 164.042C185.61 160.087 182.404 156.88 178.448 156.88C174.493 156.88 171.286 160.087 171.286 164.042C171.286 167.998 174.493 171.204 178.448 171.204Z" fill="white"/>
<path d="M155.445 152.657C158.382 152.657 160.762 150.276 160.762 147.34C160.762 144.404 158.382 142.023 155.445 142.023C152.509 142.023 150.128 144.404 150.128 147.34C150.128 150.276 152.509 152.657 155.445 152.657Z" fill="white"/>
<path d="M157.946 168.334C161.434 168.334 164.261 165.507 164.261 162.019C164.261 158.532 161.434 155.705 157.946 155.705C154.459 155.705 151.632 158.532 151.632 162.019C151.632 165.507 154.459 168.334 157.946 168.334Z" fill="white"/>
<path d="M130.214 151.112C132.26 151.112 133.918 149.454 133.918 147.408C133.918 145.363 132.26 143.704 130.214 143.704C128.169 143.704 126.51 145.363 126.51 147.408C126.51 149.454 128.169 151.112 130.214 151.112Z" fill="white"/>
<path d="M130.829 140.848C132.535 140.848 133.918 139.465 133.918 137.759C133.918 136.053 132.535 134.67 130.829 134.67C129.123 134.67 127.74 136.053 127.74 137.759C127.74 139.465 129.123 140.848 130.829 140.848Z" fill="white"/>
<path d="M132.005 132.661C133.711 132.661 135.094 131.278 135.094 129.572C135.094 127.866 133.711 126.483 132.005 126.483C130.299 126.483 128.916 127.866 128.916 129.572C128.916 131.278 130.299 132.661 132.005 132.661Z" fill="white"/>
<path d="M133.672 117.066C135.378 117.066 136.761 115.683 136.761 113.977C136.761 112.271 135.378 110.888 133.672 110.888C131.966 110.888 130.583 112.271 130.583 113.977C130.583 115.683 131.966 117.066 133.672 117.066Z" fill="white"/>
<path d="M137.485 106.086C137.525 104.381 136.175 102.966 134.469 102.926C132.764 102.886 131.349 104.236 131.309 105.942C131.269 107.647 132.619 109.062 134.325 109.102C136.03 109.142 137.445 107.792 137.485 106.086Z" fill="white"/>
<path d="M133.044 124.323C134.75 124.323 136.132 122.94 136.132 121.234C136.132 119.528 134.75 118.145 133.044 118.145C131.338 118.145 129.955 119.528 129.955 121.234C129.955 122.94 131.338 124.323 133.044 124.323Z" fill="white"/>
<path d="M138.524 141.23C140.57 141.23 142.228 139.572 142.228 137.527C142.228 135.481 140.57 133.823 138.524 133.823C136.479 133.823 134.82 135.481 134.82 137.527C134.82 139.572 136.479 141.23 138.524 141.23Z" fill="white"/>
<path d="M141.6 151.892C144.075 151.892 146.083 149.884 146.083 147.408C146.083 144.932 144.075 142.925 141.6 142.925C139.124 142.925 137.116 144.932 137.116 147.408C137.116 149.884 139.124 151.892 141.6 151.892Z" fill="white"/>
<path d="M141.859 130.378C143.905 130.378 145.563 128.72 145.563 126.674C145.563 124.629 143.905 122.97 141.859 122.97C139.814 122.97 138.155 124.629 138.155 126.674C138.155 128.72 139.814 130.378 141.859 130.378Z" fill="white"/>
<path d="M143.144 121.59C145.19 121.59 146.848 119.931 146.848 117.886C146.848 115.84 145.19 114.182 143.144 114.182C141.098 114.182 139.44 115.84 139.44 117.886C139.44 119.931 141.098 121.59 143.144 121.59Z" fill="white"/>
<path d="M148.952 106.469C149.003 104.28 147.271 102.465 145.082 102.414C142.894 102.362 141.078 104.095 141.027 106.283C140.976 108.472 142.708 110.287 144.897 110.339C147.085 110.39 148.901 108.657 148.952 106.469Z" fill="white"/>
<path d="M115.248 185.173C118.735 185.173 121.563 182.346 121.563 178.858C121.563 175.371 118.735 172.544 115.248 172.544C111.76 172.544 108.933 175.371 108.933 178.858C108.933 182.346 111.76 185.173 115.248 185.173Z" fill="white"/>
<path d="M124.036 174.362C126.973 174.362 129.353 171.981 129.353 169.045C129.353 166.108 126.973 163.728 124.036 163.728C121.1 163.728 118.719 166.108 118.719 169.045C118.719 171.981 121.1 174.362 124.036 174.362Z" fill="white"/>
<path d="M128.369 162.593C130.845 162.593 132.852 160.586 132.852 158.11C132.852 155.634 130.845 153.627 128.369 153.627C125.893 153.627 123.886 155.634 123.886 158.11C123.886 160.586 125.893 162.593 128.369 162.593Z" fill="white"/>
<path d="M139.167 179.733C142.654 179.733 145.481 176.906 145.481 173.418C145.481 169.931 142.654 167.104 139.167 167.104C135.679 167.104 132.852 169.931 132.852 173.418C132.852 176.906 135.679 179.733 139.167 179.733Z" fill="white"/>
<path d="M142.283 165.286C145.219 165.286 147.6 162.906 147.6 159.969C147.6 157.033 145.219 154.652 142.283 154.652C139.346 154.652 136.966 157.033 136.966 159.969C136.966 162.906 139.346 165.286 142.283 165.286Z" fill="white"/>
<path d="M149.746 139.7C152.222 139.7 154.229 137.693 154.229 135.217C154.229 132.741 152.222 130.734 149.746 130.734C147.27 130.734 145.263 132.741 145.263 135.217C145.263 137.693 147.27 139.7 149.746 139.7Z" fill="white"/>
<path d="M153.914 128.642C156.39 128.642 158.398 126.635 158.398 124.159C158.398 121.683 156.39 119.676 153.914 119.676C151.439 119.676 149.431 121.683 149.431 124.159C149.431 126.635 151.439 128.642 153.914 128.642Z" fill="white"/>
<path d="M162.558 108.42C162.621 105.763 160.518 103.559 157.862 103.497C155.205 103.434 153.001 105.537 152.939 108.194C152.877 110.85 154.979 113.054 157.636 113.116C160.292 113.179 162.496 111.076 162.558 108.42Z" fill="white"/>
<path d="M66.7268 214.532C72.3957 214.532 76.9914 209.936 76.9914 204.267C76.9914 198.598 72.3957 194.002 66.7268 194.002C61.0578 194.002 56.4622 198.598 56.4622 204.267C56.4622 209.936 61.0578 214.532 66.7268 214.532Z" fill="white"/>
<path d="M87.3516 205.169C91.9713 205.169 95.7163 201.424 95.7163 196.804C95.7163 192.185 91.9713 188.44 87.3516 188.44C82.7318 188.44 78.9868 192.185 78.9868 196.804C78.9868 201.424 82.7318 205.169 87.3516 205.169Z" fill="white"/>
<path d="M103.165 195.643C107.121 195.643 110.327 192.436 110.327 188.481C110.327 184.525 107.121 181.319 103.165 181.319C99.21 181.319 96.0034 184.525 96.0034 188.481C96.0034 192.436 99.21 195.643 103.165 195.643Z" fill="white"/>
<path d="M122.383 211.894C127.002 211.894 130.747 208.149 130.747 203.529C130.747 198.909 127.002 195.164 122.383 195.164C117.763 195.164 114.018 198.909 114.018 203.529C114.018 208.149 117.763 211.894 122.383 211.894Z" fill="white"/>
<path d="M132.592 194.932C136.548 194.932 139.754 191.725 139.754 187.77C139.754 183.814 136.548 180.608 132.592 180.608C128.637 180.608 125.43 183.814 125.43 187.77C125.43 191.725 128.637 194.932 132.592 194.932Z" fill="white"/>
<path d="M145.481 231.247C151.15 231.247 155.746 226.652 155.746 220.983C155.746 215.314 151.15 210.718 145.481 210.718C139.812 210.718 135.217 215.314 135.217 220.983C135.217 226.652 139.812 231.247 145.481 231.247Z" fill="white"/>
<path d="M153.176 206.577C157.796 206.577 161.541 202.832 161.541 198.212C161.541 193.592 157.796 189.847 153.176 189.847C148.557 189.847 144.812 193.592 144.812 198.212C144.812 202.832 148.557 206.577 153.176 206.577Z" fill="white"/>
<path d="M157.208 185.692C161.164 185.692 164.37 182.486 164.37 178.53C164.37 174.575 161.164 171.368 157.208 171.368C153.253 171.368 150.046 174.575 150.046 178.53C150.046 182.486 153.253 185.692 157.208 185.692Z" fill="white"/>
<path d="M164.425 138.975C167.361 138.975 169.742 136.595 169.742 133.658C169.742 130.722 167.361 128.342 164.425 128.342C161.489 128.342 159.108 130.722 159.108 133.658C159.108 136.595 161.489 138.975 164.425 138.975Z" fill="white"/>
<path d="M176.084 220.914C181.753 220.914 186.348 216.319 186.348 210.65C186.348 204.981 181.753 200.385 176.084 200.385C170.415 200.385 165.819 204.981 165.819 210.65C165.819 216.319 170.415 220.914 176.084 220.914Z" fill="white"/>
<path d="M179.801 193.401C184.421 193.401 188.166 189.656 188.166 185.036C188.166 180.416 184.421 176.671 179.801 176.671C175.182 176.671 171.437 180.416 171.437 185.036C171.437 189.656 175.182 193.401 179.801 193.401Z" fill="white"/>
<path d="M200.502 140.584C200.594 136.653 197.481 133.391 193.55 133.299C189.618 133.207 186.356 136.319 186.264 140.251C186.172 144.183 189.285 147.444 193.217 147.537C197.148 147.629 200.41 144.516 200.502 140.584Z" fill="white"/>
<path d="M208.401 161.477C208.504 157.062 205.009 153.4 200.595 153.297C196.18 153.193 192.518 156.688 192.414 161.103C192.311 165.517 195.806 169.18 200.221 169.283C204.635 169.387 208.298 165.892 208.401 161.477Z" fill="white"/>
<path d="M213.941 187.994C214.065 182.659 209.841 178.233 204.506 178.109C199.171 177.984 194.745 182.209 194.62 187.544C194.496 192.879 198.72 197.305 204.056 197.429C209.391 197.554 213.817 193.33 213.941 187.994Z" fill="white"/>
</svg>
