<?xml version="1.0" encoding="UTF-8" standalone="no"?>
<svg
   id="Layer_1"
   viewBox="0 0 1000 1000"
   version="1.1"
   sodipodi:docname="t2.svg"
   inkscape:version="1.4 (e7c3feb1, 2024-10-09)"
   xmlns:inkscape="http://www.inkscape.org/namespaces/inkscape"
   xmlns:sodipodi="http://sodipodi.sourceforge.net/DTD/sodipodi-0.dtd"
   xmlns="http://www.w3.org/2000/svg"
   xmlns:svg="http://www.w3.org/2000/svg">
  <sodipodi:namedview
     id="namedview7"
     pagecolor="#ffffff"
     bordercolor="#000000"
     borderopacity="0.25"
     inkscape:showpageshadow="2"
     inkscape:pageopacity="0.0"
     inkscape:pagecheckerboard="0"
     inkscape:deskcolor="#d1d1d1"
     inkscape:zoom="0.49295517"
     inkscape:cx="320.51596"
     inkscape:cy="540.61711"
     inkscape:window-width="1200"
     inkscape:window-height="1186"
     inkscape:window-x="62"
     inkscape:window-y="25"
     inkscape:window-maximized="0"
     inkscape:current-layer="Layer_1" />
  <defs
     id="defs1">
    <style
       id="style1">.cls-1{fill-rule:evenodd;}.cls-1,.cls-2{fill:#fff;}.cls-3{fill:#149b9b;}.cls-4{fill:#159b9b;}</style>
  </defs>
  <circle
     style="fill:#159b9b;stroke-width:0.888272;fill-opacity:1"
     id="path8"
     cx="500"
     cy="500"
     r="500" />
  <g
     id="g7"
     transform="matrix(0.87577472,0,0,0.87577472,62.103882,54.501015)">
    <path
       class="cls-2"
       d="m 739.81,483.28 v -160.4 c 0,0 2.91,-17.01 15.53,-20.42 23.92,-5.62 23.86,31.67 23.83,63.07 v 117.72 h 91.94 V 369.03 c 0,-75.33 0,-148.54 -67.47,-148.54 -30.15,0 -50.72,17.3 -63.83,32.86 v -25.29 h -91.97 v 255.16 h 91.97 z"
       id="path1" />
    <path
       class="cls-2"
       d="m 780.18,551.91 c 5.53,0 10.49,-3.44 12.35,-8.62 1.89,-5.19 0.32,-11.01 -3.9,-14.54 l -40.81,-34.03 -0.7,-50.78 c -0.09,-5.45 -3.52,-10.28 -8.62,-12.15 -5.13,-1.86 -10.87,-0.38 -14.42,3.76 l -33.18,38.42 -53.14,-0.15 c -5.51,0 -10.46,3.44 -12.35,8.62 -1.89,5.19 -0.32,11.01 3.93,14.57 l 40.81,34.03 0.7,50.78 c 0.06,5.45 3.5,10.28 8.62,12.15 5.13,1.86 10.84,0.38 14.39,-3.76 l 33.18,-38.42 53.14,0.17 v -0.06 z"
       id="path2" />
    <path
       class="cls-4"
       d="m 683.9,602.25 c -2.35,0 -4.71,-0.4 -6.99,-1.23 -8.02,-2.92 -13.47,-10.6 -13.56,-19.12 l -0.65,-47.31 -38.16,-31.82 c -6.67,-5.57 -9.14,-14.77 -6.17,-22.9 2.96,-8.1 10.75,-13.55 19.4,-13.55 l 49.71,0.14 30.93,-35.82 c 5.53,-6.44 14.64,-8.82 22.66,-5.91 7.98,2.92 13.42,10.58 13.56,19.08 l 0.65,47.34 38.16,31.82 c 6.65,5.55 9.12,14.74 6.15,22.87 -2.78,7.73 -10.02,13.05 -18.23,13.52 -0.39,0.06 -0.79,0.08 -1.19,0.09 l -49.69,-0.16 -30.93,35.81 c -3.96,4.6 -9.74,7.13 -15.64,7.13 z M 637.74,481.34 c -2.35,0 -4.48,1.49 -5.29,3.7 -0.81,2.21 -0.12,4.72 1.7,6.24 l 40.81,34.02 c 1.68,1.4 2.67,3.47 2.7,5.66 l 0.7,50.78 c 0.02,2.33 1.51,4.41 3.69,5.2 2.21,0.8 4.62,0.18 6.14,-1.6 l 33.19,-38.44 c 1.42,-1.65 3.5,-2.6 5.68,-2.6 h 0.02 l 52.2,0.17 c 0.3,-0.04 0.6,-0.06 0.91,-0.06 2.38,0 4.51,-1.47 5.29,-3.66 0.82,-2.24 0.15,-4.74 -1.65,-6.24 l -40.81,-34.02 c -1.68,-1.4 -2.67,-3.47 -2.7,-5.66 l -0.7,-50.78 c -0.04,-2.31 -1.52,-4.41 -3.7,-5.21 -2.17,-0.79 -4.65,-0.15 -6.16,1.6 l -33.19,38.44 c -1.42,1.65 -3.5,2.6 -5.68,2.6 h -0.02 l -53.14,-0.15 z"
       id="path3" />
    <path
       class="cls-2"
       d="m 757.14,745.81 c 0,54.39 -44.37,101 -99.07,100.91 h -36.04 l 13.78,-15.85 c 9.09,-10.46 15.67,-22.87 19.23,-36.21 2.04,-7.6 3.06,-15.44 3.06,-23.3 V 589.64 h 99.05 v 156.2 -0.03 z"
       id="path4" />
    <path
       class="cls-2"
       d="m 303.57,774.76 c 10.84,0 18.21,-3.44 18.21,-10.81 0.12,-2.53 -7.31,-4.31 -18.41,-6.93 -33.91,-8.04 -101.9,-24.18 -91.88,-95.29 7.4,-50.13 56.14,-79.62 110.29,-80.11 20.36,0 43.96,4.75 64.21,13.52 15.88,6.87 25.9,13.87 32.16,18.15 0.93,0.64 1.72,1.19 2.33,1.6 -19.11,32.42 -20.36,66.86 -8.74,89.35 -9.32,-6.67 -22.9,-14.97 -34.46,-21.91 -1.6,-0.96 -3.15,-1.86 -4.54,-2.74 -1.31,-0.79 -2.53,-1.51 -3.64,-2.18 -14.25,-8.21 -39.21,-21.12 -55.2,-21.12 -7.89,0 -13.78,3.44 -14.77,11.3 -0.55,3.87 8.56,6.47 21.76,10.23 33.68,9.58 93.98,26.71 89.02,92 -4.43,59.95 -58.58,84.04 -113.76,85 -30.03,0.5 -69.91,-13.25 -95.02,-29.98 l 33.97,-77.63 c 17.71,16.72 48.74,27.53 68.43,27.53 l 0.06,0.03 z"
       id="path5" />
    <path
       class="cls-2"
       d="m 524.27,774.76 c 10.84,0 18.21,-3.44 18.21,-10.81 0.12,-2.53 -7.34,-4.31 -18.41,-6.93 -33.91,-8.04 -101.9,-24.18 -91.88,-95.29 7.4,-50.13 56.14,-79.62 110.29,-80.11 28.55,0 63.54,9.35 86.67,26.04 l -29.54,75.68 c -6.9,-4.43 -43.81,-27.03 -64.99,-27.03 -7.87,0 -13.78,3.44 -14.77,11.3 -0.55,3.87 8.56,6.47 21.79,10.23 33.68,9.56 93.98,26.71 89.02,92 -4.43,59.95 -58.61,84.04 -113.76,85.03 -28.93,0.47 -67,-12.26 -92.2,-28.14 0,0 -2.16,-1.43 -2.83,-1.86 l -2.48,-1.66 c 12,-13.43 29.95,-59.14 10.84,-104.29 2.88,2.85 5.56,6.12 8.45,9.67 7.75,9.47 17.16,20.97 36.56,32.25 16.31,8.74 35.39,13.92 49.03,13.92 z"
       id="path6" />
    <path
       class="cls-1"
       d="m 148.82,305.93 v 81.57 c 0,69.1 66.56,118.71 132.81,98.93 l 6.82,-2.04 c 44.02,-13.14 68.89,-51.5 77.72,-86 8.07,-31.4 17.94,-52.96 46.23,-72.68 18.35,-12.79 45.15,-15.24 71.72,-11.8 23.3,3.03 42.07,14.57 42.07,18.88 0,0 -46,-14.57 -84.66,-3.7 -50.89,14.27 -56.66,60.13 -52.81,86.61 3.85,26.48 22.29,57.07 64.09,65.69 34.78,7.2 64.53,-8.56 75.33,-15.76 v 17.77 h 89.4 V 334.45 c 0.61,-70.85 -51.5,-95.29 -101.46,-108.31 -40.78,-10.66 -97.36,-10.98 -151.66,21 -55.38,32.6 -77.52,84.66 -87.6,128.32 -3.41,14.77 -11.54,23.13 -21.62,23.13 -7.37,0 -14.13,-3.79 -14.13,-11.16 v -81.57 h 45.33 l -6.35,-78.6 H 241.07 V 162.5 l -92.26,31.43 v 33.33 h -19.9 v 78.6 h 19.9 v 0.06 z m 379.14,92.2 c 0,-15.61 -6.85,-24.88 -22.93,-24.88 -16.08,0 -26.36,9.26 -26.36,24.88 0,15.62 10.75,24.88 26.36,24.88 15.61,0 22.93,-9.76 22.93,-24.88 z"
       id="path7" />
  </g>
</svg>
