<?xml version="1.0" encoding="utf-8"?>
<!-- Generator: Adobe Illustrator 26.3.1, SVG Export Plug-In . SVG Version: 6.00 Build 0)  -->
<svg version="1.1" id="Calque_1" xmlns="http://www.w3.org/2000/svg" xmlns:xlink="http://www.w3.org/1999/xlink" x="0px" y="0px"
	 viewBox="0 0 202 202" style="enable-background:new 0 0 202 202;" xml:space="preserve">
<style type="text/css">
	.st0{fill:url(#SVGID_1_);}
</style>
<radialGradient id="SVGID_1_" cx="-204.1824" cy="495.7396" r="1.0097" gradientTransform="matrix(155.6487 -132.4332 -131.5338 -154.5915 96998.4375 49784.293)" gradientUnits="userSpaceOnUse">
	<stop  offset="7.675360e-02" style="stop-color:#004FFF"/>
	<stop  offset="0.4776" style="stop-color:#CB06ED"/>
	<stop  offset="0.7787" style="stop-color:#FF0062"/>
	<stop  offset="1" style="stop-color:#FF8500"/>
</radialGradient>
<path class="st0" d="M101,0C79,0,57.5,7.2,39.9,20.6C22.4,34,9.6,52.8,3.7,74.2c-5.9,21.3-4.7,44.1,3.4,64.7
	c8.1,20.6,22.8,38,41.6,49.4c3.8,2.3,8.3,3.6,12.7,3.6h0.3c3.3,0,6.5-0.6,9.6-1.9c3-1.3,5.8-3.1,8.1-5.4c2.3-2.3,4.2-5.1,5.4-8.2
	c1.2-3.1,1.9-6.3,1.9-9.6v-46.2c0-0.3-0.1-0.5-0.3-0.7c-0.2-0.2-0.4-0.3-0.7-0.3H70.6c-1.9,0.1-3.8-0.2-5.6-0.9
	c-1.8-0.7-3.4-1.7-4.8-3.1c-1.4-1.3-2.5-2.9-3.2-4.7c-0.7-1.8-1.1-3.7-1.1-5.6c0-1.9,0.4-3.8,1.1-5.6c0.7-1.8,1.8-3.4,3.2-4.7
	c1.4-1.3,3-2.4,4.8-3.1c1.8-0.7,3.7-1,5.6-0.9h60.7c1.9-0.1,3.8,0.2,5.6,0.9c1.8,0.7,3.4,1.7,4.8,3.1c1.4,1.3,2.5,2.9,3.2,4.7
	c0.7,1.8,1.1,3.7,1.1,5.6c0,1.9-0.4,3.8-1.1,5.6c-0.7,1.8-1.8,3.4-3.2,4.7c-1.4,1.3-3,2.4-4.8,3.1c-1.8,0.7-3.7,1-5.6,0.9h-15.1
	c-0.3,0-0.5,0.1-0.7,0.3c-0.2,0.2-0.3,0.4-0.3,0.7v46.2c0,6.7,2.7,13,7.4,17.7c4.7,4.7,11,7.4,17.7,7.4h0.3c4.5,0,8.9-1.3,12.7-3.6
	c18.9-11.5,33.4-28.8,41.6-49.4c8.1-20.6,9.3-43.3,3.4-64.6c-5.9-21.3-18.6-40.1-36.2-53.5C144.5,7.3,123.1,0,101,0L101,0z
	 M29.4,121.5c-3.2,0-6.3-0.9-9-2.7c-2.7-1.8-4.7-4.3-6-7.3c-1.2-3-1.5-6.2-0.9-9.4c0.6-3.1,2.2-6,4.4-8.3c2.3-2.3,5.1-3.8,8.3-4.4
	c3.1-0.6,6.4-0.3,9.3,0.9c3,1.2,5.5,3.3,7.2,6c1.8,2.7,2.7,5.8,2.7,9c0,4.3-1.7,8.4-4.7,11.4C37.8,119.8,33.7,121.5,29.4,121.5
	L29.4,121.5z M101,73.2c-5,0-9.8-1.5-13.9-4.2c-4.1-2.8-7.3-6.7-9.2-11.3c-1.9-4.6-2.4-9.7-1.4-14.5c1-4.9,3.4-9.4,6.9-12.9
	c3.5-3.5,8-5.9,12.8-6.9c4.9-1,9.9-0.5,14.5,1.4c4.6,1.9,8.5,5.1,11.3,9.3c2.8,4.1,4.2,9,4.2,14c0,6.7-2.7,13-7.4,17.7
	C114,70.5,107.7,73.2,101,73.2L101,73.2z M172.4,121.5c-3.2,0-6.3-1-9-2.7c-2.7-1.8-4.7-4.3-6-7.3c-1.2-3-1.5-6.2-0.9-9.4
	c0.6-3.1,2.2-6,4.4-8.3c2.3-2.3,5.1-3.8,8.3-4.4c3.1-0.6,6.4-0.3,9.3,0.9c3,1.2,5.5,3.3,7.2,6c1.8,2.7,2.7,5.8,2.7,9
	c0,4.3-1.7,8.4-4.7,11.5C180.8,119.8,176.7,121.5,172.4,121.5z"/>
</svg>
