<?xml version="1.0" encoding="utf-8"?>
<!-- Generator: Adobe Illustrator 25.0.1, SVG Export Plug-In . SVG Version: 6.00 Build 0)  -->
<svg version="1.1" id="图层_1" xmlns="http://www.w3.org/2000/svg" xmlns:xlink="http://www.w3.org/1999/xlink" x="0px" y="0px"
	 viewBox="0 0 158 64" style="enable-background:new 0 0 158 64;" xml:space="preserve">
<style type="text/css">
	.st0{fill:#FFFFFF;}
</style>
<g>
	<path class="st0" d="M26.2,15.5h-8.5v44.8H9.3V15.5H0.9V7.1h25.4V15.5z"/>
	<path class="st0" d="M42.3,18.5c3.3,0,6.1,1.2,8.5,3.5c2.3,2.3,3.5,5.2,3.5,8.5v29.8h-8.5V30.5c-0.2-2.3-1.4-3.5-3.5-3.5
		c-1.1,0-2,0.3-2.6,1c-0.6,0.7-0.9,1.5-0.9,2.5v29.8h-8.5V7h8.5v12C40,18.7,41.1,18.5,42.3,18.5z"/>
	<path class="st0" d="M82.7,49.4c0.1,1.8,1,2.8,2.8,2.8l-1.1,8.6c-1.1,0-2.9-0.4-5.3-1.3l-4.1,1.4c-3.4,1-6.7,0.6-9.8-1.1
		C62,58.1,60,55.5,59,52.1c-1-3.4-0.7-6.5,0.8-9.3c1.6-2.8,4.2-5,7.9-6.6c2.4-1,4.1-2.1,5-3.3c0.9-1.2,1.3-2.1,1.4-3
		c0-0.5-0.2-1.1-0.5-1.8c-0.4-0.7-1.1-1.1-2.3-1.1c-0.8,0-1.5,0.3-2,0.8c-0.5,0.6-0.8,1.2-0.8,2l-8.6,0.8v-0.9c0-3.2,1.1-5.8,3.4-8
		c2.2-2.2,4.9-3.3,8.1-3.3c3.7,0,6.5,1.1,8.5,3.3c2,2.2,3,4.9,3,8.1V49.4z M74.1,40.9c-0.7,1.1-1.9,2.1-3.4,2.9
		c-1.5,0.8-2.5,1.5-2.8,1.9c-0.8,1-1.1,2.3-0.7,4c0.9,3,3.2,3.8,6.9,2.5V40.9z"/>
	<path class="st0" d="M97.1,60.3h-8.5V7.1h8.5V60.3z"/>
	<path class="st0" d="M111.3,44.2v5.1c0,0.9,0.3,1.8,0.8,2.4c0.5,0.7,1.4,1,2.7,1c1,0,1.8-0.3,2.5-1c0.7-0.7,1-1.5,1-2.4v-0.8h8.6
		v0.8c0,3.3-1.2,6.1-3.5,8.5c-2.4,2.4-5.2,3.5-8.5,3.5s-6.2-1.2-8.5-3.5c-2.4-2.4-3.5-5.2-3.5-8.5V30.6c0-3.3,1.2-6.2,3.5-8.5
		c2.4-2.3,5.2-3.5,8.5-3.5s6.2,1.2,8.5,3.5s3.5,5.2,3.5,8.5v13.6H111.3z M118.3,35.6v-5c0-0.9-0.3-1.8-1-2.5c-0.7-0.7-1.5-1-2.5-1
		s-1.8,0.3-2.5,1c-0.7,0.7-1,1.5-1,2.5v5H118.3z"/>
	<path class="st0" d="M143.8,34.2c3.6,2.5,6.6,5,8.9,7.5c2.3,2.5,3.4,5,3.4,7.5c0,3.4-1.2,6.2-3.7,8.6c-2.5,2.4-5.4,3.6-8.8,3.6
		c-3.4,0-6.2-1.2-8.6-3.6c-2.4-2.4-3.6-5.2-3.6-8.6l8.7-0.7c0,0.2-0.1,0.5-0.1,0.7c0,1,0.3,1.8,1,2.5s1.5,1,2.5,1
		c0.9,0,1.8-0.3,2.5-1c0.7-0.7,1-1.5,1-2.5c-0.1-0.6-0.6-1.4-1.5-2.3c-0.9-0.9-2.6-2.3-5.1-4.1c-2.7-1.8-4.8-3.7-6.2-5.9
		s-2.2-4.5-2.2-7c0-3.5,1-6.2,3.1-8.3s4.9-3.1,8.3-3.1c3.3,0,6.1,1.2,8.4,3.5c2.2,2.3,3.4,5,3.4,7.9l-8.6,0.7c0-1-0.3-1.9-0.9-2.5
		c-0.6-0.7-1.3-1-2.2-1c-0.8,0-1.5,0.2-2.2,0.7c-0.6,0.4-0.9,1.1-0.9,2.1C140.5,31.5,141.6,32.9,143.8,34.2z"/>
</g>
</svg>
