<svg width="48" height="48" viewBox="0 0 48 48" fill="none" xmlns="http://www.w3.org/2000/svg">
<circle cx="24" cy="24" r="24" fill="#40BCFF"/>
<path fill-rule="evenodd" clip-rule="evenodd" d="M28.4696 47.3024C39.4542 45.1596 47.7447 35.4841 47.7447 23.8723C47.7447 10.688 37.0567 0 23.8723 0C10.688 0 0 10.688 0 23.8723C0 35.6098 8.47092 45.3688 19.6328 47.3694V40.0675C16.0004 39.0373 13.093 37.0472 10.9105 34.0972C8.74328 31.1472 7.65967 27.7289 7.65967 23.8424C7.65967 18.7071 9.55217 14.5006 13.3372 11.2228C16.4812 8.50689 20.0601 7.14894 24.0741 7.14894C29.2479 7.14894 33.4221 9.06099 36.5966 12.8851C39.1607 15.9756 40.4427 19.5422 40.4427 23.5848C40.4427 27.5494 39.3057 31.1004 37.0316 34.2377C34.9865 37.0785 32.1325 39.0217 28.4696 40.0675V47.3024ZM28.172 26.4178H19.9533V30C18.1219 28.4547 17.2061 26.4178 17.2061 23.8892C17.2061 21.9069 17.8853 20.1899 19.2436 18.7383C20.6019 17.2867 22.2121 16.5609 24.0741 16.5609C25.9208 16.5609 27.5233 17.2867 28.8816 18.7383C30.24 20.1899 30.9191 21.9069 30.9191 23.8892C30.9191 26.3553 30.0034 28.3923 28.172 30V26.4178Z" fill="white"/>
</svg>
