<svg width="1672" height="1672" viewBox="0 0 1672 1672" fill="none" xmlns="http://www.w3.org/2000/svg">
<circle cx="836.274" cy="836.219" r="835.436" fill="#E6007A"/>
<mask id="mask0" mask-type="alpha" maskUnits="userSpaceOnUse" x="0" y="0" width="1672" height="1672">
<circle cx="836.274" cy="836.219" r="835.436" fill="#C4C4C4"/>
</mask>
<g mask="url(#mask0)">
<rect x="-299.919" y="-66.0518" width="2840.48" height="1871.38" fill="url(#paint0_linear)"/>
<path d="M-30.6062 -2704.78C4.61255 -2283.66 177.141 -1879.1 455.772 -1562.26C741.535 -1237.35 1137.41 -1018.51 1561.82 -940.645C1770.91 -902.158 1989.36 -894.998 2199.33 -931.247C2399.05 -965.706 2600.56 -1052.97 2713.35 -1230.64C2763.73 -1309.4 2794.49 -1402.94 2793.15 -1496.92C2791.81 -1597.16 2749.46 -1687.56 2687.49 -1764.54C2618.84 -1850.01 2531.01 -1922.51 2444.08 -1989.19C2358.04 -2054.98 2265.31 -2113.16 2164.11 -2152.99C1939.42 -2240.7 1716.07 -2191.92 1500.75 -2101.07C1272.49 -2004.86 1051.82 -1891.19 830.697 -1780.65C378.201 -1554.65 -84.1033 -1331.33 -586.53 -1244.51C-712.694 -1222.59 -841.087 -1210.05 -969.035 -1208.71C-1083.61 -1207.37 -1207.99 -1208.26 -1318.99 -1239.59C-1368.03 -1253.46 -1418.41 -1276.74 -1446.94 -1321.04C-1483.94 -1378.32 -1471.02 -1449.93 -1454.97 -1511.69C-1427.77 -1614.62 -1376.5 -1710.39 -1310.08 -1793.18C-1172.77 -1964.58 -977.951 -2078.25 -768.866 -2137.77C-649.389 -2171.78 -525.454 -2189.24 -401.519 -2195.95C-282.042 -2202.21 -154.987 -2206.69 -36.4019 -2187C79.5085 -2168.2 159.754 -2095.7 199.431 -1985.61C239.554 -1875.07 232.421 -1757.82 228.409 -1642.36C222.614 -1469.17 236.879 -1221.69 431.252 -1150.98C532.005 -1114.28 652.374 -1152.77 750.897 -1181.41C853.434 -1211.4 953.295 -1250.78 1048.7 -1298.66C1147.22 -1348.34 1240.84 -1406.96 1328.22 -1474.54C1403.12 -1531.82 1490.05 -1596.27 1540.43 -1677.72C1576.09 -1735.45 1596.6 -1814.66 1533.29 -1860.31C1529.73 -1862.99 1523.48 -1862.54 1519.92 -1860.31C1336.69 -1747.98 1235.05 -1546.14 1196.71 -1339.39C1161.04 -1146.51 1161.93 -908.871 1290.77 -748.21C1394.2 -619.323 1597.04 -584.864 1724.99 -701.22C1786.07 -756.713 1805.24 -842.19 1777.15 -919.611C1743.71 -1011.35 1658.12 -1076.24 1564.94 -1098.62C1442.35 -1128.16 1313.06 -1095.04 1197.15 -1054.76C1089.71 -1017.17 986.73 -967.944 888.207 -911.109C682.689 -792.515 496.34 -644.385 306.426 -502.519C112.499 -357.969 -86.7783 -217.894 -310.574 -123.467C-561.565 -16.9561 -834.846 36.7468 -1107.68 33.1667C-1230.72 31.3765 -1371.15 29.1389 -1483.94 -25.9065C-1605.2 -85.4272 -1642.65 -211.629 -1611.89 -336.936C-1582.47 -456.872 -1509.36 -558.46 -1427.33 -647.517C-1345.74 -736.127 -1252.57 -813.996 -1152.71 -881.124C-953.431 -1014.49 -729.635 -1106.23 -500.489 -1173.81C-442.98 -1190.81 -385.025 -1206.03 -327.069 -1219.9C-264.656 -1235.12 -195.556 -1257.49 -130.913 -1253.46C14.8662 -1244.07 37.157 -1068.64 62.1223 -955.413C173.574 -455.529 216.818 67.1785 428.577 538.868C454.88 597.942 483.858 655.672 515.956 711.613C537.801 750.1 564.549 791.719 611.805 799.327C715.233 814.991 778.092 683.419 808.853 606.445C849.421 504.409 883.749 368.362 853.434 259.166C826.685 163.844 737.523 128.489 646.132 136.992C532.005 147.733 424.119 204.121 320.692 249.321C191.407 305.708 63.4595 366.124 -63.1504 428.33C-314.587 551.847 -562.457 682.524 -814.339 806.04C-1316.77 1054.42 -1846.39 1276.84 -2409 1336.36C-2544.08 1350.68 -2679.6 1355.15 -2815.13 1348.44C-2810.67 1352.91 -2806.21 1357.39 -2801.76 1361.86C-2798.19 1187.33 -2665.34 1045.02 -2507.52 987.287C-2332.32 923.292 -2139.73 971.624 -1983.25 1062.47C-1814.29 1160.93 -1684.11 1309.06 -1563.74 1461.21C-1446.5 1609.79 -1332.81 1760.61 -1202.19 1898.45C-720.273 2405.49 -88.1157 2767.54 593.081 2922.38C750.006 2958.18 928.329 2991.75 1065.64 2884.34C1165.5 2806.02 1210.53 2679.38 1227.02 2557.2C1246.19 2410.86 1230.14 2255.57 1185.12 2115.05C1135.18 1959.31 1027.74 1849.67 860.121 1837.14C679.122 1823.71 492.774 1895.31 320.692 1940.96C106.257 1997.8 -107.731 2054.63 -322.165 2111.47C-533.925 2167.41 -745.239 2223.8 -956.998 2279.74C-1061.32 2307.48 -1166.08 2335.23 -1270.4 2362.98C-1374.28 2390.72 -1478.59 2425.18 -1584.25 2444.43C-1685.9 2462.77 -1767.92 2415.34 -1771.94 2307.93C-1775.06 2230.51 -1747.42 2153.98 -1713.98 2085.51C-1633.29 1920.37 -1542.35 1760.61 -1442.04 1606.66C-1236.07 1289.81 -990.879 998.476 -713.586 742.044C-646.269 679.839 -577.168 619.423 -506.284 561.245C-512.526 561.245 -518.767 561.245 -525.009 561.245C-308.791 729.514 -286.946 1030.25 -243.257 1280.42C-215.171 1441.52 -179.952 1601.74 -138.938 1760.16C-117.985 1840.72 -95.2485 1920.82 -70.7292 2000.48C-50.6677 2066.27 -33.281 2136.53 -2.07446 2197.84C18.8787 2238.56 50.9771 2279.74 99.1243 2286.45C145.934 2293.16 184.719 2264.52 212.36 2229.17C252.928 2176.36 278.34 2110.57 306.426 2050.6C339.861 1979.45 371.959 1907.4 402.275 1834.9C521.306 1550.72 616.709 1256.25 687.146 956.408C766.5 616.738 813.756 269.459 828.468 -79.6094C828.914 -93.0352 810.19 -97.5103 803.503 -86.3223C646.132 184.43 573.02 501.277 599.322 813.648C621.167 1075.45 725.04 1353.81 994.755 1442.42C1129.39 1486.72 1276.51 1480.91 1414.71 1457.63C1558.7 1433.47 1700.02 1390.95 1832.88 1330.54C2095.46 1211.05 2322.38 1012.35 2442.3 745.625C2498.92 619.87 2531.46 482.48 2529.68 344.196C2528.34 224.707 2506.94 80.6042 2412.43 -3.08276C2304.1 -99.3003 2160.55 -42.4648 2059.35 34.5093C1952.35 115.958 1862.75 219.784 1792.75 334.35C1457.95 881.224 1581.44 1586.07 1764.22 2163.83C1946.56 2739.34 2247.48 3276.82 2643.8 3731.5C2692.4 3787.44 2742.77 3842.04 2794.49 3895.3C2806.97 3907.83 2823.91 3889.48 2813.21 3876.5C2279.13 3196.71 1709.83 2544.67 1107.1 1924.85C508.377 1309.5 -122.889 724.591 -782.686 175.032C-1099.66 -89.0073 -1430.89 -336.041 -1743.41 -605.002C-1891.41 -732.547 -2034.07 -866.804 -2163.36 -1013.59C-2230.23 -1089.67 -2293.53 -1169.33 -2351.49 -1252.57C-2377.35 -1290.16 -2402.76 -1328.2 -2426.38 -1367.14C-2438.42 -1386.83 -2450.01 -1406.52 -2461.16 -1426.21C-2478.1 -1455.74 -2477.65 -1469.17 -2462.94 -1499.15C-2381.8 -1662.05 -2155.78 -1692.49 -1995.73 -1708.6C-1783.53 -1729.63 -1569.54 -1718.44 -1359.56 -1681.3C-936.045 -1606.56 -535.262 -1434.71 -157.662 -1232.88C578.815 -839.952 1246.64 -310.979 2042.41 -36.1995C2231.43 29.1389 2425.8 78.814 2624.19 105.218C2723.16 118.644 2822.57 126.251 2922.43 127.594C2963.89 128.042 2984.4 136.992 3004.91 99.4001C3024.97 62.7031 3036.12 21.531 3039.24 -20.5361C3052.61 -187.015 2952.3 -344.991 2828.81 -447.921C2706.66 -549.509 2553.75 -607.24 2398.16 -630.511C2018.33 -686.899 1663.02 -532.503 1334.02 -357.969C1242.18 -309.189 1151.23 -259.066 1059.4 -210.734C972.91 -165.086 838.276 -66.6311 740.198 -127.942C667.085 -173.589 650.144 -277.415 640.337 -356.179C626.071 -472.088 617.155 -588.891 609.576 -705.248C579.707 -1168.88 593.527 -1635.2 651.036 -2096.15C665.748 -2216.09 684.026 -2336.02 704.979 -2455.07C721.92 -2551.28 733.511 -2655.11 773.634 -2745.51C814.202 -2835.91 894.894 -2894.53 996.093 -2858.28C1093.28 -2823.38 1166.39 -2734.32 1234.6 -2660.48C1721.42 -2131.95 2050.88 -1453.95 2634.44 -1018.07C2787.35 -903.948 2963.89 -790.725 3156.04 -765.216C3312.96 -744.182 3493.96 -797.885 3577.77 -942.435C3625.92 -1025.67 3627.7 -1123.68 3617.45 -1216.77C3606.31 -1318.8 3585.8 -1420.39 3563.06 -1520.64C3517.14 -1722.02 3453.39 -1918.93 3373.15 -2108.68C3292.01 -2299.77 3193.93 -2483.26 3080.25 -2656.9C3077.13 -2661.82 3070.89 -2664.95 3065.09 -2663.16C2689.72 -2530.25 2556.87 -2119.42 2368.74 -1807.5C2263.08 -1632.07 2121.31 -1454.85 1929.62 -1370.72C1727.67 -1281.66 1511 -1343.86 1361.66 -1500.5C1169.96 -1701.88 1127.61 -1987.85 1090.16 -2251.44C1083.47 -2246.52 1077.23 -2241.15 1070.54 -2236.23C1408.02 -2088.1 1548.45 -1716.65 1687.1 -1401.59C1723.65 -1318.36 1761.1 -1235.56 1803.01 -1155.01C1855.61 -1053.87 1915.8 -957.203 1969.29 -856.063C2068.26 -668.551 2145.83 -450.159 2081.64 -237.585C2020.56 -35.752 1836.44 43.0122 1662.13 126.699C1583.22 164.739 1504.31 206.358 1440.12 266.774C1369.68 333.008 1322.42 418.932 1284.08 506.647C1205.18 687.894 1151.68 901.81 974.248 1014.14C873.941 1077.69 768.284 1069.63 663.073 1021.75C573.911 981.47 491.436 934.927 395.142 912.551C42.9521 831.549 -374.325 997.58 -524.563 1340.38C-611.496 1539.08 -562.903 1759.27 -471.066 1947.23C-387.254 2118.63 -264.656 2269.89 -120.214 2393.85C200.323 2668.63 614.48 2797.52 1031.76 2811.84C1254.22 2819.45 1481.58 2798.42 1698.69 2749.19C1871.66 2709.81 2045.08 2646.26 2186.4 2535.72C2326.39 2426.52 2418.22 2270.79 2428.92 2091.33C2442.3 1872.94 2349.12 1661.71 2248.37 1473.75C2141.82 1275.05 2016.55 1075.45 1984.45 848.107C1955.03 641.351 2021.01 443.099 2118.64 263.194C2213.6 87.7646 2333.52 -72.0015 2434.27 -243.851C2545.28 -433.153 2612.6 -636.329 2668.77 -848.008C2769.08 -1227.96 2885.43 -1711.73 3291.12 -1876.42C3519.82 -1969.5 3770.81 -1907.3 3994.61 -1831.22C4192.1 -1764.09 4390.93 -1691.59 4577.72 -1597.61C4754.26 -1509 4921.89 -1395.78 5046.27 -1240.04C5062.76 -1219.45 5088.18 -1198.87 5077.48 -1173.36C5069.9 -1155.46 5055.63 -1138.45 5044.49 -1122.79C5015.06 -1081.61 4981.63 -1043.58 4944.62 -1008.67C4875.52 -942.883 4795.72 -889.627 4711.47 -846.665C4536.71 -757.16 4341.89 -709.723 4147.96 -687.347C3925.06 -661.39 3699.48 -662.733 3476.13 -686.899C3018.73 -736.574 2574.7 -882.915 2160.55 -1080.72C1955.03 -1178.73 1756.2 -1290.61 1563.61 -1411.89C1377.26 -1529.59 1196.26 -1655.34 1006.35 -1767.22C822.227 -1875.52 628.3 -1971.29 420.999 -2027.23C247.579 -2074.22 -0.737061 -2108.23 -97.4778 -1912.22C-129.13 -1848.22 -126.455 -1772.14 -84.5491 -1713.52C-49.7761 -1664.74 5.50415 -1637.44 60.7847 -1617.75C196.311 -1569.42 381.322 -1560.47 457.109 -1417.71C539.584 -1262.41 470.483 -1070.43 544.934 -912.004C559.199 -881.572 573.02 -852.035 607.347 -845.77C643.903 -839.057 681.797 -843.085 717.907 -850.693C796.37 -866.804 882.411 -913.794 963.994 -899.473C1074.11 -880.229 1065.64 -753.58 1093.72 -671.683C1116.02 -607.24 1179.32 -536.979 1252.88 -565.62C1264.02 -570.095 1266.7 -588.444 1252.88 -591.576C917.63 -667.656 568.115 -649.307 226.626 -647.07C-134.034 -644.384 -494.248 -640.804 -854.907 -635.881C-1215.57 -630.959 -1575.78 -625.141 -1936.44 -618.428C-2066.62 -615.743 -2203.48 -623.351 -2328.75 -580.836C-2376.01 -565.173 -2422.37 -541.901 -2457.15 -505.204C-2478.54 -482.828 -2519.56 -427.335 -2508.41 -394.219C-2500.84 -371.842 -2462.5 -344.991 -2445.55 -328.433C-2418.81 -302.476 -2391.17 -277.862 -2362.63 -253.696C-2311.81 -211.181 -2257.87 -171.352 -2202.14 -135.102C-2085.34 -58.5757 -1960.07 3.63013 -1830.78 55.5427C-1555.72 166.081 -1264.16 228.287 -972.601 273.934C-282.043 382.235 420.107 392.528 1116.91 354.936C1469.99 335.693 1822.62 304.366 2174.37 267.221C2310.78 252.901 2447.2 233.21 2584.51 238.58C2700.87 243.055 2825.69 262.746 2922.43 331.665C2970.14 365.677 3005.8 410.877 3029.87 463.685C3030.77 458.314 3031.21 452.944 3032.1 447.573C2891.23 560.797 2722.27 626.583 2548.85 670.888C2365.17 717.878 2176.15 747.415 1988.02 771.581C1596.15 821.704 1199.38 833.787 805.286 808.725C608.684 796.195 414.757 769.343 219.493 743.387C153.959 734.884 81.7378 735.331 33.1445 787.692C-2.96582 826.179 -9.20728 880.329 -4.74927 930.899C1.49219 999.37 22.8909 1065.16 38.9402 1131.39C59.0015 1215.52 75.4963 1317.56 -27.9314 1348.44C-105.948 1372.16 -197.785 1357.39 -277.584 1354.7C-380.121 1351.57 -482.211 1348.44 -584.747 1345.31C-1041.26 1330.99 -1498.21 1317.11 -1954.72 1302.79C-1967.65 1302.34 -1973.44 1321.59 -1961.41 1327.85C-1522.28 1558.78 -1083.16 1789.25 -644.04 2020.17C-442.534 2126.24 -242.812 2242.14 -29.7146 2323.59C164.212 2397.44 379.093 2436.82 580.598 2369.24C765.163 2307.48 914.509 2172.78 1046.02 2033.15C1183.78 1887.26 1307.71 1727.94 1416.49 1558.78C1635.38 1217.76 1791.86 835.129 1871.66 437.281C1963.5 -19.1936 1957.26 -486.856 1967.06 -950.491C1971.97 -1184.1 1981.33 -1418.6 2009.86 -1650.87C2024.57 -1772.14 2044.64 -1892.98 2072.28 -2012.02C2095.01 -2110.02 2124.88 -2208.93 2179.27 -2294.4C2234.1 -2379.88 2314.35 -2445.22 2415.1 -2465.36C2508.72 -2484.15 2603.68 -2457.75 2662.53 -2379.88C2746.34 -2268.45 2749.91 -2100.63 2862.7 -2010.23C3000.9 -1899.24 3194.38 -2009.33 3311.63 -2098.84C3447.6 -2202.66 3580 -2359.74 3755.21 -2393.75C3797.56 -2401.81 3843.92 -2402.26 3884.04 -2385.7C3942.45 -2361.53 3961.62 -2307.83 3962.51 -2248.31C3963.84 -2130.61 3949.13 -2010.67 3937.99 -1893.42C3927.29 -1783.78 3925.95 -1658.03 3869.33 -1560.47C3812.72 -1462.46 3701.26 -1424.42 3601.85 -1385.48C3490.4 -1341.63 3378.5 -1297.77 3267.04 -1253.91C3163.17 -1213.19 3057.51 -1163.51 2946.06 -1146.95C2824.36 -1128.61 2708.89 -1167.54 2600.56 -1220.35C2504.71 -1267.34 2412.43 -1321.94 2323.27 -1380.11C1962.61 -1615.96 1653.66 -1920.72 1304.15 -2171.78C968.452 -2412.55 573.465 -2616.17 151.73 -2619.75C-25.2566 -2621.1 -231.22 -2599.17 -339.552 -2440.74C-431.389 -2306.49 -436.739 -2129.72 -449.667 -1973.08C-467.945 -1754.24 -531.696 -1547.93 -572.71 -1333.12C-607.483 -1148.74 -610.158 -964.811 -546.853 -786.25C-436.293 -473.878 -167.024 -218.342 152.621 -131.97C329.162 -84.0847 506.148 -105.118 684.472 -130.627C874.386 -157.926 1091.94 -196.413 1268.93 -97.9578C1452.6 4.52515 1521.7 223.364 1509.22 423.407C1501.64 542.449 1469.1 658.357 1429.86 770.238C1400 856.163 1331.34 965.359 1382.61 1055.31C1402.22 1089.32 1432.09 1117.07 1458.84 1144.82C1496.29 1183.75 1533.74 1222.24 1572.97 1259.38C1641.62 1323.83 1715.18 1384.24 1797.66 1430.34C1976.87 1530.13 2167.23 1526.55 2356.7 1458.53C2456.56 1422.73 2551.97 1376.19 2649.15 1334.12C2752.58 1289.37 2857.35 1248.64 2963.89 1211.94C3169.41 1140.79 3380.28 1084.85 3593.38 1043.68C4024.03 960.883 4466.72 938.955 4903.16 980.127C5118.49 1000.27 5332.03 1036.07 5542.46 1086.64C5559.4 1090.67 5566.53 1064.71 5549.59 1060.68C4705.67 857.505 3807.37 898.23 2984.85 1176.14C2881.87 1211.05 2780.22 1249.54 2679.91 1291.6C2578.71 1334.12 2480.19 1382.9 2378.1 1421.83C2274.23 1461.21 2163.67 1490.75 2051.77 1482.7C1949.23 1475.09 1852.49 1435.26 1766.9 1379.77C1681.3 1324.72 1605.96 1255.35 1534.18 1183.75C1502.98 1152.42 1471.77 1120.65 1441.9 1087.98C1423.62 1067.84 1405.35 1047.26 1396.43 1020.85C1382.61 980.574 1395.54 940.297 1409.36 902.258C1482.02 702.662 1560.04 496.354 1531.06 279.752C1507.44 103.875 1414.26 -62.1558 1248.87 -137.34C1082.58 -212.971 892.219 -186.567 717.907 -161.954C526.655 -135.102 338.078 -106.908 148.609 -160.611C-21.2444 -208.944 -175.94 -306.504 -298.092 -434.048C-420.244 -561.593 -510.743 -720.463 -550.42 -893.208C-599.013 -1103.54 -553.095 -1313.88 -503.164 -1519.29C-477.307 -1624.91 -451.004 -1730.08 -436.739 -1837.93C-424.702 -1925.64 -420.689 -2014.25 -411.773 -2101.97C-392.604 -2282.32 -344.902 -2479.23 -156.77 -2549.94C-56.0173 -2587.53 58.5554 -2593.8 165.55 -2592.01C272.99 -2589.77 379.984 -2574.11 484.303 -2548.15C694.28 -2495.34 892.219 -2401.81 1076.78 -2289.48C1443.69 -2066.61 1753.52 -1764.54 2095.46 -1507.21C2264.87 -1379.67 2444.97 -1256.15 2640.24 -1171.57C2733.41 -1131.29 2831.93 -1105.78 2934.02 -1117.86C3041.46 -1130.84 3142.66 -1176.04 3242.53 -1215.42C3353.98 -1259.28 3465.88 -1303.14 3577.33 -1347C3663.81 -1381.01 3758.33 -1410.99 3829.66 -1472.75C3904.55 -1537.19 3931.3 -1631.62 3944.67 -1726.05C3960.72 -1838.83 3969.64 -1952.94 3977.66 -2066.17C3981.68 -2122.11 3986.58 -2178.05 3987.47 -2233.99C3988.36 -2277.85 3983.91 -2322.6 3958.05 -2359.3C3917.93 -2416.58 3842.58 -2430.9 3777.05 -2424.19C3608.98 -2407.18 3474.35 -2268 3350.41 -2165.52C3226.48 -2063.03 2986.63 -1891.63 2847.09 -2060.8C2754.81 -2172.68 2755.7 -2340.5 2642.02 -2438.95C2521.65 -2542.78 2333.52 -2499.82 2226.53 -2397.33C2083.87 -2260.84 2044.64 -2045.13 2011.65 -1858.96C1930.51 -1400.7 1941.21 -933.932 1928.73 -470.298C1916.69 -18.2986 1875.67 431.463 1724.99 860.19C1587.24 1253.12 1373.69 1619.19 1099.52 1931.56C966.223 2082.83 817.323 2237.22 630.529 2320.01C417.432 2413.99 185.611 2377.74 -25.2566 2297.19C-246.378 2213.06 -453.679 2090.88 -662.764 1980.79C-879.873 1866.67 -1096.98 1752.55 -1314.09 1638.43C-1526.3 1527 -1738.5 1415.57 -1950.71 1304.13C-1952.94 1312.64 -1955.16 1320.69 -1957.39 1329.2C-1542.35 1342.17 -1126.85 1354.7 -711.803 1367.68C-513.418 1373.95 -312.803 1389.16 -114.418 1385.58C-57.8005 1384.69 7.7334 1376.63 47.8562 1331.88C92.4373 1282.65 81.2917 1211.5 68.3633 1151.98C43.844 1035.62 -60.9211 781.427 140.139 765.763C183.382 762.183 227.517 771.581 269.869 778.294C318.908 785.902 367.947 792.615 416.986 798.88C518.185 811.858 619.83 822.151 721.92 829.759C1118.69 860.191 1518.13 852.583 1913.12 806.935C2123.1 782.769 2333.97 751.442 2539.48 699.977C2722.27 654.33 2900.14 585.411 3048.15 466.37C3053.06 462.342 3052.61 455.182 3050.38 450.259C2955.42 243.055 2706.22 207.253 2503.37 211.281C2359.82 214.414 2216.72 235.895 2074.51 250.663C1901.09 268.564 1727.67 284.675 1554.25 298.548C867.253 353.594 174.912 371.942 -511.634 305.709C-827.267 275.277 -1144.24 230.525 -1451.4 151.313C-1725.57 80.6042 -1995.29 -21.4314 -2229.34 -183.435C-2289.52 -225.055 -2346.59 -270.255 -2400.53 -319.93C-2424.6 -342.306 -2449.12 -364.682 -2470.97 -389.296C-2483.89 -403.617 -2484.79 -406.302 -2478.54 -424.65C-2472.75 -440.761 -2464.72 -455.977 -2454.47 -469.85C-2384.92 -562.935 -2244.05 -581.731 -2136.61 -587.101C-1965.86 -595.604 -1793.78 -594.262 -1623.04 -597.395C-1448.28 -600.527 -1273.52 -603.212 -1098.77 -605.897C-746.576 -610.82 -394.386 -615.295 -42.1973 -617.98C132.56 -619.323 306.871 -620.666 481.629 -621.561C648.361 -622.456 815.094 -622.903 981.381 -607.24C1069.65 -598.737 1157.03 -585.311 1243.52 -565.62C1243.52 -574.123 1243.52 -583.073 1243.52 -591.576C1161.93 -560.25 1118.24 -664.523 1105.32 -726.729C1093.72 -781.774 1085.7 -842.637 1044.69 -884.705C973.356 -958.546 866.808 -921.401 782.55 -896.788C731.282 -881.572 665.748 -857.853 611.805 -872.174C560.537 -886.047 543.596 -983.16 536.463 -1028.36C518.631 -1142.93 534.68 -1262.41 500.798 -1374.3C437.939 -1581.05 217.264 -1584.18 48.302 -1650.87C-56.9089 -1692.48 -134.034 -1789.15 -74.2957 -1904.61C5.50439 -2058.56 197.202 -2051.4 342.09 -2019.18C626.962 -1956.08 885.978 -1813.32 1130.73 -1658.92C1379.49 -1502.29 1621.12 -1335.36 1879.24 -1193.94C2395.93 -911.556 2963.45 -702.562 3552.81 -652.887C3827.87 -629.616 4112.3 -638.119 4381.57 -701.667C4614.28 -756.713 4848.33 -859.196 5009.71 -1041.34C5047.61 -1084.3 5081.04 -1131.29 5109.13 -1180.97C5111.36 -1184.99 5111.8 -1190.81 5109.13 -1194.39C4963.79 -1406.52 4747.13 -1548.38 4517.54 -1654.45C4400.29 -1709.04 4279.48 -1755.14 4158.22 -1799.44C4011.99 -1853.15 3864.43 -1907.74 3710.62 -1934.15C3566.63 -1958.76 3417.28 -1956.97 3279.97 -1901.93C3172.53 -1858.52 3078.91 -1786.91 3002.23 -1700.54C2822.13 -1497.81 2739.21 -1236.91 2671.44 -979.132C2632.21 -831.002 2596.1 -681.529 2542.16 -537.426C2492.67 -404.512 2424.47 -281.89 2349.12 -162.401C2213.15 52.8577 2051.77 262.746 1979.99 511.122C1944.77 632.848 1936.3 759.498 1958.59 884.357C1984.01 1026.67 2045.53 1160.03 2111.95 1287.13C2250.15 1551.61 2442.3 1838.03 2391.03 2152.19C2347.79 2414.89 2122.21 2578.23 1888.16 2664.61C1619.78 2763.96 1318.86 2794.84 1034.88 2785.89C471.821 2768.43 -107.285 2525.87 -404.64 2023.31C-479.982 1895.76 -539.72 1751.66 -548.191 1601.74C-557.553 1440.63 -495.139 1292.95 -388.145 1174.8C-215.617 985.497 51.4226 894.65 303.305 925.082C365.718 932.689 427.686 947.905 486.532 971.177C552.512 997.133 613.588 1034.28 679.568 1060.68C795.032 1106.78 912.281 1092.9 1011.7 1017.27C1225.68 854.373 1240.4 568.405 1388.85 360.754C1538.64 151.313 1821.29 133.86 1995.15 -45.1499C2174.37 -229.977 2144.5 -516.84 2051.77 -735.679C1992.48 -874.859 1910.89 -1002.4 1839.12 -1134.87C1780.72 -1243.17 1731.23 -1355.95 1681.75 -1468.72C1589.46 -1679.06 1496.74 -1899.69 1339.37 -2070.64C1265.81 -2150.3 1178.87 -2215.19 1079.46 -2258.6C1068.31 -2263.53 1058.06 -2255.47 1059.84 -2243.39C1094.17 -2004.41 1131.17 -1750.22 1278.74 -1551.52C1397.77 -1390.85 1582.78 -1278.08 1787.4 -1304.03C1984.01 -1328.65 2144.94 -1467.38 2264.42 -1616.85C2395.49 -1780.65 2479.3 -1972.19 2582.28 -2153.88C2696.41 -2355.27 2840.85 -2556.65 3067.32 -2636.76C3062.42 -2639 3057.07 -2640.79 3052.16 -2643.03C3287.11 -2284.11 3454.73 -1882.68 3543.89 -1462.46C3585.8 -1264.2 3656.24 -996.138 3459.19 -858.301C3277.3 -731.204 3049.04 -795.647 2870.72 -893.655C2220.28 -1250.33 1860.96 -1946.23 1403.56 -2501.16C1345.61 -2571.87 1285.42 -2640.79 1223.01 -2707.02C1161.49 -2772.36 1096.85 -2843.07 1012.59 -2878.42C943.487 -2907.06 865.916 -2900.8 808.853 -2849.33C755.355 -2800.55 729.499 -2726.71 712.558 -2657.79C659.952 -2442.98 632.758 -2218.33 608.684 -1998.59C582.827 -1766.33 568.115 -1533.17 564.549 -1299.56C560.982 -1065.95 568.115 -832.344 586.394 -599.184C594.418 -497.149 599.768 -392.428 619.384 -291.736C632.312 -225.502 656.832 -151.213 714.341 -110.041C783.887 -60.3657 866.808 -86.7698 937.246 -119.886C1035.32 -166.429 1130.28 -219.684 1225.68 -271.149C1414.71 -373.185 1605.51 -476.115 1810.59 -543.692C2133.8 -650.202 2536.36 -656.915 2810.54 -424.65C2946.06 -309.636 3072.23 -97.5105 2980.83 80.604C2967.01 107.903 2946.51 101.638 2918.42 101.19C2894.35 100.743 2870.72 100.295 2846.65 99.4001C2794.49 97.1626 2742.33 93.135 2690.61 87.7646C2588.52 77.0239 2486.88 59.5706 2387.02 36.7468C1561.38 -149.871 868.591 -668.103 149.947 -1088.33C-218.738 -1304.03 -603.471 -1501.39 -1013.62 -1624.46C-1211.11 -1683.53 -1413.95 -1724.71 -1619.92 -1739.48C-1811.61 -1752.9 -2015.79 -1750.22 -2203.03 -1702.33C-2275.26 -1683.98 -2347.48 -1655.79 -2406.77 -1609.69C-2432.63 -1589.55 -2455.81 -1566.28 -2474.09 -1538.98C-2487.46 -1518.85 -2513.76 -1476.78 -2509.75 -1451.27C-2506.18 -1431.13 -2484.79 -1405.62 -2474.53 -1388.17C-2462.94 -1368.48 -2450.9 -1348.79 -2438.87 -1329.54C-2412.12 -1287.03 -2384.03 -1245.41 -2354.61 -1204.68C-2300.67 -1129.95 -2242.71 -1057.9 -2181.64 -988.53C-1918.16 -690.479 -1602.53 -445.684 -1292.25 -199.993C-612.833 334.35 35.3735 903.6 651.928 1506.86C1265.81 2107.89 1848.93 2740.69 2396.82 3403.02C2531.46 3565.47 2663.86 3730.16 2794.49 3896.19C2800.73 3889.93 2806.97 3883.66 2813.21 3877.4C2421.79 3471.49 2110.62 2989.96 1900.64 2465.91C1796.32 2205.45 1716.52 1934.7 1664.36 1658.57C1605.07 1343.96 1582.78 1013.24 1666.59 701.32C1735.24 445.783 1878.79 189.8 2101.7 38.5371C2166.34 -5.32031 2246.14 -41.1223 2325.05 -20.0889C2391.48 -2.18774 2436.06 56.438 2461.91 116.854C2514.96 240.37 2512.29 390.738 2486.88 520.52C2432.94 797.985 2257.29 1036.07 2025.91 1193.15C1800.33 1346.2 1515.01 1442.87 1242.18 1449.13C1103.09 1452.26 957.307 1424.97 847.638 1333.67C744.656 1248.19 685.809 1121.99 654.157 993.552C585.056 712.06 620.721 401.479 725.932 133.86C754.018 62.7031 787.899 -5.76782 826.239 -72.0015C817.769 -74.239 809.744 -76.4766 801.274 -78.7144C776.309 513.807 655.94 1101.41 445.518 1655.89C391.129 1799.54 330.053 1940.96 263.628 2079.25C237.325 2134.29 210.577 2213.5 156.188 2247.96C85.75 2292.71 34.0361 2219.32 9.9624 2161.14C-47.5469 2021.52 -84.1033 1868.46 -121.551 1722.57C-160.337 1571.75 -192.881 1419.15 -219.184 1266.09C-262.873 1013.69 -288.284 712.508 -506.284 542.896C-512.526 537.974 -519.213 537.974 -525.009 542.896C-813.447 779.636 -1072.02 1050.84 -1295.37 1350.23C-1408.16 1501.04 -1511.14 1659.02 -1604.76 1822.81C-1651.57 1904.71 -1695.7 1987.95 -1736.72 2072.53C-1766.59 2133.84 -1790.22 2198.73 -1796.9 2267.21C-1802.25 2324.04 -1794.23 2387.14 -1753.66 2430.1C-1699.72 2487.39 -1618.13 2481.57 -1548.14 2465.01C-1334.15 2414.44 -1121.95 2352.23 -909.296 2295.85C-483.548 2182.62 -57.8005 2069.85 367.947 1956.62C544.042 1910.08 753.126 1825.5 936.354 1877.41C1121.81 1930.22 1177.09 2135.63 1198.94 2305.69C1217.21 2448.9 1212.31 2608.22 1146.78 2739.79C1115.57 2802.44 1069.65 2856.59 1008.13 2890.61C916.738 2941.18 810.19 2936.7 710.329 2919.7C355.465 2858.38 7.2876 2724.58 -307.899 2552.28C-624.424 2379.53 -914.646 2158.9 -1165.19 1899.34C-1296.26 1763.29 -1410.83 1615.16 -1526.74 1466.59C-1642.21 1318.9 -1765.25 1173.46 -1923.07 1069.18C-2065.28 975.204 -2238.25 912.998 -2410.34 936.27C-2552.99 955.513 -2689.86 1038.75 -2767.43 1160.93C-2806.21 1221.34 -2827.17 1290.26 -2828.5 1362.31C-2828.5 1369.92 -2822.26 1375.29 -2815.13 1375.74C-1779.52 1424.07 -869.173 848.107 28.6865 414.904C141.922 360.306 255.603 307.499 371.068 257.824C471.375 214.861 584.611 154.893 697.4 163.844C851.65 176.374 846.746 344.196 824.456 460.552C813.757 516.492 796.816 571.538 773.634 623.451C748.668 679.839 711.666 754.127 646.578 771.581C576.14 790.377 541.813 704.005 515.51 654.777C486.532 600.179 459.784 543.792 435.264 486.956C388.9 378.208 351.452 266.327 319.354 152.656C255.157 -75.134 213.697 -308.294 171.345 -541.006C149.501 -660.048 127.656 -779.537 102.691 -898.13C82.6294 -993.901 69.2549 -1104.44 17.0952 -1189.47C-38.6309 -1281.21 -131.805 -1288.37 -228.991 -1268.68C-333.311 -1247.65 -437.184 -1219.9 -538.829 -1189.02C-746.13 -1125.92 -949.419 -1041.79 -1132.65 -924.534C-1301.61 -816.681 -1470.57 -674.816 -1572.21 -498.939C-1662.27 -343.648 -1697.93 -120.334 -1518.72 -13.376C-1433.57 37.6418 -1329.69 47.9348 -1232.95 55.5427C-1109.91 64.9409 -985.53 62.7031 -862.932 49.2773C-629.328 23.321 -401.074 -42.9124 -190.206 -148.081C3.72095 -244.746 179.37 -372.29 352.344 -502.072C524.426 -631.406 694.28 -764.321 879.736 -873.964C975.585 -930.8 1075.45 -980.922 1180.21 -1019.41C1294.34 -1061.48 1421.84 -1099.07 1543.99 -1075.35C1654.11 -1053.87 1767.79 -963.916 1764.22 -841.295C1761.55 -754.028 1692.89 -692.717 1613.98 -669.446C1529.73 -644.384 1433.43 -656.468 1364.33 -712.408C1284.53 -776.404 1241.29 -873.516 1221.23 -971.524C1178.87 -1176.49 1214.98 -1412.78 1313.51 -1596.72C1335.8 -1638.33 1361.66 -1678.16 1391.97 -1713.97C1422.29 -1750.22 1468.65 -1806.16 1513.68 -1823.61C1530.17 -1829.87 1531.06 -1831.66 1542.21 -1813.76C1548.9 -1803.02 1549.79 -1787.81 1549.34 -1775.28C1548 -1748.87 1536.86 -1722.92 1524.38 -1700.54C1496.29 -1650.42 1451.26 -1611.93 1408.91 -1574.34C1235.49 -1419.94 1030.42 -1301.35 811.082 -1227.51C761.151 -1210.95 710.329 -1196.18 658.615 -1184.1C591.298 -1168.43 518.185 -1151.43 450.422 -1172.91C345.657 -1206.03 288.147 -1316.12 266.749 -1417.26C221.276 -1636.1 315.787 -1880 183.382 -2080.04C130.777 -2160.15 51.4226 -2201.77 -42.1973 -2215.19C-159.445 -2231.75 -282.489 -2229.51 -400.628 -2222.8C-817.46 -2200.42 -1273.08 -2028.58 -1446.94 -1615.06C-1482.61 -1530.48 -1521.39 -1415.92 -1479.93 -1326.41C-1444.27 -1249.44 -1358.23 -1217.21 -1280.21 -1202.89C-1046.61 -1159.04 -795.615 -1179.18 -562.902 -1220.8C-53.7883 -1312.09 414.311 -1541.67 873.049 -1771.25C1105.32 -1887.16 1337.14 -2011.12 1580.1 -2103.76C1697.35 -2148.51 1820.84 -2181.63 1947.45 -2174.47C2070.05 -2167.76 2186.85 -2122.56 2292.06 -2060.8C2391.92 -2002.17 2483.31 -1928.78 2568.91 -1850.46C2656.73 -1770.35 2740.54 -1675.48 2762.39 -1554.2C2803.85 -1320.59 2627.31 -1114.28 2427.59 -1025.23C2218.06 -931.247 1969.29 -921.849 1743.71 -942.435C1513.23 -963.021 1285.87 -1026.12 1077.23 -1126.37C671.097 -1321.49 347.886 -1658.03 162.429 -2069.3C71.9299 -2269.79 16.2039 -2485.05 -2.07446 -2704.34C-5.19507 -2721.79 -31.9438 -2721.79 -30.6062 -2704.78Z" fill="#E6007A"/>
</g>
<path d="M579.661 1151H750.827L805.398 953.118C812.923 925.833 851.29 925.85 858.791 953.141L913.173 1151H1084.01L1215 645H1054.61L1013.65 845.811C1007.7 874.972 966.681 875.778 959.61 846.872L910.233 645H753.767L705.665 848.126C698.797 877.128 657.69 876.566 651.603 847.387L637.158 778.138C620.973 700.547 553.102 645 474.48 645H449L579.661 1151Z" fill="white"/>
<defs>
<linearGradient id="paint0_linear" x1="-232.429" y1="816.169" x2="2713.69" y2="813.592" gradientUnits="userSpaceOnUse">
<stop stop-color="#F79420" stop-opacity="0.92"/>
<stop offset="1" stop-color="#C4C4C4" stop-opacity="0"/>
</linearGradient>
</defs>
</svg>
