<?xml version="1.0" standalone="no"?><!DOCTYPE svg PUBLIC "-//W3C//DTD SVG 1.1//EN" "http://www.w3.org/Graphics/SVG/1.1/DTD/svg11.dtd"><svg class="icon" width="450px" height="450.00px" viewBox="0 0 1024 1024" version="1.1" xmlns="http://www.w3.org/2000/svg"><path d="M853.898195 112.168779c7.72531-7.054726 20.162832-2.337982 21.31823 8.133097l10.14938 92.758089a12.822655 12.822655 0 0 0 6.361487 9.764247l80.560708 46.274832c9.066478 5.210619 8.436673 18.586053-1.087434 22.913133l-84.547964 38.368283a12.922336 12.922336 0 0 0-7.267682 9.111788l-18.830725 91.389734c-2.129558 10.276248-14.952212 13.801345-21.993345 6.044319l-50.212248-55.563328-207.663575 637.720921c-15.935434 1.789735-32.015858 3.135434-48.368142 3.44354l-7.023009 0.067964c-1.472566 0-2.88623-0.249204-4.358796-0.262796L755.789027 364.788673l-79.147045 8.771964c-117.660319 38.11908-203.196035 148.271575-205.298407 278.822513l-0.04531 4.9297c0 80.130265 31.490265 152.820673 82.622301 206.38584-66.111434-55.62223-108.186053-139.214159-108.186053-232.701734 0-140.777345 95.331681-259.135434 224.573168-293.303505l0.194832-0.353416c54.802124-13.701664 119.468177-13.384496 124.55646-13.334654h0.317169c-32.328496-9.569416-81.534867-8.282619-113.917735-5.985416l25.124248-44.285735c2.038938-3.579469 2.242832-7.924673 0.552779-11.671788l-25.300956-56.464991a473.627186 473.627186 0 0 0-123.061239-16.193699c-215.130619 0-396.922336 143.210478-456.631504 340.026903a6.511009 6.511009 0 0 1-6.225558 4.675964 6.624283 6.624283 0 0 1-6.402265-8.187469c54.054513-219.706903 251.169982-382.640708 486.245946-382.640708 57.235257 0 112.209558 9.700814 163.436744 27.498478l34.874902 7.281275a12.691257 12.691257 0 0 0 11.200567-3.094655l68.626124-62.79023z m129.694584 211.156956c24.272425 59.71823 37.906124 124.923469 37.906124 193.327575 0 247.585982-175.285239 454.70131-407.515753 502.430584l16.538054-50.357239c199.104566-52.980673 346.515257-235.28892 346.515256-452.073345 0-61.861381-12.260814-120.804814-34.02761-174.909168l40.583929-18.418407zM166.952779 445.000496c-21.150584 59.922124-32.681912 124.411469-32.681912 191.614867 0 101.992212 26.882265 197.505133 73.329275 280.444602-0.208425-0.135929-0.398726-0.289982-0.607151-0.41685-43.791858-30.855929-74.910584-77.321062-89.803894-128.97869a418.512425 418.512425 0 0 1-16.356814-116.047292c0-83.492248 24.340389-161.230159 66.120496-226.616637z m168.325663 180.808495c5.781522 0 10.593416 4.453947 11.087293 10.235469 3.602124 42.233204 36.687292 75.522265 78.689415 79.160637a11.186973 11.186973 0 0 1 10.185629 11.173381c0 5.822301-4.426761 10.693097-10.185629 11.191504-42.002124 3.624779-75.087292 36.927434-78.689415 79.147045a11.16885 11.16885 0 0 1-11.091823 10.249061 11.173381 11.173381 0 0 1-11.105416-10.249061c-3.602124-42.224142-36.682761-75.526796-78.689416-79.147045a11.200566 11.200566 0 0 1-10.185629-11.191504c0-5.822301 4.426761-10.674973 10.185629-11.173381 42.002124-3.638372 75.087292-36.927434 78.689416-79.160637a11.159788 11.159788 0 0 1 11.105416-10.24zM511.891257 3.932885c112.744212 0 216.693805 37.498336 301.19646 100.075611l-33.424991 30.593132c-75.803186-53.950301-168.071929-85.966159-267.776-85.966159-256.502938 0-465.163327 209.978903-465.163328 468.004248 0 63.71908 12.795469 124.420531 35.803752 179.834336 1.236956 37.353345 6.28446 74.462018 16.606018 110.238584 1.939257 6.692248 4.93423 12.877027 7.326584 19.36085C41.381381 739.971398 2.265487 632.963398 2.265487 516.644248 2.265487 233.943221 230.880283 3.937416 511.891257 3.937416zM335.273912 677.697699a108.675398 108.675398 0 0 1-48.386266 48.680779 108.634619 108.634619 0 0 1 48.381735 48.698903 108.539469 108.539469 0 0 1 48.368141-48.698903 108.575717 108.575717 0 0 1-48.368141-48.680779zM261.346549 433.999292c5.799646 0 10.625133 4.453947 11.105416 10.235469 1.812389 21.340885 18.513558 38.128142 39.709451 39.954124a11.186973 11.186973 0 0 1 10.185628 11.17338 11.191504 11.191504 0 0 1-10.185628 11.191505c-21.195894 1.821451-37.897062 18.654018-39.709451 39.936a11.164319 11.164319 0 0 1-11.105416 10.249062 11.146195 11.146195 0 0 1-11.091823-10.249062c-1.812389-21.281982-18.513558-38.114549-39.709452-39.940531a11.200566 11.200566 0 0 1-10.19469-11.186974c0-5.822301 4.440354-10.674973 10.19469-11.17338 21.195894-1.825982 37.897062-18.61777 39.709452-39.954124a11.137133 11.137133 0 0 1 11.091823-10.24z m0 43.80092a66.057062 66.057062 0 0 1-17.49862 17.562053 66.827327 66.827327 0 0 1 17.49862 17.607363 66.877168 66.877168 0 0 1 17.512212-17.607363 66.106903 66.106903 0 0 1-17.512212-17.562053z m177.75915-221.51023a11.191504 11.191504 0 0 1 11.105416 10.262655c3.25777 38.44531 33.415929 68.775646 71.68 72.09685a11.186973 11.186973 0 0 1 10.185628 11.17338c0 5.822301-4.426761 10.693097-10.185628 11.191505-38.264071 3.30308-68.42223 33.628885-71.68 72.092318a11.191504 11.191504 0 0 1-11.105416 10.262655 11.205097 11.205097 0 0 1-11.105416-10.262655c-3.25777-38.463434-33.411398-68.789239-71.666407-72.096849a11.191504 11.191504 0 0 1-10.185628-11.191505c0-5.81777 4.413168-10.674973 10.185628-11.168849 38.255009-3.321204 68.408637-33.65154 71.666407-72.09685a11.205097 11.205097 0 0 1 11.105416-10.262655z m0 50.633629a101.008991 101.008991 0 0 1-42.622867 42.899256 101.117735 101.117735 0 0 1 42.622867 42.91285 101.149451 101.149451 0 0 1 42.63646-42.91285 101.040708 101.040708 0 0 1-42.63646-42.899256z" fill="#444DFF" /></svg>