<?xml version="1.0" encoding="utf-8"?>
<!-- Generator: Adobe Illustrator 25.3.1, SVG Export Plug-In . SVG Version: 6.00 Build 0)  -->
<svg version="1.1" id="图层_1" xmlns="http://www.w3.org/2000/svg" xmlns:xlink="http://www.w3.org/1999/xlink" x="0px" y="0px"
	 viewBox="0 0 120 120" style="enable-background:new 0 0 120 120;" xml:space="preserve">
<style type="text/css">
	.st0{fill:#4571B9;}
</style>
<g>
	<path class="st0" d="M50,38.5c11.8-7.7,27.7-4.4,35.4,7.4c0.1,0.2,0.2,0.3,0.3,0.5l19.1-11c-4.4-7.2-10.6-13.2-18-17.2
		C72.5,20.4,59.5,27.6,50,38.5z"/>
	<path class="st0" d="M24.9,50.3c-0.1-0.3,0-0.6,0.2-0.8c0.2-0.2,0.5-0.3,0.7-0.2c5.9,1.5,12.1,1.2,17.8-0.8
		c1.3-0.5,2.6-1.1,3.8-1.8c-1.5-1-7.2-3-27.2,0c-0.9,0.1-3.1,0.4-5,0.5c3.4,3.6,5.6,8,6.4,12.9C26.1,54.9,24.9,50.3,24.9,50.3z"/>
	<path class="st0" d="M20,45.1c10.9-1.7,17.8-1.9,22.1-1.4c9.2-14.1,23.5-24,39.8-27.8c-24.3-9.9-52.1,1.8-62,26.1
		c-0.4,1.1-0.8,2.2-1.2,3.3L20,45.1z"/>
	<path class="st0" d="M103.4,78.8c-0.3-2.1-1.5-3.9-3.2-5.1l-0.6-0.4c-0.9-0.5-1.9-0.8-2.9-0.6c-0.4,0.1-0.8,0.1-1.2,0.2l0,0
		L94.7,73c-0.7,0.1-1.5,0.3-2.3,0.6c-2.5,0.7-4.8,1.9-6.9,3.4c-1.3,0.8-2.3,1.9-3.1,3.3c-0.1,0.4-0.2,0.8-0.2,1.2
		c0.1,0.7,0.2,1.4,0.4,2c0.6,1.7,0.7,3.5,0.2,5.2c-0.3,1-0.7,1.9-1.2,2.8c-0.8,1.5-1.3,2.4-0.2,4.5c0.3,0.7,0.7,1.2,0.9,1.8
		c1.1,1.6,1.7,3.6,1.6,5.6c0.1,0.2,0.3,0.3,0.5,0.3l0,0c0.4,0,0.8-0.3,0.8-0.7c0.1-1.9-0.5-3.9-1.6-5.4c-0.3-0.5-0.6-1.1-1-1.7
		c-1.1-1.9-0.6-2.7,0.2-4.2c0.5-0.8,0.9-1.7,1.2-2.6c0.5-1.6,0.5-3.4-0.2-5c-0.2-0.6-0.4-1.2-0.4-1.9c0-0.6,0.2-1.2,0.5-1.7l0.1,0.1
		l15.5,4.9c0.1,0,0.2,0,0.2,0c0.2,0,0.4-0.1,0.6-0.2C102.6,83.1,103.6,80.9,103.4,78.8z M99.8,83.8l-14.5-4.6
		c0.4-0.3,0.8-0.6,1.2-0.9c2.2-1.6,4.7-2.8,7.4-3.4c1.1-0.3,2.2-0.5,3.3-0.6c0.6-0.1,1.1,0.1,1.6,0.4l0.6,0.4c1.3,1,2.2,2.4,2.4,4
		C101.8,80.8,101.1,82.5,99.8,83.8z"/>
	<path class="st0" d="M38.6,61.8l0.4,0.1c2,0.3,4,1.1,5.7,2.1c1,0.7,2,1.4,2.9,2.1c1.1,0.8,2.2,1.6,3.2,2.3c2.4,1.5,5,2.5,7.8,2.9
		l0,0c3.6,0.4,7.2,0.3,10.7-0.3c10.7-1.4,17.6-1.3,23.5,0.8c1-0.2,1.9-0.4,2.8-0.6c-6.7-3-14.2-3.4-26.5-1.8
		c-5.1,0.7-11,1.2-16.1-1.4c-1.5-0.8-2.9-1.8-4.2-2.9c-1-0.9-2.2-1.7-3.3-2.4c-1.3-0.8-2.8-1.5-4.3-1.9l0,0l-0.8-0.2l-0.3-0.1
		c-0.6-0.1-1.2-0.2-1.9-0.3l0,0c-5.7-1-11.6-0.2-16.9,2.3c-0.1,0.1-0.3,0.1-0.4,0.1c-0.3,0-0.5-0.1-0.6-0.3
		c-0.1-0.1-0.1-0.2-0.1-0.4l0,0c-0.5-3.4-1.6-6.7-3.3-9.6c-4.3,25.9,13.2,50.4,39.2,54.8c8.9,1.5,18,0.4,26.2-3.1
		c0.3-2.4-0.3-3.5-1.3-5.4c-0.3-0.5-0.6-1.1-1-1.8c-0.2-0.4-0.4-0.9-0.5-1.3c-4.5,1.2-9.2,1.9-13.8,1.9c-5.8,0.1-11.5-1.4-16.4-4.3
		c-5.9-3.6-10.3-9.3-12.2-16c-0.1-0.4,0.2-0.9,0.6-1c0.4-0.1,0.9,0.2,1,0.6v0c1.8,6.2,5.9,11.6,11.5,15c7.5,4.5,17.2,5.2,29.1,2l0,0
		c0.1-1.1,0.4-2.1,1-3.1c0.4-0.8,0.8-1.6,1.1-2.5c0.4-1.4,0.4-2.9-0.2-4.3c-0.3-0.8-0.4-1.6-0.5-2.4c-0.1-2.6,2.2-4.5,3.5-5.5
		c1.2-0.9,2.5-1.7,3.8-2.4h-0.4l-2.1,0.2c-1.6,0.1-3.3,0.4-4.9,0.8c-2.3,0.4-4.5,1.2-6.5,2.1c-2.1,1.1-4.2,2.1-6.4,3
		c-3,1.2-6.3,1.7-9.6,1.5c-1.1-0.1-2.1-0.3-3.1-0.6c-2.7-0.6-5.3-1.8-7.6-3.3C46,76.5,45,75.5,44,74.4c-0.7-0.7-1.4-1.4-2-2.1
		c-0.4-0.5-0.7-1-1.1-1.5c-1.1-1.3-2.3-2.4-3.6-3.4c-3.1-2-6.8-3.1-10.5-3.2c1.8,1,3.1,3.1,3.8,6.3c0.5,2.9,0.6,5.8,0.2,8.7
		c-0.1,1.5-0.2,3-0.2,4.4c0,4.4,0.8,7.6,2.4,10.1c-1.1-1-2.1-2-3.1-3.1c-0.6-2.3-0.9-4.6-0.9-7c0-1.5,0.1-3.1,0.3-4.6
		c0.4-2.7,0.3-5.5-0.1-8.2c-0.5-2.1-1.7-5.6-4.4-5.6c-0.2,0-0.4,0-0.6,0c-3.8,0.5-4.7,4.4-4.7,4.6c0,0.1-0.1,0.2-0.1,0.3
		c-0.2-0.9-0.4-1.9-0.5-2.9c0.8-1.5,2.1-2.6,3.7-3.2c1.7-0.8,7-3.1,15.6-2.3"/>
	<path class="st0" d="M50.3,46.8C50.3,46.8,50.3,46.8,50.3,46.8L50.3,46.8c-2.6,1.8-10.9,6.9-23.7,4.3c0.2,3.1-0.8,6.1-2.6,8.6
		c6.2-2,13-2,19.2,0l0,0l0.7,0.2C47.6,56.5,49.9,51.8,50.3,46.8L50.3,46.8z"/>
</g>
</svg>
