<?xml version="1.0" encoding="UTF-8"?>
<svg width="40px" height="40px" viewBox="0 0 40 40" version="1.1" xmlns="http://www.w3.org/2000/svg" xmlns:xlink="http://www.w3.org/1999/xlink">
    <!-- Generator: Sketch 63.1 (92452) - https://sketch.com -->
    <title>Group 5</title>
    <desc>Created with Sketch.</desc>
    <g id="Page-1" stroke="none" stroke-width="1" fill="none" fill-rule="evenodd">
        <g id="Group-5">
            <circle id="Oval" fill="#1E2022" cx="20" cy="20" r="20"></circle>
            <g id="Centrality_Icon_Negative" transform="translate(12.000000, 10.000000)" fill="#FFFFFF" fill-rule="nonzero">
                <path d="M11.8616135,10.3026307 C12.0977535,10.4151209 12.3780367,10.3801845 12.5790825,10.2132007 L15.758137,7.5936468 C15.9117416,7.46705788 16.0004625,7.27865287 16,7.08004531 L16,5.18276292 C16.0002567,3.03725877 14.4607715,1.19842496 12.3422117,0.813734573 L8.26928191,0.073452868 C6.96801739,-0.165681353 5.6274932,0.185629433 4.61274588,1.03172021 C4.09734161,1.47100188 3.68731288,2.01979043 3.41280864,2.63773404 C1.41195906,3.11647276 0.00101374076,4.89886643 -4.7644661e-16,6.94900552 L-4.7644661e-16,14.8561084 C-0.000358518547,16.9980796 1.53696504,18.8337537 3.65217274,19.2170632 L7.73943949,19.9623133 C7.90645835,19.9900565 8.07567319,20.0025292 8.24497149,19.9995758 L8.3951974,19.9995758 L8.54355328,19.9995758 C9.6256785,19.9995758 10.6093154,19.6573818 11.3897421,19.0090143 C11.9042612,18.5791377 12.3150225,18.0393515 12.5915493,17.4297052 C13.6736746,17.1676256 14.6305076,16.4795114 15.2862655,15.4914341 C15.7598989,14.7639475 16.0077256,13.9134749 15.9987478,13.0463929 L15.9987478,10.4380178 C15.9989112,10.1464493 15.8300481,9.8810133 15.5653231,9.75671707 C15.300598,9.63242084 14.9876348,9.6716252 14.7620332,9.85734379 L11.7275945,12.3551735 C11.5656414,12.5025494 11.4735354,12.711108 11.4738935,12.9296371 L11.4738935,15.5616118 C11.4735933,15.7109134 11.461924,15.8599772 11.4389863,16.0075197 L11.3629383,16.0075197 L11.3560815,16.0075197 C11.2414557,16.0154472 11.1263066,16.0110748 11.0126189,15.9944779 L6.93968911,15.2541962 C5.54189553,15.0004205 4.52594358,13.787506 4.52547772,12.3719416 L4.52547772,4.48036476 C4.52555413,4.32832688 4.53764278,4.17653088 4.56163167,4.02638328 C4.70175659,4.03149284 4.84133068,4.04664399 4.97927216,4.07171933 L9.06529222,4.77660165 C10.4605993,5.02986167 11.4745931,6.240853 11.4745169,7.65388784 L11.4745169,9.69463087 C11.4729358,9.95532774 11.6242271,10.1929559 11.8616135,10.3026307 Z M9.3383169,3.29169095 L5.24980347,2.54644091 L5.22860977,2.54644091 L5.22486971,2.54644091 C5.90473384,1.74607393 6.9623714,1.36916604 7.99750391,1.55836357 L12.0704337,2.29802423 C13.4686898,2.55188389 14.4847815,3.76548807 14.4846451,5.18152084 L14.4846451,6.68630488 L12.9886195,7.91720953 L12.9886195,7.65264576 C12.989394,5.51117013 11.4529159,3.67556573 9.3383169,3.29169095 Z M6.66978115,16.74097 L10.742711,17.4818727 L10.7589179,17.4818727 C10.658691,17.613482 10.5452815,17.734588 10.4204421,17.843319 C9.75257768,18.3998308 8.87064998,18.6311078 8.0143342,18.4742974 L3.92706746,17.7333946 C2.5212245,17.4688366 1.50685169,16.2398733 1.51766731,14.8144986 L1.51766731,6.94900552 C1.51685698,6.08168649 1.90256942,5.25873266 2.57067087,4.70269769 C2.70815185,4.58907477 2.85565246,4.48805564 3.01137509,4.40087143 C3.01137509,4.42757622 3.01137509,4.45428101 3.01137509,4.48036476 L3.01137509,12.3719416 C3.01116772,14.5176412 4.55097362,16.3565447 6.66978115,16.74097 Z M12.9904895,15.6268212 C12.9904895,15.6050847 12.9904895,15.5827272 12.9904895,15.5609908 L12.9904895,13.2743152 L14.4865216,12.0427895 L14.4865216,13.0743398 C14.4878134,13.9446335 14.0992584,14.7701097 13.4268303,15.325616 C13.2903908,15.4392602 13.143696,15.5400912 12.9886195,15.6268212 L12.9904895,15.6268212 Z" id="Shape"></path>
            </g>
        </g>
    </g>
</svg>