<?xml version="1.0" encoding="utf-8"?>
<!-- Generator: Adobe Illustrator 25.3.1, SVG Export Plug-In . SVG Version: 6.00 Build 0)  -->
<svg version="1.1" id="Layer_1" xmlns="http://www.w3.org/2000/svg" xmlns:xlink="http://www.w3.org/1999/xlink" x="0px" y="0px"
	 viewBox="0 0 80 80" style="enable-background:new 0 0 80 80;" xml:space="preserve">
<style type="text/css">
	.st0{fill-rule:evenodd;clip-rule:evenodd;fill:#14202A;}
</style>
<path class="st0" d="M65.7,33.5H53.9l-9.3-21.2c-0.1-0.3-0.4-0.5-0.7-0.5H36c-0.3,0-0.6,0.2-0.7,0.5l-9.3,21.2H14.3
	c-0.4,0-0.8,0.3-0.8,0.8v5.5c0,0.4,0.3,0.8,0.8,0.8H23l-9,20.6c-0.1,0.2-0.1,0.5,0.1,0.7c0.1,0.2,0.4,0.3,0.6,0.3h6.8
	c0.3,0,0.6-0.2,0.7-0.5L40,19.4l17.8,42.3c0.1,0.3,0.4,0.5,0.7,0.5h6.8c0.3,0,0.5-0.1,0.6-0.3c0.1-0.2,0.2-0.5,0.1-0.7l-9-20.6h8.7
	c0.4,0,0.8-0.3,0.8-0.8v-5.5C66.4,33.8,66.1,33.5,65.7,33.5z"/>
</svg>
