<?xml version="1.0" encoding="UTF-8"?>
<svg id="Layer_2" data-name="Layer 2" xmlns="http://www.w3.org/2000/svg" viewBox="0 0 140.61 142.16">
  <defs>
    <style>
      .cls-1 {
        fill: #151515;
        stroke-width: 0px;
      }
    </style>
  </defs>
  <g id="Layer_1-2" data-name="Layer 1">
    <g>
      <path class="cls-1" d="m115.48,86.35c4.76-.72,9.79.04,14.28,2.69,10.38,6.12,13.93,19.69,7.94,30.29-5.99,10.61-19.26,14.24-29.64,8.12-4.45-2.63-7.52-6.39-9.37-11.18-.39-.99-.72-2.21-1.09-3.52-1.17-4.2-2.62-9.45-6.89-11.97-3.87-2.28-8.03-1.29-12.3-.28-1.67.4-3.35.8-5.04,1.01-.62.08-1.24.13-1.86.16-.17.01-.33.01-.5.02h-.12c-.06,0-.12,0-.19,0-.05,0-.1,0-.16,0-.08,0-.15,0-.23,0-1.32,0-2.62-.13-3.87-.36l-.21-.04c-.18-.04-.36-.07-.54-.11-.23-.05-.47-.1-.7-.16-.05-.01-.09-.02-.14-.03-.16-.04-.31-.08-.47-.13-.72-.16-1.45-.33-2.17-.5-4.27-1.02-8.44-2.01-12.3.28-4.27,2.52-5.73,7.77-6.89,11.97-.36,1.31-.7,2.53-1.09,3.52-1.85,4.79-4.92,8.55-9.37,11.18-10.38,6.12-23.65,2.49-29.64-8.12-5.99-10.61-2.44-24.17,7.94-30.3,4.5-2.65,9.52-3.41,14.28-2.69,1.27.19,2.6.59,3.99,1,3.92,1.16,8.27,2.45,13-.34,4.36-2.57,5.57-7.16,6.66-11.27.42-1.58.82-3.09,1.37-4.38.87-2.03,1.98-3.96,3.35-5.72.96-1.26,2.04-2.44,3.11-3.6,3-3.27,5.92-6.46,5.92-11.03,0-5.04-3.72-8.95-6.7-12.09-.93-.98-1.79-1.88-2.44-2.72-3.13-4.03-4.78-8.63-4.78-13.89,0-12.25,9.72-22.18,21.7-22.18s21.7,9.93,21.7,22.18c0,5.31-1.87,10.14-4.86,13.99-.8,1.03-1.8,2.01-2.84,3.03-2.94,2.88-6.21,6.09-6.21,11.67,0,5.14,3.28,8.51,6.21,11.52.24.25.48.49.71.74,1.57,1.48,2.95,3.23,4.07,5.22.94,1.67,1.64,3.41,2.13,5.18.21.71.41,1.46.61,2.22,1.09,4.1,2.3,8.7,6.66,11.27,4.73,2.79,9.08,1.5,13,.34,1.38-.41,2.71-.8,3.99-1Z"/>
      <path class="cls-1" d="m43.92,54.81c0,8.25-6.55,14.94-14.62,14.94s-14.62-6.69-14.62-14.94,6.55-14.94,14.62-14.94,14.62,6.69,14.62,14.94Z"/>
      <path class="cls-1" d="m125.65,54.81c0,8.25-6.55,14.94-14.62,14.94s-14.62-6.69-14.62-14.94,6.55-14.94,14.62-14.94,14.62,6.69,14.62,14.94Z"/>
      <path class="cls-1" d="m69.95,142.16c8.07,0,14.62-6.69,14.62-14.94s-6.55-14.94-14.62-14.94-14.62,6.69-14.62,14.94,6.55,14.94,14.62,14.94Z"/>
    </g>
  </g>
</svg>