<svg xmlns="http://www.w3.org/2000/svg" width="607" height="597" viewBox="0 0 607 597">
  <g id="Amplitude-Icon-Black-wbg" transform="translate(-3304 -7602)">
    <rect id="Rectangle_72" data-name="Rectangle 72" width="607" height="597" transform="translate(3304 7602)" fill="#131313"/>
    <g id="Group_65" data-name="Group 65" transform="translate(3338.643 7631.617)">
      <path id="Union_1" data-name="Union 1" d="M0,269.036C0,120.45,120.45,0,269.031,0S538.066,120.45,538.066,269.036,417.616,538.07,269.031,538.07,0,417.617,0,269.036Zm52.8,0c0,119.417,96.81,216.227,216.228,216.227s216.227-96.81,216.227-216.227S388.452,52.809,269.031,52.809,52.8,149.614,52.8,269.036ZM273.956,387.21c-8.149-16.315-62.625-118.055-62.625-118.055H430.7s-58.08,103.882-64.813,118.055-17.629,39.746-44.179,39.75S282.106,403.53,273.956,387.21ZM130.635,330.646c-7.65-20.267-21.307-61.49-21.307-61.49s12.55-32.723,23.586-61.49c9.43-22.1,17.864-32.611,25.943-32.627,19.1-.042,23.508,12.36,31.158,32.627s21.312,61.49,21.312,61.49-12.551,32.727-23.587,61.49c-9.434,22.108-17.868,32.611-25.943,32.632h-.085C142.687,363.276,138.277,350.886,130.635,330.646Zm226.181-61.49H211.327s58.08-103.882,64.813-118.055,17.629-39.745,44.179-39.745,39.6,23.429,47.747,39.745,62.625,118.055,62.625,118.055Z" fill="#4ee59a"/>
    </g>
  </g>
</svg>
