<svg width="140" height="140" viewBox="0 0 140 140" fill="none" xmlns="http://www.w3.org/2000/svg">
<rect width="140" height="140" fill="#0B0616"/>
<path d="M99.0315 44.1997L77.9685 32.1139C73.0519 29.2954 66.948 29.2954 62.0315 32.1139L40.9685 44.1997C36.0519 47.0212 33 52.2749 33 57.915V82.0865C33 87.7266 36.055 92.9803 40.9685 95.8019L62.0315 107.885C64.4882 109.294 67.2456 110 70 110C72.7543 110 75.5117 109.294 77.9685 107.885L99.0315 95.8019C103.948 92.9803 107 87.7266 107 82.0865V57.915C107.003 52.278 103.948 47.0212 99.0315 44.1997ZM99.9699 82.0865C99.9699 85.237 98.2632 88.1732 95.5149 89.7514L74.4519 101.834C71.7067 103.409 68.2933 103.409 65.5451 101.834L44.482 89.7514C41.7338 88.1762 40.0271 85.237 40.0271 82.0865V57.915C40.0271 54.7645 41.7338 51.8283 44.482 50.2501L65.5451 38.1643C66.9177 37.3767 68.4573 36.9814 69.9969 36.9814C71.5366 36.9814 73.0762 37.3767 74.4489 38.1643L95.5119 50.2501C98.2602 51.8253 99.9668 54.7645 99.9668 57.915V82.0865H99.9699Z" fill="url(#paint0_linear_6510_181603)"/>
<path d="M87.1295 55.9533L67.9067 67.0281C66.7406 67.6981 66.1211 68.9293 66.1666 70.1816C66.1636 70.242 66.1484 70.2963 66.1484 70.3567V85.6502C66.1484 87.5785 67.7215 89.1447 69.665 89.1447C71.6055 89.1447 73.1816 87.5815 73.1816 85.6502V72.0767L90.6461 62.0098C92.3284 61.0441 92.9024 58.9076 91.9337 57.2358C90.9619 55.561 88.8088 54.9877 87.1295 55.9533Z" fill="url(#paint1_linear_6510_181603)"/>
<defs>
<linearGradient id="paint0_linear_6510_181603" x1="41.6124" y1="39.2066" x2="69.8176" y2="70.1922" gradientUnits="userSpaceOnUse">
<stop offset="0.1249" stop-color="#D274F7"/>
<stop offset="1" stop-color="#9A74F7"/>
</linearGradient>
<linearGradient id="paint1_linear_6510_181603" x1="43.3597" y1="33.3505" x2="73.1269" y2="66.052" gradientUnits="userSpaceOnUse">
<stop offset="0.1249" stop-color="#D274F7"/>
<stop offset="1" stop-color="#9A74F7"/>
</linearGradient>
</defs>
</svg>
