<svg width="56" height="56" viewBox="0 0 56 56" fill="none" xmlns="http://www.w3.org/2000/svg">
<g clip-path="url(#clip0_3060_1526)">
<path d="M55.7638 27.9388C55.7638 43.2688 43.3388 55.7026 28.0001 55.7026C12.6613 55.7026 0.236328 43.2776 0.236328 27.9388C0.236328 12.6001 12.6701 0.183838 28.0001 0.183838C43.3301 0.183838 55.7638 12.6088 55.7638 27.9388Z" fill="black"/>
<path d="M38.8676 34.335H32.9526L31.8414 31.6225H24.3339L23.2226 34.335H17.3076L24.3864 18.2087H31.7801L38.8676 34.335ZM28.0964 22.4L26.1364 27.2125H30.0476L28.0964 22.4Z" fill="white"/>
<path d="M28.0876 14.7876C30.3541 14.7876 32.1914 12.9503 32.1914 10.6838C32.1914 8.41739 30.3541 6.58008 28.0876 6.58008C25.8212 6.58008 23.9839 8.41739 23.9839 10.6838C23.9839 12.9503 25.8212 14.7876 28.0876 14.7876Z" fill="white"/>
<path d="M28.0876 49.3501C30.3541 49.3501 32.1914 47.5128 32.1914 45.2463C32.1914 42.9799 30.3541 41.1426 28.0876 41.1426C25.8212 41.1426 23.9839 42.9799 23.9839 45.2463C23.9839 47.5128 25.8212 49.3501 28.0876 49.3501Z" fill="white"/>
<path d="M12.9324 23.0039C15.1988 23.0039 17.0361 21.1666 17.0361 18.9001C17.0361 16.6337 15.1988 14.7964 12.9324 14.7964C10.6659 14.7964 8.82861 16.6337 8.82861 18.9001C8.82861 21.1666 10.6659 23.0039 12.9324 23.0039Z" fill="white"/>
<path d="M43.2512 23.0039C45.5176 23.0039 47.355 21.1666 47.355 18.9001C47.355 16.6337 45.5176 14.7964 43.2512 14.7964C40.9848 14.7964 39.1475 16.6337 39.1475 18.9001C39.1475 21.1666 40.9848 23.0039 43.2512 23.0039Z" fill="white"/>
<path d="M12.9324 41.2739C15.1988 41.2739 17.0361 39.4366 17.0361 37.1702C17.0361 34.9037 15.1988 33.0664 12.9324 33.0664C10.6659 33.0664 8.82861 34.9037 8.82861 37.1702C8.82861 39.4366 10.6659 41.2739 12.9324 41.2739Z" fill="white"/>
<path d="M43.2512 41.2739C45.5176 41.2739 47.355 39.4366 47.355 37.1702C47.355 34.9037 45.5176 33.0664 43.2512 33.0664C40.9848 33.0664 39.1475 34.9037 39.1475 37.1702C39.1475 39.4366 40.9848 41.2739 43.2512 41.2739Z" fill="white"/>
</g>
<defs>
<clipPath id="clip0_3060_1526">
<rect width="56" height="56" fill="white"/>
</clipPath>
</defs>
</svg>
