<?xml version="1.0" encoding="UTF-8"?>
<svg width="1000px" height="1000px" viewBox="0 0 1000 1000" version="1.1" xmlns="http://www.w3.org/2000/svg" xmlns:xlink="http://www.w3.org/1999/xlink">
    <title>BEVM_Token</title>
    <defs>
        <linearGradient x1="0%" y1="50.0303895%" x2="99.990685%" y2="50.0303895%" id="linearGradient-1">
            <stop stop-color="#997D4C" offset="18%"></stop>
            <stop stop-color="#AA8C52" offset="91%"></stop>
            <stop stop-color="#AC8E53" offset="98%"></stop>
        </linearGradient>
    </defs>
    <g id="BEVM_Token" stroke="none" stroke-width="1" fill="none" fill-rule="evenodd">
        <rect fill="#FDF6DD" x="0" y="0" width="1000" height="1000"></rect>
        <g id="编组-23" transform="translate(247.5, 243.75)" fill-rule="nonzero">
            <g id="编组">
                <polygon id="路径" fill="#B0915A" points="221.042275 0 275.776253 34.4900436 233.28747 178.860012 178.569211 144.369968"></polygon>
                <polygon id="路径" fill="#B0915A" points="156.326655 219.964584 211.044914 254.454628 157.584185 436.243931 102.850206 401.753887"></polygon>
                <path d="M309.871026,76.4923023 C305.682919,73.8849123 300.843147,72.5197842 295.912446,72.5550827 L217.411158,72.5550827 L272.145136,107.092373 L350.646425,107.092373 C355.601603,107.025676 360.472365,108.380923 364.683599,110.998095 L309.871026,76.4923023 Z" id="路径" fill="#997D4C"></path>
                <polygon id="路径" fill="#997D4C" points="247.906252 219.964584 302.624511 254.454628 211.044914 254.454628 156.326655 219.964584"></polygon>
                <polygon id="路径" fill="#AB8E56" points="289.750551 144.369968 344.484529 178.860012 302.624511 254.454628 247.906252 219.964584"></polygon>
                <path d="M463.714059,131.156659 C463.572587,128.243117 463.35252,125.329574 462.99098,122.463278 L462.99098,122.195547 C462.519406,118.583805 461.880162,115.029808 461.073247,111.533557 C460.85318,110.588624 460.538797,109.690938 460.30301,108.746005 C459.642807,106.210436 458.935447,103.690615 458.102333,101.23379 C457.9923,100.918813 457.929423,100.588086 457.819389,100.273109 C457.520726,99.4226692 457.112029,98.6982208 456.797646,97.8005347 C455.933095,95.5011985 455.005667,93.2176111 453.983924,91.0127681 C453.418035,89.7686067 452.80499,88.5559431 452.191944,87.3432795 C451.123044,85.2801764 450.006986,83.2485711 448.812333,81.2642124 C448.403636,80.5870106 448.089254,79.8468133 447.664837,79.1853605 C447.240421,78.5239076 446.674533,77.7364636 446.18724,77.0120152 L444.92971,75.1536476 C443.357798,72.8543114 441.628695,70.5864729 439.820996,68.4288765 L439.7424,68.3343833 C437.52505,65.7061071 435.169061,63.1984581 432.684515,60.8221683 L432.401571,60.5229396 C431.332671,59.4992625 430.153737,58.6015764 429.037679,57.625146 C427.921622,56.6487155 426.632654,55.4675496 425.359405,54.4753703 L425.029304,54.1918905 C422.681915,52.3860191 420.250691,50.6851402 417.735632,49.0892539 L362.8759,14.5992103 C365.516713,16.2685914 368.06321,18.0797124 370.499674,19.9853267 C371.788642,20.9932549 372.983295,22.0956764 374.209386,23.1351023 C375.435478,24.1745283 376.677288,25.1824565 377.824784,26.284878 C380.309329,28.6611678 382.665319,31.1688168 384.882669,33.797093 C386.721806,35.9861871 388.435191,38.2697744 390.069979,40.6163573 C390.510115,41.2305636 390.918812,41.8605187 391.343228,42.4904738 C392.254937,43.8606263 393.103769,45.2937742 393.952602,46.7269221 C395.147255,48.7112808 396.273792,50.7428861 397.332213,52.8217381 C397.945259,54.0186528 398.558304,55.2313165 399.124193,56.459729 C400.161655,58.6803208 401.073364,60.9639082 401.953634,63.2632444 C402.378051,64.4129125 402.849624,65.5310829 403.242602,66.6964999 C404.091435,69.1533249 404.814514,71.6731455 405.443279,74.2244638 C405.679066,75.1536476 405.993448,76.0513337 406.213516,76.9962664 C407.037008,80.5145113 407.677118,84.0733247 408.131249,87.658257 C408.524227,90.6190462 408.760014,93.611333 408.901486,96.6193688 C408.901486,97.1705796 408.901486,97.7217903 408.980081,98.2887499 C409.074396,101.265288 409.058677,104.273324 408.980081,107.281359 C408.980081,107.83257 408.980081,108.383781 408.885767,108.950741 C408.712856,111.848534 408.429912,114.777826 408.021215,117.707117 C408.021215,118.037843 408.021215,118.384319 407.895462,118.730794 C407.423888,121.88057 406.795124,125.030345 406.056325,128.306112 C405.930572,128.841574 405.804819,129.361287 405.663347,129.881 C404.940267,132.841789 404.091435,135.786829 403.10113,138.73187 C402.550961,140.306757 401.890758,141.991887 401.277712,143.629771 C400.664667,145.267654 399.89443,147.346506 399.092754,149.204874 C398.46399,150.638022 397.725191,152.07117 397.03355,153.504317 C395.886054,155.898147 394.769996,158.228981 393.433871,160.670057 L353.837406,231.25653 L345.349081,244.989552 C345.427677,244.989552 345.616306,245.320278 345.836374,245.619507 L346.119318,245.981731 L346.842397,246.958162 C346.983869,247.162897 347.15678,247.414879 347.32969,247.635364 L348.272837,248.989767 L348.917321,249.9347 C349.278861,250.470162 349.65612,251.068619 350.049098,251.682825 L350.772178,252.800996 C351.558134,254.060906 352.34409,255.446807 353.287237,256.974448 C353.41299,257.210682 353.554462,257.478413 353.695934,257.714646 C354.466171,259.069049 355.267846,260.549444 356.053802,262.092834 C356.289589,262.549551 356.525376,263.006269 356.761163,263.494484 C357.688591,265.352852 358.631738,267.321461 359.559166,269.416062 C359.653481,269.652295 359.747795,269.920026 359.857829,270.15626 C360.675224,272.046125 361.429741,274.046233 362.231417,276.125085 C362.482922,276.833784 362.750147,277.542484 363.001653,278.266932 C363.347474,279.227614 363.661856,280.219793 363.991958,281.211972 C364.32206,282.204152 364.573565,283.054591 364.840791,283.999524 C365.108016,284.944456 365.422398,286.078376 365.705342,287.149299 C365.988286,288.220223 366.208354,289.086411 366.444141,290.09434 C366.679928,291.102268 366.931434,292.283434 367.151501,293.401604 C367.371569,294.519774 367.560198,295.433209 367.748828,296.55138 C367.937457,297.66955 368.110368,298.866465 368.283278,300.031882 C368.456188,301.197299 368.550503,302.031989 368.660537,303.055667 C368.9592,305.748725 369.194987,308.48903 369.273583,311.308079 L424.007561,345.798122 C423.928965,342.979073 423.693178,340.238768 423.394515,337.54571 C423.394515,337.26223 423.394515,336.963002 423.394515,336.679522 C423.3002,335.939325 423.174447,335.246374 423.064413,334.506177 C422.907222,333.356509 422.734312,332.191092 422.545682,331.057172 C422.357053,329.923253 422.152704,328.97832 421.948356,327.907397 C421.744007,326.836473 421.492501,325.702554 421.240995,324.615881 C420.98949,323.529208 420.753703,322.631522 420.502197,321.670841 C420.250691,320.710159 419.936308,319.57624 419.637645,318.521065 C419.338982,317.46589 419.071757,316.6312 418.773094,315.717765 C418.47443,314.80433 418.12861,313.749155 417.798508,312.788473 C417.672755,312.4105 417.547002,312.001029 417.421249,311.638805 C417.295496,311.276581 417.154024,310.977352 417.012552,310.630877 C416.258034,308.552025 415.44064,306.551918 414.638965,304.662052 C414.54465,304.425819 414.450335,304.158088 414.340301,303.937604 C413.428592,301.827254 412.485445,299.858644 411.558017,298.000277 L410.834938,296.598626 C410.048982,295.023739 409.263026,293.574842 408.492789,292.220438 L408.084091,291.49599 C407.188102,289.921102 406.354988,288.566698 405.553313,287.291039 L405.348964,286.960313 L404.861672,286.204367 L403.714176,284.440492 L403.053973,283.479811 C402.723871,282.991595 402.409489,282.566376 402.126545,282.156905 L401.623533,281.463954 L400.916172,280.487524 L400.633228,280.1253 L400.145936,279.495344 L408.634261,265.762323 L448.104973,195.286092 C448.623704,194.356908 449.126716,193.427724 449.676885,192.514289 C450.447122,191.049644 451.060167,189.584998 451.767528,188.120352 C452.474888,186.655706 453.182249,185.254056 453.811013,183.820908 C453.983924,183.458684 454.188272,183.09646 454.345464,182.718487 C454.974228,181.238092 455.445802,179.741949 456.01169,178.245805 C456.577579,176.749662 457.284939,174.985788 457.835108,173.363653 C457.929423,173.032927 458.086614,172.717949 458.180929,172.387223 C459.029762,169.772909 459.752841,167.127097 460.397325,164.512783 C460.523078,163.99307 460.66455,163.473358 460.774584,162.937896 C460.884618,162.402434 461.136124,161.551994 461.277596,160.859044 C461.812046,158.354972 462.2679,155.8509 462.62944,153.362578 C462.62944,153.016102 462.708036,152.685376 462.755193,152.3389 C463.022418,150.401788 463.273924,148.480425 463.431115,146.559062 C463.52543,145.566883 463.556868,144.574703 463.619745,143.582524 L463.714059,141.913143 C463.855532,138.905107 463.871251,135.897071 463.714059,132.920533 C463.714059,132.290578 463.714059,131.70787 463.714059,131.156659 Z" id="路径" fill="#B29257"></path>
                <polygon id="路径" fill="#997D4C" points="369.210706 311.245083 423.944684 345.750876 264.474205 345.750876 209.740227 311.245083"></polygon>
                <path d="M506.155685,333.592742 C506.155685,331.293405 506.061371,328.994069 505.919898,326.710482 C505.919898,326.001782 505.919898,325.308832 505.809865,324.615881 C505.636954,321.938572 505.401167,319.277011 505.086785,316.6312 C505.086785,316.442213 505.086785,316.253227 505.008189,316.06424 C504.81956,314.489352 504.552335,312.914464 504.316548,311.339577 C504.080761,309.764689 503.844975,308.06381 503.546311,306.441675 C503.247648,304.819541 502.917546,303.2919 502.587445,301.827254 C502.257343,300.362608 501.942961,298.598734 501.549983,296.992348 C501.157005,295.385963 500.748308,293.968564 500.339611,292.456671 C499.930913,290.944779 499.506497,289.306896 499.034924,287.732008 C498.56335,286.15712 498.060338,284.75547 497.573045,283.275075 C497.085753,281.794681 496.739932,280.582017 496.268358,279.27486 C496.189763,279.070125 496.095448,278.881138 496.032572,278.676403 C495.450964,277.101515 494.822199,275.526627 494.224873,274.046233 C493.627546,272.565838 493.124534,271.179937 492.511489,269.778287 C491.898443,268.376636 491.159644,266.770251 490.468003,265.274107 C489.776362,263.777964 489.226192,262.502305 488.55027,261.132152 C487.874348,259.762 486.978358,258.234359 486.270998,256.785462 C485.563637,255.336565 484.887715,254.092404 484.148916,252.785247 C483.410118,251.47809 482.498409,249.966198 481.649576,248.580296 C480.800744,247.194395 480.313451,246.265211 479.60609,245.147041 C479.536657,245.02555 479.45782,244.909703 479.370304,244.800565 C477.515447,241.871274 475.581996,239.036476 473.569948,236.264673 C473.082655,235.571723 472.548205,234.926019 471.998036,234.248817 C470.426124,232.185714 468.854212,230.154109 467.2823,228.185499 C467.015075,227.854772 466.779288,227.492548 466.496344,227.177571 C465.804703,226.358629 465.081623,225.602683 464.374263,224.783741 C463.462554,223.728566 462.550845,222.68914 461.607697,221.633965 C460.66455,220.57879 459.454178,219.366127 458.369558,218.263705 C457.284939,217.161284 456.451826,216.295096 455.47724,215.365912 C455.194296,215.082432 454.927071,214.783203 454.644127,214.515472 C453.072215,213.019329 451.500303,211.554683 449.818357,210.137284 L395.084379,175.64724 C397.017831,177.316622 398.888406,179.080496 400.743262,180.860119 C401.717848,181.805052 402.676714,182.797231 403.619861,183.757913 C404.563008,184.718594 405.820538,185.994254 406.889438,187.143922 C407.958339,188.29359 408.728575,189.207025 409.640284,190.293697 C410.551993,191.38037 411.605175,192.545787 412.564041,193.711204 C414.177871,195.685063 415.749783,197.70092 417.279777,199.758773 C417.798508,200.451724 418.332958,201.097428 418.851689,201.790379 C420.842778,204.562181 422.77099,207.402229 424.636326,210.310522 C425.438001,211.570432 426.208238,212.877589 426.962755,214.168997 C427.717273,215.460405 428.628982,216.893553 429.414938,218.295203 C430.200894,219.696853 430.861097,220.988261 431.568458,222.342665 C432.275818,223.697068 433.14037,225.193212 433.816292,226.657858 C434.492214,228.122503 435.10526,229.42966 435.749744,230.815561 C436.394228,232.201463 437.133026,233.776351 437.79323,235.288243 C438.453433,236.800135 438.940725,238.154539 439.506614,239.603436 C440.072502,241.052332 440.732705,242.642969 441.298593,244.186359 C441.864482,245.729749 442.336055,247.336135 442.870505,248.816529 C443.404956,250.296924 443.892248,251.76157 444.332384,253.257713 C444.772519,254.753857 445.212654,256.407489 445.637071,257.982377 C446.061487,259.557264 446.485903,261.006161 446.847443,262.533802 C447.208983,264.061444 447.539084,265.683578 447.884905,267.258466 C448.230726,268.833354 448.560827,270.408242 448.843771,271.983129 C449.126716,273.558017 449.362502,275.132905 449.598289,276.833784 C449.834076,278.534663 450.11702,279.98356 450.30565,281.558448 C450.65147,284.377497 450.918695,287.228044 451.123044,290.078591 C451.123044,290.78729 451.123044,291.49599 451.233078,292.18894 C451.358831,294.488277 451.437426,296.771864 451.468864,299.0712 C451.468864,299.905891 451.468864,300.740581 451.468864,301.575272 C451.468864,304.520312 451.468864,307.465352 451.217359,310.426142 C450.997291,314.142877 450.620032,317.828114 450.195616,321.450356 C449.881233,324.222159 449.488255,326.993962 449.032401,329.734266 C448.890929,330.647701 448.68658,331.561136 448.529389,332.474571 C448.199287,334.285692 447.884905,336.112562 447.491927,337.907934 C447.319017,338.758374 447.098949,339.593064 446.8946,340.459253 C446.470184,342.364867 446.01433,344.28623 445.527037,346.191844 C445.244093,347.247019 444.92971,348.286445 444.631047,349.34162 C444.159473,351.011001 443.6879,352.680382 443.15345,354.334015 C442.760472,355.578176 442.336055,356.822337 441.911639,358.066499 C441.487223,359.31066 441.047087,360.617817 440.591233,361.877727 C440.135379,363.137638 439.648086,364.36605 439.160793,365.610211 C438.6735,366.854373 438.186208,368.098534 437.667477,369.342696 C437.384532,370.019897 437.085869,370.68135 436.787206,371.358552 C434.979507,375.563503 433.030336,379.705458 430.908255,383.73717 C430.672468,384.178139 430.420962,384.603359 430.185175,385.028578 C427.994978,389.123287 425.663308,393.123502 423.190166,397.029224 L422.59284,397.895412 C419.952028,401.99012 417.159264,405.958838 414.214549,409.801564 C414.041638,410.037797 413.853009,410.258282 413.680098,410.478766 C410.536274,414.541977 407.22478,418.458198 403.745614,422.227429 C403.148288,422.873133 402.535242,423.503088 401.937915,424.133043 C400.617509,425.534694 399.281384,426.904846 397.91382,428.25925 L395.571671,430.527088 C394.251265,431.771249 392.91514,433.015411 391.563296,434.228074 L389.299742,436.243931 C386.768964,438.433025 384.206747,440.574872 381.581654,442.543482 C381.487339,442.622227 381.393025,442.669473 381.314429,442.748218 C378.752212,444.716827 376.127119,446.590944 373.454869,448.417814 L371.317068,449.850962 C368.314716,451.851069 365.280926,453.788181 362.16854,455.583554 L361.775562,455.804038 C358.757491,457.536414 355.692262,459.158549 352.564157,460.717688 L350.394919,461.788612 C347.251095,463.363499 343.965798,464.76515 340.680502,466.103804 L339.10859,466.702262 C336.137676,467.867679 333.119605,468.938602 330.085815,469.946531 L328.042329,470.623732 C324.662718,471.678907 321.23595,472.62384 317.793462,473.458531 L315.608505,473.962495 C312.46468,474.686943 309.26322,475.316898 306.004122,475.85236 C305.50111,475.85236 305.013817,476.041347 304.526525,476.104342 C300.974003,476.671302 297.374325,477.080773 293.774646,477.380001 C292.946772,477.453496 292.113659,477.516492 291.275306,477.568988 C287.581312,477.836719 283.8716,478.009956 280.130449,478.009956 L0,478.009956 L54.7339781,512.5 L334.81727,512.5 C338.558421,512.5 342.268133,512.326762 345.962127,512.059031 C346.810959,512.059031 347.628353,511.948789 348.461467,511.870045 C352.076865,511.570816 355.676543,511.161345 359.229064,510.610135 L360.690943,510.342404 C363.929082,509.806942 367.120063,509.176987 370.311045,508.452538 L372.480283,507.948574 C375.93849,507.108634 379.360018,506.163701 382.744869,505.113776 L384.772636,504.436574 C387.822145,503.449645 390.834976,502.368222 393.81113,501.192305 L395.383042,500.593848 C398.668338,499.255193 401.906477,497.806296 405.097459,496.278655 L407.266697,495.207732 C410.410521,493.632844 413.460031,492.057956 416.478102,490.294081 L416.87108,490.073597 C420.014904,488.278225 423.017256,486.341113 426.019608,484.341005 C426.381148,484.104772 426.758407,483.900037 427.104227,483.663804 C427.450048,483.427571 427.795869,483.15984 428.141689,482.923606 C430.81394,481.080988 433.439033,479.206871 436.00125,477.222512 L436.252756,477.049275 C438.893568,475.001921 441.455785,472.860073 443.986563,470.670979 C444.285226,470.403248 444.599609,470.167015 444.898272,469.915033 L446.234397,468.670871 C447.601961,467.442459 448.938086,466.198298 450.258492,464.938387 C451.044448,464.19819 451.830404,463.457993 452.584922,462.686298 C453.968205,461.331894 455.30433,459.945993 456.624736,458.544343 C457.112029,458.040379 457.63076,457.536414 458.196648,456.969455 C458.306682,456.859213 458.400997,456.717473 458.511031,456.607231 C461.979717,452.8275 465.291211,448.906029 468.445515,444.842819 L468.822774,444.417599 L468.964246,444.197114 C471.91944,440.354388 474.717444,436.322675 477.358256,432.290962 L477.782672,431.692505 C477.841017,431.601447 477.89352,431.506763 477.939864,431.409025 C480.439204,427.519052 482.765634,423.534586 484.950592,419.424129 C485.107783,419.1249 485.296412,418.857169 485.437884,418.573689 C485.579356,418.29021 485.579356,418.258712 485.657952,418.116972 C487.753835,414.064261 489.718725,409.932805 491.552622,405.722605 C491.709813,405.391878 491.882724,405.092649 492.024196,404.746174 C492.165668,404.399699 492.291421,404.068972 492.432893,403.738246 C492.951624,402.478336 493.438917,401.218425 494.004805,399.958515 C494.570693,398.698605 494.963671,397.517439 495.419526,396.273278 C495.87538,395.029116 496.315516,393.70621 496.755651,392.414802 C497.054314,391.501367 497.400135,390.603681 497.698798,389.690246 L497.981743,388.729565 C498.500474,387.075933 498.987766,385.390803 499.45934,383.721422 C499.758003,382.681996 500.072386,381.64257 500.339611,380.571646 C500.842622,378.666032 501.298477,376.72892 501.738612,374.791808 C501.895804,374.05161 502.100152,373.327162 502.273062,372.586965 L502.273062,372.287736 C502.66604,370.476615 502.980423,368.649745 503.310524,366.822875 C503.467716,365.90944 503.672064,365.027503 503.813536,364.114068 C504.269391,361.373763 504.64665,358.617709 504.976751,355.830158 C505.212538,353.704059 505.448325,351.59371 505.636954,349.451862 C505.778426,347.876974 505.904179,346.302087 505.998494,344.727199 C506.171404,341.76641 506.234281,338.821369 506.25,335.892078 C506.155685,335.262123 506.155685,334.427432 506.155685,333.592742 Z" id="路径" fill="url(#linearGradient-1)"></path>
            </g>
            <path d="M310.86133,0 C390.651587,0 434.476495,87.406275 393.370995,160.717304 L353.77453,231.303777 L345.286204,245.036799 C346.4337,246.469947 368.110368,273.825748 369.210706,311.182088 L209.740227,311.182088 L318.390789,114.793574 C329.126948,95.4697007 316.913192,72.4763383 295.912446,72.4763383 L217.411158,72.4763383 L236.022597,0 L310.86133,0 Z" id="路径" fill="#F4D78B"></path>
            <path d="M395.100098,175.725985 C430.389524,206.326056 454.376902,257.620152 451.217359,310.457639 C450.997291,314.174375 450.620032,317.859612 450.195616,321.481854 C440.182536,408.73064 365.799657,478.088701 280.146168,478.088701 L0,478.088701 L141.346333,0 L221.042275,0 L178.600649,144.369968 L289.781989,144.369968 L247.93769,219.964584 L156.326655,219.964584 L102.881645,401.753887 L284.437488,401.753887 C333.088167,401.753887 375.183972,360.806804 378.202043,310.410393 C379.616764,286.881568 370.21673,259.777749 357.028388,243.603651 L395.100098,175.725985 Z" id="路径" fill="#F4D78B"></path>
        </g>
    </g>
</svg>
