<svg xmlns="http://www.w3.org/2000/svg" xmlns:xlink="http://www.w3.org/1999/xlink" viewBox="0 0 1028 1028"><defs><style>.cls-1{fill:#fff;}.cls-2{fill:url(#未命名的渐变_22);}.cls-3{fill:url(#未命名的渐变_22-2);}</style><radialGradient id="未命名的渐变_22" cx="513.75" cy="376.05" r="167.66" gradientUnits="userSpaceOnUse"><stop offset="0" stop-color="#fda649"/><stop offset="0.5" stop-color="#ffbc75"/><stop offset="1" stop-color="#fa8c16"/></radialGradient><radialGradient id="未命名的渐变_22-2" cx="514" cy="625.4" r="178.84" xlink:href="#未命名的渐变_22"/></defs><title>资源 1</title><g id="图层_2" data-name="图层 2"><g id="图层_1-2" data-name="图层 1"><circle class="cls-1" cx="514" cy="514" r="514" transform="translate(-212.91 514) rotate(-45)"/><path class="cls-2" d="M327.88,371.68,541.37,248.42a23.75,23.75,0,0,1,23.77,0l134.48,77.64a23.78,23.78,0,0,1,5,37.36L659,409.23a23.76,23.76,0,0,1-28.73,3.82l-64.88-37.46a24.3,24.3,0,0,0-24.27,0L316,506.86V392.26A23.76,23.76,0,0,1,327.88,371.68Z"/><path class="cls-3" d="M700.11,701.66l-135,77.92a23.73,23.73,0,0,1-23.76,0L327.88,656.32A23.76,23.76,0,0,1,316,635.74V531.8L426,468v104.2a23.77,23.77,0,0,0,11.88,20.58l103.49,59.74a23.73,23.73,0,0,0,23.76,0l65.48-37.8a23.76,23.76,0,0,1,28.68,3.77L705,664.26A23.77,23.77,0,0,1,700.11,701.66Z"/></g></g></svg>