<?xml version="1.0" encoding="UTF-8" standalone="no"?>
<!DOCTYPE svg PUBLIC "-//W3C//DTD SVG 1.1//EN" "http://www.w3.org/Graphics/SVG/1.1/DTD/svg11.dtd">
<svg xmlns="http://www.w3.org/2000/svg" xmlns:dc="http://purl.org/dc/elements/1.1/" version="1.1" xmlns:xl="http://www.w3.org/1999/xlink" viewBox="-410.5 1598 292.1603 292.1603" width="292.1603" height="292.1603">
  <defs/>
  <metadata> Produced by OmniGraffle 7.19\n2021-11-09 06:46:40 +0000</metadata>
  <g id="Canvas_6" fill="none" stroke="none" stroke-dasharray="none" stroke-opacity="1" fill-opacity="1">
    <title>Canvas 6</title>
    <g id="Canvas_6_Layer_1">
      <title>Layer 1</title>
      <g id="Group_283">
        <g id="Group_298">
          <title>Graphic_100</title>
          <g id="Graphic_299">
            <title>Ellipse_5</title>
            <circle cx="-264.41985" cy="1744.0801" r="146.080306461626" fill="#333"/>
          </g>
        </g>
        <g id="Group_295">
          <title>Group_98</title>
          <g id="Group_296">
            <title>Graphic_99</title>
            <g id="Graphic_297">
              <title>Path_95</title>
              <path d="M -265.23185 1617.2051 C -298.04285 1617.2051 -331.86385 1631.2951 -355.43185 1654.1331 C -379.66685 1677.6201 -392.92085 1710.6071 -392.92085 1744.8921 C -392.92085 1775.7571 -381.18885 1807.2791 -360.72085 1830.2321 C -336.89485 1856.9451 -301.47085 1872.5791 -265.23885 1872.5791 C -230.14885 1872.5791 -195.81385 1858.1941 -171.92385 1832.9451 C -150.31585 1810.1091 -137.55285 1777.8971 -137.55285 1745.8921 C -137.55285 1743.3161 -142.31285 1740.8321 -144.88785 1740.8321 C -147.46285 1740.8321 -152.91285 1742.3171 -152.91285 1744.8921 C -152.98009 1806.8975 -203.22652 1857.147 -265.23185 1857.2181 C -327.2411 1857.151 -377.49227 1806.8984 -377.55785 1744.8891 C -377.4884 1682.8823 -327.2387 1632.6335 -265.23185 1632.5651 C -262.65685 1632.5651 -260.34485 1630.8851 -260.40985 1625.0541 C -260.47485 1619.2231 -262.65685 1617.2051 -265.23185 1617.2051" fill="white"/>
            </g>
          </g>
        </g>
        <g id="Group_292">
          <title>Group_96</title>
          <g id="Group_293">
            <title>Graphic_97</title>
            <g id="Graphic_294">
              <title>Path_96</title>
              <path d="M -263.00885 1654.5071 C -312.7336 1654.5573 -353.03114 1694.8544 -353.08185 1744.5791 C -353.0317 1794.304 -312.7346 1834.6014 -263.00985 1834.6521 C -239.90985 1834.6521 -218.41885 1825.2311 -201.95785 1809.7401 C -184.90785 1793.6661 -177.15085 1777.9471 -174.28885 1759.1201 C -173.85485 1757.3261 -177.19885 1754.2371 -181.12985 1754.0301 C -184.52366 1753.7973 -187.64466 1755.8914 -188.71585 1759.1201 C -192.77914 1776.2433 -202.41752 1791.5307 -216.11585 1802.5791 C -228.50185 1812.7531 -244.29185 1820.9701 -263.01585 1820.9701 C -283.64885 1820.9701 -300.36785 1812.5791 -313.74885 1801.0001 C -329.18585 1787.6441 -339.40585 1769.0941 -339.40585 1744.5791 C -339.40585 1721.2381 -329.61185 1702.6571 -315.12185 1688.9711 C -301.17164 1675.4454 -282.44442 1667.976 -263.01485 1668.1881 C -260.76185 1668.1881 -258.61485 1667.3461 -258.50885 1661.7091 C -258.40285 1656.0721 -260.76185 1654.5091 -263.01485 1654.5091" fill="white"/>
            </g>
          </g>
        </g>
        <g id="Group_289">
          <title>Group_92</title>
          <g id="Group_290">
            <title>Graphic_93</title>
            <g id="Graphic_291">
              <title>Path_98</title>
              <path d="M -264.41885 1780.4531 C -276.07385 1780.4531 -284.33985 1776.4851 -290.77285 1769.7871 C -297.38124 1762.881 -300.98384 1753.6377 -300.79185 1744.0811 C -300.79185 1733.4531 -297.36485 1726.0811 -291.72385 1719.6991 C -285.66085 1712.8311 -276.59885 1707.7091 -264.42385 1707.7091 C -261.38285 1707.3931 -257.46285 1707.0571 -257.62885 1700.2011 C -257.79485 1693.3451 -261.57785 1692.3661 -264.42385 1692.3661 C -292.97406 1692.3932 -316.11184 1715.531 -316.13885 1744.0811 C -316.11294 1772.6318 -292.97452 1795.7702 -264.42385 1795.7961 C -235.8732 1795.7702 -212.73477 1772.6318 -212.70885 1744.0811 C -212.70885 1741.2351 -213.87485 1736.5361 -220.23685 1736.9651 C -226.59885 1737.3941 -228.05185 1741.2351 -228.05185 1744.0811 C -228.05185 1754.8231 -232.10785 1762.3981 -237.86385 1768.7971 C -243.92685 1775.5401 -252.35785 1780.4541 -264.42385 1780.4541" fill="white"/>
            </g>
          </g>
        </g>
        <g id="Graphic_288">
          <title>Rectangle_87</title>
          <path d="M -235.76085 1617.2051 L -226.40685 1617.2051 C -222.12665 1617.2051 -218.65685 1620.675 -218.65685 1624.9551 C -218.65685 1629.2354 -222.12665 1632.7051 -226.40685 1632.7051 L -235.76085 1632.7051 C -240.04106 1632.7051 -243.51085 1629.2354 -243.51085 1624.9551 C -243.51085 1620.675 -240.04106 1617.2051 -235.76085 1617.2051 Z" fill="#a5a5a5"/>
        </g>
        <g id="Graphic_287">
          <title>Rectangle_88</title>
          <path d="M -235.76085 1654.5071 L -211.98685 1654.5071 C -207.70665 1654.5071 -204.23685 1657.977 -204.23685 1662.2571 C -204.23685 1666.5374 -207.70665 1670.0071 -211.98685 1670.0071 L -235.76085 1670.0071 C -240.04106 1670.0071 -243.51085 1666.5374 -243.51085 1662.2571 C -243.51085 1657.977 -240.04106 1654.5071 -235.76085 1654.5071 Z" fill="#a5a5a5"/>
        </g>
        <g id="Graphic_286">
          <title>Rectangle_90</title>
          <path d="M -235.76085 1692.7831 L -187.95985 1692.7831 C -183.67965 1692.7831 -180.20985 1696.253 -180.20985 1700.5331 C -180.20985 1704.8134 -183.67965 1708.2831 -187.95985 1708.2831 L -235.76085 1708.2831 C -240.04106 1708.2831 -243.51085 1704.8134 -243.51085 1700.5331 C -243.51085 1696.253 -240.04106 1692.7831 -235.76085 1692.7831 Z" fill="#a5a5a5"/>
        </g>
        <g id="Graphic_285">
          <title>Rectangle_91</title>
          <path d="M -164.34385 1692.7831 L -156.30885 1692.7831 C -152.02865 1692.7831 -148.55885 1696.253 -148.55885 1700.5331 C -148.55885 1704.8134 -152.02865 1708.2831 -156.30885 1708.2831 L -164.34385 1708.2831 C -168.62406 1708.2831 -172.09385 1704.8134 -172.09385 1700.5331 C -172.09385 1696.253 -168.62406 1692.7831 -164.34385 1692.7831 Z" fill="#a5a5a5"/>
        </g>
        <g id="Graphic_284">
          <title>Rectangle_93</title>
          <path d="M -189.37085 1654.4091 L -182.95785 1654.4091 C -178.67765 1654.4091 -175.20785 1657.879 -175.20785 1662.1591 C -175.20785 1666.4394 -178.67765 1669.9091 -182.95785 1669.9091 L -189.37085 1669.9091 C -193.65106 1669.9091 -197.12085 1666.4394 -197.12085 1662.1591 C -197.12085 1657.879 -193.65106 1654.4091 -189.37085 1654.4091 Z" fill="#a5a5a5"/>
        </g>
      </g>
    </g>
  </g>
</svg>
