<?xml version="1.0" encoding="UTF-8" standalone="no"?>
<!DOCTYPE svg PUBLIC "-//W3C//DTD SVG 1.1//EN" "http://www.w3.org/Graphics/SVG/1.1/DTD/svg11.dtd">
<svg xmlns="http://www.w3.org/2000/svg" xmlns:dc="http://purl.org/dc/elements/1.1/" version="1.1" xmlns:xl="http://www.w3.org/1999/xlink" viewBox="-363.5 1026.5 292.1603 292.1603" width="292.1603" height="292.1603">
  <defs/>
  <metadata> Produced by OmniGraffle 7.19\n2021-11-09 06:36:38 +0000</metadata>
  <g id="Canvas_6" fill="none" stroke="none" stroke-dasharray="none" stroke-opacity="1" fill-opacity="1">
    <title>Canvas 6</title>
    <g id="Canvas_6_Layer_1">
      <title>Layer 1</title>
      <g id="Group_249">
        <g id="Group_264">
          <title>Graphic_100</title>
          <g id="Graphic_265">
            <title>Ellipse_5</title>
            <circle cx="-217.41985" cy="1172.5801" r="146.080306461626" fill="#333"/>
          </g>
        </g>
        <g id="Group_261">
          <title>Group_98</title>
          <g id="Group_262">
            <title>Graphic_99</title>
            <g id="Graphic_263">
              <title>Path_95</title>
              <path d="M -218.23185 1045.7051 C -251.04285 1045.7051 -284.86385 1059.7951 -308.43185 1082.6331 C -332.66685 1106.1201 -345.92085 1139.1071 -345.92085 1173.3921 C -345.92085 1204.2571 -334.18885 1235.7791 -313.72085 1258.7321 C -289.89485 1285.4451 -254.47085 1301.0791 -218.23885 1301.0791 C -183.14885 1301.0791 -148.81385 1286.6941 -124.92385 1261.4451 C -103.31585 1238.6091 -90.55285 1206.3971 -90.55285 1174.3921 C -90.55285 1171.8161 -95.31285 1169.3321 -97.88785 1169.3321 C -100.46285 1169.3321 -105.91285 1170.8171 -105.91285 1173.3921 C -105.98009 1235.3975 -156.22652 1285.647 -218.23185 1285.7181 C -280.2411 1285.6509 -330.49227 1235.3984 -330.55785 1173.3891 C -330.4884 1111.3823 -280.23868 1061.1335 -218.23185 1061.0651 C -215.65685 1061.0651 -213.34485 1059.3851 -213.40985 1053.5541 C -213.47485 1047.7231 -215.65685 1045.7051 -218.23185 1045.7051" fill="white"/>
            </g>
          </g>
        </g>
        <g id="Group_258">
          <title>Group_96</title>
          <g id="Group_259">
            <title>Graphic_97</title>
            <g id="Graphic_260">
              <title>Path_96</title>
              <path d="M -216.00885 1083.0071 C -265.73362 1083.0573 -306.03114 1123.3544 -306.08185 1173.0791 C -306.0317 1222.8039 -265.7346 1263.1014 -216.00985 1263.1521 C -192.90985 1263.1521 -171.41885 1253.7311 -154.95785 1238.2401 C -137.90785 1222.1661 -130.15085 1206.4471 -127.28885 1187.6201 C -126.85485 1185.8261 -130.19885 1182.7371 -134.12985 1182.5301 C -137.52366 1182.2973 -140.64466 1184.3914 -141.71585 1187.6201 C -145.77914 1204.7433 -155.41752 1220.0307 -169.11585 1231.0791 C -181.50185 1241.2531 -197.29185 1249.4701 -216.01585 1249.4701 C -236.64885 1249.4701 -253.36785 1241.0791 -266.74885 1229.5001 C -282.18585 1216.1441 -292.40585 1197.5941 -292.40585 1173.0791 C -292.40585 1149.7381 -282.61185 1131.1571 -268.12185 1117.4711 C -254.17164 1103.9454 -235.44442 1096.476 -216.01485 1096.6881 C -213.76185 1096.6881 -211.61485 1095.8461 -211.50885 1090.2091 C -211.40285 1084.5721 -213.76185 1083.0091 -216.01485 1083.0091" fill="white"/>
            </g>
          </g>
        </g>
        <g id="Group_255">
          <title>Group_92</title>
          <g id="Group_256">
            <title>Graphic_93</title>
            <g id="Graphic_257">
              <title>Path_98</title>
              <path d="M -217.41885 1208.9531 C -229.07385 1208.9531 -237.33985 1204.9851 -243.77285 1198.2871 C -250.38124 1191.381 -253.98384 1182.1377 -253.79185 1172.5811 C -253.79185 1161.9531 -250.36485 1154.5811 -244.72385 1148.1991 C -238.66085 1141.3311 -229.59885 1136.2091 -217.42385 1136.2091 C -214.38285 1135.8931 -210.46285 1135.5571 -210.62885 1128.7011 C -210.79485 1121.8451 -214.57785 1120.8661 -217.42385 1120.8661 C -245.97406 1120.8932 -269.11184 1144.031 -269.13885 1172.5811 C -269.11294 1201.1318 -245.97452 1224.2702 -217.42385 1224.2961 C -188.87319 1224.2702 -165.73477 1201.1318 -165.70885 1172.5811 C -165.70885 1169.7351 -166.87485 1165.0361 -173.23685 1165.4651 C -179.59885 1165.8941 -181.05185 1169.7351 -181.05185 1172.5811 C -181.05185 1183.3231 -185.10785 1190.8981 -190.86385 1197.2971 C -196.92685 1204.0401 -205.35785 1208.9541 -217.42385 1208.9541" fill="white"/>
            </g>
          </g>
        </g>
        <g id="Graphic_254">
          <title>Rectangle_87</title>
          <path d="M -188.76085 1045.7051 L -179.40685 1045.7051 C -175.12665 1045.7051 -171.65685 1049.175 -171.65685 1053.4551 C -171.65685 1057.7354 -175.12665 1061.2051 -179.40685 1061.2051 L -188.76085 1061.2051 C -193.04106 1061.2051 -196.51085 1057.7354 -196.51085 1053.4551 C -196.51085 1049.175 -193.04106 1045.7051 -188.76085 1045.7051 Z" fill="#00c798"/>
        </g>
        <g id="Graphic_253">
          <title>Rectangle_88</title>
          <path d="M -188.76085 1083.0071 L -164.98685 1083.0071 C -160.70665 1083.0071 -157.23685 1086.477 -157.23685 1090.7571 C -157.23685 1095.0374 -160.70665 1098.5071 -164.98685 1098.5071 L -188.76085 1098.5071 C -193.04106 1098.5071 -196.51085 1095.0374 -196.51085 1090.7571 C -196.51085 1086.477 -193.04106 1083.0071 -188.76085 1083.0071 Z" fill="#00c798"/>
        </g>
        <g id="Graphic_252">
          <title>Rectangle_90</title>
          <path d="M -188.76085 1121.2831 L -140.95985 1121.2831 C -136.67965 1121.2831 -133.20985 1124.753 -133.20985 1129.0331 C -133.20985 1133.3134 -136.67965 1136.7831 -140.95985 1136.7831 L -188.76085 1136.7831 C -193.04106 1136.7831 -196.51085 1133.3134 -196.51085 1129.0331 C -196.51085 1124.753 -193.04106 1121.2831 -188.76085 1121.2831 Z" fill="#00c798"/>
        </g>
        <g id="Graphic_251">
          <title>Rectangle_91</title>
          <path d="M -117.34385 1121.2831 L -109.30885 1121.2831 C -105.02865 1121.2831 -101.55885 1124.753 -101.55885 1129.0331 C -101.55885 1133.3134 -105.02865 1136.7831 -109.30885 1136.7831 L -117.34385 1136.7831 C -121.62406 1136.7831 -125.09385 1133.3134 -125.09385 1129.0331 C -125.09385 1124.753 -121.62406 1121.2831 -117.34385 1121.2831 Z" fill="#00c798"/>
        </g>
        <g id="Graphic_250">
          <title>Rectangle_93</title>
          <path d="M -142.37085 1082.9091 L -135.95785 1082.9091 C -131.67765 1082.9091 -128.20785 1086.379 -128.20785 1090.6591 C -128.20785 1094.9394 -131.67765 1098.4091 -135.95785 1098.4091 L -142.37085 1098.4091 C -146.65106 1098.4091 -150.12085 1094.9394 -150.12085 1090.6591 C -150.12085 1086.379 -146.65106 1082.9091 -142.37085 1082.9091 Z" fill="#00c798"/>
        </g>
      </g>
    </g>
  </g>
</svg>
