<?xml version="1.0" encoding="UTF-8" standalone="no"?>
<!DOCTYPE svg PUBLIC "-//W3C//DTD SVG 1.1//EN" "http://www.w3.org/Graphics/SVG/1.1/DTD/svg11.dtd">
<svg xmlns:xl="http://www.w3.org/1999/xlink" version="1.1" xmlns="http://www.w3.org/2000/svg" xmlns:dc="http://purl.org/dc/elements/1.1/" viewBox="-1732 3827 366.55786 359.5" width="366.55786" height="359.5">
  <defs/>
  <metadata> Produced by OmniGraffle 7.19\n2021-10-28 17:04:28 +0000</metadata>
  <g id="Canvas_4" stroke-opacity="1" fill="none" stroke="none" stroke-dasharray="none" fill-opacity="1">
    <title>Canvas 4</title>
    <g id="Canvas_4_Layer_1">
      <title>Layer 1</title>
      <g id="Group_1789">
        <g id="Graphic_1788">
          <ellipse cx="-1548.721" cy="4006.75" rx="183.279223503402" ry="179.750287222866" fill="#9d2c31"/>
        </g>
        <g id="Group_1786">
          <title>Graphic_357</title>
          <g id="Graphic_1787">
            <path d="M -1548.7212 3856.765 C -1631.3984 3856.765 -1698.6635 3924.0347 -1698.6635 4006.7075 C -1698.6635 4089.3846 -1631.3984 4156.65 -1548.7212 4156.65 C -1466.0482 4156.65 -1398.7787 4089.3846 -1398.7787 4006.7075 C -1398.7787 4003.5336 -1401.3721 4000.9405 -1404.5457 4000.9405 C -1407.7233 4000.9405 -1410.3126 4003.5336 -1410.3126 4006.7075 C -1410.3126 4083.0336 -1472.3992 4145.116 -1548.7212 4145.116 C -1625.043 4145.116 -1687.1295 4083.0336 -1687.1295 4006.7075 C -1687.1295 3930.385 -1625.043 3868.299 -1548.7212 3868.299 C -1545.5477 3868.299 -1542.954 3865.71 -1542.954 3862.532 C -1542.954 3859.358 -1545.5477 3856.765 -1548.7212 3856.765" fill="white"/>
          </g>
        </g>
        <g id="Group_1784">
          <title>Graphic_356</title>
          <g id="Graphic_1785">
            <path d="M -1550.5269 3885.477 C -1617.3847 3885.477 -1671.757 3939.8496 -1671.757 4006.7075 C -1671.757 4073.5656 -1617.3847 4127.938 -1550.5269 4127.938 C -1494.5196 4127.938 -1446.0851 4089.9463 -1432.7642 4035.574 C -1432.0517 4032.6253 -1433.8607 4029.632 -1436.8101 4028.9 C -1439.7592 4028.1916 -1442.752 4030 -1443.4843 4032.9495 C -1455.602 4082.3933 -1499.6223 4116.917 -1550.5269 4116.917 C -1611.2923 4116.917 -1660.736 4067.473 -1660.736 4006.7075 C -1660.736 3945.9426 -1611.2923 3896.4978 -1550.5269 3896.4978 C -1547.4945 3896.4978 -1545.0162 3894.024 -1545.0162 3890.988 C -1545.0162 3887.9555 -1547.4945 3885.477 -1550.5269 3885.477" fill="white"/>
          </g>
        </g>
        <g id="Group_1782">
          <title>Graphic_354</title>
          <g id="Graphic_1783">
            <path d="M -1494.442 4054.9364 C -1508.8798 4072.3012 -1530.0568 4082.2605 -1552.559 4082.2605 C -1594.2208 4082.2605 -1628.1122 4048.369 -1628.1122 4006.707 C -1628.1122 3965.0453 -1594.2208 3931.154 -1552.559 3931.154 C -1549.0943 3931.154 -1546.2627 3928.327 -1546.2627 3924.8584 C -1546.2627 3921.393 -1549.0943 3918.562 -1552.559 3918.562 C -1601.1592 3918.562 -1640.7043 3958.111 -1640.7043 4006.707 C -1640.7043 4055.3075 -1601.1592 4094.853 -1552.559 4094.853 C -1526.2935 4094.853 -1501.6022 4083.246 -1484.7536 4062.9784 C -1482.542 4060.301 -1482.9083 4056.339 -1485.5635 4054.127 C -1488.2454 4051.8877 -1492.2302 4052.259 -1494.442 4054.9364" fill="white"/>
          </g>
        </g>
        <g id="Group_1780">
          <title>Graphic_353</title>
          <g id="Graphic_1781">
            <path d="M -1552.1832 4050.1587 C -1576.1133 4050.1587 -1595.5917 4030.6797 -1595.5917 4006.75 C -1595.5917 3982.82 -1576.1133 3963.3413 -1552.1832 3963.3413 C -1549.1972 3963.3413 -1546.7569 3960.905 -1546.7569 3957.9155 C -1546.7569 3954.9293 -1549.1972 3952.4892 -1552.1832 3952.4892 C -1582.1122 3952.4892 -1606.4438 3976.8243 -1606.4438 4006.75 C -1606.4438 4036.679 -1582.1122 4061.011 -1552.1832 4061.011 C -1522.254 4061.011 -1497.9223 4036.679 -1497.9223 4006.75 C -1497.9223 4003.7637 -1500.3624 4001.324 -1503.3483 4001.324 C -1506.3382 4001.324 -1508.7744 4003.7637 -1508.7744 4006.75 C -1508.7744 4030.6797 -1528.253 4050.1587 -1552.1832 4050.1587" fill="white"/>
          </g>
        </g>
        <g id="Group_1777">
          <title>Group_348</title>
          <g id="Group_1778">
            <title>Graphic_349</title>
            <g id="Graphic_1779">
              <path d="M -1459.2662 3886.731 L -1464.6853 3886.731 C -1467.6712 3886.731 -1470.1043 3889.1683 -1470.1043 3892.1507 C -1470.1043 3895.1366 -1467.6712 3897.57 -1464.6853 3897.57 L -1459.2662 3897.57 C -1456.2842 3897.57 -1453.8472 3895.1366 -1453.8472 3892.1507 C -1453.8472 3889.1683 -1456.2842 3886.731 -1459.2662 3886.731" fill="white"/>
            </g>
          </g>
        </g>
        <g id="Group_1774">
          <title>Group_344</title>
          <g id="Group_1775">
            <title>Graphic_345</title>
            <g id="Graphic_1776">
              <path d="M -1431.6411 3919.261 L -1437.0602 3919.261 C -1440.0461 3919.261 -1442.4792 3921.698 -1442.4792 3924.68 C -1442.4792 3927.6665 -1440.0461 3930.0993 -1437.0602 3930.0993 L -1431.6411 3930.0993 C -1428.659 3930.0993 -1426.2221 3927.6665 -1426.2221 3924.68 C -1426.2221 3921.698 -1428.659 3919.261 -1431.6411 3919.261" fill="white"/>
            </g>
          </g>
        </g>
        <g id="Group_1771">
          <title>Group_342</title>
          <g id="Group_1772">
            <title>Graphic_343</title>
            <g id="Graphic_1773">
              <path d="M -1416.1574 3951.9297 L -1421.5765 3951.9297 C -1424.5624 3951.9297 -1426.9955 3954.367 -1426.9955 3957.3485 C -1426.9955 3960.334 -1424.5624 3962.7675 -1421.5765 3962.7675 L -1416.1574 3962.7675 C -1413.1754 3962.7675 -1410.7384 3960.334 -1410.7384 3957.3485 C -1410.7384 3954.367 -1413.1754 3951.9297 -1416.1574 3951.9297" fill="white"/>
            </g>
          </g>
        </g>
        <g id="Group_1769">
          <title>Graphic_337</title>
          <g id="Graphic_1770">
            <path d="M -1506.9248 3869.834 L -1495.4542 3869.834 C -1495.0334 3869.834 -1494.6895 3867.4386 -1494.6895 3864.4995 C -1494.6895 3861.564 -1495.0334 3859.165 -1495.4542 3859.165 L -1506.9248 3859.165 C -1507.3462 3859.165 -1507.6895 3861.564 -1507.6895 3864.4995 C -1507.6895 3867.4386 -1507.3462 3869.834 -1506.9248 3869.834" fill="white"/>
          </g>
        </g>
        <g id="Group_1767">
          <title>Graphic_336</title>
          <g id="Graphic_1768">
            <path d="M -1505.9248 3897.57 L -1479.4542 3897.57 C -1478.4831 3897.57 -1477.6895 3895.137 -1477.6895 3892.151 C -1477.6895 3889.169 -1478.4831 3886.732 -1479.4542 3886.732 L -1505.9248 3886.732 C -1506.8972 3886.732 -1507.6895 3889.169 -1507.6895 3892.151 C -1507.6895 3895.137 -1506.8972 3897.57 -1505.9248 3897.57" fill="white"/>
          </g>
        </g>
        <g id="Group_1765">
          <title>Graphic_334</title>
          <g id="Graphic_1766">
            <path d="M -1504.219 3929.3996 L -1452.1601 3929.3996 C -1450.2503 3929.3996 -1448.6895 3926.966 -1448.6895 3923.9805 C -1448.6895 3920.999 -1450.2503 3918.562 -1452.1601 3918.562 L -1504.219 3918.562 C -1506.1312 3918.562 -1507.6895 3920.999 -1507.6895 3923.9805 C -1507.6895 3926.966 -1506.1312 3929.3996 -1504.219 3929.3996" fill="white"/>
          </g>
        </g>
        <g id="Group_1763">
          <title>Graphic_333</title>
          <g id="Graphic_1764">
            <path d="M -1503.4542 3962.472 L -1439.9248 3962.472 C -1437.5942 3962.472 -1435.6895 3960.0803 -1435.6895 3957.145 C -1435.6895 3954.2133 -1437.5942 3951.8173 -1439.9248 3951.8173 L -1503.4542 3951.8173 C -1505.7879 3951.8173 -1507.6895 3954.2133 -1507.6895 3957.145 C -1507.6895 3960.0803 -1505.7879 3962.472 -1503.4542 3962.472" fill="white"/>
          </g>
        </g>
      </g>
    </g>
  </g>
</svg>
