<?xml version="1.0" encoding="UTF-8" standalone="no"?>
<!DOCTYPE svg PUBLIC "-//W3C//DTD SVG 1.1//EN" "http://www.w3.org/Graphics/SVG/1.1/DTD/svg11.dtd">
<svg xmlns:xl="http://www.w3.org/1999/xlink" version="1.1" xmlns="http://www.w3.org/2000/svg" xmlns:dc="http://purl.org/dc/elements/1.1/" viewBox="-819.5428 2533.251 366.55786 359.5" width="366.55786" height="359.5">
  <defs/>
  <metadata> Produced by OmniGraffle 7.19\n2021-10-28 16:28:45 +0000</metadata>
  <g id="Canvas_4" stroke-opacity="1" fill="none" stroke="none" stroke-dasharray="none" fill-opacity="1">
    <title>Canvas 4</title>
    <g id="Canvas_4_Layer_1">
      <title>Layer 1</title>
      <g id="Group_1675">
        <g id="Graphic_1674">
          <ellipse cx="-636.2638" cy="2713.001" rx="183.279223503402" ry="179.750287222866" fill="#09f"/>
        </g>
        <g id="Group_1672">
          <title>Graphic_357</title>
          <g id="Graphic_1673">
            <path d="M -636.264 2563.016 C -718.9411 2563.016 -786.2062 2630.2856 -786.2062 2712.9584 C -786.2062 2795.6355 -718.9411 2862.901 -636.264 2862.901 C -553.59096 2862.901 -486.32144 2795.6355 -486.32144 2712.9584 C -486.32144 2709.7845 -488.91486 2707.1914 -492.0884 2707.1914 C -495.2661 2707.1914 -497.8554 2709.7845 -497.8554 2712.9584 C -497.8554 2789.2845 -559.9419 2851.367 -636.264 2851.367 C -712.5857 2851.367 -774.6723 2789.2845 -774.6723 2712.9584 C -774.6723 2636.636 -712.5857 2574.5498 -636.264 2574.5498 C -633.0904 2574.5498 -630.4967 2571.9608 -630.4967 2568.783 C -630.4967 2565.609 -633.0904 2563.016 -636.264 2563.016" fill="white"/>
          </g>
        </g>
        <g id="Group_1670">
          <title>Graphic_356</title>
          <g id="Graphic_1671">
            <path d="M -638.0697 2591.7278 C -704.9275 2591.7278 -759.2998 2646.1005 -759.2998 2712.9584 C -759.2998 2779.8165 -704.9275 2834.189 -638.0697 2834.189 C -582.0624 2834.189 -533.6279 2796.1972 -520.30695 2741.825 C -519.59446 2738.8762 -521.4035 2735.883 -524.35285 2735.1508 C -527.3019 2734.4425 -530.2948 2736.2508 -531.027 2739.2004 C -543.1447 2788.6442 -587.16504 2823.168 -638.0697 2823.168 C -698.83506 2823.168 -748.27885 2773.724 -748.27885 2712.9584 C -748.27885 2652.1935 -698.83506 2602.7487 -638.0697 2602.7487 C -635.0373 2602.7487 -632.559 2600.275 -632.559 2597.2388 C -632.559 2594.2064 -635.0373 2591.7278 -638.0697 2591.7278" fill="white"/>
          </g>
        </g>
        <g id="Group_1668">
          <title>Graphic_354</title>
          <g id="Graphic_1669">
            <path d="M -581.9848 2761.1873 C -596.4225 2778.552 -617.5996 2788.5114 -640.1018 2788.5114 C -681.7635 2788.5114 -715.655 2754.62 -715.655 2712.958 C -715.655 2671.2962 -681.7635 2637.4048 -640.1018 2637.4048 C -636.6371 2637.4048 -633.8055 2634.578 -633.8055 2631.1093 C -633.8055 2627.644 -636.6371 2624.8127 -640.1018 2624.8127 C -688.702 2624.8127 -728.24706 2664.362 -728.24706 2712.958 C -728.24706 2761.5584 -688.702 2801.104 -640.1018 2801.104 C -613.83626 2801.104 -589.14495 2789.4968 -572.29636 2769.2293 C -570.08484 2766.552 -570.4511 2762.59 -573.1062 2760.3778 C -575.7882 2758.1386 -579.773 2758.51 -581.9848 2761.1873" fill="white"/>
          </g>
        </g>
        <g id="Group_1666">
          <title>Graphic_353</title>
          <g id="Graphic_1667">
            <path d="M -639.72595 2756.4096 C -663.65606 2756.4096 -683.1345 2736.9306 -683.1345 2713.0008 C -683.1345 2689.071 -663.65606 2669.5922 -639.72595 2669.5922 C -636.74 2669.5922 -634.29965 2667.156 -634.29965 2664.1664 C -634.29965 2661.1802 -636.74 2658.74 -639.72595 2658.74 C -669.6549 2658.74 -693.9866 2683.0752 -693.9866 2713.0008 C -693.9866 2742.93 -669.6549 2767.2617 -639.72595 2767.2617 C -609.7967 2767.2617 -585.46506 2742.93 -585.46506 2713.0008 C -585.46506 2710.0146 -587.90515 2707.5747 -590.8911 2707.5747 C -593.8809 2707.5747 -596.3171 2710.0146 -596.3171 2713.0008 C -596.3171 2736.9306 -615.7957 2756.4096 -639.72595 2756.4096" fill="white"/>
          </g>
        </g>
        <g id="Group_1663">
          <title>Group_348</title>
          <g id="Group_1664">
            <title>Graphic_349</title>
            <g id="Graphic_1665">
              <path d="M -546.809 2592.982 L -552.228 2592.982 C -555.214 2592.982 -557.64705 2595.4192 -557.64705 2598.4016 C -557.64705 2601.3875 -555.214 2603.821 -552.228 2603.821 L -546.809 2603.821 C -543.82695 2603.821 -541.38997 2601.3875 -541.38997 2598.4016 C -541.38997 2595.4192 -543.82695 2592.982 -546.809 2592.982" fill="white"/>
            </g>
          </g>
        </g>
        <g id="Group_1660">
          <title>Group_344</title>
          <g id="Group_1661">
            <title>Graphic_345</title>
            <g id="Graphic_1662">
              <path d="M -519.1839 2625.512 L -524.6029 2625.512 C -527.58887 2625.512 -530.02195 2627.949 -530.02195 2630.931 C -530.02195 2633.9174 -527.58887 2636.3502 -524.6029 2636.3502 L -519.1839 2636.3502 C -516.20184 2636.3502 -513.76486 2633.9174 -513.76486 2630.931 C -513.76486 2627.949 -516.20184 2625.512 -519.1839 2625.512" fill="white"/>
            </g>
          </g>
        </g>
        <g id="Group_1657">
          <title>Group_342</title>
          <g id="Group_1658">
            <title>Graphic_343</title>
            <g id="Graphic_1659">
              <path d="M -503.7002 2658.1806 L -509.11923 2658.1806 C -512.1052 2658.1806 -514.53826 2660.618 -514.53826 2663.5994 C -514.53826 2666.585 -512.1052 2669.0184 -509.11923 2669.0184 L -503.7002 2669.0184 C -500.71815 2669.0184 -498.2812 2666.585 -498.2812 2663.5994 C -498.2812 2660.618 -500.71815 2658.1806 -503.7002 2658.1806" fill="white"/>
            </g>
          </g>
        </g>
        <g id="Group_1655">
          <title>Graphic_337</title>
          <g id="Graphic_1656">
            <path d="M -594.46756 2576.085 L -582.997 2576.085 C -582.57616 2576.085 -582.2323 2573.6895 -582.2323 2570.7504 C -582.2323 2567.8148 -582.57616 2565.416 -582.997 2565.416 L -594.46756 2565.416 C -594.8889 2565.416 -595.2323 2567.8148 -595.2323 2570.7504 C -595.2323 2573.6895 -594.8889 2576.085 -594.46756 2576.085" fill="white"/>
          </g>
        </g>
        <g id="Group_1653">
          <title>Graphic_336</title>
          <g id="Graphic_1654">
            <path d="M -593.46756 2603.821 L -566.997 2603.821 C -566.0259 2603.821 -565.2323 2601.388 -565.2323 2598.402 C -565.2323 2595.42 -566.0259 2592.983 -566.997 2592.983 L -593.46756 2592.983 C -594.4399 2592.983 -595.2323 2595.42 -595.2323 2598.402 C -595.2323 2601.388 -594.4399 2603.821 -593.46756 2603.821" fill="white"/>
          </g>
        </g>
        <g id="Group_1651">
          <title>Graphic_334</title>
          <g id="Graphic_1652">
            <path d="M -591.7617 2635.6505 L -539.70286 2635.6505 C -537.793 2635.6505 -536.23227 2633.217 -536.23227 2630.2314 C -536.23227 2627.25 -537.793 2624.8127 -539.70286 2624.8127 L -591.7617 2624.8127 C -593.674 2624.8127 -595.2323 2627.25 -595.2323 2630.2314 C -595.2323 2633.217 -593.674 2635.6505 -591.7617 2635.6505" fill="white"/>
          </g>
        </g>
        <g id="Group_1649">
          <title>Graphic_333</title>
          <g id="Graphic_1650">
            <path d="M -590.997 2668.723 L -527.46756 2668.723 C -525.1369 2668.723 -523.23227 2666.3312 -523.23227 2663.396 C -523.23227 2660.4642 -525.1369 2658.0682 -527.46756 2658.0682 L -590.997 2658.0682 C -593.3307 2658.0682 -595.2323 2660.4642 -595.2323 2663.396 C -595.2323 2666.3312 -593.3307 2668.723 -590.997 2668.723" fill="white"/>
          </g>
        </g>
      </g>
    </g>
  </g>
</svg>
