<?xml version="1.0" encoding="UTF-8" standalone="no"?>
<!DOCTYPE svg PUBLIC "-//W3C//DTD SVG 1.1//EN" "http://www.w3.org/Graphics/SVG/1.1/DTD/svg11.dtd">
<svg xmlns:xl="http://www.w3.org/1999/xlink" version="1.1" xmlns="http://www.w3.org/2000/svg" xmlns:dc="http://purl.org/dc/elements/1.1/" viewBox="-1722 3348.5 366.55786 359.5" width="366.55786" height="359.5">
  <defs/>
  <metadata> Produced by OmniGraffle 7.19\n2021-10-28 16:57:01 +0000</metadata>
  <g id="Canvas_4" stroke-opacity="1" fill="none" stroke="none" stroke-dasharray="none" fill-opacity="1">
    <title>Canvas 4</title>
    <g id="Canvas_4_Layer_1">
      <title>Layer 1</title>
      <g id="Group_1758">
        <g id="Graphic_1730">
          <ellipse cx="-1538.721" cy="3528.25" rx="183.279223503402" ry="179.750287222866" fill="#609a85"/>
        </g>
        <g id="Group_1728">
          <title>Graphic_357</title>
          <g id="Graphic_1729">
            <path d="M -1538.7212 3378.265 C -1621.3984 3378.265 -1688.6635 3445.5347 -1688.6635 3528.2075 C -1688.6635 3610.8846 -1621.3984 3678.15 -1538.7212 3678.15 C -1456.0482 3678.15 -1388.7787 3610.8846 -1388.7787 3528.2075 C -1388.7787 3525.0336 -1391.3721 3522.4405 -1394.5457 3522.4405 C -1397.7233 3522.4405 -1400.3126 3525.0336 -1400.3126 3528.2075 C -1400.3126 3604.5336 -1462.3992 3666.616 -1538.7212 3666.616 C -1615.043 3666.616 -1677.1295 3604.5336 -1677.1295 3528.2075 C -1677.1295 3451.885 -1615.043 3389.799 -1538.7212 3389.799 C -1535.5477 3389.799 -1532.954 3387.21 -1532.954 3384.032 C -1532.954 3380.858 -1535.5477 3378.265 -1538.7212 3378.265" fill="white"/>
          </g>
        </g>
        <g id="Group_1726">
          <title>Graphic_356</title>
          <g id="Graphic_1727">
            <path d="M -1540.5269 3406.977 C -1607.3847 3406.977 -1661.757 3461.3496 -1661.757 3528.2075 C -1661.757 3595.0656 -1607.3847 3649.438 -1540.5269 3649.438 C -1484.5196 3649.438 -1436.0851 3611.4463 -1422.7642 3557.074 C -1422.0517 3554.1253 -1423.8607 3551.132 -1426.8101 3550.4 C -1429.7592 3549.6916 -1432.752 3551.5 -1433.4843 3554.4495 C -1445.602 3603.8933 -1489.6223 3638.417 -1540.5269 3638.417 C -1601.2923 3638.417 -1650.736 3588.973 -1650.736 3528.2075 C -1650.736 3467.4426 -1601.2923 3417.9978 -1540.5269 3417.9978 C -1537.4945 3417.9978 -1535.0162 3415.524 -1535.0162 3412.488 C -1535.0162 3409.4555 -1537.4945 3406.977 -1540.5269 3406.977" fill="white"/>
          </g>
        </g>
        <g id="Group_1724">
          <title>Graphic_354</title>
          <g id="Graphic_1725">
            <path d="M -1484.442 3576.4364 C -1498.8798 3593.8012 -1520.0568 3603.7605 -1542.559 3603.7605 C -1584.2208 3603.7605 -1618.1122 3569.869 -1618.1122 3528.207 C -1618.1122 3486.5453 -1584.2208 3452.654 -1542.559 3452.654 C -1539.0943 3452.654 -1536.2627 3449.827 -1536.2627 3446.3584 C -1536.2627 3442.893 -1539.0943 3440.0618 -1542.559 3440.0618 C -1591.1592 3440.0618 -1630.7043 3479.611 -1630.7043 3528.207 C -1630.7043 3576.8075 -1591.1592 3616.353 -1542.559 3616.353 C -1516.2935 3616.353 -1491.6022 3604.746 -1474.7536 3584.4784 C -1472.542 3581.801 -1472.9083 3577.839 -1475.5635 3575.627 C -1478.2454 3573.3877 -1482.2302 3573.759 -1484.442 3576.4364" fill="white"/>
          </g>
        </g>
        <g id="Group_1722">
          <title>Graphic_353</title>
          <g id="Graphic_1723">
            <path d="M -1542.1832 3571.6587 C -1566.1133 3571.6587 -1585.5917 3552.1797 -1585.5917 3528.25 C -1585.5917 3504.32 -1566.1133 3484.8413 -1542.1832 3484.8413 C -1539.1972 3484.8413 -1536.7569 3482.405 -1536.7569 3479.4155 C -1536.7569 3476.4293 -1539.1972 3473.9892 -1542.1832 3473.9892 C -1572.1122 3473.9892 -1596.4438 3498.3243 -1596.4438 3528.25 C -1596.4438 3558.179 -1572.1122 3582.5108 -1542.1832 3582.5108 C -1512.254 3582.5108 -1487.9223 3558.179 -1487.9223 3528.25 C -1487.9223 3525.2637 -1490.3624 3522.824 -1493.3483 3522.824 C -1496.3382 3522.824 -1498.7744 3525.2637 -1498.7744 3528.25 C -1498.7744 3552.1797 -1518.253 3571.6587 -1542.1832 3571.6587" fill="white"/>
          </g>
        </g>
        <g id="Group_1719">
          <title>Group_348</title>
          <g id="Group_1720">
            <title>Graphic_349</title>
            <g id="Graphic_1721">
              <path d="M -1449.2662 3408.231 L -1454.6853 3408.231 C -1457.6712 3408.231 -1460.1043 3410.6683 -1460.1043 3413.6507 C -1460.1043 3416.6366 -1457.6712 3419.07 -1454.6853 3419.07 L -1449.2662 3419.07 C -1446.2842 3419.07 -1443.8472 3416.6366 -1443.8472 3413.6507 C -1443.8472 3410.6683 -1446.2842 3408.231 -1449.2662 3408.231" fill="white"/>
            </g>
          </g>
        </g>
        <g id="Group_1716">
          <title>Group_344</title>
          <g id="Group_1717">
            <title>Graphic_345</title>
            <g id="Graphic_1718">
              <path d="M -1421.6411 3440.761 L -1427.0602 3440.761 C -1430.0461 3440.761 -1432.4792 3443.1982 -1432.4792 3446.18 C -1432.4792 3449.1665 -1430.0461 3451.5993 -1427.0602 3451.5993 L -1421.6411 3451.5993 C -1418.659 3451.5993 -1416.2221 3449.1665 -1416.2221 3446.18 C -1416.2221 3443.1982 -1418.659 3440.761 -1421.6411 3440.761" fill="white"/>
            </g>
          </g>
        </g>
        <g id="Group_1713">
          <title>Group_342</title>
          <g id="Group_1714">
            <title>Graphic_343</title>
            <g id="Graphic_1715">
              <path d="M -1406.1574 3473.4297 L -1411.5765 3473.4297 C -1414.5624 3473.4297 -1416.9955 3475.867 -1416.9955 3478.8485 C -1416.9955 3481.834 -1414.5624 3484.2675 -1411.5765 3484.2675 L -1406.1574 3484.2675 C -1403.1754 3484.2675 -1400.7384 3481.834 -1400.7384 3478.8485 C -1400.7384 3475.867 -1403.1754 3473.4297 -1406.1574 3473.4297" fill="white"/>
            </g>
          </g>
        </g>
        <g id="Group_1711">
          <title>Graphic_337</title>
          <g id="Graphic_1712">
            <path d="M -1496.9248 3391.334 L -1485.4542 3391.334 C -1485.0334 3391.334 -1484.6895 3388.9386 -1484.6895 3385.9995 C -1484.6895 3383.064 -1485.0334 3380.665 -1485.4542 3380.665 L -1496.9248 3380.665 C -1497.3462 3380.665 -1497.6895 3383.064 -1497.6895 3385.9995 C -1497.6895 3388.9386 -1497.3462 3391.334 -1496.9248 3391.334" fill="white"/>
          </g>
        </g>
        <g id="Group_1709">
          <title>Graphic_336</title>
          <g id="Graphic_1710">
            <path d="M -1495.9248 3419.07 L -1469.4542 3419.07 C -1468.4831 3419.07 -1467.6895 3416.637 -1467.6895 3413.651 C -1467.6895 3410.669 -1468.4831 3408.232 -1469.4542 3408.232 L -1495.9248 3408.232 C -1496.8972 3408.232 -1497.6895 3410.669 -1497.6895 3413.651 C -1497.6895 3416.637 -1496.8972 3419.07 -1495.9248 3419.07" fill="white"/>
          </g>
        </g>
        <g id="Group_1707">
          <title>Graphic_334</title>
          <g id="Graphic_1708">
            <path d="M -1494.219 3450.8996 L -1442.1601 3450.8996 C -1440.2503 3450.8996 -1438.6895 3448.4662 -1438.6895 3445.4805 C -1438.6895 3442.499 -1440.2503 3440.0618 -1442.1601 3440.0618 L -1494.219 3440.0618 C -1496.1312 3440.0618 -1497.6895 3442.499 -1497.6895 3445.4805 C -1497.6895 3448.4662 -1496.1312 3450.8996 -1494.219 3450.8996" fill="white"/>
          </g>
        </g>
        <g id="Group_1705">
          <title>Graphic_333</title>
          <g id="Graphic_1706">
            <path d="M -1493.4542 3483.972 L -1429.9248 3483.972 C -1427.5942 3483.972 -1425.6895 3481.5803 -1425.6895 3478.645 C -1425.6895 3475.7133 -1427.5942 3473.3173 -1429.9248 3473.3173 L -1493.4542 3473.3173 C -1495.7879 3473.3173 -1497.6895 3475.7133 -1497.6895 3478.645 C -1497.6895 3481.5803 -1495.7879 3483.972 -1493.4542 3483.972" fill="white"/>
          </g>
        </g>
      </g>
    </g>
  </g>
</svg>
