<?xml version="1.0" encoding="UTF-8" standalone="no"?>
<!DOCTYPE svg PUBLIC "-//W3C//DTD SVG 1.1//EN" "http://www.w3.org/Graphics/SVG/1.1/DTD/svg11.dtd">
<svg xmlns:xl="http://www.w3.org/1999/xlink" version="1.1" xmlns="http://www.w3.org/2000/svg" xmlns:dc="http://purl.org/dc/elements/1.1/" viewBox="-1288 3389.5 366.55786 359.5" width="366.55786" height="359.5">
  <defs/>
  <metadata> Produced by OmniGraffle 7.19\n2021-10-28 16:57:01 +0000</metadata>
  <g id="Canvas_4" stroke-opacity="1" fill="none" stroke="none" stroke-dasharray="none" fill-opacity="1">
    <title>Canvas 4</title>
    <g id="Canvas_4_Layer_1">
      <title>Layer 1</title>
      <g id="Group_1760">
        <g id="Graphic_1757">
          <ellipse cx="-1104.7211" cy="3569.25" rx="183.279223503402" ry="179.750287222866" fill="#fab64c"/>
        </g>
        <g id="Group_1755">
          <title>Graphic_357</title>
          <g id="Graphic_1756">
            <path d="M -1104.7212 3419.265 C -1187.3984 3419.265 -1254.6635 3486.5347 -1254.6635 3569.2075 C -1254.6635 3651.8846 -1187.3984 3719.15 -1104.7212 3719.15 C -1022.0482 3719.15 -954.7787 3651.8846 -954.7787 3569.2075 C -954.7787 3566.0336 -957.3721 3563.4405 -960.5457 3563.4405 C -963.7233 3563.4405 -966.3126 3566.0336 -966.3126 3569.2075 C -966.3126 3645.5336 -1028.3992 3707.616 -1104.7212 3707.616 C -1181.043 3707.616 -1243.1295 3645.5336 -1243.1295 3569.2075 C -1243.1295 3492.885 -1181.043 3430.799 -1104.7212 3430.799 C -1101.5477 3430.799 -1098.954 3428.21 -1098.954 3425.032 C -1098.954 3421.858 -1101.5477 3419.265 -1104.7212 3419.265" fill="white"/>
          </g>
        </g>
        <g id="Group_1753">
          <title>Graphic_356</title>
          <g id="Graphic_1754">
            <path d="M -1106.5269 3447.977 C -1173.3847 3447.977 -1227.757 3502.3496 -1227.757 3569.2075 C -1227.757 3636.0656 -1173.3847 3690.438 -1106.5269 3690.438 C -1050.5196 3690.438 -1002.0851 3652.4463 -988.7642 3598.074 C -988.0517 3595.1253 -989.8607 3592.132 -992.8101 3591.4 C -995.7592 3590.6916 -998.752 3592.5 -999.4843 3595.4495 C -1011.6019 3644.8933 -1055.6223 3679.417 -1106.5269 3679.417 C -1167.2923 3679.417 -1216.7361 3629.973 -1216.7361 3569.2075 C -1216.7361 3508.4426 -1167.2923 3458.9978 -1106.5269 3458.9978 C -1103.4945 3458.9978 -1101.0162 3456.524 -1101.0162 3453.488 C -1101.0162 3450.4555 -1103.4945 3447.977 -1106.5269 3447.977" fill="white"/>
          </g>
        </g>
        <g id="Group_1751">
          <title>Graphic_354</title>
          <g id="Graphic_1752">
            <path d="M -1050.4421 3617.4364 C -1064.8798 3634.8012 -1086.0568 3644.7605 -1108.559 3644.7605 C -1150.2208 3644.7605 -1184.1122 3610.869 -1184.1122 3569.207 C -1184.1122 3527.5453 -1150.2208 3493.654 -1108.559 3493.654 C -1105.0943 3493.654 -1102.2627 3490.827 -1102.2627 3487.3584 C -1102.2627 3483.893 -1105.0943 3481.0618 -1108.559 3481.0618 C -1157.1592 3481.0618 -1196.7043 3520.611 -1196.7043 3569.207 C -1196.7043 3617.8075 -1157.1592 3657.353 -1108.559 3657.353 C -1082.2935 3657.353 -1057.6022 3645.746 -1040.7536 3625.4784 C -1038.5421 3622.801 -1038.9083 3618.839 -1041.5635 3616.627 C -1044.2454 3614.3877 -1048.2302 3614.759 -1050.4421 3617.4364" fill="white"/>
          </g>
        </g>
        <g id="Group_1749">
          <title>Graphic_353</title>
          <g id="Graphic_1750">
            <path d="M -1108.1832 3612.6587 C -1132.1133 3612.6587 -1151.5917 3593.1797 -1151.5917 3569.25 C -1151.5917 3545.32 -1132.1133 3525.8413 -1108.1832 3525.8413 C -1105.1972 3525.8413 -1102.7569 3523.405 -1102.7569 3520.4155 C -1102.7569 3517.4293 -1105.1972 3514.9892 -1108.1832 3514.9892 C -1138.1122 3514.9892 -1162.4438 3539.3243 -1162.4438 3569.25 C -1162.4438 3599.179 -1138.1122 3623.5108 -1108.1832 3623.5108 C -1078.254 3623.5108 -1053.9223 3599.179 -1053.9223 3569.25 C -1053.9223 3566.2637 -1056.3624 3563.824 -1059.3483 3563.824 C -1062.3382 3563.824 -1064.7744 3566.2637 -1064.7744 3569.25 C -1064.7744 3593.1797 -1084.253 3612.6587 -1108.1832 3612.6587" fill="white"/>
          </g>
        </g>
        <g id="Group_1746">
          <title>Group_348</title>
          <g id="Group_1747">
            <title>Graphic_349</title>
            <g id="Graphic_1748">
              <path d="M -1015.2662 3449.231 L -1020.6853 3449.231 C -1023.6712 3449.231 -1026.1043 3451.6683 -1026.1043 3454.6507 C -1026.1043 3457.6366 -1023.6712 3460.07 -1020.6853 3460.07 L -1015.2662 3460.07 C -1012.2842 3460.07 -1009.8472 3457.6366 -1009.8472 3454.6507 C -1009.8472 3451.6683 -1012.2842 3449.231 -1015.2662 3449.231" fill="white"/>
            </g>
          </g>
        </g>
        <g id="Group_1743">
          <title>Group_344</title>
          <g id="Group_1744">
            <title>Graphic_345</title>
            <g id="Graphic_1745">
              <path d="M -987.6411 3481.761 L -993.0602 3481.761 C -996.0461 3481.761 -998.4792 3484.1982 -998.4792 3487.18 C -998.4792 3490.1665 -996.0461 3492.5993 -993.0602 3492.5993 L -987.6411 3492.5993 C -984.6591 3492.5993 -982.2221 3490.1665 -982.2221 3487.18 C -982.2221 3484.1982 -984.6591 3481.761 -987.6411 3481.761" fill="white"/>
            </g>
          </g>
        </g>
        <g id="Group_1740">
          <title>Group_342</title>
          <g id="Group_1741">
            <title>Graphic_343</title>
            <g id="Graphic_1742">
              <path d="M -972.1574 3514.4297 L -977.5765 3514.4297 C -980.5624 3514.4297 -982.9955 3516.867 -982.9955 3519.8485 C -982.9955 3522.834 -980.5624 3525.2675 -977.5765 3525.2675 L -972.1574 3525.2675 C -969.1754 3525.2675 -966.7384 3522.834 -966.7384 3519.8485 C -966.7384 3516.867 -969.1754 3514.4297 -972.1574 3514.4297" fill="white"/>
            </g>
          </g>
        </g>
        <g id="Group_1738">
          <title>Graphic_337</title>
          <g id="Graphic_1739">
            <path d="M -1062.9248 3432.334 L -1051.4542 3432.334 C -1051.0334 3432.334 -1050.6895 3429.9386 -1050.6895 3426.9995 C -1050.6895 3424.064 -1051.0334 3421.665 -1051.4542 3421.665 L -1062.9248 3421.665 C -1063.3462 3421.665 -1063.6895 3424.064 -1063.6895 3426.9995 C -1063.6895 3429.9386 -1063.3462 3432.334 -1062.9248 3432.334" fill="white"/>
          </g>
        </g>
        <g id="Group_1736">
          <title>Graphic_336</title>
          <g id="Graphic_1737">
            <path d="M -1061.9248 3460.07 L -1035.4542 3460.07 C -1034.4831 3460.07 -1033.6895 3457.637 -1033.6895 3454.651 C -1033.6895 3451.669 -1034.4831 3449.232 -1035.4542 3449.232 L -1061.9248 3449.232 C -1062.8972 3449.232 -1063.6895 3451.669 -1063.6895 3454.651 C -1063.6895 3457.637 -1062.8972 3460.07 -1061.9248 3460.07" fill="white"/>
          </g>
        </g>
        <g id="Group_1734">
          <title>Graphic_334</title>
          <g id="Graphic_1735">
            <path d="M -1060.2189 3491.8996 L -1008.1601 3491.8996 C -1006.2503 3491.8996 -1004.6895 3489.4662 -1004.6895 3486.4805 C -1004.6895 3483.499 -1006.2503 3481.0618 -1008.1601 3481.0618 L -1060.2189 3481.0618 C -1062.1312 3481.0618 -1063.6895 3483.499 -1063.6895 3486.4805 C -1063.6895 3489.4662 -1062.1312 3491.8996 -1060.2189 3491.8996" fill="white"/>
          </g>
        </g>
        <g id="Group_1732">
          <title>Graphic_333</title>
          <g id="Graphic_1733">
            <path d="M -1059.4542 3524.972 L -995.9248 3524.972 C -993.5942 3524.972 -991.6895 3522.5803 -991.6895 3519.645 C -991.6895 3516.7133 -993.5942 3514.3173 -995.9248 3514.3173 L -1059.4542 3514.3173 C -1061.7879 3514.3173 -1063.6895 3516.7133 -1063.6895 3519.645 C -1063.6895 3522.5803 -1061.7879 3524.972 -1059.4542 3524.972" fill="white"/>
          </g>
        </g>
      </g>
    </g>
  </g>
</svg>
