<?xml version="1.0" encoding="UTF-8" standalone="no"?>
<!DOCTYPE svg PUBLIC "-//W3C//DTD SVG 1.1//EN" "http://www.w3.org/Graphics/SVG/1.1/DTD/svg11.dtd">
<svg xmlns:xl="http://www.w3.org/1999/xlink" version="1.1" xmlns="http://www.w3.org/2000/svg" xmlns:dc="http://purl.org/dc/elements/1.1/" viewBox="-1288 2958 366.55786 359.5" width="366.55786" height="359.5">
  <defs/>
  <metadata> Produced by OmniGraffle 7.19\n2021-10-28 16:57:01 +0000</metadata>
  <g id="Canvas_4" stroke-opacity="1" fill="none" stroke="none" stroke-dasharray="none" fill-opacity="1">
    <title>Canvas 4</title>
    <g id="Canvas_4_Layer_1">
      <title>Layer 1</title>
      <g id="Group_1761">
        <g id="Graphic_1702">
          <ellipse cx="-1104.7211" cy="3137.75" rx="183.279223503402" ry="179.750287222866" fill="#613b2b"/>
        </g>
        <g id="Group_1700">
          <title>Graphic_357</title>
          <g id="Graphic_1701">
            <path d="M -1104.7212 2987.765 C -1187.3984 2987.765 -1254.6635 3055.0347 -1254.6635 3137.7075 C -1254.6635 3220.3846 -1187.3984 3287.65 -1104.7212 3287.65 C -1022.0482 3287.65 -954.7787 3220.3846 -954.7787 3137.7075 C -954.7787 3134.5336 -957.3721 3131.9405 -960.5457 3131.9405 C -963.7233 3131.9405 -966.3126 3134.5336 -966.3126 3137.7075 C -966.3126 3214.0336 -1028.3992 3276.116 -1104.7212 3276.116 C -1181.043 3276.116 -1243.1295 3214.0336 -1243.1295 3137.7075 C -1243.1295 3061.385 -1181.043 2999.299 -1104.7212 2999.299 C -1101.5477 2999.299 -1098.954 2996.71 -1098.954 2993.5322 C -1098.954 2990.358 -1101.5477 2987.765 -1104.7212 2987.765" fill="white"/>
          </g>
        </g>
        <g id="Group_1698">
          <title>Graphic_356</title>
          <g id="Graphic_1699">
            <path d="M -1106.5269 3016.477 C -1173.3847 3016.477 -1227.757 3070.8496 -1227.757 3137.7075 C -1227.757 3204.5656 -1173.3847 3258.938 -1106.5269 3258.938 C -1050.5196 3258.938 -1002.0851 3220.9463 -988.7642 3166.574 C -988.0517 3163.6253 -989.8607 3160.632 -992.8101 3159.9 C -995.7592 3159.1916 -998.752 3161 -999.4843 3163.9495 C -1011.6019 3213.3933 -1055.6223 3247.917 -1106.5269 3247.917 C -1167.2923 3247.917 -1216.7361 3198.473 -1216.7361 3137.7075 C -1216.7361 3076.9426 -1167.2923 3027.4978 -1106.5269 3027.4978 C -1103.4945 3027.4978 -1101.0162 3025.0242 -1101.0162 3021.988 C -1101.0162 3018.9555 -1103.4945 3016.477 -1106.5269 3016.477" fill="white"/>
          </g>
        </g>
        <g id="Group_1696">
          <title>Graphic_354</title>
          <g id="Graphic_1697">
            <path d="M -1050.4421 3185.9364 C -1064.8798 3203.3012 -1086.0568 3213.2605 -1108.559 3213.2605 C -1150.2208 3213.2605 -1184.1122 3179.369 -1184.1122 3137.707 C -1184.1122 3096.0453 -1150.2208 3062.154 -1108.559 3062.154 C -1105.0943 3062.154 -1102.2627 3059.327 -1102.2627 3055.8584 C -1102.2627 3052.393 -1105.0943 3049.5618 -1108.559 3049.5618 C -1157.1592 3049.5618 -1196.7043 3089.111 -1196.7043 3137.707 C -1196.7043 3186.3075 -1157.1592 3225.853 -1108.559 3225.853 C -1082.2935 3225.853 -1057.6022 3214.246 -1040.7536 3193.9784 C -1038.5421 3191.301 -1038.9083 3187.339 -1041.5635 3185.127 C -1044.2454 3182.8877 -1048.2302 3183.259 -1050.4421 3185.9364" fill="white"/>
          </g>
        </g>
        <g id="Group_1694">
          <title>Graphic_353</title>
          <g id="Graphic_1695">
            <path d="M -1108.1832 3181.1587 C -1132.1133 3181.1587 -1151.5917 3161.6797 -1151.5917 3137.75 C -1151.5917 3113.82 -1132.1133 3094.3413 -1108.1832 3094.3413 C -1105.1972 3094.3413 -1102.7569 3091.905 -1102.7569 3088.9155 C -1102.7569 3085.9293 -1105.1972 3083.4892 -1108.1832 3083.4892 C -1138.1122 3083.4892 -1162.4438 3107.8243 -1162.4438 3137.75 C -1162.4438 3167.679 -1138.1122 3192.0108 -1108.1832 3192.0108 C -1078.254 3192.0108 -1053.9223 3167.679 -1053.9223 3137.75 C -1053.9223 3134.7637 -1056.3624 3132.324 -1059.3483 3132.324 C -1062.3382 3132.324 -1064.7744 3134.7637 -1064.7744 3137.75 C -1064.7744 3161.6797 -1084.253 3181.1587 -1108.1832 3181.1587" fill="white"/>
          </g>
        </g>
        <g id="Group_1691">
          <title>Group_348</title>
          <g id="Group_1692">
            <title>Graphic_349</title>
            <g id="Graphic_1693">
              <path d="M -1015.2662 3017.731 L -1020.6853 3017.731 C -1023.6712 3017.731 -1026.1043 3020.1683 -1026.1043 3023.1507 C -1026.1043 3026.1366 -1023.6712 3028.5702 -1020.6853 3028.5702 L -1015.2662 3028.5702 C -1012.2842 3028.5702 -1009.8472 3026.1366 -1009.8472 3023.1507 C -1009.8472 3020.1683 -1012.2842 3017.731 -1015.2662 3017.731" fill="white"/>
            </g>
          </g>
        </g>
        <g id="Group_1688">
          <title>Group_344</title>
          <g id="Group_1689">
            <title>Graphic_345</title>
            <g id="Graphic_1690">
              <path d="M -987.6411 3050.261 L -993.0602 3050.261 C -996.0461 3050.261 -998.4792 3052.6982 -998.4792 3055.68 C -998.4792 3058.6665 -996.0461 3061.0993 -993.0602 3061.0993 L -987.6411 3061.0993 C -984.6591 3061.0993 -982.2221 3058.6665 -982.2221 3055.68 C -982.2221 3052.6982 -984.6591 3050.261 -987.6411 3050.261" fill="white"/>
            </g>
          </g>
        </g>
        <g id="Group_1685">
          <title>Group_342</title>
          <g id="Group_1686">
            <title>Graphic_343</title>
            <g id="Graphic_1687">
              <path d="M -972.1574 3082.9297 L -977.5765 3082.9297 C -980.5624 3082.9297 -982.9955 3085.367 -982.9955 3088.3485 C -982.9955 3091.334 -980.5624 3093.7675 -977.5765 3093.7675 L -972.1574 3093.7675 C -969.1754 3093.7675 -966.7384 3091.334 -966.7384 3088.3485 C -966.7384 3085.367 -969.1754 3082.9297 -972.1574 3082.9297" fill="white"/>
            </g>
          </g>
        </g>
        <g id="Group_1683">
          <title>Graphic_337</title>
          <g id="Graphic_1684">
            <path d="M -1062.9248 3000.834 L -1051.4542 3000.834 C -1051.0334 3000.834 -1050.6895 2998.4386 -1050.6895 2995.4995 C -1050.6895 2992.564 -1051.0334 2990.165 -1051.4542 2990.165 L -1062.9248 2990.165 C -1063.3462 2990.165 -1063.6895 2992.564 -1063.6895 2995.4995 C -1063.6895 2998.4386 -1063.3462 3000.834 -1062.9248 3000.834" fill="white"/>
          </g>
        </g>
        <g id="Group_1681">
          <title>Graphic_336</title>
          <g id="Graphic_1682">
            <path d="M -1061.9248 3028.5702 L -1035.4542 3028.5702 C -1034.4831 3028.5702 -1033.6895 3026.137 -1033.6895 3023.151 C -1033.6895 3020.169 -1034.4831 3017.732 -1035.4542 3017.732 L -1061.9248 3017.732 C -1062.8972 3017.732 -1063.6895 3020.169 -1063.6895 3023.151 C -1063.6895 3026.137 -1062.8972 3028.5702 -1061.9248 3028.5702" fill="white"/>
          </g>
        </g>
        <g id="Group_1679">
          <title>Graphic_334</title>
          <g id="Graphic_1680">
            <path d="M -1060.2189 3060.3996 L -1008.1601 3060.3996 C -1006.2503 3060.3996 -1004.6895 3057.9662 -1004.6895 3054.9805 C -1004.6895 3051.999 -1006.2503 3049.5618 -1008.1601 3049.5618 L -1060.2189 3049.5618 C -1062.1312 3049.5618 -1063.6895 3051.999 -1063.6895 3054.9805 C -1063.6895 3057.9662 -1062.1312 3060.3996 -1060.2189 3060.3996" fill="white"/>
          </g>
        </g>
        <g id="Group_1677">
          <title>Graphic_333</title>
          <g id="Graphic_1678">
            <path d="M -1059.4542 3093.472 L -995.9248 3093.472 C -993.5942 3093.472 -991.6895 3091.0803 -991.6895 3088.145 C -991.6895 3085.2133 -993.5942 3082.8173 -995.9248 3082.8173 L -1059.4542 3082.8173 C -1061.7879 3082.8173 -1063.6895 3085.2133 -1063.6895 3088.145 C -1063.6895 3091.0803 -1061.7879 3093.472 -1059.4542 3093.472" fill="white"/>
          </g>
        </g>
      </g>
    </g>
  </g>
</svg>
