<?xml version="1.0" encoding="UTF-8" standalone="no"?>
<!DOCTYPE svg PUBLIC "-//W3C//DTD SVG 1.1//EN" "http://www.w3.org/Graphics/SVG/1.1/DTD/svg11.dtd">
<svg xmlns="http://www.w3.org/2000/svg" xmlns:dc="http://purl.org/dc/elements/1.1/" version="1.1" xmlns:xl="http://www.w3.org/1999/xlink" viewBox="-533.5 610 292.1603 292.1603" width="292.1603" height="292.1603">
  <defs/>
  <metadata> Produced by OmniGraffle 7.19\n2021-11-09 06:36:38 +0000</metadata>
  <g id="Canvas_6" fill="none" stroke="none" stroke-dasharray="none" stroke-opacity="1" fill-opacity="1">
    <title>Canvas 6</title>
    <g id="Canvas_6_Layer_1">
      <title>Layer 1</title>
      <g id="Group_231">
        <g id="Group_229">
          <title>Graphic_100</title>
          <g id="Graphic_230">
            <title>Ellipse_5</title>
            <circle cx="-387.41985" cy="756.08015" r="146.080306461626" fill="#333"/>
          </g>
        </g>
        <g id="Group_226">
          <title>Group_98</title>
          <g id="Group_227">
            <title>Graphic_99</title>
            <g id="Graphic_228">
              <title>Path_95</title>
              <path d="M -388.23185 629.20515 C -421.04285 629.20515 -454.86385 643.29515 -478.43185 666.13315 C -502.66685 689.62015 -515.92085 722.60715 -515.92085 756.89215 C -515.92085 787.7571 -504.18885 819.2791 -483.72085 842.2321 C -459.89485 868.9451 -424.47085 884.5791 -388.23885 884.5791 C -353.14885 884.5791 -318.81385 870.1941 -294.92385 844.9451 C -273.31585 822.1091 -260.55285 789.8971 -260.55285 757.89215 C -260.55285 755.31615 -265.31285 752.83215 -267.88785 752.83215 C -270.46285 752.83215 -275.91285 754.31715 -275.91285 756.89215 C -275.9801 818.8975 -326.22652 869.147 -388.23185 869.2181 C -450.2411 869.1509 -500.49227 818.8984 -500.55785 756.88915 C -500.4884 694.8823 -450.2387 644.6335 -388.23185 644.56515 C -385.65685 644.56515 -383.34485 642.88515 -383.40985 637.05415 C -383.47485 631.22315 -385.65685 629.20515 -388.23185 629.20515" fill="white"/>
            </g>
          </g>
        </g>
        <g id="Group_223">
          <title>Group_96</title>
          <g id="Group_224">
            <title>Graphic_97</title>
            <g id="Graphic_225">
              <title>Path_96</title>
              <path d="M -386.00885 666.50715 C -435.7336 666.5573 -476.03114 706.8544 -476.08185 756.57915 C -476.0317 806.3039 -435.7346 846.6014 -386.00985 846.6521 C -362.90985 846.6521 -341.41885 837.2311 -324.95785 821.7401 C -307.90785 805.6661 -300.15085 789.9471 -297.28885 771.12015 C -296.85485 769.32615 -300.19885 766.23715 -304.12985 766.03015 C -307.52366 765.7973 -310.64466 767.8914 -311.71585 771.12015 C -315.77914 788.2433 -325.41752 803.5307 -339.11585 814.5791 C -351.50185 824.7531 -367.29185 832.9701 -386.01585 832.9701 C -406.64885 832.9701 -423.36785 824.5791 -436.74885 813.0001 C -452.18585 799.6441 -462.40585 781.0941 -462.40585 756.57915 C -462.40585 733.23815 -452.61185 714.65715 -438.12185 700.97115 C -424.17164 687.4454 -405.4444 679.97604 -386.01485 680.18815 C -383.76185 680.18815 -381.61485 679.34615 -381.50885 673.70915 C -381.40285 668.07215 -383.76185 666.50915 -386.01485 666.50915" fill="white"/>
            </g>
          </g>
        </g>
        <g id="Group_220">
          <title>Group_92</title>
          <g id="Group_221">
            <title>Graphic_93</title>
            <g id="Graphic_222">
              <title>Path_98</title>
              <path d="M -387.41885 792.4531 C -399.07385 792.4531 -407.33985 788.4851 -413.77285 781.7871 C -420.38124 774.881 -423.98384 765.6377 -423.79185 756.08115 C -423.79185 745.45315 -420.36485 738.08115 -414.72385 731.69915 C -408.66085 724.83115 -399.59885 719.70915 -387.42385 719.70915 C -384.38285 719.39315 -380.46285 719.05715 -380.62885 712.20115 C -380.79485 705.34515 -384.57785 704.36615 -387.42385 704.36615 C -415.97406 704.3932 -439.11184 727.5309 -439.13885 756.08115 C -439.11294 784.6318 -415.9745 807.7702 -387.42385 807.7961 C -358.8732 807.7702 -335.73477 784.6318 -335.70885 756.08115 C -335.70885 753.23515 -336.87485 748.53615 -343.23685 748.96515 C -349.59885 749.39415 -351.05185 753.23515 -351.05185 756.08115 C -351.05185 766.82315 -355.10785 774.3981 -360.86385 780.7971 C -366.92685 787.5401 -375.35785 792.4541 -387.42385 792.4541" fill="white"/>
            </g>
          </g>
        </g>
        <g id="Graphic_219">
          <title>Rectangle_87</title>
          <path d="M -358.76085 629.20515 L -349.40685 629.20515 C -345.12665 629.20515 -341.65685 632.67494 -341.65685 636.95515 C -341.65685 641.23535 -345.12665 644.70515 -349.40685 644.70515 L -358.76085 644.70515 C -363.04106 644.70515 -366.51085 641.23535 -366.51085 636.95515 C -366.51085 632.67494 -363.04106 629.20515 -358.76085 629.20515 Z" fill="#0078ff"/>
        </g>
        <g id="Graphic_218">
          <title>Rectangle_88</title>
          <path d="M -358.76085 666.50715 L -334.98685 666.50715 C -330.70665 666.50715 -327.23685 669.9769 -327.23685 674.25715 C -327.23685 678.53735 -330.70665 682.00715 -334.98685 682.00715 L -358.76085 682.00715 C -363.04106 682.00715 -366.51085 678.53735 -366.51085 674.25715 C -366.51085 669.9769 -363.04106 666.50715 -358.76085 666.50715 Z" fill="#0078ff"/>
        </g>
        <g id="Graphic_217">
          <title>Rectangle_90</title>
          <path d="M -358.76085 704.78315 L -310.95985 704.78315 C -306.67965 704.78315 -303.20985 708.2529 -303.20985 712.53315 C -303.20985 716.81335 -306.67965 720.28315 -310.95985 720.28315 L -358.76085 720.28315 C -363.04106 720.28315 -366.51085 716.81335 -366.51085 712.53315 C -366.51085 708.2529 -363.04106 704.78315 -358.76085 704.78315 Z" fill="#0078ff"/>
        </g>
        <g id="Graphic_216">
          <title>Rectangle_91</title>
          <path d="M -287.34385 704.78315 L -279.30885 704.78315 C -275.02865 704.78315 -271.55885 708.2529 -271.55885 712.53315 C -271.55885 716.81335 -275.02865 720.28315 -279.30885 720.28315 L -287.34385 720.28315 C -291.62406 720.28315 -295.09385 716.81335 -295.09385 712.53315 C -295.09385 708.2529 -291.62406 704.78315 -287.34385 704.78315 Z" fill="#0078ff"/>
        </g>
        <g id="Graphic_215">
          <title>Rectangle_93</title>
          <path d="M -312.37085 666.40915 L -305.95785 666.40915 C -301.67765 666.40915 -298.20785 669.8789 -298.20785 674.15915 C -298.20785 678.43935 -301.67765 681.90915 -305.95785 681.90915 L -312.37085 681.90915 C -316.65106 681.90915 -320.12085 678.43935 -320.12085 674.15915 C -320.12085 669.8789 -316.65106 666.40915 -312.37085 666.40915 Z" fill="#0078ff"/>
        </g>
      </g>
    </g>
  </g>
</svg>
