<?xml version="1.0" encoding="UTF-8" standalone="no"?>
<!DOCTYPE svg PUBLIC "-//W3C//DTD SVG 1.1//EN" "http://www.w3.org/Graphics/SVG/1.1/DTD/svg11.dtd">
<svg xmlns:xl="http://www.w3.org/1999/xlink" version="1.1" xmlns="http://www.w3.org/2000/svg" xmlns:dc="http://purl.org/dc/elements/1.1/" viewBox="-1709.5 2958 366.55786 359.5" width="366.55786" height="359.5">
  <defs/>
  <metadata> Produced by OmniGraffle 7.19\n2021-10-28 16:57:01 +0000</metadata>
  <g id="Canvas_4" stroke-opacity="1" fill="none" stroke="none" stroke-dasharray="none" fill-opacity="1">
    <title>Canvas 4</title>
    <g id="Canvas_4_Layer_1">
      <title>Layer 1</title>
      <g id="Group_1759">
        <g id="Graphic_1674">
          <ellipse cx="-1526.221" cy="3137.75" rx="183.279223503402" ry="179.750287222866" fill="#004d85"/>
        </g>
        <g id="Group_1672">
          <title>Graphic_357</title>
          <g id="Graphic_1673">
            <path d="M -1526.2212 2987.765 C -1608.8984 2987.765 -1676.1635 3055.0347 -1676.1635 3137.7075 C -1676.1635 3220.3846 -1608.8984 3287.65 -1526.2212 3287.65 C -1443.5482 3287.65 -1376.2787 3220.3846 -1376.2787 3137.7075 C -1376.2787 3134.5336 -1378.8721 3131.9405 -1382.0457 3131.9405 C -1385.2233 3131.9405 -1387.8126 3134.5336 -1387.8126 3137.7075 C -1387.8126 3214.0336 -1449.8992 3276.116 -1526.2212 3276.116 C -1602.543 3276.116 -1664.6295 3214.0336 -1664.6295 3137.7075 C -1664.6295 3061.385 -1602.543 2999.299 -1526.2212 2999.299 C -1523.0477 2999.299 -1520.454 2996.71 -1520.454 2993.5322 C -1520.454 2990.358 -1523.0477 2987.765 -1526.2212 2987.765" fill="white"/>
          </g>
        </g>
        <g id="Group_1670">
          <title>Graphic_356</title>
          <g id="Graphic_1671">
            <path d="M -1528.0269 3016.477 C -1594.8847 3016.477 -1649.257 3070.8496 -1649.257 3137.7075 C -1649.257 3204.5656 -1594.8847 3258.938 -1528.0269 3258.938 C -1472.0196 3258.938 -1423.5851 3220.9463 -1410.2642 3166.574 C -1409.5517 3163.6253 -1411.3607 3160.632 -1414.3101 3159.9 C -1417.2592 3159.1916 -1420.252 3161 -1420.9843 3163.9495 C -1433.102 3213.3933 -1477.1223 3247.917 -1528.0269 3247.917 C -1588.7923 3247.917 -1638.236 3198.473 -1638.236 3137.7075 C -1638.236 3076.9426 -1588.7923 3027.4978 -1528.0269 3027.4978 C -1524.9945 3027.4978 -1522.5162 3025.0242 -1522.5162 3021.988 C -1522.5162 3018.9555 -1524.9945 3016.477 -1528.0269 3016.477" fill="white"/>
          </g>
        </g>
        <g id="Group_1668">
          <title>Graphic_354</title>
          <g id="Graphic_1669">
            <path d="M -1471.942 3185.9364 C -1486.3798 3203.3012 -1507.5568 3213.2605 -1530.059 3213.2605 C -1571.7208 3213.2605 -1605.6122 3179.369 -1605.6122 3137.707 C -1605.6122 3096.0453 -1571.7208 3062.154 -1530.059 3062.154 C -1526.5943 3062.154 -1523.7627 3059.327 -1523.7627 3055.8584 C -1523.7627 3052.393 -1526.5943 3049.5618 -1530.059 3049.5618 C -1578.6592 3049.5618 -1618.2043 3089.111 -1618.2043 3137.707 C -1618.2043 3186.3075 -1578.6592 3225.853 -1530.059 3225.853 C -1503.7935 3225.853 -1479.1022 3214.246 -1462.2536 3193.9784 C -1460.042 3191.301 -1460.4083 3187.339 -1463.0635 3185.127 C -1465.7454 3182.8877 -1469.7302 3183.259 -1471.942 3185.9364" fill="white"/>
          </g>
        </g>
        <g id="Group_1666">
          <title>Graphic_353</title>
          <g id="Graphic_1667">
            <path d="M -1529.6832 3181.1587 C -1553.6133 3181.1587 -1573.0917 3161.6797 -1573.0917 3137.75 C -1573.0917 3113.82 -1553.6133 3094.3413 -1529.6832 3094.3413 C -1526.6972 3094.3413 -1524.2569 3091.905 -1524.2569 3088.9155 C -1524.2569 3085.9293 -1526.6972 3083.4892 -1529.6832 3083.4892 C -1559.6122 3083.4892 -1583.9438 3107.8243 -1583.9438 3137.75 C -1583.9438 3167.679 -1559.6122 3192.0108 -1529.6832 3192.0108 C -1499.754 3192.0108 -1475.4223 3167.679 -1475.4223 3137.75 C -1475.4223 3134.7637 -1477.8624 3132.324 -1480.8483 3132.324 C -1483.8382 3132.324 -1486.2744 3134.7637 -1486.2744 3137.75 C -1486.2744 3161.6797 -1505.753 3181.1587 -1529.6832 3181.1587" fill="white"/>
          </g>
        </g>
        <g id="Group_1663">
          <title>Group_348</title>
          <g id="Group_1664">
            <title>Graphic_349</title>
            <g id="Graphic_1665">
              <path d="M -1436.7662 3017.731 L -1442.1853 3017.731 C -1445.1712 3017.731 -1447.6043 3020.1683 -1447.6043 3023.1507 C -1447.6043 3026.1366 -1445.1712 3028.5702 -1442.1853 3028.5702 L -1436.7662 3028.5702 C -1433.7842 3028.5702 -1431.3472 3026.1366 -1431.3472 3023.1507 C -1431.3472 3020.1683 -1433.7842 3017.731 -1436.7662 3017.731" fill="white"/>
            </g>
          </g>
        </g>
        <g id="Group_1660">
          <title>Group_344</title>
          <g id="Group_1661">
            <title>Graphic_345</title>
            <g id="Graphic_1662">
              <path d="M -1409.1411 3050.261 L -1414.5602 3050.261 C -1417.5461 3050.261 -1419.9792 3052.6982 -1419.9792 3055.68 C -1419.9792 3058.6665 -1417.5461 3061.0993 -1414.5602 3061.0993 L -1409.1411 3061.0993 C -1406.1591 3061.0993 -1403.7221 3058.6665 -1403.7221 3055.68 C -1403.7221 3052.6982 -1406.1591 3050.261 -1409.1411 3050.261" fill="white"/>
            </g>
          </g>
        </g>
        <g id="Group_1657">
          <title>Group_342</title>
          <g id="Group_1658">
            <title>Graphic_343</title>
            <g id="Graphic_1659">
              <path d="M -1393.6574 3082.9297 L -1399.0765 3082.9297 C -1402.0624 3082.9297 -1404.4955 3085.367 -1404.4955 3088.3485 C -1404.4955 3091.334 -1402.0624 3093.7675 -1399.0765 3093.7675 L -1393.6574 3093.7675 C -1390.6754 3093.7675 -1388.2384 3091.334 -1388.2384 3088.3485 C -1388.2384 3085.367 -1390.6754 3082.9297 -1393.6574 3082.9297" fill="white"/>
            </g>
          </g>
        </g>
        <g id="Group_1655">
          <title>Graphic_337</title>
          <g id="Graphic_1656">
            <path d="M -1484.4248 3000.834 L -1472.9542 3000.834 C -1472.5334 3000.834 -1472.1895 2998.4386 -1472.1895 2995.4995 C -1472.1895 2992.564 -1472.5334 2990.165 -1472.9542 2990.165 L -1484.4248 2990.165 C -1484.8462 2990.165 -1485.1895 2992.564 -1485.1895 2995.4995 C -1485.1895 2998.4386 -1484.8462 3000.834 -1484.4248 3000.834" fill="white"/>
          </g>
        </g>
        <g id="Group_1653">
          <title>Graphic_336</title>
          <g id="Graphic_1654">
            <path d="M -1483.4248 3028.5702 L -1456.9542 3028.5702 C -1455.9831 3028.5702 -1455.1895 3026.137 -1455.1895 3023.151 C -1455.1895 3020.169 -1455.9831 3017.732 -1456.9542 3017.732 L -1483.4248 3017.732 C -1484.3972 3017.732 -1485.1895 3020.169 -1485.1895 3023.151 C -1485.1895 3026.137 -1484.3972 3028.5702 -1483.4248 3028.5702" fill="white"/>
          </g>
        </g>
        <g id="Group_1651">
          <title>Graphic_334</title>
          <g id="Graphic_1652">
            <path d="M -1481.719 3060.3996 L -1429.6601 3060.3996 C -1427.7503 3060.3996 -1426.1895 3057.9662 -1426.1895 3054.9805 C -1426.1895 3051.999 -1427.7503 3049.5618 -1429.6601 3049.5618 L -1481.719 3049.5618 C -1483.6312 3049.5618 -1485.1895 3051.999 -1485.1895 3054.9805 C -1485.1895 3057.9662 -1483.6312 3060.3996 -1481.719 3060.3996" fill="white"/>
          </g>
        </g>
        <g id="Group_1649">
          <title>Graphic_333</title>
          <g id="Graphic_1650">
            <path d="M -1480.9542 3093.472 L -1417.4248 3093.472 C -1415.0942 3093.472 -1413.1895 3091.0803 -1413.1895 3088.145 C -1413.1895 3085.2133 -1415.0942 3082.8173 -1417.4248 3082.8173 L -1480.9542 3082.8173 C -1483.2879 3082.8173 -1485.1895 3085.2133 -1485.1895 3088.145 C -1485.1895 3091.0803 -1483.2879 3093.472 -1480.9542 3093.472" fill="white"/>
          </g>
        </g>
      </g>
    </g>
  </g>
</svg>
