<svg width="56" height="56" viewBox="0 0 56 56" fill="none" xmlns="http://www.w3.org/2000/svg">
<g clip-path="url(#clip0_3060_1536)">
<path d="M55.7638 27.9388C55.7638 43.2688 43.3388 55.7026 28.0001 55.7026C12.6613 55.7026 0.236328 43.2776 0.236328 27.9388C0.236328 12.6001 12.6701 0.183838 28.0001 0.183838C43.3301 0.183838 55.7638 12.6088 55.7638 27.9388Z" fill="black"/>
<path d="M37.7522 29.0351C37.5786 30.5252 37.0651 31.8272 36.2115 32.9411C35.3725 34.0551 34.2585 34.9231 32.8697 35.5451C31.4809 36.1672 29.8896 36.4782 28.0957 36.4782C26.1572 36.4782 24.4646 36.1238 23.0179 35.4149C21.5713 34.7061 20.4429 33.7151 19.6327 32.442C18.8371 31.1545 18.4392 29.6572 18.4392 27.9501C18.4392 26.2431 18.8371 24.753 19.6327 23.4799C20.4429 22.1924 21.5713 21.1942 23.0179 20.4853C24.4646 19.7765 26.1572 19.422 28.0957 19.422C29.8896 19.422 31.4809 19.7331 32.8697 20.3551C34.2585 20.9772 35.3725 21.8452 36.2115 22.9591C37.0651 24.0731 37.5786 25.3751 37.7522 26.8651H32.1319C32.0017 26.3009 31.763 25.8235 31.4158 25.4329C31.0686 25.0279 30.6129 24.7241 30.0487 24.5215C29.499 24.3045 28.848 24.196 28.0957 24.196C27.2567 24.196 26.5333 24.3479 25.9257 24.6517C25.3326 24.9411 24.8769 25.3678 24.5586 25.932C24.2404 26.4962 24.0812 27.1689 24.0812 27.9501C24.0812 28.7313 24.2404 29.404 24.5586 29.9682C24.8769 30.518 25.3326 30.9447 25.9257 31.2485C26.5333 31.5523 27.2567 31.7042 28.0957 31.7042C28.848 31.7042 29.499 31.6102 30.0487 31.4221C30.6129 31.2196 31.0686 30.923 31.4158 30.5324C31.763 30.1274 32.0017 29.6283 32.1319 29.0351H37.7522Z" fill="white"/>
<path d="M28.0876 14.7876C30.3541 14.7876 32.1914 12.9503 32.1914 10.6838C32.1914 8.41739 30.3541 6.58008 28.0876 6.58008C25.8212 6.58008 23.9839 8.41739 23.9839 10.6838C23.9839 12.9503 25.8212 14.7876 28.0876 14.7876Z" fill="white"/>
<path d="M28.0876 49.3501C30.3541 49.3501 32.1914 47.5128 32.1914 45.2463C32.1914 42.9799 30.3541 41.1426 28.0876 41.1426C25.8212 41.1426 23.9839 42.9799 23.9839 45.2463C23.9839 47.5128 25.8212 49.3501 28.0876 49.3501Z" fill="white"/>
<path d="M12.9329 23.0039C15.1993 23.0039 17.0366 21.1666 17.0366 18.9001C17.0366 16.6337 15.1993 14.7964 12.9329 14.7964C10.6664 14.7964 8.8291 16.6337 8.8291 18.9001C8.8291 21.1666 10.6664 23.0039 12.9329 23.0039Z" fill="white"/>
<path d="M43.2512 23.0039C45.5176 23.0039 47.355 21.1666 47.355 18.9001C47.355 16.6337 45.5176 14.7964 43.2512 14.7964C40.9848 14.7964 39.1475 16.6337 39.1475 18.9001C39.1475 21.1666 40.9848 23.0039 43.2512 23.0039Z" fill="white"/>
<path d="M12.9329 41.2739C15.1993 41.2739 17.0366 39.4366 17.0366 37.1702C17.0366 34.9037 15.1993 33.0664 12.9329 33.0664C10.6664 33.0664 8.8291 34.9037 8.8291 37.1702C8.8291 39.4366 10.6664 41.2739 12.9329 41.2739Z" fill="white"/>
<path d="M43.2512 41.2739C45.5176 41.2739 47.355 39.4366 47.355 37.1702C47.355 34.9037 45.5176 33.0664 43.2512 33.0664C40.9848 33.0664 39.1475 34.9037 39.1475 37.1702C39.1475 39.4366 40.9848 41.2739 43.2512 41.2739Z" fill="white"/>
</g>
<defs>
<clipPath id="clip0_3060_1536">
<rect width="56" height="56" fill="white"/>
</clipPath>
</defs>
</svg>
