<svg width="400" height="400" viewBox="0 0 400 400" fill="none" xmlns="http://www.w3.org/2000/svg">
<path d="M200 400C310.457 400 400 310.457 400 200C400 89.5431 310.457 0 200 0C89.543 0 0 89.5431 0 200C0 310.457 89.543 400 200 400Z" fill="#FF56E0"/>
<path d="M269.558 108.696C269.558 108.696 271.758 162.147 196.852 202.228C121.945 242.31 130.754 291.304 130.754 291.304" stroke="#E6E6E6" stroke-width="34.7826" stroke-miterlimit="10" stroke-linecap="round"/>
<path d="M130.441 108.696C130.441 108.696 128.242 162.147 203.148 202.228C278.054 242.31 269.246 291.304 269.246 291.304" stroke="white" stroke-width="34.7826" stroke-miterlimit="10" stroke-linecap="round"/>
<path d="M200 130.435C209.605 130.435 217.391 122.648 217.391 113.043C217.391 103.438 209.605 95.6521 200 95.6521C190.395 95.6521 182.609 103.438 182.609 113.043C182.609 122.648 190.395 130.435 200 130.435Z" fill="#363636"/>
<path d="M200 304.348C209.605 304.348 217.391 296.562 217.391 286.957C217.391 277.352 209.605 269.565 200 269.565C190.395 269.565 182.609 277.352 182.609 286.957C182.609 296.562 190.395 304.348 200 304.348Z" fill="#363636"/>
</svg>
