<?xml version="1.0" encoding="UTF-8"?>
<svg width="100%" height="100%" viewBox="0 0 1000 1000" version="1.1" xmlns="http://www.w3.org/2000/svg" xmlns:xlink="http://www.w3.org/1999/xlink">
    <title>GEB_logomark_Light</title>
    <g id="官网" stroke="none" stroke-width="1" fill="none" fill-rule="evenodd">
        <g id="GEB_logomark_Light">
            <path d="M500,0 C776.142375,0 1000,223.857625 1000,500 C1000,776.142375 776.142375,1000 500,1000 C223.857625,1000 0,776.142375 0,500 C0,223.857625 223.857625,0 500,0 Z" id="矩形" fill="#FDF6DD" fill-rule="nonzero"></path>
            <g id="编组-8" transform="translate(240.840664, 200.190413)">
                <path d="M317.278645,34.529789 L317.278645,87.0855768 L109.029963,211.824789 L109.029963,154.656789 L317.278645,34.529789 Z" id="形状结合" fill="#B1871A"></path>
                <path d="M373.894671,118.317823 L373.894671,170.873611 L227.76157,258.405823 L227.76157,202.613823 L373.894671,118.317823 Z" id="形状结合" fill="#B1871A"></path>
                <path d="M316.959684,33.9768475 C317.385245,33.731365 317.916987,34.0385009 317.916987,34.529789 L317.916987,87.0855768 C317.916987,87.309971 317.799166,87.517886 317.606664,87.6331934 L109.357982,212.372898 C108.932504,212.627757 108.391621,212.32125 108.391621,211.825281 L108.391621,154.656771 C108.391621,154.428627 108.51338,154.217826 108.711002,154.103829 L316.959684,33.9768475 Z M316.639717,35.6349185 L109.668305,155.024815 L109.668305,210.698209 L316.639717,86.7232217 L316.639717,35.6349185 Z" id="形状结合" fill="#000000" fill-rule="nonzero"></path>
                <path d="M373.57571,117.764882 C374.001271,117.519399 374.533013,117.826535 374.533013,118.317823 L374.533013,170.873611 C374.533013,171.098006 374.415191,171.305921 374.222689,171.421229 L228.089587,258.953576 C227.664109,259.208433 227.123228,258.901926 227.123228,258.405958 L227.123228,202.613873 C227.123228,202.385729 227.244986,202.174928 227.442608,202.060931 L373.57571,117.764882 Z M373.255663,119.422953 L228.399912,202.981917 L228.399912,257.278886 L373.255663,170.511256 L373.255663,119.422953 Z" id="形状结合" fill="#000000" fill-rule="nonzero"></path>
                <polygon id="路径-16" fill="#DEB036" points="141.517066 384.699807 256.045978 450.962334 188.184367 494.016568 70.0911032 427.010295"></polygon>
                <polygon id="路径-12" fill="#B1871A" points="141.517066 149.826673 141.517066 384.699807 70.0911032 427.010295 70.0911032 191.809605"></polygon>
                <path d="M141.193599,149.276355 C141.619141,149.026229 142.155408,149.333065 142.155408,149.826673 L142.155408,384.699807 C142.155408,384.925314 142.036425,385.134089 141.842403,385.249021 L70.4164404,427.559509 C69.9909192,427.811575 69.4527613,427.504871 69.4527613,427.010295 L69.4527613,191.809605 C69.4527613,191.583322 69.5725572,191.373951 69.7676362,191.259287 L141.193599,149.276355 Z M140.878241,150.941777 L70.7294452,192.173681 L70.7294452,425.889626 L140.878241,384.335559 L140.878241,150.941777 Z" id="路径-12" fill="#000000" fill-rule="nonzero"></path>
                <path d="M391.441498,349.54945 L434.64167,331.083234 C446.172407,306.006115 445.278526,288.044269 431.960027,277.197696 C418.641529,266.351122 393.087697,262.773974 355.298531,266.466251 L324.555181,312.037758 L391.441498,349.54945 Z" id="路径-17" fill="#BA9124"></path>
                <polygon id="路径-13" fill="#EDC457" points="141.517066 384.699807 335.66567 491.073779 259.159336 535.136769 70.0911032 427.010295"></polygon>
                <path d="M397.141607,462.929405 C428.483571,433.307169 442.323815,410.54086 438.662341,394.630476 C435.000866,378.720093 410.992223,366.935863 366.636411,359.277786 L321.873537,417.90017 L397.141607,462.929405 Z" id="路径-17" fill="#BA9124"></path>
                <polyline id="路径-10" fill="#EDC457" points="129.898839 340.069266 257.837548 266.466251 388.759855 342.269113 259.163088 416.513019"></polyline>
                <path d="M257.519229,265.91294 C257.716846,265.799251 257.960096,265.799588 258.157399,265.913824 L389.079705,341.716686 C389.505486,341.963209 389.504076,342.578433 389.077168,342.823002 L259.480402,417.066908 L258.845774,415.959131 L387.480795,342.26537 L257.836533,267.202339 L130.217159,340.622577 L129.58052,339.515954 L257.519229,265.91294 Z" id="路径-10" fill="#000000" fill-rule="nonzero"></path>
                <polyline id="路径-15" fill="#EDC457" points="409.016873 450.312794 345.437341 414.948124 282.842766 456.407248 347.570885 491.189144"></polyline>
                <path d="M141.191729,384.150593 C141.390321,384.032953 141.63695,384.031685 141.836741,384.147277 L256.365653,450.409804 C256.780574,450.649864 256.792722,451.244543 256.38795,451.501347 L188.52634,494.555581 C188.327155,494.681953 188.074514,494.688176 187.869348,494.571765 L69.7760839,427.565492 C69.349605,427.323507 69.3438826,426.710991 69.7657661,426.461081 L141.191729,384.150593 Z M141.520572,385.438887 L71.3637975,426.997941 L188.165417,493.271802 L254.8153,450.987631 L141.520572,385.438887 Z" id="路径-16" fill="#000000" fill-rule="nonzero"></path>
                <path d="M141.191729,384.150593 C141.385752,384.035659 141.626021,384.031627 141.823792,384.139986 L335.972395,490.513958 C336.409195,490.75328 336.415856,491.378361 335.984255,491.626937 L259.477922,535.689927 C259.281317,535.803159 259.039385,535.803528 258.842437,535.690895 L69.7742037,427.564421 C69.3493811,427.321468 69.3447088,426.710502 69.7657661,426.461081 L141.191729,384.150593 Z M141.528551,385.4339 L71.3598079,426.999936 L259.15802,534.399975 L334.361686,491.087475 L141.528551,385.4339 Z" id="路径-13" fill="#000000" fill-rule="nonzero"></path>
                <path d="M345.084847,414.415932 C345.283643,414.28426 345.539252,414.274364 345.747634,414.390272 L409.327165,449.754942 L408.70658,450.870646 L345.466107,415.694186 L284.08454,456.349587 L347.87304,490.626843 L347.26873,491.751446 L282.540611,456.96955 C282.115436,456.741081 282.087864,456.141589 282.490271,455.875056 L345.084847,414.415932 Z" id="路径-15" fill="#000000" fill-rule="nonzero"></path>
                <polygon id="路径-6备份-2" fill="#EDC457" points="258.855882 0.638341969 0.638342045 150.994404 258.855882 299.015004 517.680331 150.784186 461.342339 118.102129 288.810405 219.732765 244.88553 193.258195 373.268007 118.102129 315.423009 84.2748188 186.594731 159.689153 140.438016 136.446244 317.278645 34.529789"></polygon>
                <path d="M258.534671,0.0867039904 C258.732888,-0.0287143684 258.977789,-0.0289136878 259.176194,0.0861818714 L317.598957,33.9776289 C318.023693,34.2240214 318.022822,34.8376709 317.597388,35.0828564 L141.781736,136.408692 L186.571399,158.962111 L315.100523,83.7239254 C315.271175,83.624028 315.476647,83.6097169 315.65728,83.6810052 L315.74525,83.7237827 L373.590249,117.551093 C374.011604,117.797498 374.011743,118.406419 373.590501,118.653017 L246.133692,193.26601 L288.813834,218.989197 L461.018352,117.552117 C461.188601,117.451831 461.393859,117.436902 461.574599,117.507526 L461.66265,117.549969 L518.000642,150.232026 C518.426045,150.478805 518.424337,151.093704 517.997571,151.338116 L259.173122,299.568935 C258.976523,299.681529 258.734974,299.68148 258.538419,299.568808 L0.32087983,151.548208 C-0.105289457,151.303911 -0.107371105,150.689948 0.317131819,150.442767 L258.534671,0.0867039904 Z M258.856645,1.37642487 L1.91402857,150.989819 L258.855648,298.279249 L516.401697,150.780363 L461.344702,118.841321 L289.134392,220.282777 C288.961314,220.384729 288.752279,220.398364 288.569689,220.323996 L288.480887,220.27948 L244.556011,193.80491 C244.141164,193.554872 244.145023,192.952014 244.563036,192.707306 L372.003757,118.102241 L315.42272,85.0141839 L186.917216,160.240046 C186.761556,160.331168 186.576254,160.351385 186.406937,160.299257 L186.307631,160.259288 L140.150916,137.016379 C139.697235,136.787922 139.679174,136.146814 140.119273,135.893177 L316.002215,34.5273187 L258.856645,1.37642487 Z" id="路径-6备份-2" fill="#000000" fill-rule="nonzero"></path>
                <path d="M517.680331,150.784186 L517.680331,248.250274 L475.1602,305.367262 L517.680331,314.185483 L517.680331,448.99744 L259.159336,598.979876 L259.159336,416.513019 L388.419833,342.222323 C407.305544,329.857775 416.7484,316.617468 416.7484,302.501404 C416.7484,281.327307 396.324019,287.072364 388.419833,291.525087 C383.150376,294.493569 340.063544,319.416254 259.159336,366.293142 L259.159336,299.015004 L517.680331,150.784186 Z M388.759855,394.678496 L345.559682,419.801291 L345.559682,480.697346 L388.759855,455.574551 C417.55997,440.361766 431.960027,422.795671 431.960027,402.876268 C431.960027,382.956864 417.55997,380.224274 388.759855,394.678496 Z" id="形状结合" fill="#B1871A"></path>
                <path d="M517.36281,150.230416 C517.788368,149.986409 518.318673,150.293636 518.318673,150.784186 L518.318673,248.250274 C518.318673,248.387613 518.274378,248.52129 518.192368,248.631455 L476.269414,304.944769 L517.809958,313.560441 C518.073317,313.615059 518.27043,313.82736 518.310981,314.086378 L518.318673,314.185483 L518.318673,448.99744 C518.318673,449.225019 518.197512,449.435385 518.000663,449.549589 L259.479668,599.532025 C259.054108,599.778916 258.520994,599.471869 258.520994,598.979876 L258.520994,416.513019 C258.520994,416.284514 258.643136,416.073438 258.841251,415.959574 L388.07018,341.68826 C406.793217,329.430216 416.110058,316.3666 416.110058,302.501404 C416.110058,293.273959 412.228697,288.762023 405.480082,288.037887 C400.316164,287.483791 393.617717,289.329587 388.733141,292.081251 C383.467379,295.047651 340.375232,319.973411 259.479361,366.845469 C259.053801,367.092044 258.520994,366.784977 258.520994,366.293142 L258.520994,299.015004 C258.520994,298.786266 258.643382,298.575012 258.841816,298.461234 L517.36281,150.230416 Z M517.041512,151.885326 L259.797678,299.384212 L259.797678,365.1853 L261.255339,364.340953 C339.808146,318.827324 382.028253,294.405979 387.936988,291.064624 L388.106525,290.968923 C393.203821,288.097426 400.153701,286.182346 405.61629,286.76849 C413.025644,287.563524 417.386742,292.633137 417.386742,302.501404 C417.386742,316.868337 407.817872,330.285334 388.737919,342.775769 L259.797678,416.881025 L259.797678,597.870922 L517.041512,448.629562 L517.041512,314.704419 L475.030573,305.992304 C474.606242,305.904302 474.39993,305.434906 474.595751,305.06857 L474.648163,304.986081 L517.041512,248.039575 L517.041512,151.885326 Z M388.473521,394.107976 C417.626284,379.476766 432.598369,382.317906 432.598369,402.876268 C432.598369,423.075038 418.045961,440.82698 389.08076,456.126367 L345.880587,481.249162 C345.455029,481.496643 344.92134,481.189633 344.92134,480.697346 L344.92134,419.801291 C344.92134,419.573949 345.042251,419.363764 345.238777,419.249476 L388.43895,394.126681 L388.473521,394.107976 Z M431.321685,402.876268 C431.321685,383.595822 417.493655,380.971781 389.046188,395.249017 L389.066914,395.237243 L346.197264,420.168487 L346.197264,479.587152 L388.461708,455.010114 C416.787856,440.047687 431.035295,422.863683 431.317411,403.464791 L431.321685,402.876268 Z" id="形状结合" fill="#000000" fill-rule="nonzero"></path>
                <polygon id="路径-8备份" fill="#FDEFC8" points="259.159336 598.979876 259.159336 416.03525 129.723691 340.752591 129.723691 407.666578 188.184367 443.862459 188.184367 494.016568 70.0911032 427.010295 70.0911032 258.371188 259.159336 366.577821 259.159336 299.015004 0.638342045 150.994404 0.638342045 450.735376"></polygon>
                <path d="M7.63393473e-08,150.994404 C7.63393473e-08,150.504028 0.529966471,150.19678 0.955523663,150.44044 L259.476518,298.46104 C259.675142,298.574765 259.797678,298.786126 259.797678,299.015004 L259.797678,366.577821 C259.797678,367.068144 259.267817,367.375398 258.84226,367.131845 L70.7292876,259.471645 L70.7292876,426.638446 L187.545868,492.920285 L187.545868,444.216788 L129.387657,408.209313 C129.226562,408.109572 129.119526,407.944477 129.092232,407.760138 L129.085349,407.666578 L129.085349,340.752591 C129.085349,340.260287 129.61907,339.95328 130.044628,340.200794 L259.480274,415.483453 C259.676781,415.597747 259.797678,415.807922 259.797678,416.03525 L259.797678,598.979876 C259.797678,599.470438 259.267352,599.777663 258.841794,599.533633 L0.320799305,451.289133 C0.122378576,451.175352 7.63393473e-08,450.964104 7.63393473e-08,450.735376 L7.63393473e-08,150.994404 Z M1.27668401,152.095544 L1.27668401,450.365816 L258.520518,597.877669 L258.520518,416.402034 L130.361399,341.862643 L130.361399,407.310648 L188.520402,443.319724 C188.681497,443.419466 188.788532,443.584561 188.815827,443.7689 L188.822709,443.862459 L188.822709,494.016568 C188.822709,494.50584 188.294892,494.813219 187.869348,494.571765 L69.7760839,427.565492 C69.5762441,427.452102 69.4527613,427.240063 69.4527613,427.010295 L69.4527613,258.371188 C69.4527613,257.880865 69.9826231,257.573611 70.4081798,257.817164 L258.520518,365.476309 L258.520518,299.384974 L1.27668401,152.095544 Z" id="路径-8备份" fill="#000000" fill-rule="nonzero"></path>
            </g>
        </g>
    </g>
</svg>
