<svg width="755" height="744" viewBox="0 0 755 744" fill="none" xmlns="http://www.w3.org/2000/svg">
<path d="M754.116 352.174C752.667 328.986 749.768 304.348 743.971 282.609C738.174 259.42 730.927 237.681 720.783 215.942C710.638 194.203 699.043 175.362 686 156.522C672.956 137.681 657.014 120.29 639.623 104.348C623.681 88.4058 604.84 73.913 586 62.3188C565.71 49.2754 545.42 37.6812 525.13 28.9855C504.84 20.2899 483.101 13.0435 461.362 8.69565C439.623 4.34783 417.884 1.44928 396.145 0C390.348 0 384.551 0 377.304 0C359.913 0 341.072 1.44928 323.681 4.34783C303.391 7.24638 284.551 11.5942 265.71 17.3913C245.42 23.1884 225.13 31.8841 204.84 42.029C181.652 52.1739 159.913 66.6667 139.623 84.058C126.58 94.2029 113.536 105.797 101.942 118.841C87.4492 134.783 72.9564 152.174 61.3622 171.014C49.768 189.855 39.6231 208.696 30.9275 228.986C22.2318 249.275 14.9854 269.565 10.6376 291.304C4.8405 311.594 1.94195 333.333 0.492676 355.072C0.492676 360.87 0.492676 366.667 0.492676 372.464C0.492676 388.406 1.94195 404.348 3.39123 420.29C6.28978 442.029 10.6376 462.319 17.884 482.609C23.6811 502.899 32.3767 523.188 42.5217 542.029C52.6666 560.87 62.8115 578.261 75.855 594.203C87.4492 611.594 101.942 626.087 116.435 640.58C130.927 655.072 146.869 666.667 164.261 678.261C181.652 689.855 199.043 700 217.884 708.696C235.275 717.391 254.116 724.638 274.406 728.986C293.246 734.783 313.536 737.681 333.826 740.58C348.319 742.029 362.812 743.478 378.754 743.478C384.551 743.478 388.898 743.478 394.696 743.478C414.985 742.029 435.275 740.58 455.565 736.232C475.855 731.884 496.145 726.087 514.985 718.841C535.275 711.594 554.116 702.899 571.507 691.304C590.348 679.71 607.739 668.116 623.681 653.623C641.072 639.13 655.565 624.638 670.058 607.246C684.551 589.855 697.594 571.014 707.739 552.174C719.333 531.884 728.029 511.594 735.275 489.855C742.522 468.116 748.319 444.928 751.217 421.739C754.116 405.797 754.116 388.406 754.116 371.015C754.116 365.217 754.116 359.42 754.116 352.174ZM333.826 723.188C338.174 678.261 341.072 646.377 342.522 621.739C355.565 623.188 368.609 624.638 383.101 624.638C384.551 640.58 386 656.522 387.449 668.116C388.898 684.058 390.348 702.899 391.797 724.638C387.449 724.638 383.101 724.638 378.754 724.638C362.812 726.087 348.319 724.638 333.826 723.188ZM58.4637 533.333C72.9564 526.087 88.8985 518.841 103.391 511.594C120.783 502.899 139.623 494.203 157.014 485.507C162.812 497.101 170.058 508.696 177.304 520.29C170.058 526.087 162.812 530.435 159.913 533.333C133.826 552.174 123.681 559.42 90.3477 584.058C78.7535 568.116 67.1593 552.174 58.4637 533.333ZM19.3333 355.072C20.7825 334.783 23.6811 314.493 28.0289 295.652C51.2173 301.449 71.5072 307.246 80.2028 310.145C90.3477 313.043 113.536 318.841 132.377 324.638C133.826 324.638 135.275 324.638 135.275 326.087C132.377 339.13 130.927 352.174 130.927 366.667C97.5941 363.768 55.5651 359.42 23.6811 356.522C22.2318 356.522 20.7825 356.522 20.7825 356.522C19.3333 356.522 19.3333 355.072 19.3333 355.072ZM152.667 97.1014C175.855 120.29 197.594 147.826 220.783 179.71C209.188 188.406 199.043 198.551 190.348 210.145C177.304 197.101 162.812 182.609 149.768 168.116C138.174 156.522 126.58 143.478 114.985 131.884C126.58 118.841 138.174 107.246 152.667 97.1014ZM377.304 17.3913C383.101 17.3913 388.898 17.3913 393.246 17.3913C391.797 31.8841 390.348 44.9275 390.348 56.5217C388.898 76.8116 386 98.5507 384.551 120.29C383.101 120.29 383.101 120.29 381.652 120.29C367.159 120.29 352.667 121.739 338.174 124.638C333.826 88.4058 329.478 55.0725 325.13 21.7391C342.522 18.8406 359.913 17.3913 377.304 17.3913ZM565.71 443.478C561.362 455.072 555.565 466.667 548.319 476.812C542.522 486.957 533.826 497.101 526.58 505.797C517.884 514.493 509.188 521.739 500.493 528.986C491.797 536.232 481.652 542.029 471.507 547.826C461.362 552.174 451.217 557.971 441.072 560.87C430.927 563.768 420.783 566.667 409.188 568.116C400.493 569.565 391.797 569.565 381.652 569.565C380.203 569.565 378.754 569.565 377.304 569.565C367.159 569.565 357.014 568.116 346.869 566.667C336.725 565.217 326.58 562.319 317.884 559.42C307.739 556.522 299.043 552.174 290.348 547.826C281.652 543.478 272.956 537.681 264.261 531.884C257.014 526.087 248.319 520.29 242.522 513.044C235.275 505.797 229.478 498.551 222.232 489.855C216.435 481.159 210.638 472.464 206.29 463.768C201.942 455.072 197.594 444.928 194.696 434.783C191.797 424.638 188.898 414.493 187.449 404.348C186 394.203 184.551 384.058 184.551 373.913V372.464C184.551 362.319 186 350.725 187.449 340.58C188.898 328.986 191.797 318.841 196.145 308.696C200.493 298.551 204.84 288.406 209.188 278.261C214.985 268.116 220.783 259.42 228.029 250.725C235.275 242.029 242.522 234.783 251.217 226.087C259.913 218.841 268.609 211.594 278.754 205.797C288.898 200 299.043 194.203 309.188 189.855C320.783 185.507 330.927 182.609 342.522 179.71C354.116 176.812 365.71 176.812 378.754 176.812C380.203 176.812 380.203 176.812 381.652 176.812C393.246 176.812 404.84 178.261 416.435 179.71C428.029 181.159 441.072 185.507 451.217 189.855C462.812 194.203 474.406 200 484.551 207.246C494.696 214.493 504.84 221.739 514.985 230.435C525.13 239.13 533.826 249.275 541.072 259.42C548.319 269.565 555.565 281.159 559.913 292.754C565.71 304.348 570.058 317.391 572.956 330.435C575.855 343.478 577.304 356.522 577.304 369.565C577.304 371.015 577.304 372.464 577.304 373.913C577.304 385.507 575.855 397.101 574.406 408.696C574.406 420.29 571.507 431.884 565.71 443.478ZM587.449 226.087C603.391 214.493 620.783 202.899 633.826 192.754C639.623 188.406 651.217 181.159 659.913 173.913C661.362 172.464 665.71 169.565 668.609 168.116C681.652 185.507 693.246 205.797 701.942 226.087C677.304 237.681 646.869 252.174 610.638 269.565C604.84 253.623 597.594 239.13 587.449 226.087ZM555.565 188.406C543.971 176.812 530.927 168.116 517.884 159.42C538.174 128.986 558.464 98.5507 574.406 76.8116C593.246 88.4058 610.638 102.899 625.13 117.391C603.391 140.58 580.203 163.768 555.565 188.406ZM491.797 102.899C490.348 105.797 484.551 118.841 475.855 139.13C461.362 133.333 446.869 128.986 430.927 126.087C433.826 115.942 435.275 110.145 435.275 108.696C438.174 100 442.522 78.2609 446.869 62.3188C448.319 55.0725 452.667 43.4783 455.565 27.5362C475.855 31.8841 496.145 39.1304 516.435 46.3768C503.391 76.8116 493.246 100 491.797 102.899ZM274.406 50.7246C278.754 65.2174 286 98.5507 293.246 124.638C294.696 127.536 294.696 131.884 296.145 136.232C281.652 140.58 268.609 147.826 255.565 155.072C248.319 137.681 241.072 124.638 239.623 118.841C236.725 110.145 225.13 86.9565 212.087 57.971C230.927 49.2754 249.768 40.5797 270.058 34.7826C271.507 40.5797 272.956 46.3768 274.406 50.7246ZM164.261 244.928C157.014 256.522 151.217 269.565 145.42 284.058C125.13 273.913 101.942 262.319 75.855 250.725C65.7101 246.377 55.5651 240.58 45.4202 236.232C54.1159 217.391 62.8115 198.551 74.4057 181.159C101.942 200 133.826 223.188 164.261 244.928ZM41.0724 417.391C64.2608 415.942 100.493 411.594 132.377 408.696C133.826 421.739 136.725 436.232 141.072 449.275C139.623 449.275 136.725 450.725 135.275 450.725C104.841 459.42 64.2608 469.565 35.2753 478.261C29.4782 459.42 25.1304 439.13 22.2318 418.841C28.0289 417.391 33.826 417.391 41.0724 417.391ZM203.391 552.174C212.087 560.87 222.232 569.565 233.826 576.812C212.087 608.696 193.246 636.232 187.449 644.928C183.101 650.725 178.754 657.971 174.406 663.768C158.464 653.623 143.971 640.58 129.478 627.536C154.116 602.899 180.203 576.812 203.391 552.174ZM267.159 598.551C278.754 604.348 290.348 610.145 303.391 614.493C300.493 623.188 293.246 652.174 286 678.261C283.101 689.855 280.203 701.449 277.304 713.044C258.464 707.246 241.072 701.449 223.681 692.754C236.725 665.217 251.217 633.333 267.159 598.551ZM443.971 701.449C441.072 688.406 433.826 665.217 429.478 647.826C428.029 642.029 425.13 633.333 422.232 621.739C436.725 618.841 449.768 615.942 462.811 611.594C470.058 626.087 475.855 639.13 477.304 644.928C478.754 649.275 488.898 671.015 503.391 702.899C484.551 710.145 465.71 715.942 446.869 718.841C446.869 713.043 445.42 707.246 443.971 701.449ZM543.971 655.072C536.725 644.928 520.783 620.29 503.391 595.652C516.435 588.406 528.029 579.71 539.623 571.015C551.217 582.609 564.261 595.652 575.855 608.696C587.449 620.29 597.594 631.884 609.188 642.029C593.246 655.072 577.304 666.667 558.464 676.812C554.116 669.565 548.319 662.319 543.971 655.072ZM633.826 584.058C614.985 571.014 588.898 550.725 572.956 539.13C583.101 527.536 591.797 514.493 600.493 501.449C607.739 504.348 612.087 507.246 613.536 507.246C617.884 510.145 641.072 520.29 662.812 530.435C671.507 534.783 681.652 539.13 690.348 543.478C680.203 562.319 667.159 579.71 654.116 595.652C646.869 592.754 641.072 588.406 633.826 584.058ZM642.522 465.217C635.275 463.768 628.029 460.87 620.782 459.42C626.58 444.928 629.478 428.986 632.377 413.043C661.362 415.942 687.449 417.391 704.84 418.841C714.985 420.29 723.681 420.29 732.377 421.739C729.478 443.478 723.681 465.217 716.435 485.507C693.246 478.261 661.362 469.565 642.522 465.217ZM713.536 356.522C688.898 357.971 657.014 360.87 635.275 363.768C635.275 346.377 632.377 330.435 628.029 314.493C652.667 307.246 674.406 301.449 723.681 288.406C723.681 288.406 723.681 288.406 725.13 288.406C730.927 310.145 733.826 331.884 735.275 355.072C728.029 355.072 720.783 355.072 713.536 356.522Z" fill="#E8662D"/>
<path d="M349.768 415.948C348.319 414.499 346.87 413.049 345.42 413.049C343.971 411.6 343.971 411.6 342.522 410.151C341.072 408.701 339.623 407.252 338.174 405.803C336.725 404.354 336.725 402.904 335.275 401.455C335.275 400.006 333.826 400.006 333.826 398.557C333.826 398.557 333.826 397.107 332.377 397.107C332.377 395.658 330.928 394.209 330.928 391.31C330.928 389.861 329.478 386.962 329.478 385.513C329.478 384.064 329.478 382.615 329.478 381.165V379.716C329.478 376.817 329.478 375.368 329.478 375.368C329.478 375.368 325.13 375.368 312.087 375.368C303.391 375.368 291.797 375.368 274.406 375.368C242.522 375.368 219.333 375.368 217.884 375.368C217.884 375.368 217.884 375.368 217.884 376.817C217.884 379.716 217.884 394.209 217.884 400.006C217.884 401.455 217.884 402.904 217.884 404.354C219.333 413.049 220.783 421.745 222.232 430.441C225.13 439.136 228.029 446.383 230.928 455.078C235.275 463.774 239.623 471.02 243.971 476.817C248.319 481.165 251.217 486.962 257.014 491.31C258.464 492.759 259.913 494.209 262.812 495.658C267.159 500.006 272.957 504.354 278.754 508.701C280.203 510.151 281.652 510.151 283.101 511.6C287.449 514.499 293.246 518.846 294.696 518.846C294.696 518.846 296.145 515.948 299.043 513.049C300.493 510.151 309.188 497.107 316.435 485.513C323.681 473.919 335.275 456.528 342.522 444.933C342.522 444.933 342.522 443.484 343.971 443.484L357.014 423.194H355.565C351.217 417.397 349.768 417.397 349.768 415.948Z" fill="#E8662D"/>
<path d="M316.436 253.629C319.334 257.977 325.131 269.571 336.726 291.31C339.624 297.107 342.523 302.904 346.87 308.701C351.218 317.397 355.566 323.194 355.566 324.643C355.566 324.643 355.566 324.643 358.465 324.643H359.914C362.812 323.194 365.711 323.194 368.61 321.745C371.508 321.745 374.407 320.296 377.305 320.296C378.754 320.296 378.754 320.296 380.204 320.296C384.552 320.296 388.899 320.296 393.247 320.296C397.595 320.296 400.494 321.745 404.841 323.194H406.291H407.74C407.74 323.194 409.189 320.296 412.088 315.948C412.088 314.499 413.537 313.049 414.986 310.151C420.783 298.557 433.827 276.817 439.624 268.122C441.073 265.223 445.421 257.977 448.32 253.629C451.218 249.281 455.566 240.586 458.465 236.238C461.363 230.441 464.262 226.093 464.262 226.093V224.643L458.465 221.745C452.668 218.846 446.87 215.948 441.073 213.049C430.928 208.701 420.783 205.803 410.639 202.904C406.291 201.455 401.943 201.455 397.595 201.455C393.247 201.455 386.001 201.455 378.754 201.455C374.407 201.455 371.508 201.455 368.61 201.455C361.363 202.904 354.117 204.354 346.87 205.803C336.725 208.701 328.03 211.6 317.885 215.948C312.088 218.846 303.392 223.194 301.943 224.643C301.943 224.643 304.841 230.441 312.088 242.035C313.537 246.383 314.986 249.281 316.436 253.629Z" fill="#E8662D"/>
<path d="M414.987 389.85C416.436 386.951 416.436 384.053 417.885 382.603C419.335 379.705 419.335 375.357 419.335 372.459C419.335 371.009 419.335 371.009 419.335 371.009C419.335 368.111 419.335 365.212 417.885 362.314C417.885 360.864 416.436 357.966 416.436 356.516C414.987 355.067 414.987 353.618 413.538 352.169C412.088 350.719 410.639 347.821 409.19 346.372C407.741 344.922 407.741 344.922 406.291 343.473C403.393 340.574 400.494 339.125 397.596 337.676C394.697 336.227 390.349 334.777 387.451 334.777H386.001C383.103 334.777 380.204 334.777 377.306 334.777C374.407 334.777 370.059 336.227 367.161 337.676C364.262 339.125 361.364 340.574 358.465 342.024C357.016 343.473 354.117 344.922 352.668 346.372L351.219 347.821C349.77 349.27 348.32 352.169 346.871 355.067C345.422 357.966 343.972 359.415 343.972 362.314C343.972 363.763 342.523 365.212 342.523 368.111C342.523 371.009 342.523 372.458 342.523 375.357C342.523 376.806 342.523 378.256 342.523 379.705C342.523 381.154 342.523 382.603 343.972 385.502V386.951V388.401C343.972 389.85 345.422 389.85 345.422 391.299C345.422 392.748 346.871 392.748 346.871 394.198C346.871 395.647 348.32 395.647 348.32 397.096C348.32 397.096 348.32 398.545 349.77 398.545C351.219 399.995 351.219 399.995 352.668 401.444L354.117 402.893C355.567 404.343 355.567 404.343 357.016 405.792C358.465 407.241 358.465 407.241 359.914 407.241C361.364 407.241 361.364 408.69 362.813 408.69C364.262 408.69 365.712 410.14 367.161 410.14C368.61 410.14 370.059 411.589 371.509 411.589C372.958 411.589 375.857 411.589 377.306 413.038C378.755 413.038 381.654 413.038 383.103 413.038C386.001 413.038 387.451 413.038 390.349 411.589C393.248 410.14 396.146 410.14 397.596 408.69C400.494 407.241 403.393 405.792 406.291 402.893C409.19 399.995 410.639 398.545 412.088 395.647C414.987 391.299 414.987 391.299 414.987 389.85Z" fill="#E8662D"/>
<path d="M545.421 373.91H522.233H490.349H435.276V375.359C435.276 378.258 433.827 379.707 433.827 382.606C432.378 386.954 432.378 391.301 429.479 395.649C429.479 397.099 428.03 397.099 428.03 398.548C426.58 401.446 425.131 404.345 423.682 405.794C420.783 410.142 419.334 413.041 416.436 414.49C414.986 415.939 413.537 415.939 413.537 417.388C412.088 418.838 410.638 418.838 410.638 420.287C410.638 420.287 412.088 421.736 413.537 424.635C419.334 433.33 429.479 450.722 441.073 468.113C452.667 486.954 464.262 504.345 465.711 507.244C465.711 508.693 467.16 510.142 470.059 513.041C471.508 515.939 472.957 517.388 472.957 517.388C472.957 517.388 478.754 514.49 483.102 511.591C484.551 511.591 484.551 510.142 486.001 510.142C494.696 504.345 500.494 498.548 507.74 492.751C514.986 485.504 520.783 478.258 526.58 471.012C526.58 469.562 528.03 469.562 528.03 468.113C533.827 459.417 538.175 449.272 542.523 439.128C545.421 428.983 548.32 418.838 549.769 408.693V407.244C549.769 399.997 551.218 385.504 549.769 379.707L545.421 373.91Z" fill="#E8662D"/>
</svg>
