<svg width="500" height="500" viewBox="0 0 500 500" fill="none" xmlns="http://www.w3.org/2000/svg">
<g clip-path="url(#clip0_1_55)">
<circle cx="250" cy="250" r="250" fill="#240E32"/>
<path d="M400.647 275.039C404.778 270.913 410.095 265.603 415.374 260.336C427.15 248.58 427.156 229.513 415.381 217.752L402.906 205.292C358.243 249.902 291.407 258.865 237.826 232.187C274.04 238.875 311.57 233.665 344.826 215.807C367.073 203.858 371.298 173.722 353.437 155.883L279.793 82.3273C263.337 65.8909 236.659 65.8909 220.209 82.3273L140.83 161.611C193.107 139.428 255.905 149.712 298.421 192.471C233.558 161.025 153.205 172.182 99.3496 225.967C95.2184 230.093 89.8953 235.41 84.6158 240.683C72.8463 252.445 72.8525 271.499 84.6158 283.254L97.0843 295.708C141.748 251.098 208.583 242.135 262.164 268.813C225.95 262.125 188.42 267.335 155.165 285.193C132.917 297.142 128.692 327.278 146.553 345.117L220.197 418.673C236.653 435.109 263.331 435.109 279.781 418.673L359.16 339.389C306.883 361.572 244.085 351.288 201.563 308.529C266.426 339.975 346.779 328.818 400.634 275.033L400.647 275.039Z" fill="#F6F6EC"/>
</g>
<defs>
<clipPath id="clip0_1_55">
<rect width="500" height="500" fill="white"/>
</clipPath>
</defs>
</svg>
