<?xml version="1.0" encoding="utf-8"?>
<!-- Generator: Adobe Illustrator 25.0.0, SVG Export Plug-In . SVG Version: 6.00 Build 0)  -->
<svg version="1.1" id="Layer_1" xmlns="http://www.w3.org/2000/svg" xmlns:xlink="http://www.w3.org/1999/xlink" x="0px" y="0px"
	 viewBox="0 0 631.3 622.2" style="enable-background:new 0 0 631.3 622.2;" xml:space="preserve">
<style type="text/css">
	.st0{fill:#1A0A2D;}
</style>
<g id="Layer_2_1_">
	<g id="Layer_1-2">
		<g id="Oval">
			<path class="st0" d="M315.6,622.2c-84.3,0-163.5-32.3-223.2-91.1C32.8,472.4,0,394.2,0,311.1s32.8-161.3,92.5-220
				C152.1,32.3,231.3,0,315.6,0s163.5,32.3,223.2,91.1c59.6,58.8,92.5,136.9,92.5,220s-32.8,161.3-92.5,220
				C479.2,589.9,399.9,622.2,315.6,622.2z M315.6,14.2c-80.5,0-156.2,30.9-213.2,87c-56.9,56.1-88.2,130.6-88.2,209.9
				S45.6,464.9,102.5,521c56.9,56.1,132.6,87,213.2,87c80.5,0,156.2-30.9,213.2-87c56.9-56.1,88.2-130.6,88.2-209.9
				s-31.3-153.8-88.2-209.9C471.9,45.1,396.2,14.2,315.6,14.2z"/>
		</g>
		<g>
			<path class="st0" d="M482.6,448.4H248c-1.1,0-2.2-0.3-3.2-0.9l-84.8-52.3c-2.8-1.7-3.8-5.4-2.1-8.2c1.1-1.8,3.1-3,5.3-2.9h234.6
				c1.1,0,2.2,0.3,3.2,0.9l84.8,52.3c2.8,1.7,3.8,5.4,2.1,8.2C486.8,447.3,484.8,448.4,482.6,448.4L482.6,448.4z M249.7,436.3h211.7
				L396.2,396H184.5L249.7,436.3z"/>
		</g>
		<g>
			<path class="st0" d="M468,238.2H233.4c-1.1,0-2.2-0.3-3.2-0.9L145.5,185c-2.9-1.7-3.8-5.4-2.1-8.2c1.1-1.9,3.1-3,5.3-2.9h234.6
				c1.1,0,2.2,0.3,3.2,0.9l84.8,52.3c2.9,1.7,3.8,5.4,2.1,8.2C472.2,237.2,470.2,238.3,468,238.2L468,238.2z M235.1,226.2h211.7
				l-65.2-40.3H169.9L235.1,226.2z"/>
		</g>
		<g>
			<path class="st0" d="M348,284.9c-6.9-6.8-16.2-10.6-25.8-10.6h-0.4c-20.4,1.2-36,18.6-34.8,39c1.1,18.9,16.3,34,35.2,34.9h0.4
				c20.4-0.2,36.8-16.9,36.6-37.3C359,301.2,355,291.8,348,284.9z"/>
		</g>
	</g>
</g>
</svg>
