<svg id="kintsugi_icon" data-name="kintsugi icon" xmlns="http://www.w3.org/2000/svg" xmlns:xlink="http://www.w3.org/1999/xlink" viewBox="0 0 500 500"><defs><style>.cls-1{fill:#041333;}.cls-2{fill:url(#New_Gradient_Swatch_15);}.cls-3{fill:#dadada;}</style><linearGradient id="New_Gradient_Swatch_15" x1="252.33" y1="349.75" x2="252.33" y2="149.25" gradientUnits="userSpaceOnUse"><stop offset="0" stop-color="#603211"/><stop offset="0.17" stop-color="#dd7d26"/><stop offset="0.35" stop-color="#603211"/><stop offset="0.54" stop-color="#9c3520"/><stop offset="0.77" stop-color="#dd7d26"/><stop offset="1" stop-color="#603211"/></linearGradient></defs><rect class="cls-1" x="-943.1" y="-540.63" width="2388.09" height="1581.27"/><path class="cls-2" d="M322.5,177.91a99.59,99.59,0,0,0-70.12-28.66c-.34,0-.7,0-1,0a100.24,100.24,0,0,0,1,200.48l1,0A100.23,100.23,0,0,0,322.5,177.91Z"/><path class="cls-3" d="M295.13,165.79c-11.75-3-21.19-.56-28.86,7.32a36.23,36.23,0,0,0-2.66,3.15c-2,2.53-3.7,4.72-7.58,5.62a51.4,51.4,0,0,1-15.89.66c-1.52-.23-2.79-.51-3.91-.77-3.95-.9-6.34-1.44-11.07,3.06a34.81,34.81,0,0,0-4,4.87c-2.1,2.89-4.08,5.62-7.33,6.87a16.61,16.61,0,0,1-4.69,1l-.43-.19-.1.21a39,39,0,0,1-6.87-.44,46.1,46.1,0,0,0-5.4-.48,77.5,77.5,0,0,0,6.43-11.31c3.31-.51,6.13-2.68,8.86-4.81a35.68,35.68,0,0,1,4.58-3.2c5.47-3,8.12-5.55,12.87-10.76,4.5-4.93,9.34-8,15.2-11.09a21.47,21.47,0,0,0,7.45-6.29c19.57.14,37.89,4.71,54,15.35C304,165.64,300.39,167.11,295.13,165.79Z"/><path class="cls-3" d="M349.46,235.53a27,27,0,0,1-4-1.94A19,19,0,0,0,339,231l-5.85-2.87c-9.22-1.59-13-.39-22.31-3a41.17,41.17,0,0,0-13.31-1.65l-.23-.19-.17.21c-3.19.14-6.4.59-10,1.09l-2.47.35c-1,.13-2.12.31-3.39.51-7.93,1.25-21.22,3.35-25.83-1.82l-.26.24a46,46,0,0,0-23.32-6.37c-12.78,0-16.79-3.45-24.08-9.72-1.24-1.07-2.62-2.25-4.14-3.51.66,0,1.32,0,2,0A31.41,31.41,0,0,0,215.9,206a18.39,18.39,0,0,0,2-.1,8,8,0,0,0,4.82-2.32,18,18,0,0,1,1.82-1.39,8.22,8.22,0,0,1,4.68-1.14c.71,0,1.45-.06,2.25-.16,3.47-.43,5.91-2.37,8.27-4.25,2.19-1.74,4.26-3.39,7.07-3.84.7-.12,1.41-.17,2.15-.23a11.37,11.37,0,0,0,5.36-1.3,13.25,13.25,0,0,0,2.44-2,9.35,9.35,0,0,1,3-2.3h0c3.7-1.27,5.35-4.32,7.33-6.85.88-1.12,5-1.72,6.11-2.85,8.33-8.57,15-11.62,27.76-8.39,6.5,1.63,9,1.93,11.18.34a100.22,100.22,0,0,1,39.53,67A18.33,18.33,0,0,1,349.46,235.53Z"/><path class="cls-3" d="M222.6,322.16a9.63,9.63,0,0,1-.18-1.89,23.21,23.21,0,0,0-.49-4.38c-.69-3.36-1.65-4-2.86-4.87a9.12,9.12,0,0,1-2.58-2.51,19.58,19.58,0,0,1-2.61-6l-.09-.28a30.83,30.83,0,0,0,2.72,1.52c.45.23,1,.55,1.7.91,2.59,1.4,6.15,3.34,7.95,3.18a6.17,6.17,0,0,0,3.94-2.24c.84-.84,3.55.75,4.71.54,2.13-.38,4.6-1,7.8.31,1.35.55,2.52,1,3.41,1.31,1.67.52,3.37,1.24,5,1.92a36.35,36.35,0,0,0,8.47,2.77,33,33,0,0,0,4.92.3,17,17,0,0,1,8.78,1.86c6.27,3.13,7.62,3.38,14.46,2.71,5.13-.51,11.65-1,16.62-.19,4.7.76,9,2.95,13.19,5.68,0,.42.63,1.84.67,2.25a93.8,93.8,0,0,1-63.61,24.7c-2.07,0-4.12-.08-6.15-.22a21.56,21.56,0,0,0-3.07-2.72,18.31,18.31,0,0,0-4.23-1.92c-1.94-.7-4-1.42-5.08-2.65-1.56-1.72-1.39-3.64-1.23-5.5a7,7,0,0,0-.31-3.75c-.92-1.9-2.93-3.07-5.06-4.3a23,23,0,0,1-3.58-2.38,12.55,12.55,0,0,1-2.82-3.1h0C223.11,322.9,222.6,322.16,222.6,322.16Z"/><path class="cls-3" d="M197.93,170.36a31.44,31.44,0,0,0,.41,7.62c.46,3.33.89,6.48-.38,10.07l-.13.36h-.12v.26c-1.68,4.3-5.62,10.39-7.49,13.17-4.24-.57-6.2-3.73-8.28-7.07a22.85,22.85,0,0,0-4.8-6.05,26.3,26.3,0,0,0-3-2,100.83,100.83,0,0,1,25.61-22.61A19.44,19.44,0,0,0,197.93,170.36Z"/><path class="cls-3" d="M323.34,319.2c-.15-2-.25-4.1-.27-6.2-.11-11-.63-14.61-8-20.79h0c-5.67-4.78-12.21-7.14-14.3-14.27-1.15-3.94-1.18-9-1.21-14.28,0-2.33,0-4.68-.14-7a29.15,29.15,0,0,1,2.43-6.53c1.24-2.7,3.24-5.5,2.82-8.44-.35-2.46,0-.69-1.07-4-.94-2.91-2.7-4.54-4.79-6.23a39.77,39.77,0,0,1,11.66,1.64c9.34,2.67,18.08-.82,27.34.77l.93.16a18.13,18.13,0,0,1,6.15,2.46,27.13,27.13,0,0,0,4.11,2,18.47,18.47,0,0,0,2.83.76,70.87,70.87,0,0,1,.75,10.25A99.94,99.94,0,0,1,324,319.63Z"/><path class="cls-3" d="M163,278.86c.87.3,1.72.59,2.5.89a43.91,43.91,0,0,1,9.88,4.82c3.25,2.23,5.79,4.44,7.65,8,2,3.81,3.49,6.27,7.52,8.38l1.2.63c4.95,2.57,8.52,4.43,11.11,9.44,1.57,3,4.42,4.29,7.17,5.5a26.14,26.14,0,0,1,4.3,2.22l.55.38,1,.66c.43,1.36,1.41,2.66,3.82,4.77a26.53,26.53,0,0,0,4.15,2.77c2.21,1.29,4.3,2.5,5.18,4.3a7,7,0,0,1,.24,3.58c-.19,2.2-.42,4.69,1.65,7,1.43,1.58,3.8,2.43,6.09,3.25a19.27,19.27,0,0,1,4.43,2,21.41,21.41,0,0,1,2.36,2,100.34,100.34,0,0,1-88.38-74.12C157.51,277,160.43,278,163,278.86Z"/><path class="cls-3" d="M179,197.37c1.72,2.76,3.49,5.58,6.61,6.91-2.86.49-3.78-.3-6.79,2.26-1.6,1.36-5.06,1.13-6.51,2.68-2.47,2.62-3.05,7.17-6.18,8.81a70,70,0,0,1-10.3,4.19c3.6-12.76,8-22.3,16-32.45a19.41,19.41,0,0,1,2.67,1.83A21.83,21.83,0,0,1,179,197.37Z"/><path class="cls-3" d="M305.75,292.73l.67.56c6.51,5.47,8.27,6.95,8.36,16.42,0,1.65.08,3.28.19,4.9-4.08-2.58-8.35-4.7-12.94-5.43-5.09-.82-11.69-.34-16.88.17-6.64.66-5.21-1.11-11.31-4.16-3.89-1.94-9.08-.4-11.83-.41a32,32,0,0,1-4.77-.29,35.4,35.4,0,0,1-8.23-2.7c-1.66-.69-.94-2.07-2.66-2.61-.85-.27-4.44-.08-5.78-.62-3.49-1.42-7.85-3.18-10.26-2.75a6.29,6.29,0,0,0-3.32,2.11,5.29,5.29,0,0,1-3.32,2c-1.51.11-5-1.8-7.39-3.07-.68-.37-1.28-.69-1.74-.92a31.83,31.83,0,0,1-3.64-2.13c0-.08-.05-.18-.08-.26l-.2.07a71.18,71.18,0,0,1-7.79-6.46A44.94,44.94,0,0,0,185.46,277c4.08-.56,7.49-2.51,11-4.54a42,42,0,0,1,9.34-4.39c4-1.18,8.58-1.2,13-1.23,4.68,0,9.52-.05,13.75-1.45,4.4-1.46,7.71-4.63,10.92-7.7,3.38-3.24,7.57-3.74,12.33-5,3.8-1,8.62-4.19,14.45-4.55,7.24-.43,14.71-.89,19.47-2.71,2.72,3.43,3.53,8.28,3.79,13.45a.14.14,0,0,1,0,.06h0c.1,2.08.12,4.2.13,6.31,0,4.86.06,9.45,1.14,13.13C296.72,285.14,300.71,288.49,305.75,292.73Z"/><path class="cls-3" d="M154.8,272.87a90.4,90.4,0,0,1-2.73-22.1,100.21,100.21,0,0,1,2.43-23.36,73.19,73.19,0,0,0,10.69-4.08c3-1.55,5.31-2.06,7.59-4.48a51.88,51.88,0,0,1,4-4c5.57-4.73,10.65-4.09,16-3.4,1.28.17,2.58.32,3.9.41,1.79,1.44,3.36.79,4.75,2,6.52,5.61,10.41,11.33,22.29,11.33,8.62,0,15.33.09,22.14,4.18.18.12.36.23.56.34,1.77,1.08,3.56,2.28,5.4,3.58l1.16.83c3.81,2.72,7.41,5.3,12.41,6.11a28.42,28.42,0,0,0,5.16.22c3.27-.06,6.13-.12,8.61,2.42-4.63,1.65-11.84,2.09-18.83,2.51-5.88.36-11.44.7-15.33,1.72-5,1.33-8.61,4.77-12.09,8.1-3.27,3.13-6.35,6.08-10.54,7.47s-8.84,1.38-13.44,1.4-9.1.06-13.26,1.27a42.86,42.86,0,0,0-9.55,4.48c-4.28,2.47-8.38,4.82-13.77,4.53-1.55-.37-3.11-.65-4.68-.88l-.44-.13,0,.07A78,78,0,0,0,154.8,272.87Z"/><path class="cls-3" d="M105,143.13a257.07,257.07,0,0,1-29.38-1.46c-20.23-2.39-30.73-7.46-33-16-3.65-13.39,15.83-24.65,30.81-32,57-27.8,182-56.65,278.67-64.31,29.89-2.37,55-2.52,72.72-.44,20.23,2.39,30.73,7.46,33,16,3.65,13.39-15.83,24.65-30.81,32-57,27.8-182,56.65-278.67,64.31C132.43,142.5,117.85,143.13,105,143.13ZM395.15,39.54c-11.49,0-25.38.53-42.13,1.86C257.6,49,134.52,77.29,78.66,104.54c-24,11.71-24.51,18-24.49,18,.79,2.92,19,12.61,93.24,6.72,95.42-7.56,218.5-35.89,274.36-63.14,24-11.71,24.51-17.95,24.49-18C445.64,45.86,434.61,39.54,395.15,39.54Z"/><path class="cls-3" d="M104.59,472.46A257.19,257.19,0,0,1,75.21,471c-20.23-2.39-30.73-7.46-33-16C38.51,441.65,58,430.39,73,423.08c57-27.8,182-56.65,278.67-64.31,29.89-2.37,55-2.52,72.72-.44,20.23,2.39,30.73,7.46,33.05,16,3.65,13.39-15.83,24.65-30.81,32-57,27.8-182,56.65-278.67,64.31C132,471.82,117.42,472.46,104.59,472.46ZM394.72,368.87c-11.49,0-25.38.53-42.13,1.86-95.42,7.56-218.5,35.89-274.36,63.14-24,11.71-24.51,17.95-24.49,18,.8,2.92,18.95,12.61,93.24,6.72,95.42-7.57,218.5-35.89,274.36-63.14,24-11.71,24.51-18,24.49-18C445.21,375.19,434.18,368.87,394.72,368.87Z"/></svg>