<svg width="250" height="250" version="1.1" viewBox="0 0 250 250" xmlns="http://www.w3.org/2000/svg">
	<path d="m7.25e-4 4.3e-4c-7.3e-4 0-1e-3 250-1e-3 250 0 7.3e-4 250-4e-3 250-4e-3 3e-3 0 3e-3 -250 3e-3 -250-7.1e-4 -1e-3 -0.0019-2e-3 -0.00337-2e-3z" fill="#decff1"/>
	<path d="m161.4 64.9-16.43 27.76 18.54 32.12 0.2334-0.3612 16.94-28.87-15.28-26.46c-0.9965-1.726-2.385-3.135-3.999-4.189z" fill="#b5f1b1" />
	<path d="m180.9 96.13c-11.77 20.13-23.64 40.21-35.43 60.33 0.1644 0.164 0.358-0.2034 0.5334-0.2239 26.79-16.45 44.64-27.43 49.66-30.7 0.0918-2.108-0.3519-4.223-1.328-6.157-4.481-7.749-8.951-15.5-13.43-23.25z" fill="#00a9e0" />
	<path d="m195.6 126.4c-16.91 10.2-33.55 20.84-50.44 31.07 5.322 9.261 10.61 18.54 16.01 27.76 1.399-0.8813 2.617-2.04 3.583-3.428 4.734-8.134 9.461-16.27 14.18-24.42l15.08-26.13c0.8755-1.517 1.394-3.173 1.582-4.857z" fill="#00a9e0" />
	<path d="m105.8 157.8 0.3264 0.5577c5.527 9.591 11.02 19.2 16.54 28.79 0.9919 0.0157 1.984 0.0243 2.976 0.0346h24.24c1.571-5e-3 3.141 0 4.711 0 2.176 0 4.268-0.5775 6.101-1.608-1.811-3.193-12.08-21.01-15.95-27.74z" fill="#137D97" />
	<g fill="#294940">
		<path d="m96.07 141.9c-8.493 4.89-17.08 9.778-25.53 14.75l14.03 24.3c2.23 3.863 6.352 6.243 10.81 6.243h26.6l-0.0708-0.1362c-8.621-15.05-17.2-30.11-25.84-45.14z" />
		<path d="m69.08 95.92-0.0285 0.04975-13.16 22.79c-2.23 3.863-2.23 8.623 0 12.49l14.32 24.81c0.1318-0.0569 25.55-14.71 25.55-14.71l-0.01795-0.0297z" />
		<path d="m122.8 62.85-27.57 0.0097c-4.407 0.04975-8.467 2.41-10.67 6.232l-15.16 26.25 17.13 29.29c0.0049-9e-3 0.0066-0.0103 0.01163-0.0189l18.64-32.29h0.3242c10.28-17.51 17.29-29.48 17.29-29.48z" />
	</g>
	<path d="m123.5 62.85-17.2 29.34-0.0845 0.1436h38.05l16.33-27.92c-1.816-1.002-3.878-1.565-6.024-1.565z" fill="#b5f1b1" />
</svg>
