<svg width="64" height="64" viewBox="0 0 64 64" fill="none" xmlns="http://www.w3.org/2000/svg">
<rect width="64" height="64" rx="32" fill="#7AEAD7"/>
<path d="M36.75 41.4507C36.6251 41.4814 36.6562 41.604 36.7812 41.5733C36.6562 41.604 36.6562 41.7572 36.7812 41.7265H36.8125C36.7812 41.7572 36.8125 41.8184 36.875 41.8184C36.875 41.8797 36.9063 41.941 36.9063 41.941C36.9688 41.941 37 41.9103 37 41.8797C37.0313 41.849 37.0938 41.849 37.125 41.8797C37.1875 41.8797 37.25 41.8797 37.25 41.9715C37.3438 41.9715 37.375 42.0328 37.4063 42.0635C37.5626 42.186 37.5938 42.3698 37.6563 42.5536L37.6251 42.5843C37.6251 42.5843 37.6876 42.7068 37.8126 42.7988C37.9062 43.1051 38.0938 43.2582 38.3438 43.4114C38.4063 43.5033 38.5626 43.6259 38.6876 43.7484L38.6563 43.6564V43.5646C38.7501 43.6259 38.8438 43.6871 38.9376 43.779C38.9687 43.779 39.0001 43.7484 39.0001 43.7484C39.0625 43.8097 39.0939 43.9016 39.1563 43.9322C39.1875 43.9322 39.2188 43.9322 39.25 43.9016C39.4688 44.1467 39.5313 44.4837 39.7188 44.698C39.8751 44.8512 40.25 45.0657 40.4063 45.3108C40.5938 45.5558 40.9376 45.6478 41.1251 45.8928C41.1876 45.8009 41.2187 45.9234 41.2812 45.8928C41.2812 45.9234 41.2812 45.9847 41.3126 45.9847L41.5625 46.0766C41.5 46.0459 41.4689 45.9847 41.4375 45.9541C41.9063 46.2604 42.3437 46.628 42.8125 46.965C44.0313 47.976 45.2188 49.1401 46.4375 50.1817C46.4063 50.0897 46.4063 50.0285 46.4688 49.9978C46.6563 50.151 46.9376 50.488 47.125 50.5186C46.6251 49.9978 46.0625 49.5077 45.8751 48.8949C46.0625 48.9256 46.1563 48.9256 46.3125 49.0481C46.25 49.0788 46.2188 49.1094 46.2188 49.1707C46.3438 49.0788 46.375 49.1707 46.4063 49.2014C47.25 50.1204 48.1251 50.9781 49.0313 51.8053C48.5313 51.0394 47.7501 50.58 47.3438 49.8447C48.0938 50.488 48.8438 51.1313 49.5314 51.8972L50.3438 52.7243C50.3438 52.6324 50.3751 52.5712 50.3751 52.5099L49.5314 51.6214C49.2501 51.3458 48.9063 51.0394 48.7188 50.7637C48.4688 50.3655 48.3439 49.9672 47.9376 49.7222C47.9376 49.814 48.0626 49.9365 48.0001 49.9978C47.4375 49.4771 46.7501 48.8949 46.375 48.2516C46.4375 48.1903 46.5313 48.4048 46.5313 48.2823C46.3438 48.1598 46.1875 47.9147 46.0625 47.639C45.9689 47.639 46.0625 47.7615 45.9376 47.7003C45.5938 47.2407 44.9688 46.9957 44.7187 46.4136C44.8125 46.4442 44.9064 46.4749 45.0313 46.4749C45.1875 46.5054 44.125 46.1072 44.2813 45.6478C44.4376 45.2801 44.5001 45.9234 45.0625 46.0459C45.2813 46.0766 45.25 45.8928 45.3438 45.8009C46.2188 46.628 46.9376 47.302 47.25 47.547V47.4552C47.1564 47.302 47.0312 47.2714 47.0312 47.1182L47.0626 47.0262C47.625 47.6696 48.7188 49.2014 49.625 49.2932C49.5314 49.2014 49.4689 49.1401 49.4689 49.0176C49.5 48.8644 49.5938 48.8949 49.75 48.8949C49.5938 48.8031 49.5 48.7724 49.3437 48.7724V48.8949C49.1563 48.8644 48.9376 48.8337 48.8438 48.6193C48.9376 48.6193 49.0938 48.6193 49.1251 48.4968C48.8751 48.4968 48.7188 48.4661 48.5625 48.221C48.6563 48.1598 48.75 48.1598 48.8126 48.1598C48.8126 48.0678 48.8126 48.0678 48.75 47.976C48.6563 47.9147 48.4375 47.639 48.375 47.639C48.2814 47.547 48.1562 47.4858 48.1562 47.4858L48.0313 47.5165L47.9688 47.21C47.8126 47.2714 47.9063 47.4552 47.7501 47.5165L47.1875 46.9037V46.6587C47.1875 46.5054 47.3438 46.5667 47.375 46.5667C47.3438 46.8119 47.0939 46.7506 47.5625 47.0262L47.5938 46.8425C47.5938 46.5361 47.2189 46.5054 47.2189 46.2604H47.1875C47.1875 46.2298 47.2189 46.1686 47.2189 46.1379C47.1564 46.1686 47.125 46.1072 47.0626 46.0766C47.0312 46.0766 47.0312 46.0766 47.0001 46.0459H46.9687V45.9234C46.6876 45.9234 46.5938 45.6478 46.4688 45.4946C46.1875 45.0657 45.8437 44.6368 45.4376 44.2998C45.4063 44.1772 45.25 43.9934 44.9375 43.6259C44.7812 43.4726 46.0314 44.3917 45.9689 44.2692C45.7188 43.8709 47.7188 44.2998 47.7188 44.2998L47.1564 43.8709C47.2813 43.8402 47.125 43.3501 47.125 43.2889V43.1969L46.9687 43.3194V43.2276L46.7501 43.3808H46.7188C46.7188 43.1969 46.7813 43.0744 46.9063 42.9826H46.8751C46.7501 42.9826 46.7188 42.8293 46.8438 42.8293C46.9063 42.8293 46.9376 42.9213 46.9063 42.9519L47.0939 42.86L47.125 43.0438H47.25C47.25 43.1663 47.3125 43.2582 47.4063 43.4421H47.2813L47.375 43.8097C47.5313 43.8097 47.5313 43.4421 47.5 43.2889C47.5 43.0438 47.4063 42.9519 47.375 42.7068H47.4688V42.6455H47.3438L46.9687 42.4923L46.8438 42.5843C46.8438 42.4311 46.7188 42.4311 46.6876 42.4311C46.4688 42.4311 46.4375 42.4311 46.4375 42.5843L46.4688 42.6761L46.4375 42.7374C46.4375 42.7374 46.2813 42.7068 46.1875 42.6149L46.0938 42.523L46.1875 42.3698C46.1875 42.4618 46.2813 42.4618 46.3438 42.4618L46.3125 42.278H46.4063C46.4375 42.2473 46.4375 42.0328 46.4375 41.941C46.4375 41.941 46.4063 41.8184 46.3125 41.8184H46.25L46.2188 41.5733C46.2188 41.5733 46.375 41.7265 46.4063 41.6959L46.6251 41.604C46.4063 41.4202 46.2188 41.4814 45.9689 41.4814C45.9689 41.3282 46.0314 41.3282 46 41.2057C45.9062 41.0525 45.8126 40.9912 45.6876 40.9912C45.6876 41.0219 45.7501 41.2364 45.8751 41.2364C45.7188 41.3589 45.6251 41.4814 45.5626 41.604L45.4688 41.512L45.3125 41.604L45.2188 41.6345H45.125C45.4688 41.4814 45.6251 41.3589 45.5938 40.9912C45.4376 40.9912 45.0938 40.8994 45.0313 40.8687L45 40.6236L44.6562 40.6543V40.4399L44.8439 40.4092V40.3786C44.7501 40.2866 44.5938 40.2561 44.5938 40.2561L44.2501 40.4092C44.2501 40.4092 44.2188 40.4092 44.1563 40.4399C44.3126 40.3786 44.2188 40.1641 44.3751 40.1641V40.0723C44.3751 39.9803 44.3438 39.8884 44.3126 39.8271C44.3751 39.7965 44.3438 39.674 44.3126 39.674C44.2501 39.674 44.2501 39.7046 44.2501 39.7353C44.0313 39.5821 43.6875 39.674 43.6564 39.3063L43.5001 39.429C43.2501 39.429 43.0313 39.092 43 38.9387L42.875 38.9694C42.875 38.8162 42.9688 38.6017 42.7188 38.6324C42.7188 38.5712 42.6875 38.4792 42.8438 38.4792C42.8438 38.4486 42.7813 38.3261 42.6875 38.3261L42.5314 38.4792C42.5939 38.3261 42.4376 38.3261 42.4376 38.2035H42.5939V38.0809H42.5625C42.5625 37.9584 42.6563 37.8972 42.5625 37.7134C42.3437 37.6214 42.2188 37.7134 42.1563 37.8359L42.0938 37.8666L41.9063 37.7439H42.0938V37.6214C42.0001 37.5908 41.8125 37.3764 41.8125 37.3764L41.6563 37.5296L41.4688 37.3764L41.625 37.2845L41.5625 37.1006C41.6563 37.0394 41.7188 36.9781 41.6875 36.8863C41.6563 36.7025 41.2187 36.733 41.2812 37.0394C41.1251 36.9781 40.5313 36.4573 40.4688 36.396C40.375 36.3042 40.1562 36.059 40.1875 35.9672C40.2187 35.9672 40.25 35.9978 40.2814 35.9978H40.3125C40.3125 36.0285 40.375 36.059 40.4063 36.1204L40.4375 36.151L40.5625 36.3042C40.5313 36.3348 40.5313 36.396 40.5625 36.4573C40.5938 36.488 40.6875 36.488 40.75 36.4573C40.8438 36.5493 40.9063 36.5798 40.9063 36.5493C40.9063 36.5186 40.8751 36.488 40.8126 36.4267C40.8438 36.4267 40.8751 36.396 40.9063 36.3655C40.8751 36.1817 40.7188 36.151 40.625 36.2429L40.5625 36.1817C40.6563 36.151 40.7188 35.9672 40.625 35.9059C40.5313 35.8752 40.4375 35.9365 40.4063 36.0285C40.375 35.9978 40.3438 35.9978 40.3438 35.9672C40.5 35.9365 40.5 35.8752 40.6875 35.814C40.75 35.7527 40.7813 35.6915 40.8126 35.6302C40.8126 35.7222 40.8751 35.7222 40.8751 35.6302C40.8751 35.5996 40.8438 35.5689 40.8438 35.5689V35.5077V35.4464C40.8438 35.1094 40.4375 34.8949 40.0313 34.9256C40.0001 35.0176 40.0313 35.1094 40.0313 35.2319H40.0001C39.9688 35.1707 39.9063 35.1401 39.8751 35.1094L40.0313 34.8949C40.1562 34.8949 40.1875 34.8949 40.2814 34.7724H40.1562L40.0626 34.8337C40.1251 34.7111 40.1562 34.5886 40.1251 34.4355C39.8438 34.3741 39.3438 34.6499 39.2188 34.9869L38.7188 34.558C38.7813 34.558 38.8438 34.5274 38.8751 34.4661C38.9376 34.4661 38.9376 34.4355 38.9376 34.4048C38.9687 34.3436 38.9687 34.2823 38.9687 34.221H39.375C39.3438 33.976 38.9376 33.976 39.0312 33.8228L38.5313 33.4245C38.5938 33.3327 38.5626 33.21 38.4375 33.0875C38.3438 33.0875 38.2813 33.1182 38.2188 33.1488C37.6876 32.6892 37.0625 32.1991 37 32.2604L36.2188 31.5251L36.0625 31.5558C35.8438 31.5558 35.6562 30.6675 35.2501 30.9431L35.0625 30.7593C35.9688 29.5646 36.875 28.3698 37.7187 27.1751C37.7812 27.1751 37.875 27.1444 37.9689 27.0525C37.9375 26.8994 38 26.7769 37.9689 26.6236C38.125 26.4092 38.25 26.2254 38.2813 26.1028L37.8437 26.6543C37.7188 26.6543 37.6251 26.5317 37.4688 26.6543C37.375 26.7462 37.375 26.9606 37.5001 27.0832C36.9688 27.6652 36.4688 28.2473 35.875 28.6761C35.9063 28.4618 35.875 28.3698 36.0938 28.0941C36.125 28.1248 36.1875 28.1248 36.2501 28.0941C36.125 28.0328 36.2501 27.941 36.3126 27.8797L37.8126 26.0416C37.9375 26.1028 38.0625 26.1028 38.125 26.1028C38.2188 25.9496 38.1875 25.7965 38.125 25.6433L38.5626 25.1225C38.5626 25.2757 38.6876 25.4288 38.8126 25.5208C38.7188 25.6127 38.5938 25.7046 38.5626 25.7965C38.6876 25.674 38.8126 25.5821 38.8751 25.674C38.9062 25.7965 38.7188 25.9496 38.6563 26.0723C38.8751 25.8884 39.0625 25.674 39.2188 25.4902C39.2813 25.4288 39.3438 25.3676 39.375 25.2757C39.6876 24.8775 39.9376 24.5099 40.2187 24.1116C39.7501 24.4792 39.625 24.7855 39.375 25.1225C39.3438 25.0307 39.2813 24.9387 39.1875 24.908C39.625 24.5405 40.0312 24.1116 40.2187 23.7134L40.0313 23.8972C40.0313 23.7439 39.8751 23.5908 39.7188 23.6214L40.0937 23.1007C39.25 23.8972 38.6876 24.7855 38 25.5515C37.9689 25.5208 37.9062 25.4902 37.875 25.4902C38.25 24.9387 38.6876 24.3874 39.0939 23.8359C39.1563 23.8359 39.1875 23.8053 39.2188 23.7439V23.7134L40.25 22.4267L41.0001 21.477C41.0626 21.5996 41.2501 21.6608 41.3126 21.4464C41.3126 21.4158 41.2187 21.3545 41.1563 21.3239L41.2187 21.232V21.3545C41.375 21.1707 41.7188 20.9256 41.7813 20.6805L41.2501 21.2013C41.4688 20.9256 41.6875 20.6499 41.9375 20.4048C41.9375 20.4355 41.9375 20.4967 41.9688 20.4967C42.0626 20.4967 42.0938 20.3742 42.0001 20.3435C42.1251 20.1904 42.2501 20.0678 42.3751 19.9759C42.875 19.0263 43.7813 18.1379 44.6562 17.1269C45.4063 16.2998 46.0938 15.2888 46.8438 14.3698L48.5313 12.2867C48.6875 12.1028 49.1876 11.5208 48.9688 11.7659C45.8437 15.3501 42.75 19.0569 39.8438 22.6105C39.8438 22.6105 39.8126 22.6411 39.8126 22.6718C39.6563 22.5799 39.5625 22.5799 39.4688 22.7024C39.4688 22.8249 39.5313 22.8862 39.625 22.8862L39.3438 23.2538C39.3125 23.2232 39.25 23.2232 39.2188 23.2538C39.25 23.2845 39.25 23.3151 39.25 23.3457L39.125 23.5296C39.0625 23.4989 39.0001 23.4989 38.9376 23.4989C38.8438 23.5908 38.8751 23.7134 38.9376 23.7746L38.5626 24.1729C38.2188 24.5099 37.875 24.7855 37.5938 25.0613C37.6876 24.908 37.7501 24.7243 37.7812 24.5099C37.9062 23.6521 38.5 23.07 39.125 22.5186C39.2813 22.3961 39.5 22.2429 39.5 21.9672C39.4375 21.9365 39.4375 21.814 39.5313 21.814C39.5938 21.814 39.625 21.814 39.625 21.8753C39.6563 21.814 39.6876 21.7834 39.6563 21.7221H39.7813V21.6915H39.7501C39.7501 21.6915 39.7813 21.6608 39.8126 21.6608C39.9063 21.5996 39.9376 21.477 39.9376 21.3851C39.9688 21.3545 39.9376 21.2932 39.9063 21.2626C39.9688 21.2626 40.0937 21.1707 40.2187 21.0788C40.25 21.0481 40.2814 21.0481 40.2814 21.0175C40.375 21.1707 40.5625 21.232 40.7188 21.0788C40.7188 20.9869 40.6563 20.895 40.5313 20.8031C40.7188 20.6193 40.8751 20.4661 40.8751 20.3742C40.8438 20.221 41.0313 20.3129 41.1563 20.0678H40.8438L41.0001 19.9147C41.2501 19.8228 41.2187 19.6696 41.375 19.5471L41.2812 19.4858V19.3939L41.375 19.302C41.5313 19.2407 41.6875 18.9037 41.6875 18.9037L41.8438 18.965C41.8438 18.8731 41.875 18.8425 42.0001 18.7199C41.875 18.5974 41.875 18.628 41.8438 18.628C41.8125 18.3829 42.0626 18.3523 42.3126 18.3523L42.0626 18.2298C42.0938 17.9541 42.3126 17.7702 42.4687 17.5864C42.4687 17.6783 42.5625 17.6783 42.5625 17.5864C42.5625 17.5558 42.5314 17.5252 42.5 17.5558C42.5939 17.4026 42.6875 17.2801 42.6875 17.0963L42.2813 17.4639C42.2813 17.2188 42.4062 16.9431 42.3751 16.698C42.1251 16.7287 41.0001 18.1685 40.9063 18.4442H41.0626C40.9376 18.6586 40.375 18.965 40.4063 19.2101H40.625C40.4688 19.302 40.2187 19.3632 40.0626 19.3939V19.3326C40.0312 19.0875 40.1875 18.965 40.375 18.965C40.375 18.9344 40.2814 18.8118 40.2814 18.8118C40.375 18.8118 40.4375 18.7506 40.5313 18.628C40.5625 18.6586 40.5625 18.6893 40.5938 18.6893C40.6563 18.6893 40.6563 18.5667 40.625 18.5055C40.7813 18.3217 40.9063 18.1072 41.0313 18.0153L40.5625 18.0459C41.0313 17.9847 42.0001 17.2188 41.9688 16.7287C41.9688 16.5755 41.625 16.6061 41.625 16.361L41.5938 16.2692C41.5938 16.2079 42.0626 15.5952 42.0626 15.5339L41.9063 15.5952V15.5339C41.875 15.1663 42.9375 14.4923 42.9063 14.0635L42.1563 14.9212H42.1251C42.1251 14.9519 42.1251 15.1663 42.0313 15.1663H41.9063L41.875 15.0438C42.1251 14.9212 42.0938 14.6761 42.0938 14.4311V14.1247C42.0001 14.2779 41.6563 14.7987 41.5313 14.7987L40.5938 15.7484L40.5 15.779C40.5938 15.6565 41.0313 15.2276 41.0313 15.105C41.0313 15.0131 40.9688 14.9825 40.8751 14.9825C41.0313 14.8293 41.7188 14.0328 41.8438 13.8796L42.0626 13.6346C41.5938 13.7265 41.1876 14.3085 40.9376 14.6149H40.8438L40.9063 14.4923L41.2187 14.0635H41.1563C41.1563 14.0635 41.0001 14.3392 40.9376 14.2473L40.1562 15.0438L39.9688 15.0744C40.0626 15.0131 40.4375 14.6455 40.4375 14.523C40.4375 14.4004 40.3438 14.3698 40.2814 14.3698C40.4375 14.2166 40.5625 14.0022 40.6563 13.849C40.4063 14.0328 40.1251 14.3698 40.0626 14.7681L39.9688 14.7987C39.9063 14.7987 39.7188 14.9212 39.6563 15.0438V14.9212C39.4063 14.9519 39.3438 15.105 39.3438 15.3195C39.4375 15.3195 39.4375 15.4114 39.3438 15.442V15.3195C39.3125 15.3195 39.3125 15.442 39.3438 15.442V15.5646C39.0939 15.5646 39.1875 15.5952 39.0625 15.442L39.1563 15.1969V15.105H39.0312C39.0625 15.442 38.5938 16.361 38.0938 16.3917C38.125 16.453 38.2188 16.453 38.2813 16.453C38.25 16.5755 38.1563 16.6061 38.0938 16.6368C38.125 16.6674 38.125 16.7899 38.0625 16.7899C38 16.7899 37.9689 16.7287 38 16.698C37.9062 16.7287 37.8437 16.7899 37.9062 17.035L37.8126 16.9431L37.6876 17.0657L37.7501 17.1575V17.2188C37.5938 17.372 37.4063 17.4945 37.2813 17.6171L37.375 17.709C37.2813 17.9541 37.125 17.8315 36.9688 17.8315V17.6477C36.8125 17.6477 36.8125 17.8315 36.6251 17.8621H36.4688L36.8125 17.6477L36.5937 17.5252L37.0313 17.4026L37.0938 17.4945H37.1875L37.25 17.3107V17.2188L36.6876 17.2495C36.6876 17.2495 36.5313 17.5252 36.4376 17.4333L36.0625 17.8928L36.0313 17.5558L35.5312 18.0459C35.5625 17.9541 35.7188 17.8009 35.7188 17.709V17.6477H35.6875C35.6875 17.4026 36.4063 17.1269 36.1563 16.8818L37.0938 15.6565C36.9688 15.7177 36.8439 15.779 36.7812 15.8709C36.6562 15.9628 36.5626 16.0853 36.4688 16.2079V16.2385L36.3438 16.361C36.2501 16.5142 36.125 16.6368 36 16.7593V16.8206L35.9063 16.9125L35.9375 16.8206C35.875 16.9125 35.8125 16.9431 35.75 17.0044C35.875 17.0044 35.9063 17.1575 35.7813 17.1575C35.7188 17.1575 35.6875 17.0963 35.6875 17.0657L35.2813 17.3414C35.2188 17.4333 35.1251 17.5252 35.0313 17.5864C35.0313 17.6783 34.875 17.7702 34.875 17.9541V18.0153L35.0313 17.8315H35.0625C35.0313 17.9234 34.9688 18.0766 34.875 18.1072H34.7813L34.6875 18.0153C34.6875 17.9541 34.7188 17.8928 34.7188 17.8315C34.6875 17.9541 34.625 18.0766 34.5625 18.1685C34.5938 18.2298 34.6563 18.2604 34.7188 18.2604L34.5625 18.5055C34.4062 18.628 33.8438 19.302 33.7188 19.4245L33.6875 19.3326C33.9688 18.9344 34.2812 18.6586 34.5625 18.3523C33.4063 18.5667 33.5313 20.0985 32.7188 20.6193L32.8751 20.5886L32.4688 21.0175C32.3438 20.9256 31.5938 21.7527 31.4063 21.9978V21.9672C31.4688 21.7221 31.375 21.814 31.5625 21.7527C31.625 21.5996 31.7188 21.5996 31.7188 21.4464L31.625 21.477C30.5938 21.8446 31.0312 22.8556 30.25 23.6521C29.875 23.9891 28.8125 25.9191 28.5001 25.9191C27.1563 25.2145 25.6875 23.9891 25.0313 23.4683C24.75 23.2538 23.2188 22.0897 22.3438 22.1816V21.9672L22.1875 22.0285L22.25 21.814L22.0625 21.7221V21.9365L21.9688 21.9672C21.9063 21.9672 21.5313 21.7527 21.4375 21.7527C21.5313 21.5996 21.4688 21.5077 21.375 21.4464C21.4375 21.2013 21.5 21.0175 21.2813 20.895C20.9063 20.8337 20.875 21.0788 20.5625 21.0788C20.5313 21.14 20.5313 21.1707 20.5 21.1707L19.875 21.3545C19.9375 21.2932 19.9688 21.232 19.9688 21.1094C19.7813 20.9256 19.5313 21.2626 19.7188 21.4158C19.5938 21.4464 19.4375 21.477 19.25 21.477C18.875 21.5077 18.5938 21.7221 18.4063 21.9672C18.3125 21.9978 18.2813 22.0591 18.2188 22.0897C18.1875 21.9978 18.1875 21.9365 18.0938 21.9059C18.125 21.6915 18.2813 21.5996 18.3125 21.3851C18.0625 21.4158 17.9688 21.4158 17.6875 21.3545C17.7188 21.2626 17.6563 21.2013 17.5938 21.1707C17.5625 21.477 17.1563 21.6915 16.875 21.4464C16.625 21.5077 16.4063 21.5996 16.4063 21.814C16.4063 22.2429 17.0938 22.1204 17.2188 21.814C17.375 22.0897 17.7813 22.3654 18.1563 22.1816C18.1875 22.1816 18.1875 22.2123 18.2188 22.2429L17.9688 22.7331V22.6411C17.75 22.4573 17.4688 22.6411 17.375 22.8249C17.4688 23.0088 17.6875 23.0394 17.875 22.9781C17.75 23.2232 17.6563 23.3764 17.5 23.407C17.25 23.407 19.0938 24.2342 18.8438 24.2342C18.8438 24.4179 17.4063 23.407 17.4063 23.6521C17.4688 24.3874 15.5313 24.5712 16.25 26.9606L16.4375 27.4507C16.6875 27.5733 17.6875 28.2473 17.6875 28.4923C17.7188 28.9826 15.9375 27.6345 15.9375 27.9715L17.6563 29.1051L17.5625 29.1356C17.7188 29.1051 18.125 29.1051 18.25 29.3194C18.2188 29.1051 18.3125 29.0438 18.4688 29.0438C18.375 29.1969 18.5313 29.1969 18.5625 29.3194C18.6563 29.3194 18.8125 29.3194 18.8125 29.2889C20.625 30.1772 22.4063 31.2801 24.0938 32.3524C22.875 35.2626 15.5 41.9103 16.3438 43.2889C16.25 43.3194 16.1875 43.4114 16.0625 43.3808C16.0312 43.5033 15.9688 43.5952 15.875 43.6564C15.7813 43.9322 15.9688 44.1467 16.2188 44.116C16.2188 44.2079 16.2813 44.2998 16.2813 44.4223C16.0625 44.4223 16.0625 44.8205 16.3125 44.698C16.3438 44.361 16.875 44.4223 17.0625 44.1467C17.0938 44.0854 17.0938 43.9934 17.0313 43.9629C17.0938 43.9629 17.125 43.9322 17.1875 43.9322C17.1563 44.0547 17.25 44.1467 17.25 44.2998C17.2813 44.3304 17.3125 44.361 17.3438 44.361C17.3125 44.361 17.2813 44.361 17.2188 44.3917C17.0938 44.6368 17.3438 44.8205 17.4688 44.6062C17.4688 44.5142 17.4688 44.453 17.4063 44.3917C17.5313 44.453 17.625 44.3917 17.7813 44.3917V44.4223C17.8125 44.4223 17.8438 44.3917 17.875 44.3917H17.9375C18 44.3917 18.0313 44.453 18.0938 44.453C18.1563 44.453 18.2188 44.4223 18.2813 44.4223C18.2813 44.6368 18.3125 44.9738 18.5313 44.9125C18.5938 44.8512 18.625 44.79 18.6563 44.698C18.6563 44.8205 18.75 44.79 18.8438 44.7593C18.875 44.698 18.875 44.6062 18.8438 44.5142C18.75 44.5755 18.7188 44.6062 18.6563 44.5755V44.4223C18.5625 44.4223 18.5313 44.3917 18.4688 44.361C18.5313 44.3304 18.5938 44.2692 18.6563 44.2079L18.6875 44.4223C18.75 44.3917 18.9375 44.3917 18.9375 44.2385H18.8438L18.8125 44.1772L18.9063 44.0854V43.9934L18.8438 43.9322C18.875 43.9016 18.875 43.9016 18.875 43.8709H18.9063C18.9375 43.8097 18.9375 43.779 18.9063 43.7484C19.0313 43.7484 19.0625 43.8402 19.0625 43.9322C19.0625 44.1772 19 44.3917 19 44.5755C19.0938 44.5755 19.1875 44.4837 19.25 44.3917C19.3438 44.453 19.5 44.453 19.5 44.5449L19.4063 44.698H19.5L19.5938 44.6062C19.5938 44.6062 19.7188 44.453 19.875 44.2079C19.9063 44.2998 19.9375 44.361 20 44.361L19.9063 44.5142H19.875C19.8438 44.5142 19.8438 44.5449 19.8438 44.5755C19.7188 44.79 19.625 44.9431 19.625 44.9738L19.6875 45.1882C19.6875 45.2801 19.6563 45.3413 19.6563 45.4333C19.6563 45.4639 19.8125 45.6171 19.9063 45.5865L20.0625 45.5558V45.8009L20.0313 45.7703C20 45.8316 20.0313 45.8928 20.0625 45.8928C20.0938 45.8621 20.0938 45.8316 20.0938 45.8316C20.0938 45.7703 20.125 45.5865 20.3125 45.5865C20.3438 45.5865 20.4688 45.5558 20.4688 45.6478L20.3438 45.8316L20.4688 45.8009C20.5938 45.8009 20.6563 45.7703 20.75 45.7703L20.7188 45.6478V45.5558C20.875 45.5865 21 45.6478 21.0938 45.7396L21.3125 45.6171C21.4375 45.4946 21.4375 45.4026 21.5625 45.3108C21.7188 45.1882 21.875 45.0045 22 44.8205H22.125V44.698C22.1875 44.698 22.25 44.6675 22.3125 44.6368C22.625 44.2385 22.9375 43.9322 23.375 43.7177C23.4063 43.6871 23.4063 43.5952 23.4375 43.5339C23.9063 43.1051 24.2188 42.6149 24.625 42.1248C24.7188 42.0022 24.8125 41.9103 24.9688 41.849C25 41.8184 25 41.6959 25.0313 41.6652L25.4375 41.3282C25.1563 42.1248 23.6563 43.6564 23.3438 44.2998C22.9688 44.361 22.2188 45.5558 22.2813 45.5865C22.8438 45.8928 23.4063 44.6062 23.5938 44.5755C23.7188 44.4223 24.5313 43.2889 24.7813 43.1051C24.7813 43.3194 24.5 43.5646 24.4688 43.779C24.2188 43.9016 23.75 44.79 23.9375 44.79C23.9688 44.9125 24.75 43.6871 24.75 43.8097C25.0313 43.5952 24.6875 44.5755 25.3438 43.9629C25.4063 43.9016 25.4688 43.8097 25.5625 43.7484C25.5313 43.7177 25.5 43.6564 25.5313 43.6259C25.5313 43.5339 25.5313 43.4421 25.6875 43.3808C25.6563 43.2889 25.7813 43.1969 25.8125 43.1356C26.0313 42.8293 26.4062 42.6455 26.7188 42.3698C26.7813 42.3085 26.7813 42.2167 26.875 42.186C27.7188 41.604 27.8438 40.8687 28.3438 40.1641L28.3126 40.1335L28.5937 39.7965C28.5937 39.7965 28.5626 39.7658 28.5626 39.7353C28.875 39.3063 29.4376 39 29.7501 38.6017C29.9687 38.3261 30.2813 37.7746 30.6563 37.4071L30.8126 37.2233L30.9687 37.3458C30.9687 37.2845 30.9687 37.1926 31.0625 37.1926C31.125 37.1926 31.1563 37.3458 31.0625 37.3458H31.0312C31.5938 37.7439 32.25 38.3567 32.4375 38.5405H32.3438L32.1875 38.5099C32.2187 38.7855 32.5313 39.0307 32.8125 39L32.9688 38.9694L33.1251 39.092L33.0001 39.245L33.2187 39.1532H33.25C33.5 39.1225 33.7813 39.7046 34.1563 39.7353V39.674C34.1563 39.6433 34.0626 39.5515 34.0313 39.5208H34.1563C34.5312 39.4902 34.875 39.8884 35.3438 39.8578C35.3751 40.2561 35.4687 40.2561 35.9375 40.2866L35.7813 40.3786C35.875 40.3786 35.9063 40.4704 35.9063 40.5317C36.1563 40.5624 36.1875 40.6543 36.2501 40.7462C36.2501 40.7156 36.2813 40.6849 36.3126 40.6849C36.3438 40.6849 36.3438 40.8381 36.3126 40.8381C36.4063 40.8994 36.5313 40.8994 36.8125 40.8381L36.75 40.9912L36.6251 41.1139C36.6251 41.2364 36.8439 41.3282 36.8439 41.3282C36.875 41.3282 37 41.3282 37 41.2977V41.4814C37.0313 41.4814 37.25 41.2977 37.25 41.2977L37.2813 41.3282V41.4507L37.25 41.4814L37.1875 41.604C37.125 41.6652 37.0313 41.7265 36.9375 41.7265H36.9063L36.875 41.6959H36.8439C36.8439 41.6345 36.8439 41.5733 36.8125 41.5733C36.875 41.5427 36.8125 41.4507 36.75 41.4507ZM36.6562 16.8512V16.9431C36.75 16.8512 36.9063 16.698 37 16.698C37.0625 16.698 37.2188 16.7287 37.3125 16.7287C37.2188 16.8206 37.0625 16.8512 37.0625 17.0044L37.0938 17.0963C37.1563 17.0044 37.4688 16.7287 37.5626 16.4836V16.6674C37.5626 16.9125 37.4688 16.9125 37.4376 17.0657L37.875 16.5449V16.453L37.7812 16.3917L38.0938 15.9015C38.125 15.9322 38.25 15.8709 38.375 15.7484C38.3438 15.779 38.3438 15.779 38.4063 15.779C38.4375 15.779 38.4375 15.779 38.4375 15.7177L38.4063 15.6871C38.8438 15.2276 39.5 14.2166 39.5 14.0635C39.2813 14.2779 39.0625 14.9212 38.6563 14.9519H38.6251C38.6563 14.86 38.8438 14.6761 38.8751 14.4617C38.5 14.7068 37.6563 15.442 37.6563 15.8403L37.6876 15.9322L37.8126 15.8096C37.7812 16.2385 37.5313 15.9322 37.4376 16.2692C37.4376 16.3304 37.4063 16.5755 37.4063 16.5755H37.3125L37.2813 16.4223C37.0313 16.453 36.6562 16.6061 36.6562 16.8512ZM39.7813 41.3895C39.6876 41.4507 39.6876 41.5733 39.8438 41.6345L39.9688 41.5427L40.25 41.7877L41.2187 42.6761C41.6563 43.0131 42.1876 43.4421 42.1251 43.4421C42.0626 43.4421 41.9688 43.4114 41.875 43.3501L42.0938 43.6564C42.1251 43.6564 42.1251 43.6259 42.1876 43.6259C42.2501 43.6259 42.2501 43.7177 42.1876 43.7177H42.1563V43.7484C42.0001 43.5952 41.8438 43.4114 41.6563 43.2582C41.1563 42.9519 40.75 42.4311 40.7188 42.3392C40.4063 42.0635 40.0937 41.8184 39.7501 41.604C39.7188 41.6959 39.8751 41.7265 39.8438 41.7877C39.5625 41.6345 39.25 41.2977 39.0312 41.2364C39.125 41.3282 39.3125 41.4202 39.3125 41.5733C39.0939 41.3895 38.9062 41.1751 38.7501 40.8687C38.9062 40.8994 39.0001 41.0219 39.1563 41.0832C39.0001 40.8687 38.7813 40.7156 38.5938 40.5931C38.5938 40.6849 38.6876 40.8074 38.5938 40.8687C38.5626 40.8074 38.3438 40.7156 38.3438 40.5011C38.4063 40.5931 38.4688 40.6849 38.5626 40.6236C38.4063 40.4704 38.25 40.2866 38.0625 40.1335C38.0625 40.0723 38.0625 40.011 38 39.9496C38.6563 40.4399 39.25 40.9606 39.7813 41.3895ZM35.8125 27.604C35.5937 27.5733 35.3126 27.7572 35.4687 28.0022L35 28.4923C35.0313 28.3698 35.0625 28.2473 35.1251 28.186L35.2188 28.0328H35.2813C35.3126 28.0022 35.2813 27.941 35.2813 27.9103C35.4062 27.6345 35.4687 27.3282 35.625 27.0219C35.8125 27.3282 36.2501 26.8687 35.875 26.6543L35.6875 26.7156C35.6875 26.6849 35.6875 26.6543 35.7188 26.6236C36.1563 26.2561 36.6562 26.0723 37.0938 25.674C37.0625 25.7353 37.0313 25.7658 37.0313 25.7965C37.1563 25.7353 37.3438 25.4902 37.4063 25.5208C37.2188 25.8271 37 26.1028 36.7812 26.4092C36.7812 26.2254 36.5626 26.1028 36.4063 26.3173C36.3751 26.4399 36.5001 26.5931 36.6562 26.5624L36.5001 26.7462C36.4376 26.7156 36.3438 26.7462 36.2188 26.8074C36.1875 26.8994 36.2188 26.9912 36.2501 27.0832C36.0938 27.2364 35.9688 27.4202 35.8125 27.604ZM32.1875 36.2123C32.1562 36.151 32.0937 36.059 32.0937 35.9978L32.3438 35.8752C32.4375 35.8752 32.5625 35.9059 32.6563 35.9672C32.4688 35.9978 32.3125 36.0285 32.3125 36.1817C32.375 36.4267 32.9063 36.2735 32.6875 35.9978C32.8751 36.0897 33.0313 36.2429 33.1876 36.3655C33.3125 36.4573 33.4375 36.5493 33.5625 36.6105C33.3437 36.9168 33.75 37.4683 34.0001 37.0394C34.0313 37.0394 34.0313 36.9781 34.0313 36.9475L34.5 37.2845C34.4062 37.4071 34.3437 37.5601 34.3437 37.7134L32.1875 36.2123ZM15.25 44.8512H15.2187C15.3125 44.698 15.1563 44.4223 14.9688 44.6675C14.9688 44.8205 15 44.9125 15.0938 44.9125L14.875 45.0045C14.5625 45.3413 14.7188 45.9234 15.0938 45.8928C15.1563 45.8928 15.25 45.8009 15.3437 45.8316C15.375 45.6478 15.5313 45.4639 15.5313 45.2495C15.5313 44.9431 15.3125 45.035 15.25 44.8512ZM40.4063 33.4552C40.2814 32.5974 39.125 33.1795 39.5 33.7615C39.7188 34.0678 40.3125 33.884 40.4063 33.4552ZM14.4688 45.8621C14.4375 45.7396 14.3438 45.709 14.3125 45.6478C14.4375 45.4639 14.3125 45.1576 14.0625 45.372C14.0625 45.4639 14.0313 45.5251 14.0625 45.6171C13.9687 45.6783 13.9375 45.8009 13.9063 45.9234C13.7813 45.9847 13.75 46.0766 13.6875 46.1991C13.6875 46.5667 13.8438 46.7506 14.1563 46.6894C14.3125 46.5974 14.25 46.3217 14.3125 46.1379C14.375 46.0153 14.4688 45.9847 14.4688 45.8621ZM37.6876 31.0963C37.9062 30.6368 37.6251 30.0241 37 30.116C36.8125 30.5142 37.0313 31.2188 37.6876 31.0963ZM45.0938 48.0985C45 48.1291 44.9375 48.1598 45 48.2516C44.875 48.221 44.8125 48.0985 44.7187 48.0678C44.7187 48.0066 44.8125 48.0373 44.8125 47.9453C44.4063 47.4858 43.9063 47.2714 43.4688 46.8425C43.4063 46.7812 43.4376 46.965 43.3126 46.9037C43.0625 46.7812 42.9375 46.3524 42.7188 46.1379C42.5939 46.1686 42.8125 46.3524 42.6563 46.3829C42.5314 46.2911 42.5939 46.1072 42.5939 46.0153V45.9847H42.75C43.0313 46.1991 43.2813 46.4442 43.5312 46.6587C44.125 47.1488 44.7187 47.7003 45.25 48.2516C45.1563 48.2823 45.125 48.1903 45.0938 48.0985ZM16.2813 44.79C16.1875 44.7593 16.1875 44.8818 16.0938 44.8818C16 44.9125 16 44.8512 15.9375 44.8818C15.875 44.9125 15.8125 45.0045 15.75 45.0045C15.6875 45.1576 15.7188 45.3108 15.7813 45.4026C15.8438 45.4333 15.9063 45.4333 16 45.4026C15.9688 45.4946 15.9688 45.5865 16 45.709H16.25C16.4063 45.5865 16.3125 45.2801 16.2188 45.2495H16.1875C16.1875 45.2188 16.2188 45.1882 16.2188 45.1576C16.3125 45.127 16.3438 45.0657 16.375 45.0045C16.375 44.8818 16.375 44.79 16.2813 44.79ZM19.125 20.895C19.0625 20.7724 19 20.6193 18.875 20.558C18.7188 20.7418 18.3125 20.7418 18.3438 21.0481C18.4063 21.3851 19.0938 21.3239 19.125 20.895ZM32.8438 20.1597C32.9376 20.1597 32.9376 20.0066 32.8438 20.0066C33.0626 19.7002 33.2812 19.3326 33.375 19.0875C32.9688 19.7002 32.125 20.3435 32.0937 20.8643V20.9562C32.1562 20.895 32.5 20.4967 32.8125 20.0372C32.8125 20.0678 32.8125 20.1597 32.8438 20.1597ZM39.7813 24.1422C39.5 24.3874 39.25 24.6324 39.125 24.8775C39.0001 24.8162 38.8751 24.7855 38.7501 24.8468L39.5 23.8666C39.5625 23.9891 39.6563 24.1116 39.7813 24.1422ZM20.1563 44.1467C20.0938 44.0854 20.0313 44.0547 19.9688 44.0854C20.5625 43.2889 21.6563 41.7877 21.6875 41.7877C21.6875 41.8797 20.75 43.2276 20.1563 44.1467ZM37.0938 29.7177C37.25 29.6259 37.3438 29.5033 37.3125 29.2582C37.2188 29.1663 37.0938 29.0744 36.8439 29.1051C36.6251 29.2889 36.75 29.8097 37.0938 29.7177ZM43.2188 15.9628L43.0313 15.8709C43.0313 15.8096 43.0625 15.7177 43.0625 15.6565C42.9375 15.779 42.7813 15.6871 42.625 15.9015H42.7188C42.75 15.9015 42.8125 15.8403 42.8438 15.8096C42.8125 16.0241 42.625 16.116 42.625 16.2998H42.7188L42.9063 16.4223H43C43.1563 16.3304 43.2188 16.1772 43.2188 16.0241V15.9628ZM35.8438 41.1139H35.8125V41.0525C35.8125 41.0832 35.8438 41.0832 35.8438 41.1139C35.8125 40.9912 35.75 40.9299 35.6875 40.8687H35.7188C35.75 40.8687 35.7813 40.8381 35.7813 40.8074C35.8125 40.8687 35.875 40.93 35.9375 40.9912C35.9375 41.0525 35.9688 41.1139 36 41.1139C36.0313 41.1139 36.0313 41.0832 36.0625 41.0525C36.0625 41.0832 36.0938 41.0832 36.125 41.1139L36.0625 41.0219C36.0625 40.9606 36.0313 40.8994 35.9688 40.8994C35.875 40.7156 35.75 40.5624 35.5937 40.5011L35.6875 40.6849C35.6562 40.7156 35.6562 40.8074 35.6875 40.8687C35.5312 40.7156 35.3438 40.6543 35.2501 40.4092C35.2501 40.3786 35.2813 40.3786 35.3438 40.3786C35.2813 40.3479 35.2501 40.3173 35.2501 40.2866C35.2501 40.3173 35.2501 40.3786 35.1876 40.3786C35.0938 40.4092 35.0625 40.2866 34.9688 40.2561C35.0313 40.3786 35.0938 40.4704 35.1563 40.5317C35.0625 40.5317 35.0625 40.7156 35.1563 40.7156C35.1876 40.7156 35.2188 40.5931 35.1876 40.5624L35.2813 40.6543C35.2501 40.6849 35.2501 40.8074 35.3126 40.8074C35.3751 40.8074 35.4063 40.7462 35.3751 40.7156C35.4063 40.7156 35.4063 40.7462 35.4376 40.7462C35.3751 40.8074 35.4063 40.8994 35.4687 40.8994C35.5001 40.8994 35.5312 40.8687 35.5312 40.8381L35.5937 40.8994H35.5625C35.5001 40.8994 35.5312 41.0525 35.5937 41.0525C35.6562 41.0219 35.6562 40.9606 35.625 40.93L35.75 41.0219C35.6875 41.0219 35.6875 41.1444 35.75 41.1444C35.7813 41.1444 35.7813 41.1444 35.8125 41.1139C35.75 41.1444 35.75 41.267 35.8438 41.267C35.9375 41.267 35.9375 41.1139 35.8438 41.1139ZM35.8438 38.3261C35.8125 38.3261 35.7813 38.3261 35.75 38.3567L35.8438 38.2954C36.2188 38.5405 36.5626 38.8162 36.9375 39.092C36.8125 39.0613 36.6251 39.1225 36.6251 39.3063L36.5626 39.245C36.5001 39.1532 36.5313 39.092 36.5313 39.0307C36.4063 38.9694 36.2813 38.8775 36.1563 38.7855C36.1875 38.7855 36.1875 38.755 36.1875 38.755C36.125 38.5712 36 38.5712 35.9063 38.663C35.8438 38.663 35.8125 38.6324 35.7813 38.6324C35.875 38.6324 35.9688 38.4179 35.8438 38.3261ZM41.0313 23.4989C40.9063 23.407 41.0001 23.2538 40.9688 23.1313C40.75 23.07 40.5625 23.0394 40.4063 23.2845C40.4688 23.5908 40.8438 23.5602 41.0313 23.4989ZM44.5001 38.3874C44.3751 38.2954 44.1875 38.2035 43.9688 38.3567C43.9688 38.4486 43.9063 38.5405 43.9688 38.6937C44.1563 38.8162 44.5626 38.6324 44.5001 38.3874ZM43.5937 44.6675C43.5001 44.7593 42.3751 43.9016 42.4376 43.8402C42.5625 43.8097 43.7189 44.6368 43.5937 44.6675ZM37.3125 27.512C36.9375 28.0941 36.5313 28.6761 35.9688 29.2582C36.3438 28.6761 36.7812 28.0941 37.3125 27.512ZM39.3125 14.8293V14.9519C39.5313 14.8906 39.8751 14.4311 39.8751 14.2473C39.625 14.3698 39.2813 14.5536 39.3125 14.8293ZM43.2813 14.2166L42.3126 15.2582C42.5625 15.1663 43.2813 14.6149 43.2813 14.2473V14.2166ZM38.7501 33.2407C38.7813 33.3327 38.8438 33.4245 38.9062 33.4858C38.8126 33.4858 38.8438 33.6696 38.9376 33.6696C39.0001 33.6696 39.0001 33.5165 38.9376 33.4858C39.5313 33.3632 38.9062 32.7812 38.7501 33.2407ZM16.8438 45.0045C16.875 44.9125 16.8438 44.698 16.75 44.6675C16.6563 44.6368 16.5625 44.7287 16.4688 44.79C16.4375 44.9125 16.5 45.0657 16.5313 45.1882C16.6563 45.1882 16.8125 45.0963 16.8438 45.0045ZM21.8438 19.4858L22.0938 19.6083C22.1563 19.5471 22.2813 19.5164 22.2813 19.3632C22.2188 19.2713 22.0938 19.2407 22.0313 19.2101C22.0313 19.0263 21.875 19.0569 21.7813 19.1488C21.75 19.3326 21.9375 19.302 21.8438 19.4858ZM21.4688 20.3742C21.3438 20.2823 21.0938 20.3129 21.0313 20.4355C20.8438 20.8031 21.625 20.8337 21.4688 20.3742ZM18.3125 45.709C18.3125 45.5865 18.2188 45.6783 18.0313 45.5865C17.9375 45.5251 17.9688 45.3108 17.7813 45.4639C17.7188 45.5865 17.8125 45.7396 17.875 45.8009C17.9688 45.7703 18.0313 45.709 18.0625 45.8009C18.0625 45.8928 18.0313 45.9234 18.0938 45.9847C18.2188 45.9234 18.3438 45.8316 18.3125 45.709ZM19.7813 44.9431C19.75 44.9431 19.8125 44.8205 19.9063 44.6675C19.9375 44.6368 19.9375 44.6368 19.9375 44.6062C20.1875 44.2692 20.5938 43.7484 20.6563 43.7484C20.75 43.7484 19.875 44.9125 19.7813 44.9431ZM42.0313 35.5077C41.9688 35.5077 41.9375 35.5077 41.9063 35.4464C41.6875 35.5077 41.5625 35.5996 41.6563 35.814C41.7813 35.9978 42.1876 35.7834 42.0313 35.5077ZM41.9688 16.2385C41.9375 16.2385 41.8438 16.2079 41.8438 16.116C41.8125 16.2079 41.7188 16.361 41.75 16.4223V16.4836H41.875L42.0001 16.5755H42.1251C42.2188 16.5755 42.2501 16.4223 42.2188 16.3304L42.1251 16.4223L42.1876 16.1466C42.1563 16.2079 42.0626 16.2385 41.9688 16.2385ZM37 39.3676C37.0313 39.3063 37.0625 39.2451 37.0313 39.2145V39.1838L37.9689 39.9191H37.7812C37.5313 39.7046 37.25 39.5208 37 39.3676ZM41.8125 42.8293C41.75 42.8293 40.5 41.6959 40.5625 41.6959C40.6563 41.6959 41.9063 42.7988 41.8125 42.8293ZM17 45.035C16.9688 45.2188 17.0938 45.4026 17.1563 45.5251C17.25 45.5251 17.2813 45.4639 17.3438 45.4026C17.3125 45.1882 17.25 44.8512 17 45.035ZM40.8126 13.6958C41.1251 13.4201 41.3437 13.0219 41.5313 12.6849H41.5L40.75 13.6039L40.8126 13.6958ZM40.7188 15.105H40.8126L40.8751 15.2276L40.25 15.779C40.25 15.6258 40.625 15.105 40.7188 15.105ZM35.4687 41.2977C35.3438 41.1751 35.1563 41.0525 35 40.8994C34.9063 40.8381 34.5625 40.4704 34.6875 40.6236C35.1876 41.2364 35.8438 41.604 36.5001 42.278C36.2188 41.8184 35.8125 41.604 35.4687 41.2977ZM16.8438 43.9629C16.6875 43.9016 16.5625 43.8709 16.3438 43.9629L16.5938 43.7484C16.5625 43.5339 16.4375 43.5339 16.4063 43.3808C16.4688 43.4421 16.5625 43.4727 16.6563 43.5033C16.75 43.5033 16.6875 43.8402 16.6875 43.8402L16.8125 43.9322V43.5952C16.8438 43.5952 16.8438 43.5646 16.875 43.5646C16.875 43.5033 16.875 43.4727 16.8438 43.4421C16.8438 43.4114 16.875 43.3808 16.9063 43.3808C16.9063 43.3808 16.9375 43.4727 17 43.5646C16.9688 43.5646 16.9375 43.5646 16.9063 43.5952C16.8125 43.7177 16.8438 43.8402 16.9375 43.9016C16.9063 43.9016 16.875 43.9322 16.8438 43.9629ZM34.875 40.2866L34.2812 39.8271H34.1876L34.3126 39.9803V40.0723L34.1876 39.9803C34.2501 40.2254 34.6875 40.2561 34.875 40.3479V40.2866ZM39.8751 32.5054C40.0626 32.6892 40.3438 32.4749 40.25 32.2298C40.0626 32.1686 39.7813 32.2911 39.8751 32.5054ZM16.25 46.1072C15.875 46.1072 15.9688 46.5974 16.1875 46.5054C16.375 46.4442 16.4063 46.1991 16.25 46.1072ZM15.1563 48.1598C15.25 48.0678 15.2187 47.9147 15.1875 47.7922C14.8125 47.6696 14.8125 48.4355 15.1563 48.1598ZM19.375 45.4333C19.25 45.7396 19.5 45.8928 19.7188 45.7396C19.6875 45.4946 19.5625 45.4026 19.375 45.4333ZM16.75 45.4639C16.6563 45.5865 16.7187 45.8009 16.8125 45.8316C17.0625 45.8009 17.0625 45.5251 16.9688 45.4026C16.875 45.4639 16.875 45.4333 16.75 45.4639ZM19.9063 20.5886C19.7813 20.5886 19.6563 20.558 19.5625 20.4967C19.5313 20.6193 19.5 20.7724 19.5938 20.8643C19.8125 20.895 19.9375 20.8031 19.9063 20.5886ZM40.8438 33.7615C40.6563 33.8228 40.5938 33.9147 40.625 34.0678C40.8438 34.2823 41.1563 33.8535 40.8438 33.7615ZM35.8125 18.0766L35.3751 18.7506C35.3751 18.8425 35.3751 18.965 35.3438 18.965L35.2501 18.7506C35.3126 18.5667 35.5937 18.1991 35.8125 18.0766ZM20.125 20.6499C20.2813 20.6193 20.4063 20.5274 20.375 20.3435C20.2188 20.1597 19.9375 20.4048 20.0625 20.6193C20.0938 20.6193 20.125 20.6193 20.125 20.6499ZM46.2813 49.8753C45.9375 49.5996 45.5938 49.3239 45.3125 48.9563C45.6563 49.2014 46 49.5077 46.2813 49.8753ZM42.3751 16.6368C42.5 16.698 42.4376 17.035 42.6563 17.035L42.625 16.5449C42.5 16.5449 42.3751 16.5449 42.3751 16.6368ZM39.4063 17.1269C39.4063 17.2801 39.2813 17.4639 39.1563 17.4639H39.0312L39.1875 17.2801H39.0001C39.0312 17.1269 39.2813 17.1269 39.4063 17.1269ZM36.5937 31.6478V31.5251C36.5626 31.5251 35.9063 30.9738 35.875 30.9738C35.875 31.0043 36.4688 31.6171 36.4688 31.6171L36.5937 31.6478ZM42.75 35.8447C42.6563 35.814 42.5 35.8752 42.4376 35.9365C42.4687 36.3042 43 36.059 42.75 35.8447ZM34.2188 19.9453C34.2188 20.0372 34.2501 20.1904 34.2501 20.1904L34.1563 20.2823C34.0938 20.2823 33.625 20.8337 33.5313 20.9562L34.2188 19.9453ZM17.4063 45.5865C17.375 45.7703 17.125 46.1072 17.4688 46.0153C17.5 45.8621 17.625 45.6783 17.5 45.5558C17.4688 45.5558 17.4375 45.5865 17.4063 45.5865ZM44.2188 40.5624H44.2501C44.4063 40.5624 44.6251 40.8074 44.6876 40.8994C44.4688 40.8994 44.2813 40.7156 44.0938 40.6849L44.2188 40.5624ZM42.1876 13.2976C42.3126 13.267 42.4687 13.267 42.5625 13.0219H42.4687L42.3126 13.1138V13.0219C42.2813 12.9606 42.2813 12.8993 42.3751 12.8687C42.1563 12.93 42.1876 13.2363 42.0313 13.2976H42.1876ZM42.8125 46.9037C43.1563 46.7199 43.4688 47.2714 43.7813 47.547C43.3751 47.5165 43.2188 46.7812 42.8125 46.9037ZM43.2813 39.674L43.4376 39.8271V39.674C43.5626 39.6433 43.6875 39.6433 43.7189 39.7965C43.6875 39.7965 43.5312 39.8578 43.4376 39.8884H43.3126C43.2813 39.8884 43.1876 39.8884 43.1876 39.8271L43.2813 39.674ZM13.3125 46.4136C13.3125 46.5667 13.3438 46.5974 13.4063 46.6587C13.7813 46.5054 13.5 46.0459 13.3125 46.4136ZM35.0313 37.9584C34.9688 37.8972 34.8438 37.9279 34.75 37.9891L34.625 37.8972C34.75 37.8359 34.875 37.7439 35 37.6521L35.1251 37.7439C35.0313 37.8053 35.0625 37.8972 35.0313 37.9584ZM42.3437 45.9847C42.2813 45.9847 42.2188 45.9847 42.1563 45.9541C42.0938 45.8928 42.0626 45.8316 42.0313 45.7703C42.1251 45.8316 42.2188 45.8621 42.3126 45.8621L42.2813 45.6783H42.3751L42.5939 45.8621C42.5 45.8928 42.4062 45.9234 42.3437 45.9847ZM43.875 37.1006C43.8125 37.0088 43.6251 37.0394 43.5626 37.1619C43.5626 37.2538 43.6251 37.2845 43.6564 37.3458C43.8125 37.3764 43.9375 37.2845 43.875 37.1006ZM42.1876 38.3567C42.1876 38.4792 42.1563 38.6017 42.0626 38.6017H41.9688L42.0313 38.5099C41.875 38.5099 41.7813 38.3567 41.7813 38.2647H41.9375V38.3567H42.1876ZM44.9064 41.7877C44.7187 41.7877 44.5626 41.7265 44.4688 41.5733C44.4688 41.5427 44.5626 41.5427 44.6562 41.5427C44.8125 41.512 44.9064 41.6345 44.9064 41.7877ZM13.7813 47.3939L13.9063 47.3327C14.1563 46.8119 13.4688 47.0875 13.7813 47.3939ZM35.5312 17.8009C35.5001 18.1072 35.3751 18.3523 35.0938 18.3523L35.5312 17.8009ZM15.625 43.9629C15.5625 43.9629 15.5 43.9016 15.4375 43.9016C15.2813 44.0241 15.4375 44.1772 15.5 44.2692C15.625 44.2079 15.6563 44.116 15.625 43.9629ZM44.2501 39.5821C44.3751 39.5515 44.4376 39.4902 44.3751 39.337H44.3438V39.2757H44.2813L44.3126 39.337C44.2188 39.3063 44.125 39.3676 44.125 39.429L44.0313 39.4595L44.1875 39.6128L44.2501 39.5821ZM22.0938 21.2626C22.1875 21.3239 22.3438 21.2626 22.4063 21.2013C22.4375 20.895 22.0313 21.0175 22.0938 21.2626ZM42.5625 38.8162C42.5625 38.8775 42.5625 38.8775 42.625 38.9694C42.625 38.9694 42.4687 39.0613 42.3751 39.0613L42.2188 39C42.2501 38.8468 42.4376 38.8162 42.5625 38.8162ZM43.0313 34.7724C42.875 34.8031 42.7813 34.8644 42.7813 34.9869C42.8125 34.9869 42.8438 34.9869 42.8438 35.0481C43.0313 35.0788 43.2188 34.8949 43.0313 34.7724ZM34.875 29.8709C34.9688 29.9322 34.8125 30.0547 34.6563 30.1772C34.7188 30.2385 34.7813 30.2692 34.9063 30.1467C34.875 30.2385 34.7813 30.361 34.7188 30.453C34.6563 30.3917 34.5938 30.3304 34.5625 30.2692L34.875 29.8709ZM19.25 45.1576C19.1875 45.2495 19.125 45.3108 19.125 45.4333C19.1875 45.4639 19.2188 45.4946 19.2813 45.4946L19.4063 45.372C19.375 45.2495 19.3438 45.1576 19.25 45.1576ZM48.0313 47.7003C48.1876 47.7308 48.375 47.7922 48.3439 47.9453L48.1562 48.0373C48.1562 47.884 48.0313 47.7615 47.9376 47.7003H48.0313ZM33.4688 39.0613C33.25 39.092 33.0001 38.8468 32.9688 38.7243L33.4688 38.9694V39.0613ZM40.9376 23.9584C40.8438 23.8972 40.75 23.9278 40.6875 23.8972C40.5313 24.0504 40.8438 24.2647 40.9376 24.1116V23.9584ZM42.7813 18.5974L42.875 18.5667C42.875 18.5667 42.9063 18.3523 42.9063 18.2604C42.7813 18.3217 42.5625 18.5974 42.625 18.628C42.625 18.6586 42.7813 18.5974 42.7813 18.5974ZM21.75 19.9147C21.6563 19.8228 21.5 19.8534 21.4375 19.9759C21.4375 20.0372 21.5 20.0678 21.5313 20.1291C21.6563 20.1291 21.75 20.0372 21.75 19.9147ZM41.5625 15.3195V15.442L40.9376 16.0853C41.0938 15.8403 41.3126 15.5646 41.5625 15.3195ZM38.5313 15.105V15.1357C38.4375 15.3501 38.4063 15.4726 38.25 15.5033H38.1563C38.25 15.4114 38.375 15.105 38.5313 15.105ZM41.1563 34.8949C41.0938 34.8949 41.0938 34.8644 41.0626 34.8644C40.9063 34.8949 40.8751 34.9562 40.8751 35.0788C40.9376 35.0788 40.9376 35.1401 40.9688 35.1401C41.1251 35.1094 41.1876 35.0176 41.1563 34.8949ZM46.8751 41.2057C46.9063 41.2977 46.8751 41.4202 46.7813 41.4507L46.9063 41.604V41.4507C47.0626 41.4202 47.0626 41.512 47.1564 41.512C47.1564 41.3895 47.0312 41.267 46.8751 41.2057ZM18.3438 45.9847C18.4063 46.1072 18.2813 46.1072 18.25 46.1379V46.2911C18.4063 46.2604 18.375 46.1379 18.5 46.1686C18.5938 46.0154 18.4688 45.8621 18.3438 45.9847ZM33.5 39.1225H33.625C33.75 39.1225 33.9063 39.2757 33.9375 39.429C33.7813 39.4595 33.625 39.2145 33.5 39.1225ZM15.5 46.5974C15.4063 46.7199 15.4687 46.9344 15.6563 46.8425C15.75 46.7199 15.6563 46.5054 15.5 46.5974ZM36.8125 18.1379H36.875L36.4688 18.6586V18.5361C36.4688 18.4136 36.6562 18.2604 36.8125 18.1379ZM45.8126 42.0941C45.9062 42.0635 46 42.1248 46.0625 42.2167L45.8437 42.4005L45.8126 42.3085L45.7501 42.0941H45.8126ZM43.7189 40.1948C43.8438 40.1948 43.9688 40.2866 44.0938 40.2866V40.4399C43.9688 40.4399 43.7189 40.3479 43.7189 40.1948ZM41.5625 43.4726C41.4375 43.5339 41.3437 43.3194 41.375 43.2276C41.5313 43.1663 41.7188 43.3808 41.5625 43.4726ZM31.9063 37.8972H31.8438L31.3438 37.4989C31.4375 37.5296 31.7813 37.7134 31.8751 37.7134C31.9063 37.7439 31.8751 37.8666 31.9063 37.8972ZM37.5938 40.1335C37.4688 40.0723 37.3125 39.9803 37.2813 39.8884C37.4376 39.8578 37.5313 39.9191 37.6563 39.9803C37.6251 40.0416 37.5938 40.0723 37.5938 40.1335ZM39.5938 15.5646C39.5938 15.2888 39.7501 15.4114 39.9063 15.2888L39.9376 15.3195L39.5938 15.6565V15.5646ZM41.2187 22.4573C40.9688 22.6411 40.8438 22.7943 40.8438 22.9475C41.0001 22.8862 41.1251 22.6105 41.2187 22.4573ZM14.8125 47.0262C14.875 46.9344 14.875 46.7199 14.7188 46.7812C14.5938 46.8731 14.625 47.1182 14.8125 47.0262ZM21.25 19.5164C21.3125 19.4858 21.4063 19.4551 21.375 19.3326C21.2813 19.2407 21.0938 19.3326 21.0938 19.4245C21.1563 19.4551 21.1563 19.5471 21.25 19.5164ZM15.4375 44.5142C15.4687 44.453 15.4375 44.3304 15.4375 44.2692C15.375 44.2998 15.375 44.2385 15.2813 44.2998C15.2187 44.4223 15.2813 44.5755 15.4375 44.5142ZM21.9688 21.9059L21.9375 21.7221L21.5625 21.5996C21.5625 21.6302 21.9063 21.9059 21.9688 21.9059ZM40.8751 44.8818H41.0626C41.1251 45.0045 41.2187 45.127 41.3437 45.2495C41.1563 45.1576 41.0001 45.035 40.8751 44.8818ZM46.5938 42.3392C46.6563 42.3392 46.6563 42.2167 46.5938 42.186C46.6563 42.1553 46.6251 42.0328 46.5626 42.0328C46.4375 42.0328 46.4375 42.1553 46.5313 42.186C46.4375 42.2167 46.4688 42.3392 46.5938 42.3392ZM44.1563 41.6652C44.2501 41.6652 44.2813 41.7877 44.1875 41.8184C44.2813 41.849 44.2813 41.9715 44.1875 41.9715C44.0938 42.0022 44.0625 41.849 44.1563 41.8184C44.0625 41.849 44.0625 41.6959 44.1563 41.6652ZM44.125 14.7987C44.0625 14.7987 43.875 14.86 43.875 15.0744L43.9688 15.0438C44.0625 15.0438 44.125 14.9212 44.125 14.7987ZM42.7813 46.628C42.5 46.628 42.3437 46.4749 42.1563 46.2911C42.2501 46.3524 42.5939 46.5054 42.7813 46.628ZM33.8125 18.5667C33.8125 18.5667 33.9375 18.4748 33.9375 18.3523C33.9063 18.3829 33.6875 18.5667 33.6875 18.5974C33.5625 19.0569 33.6563 18.8425 33.8125 18.5667ZM39.5938 14.1554L39.8438 14.0022C39.7501 14.0022 39.7501 13.9103 39.7501 13.8184H39.6563L39.5938 14.1554ZM14.75 44.4837C14.75 44.361 14.7188 44.2998 14.625 44.3304C14.4375 44.4223 14.625 44.698 14.75 44.4837ZM36.7812 41.9715L36.8125 42.0635C36.8125 42.2167 36.9063 42.3085 37.0625 42.3698H37.0938C37.0625 42.278 36.9063 42.1553 36.9063 42.0635L36.7812 41.9715ZM16.0938 47.6083C16.0625 47.7308 16.1563 47.8228 16.25 47.7922C16.25 47.7308 16.3438 47.7308 16.3125 47.639C16.2813 47.5777 16.2188 47.547 16.0938 47.6083ZM39.8126 22.2429C39.9063 22.2735 39.8438 22.3348 39.9063 22.3654C40.0312 22.3348 40.0001 22.2735 40.0626 22.1816C39.9376 22.0897 39.8751 22.0897 39.8126 22.2429ZM32.75 36.3348C32.75 36.4267 32.625 36.4573 32.6875 36.5493C32.7813 36.5798 32.8438 36.5493 32.9063 36.488C32.8751 36.3655 32.8125 36.3348 32.75 36.3348ZM45.6876 43.5646L45.6563 43.3808H45.7188C45.7188 43.3808 46 43.5033 46.0938 43.5033L45.6876 43.5646ZM42.3751 14.4923L42.5 14.0941L42.3751 14.1554C42.3751 14.1554 42.2501 14.4923 42.3751 14.4923ZM15.5625 45.3413C15.4063 45.5865 15.7813 45.6171 15.7188 45.3413C15.6563 45.3413 15.625 45.3108 15.5625 45.3413ZM17.5 47.547C17.5 47.5777 17.4688 47.5777 17.4375 47.6083C17.4375 47.7003 17.4375 47.7308 17.5 47.7922C17.5938 47.7922 17.5938 47.7308 17.625 47.6696C17.625 47.6083 17.5625 47.547 17.5 47.547ZM43.7189 16.5755V16.4836C43.5626 16.5755 43.5001 16.6674 43.5001 16.8206L43.5312 16.8818L43.6564 16.6368L43.7189 16.5755ZM34.9688 18.5974H35.0625L34.6875 18.9956C34.75 18.7812 34.9063 18.628 34.9688 18.5974ZM44.3438 14.5536C44.3438 14.4923 44.3126 14.4311 44.2501 14.4311C44.1875 14.4311 44.2188 14.6455 44.2813 14.6455C44.3126 14.6455 44.3126 14.6761 44.3751 14.6761C44.4688 14.6761 44.4376 14.5536 44.3438 14.5536ZM37.6563 25.9496L37.25 26.3479L37.5938 25.8578L37.6563 25.9496ZM43.75 15.5952H43.6564C43.5001 15.5952 43.4376 15.6871 43.4688 15.7484C43.6251 15.7484 43.6875 15.7484 43.75 15.5952ZM40.8126 14.8293C40.8126 14.86 40.5625 15.105 40.4688 15.1357C40.375 15.1357 40.8126 14.7374 40.8126 14.8293ZM39.0001 14.4617C39.0312 14.4311 39.2188 14.186 39.2188 14.0941C39.0001 14.186 39.0001 14.3392 39.0001 14.4617ZM37.4688 42.6761H37.4376C37.4063 42.6149 37.4063 42.5843 37.375 42.5843C37.3438 42.6149 37.3438 42.7681 37.375 42.7374H37.4063C37.375 42.7988 37.4063 42.8293 37.4688 42.8293C37.5938 42.8293 37.5938 42.6761 37.4688 42.6761ZM45.6251 42.4005L45.5313 42.4923C45.4688 42.4923 45.25 42.3698 45.25 42.3085L45.6251 42.4005ZM39.5 13.6652L39.3438 13.849V13.9409C39.4688 13.9103 39.5 13.8184 39.5938 13.7571L39.5 13.6652ZM40.0001 16.6061C39.9063 16.6061 39.9063 16.4836 39.9688 16.453C39.8751 16.4223 39.8751 16.2998 39.9688 16.2998C40.0313 16.2692 40.0626 16.4223 40.0001 16.453C40.0626 16.4223 40.0626 16.5755 40.0001 16.6061ZM43.5001 13.5427C43.4688 13.5427 43.4376 13.5733 43.4376 13.5733C43.4688 13.5427 43.4688 13.512 43.4688 13.4508C43.4688 13.3895 43.2501 13.6346 43.3438 13.6346C43.3751 13.6346 43.4063 13.6039 43.4376 13.5733C43.4063 13.6346 43.4376 13.6958 43.5001 13.6958C43.5626 13.6958 43.5626 13.5427 43.5001 13.5427ZM43.8438 15.1969C43.75 15.2276 43.6564 15.2888 43.5937 15.3501V15.442C43.6564 15.442 43.8438 15.3501 43.8438 15.1969ZM18.5938 45.035C18.5 45.127 18.5313 45.3108 18.6875 45.2188C18.75 45.127 18.6875 45.0045 18.5938 45.035ZM46.9687 46.2298C46.9687 46.3524 46.7501 46.3524 46.7501 46.2298C46.7501 46.1379 46.9687 46.1379 46.9687 46.2298ZM46.9063 43.7484C47.0001 43.7484 47.0001 43.9629 46.9063 43.9629C46.7813 43.9629 46.7813 43.7484 46.9063 43.7484ZM36.4376 17.6783C36.4063 17.6477 36.4063 17.5252 36.4376 17.5252C36.5313 17.5252 36.5626 17.6783 36.4688 17.6783H36.4376C36.4688 17.709 36.4688 17.8621 36.4376 17.8621C36.3126 17.8621 36.3126 17.6783 36.4376 17.6783ZM41.5313 36.488C41.5938 36.488 41.5625 36.3348 41.5 36.3348C41.5 36.3042 41.4689 36.2429 41.4064 36.2429C41.3437 36.2429 41.375 36.396 41.4375 36.396C41.4375 36.4267 41.4688 36.488 41.5313 36.488ZM47.3438 42.1553H47.375C47.375 42.186 47.4063 42.2167 47.4375 42.2167C47.5625 42.186 47.5625 42.0328 47.4375 42.0635H47.4063C47.4063 42.0328 47.375 42.0022 47.3438 42.0022C47.3125 42.0022 47.3125 42.1553 47.3438 42.1553ZM21.8438 19.7309C21.8438 19.6083 21.75 19.6083 21.6563 19.6083C21.6563 19.639 21.625 19.6696 21.5938 19.7309C21.6563 19.7615 21.7813 19.7615 21.8438 19.7309ZM41.75 37.5296C41.8125 37.5296 41.8125 37.5601 41.8125 37.6214C41.8125 37.6214 41.8125 37.5908 41.8438 37.5908C41.9063 37.5908 41.9063 37.7439 41.8438 37.7439C41.7813 37.7746 41.75 37.7134 41.7813 37.6521H41.75C41.6563 37.6521 41.6563 37.5296 41.75 37.5296ZM43.1251 38.6937V38.6017C43.0938 38.5712 43.0313 38.5405 43 38.5405H42.9688C43 38.6017 43 38.7855 43 38.8468L43.1251 38.6937ZM36.3438 18.291C36.4688 18.291 36.4688 18.5055 36.3438 18.5055C36.2501 18.5055 36.2501 18.291 36.3438 18.291ZM39.6876 19.884C39.6876 19.7309 39.7813 19.5777 39.9688 19.5777L39.6876 19.884ZM37.875 14.9825C37.9689 14.9825 37.9375 14.7681 37.8437 14.7681C37.7501 14.7681 37.7812 14.9825 37.875 14.9825ZM39.5 16.8512C39.625 16.8512 39.6563 17.035 39.5313 17.035C39.4375 17.0657 39.4063 16.8818 39.5 16.8512ZM32.4375 38.3567C32.3438 38.3567 32.3125 38.1422 32.4063 38.1422C32.5 38.1422 32.5313 38.3567 32.4375 38.3567ZM44.6251 40.0723V39.8271L44.4688 39.9191C44.4688 40.011 44.5626 40.0723 44.6251 40.0723ZM16.875 20.8643C16.9063 20.7112 16.75 20.7112 16.6875 20.7724V20.8643C16.7813 20.8643 16.8125 20.9256 16.875 20.8643ZM37.7187 42.9826C37.6251 42.9826 37.6563 43.1663 37.7501 43.1663C37.875 43.1663 37.8437 42.9826 37.7187 42.9826ZM21.8125 20.7724C21.7813 20.7418 21.625 20.7418 21.5938 20.8031V20.895C21.7188 20.895 21.8125 20.8643 21.8125 20.7724ZM34.7813 19.5164C34.7813 19.6696 34.625 19.7615 34.5312 19.7615H34.4687C34.5312 19.6696 34.7188 19.6083 34.7813 19.5164ZM35.4063 38.4179C35.4376 38.4486 35.4687 38.4486 35.5312 38.4486C35.5937 38.4486 35.625 38.4179 35.6562 38.4179C35.625 38.4486 35.625 38.5099 35.6875 38.5712C35.7188 38.6324 35.75 38.6324 35.7813 38.6324H35.7188L35.4063 38.4179ZM39.5625 19.4858C39.625 19.4858 39.6563 19.6083 39.5938 19.639C39.6563 19.6696 39.6563 19.7921 39.5938 19.7921C39.5625 19.8228 39.5313 19.6696 39.5625 19.639C39.5313 19.6696 39.5313 19.5164 39.5625 19.4858ZM44.5938 14.3698C44.6876 14.3698 44.6876 14.1554 44.5938 14.1554C44.5001 14.186 44.5001 14.3698 44.5938 14.3698ZM40.7813 16.2385L40.7188 16.3917C40.7188 16.3917 40.5313 16.2998 40.5313 16.2079C40.5625 16.2079 40.75 16.2692 40.7813 16.2385ZM38.0313 16.2998L38.2813 15.9934H38.1875C38.1875 15.9934 38.0313 16.1466 38.0313 16.2385V16.2998ZM20.5313 46.4442C20.4063 46.4749 20.4063 46.6587 20.5313 46.628C20.625 46.628 20.625 46.4442 20.5313 46.4442ZM42.1876 36.8863C42.2188 36.825 42.1876 36.7025 42.0938 36.733C42.0938 36.7943 42.0001 36.825 42.0001 36.8863C42.0938 36.8556 42.0938 36.9475 42.1876 36.8863ZM43 13.8184V13.9716L43.1563 13.6346C43 13.6346 43 13.7265 43 13.8184ZM32.375 21.0788C32.4688 21.0788 32.4688 21.2626 32.375 21.2626C32.25 21.2626 32.25 21.0788 32.375 21.0788ZM40.9688 12.2867C41.0626 12.256 41.0626 12.0416 40.9688 12.0722C40.8751 12.0722 40.8751 12.2867 40.9688 12.2867ZM36.9688 39.5821C37.0313 39.4595 36.9063 39.5515 36.8439 39.5208V39.429C36.875 39.429 36.9063 39.429 36.9375 39.3983C37 39.4595 37.0625 39.5208 37.0938 39.6128C37.0313 39.5208 37 39.5821 36.9688 39.5821ZM38.1563 23.8666C38.2188 23.8666 38.25 23.8053 38.25 23.7439C38.2188 23.6827 38.1875 23.7134 38.125 23.6827C38.0625 23.7746 38.0625 23.8359 38.1563 23.8666ZM45.4688 47.5165C45.3438 47.3939 45.2188 47.3327 45.0938 47.1795L45.3438 47.302C45.4063 47.3632 45.4376 47.4245 45.4688 47.5165ZM47.5 42.4311C47.7188 42.4923 47.5938 42.278 47.4688 42.3085C47.375 42.3085 47.4063 42.4311 47.5 42.4311ZM41.0938 37.6827C41.1876 37.6827 41.1876 37.8666 41.0938 37.8972C41.0001 37.8972 41.0001 37.6827 41.0938 37.6827ZM45.8751 41.6345C45.9689 41.6345 46 41.8184 45.9062 41.8184C45.8126 41.849 45.7813 41.6652 45.8751 41.6345ZM17.3125 21.3851C17.3125 21.2932 17.3125 21.2013 17.1875 21.232C17.1875 21.2932 17.1563 21.3239 17.1563 21.3545C17.1875 21.3851 17.2188 21.4158 17.3125 21.3851ZM41.9063 36.3348L41.8438 36.2123C41.75 36.2123 41.6875 36.2429 41.7188 36.3348C41.7813 36.3655 41.8125 36.3655 41.9063 36.3348ZM46.6251 43.1356V43.2276L46.4688 43.3808L46.375 43.3501L46.6251 43.1356ZM32.8751 38.9694C32.8125 38.9694 32.7813 38.755 32.8438 38.755C32.9376 38.755 32.9688 38.9694 32.8751 38.9694ZM42.0001 43.7484C42.0938 43.7484 42.0938 43.9629 42.0001 43.9629C41.9375 43.9629 41.9375 43.7484 42.0001 43.7484ZM38.9062 17.0044C39.0001 16.9737 39.0001 17.1269 38.9062 17.1575C38.7813 17.1575 38.7813 17.0044 38.9062 17.0044ZM43.4063 11.8884C43.4688 11.8884 43.4376 11.674 43.3751 11.674C43.2813 11.7046 43.3126 11.8884 43.4063 11.8884ZM44.2188 46.0766C44.0938 46.0766 44.0938 45.9234 44.2188 45.9234C44.3126 45.8928 44.3126 46.0459 44.2188 46.0766ZM41.875 14.2779C42.0001 14.2779 41.9688 14.0635 41.8438 14.0635C41.8125 14.0635 41.8438 14.2779 41.875 14.2779ZM44.8439 40.6543C44.9064 40.6543 44.9375 40.8687 44.875 40.8687C44.7812 40.8687 44.7501 40.6543 44.8439 40.6543ZM44.5626 11.8271C44.6251 11.8271 44.5938 11.6127 44.5313 11.6127C44.4376 11.6127 44.4688 11.8271 44.5626 11.8271ZM42.9063 15.1357H42.9688C43.0625 15.1357 43.1563 14.8906 43.1563 14.86C42.9688 14.8906 43.0625 15.105 42.9063 15.1357ZM42.5939 18.3523C42.7188 18.3523 42.7188 18.2298 42.625 18.1991H42.5939C42.5 18.1991 42.5 18.3523 42.5939 18.3523ZM36.8439 31.9234C36.9688 31.9234 36.9688 31.7703 36.8439 31.7703C36.75 31.7703 36.75 31.9234 36.8439 31.9234ZM43.9375 42.2473C44.0625 42.2473 44.0625 42.4005 43.9375 42.4005C43.8438 42.4005 43.8438 42.2473 43.9375 42.2473ZM44.6251 42.7988C44.5313 42.7988 44.5313 42.6149 44.6251 42.6149C44.7187 42.6149 44.7187 42.7988 44.6251 42.7988ZM40.2814 41.5733C40.1875 41.5733 40.1875 41.4202 40.2814 41.4202C40.4063 41.4202 40.4063 41.5733 40.2814 41.5733ZM42.4687 15.9934C42.3751 15.9934 42.3751 16.1466 42.4687 16.1466C42.5939 16.1466 42.5939 15.9934 42.4687 15.9934ZM32.75 39.3983C32.6563 39.429 32.6563 39.6127 32.75 39.5821C32.8438 39.5821 32.8438 39.3983 32.75 39.3983ZM35.2813 19.3939C35.1563 19.3939 35.1251 19.2407 35.2501 19.2407C35.3438 19.2407 35.3751 19.3939 35.2813 19.3939ZM38.9376 17.6171C39.0312 17.6171 39.0312 17.7702 38.9376 17.7702C38.8126 17.8009 38.8126 17.6477 38.9376 17.6171ZM41.6875 13.3895C41.7813 13.3895 41.7813 13.2363 41.6875 13.2363C41.5625 13.267 41.5625 13.4201 41.6875 13.3895ZM43.875 40.8381C43.7813 40.8381 43.75 40.6849 43.8438 40.6849C43.9688 40.6849 44 40.8381 43.875 40.8381ZM44 11.2144C44.0625 11.2144 44.0625 11 44 11C43.9063 11 43.9063 11.2144 44 11.2144ZM39.3125 34.3436C39.2188 34.3436 39.2188 34.558 39.3125 34.558C39.375 34.558 39.375 34.3436 39.3125 34.3436ZM41.2501 38.3567C41.1563 38.3874 41.1563 38.1729 41.2501 38.1422C41.3126 38.1422 41.3126 38.3567 41.2501 38.3567ZM33.5 18.6586H33.4063C33.4063 18.6586 33.2812 18.8425 33.2812 18.8731L33.375 18.8425C33.4375 18.7506 33.5 18.6893 33.5 18.6586ZM43.5937 14.2166C43.5626 14.186 43.5312 14.1247 43.5312 14.0941L43.4376 14.186V14.2166L43.5937 14.3392V14.2166ZM46.5938 45.9541C46.5938 45.8621 46.7501 45.8928 46.7501 45.9847C46.7188 46.0766 46.5626 46.0766 46.5938 45.9541ZM39.4063 27.0219C39.375 27.1137 39.5 27.2364 39.5625 27.1444C39.5938 27.0525 39.4688 26.9912 39.4063 27.0219ZM41.625 14.5536C41.75 14.523 41.75 14.3085 41.625 14.3392C41.5938 14.3392 41.5938 14.5536 41.625 14.5536ZM43.9688 44.6368C43.8438 44.6368 43.8125 44.5449 43.9375 44.5449C43.9688 44.5449 43.9688 44.6368 43.9688 44.6368C44.0625 44.6368 44.0938 44.79 44 44.79C43.9688 44.79 43.9688 44.6368 43.9688 44.6368ZM41.0938 35.8752C41.1251 35.9978 41.1876 35.9672 41.2812 35.9365C41.2812 35.814 41.1251 35.814 41.0938 35.8752ZM22.8125 19.2101C22.7813 19.1794 22.7188 19.1794 22.6563 19.2101V19.3326C22.75 19.3326 22.8438 19.302 22.8125 19.2101ZM36.5937 41.4814C36.5626 41.4507 36.5001 41.4202 36.4688 41.4202C36.4688 41.4814 36.5001 41.512 36.5313 41.5427C36.5626 41.5733 36.5626 41.604 36.6251 41.604C36.6251 41.604 36.6562 41.6345 36.6876 41.6345L36.6251 41.5427C36.6251 41.512 36.6251 41.4814 36.5937 41.4814ZM42.6563 44.7287C42.6563 44.6675 42.6875 44.6062 42.7188 44.6062C42.7813 44.6062 42.8125 44.7593 42.75 44.8205L42.6563 44.7287ZM16.1563 44.4223C16.0938 44.4223 16.125 44.2692 16.0312 44.2998C15.9063 44.3917 16.0938 44.5449 16.1563 44.4223ZM44.2501 45.3413C44.125 45.372 44.0938 45.1882 44.2188 45.1576C44.2501 45.1576 44.2813 45.3413 44.2501 45.3413ZM32.7188 38.2035C32.8125 38.2035 32.8438 38.3567 32.75 38.3567C32.6563 38.3874 32.625 38.2342 32.7188 38.2035ZM40.2814 17.0044C40.1875 17.0044 40.1562 16.8206 40.25 16.8206C40.3125 16.8206 40.3438 17.0044 40.2814 17.0044ZM34.625 40.3479C34.5625 40.3479 34.5938 40.5317 34.6563 40.5317C34.75 40.5317 34.7188 40.3479 34.625 40.3479ZM42.8438 17.9234H42.8125L42.75 18.1685C42.8438 18.0766 42.9375 17.9234 42.9375 17.8928C42.9063 17.8928 42.875 17.9234 42.8438 17.9234ZM43.9063 16.3304C43.9688 16.3304 43.9375 16.1466 43.875 16.1466C43.7813 16.1466 43.8125 16.3304 43.9063 16.3304ZM39.5938 16.361C39.625 16.361 39.6563 16.5449 39.625 16.5449C39.5 16.5449 39.4688 16.361 39.5938 16.361ZM38.9687 16.3917C39.0939 16.3917 39.125 16.5755 39.0001 16.5755C38.9687 16.5755 38.9376 16.3917 38.9687 16.3917ZM42.9688 13.0832C43.0625 13.0832 43.0313 12.93 42.9375 12.93C42.8438 12.93 42.875 13.0832 42.9688 13.0832ZM42.7188 38.9694C42.8125 38.9694 42.8438 39.1225 42.75 39.1225C42.6563 39.1225 42.625 38.9694 42.7188 38.9694ZM39.9376 17.3414C39.8438 17.3414 39.8438 17.1882 39.9376 17.1882C40.0313 17.1882 40.0313 17.3414 39.9376 17.3414ZM41.6563 19.7921C41.75 19.7921 41.7188 19.639 41.625 19.639C41.5313 19.639 41.5625 19.7921 41.6563 19.7921ZM41.5 17.2495C41.4064 17.2495 41.4064 17.0963 41.5 17.0963C41.5938 17.0963 41.5938 17.2495 41.5 17.2495ZM41.4688 16.361C41.5625 16.361 41.5625 16.5142 41.4688 16.5142C41.375 16.5142 41.375 16.361 41.4688 16.361ZM41.0313 36.7637C41.1251 36.7637 41.1251 36.6105 41.0313 36.6105C40.9376 36.6105 40.9376 36.7637 41.0313 36.7637ZM40.1562 16.4223C40.0626 16.4223 40.0312 16.2692 40.1251 16.2692C40.2187 16.2692 40.25 16.4223 40.1562 16.4223ZM48.1251 47.639C48.1251 47.547 48.2814 47.547 48.2814 47.639C48.2814 47.7308 48.1251 47.7308 48.1251 47.639ZM34.875 19.4245C34.7813 19.4245 34.75 19.2713 34.8438 19.2713C34.9375 19.2713 34.9688 19.4245 34.875 19.4245ZM43.2501 13.9716C43.3438 13.9716 43.3438 13.8184 43.2501 13.8184C43.1563 13.8184 43.1563 13.9716 43.2501 13.9716ZM34.2188 19.3939C34.3126 19.3939 34.3126 19.5471 34.2188 19.5471C34.1251 19.5471 34.1251 19.3939 34.2188 19.3939ZM35.9688 41.512C36.0625 41.512 36.0625 41.3589 35.9688 41.3589C35.875 41.3589 35.875 41.512 35.9688 41.512ZM42.5 39.3676C42.5939 39.3676 42.5939 39.5208 42.5 39.5208C42.4062 39.5208 42.4062 39.3676 42.5 39.3676ZM40.3438 12.9912C40.4375 12.9912 40.4375 12.8381 40.3438 12.8381C40.25 12.8381 40.25 12.9912 40.3438 12.9912ZM42.75 39.6128C42.8438 39.6128 42.875 39.7658 42.7813 39.7658C42.6875 39.7658 42.6563 39.6128 42.75 39.6128ZM42.1251 43.0744C42.0313 43.0744 42.0001 42.9213 42.0938 42.9213C42.1876 42.9213 42.2188 43.0744 42.1251 43.0744ZM44.6876 15.779C44.7812 15.779 44.7501 15.6258 44.6562 15.6258C44.5626 15.6258 44.5938 15.779 44.6876 15.779ZM40.2814 17.4026C40.1875 17.4026 40.1875 17.2188 40.2814 17.2188C40.3438 17.2188 40.3438 17.4026 40.2814 17.4026ZM41.3437 17.3414C41.2501 17.3414 41.2501 17.1575 41.3437 17.1575C41.4064 17.1575 41.4064 17.3414 41.3437 17.3414ZM44.1563 12.7155C44.2501 12.7155 44.2501 12.5317 44.1563 12.5317C44.0938 12.5317 44.0938 12.7155 44.1563 12.7155ZM39.625 13.6039C39.7188 13.6039 39.7188 13.4201 39.625 13.4201C39.5625 13.4201 39.5625 13.6039 39.625 13.6039ZM41.9688 38.9082C42.0626 38.9082 42.0626 39.092 41.9688 39.092C41.9063 39.092 41.9063 38.9082 41.9688 38.9082ZM45.6251 42.7374C45.5313 42.7374 45.5313 42.5536 45.6251 42.5536C45.6876 42.5536 45.6876 42.7374 45.6251 42.7374ZM40.0001 41.1444C40.0626 41.1444 40.0626 41.3282 40.0001 41.3282C39.9063 41.3282 39.9063 41.1444 40.0001 41.1444ZM45 43.4114C44.9064 43.4114 44.9064 43.2276 45 43.2276C45.0625 43.2276 45.0625 43.4114 45 43.4114ZM40.0001 13.7877C40.0937 13.7877 40.0937 13.6346 40.0001 13.6346C39.9063 13.6652 39.9063 13.8184 40.0001 13.7877ZM40.1562 21.0175C40.0626 21.0175 40.0626 20.8643 40.1562 20.8643C40.25 20.8337 40.25 20.9869 40.1562 21.0175ZM40.0313 18.9956C39.9376 18.9956 39.9376 18.8425 40.0313 18.8425C40.1251 18.8118 40.1251 18.965 40.0313 18.9956ZM41.2187 16.361C41.3126 16.361 41.3126 16.5142 41.2187 16.5142C41.1251 16.5449 41.1251 16.3917 41.2187 16.361ZM44 15.3195C44.0938 15.3195 44.0938 15.1663 44 15.1663C43.9063 15.1969 43.9063 15.3501 44 15.3195ZM41.6875 36.6412C41.7813 36.6105 41.7813 36.4573 41.6875 36.488C41.5938 36.488 41.5938 36.6412 41.6875 36.6412ZM43.9063 13.849C44 13.8184 44 13.6652 43.9063 13.6958C43.8125 13.6958 43.8125 13.849 43.9063 13.849ZM38.2813 34.0985C38.1875 34.1291 38.1875 33.976 38.2813 33.9453C38.375 33.9453 38.375 34.0985 38.2813 34.0985ZM44.7812 45.6478C44.6876 45.6478 44.6876 45.4946 44.7812 45.4946C44.875 45.4639 44.875 45.6171 44.7812 45.6478ZM42.2813 33.9453C42.2501 33.9147 42.2501 33.884 42.2501 33.8535C42.1563 33.884 42.0626 33.884 42.1251 33.976C42.1563 34.0066 42.2501 34.0066 42.2813 33.9453ZM43.875 45.5865C44 45.5865 44 45.7396 43.9063 45.7703H43.875C43.8438 45.709 43.8438 45.5865 43.875 45.5865ZM14.4375 44.6368C14.375 44.6675 14.375 44.698 14.375 44.7593C14.375 44.79 14.4063 44.8205 14.4688 44.79C14.5 44.7593 14.5 44.698 14.5 44.6368C14.4688 44.6368 14.4375 44.6675 14.4375 44.6368ZM39.8751 35.3852C39.8751 35.4157 39.8751 35.4157 39.8438 35.4464C39.8438 35.4157 39.8126 35.4157 39.7813 35.4157V35.3545C39.7188 35.2932 39.6876 35.2626 39.6563 35.2626L39.7188 35.2014L39.8751 35.3852ZM40.5938 17.4026L40.6875 17.2801H40.75L40.8438 17.372L40.5938 17.4026ZM42.4687 15.8096C42.5939 15.8096 42.5939 15.7484 42.5939 15.6565C42.4687 15.6565 42.4376 15.7177 42.4687 15.8096ZM46.7813 41.2977C46.8751 41.2977 46.8438 41.1751 46.7501 41.1751C46.6251 41.1751 46.6563 41.2977 46.7813 41.2977ZM47.0312 41.5733C46.9063 41.604 46.9063 41.7877 47.0312 41.7572C47.0626 41.7572 47.0626 41.5733 47.0312 41.5733ZM39.1875 13.6346C39.2188 13.6346 39.2188 13.4508 39.1875 13.4508C39.0625 13.4508 39.0625 13.6346 39.1875 13.6346ZM42.6875 15.5033C42.8125 15.5033 42.8125 15.3808 42.6875 15.3808C42.5939 15.3808 42.5939 15.5033 42.6875 15.5033ZM18.375 46.3829C18.2188 46.4136 18.3438 46.5974 18.4063 46.5974C18.4375 46.5361 18.375 46.4749 18.375 46.3829ZM43.75 40.4704C43.8438 40.4704 43.8438 40.6849 43.75 40.6849C43.7189 40.6849 43.7189 40.4704 43.75 40.4704ZM39.0939 16.1772C39.125 16.1772 39.125 16.3304 39.0939 16.3304C38.9687 16.3304 38.9687 16.1772 39.0939 16.1772ZM32.5938 20.8337C32.625 20.8337 32.625 20.6805 32.5938 20.6805C32.4688 20.6805 32.4688 20.8337 32.5938 20.8337ZM35.9063 17.5558C35.9375 17.5558 35.9375 17.4026 35.9063 17.4026C35.7813 17.4026 35.7813 17.5558 35.9063 17.5558ZM42.6563 12.9606C42.6875 12.9606 42.6875 12.8074 42.6563 12.8074C42.5314 12.8074 42.5314 12.9606 42.6563 12.9606ZM22.9688 21.8446C23.0625 21.8446 23.1563 21.8446 23.125 21.7527C23.0938 21.7221 23 21.7221 22.9688 21.7527V21.8446ZM46.6876 42.6761L46.7188 42.8293H46.5938C46.5938 42.7374 46.5938 42.6761 46.6876 42.6761ZM43.5626 13.6958C43.5001 13.6958 43.5001 13.849 43.5626 13.849C43.6564 13.849 43.6564 13.6958 43.5626 13.6958ZM46.0314 41.5733C46.125 41.5733 46.125 41.7265 46.0314 41.7265C45.9689 41.7265 45.9689 41.5733 46.0314 41.5733ZM44.9688 38.8468C44.9064 38.8468 44.9064 39 44.9688 39C45.0625 39 45.0625 38.8468 44.9688 38.8468ZM41.5313 38.5405C41.4688 38.5405 41.4688 38.3874 41.5313 38.3874C41.625 38.3874 41.625 38.5405 41.5313 38.5405ZM42.2188 38.755C42.1563 38.755 42.1563 38.6017 42.2188 38.6017C42.3126 38.6017 42.3126 38.755 42.2188 38.755ZM40.2187 19.4551C40.3125 19.4551 40.3125 19.6083 40.2187 19.6083C40.1562 19.6083 40.1562 19.4551 40.2187 19.4551ZM39.8126 16.453C39.9063 16.453 39.9063 16.6061 39.8126 16.6061C39.7501 16.6061 39.7501 16.453 39.8126 16.453ZM40.1562 13.8796C40.25 13.8796 40.25 13.7265 40.1562 13.7265C40.0937 13.7265 40.0937 13.8796 40.1562 13.8796ZM41.5938 15.9628C41.5313 15.9628 41.5313 15.8096 41.5938 15.8096C41.6875 15.8096 41.6875 15.9628 41.5938 15.9628ZM41.8438 36.8556C41.9375 36.8556 41.9375 36.7025 41.8438 36.7025C41.7813 36.7025 41.7813 36.8556 41.8438 36.8556ZM44.8439 39.337C44.7812 39.337 44.7812 39.4902 44.8439 39.4902C44.9375 39.4902 44.9375 39.337 44.8439 39.337ZM43 15.4726C42.9375 15.4726 42.9375 15.6258 43 15.6258C43.0938 15.6258 43.0938 15.4726 43 15.4726ZM31.8751 21.3545C31.9687 21.3545 31.9687 21.2013 31.8751 21.2013C31.8126 21.2013 31.8126 21.3545 31.8751 21.3545ZM35.7188 18.6893L35.75 18.8118H35.625L35.5937 18.6893H35.7188ZM42.4687 18.0766C42.5 18.0766 42.4687 17.9234 42.4376 17.9234C42.3126 17.9541 42.3438 18.1072 42.4687 18.0766ZM32.5938 38.5099C32.5313 38.5099 32.5313 38.3567 32.5938 38.3567C32.6875 38.3567 32.6875 38.5099 32.5938 38.5099ZM43.5312 13.2976C43.6251 13.2976 43.6251 13.1444 43.5312 13.1444C43.4688 13.1444 43.4688 13.2976 43.5312 13.2976ZM45.6876 42.4005C45.7813 42.4005 45.7813 42.5536 45.6876 42.5536C45.6251 42.5536 45.6251 42.4005 45.6876 42.4005ZM40.2814 13.4814C40.375 13.4814 40.375 13.3282 40.2814 13.3282C40.2187 13.3282 40.2187 13.4814 40.2814 13.4814ZM43.0313 16.1772C42.9688 16.1772 42.9688 16.0241 43.0313 16.0241C43.1251 16.0241 43.1251 16.1772 43.0313 16.1772ZM42.9688 44.698C43.0625 44.698 43.0625 44.8512 42.9688 44.8512C42.9063 44.8512 42.9063 44.698 42.9688 44.698ZM43.0625 16.5142C43 16.5142 43 16.6674 43.0625 16.6674C43.1563 16.6674 43.1563 16.5142 43.0625 16.5142ZM44.5313 42.6149C44.4688 42.6149 44.4688 42.4618 44.5313 42.4618C44.6251 42.4618 44.6251 42.6149 44.5313 42.6149ZM37.8437 15.9934C37.9375 15.9934 37.9375 16.1466 37.8437 16.1466C37.7812 16.1466 37.7812 15.9934 37.8437 15.9934ZM42.2188 13.7877C42.2501 13.7571 42.2501 13.6039 42.2188 13.6346C42.0938 13.6346 42.0938 13.7877 42.2188 13.7877ZM45.7501 43.9322C45.6876 43.9322 45.6876 43.779 45.7501 43.779C45.8437 43.779 45.8437 43.9322 45.7501 43.9322ZM45.7188 43.0438C45.8126 43.0438 45.8126 43.1969 45.7188 43.1969C45.6563 43.1969 45.6563 43.0438 45.7188 43.0438ZM45.6563 42.1553C45.7501 42.1553 45.7501 42.3085 45.6563 42.3085C45.5938 42.3085 45.5938 42.1553 45.6563 42.1553ZM39.5625 15.9934C39.5313 15.9934 39.5 15.8096 39.5313 15.8096C39.625 15.8096 39.6563 15.9934 39.5625 15.9934ZM45.7188 40.2561C45.8126 40.2254 45.7813 40.0723 45.6876 40.1028C45.6251 40.1028 45.6563 40.2561 45.7188 40.2561ZM41.1876 36.8863C41.2812 36.8863 41.2812 36.733 41.1876 36.733C41.1251 36.7637 41.1251 36.9168 41.1876 36.8863ZM33.8125 18.3217C33.9063 18.291 33.875 18.1379 33.7813 18.1685C33.7188 18.1685 33.75 18.3217 33.8125 18.3217ZM43.3751 13.4508C43.4688 13.4508 43.4688 13.2976 43.3751 13.2976C43.3126 13.3282 43.3126 13.4814 43.3751 13.4508ZM44.7812 42.4311C44.875 42.4311 44.875 42.5843 44.7812 42.5843C44.7187 42.6149 44.7187 42.4618 44.7812 42.4311ZM43.6564 45.6171C43.6251 45.6171 43.6251 45.4639 43.6564 45.4639C43.7813 45.4333 43.8125 45.5865 43.6564 45.6171ZM42.9063 39.6128C42.8438 39.6128 42.8438 39.4595 42.9063 39.4595C43 39.429 43 39.5821 42.9063 39.6128ZM41.1251 19.5777C41.2187 19.5777 41.2501 19.7309 41.1563 19.7309C41.0938 19.7309 41.0626 19.6083 41.1251 19.5777ZM41.6875 38.2954C41.625 38.2954 41.625 38.1422 41.6875 38.1422C41.7813 38.1116 41.7813 38.2647 41.6875 38.2954ZM37.8437 17.5252C37.9062 17.5252 37.9375 17.6783 37.875 17.6783C37.7812 17.709 37.7501 17.5558 37.8437 17.5252ZM17.375 43.3194H17.4688C17.4688 43.3194 17.5 43.3194 17.5 43.2889C17.4375 43.3501 17.375 43.4114 17.3438 43.4726C17.3125 43.4726 17.2813 43.4727 17.2813 43.4421L17.375 43.3194ZM46.375 43.1051C46.4688 43.0744 46.4688 43.2276 46.375 43.2582C46.3125 43.2582 46.3125 43.1051 46.375 43.1051ZM43.4376 14.0941C43.5312 14.0941 43.5001 13.9409 43.4063 13.9409C43.3438 13.9716 43.3751 14.0941 43.4376 14.0941ZM36.2188 41.512C36.2813 41.512 36.2501 41.3589 36.1875 41.3589C36.0938 41.3895 36.125 41.5427 36.2188 41.512ZM45.3438 41.1139C45.4376 41.1139 45.4688 41.267 45.3751 41.267C45.3125 41.267 45.2813 41.1139 45.3438 41.1139ZM40.3125 13.7265C40.4063 13.7265 40.375 13.5733 40.2814 13.5733C40.2187 13.5733 40.25 13.7265 40.3125 13.7265ZM34.3126 18.291C34.4062 18.291 34.3751 18.1379 34.2812 18.1379C34.2188 18.1379 34.2501 18.291 34.3126 18.291ZM41.5313 14.7068C41.625 14.7068 41.5938 14.5536 41.5 14.5536C41.4375 14.5536 41.4688 14.7068 41.5313 14.7068ZM42.8125 11.9497C42.9063 11.9497 42.875 11.7965 42.7813 11.7965C42.7188 11.7965 42.75 11.9497 42.8125 11.9497ZM44.3751 43.4421C44.4063 43.4421 44.4376 43.5952 44.4063 43.5952C44.2813 43.5952 44.2501 43.4421 44.3751 43.4421ZM42.9688 17.7396C42.9688 17.709 42.9375 17.6477 42.9375 17.6477C42.8125 17.6783 42.8125 17.8009 42.9063 17.8009H42.9375C42.9688 17.8009 42.9688 17.7702 42.9688 17.7396ZM45.9062 39.5208C45.8437 39.5208 45.8751 39.674 45.9376 39.674C46.0314 39.674 46 39.5208 45.9062 39.5208ZM44.1563 45.8316C44.0313 45.8316 44 45.6783 44.125 45.6783C44.1563 45.6783 44.1875 45.8316 44.1563 45.8316ZM42.5625 34.9869L42.5 34.8949C42.4062 34.9256 42.4062 34.9869 42.4376 35.0481C42.5 35.0481 42.5314 35.0176 42.5625 34.9869ZM42.5625 43.5339C42.625 43.5339 42.6563 43.6871 42.5939 43.6871C42.5 43.6871 42.4687 43.5646 42.5625 43.5339ZM33.0313 19.3632C33.0626 19.3632 33.0313 19.2101 33.0001 19.2101C32.8751 19.2101 32.9063 19.3632 33.0313 19.3632ZM42.1251 38.2647C42.0313 38.2647 42.0313 38.1116 42.1251 38.1116C42.1876 38.1116 42.1876 38.2647 42.1251 38.2647ZM39.7188 16.0547C39.7813 16.0547 39.7813 16.2079 39.7188 16.2079C39.625 16.2079 39.625 16.0547 39.7188 16.0547ZM41.5625 16.7593C41.4688 16.7593 41.4688 16.6061 41.5625 16.6061C41.625 16.6061 41.625 16.7593 41.5625 16.7593ZM45.9376 40.8074C45.8437 40.8074 45.8437 40.9606 45.9376 40.9606C46 40.9606 46 40.8074 45.9376 40.8074ZM41.4688 15.0744C41.5313 15.0744 41.5313 15.2276 41.4688 15.2276C41.375 15.2276 41.375 15.0744 41.4688 15.0744ZM40.9376 17.035C41.0001 17.035 41.0001 17.1882 40.9376 17.1882C40.8438 17.1882 40.8438 17.035 40.9376 17.035ZM42.8438 39.2757C42.75 39.2757 42.75 39.1225 42.8438 39.1225C42.9063 39.1225 42.9063 39.2757 42.8438 39.2757ZM44.5313 39.1838C44.5938 39.1838 44.5626 39.0307 44.5001 39.0307C44.4063 39.0307 44.4376 39.1838 44.5313 39.1838ZM17.8125 28.9826C17.7188 28.9826 17.7188 28.8293 17.8125 28.8293C17.875 28.8293 17.875 28.9826 17.8125 28.9826ZM43.1876 15.3808C43.0938 15.3808 43.0938 15.5339 43.1876 15.5339C43.2501 15.5339 43.2501 15.3808 43.1876 15.3808ZM33.9688 18.1379C34.0313 18.1379 34.0313 17.9847 33.9688 17.9847C33.875 17.9847 33.875 18.1379 33.9688 18.1379ZM46.3438 43.7484C46.4063 43.7484 46.4063 43.9016 46.3438 43.9016C46.25 43.9016 46.25 43.7484 46.3438 43.7484ZM44.9688 40.0416C45.0313 40.0416 45.0313 39.8884 44.9688 39.8884C44.875 39.8884 44.875 40.0416 44.9688 40.0416ZM38.9376 43.9016C38.8438 43.9016 38.8438 44.0547 38.9376 44.0547C39.0001 44.0547 39.0001 43.9016 38.9376 43.9016ZM43.0625 17.8928C42.9688 17.8928 43 18.0459 43.0938 18.0459C43.1563 18.0459 43.1251 17.8928 43.0625 17.8928ZM43.0313 17.2495C42.9375 17.2495 42.9375 17.4026 43.0313 17.4026C43.0938 17.4026 43.0938 17.2495 43.0313 17.2495ZM41.75 43.5033C41.8125 43.5033 41.8438 43.6564 41.7813 43.6564C41.6875 43.6564 41.6563 43.5033 41.75 43.5033ZM43.7189 13.2057C43.7813 13.2057 43.7813 13.0525 43.7189 13.0525C43.6251 13.0525 43.6251 13.2057 43.7189 13.2057ZM37.6251 16.2692C37.6876 16.2692 37.6876 16.4223 37.6251 16.4223C37.5313 16.4223 37.5313 16.2692 37.6251 16.2692ZM45.1563 43.4726C45.0625 43.4726 45.0625 43.3194 45.1563 43.3194C45.2188 43.3194 45.2188 43.4726 45.1563 43.4726ZM45.125 42.9213C45.0313 42.9213 45.0313 42.7681 45.125 42.7681C45.1875 42.7681 45.1875 42.9213 45.125 42.9213ZM45.4376 43.5339C45.3438 43.5339 45.3125 43.3808 45.4063 43.3808C45.4688 43.3808 45.5001 43.5339 45.4376 43.5339ZM42.3751 39.7965C42.4376 39.7658 42.4376 39.9191 42.3751 39.9496C42.2813 39.9496 42.2813 39.7965 42.3751 39.7965ZM41.1563 37.1619C41.2187 37.1313 41.2187 37.2845 41.1563 37.3151C41.0626 37.3151 41.0626 37.1619 41.1563 37.1619ZM39.0001 16.8206C39.125 16.8206 39.1564 16.9737 39.0312 16.9737C39.0001 16.9737 38.9687 16.8206 39.0001 16.8206ZM42.4376 43.0131C42.4376 43.0744 42.4376 43.1356 42.4062 43.1356C42.3126 43.1356 42.2813 42.9826 42.3751 42.9826C42.4062 42.9826 42.4062 43.0131 42.4376 43.0131ZM39.625 35.4157L39.4688 35.3239C39.5313 35.3239 39.5625 35.2932 39.5938 35.2626L39.625 35.3239L39.7188 35.4157H39.625ZM36.1563 31.6478C36.2813 31.6478 36.2813 31.8009 36.1563 31.8009C36.125 31.8009 36.125 31.6478 36.1563 31.6478ZM41.9688 16.0241C41.9375 16.0241 41.9375 16.1772 41.9688 16.1772C42.0938 16.1772 42.0938 16.0241 41.9688 16.0241ZM43.3438 40.6236C43.3126 40.6236 43.3126 40.4704 43.3438 40.4704C43.4688 40.4704 43.4688 40.6236 43.3438 40.6236ZM46.5001 43.7177C46.4688 43.7177 46.4688 43.5646 46.5001 43.5646C46.6251 43.5646 46.6251 43.7177 46.5001 43.7177ZM35.2813 17.8315C35.2813 17.9234 35.1876 17.9847 35.0625 18.0766C35.0625 17.9847 35.1876 17.9234 35.2813 17.8315ZM36.4063 41.604C36.3751 41.604 36.3751 41.7572 36.4063 41.7572C36.5313 41.7572 36.5313 41.604 36.4063 41.604ZM43.5937 40.5931C43.5626 40.5931 43.5626 40.4399 43.5937 40.4399C43.7189 40.4399 43.7189 40.5931 43.5937 40.5931ZM34.5 20.0678C34.4062 20.0985 34.4062 19.9453 34.5 19.9147C34.5625 19.9147 34.5625 20.0678 34.5 20.0678ZM46.375 40.9606C46.5001 40.93 46.5001 40.7769 46.375 40.8074C46.3438 40.8074 46.3438 40.9606 46.375 40.9606ZM39.5 34.221C39.4375 34.221 39.4375 34.3436 39.5 34.3436C39.6563 34.3436 39.5938 34.221 39.5 34.221ZM42.3126 17.4639C42.4376 17.4333 42.4376 17.5864 42.3126 17.6171C42.2813 17.6171 42.2813 17.4639 42.3126 17.4639ZM44.3126 41.2977C44.2813 41.1751 44.4376 41.1751 44.4688 41.2977C44.4688 41.3282 44.3126 41.3282 44.3126 41.2977ZM46.125 41.4507C46.2188 41.4507 46.2188 41.3282 46.125 41.3282C46.0314 41.3282 46.0314 41.4507 46.125 41.4507ZM45.5938 43.8097C45.5001 43.8097 45.5001 43.6871 45.5938 43.6871C45.6876 43.6871 45.6876 43.8097 45.5938 43.8097ZM42.5939 13.849C42.7188 13.849 42.7188 13.849 42.7188 13.7571C42.7188 13.6652 42.5 13.849 42.5939 13.849ZM46.8751 46.1072C46.8751 46.1379 46.7188 46.1072 46.7188 46.0766C46.7501 45.9847 46.9063 45.9847 46.8751 46.1072ZM33.5313 18.9344C33.625 18.9344 33.625 18.8118 33.5313 18.8118C33.4375 18.8118 33.4375 18.9344 33.5313 18.9344ZM44.9688 41.2977L45.0938 41.1444V41.267L44.9688 41.3895V41.2977ZM44.0313 39.3063C44.0313 39.2145 43.9063 39.2145 43.9063 39.3063C43.9063 39.3983 44.0313 39.3983 44.0313 39.3063ZM43.7813 11.5208C43.875 11.4902 43.875 11.3676 43.7813 11.3982C43.6875 11.3982 43.6875 11.5208 43.7813 11.5208ZM43.4688 39.0307C43.5001 39 43.5001 38.8162 43.4688 38.8468C43.3751 38.8468 43.3751 39.0307 43.4688 39.0307ZM45.2813 39.7658V39.8578L45.3751 39.9496H45.4688L45.2813 39.7658ZM42.9688 40.2561V40.3479H42.8125C42.8125 40.2561 42.9063 40.2561 42.9688 40.2561ZM39.125 34.5886L39.2188 34.7111H39.3125C39.3125 34.6806 39.25 34.6193 39.2188 34.5886H39.125ZM39.7188 40.9606C39.625 40.9606 39.5938 40.8074 39.6876 40.8074C39.7188 40.8074 39.7501 40.9606 39.7188 40.9606ZM43.6875 42.8293C43.7189 42.8293 43.75 42.9826 43.7189 42.9826C43.6251 42.9826 43.5937 42.8293 43.6875 42.8293ZM42.4376 44.116C42.5 44.0854 42.5314 44.2079 42.4687 44.2385C42.3751 44.2385 42.3437 44.116 42.4376 44.116ZM46.6251 41.6959C46.5313 41.6959 46.5626 41.849 46.6563 41.849C46.6876 41.849 46.6563 41.6959 46.6251 41.6959ZM42.1563 15.779C42.0626 15.779 42.0938 15.9322 42.1876 15.9322C42.2188 15.9322 42.1876 15.779 42.1563 15.779ZM42.0313 13.0525C42.0626 13.0525 42.0313 12.8993 42.0001 12.8993C41.9063 12.8993 41.9375 13.0525 42.0313 13.0525ZM36.5001 18.1685C36.4688 18.1685 36.4376 18.0153 36.4688 18.0153C36.5626 18.0153 36.5937 18.1685 36.5001 18.1685ZM41.5313 13.512C41.4375 13.512 41.4688 13.6652 41.5625 13.6652C41.5938 13.6652 41.5625 13.512 41.5313 13.512ZM42.1876 17.6171C42.2813 17.6171 42.2813 17.709 42.1876 17.709C42.0626 17.709 42.0626 17.6171 42.1876 17.6171ZM41.875 14.7681C41.9063 14.7681 41.9063 14.9212 41.875 14.9212C41.7813 14.9212 41.7813 14.7681 41.875 14.7681ZM17.5313 43.1356C17.5313 43.1051 17.5625 43.1051 17.5938 43.0744C17.625 43.0744 17.625 43.1051 17.6563 43.1051L17.5 43.2889C17.5313 43.2582 17.5313 43.1663 17.5313 43.1356ZM32.8438 38.6017C32.8438 38.5099 32.9376 38.5099 32.9376 38.6017C32.9376 38.7243 32.8438 38.7243 32.8438 38.6017ZM41.5938 38.0197C41.6563 38.0197 41.6875 38.1422 41.625 38.1422C41.5313 38.1422 41.5 38.0197 41.5938 38.0197ZM43.2501 39.429C43.2813 39.429 43.2813 39.5821 43.2501 39.5821C43.1563 39.5821 43.1563 39.429 43.2501 39.429ZM18 47.1488C17.9063 47.1488 17.9375 47.2714 17.9688 47.302C18.0625 47.302 18.0313 47.1488 18 47.1488ZM41.7813 15.1969C41.875 15.1969 41.9063 15.2888 41.8125 15.2888C41.6875 15.3195 41.6563 15.2276 41.7813 15.1969ZM44.5313 45.4026C44.5001 45.4026 44.5001 45.2495 44.5313 45.2495C44.6251 45.2495 44.6251 45.4026 44.5313 45.4026ZM39.0625 15.0744C39.1564 15.0744 39.1564 14.9212 39.0625 14.9212C39.0312 14.9212 39.0312 15.0744 39.0625 15.0744ZM43 18.291C43.0938 18.291 43.0938 18.1379 43 18.1379C42.9688 18.1379 42.9688 18.291 43 18.291ZM35.8125 19.4551C35.7813 19.4551 35.7813 19.302 35.8125 19.302C35.9063 19.302 35.9063 19.4551 35.8125 19.4551ZM42.875 16.116C42.8438 16.1466 42.8438 15.9934 42.875 15.9628C42.9688 15.9628 42.9688 16.116 42.875 16.116ZM36.4063 41.9715C36.3751 41.9715 36.4063 42.0941 36.4376 42.0941C36.5626 42.0941 36.5313 41.9715 36.4063 41.9715ZM14.0937 46.7506C14.0625 46.7812 14.0937 46.8731 14.125 46.9037L14.1875 46.8425C14.1875 46.7812 14.1563 46.7506 14.0937 46.7506ZM45.2188 45.7703C45.1563 45.7703 45.125 45.6783 45.1563 45.6171L45.2813 45.709C45.25 45.7396 45.25 45.7703 45.2188 45.7703ZM44.9375 43.9629V44.0241C44.9064 44.0241 44.875 43.9934 44.8439 43.9934V43.9629C44.8439 43.8402 44.9375 43.8402 44.9375 43.9629ZM36.4688 18.1685C36.5001 18.1685 36.5001 18.291 36.4688 18.291C36.3438 18.291 36.3438 18.1685 36.4688 18.1685ZM36.1875 17.9234C36.2188 17.9234 36.2188 18.0459 36.1875 18.0459C36.0625 18.0766 36.0625 17.9541 36.1875 17.9234ZM42.6875 12.7155C42.7813 12.6849 42.7813 12.5317 42.6875 12.5624C42.6563 12.5624 42.6563 12.7155 42.6875 12.7155ZM46.9063 42.0941L46.9376 42.186L47.0626 42.1553L46.9063 42.0328V42.0941ZM42.7813 41.512C42.7188 41.512 42.7188 41.3895 42.7813 41.3895C42.875 41.3895 42.875 41.512 42.7813 41.512ZM39.6563 19.3939C39.6563 19.3326 39.7813 19.3326 39.7813 19.3939C39.7813 19.4858 39.6563 19.4858 39.6563 19.3939ZM35.5312 41.1751C35.4376 41.1751 35.4376 41.2977 35.5312 41.2977C35.5937 41.2977 35.5937 41.1751 35.5312 41.1751ZM15.875 47.547V47.6696C15.9063 47.6696 15.9375 47.639 15.9688 47.639V47.5165C15.9375 47.547 15.9063 47.547 15.875 47.547ZM39.0625 34.4661C39.125 34.4661 39.125 34.3436 39.0625 34.3436C38.9687 34.3436 38.9687 34.4661 39.0625 34.4661ZM45.3438 40.7462C45.3438 40.8381 45.4376 40.8381 45.4376 40.7462C45.4063 40.6236 45.3125 40.6236 45.3438 40.7462ZM37.0313 32.0459C37.0625 32.0153 37.0625 31.8928 37.0313 31.9234C36.9063 31.9234 36.9063 32.0459 37.0313 32.0459ZM42.75 16.5449C42.6563 16.5449 42.6563 16.6368 42.75 16.6368C42.875 16.6061 42.875 16.5142 42.75 16.5449ZM40.1251 16.0241L39.9688 16.2079V16.1466C39.9688 16.116 40.0001 16.0853 40.0313 16.0241H40.1251ZM44 41.0832C44 41.1139 43.875 41.1139 43.875 41.0832C43.875 40.9606 44 40.9606 44 41.0832ZM39.5625 15.2888C39.5938 15.2888 39.5938 15.4114 39.5625 15.4114C39.4375 15.4114 39.4375 15.3195 39.5625 15.2888ZM14.4375 46.8731V46.7199C14.3125 46.7506 14.3125 46.9037 14.4375 46.8731ZM46.6251 40.93C46.5938 40.93 46.5938 41.0525 46.6251 41.0525C46.7501 41.0525 46.7501 40.93 46.6251 40.93ZM32.7813 38.4792C32.8438 38.4792 32.8438 38.6017 32.7813 38.6017C32.6875 38.6324 32.6875 38.5099 32.7813 38.4792ZM47.3438 42.4005C47.3125 42.3085 47.1875 42.3085 47.2189 42.4005C47.2189 42.4618 47.3438 42.4618 47.3438 42.4005ZM44.0938 42.2473L43.9375 42.0941H44.0625C44.0625 42.1248 44.0938 42.1553 44.0938 42.186V42.2473ZM36.5313 41.849L36.6251 41.9715V41.849L36.5313 41.7572V41.849ZM14.7812 48.7724C14.8125 48.8031 14.9063 48.7418 14.9063 48.6806C14.8438 48.6499 14.7812 48.6806 14.7812 48.7724ZM36.8439 17.0963C36.8439 17.1882 36.9375 17.1882 36.9375 17.0963C36.9063 17.0044 36.8125 17.0044 36.8439 17.0963ZM40.6875 12.5624C40.6563 12.4705 40.5625 12.4705 40.5938 12.5624C40.5938 12.6543 40.6875 12.6543 40.6875 12.5624ZM40.6563 18.1685C40.75 18.1685 40.75 18.2604 40.6563 18.2604C40.5625 18.291 40.5625 18.1991 40.6563 18.1685ZM43.1251 13.3282L42.8438 13.6346H42.9063L43.1251 13.3282ZM35.9688 18.5361V18.4442C35.9688 18.4136 36.0625 18.3217 36.0938 18.291V18.3217L35.9688 18.5361ZM33.4063 19.4245C33.4688 19.4245 33.4375 19.3326 33.375 19.3326C33.2812 19.3632 33.3125 19.4551 33.4063 19.4245ZM36.0313 19.0569C36.0313 19.1794 36.0313 19.1794 36 19.1794C35.875 19.1794 36.0313 18.965 36.0313 19.0569ZM44.2501 41.0832C44.2501 41.1751 44.125 41.1751 44.125 41.0832C44.125 41.0525 44.2501 41.0525 44.2501 41.0832ZM41.6563 15.442C41.6875 15.442 41.6875 15.5646 41.6563 15.5646C41.5625 15.5646 41.5625 15.442 41.6563 15.442ZM43.7813 44.3917C43.6875 44.3917 43.6875 44.2998 43.75 44.2692L43.8125 44.3304C43.8125 44.361 43.8125 44.3917 43.7813 44.3917ZM43.4688 40.3173C43.4688 40.2254 43.5626 40.1948 43.5626 40.2866C43.5626 40.3479 43.4688 40.3786 43.4688 40.3173ZM14.5 47.3939V47.4858C14.5625 47.4858 14.5938 47.4245 14.5938 47.3632C14.5625 47.3327 14.5625 47.3632 14.5 47.3939ZM43.1876 17.3107C43.2813 17.3107 43.2813 17.3107 43.2813 17.2495C43.2813 17.1575 43.0938 17.3107 43.1876 17.3107ZM42.9063 12.3479C43 12.3479 43 12.3479 43 12.2867C43 12.1947 42.8125 12.3479 42.9063 12.3479ZM19.125 43.5952C19.1875 43.5952 19.2188 43.6871 19.1563 43.6871C19.0625 43.6871 19.0313 43.5952 19.125 43.5952ZM44.1563 44.6368C44.1563 44.6675 44.1875 44.698 44.2188 44.7287V44.79C44.125 44.79 44.0938 44.698 44.1563 44.6368ZM46.9376 42.6761L47.0939 42.6455C47.0939 42.7068 46.9687 42.7374 46.9376 42.7374V42.6761ZM38.7501 43.8097C38.6876 43.8097 38.6876 43.9016 38.7501 43.9016C38.8438 43.9016 38.8438 43.8097 38.7501 43.8097ZM41.2187 13.9103C41.2187 13.9716 41.3126 13.9716 41.3126 13.9103C41.3126 13.8184 41.2187 13.8184 41.2187 13.9103ZM44.6251 41.1751C44.6251 41.0832 44.6876 41.0525 44.6876 41.1444C44.7187 41.267 44.6562 41.2977 44.6251 41.1751ZM44.2501 43.7484C44.2188 43.7177 44.1875 43.6871 44.1563 43.6871C44.1563 43.6564 44.1563 43.6259 44.1875 43.6259C44.2501 43.5952 44.2813 43.6871 44.2501 43.7484ZM36.4376 17.2188C36.5313 17.2188 36.5313 17.2188 36.5313 17.1269C36.5001 17.035 36.4063 17.2188 36.4376 17.2188ZM44.5938 39.5208C44.5313 39.5208 44.5313 39.6128 44.5938 39.6128C44.6876 39.5821 44.6876 39.4902 44.5938 39.5208ZM41.8125 38.9082C41.8125 38.8468 41.9063 38.8468 41.9063 38.9082C41.9063 39 41.8125 39 41.8125 38.9082ZM39.7501 16.8512C39.7501 16.9431 39.6563 16.9431 39.6563 16.8512C39.6563 16.7899 39.7501 16.7899 39.7501 16.8512ZM42.4376 36.5798C42.3437 36.5798 42.3437 36.6718 42.4376 36.6718C42.5 36.6718 42.5 36.5798 42.4376 36.5798ZM44.3438 16.9431C44.4063 16.9431 44.4063 16.8512 44.3438 16.8512C44.2501 16.8512 44.2501 16.9431 44.3438 16.9431ZM41.3437 37.7746L41.4375 37.8666H41.3437L41.2501 37.7746H41.3437ZM45.0313 42.5843H44.875C44.875 42.523 44.9688 42.523 45.0313 42.523V42.5843ZM47.0001 43.6259C47.0312 43.5952 47.0312 43.7177 47.0001 43.7484C46.9063 43.7484 46.9063 43.6259 47.0001 43.6259ZM21.5 46.3524C21.4375 46.4136 21.5 46.4749 21.5313 46.4749C21.5313 46.4442 21.5625 46.4136 21.5938 46.3829C21.5313 46.3829 21.5313 46.3217 21.5 46.3524ZM42.5314 18.8118C42.5314 18.8425 42.625 18.8425 42.625 18.8118C42.625 18.6893 42.5314 18.6893 42.5314 18.8118ZM45.4063 40.3786C45.4063 40.5011 45.5001 40.5011 45.5001 40.3786C45.5001 40.3479 45.4063 40.3479 45.4063 40.3786ZM43.9375 12.6236C44 12.6236 44 12.5317 43.9375 12.5317C43.8438 12.5624 43.8438 12.6543 43.9375 12.6236ZM35.9688 18.0766C35.9375 18.0766 35.9375 17.9541 35.9688 17.9541C36.0625 17.9541 36.0625 18.0766 35.9688 18.0766ZM35.3751 19.0875C35.3438 19.0875 35.3438 18.9956 35.3751 18.9956C35.5001 18.9956 35.5001 19.0875 35.3751 19.0875ZM39.625 34.5274C39.625 34.4355 39.5 34.4355 39.5 34.5274C39.5 34.558 39.625 34.558 39.625 34.5274ZM43.8125 41.3282C43.9063 41.3282 43.9063 41.4507 43.8125 41.4507C43.7813 41.4507 43.7813 41.3282 43.8125 41.3282ZM43.625 40.8381C43.6564 40.8381 43.7189 40.8994 43.75 40.93H43.625L43.5937 40.8381H43.625ZM43.8125 14.8293C43.875 14.8293 43.875 14.8293 43.875 14.7068C43.875 14.6761 43.7189 14.8293 43.8125 14.8293ZM14.9063 46.628C14.8125 46.628 14.8438 46.7199 14.875 46.7506C14.9375 46.7506 14.9375 46.6587 14.9063 46.628ZM43 14.2473C43 14.2166 42.875 14.3698 42.9063 14.3698C43 14.3698 43 14.3698 43 14.2473ZM43.3126 13.1751C43.3751 13.1444 43.3751 13.0525 43.3126 13.0832C43.2188 13.0832 43.2188 13.1751 43.3126 13.1751ZM43.2188 40.7462L43.2501 40.8687H43.1251L43.2188 40.7462ZM44.3751 11.9803C44.3751 11.8884 44.3126 11.8884 44.3126 11.9803C44.3126 12.1028 44.3751 12.1028 44.3751 11.9803ZM17.75 47.9147C17.7813 47.9147 17.7813 47.9147 17.7813 47.9453C17.7813 47.9453 17.8125 47.9453 17.8438 47.9147C17.875 47.8228 17.75 47.7922 17.75 47.9147ZM43.9063 41.6959C44.0313 41.6959 44.0313 41.7572 43.9063 41.7572C43.8125 41.7572 43.8125 41.6959 43.9063 41.6959ZM37.1875 42.0635C37.0938 42.0635 37.0938 42.1248 37.1875 42.1248C37.3125 42.1248 37.3125 42.0635 37.1875 42.0635ZM44.3126 38.9694C44.3126 38.9387 44.2813 38.9082 44.2501 38.8775H44.1563L44.2501 38.9694H44.3126ZM45.125 41.7877C45.1563 41.8797 45.1563 41.8797 45.0938 41.8797C45 41.8797 45.125 41.6959 45.125 41.7877ZM15.0625 46.3829C15.0938 46.4749 15.0625 46.4442 15.0625 46.5361C15.1563 46.5054 15.1563 46.3524 15.0625 46.3829ZM21.2188 45.8928C21.1563 45.9234 21.1563 45.9541 21.1563 46.0153C21.25 46.0153 21.25 45.9234 21.2188 45.8928ZM40.1875 18.6893C40.1562 18.5667 40.25 18.5667 40.2814 18.6893C40.2814 18.7199 40.1875 18.7199 40.1875 18.6893ZM32.6875 38.7855C32.6875 38.755 32.7813 38.7243 32.7813 38.755C32.8125 38.8468 32.7188 38.8775 32.6875 38.7855ZM41.5 17.0044L41.4688 16.8512H41.5625L41.5 17.0044ZM45.25 42.1248H45.0938L45.1563 42.0328L45.25 42.1248ZM44.125 12.2254C44.2188 12.2254 44.2188 12.2254 44.2188 12.1335C44.2188 12.1028 44.0625 12.2254 44.125 12.2254ZM40.4375 15.9322L40.375 16.0241L40.2814 15.9322H40.4375ZM20.7813 46.6894H20.9063V46.628C20.8125 46.628 20.7813 46.628 20.7813 46.6894ZM47.4063 41.7572L47.3125 41.6652V41.7572L47.4375 41.8184L47.4063 41.7572ZM43.3438 15.5339L43.2501 15.7177L43.4376 15.5033L43.3438 15.5339ZM43.5626 40.6849C43.5626 40.7156 43.4688 40.7462 43.4688 40.7156C43.4688 40.6236 43.5626 40.5931 43.5626 40.6849ZM37.6563 27.1751C37.5938 27.2364 37.5313 27.2364 37.5001 27.2364L37.5626 27.1444C37.5938 27.1751 37.6251 27.1751 37.6563 27.1751ZM38.3438 16.116C38.4375 16.116 38.4375 16.116 38.4375 16.0241C38.4375 15.9628 38.2813 16.1466 38.3438 16.116ZM44 13.5733C44.0625 13.5733 44.0625 13.5733 44.0625 13.512C44.0313 13.4201 43.9063 13.6039 44 13.5733ZM35.6562 19.5471L35.625 19.7002L35.5312 19.7309L35.6562 19.5471ZM40.75 14.0941C40.7813 14.186 40.8438 14.186 40.8126 14.0941C40.8126 14.0022 40.75 14.0022 40.75 14.0941ZM35.0625 40.5011C35.0313 40.4092 34.9688 40.4399 35 40.5317C35 40.5931 35.0625 40.5624 35.0625 40.5011ZM38.0625 15.6565C38.0625 15.7484 38.0625 15.7484 38 15.7484C37.9062 15.7484 38.0625 15.6258 38.0625 15.6565ZM44.5938 40.4092C44.5938 40.4399 44.5001 40.4399 44.5001 40.4092C44.5001 40.3173 44.5938 40.3173 44.5938 40.4092ZM34.1563 18.3829C34.1563 18.291 34.0626 18.291 34.0626 18.3829C34.0626 18.4136 34.1563 18.4136 34.1563 18.3829ZM42.9063 40.5011C42.9063 40.5317 42.8125 40.5317 42.8125 40.5011C42.8125 40.4092 42.9063 40.4092 42.9063 40.5011ZM40.5938 14.3392C40.5938 14.3698 40.6875 14.3698 40.6875 14.3392C40.6875 14.2473 40.5938 14.2473 40.5938 14.3392ZM35.0938 19.2101C35.0938 19.2407 35.0938 19.2407 35 19.2407C34.9375 19.2713 35.0938 19.0875 35.0938 19.2101ZM15.1563 44.453C15.0938 44.453 15.0625 44.4837 15.0938 44.5449C15.1875 44.5449 15.1563 44.4837 15.1563 44.453ZM45.6563 41.849C45.7501 41.849 45.7501 41.9103 45.6563 41.9103C45.5938 41.9103 45.5938 41.849 45.6563 41.849ZM43.2188 44.9738C43.1563 44.9738 43.1563 44.9125 43.2188 44.9125C43.3126 44.9125 43.3126 44.9738 43.2188 44.9738ZM38.0313 40.3479C38.0313 40.4092 38.0313 40.4399 38.125 40.4704C38.0313 40.5011 38 40.4092 37.9375 40.3786C37.9375 40.3786 37.9689 40.3786 38.0313 40.3479ZM40.8751 43.3808C40.8438 43.3808 40.8126 43.3501 40.7813 43.3194C40.8126 43.3194 40.8438 43.2889 40.8751 43.2889C40.9063 43.2889 40.9063 43.3808 40.8751 43.3808ZM45.4063 43.1356C45.4063 43.0438 45.4688 43.0438 45.4688 43.1356C45.4688 43.1969 45.4063 43.1969 45.4063 43.1356ZM40.375 15.2888C40.375 15.3808 40.2814 15.3808 40.2814 15.2888C40.25 15.2582 40.3438 15.2582 40.375 15.2888ZM41.0313 17.6783C41.0313 17.7702 40.9688 17.7702 40.9688 17.6783C40.9688 17.6171 41.0313 17.6171 41.0313 17.6783ZM43.3126 45.0657C43.3438 45.0657 43.3438 45.1576 43.3126 45.1576C43.2188 45.1576 43.2188 45.0657 43.3126 45.0657ZM44.9064 45.7703C44.875 45.709 44.9375 45.709 44.9688 45.7703C44.9688 45.8621 44.9064 45.8621 44.9064 45.7703ZM38.375 34.1291V34.0985L38.4375 34.1291V34.2516C38.4063 34.221 38.375 34.1598 38.375 34.1291ZM43.5937 45.3108C43.6251 45.3108 43.6251 45.4026 43.5937 45.4026C43.5001 45.4026 43.5001 45.3108 43.5937 45.3108ZM43.6564 39.1532H43.7813L43.625 39.0613L43.6564 39.1532ZM42.1563 37.9891C42.1563 38.0197 42.1563 38.0504 42.1876 38.0809L42.0313 38.0197L42.1563 37.9891ZM41.0001 43.4421H41.1251V43.5339L41.0001 43.4421ZM32.0001 38.0504V37.9279L32.0937 38.0504H32.0001ZM40.4063 18.3217C40.4375 18.3217 40.4688 18.291 40.5 18.291L40.4063 18.4442V18.3217ZM45.4063 41.849H45.5001V41.9103H45.4063V41.849ZM46.25 43.7484C46.25 43.779 46.25 43.779 46.1563 43.779C46.0938 43.779 46.25 43.6564 46.25 43.7484ZM35.9375 17.8928C35.9688 17.8928 35.9688 17.9541 35.9375 17.9541C35.8125 17.9541 35.8125 17.8928 35.9375 17.8928ZM45.0625 41.512C45.0625 41.3895 45.125 41.3895 45.125 41.512C45.125 41.5427 45.0625 41.5427 45.0625 41.512ZM46.1875 40.9606C46.1875 40.9912 46.25 40.9912 46.25 40.9606C46.25 40.8381 46.1875 40.8381 46.1875 40.9606ZM19.2188 43.7484H19.25C19.2188 43.779 19.1875 43.8402 19.1875 43.9016C19.1563 43.8402 19.1563 43.7484 19.2188 43.7484ZM44.0938 45.127H44V45.035L44.0938 45.127ZM36.2813 17.372V17.2801L36.1875 17.4333L36.2813 17.372ZM19.4375 44.8512L19.5313 44.9431V44.8512H19.4375ZM34.5 19.0263L34.5938 19.1182H34.5V19.0263ZM36.2813 41.604H36.3751L36.2813 41.512V41.604ZM41.375 14.7068L41.2812 14.7987H41.375V14.7068ZM41.8438 43.7484V43.6564L41.9375 43.7177L41.8438 43.7484ZM17.2188 43.779C17.1875 43.779 17.1875 43.6871 17.2188 43.6871H17.2813L17.2188 43.779ZM39.9376 14.6455C39.9376 14.5536 39.8751 14.5536 39.8751 14.6455C39.8751 14.6761 39.9376 14.6761 39.9376 14.6455ZM42.1876 44.116V43.9934L42.2501 44.116H42.1876ZM32.5938 38.755L32.5313 38.6324H32.5938V38.755ZM40.8438 18.6586L40.75 18.5361L40.7813 18.6586H40.8438ZM43.3126 40.2254C43.2813 40.1335 43.3126 40.1335 43.3438 40.2254C43.3438 40.3173 43.3126 40.3173 43.3126 40.2254ZM38.9376 25.5821C38.8751 25.5821 38.8438 25.5515 38.8438 25.5208C38.8751 25.5515 38.9376 25.5515 38.9687 25.5515C38.9687 25.5515 38.9687 25.5821 38.9376 25.5821ZM41.75 16.7287C41.75 16.8206 41.7188 16.8512 41.7188 16.7593C41.7188 16.698 41.75 16.6674 41.75 16.7287ZM43.5312 40.0416C43.5312 39.9496 43.5626 39.9496 43.5626 40.0416C43.5626 40.1028 43.5312 40.1028 43.5312 40.0416ZM43.2188 38.7855C43.2188 38.8468 43.2501 38.8468 43.2501 38.7855C43.2501 38.6937 43.2188 38.6937 43.2188 38.7855ZM43.4376 14.4617C43.5312 14.4617 43.5312 14.4311 43.4376 14.4311C43.3751 14.4311 43.3751 14.4617 43.4376 14.4617ZM40.5313 20.4048V20.4967H40.4688L40.5313 20.4048ZM42.3751 37.1619V37.2233H42.4687L42.3751 37.1619ZM36.5626 42.1553H36.6562L36.5626 42.0941V42.1553ZM19.1875 44.6368V44.7287H19.25L19.1875 44.6368ZM39.8751 13.512L39.8126 13.6039H39.8751V13.512ZM45.3125 42.9826L45.1875 42.9213H45.2813L45.3125 42.9826ZM42.875 39.8578V39.7658L42.9375 39.8578H42.875ZM40.4688 16.5755V16.5142H40.5625L40.4688 16.5755ZM34.3437 19.2713C34.4375 19.2407 34.4375 19.2713 34.3437 19.302C34.2812 19.302 34.2812 19.2713 34.3437 19.2713ZM42.8438 12.5317V12.593L42.9375 12.5317H42.8438ZM43.2188 39.092C43.2501 39.1838 43.2813 39.1838 43.2501 39.092C43.2501 39.0307 43.2188 39.0307 43.2188 39.092ZM13.0625 44.698V44.6062H13L13.0625 44.698ZM50.9375 52.9082C50.9688 52.9387 51 52.9694 51 53V52.9082H50.9375ZM41.5938 13.8184H41.5625L41.4688 13.9716L41.5938 13.8184ZM36.0313 38.8775C36.0313 38.8775 36.0625 38.8775 36.0938 38.8468V38.8775C36.0938 38.9387 36.0625 38.9082 36.0313 38.8775ZM46.25 42.0635H46.3125L46.25 42.1248V42.0635ZM36.2501 40.7462C36.2501 40.8074 36.2813 40.8381 36.3126 40.8381L36.2501 40.7462ZM38.0625 16.6368C38.0313 16.6368 38 16.6674 38 16.698L38.0938 16.6368H38.0625ZM32.25 38.1422L32.1562 38.1116H32.25V38.1422ZM39.625 21.9672V21.9365C39.5938 21.9365 39.5625 21.9672 39.5313 21.9672H39.625ZM17.2813 43.5339C17.25 43.5339 17.25 43.5646 17.2188 43.5646C17.2188 43.5646 17.2188 43.5339 17.25 43.5033C17.25 43.5033 17.25 43.5339 17.2813 43.5339ZM41.8125 13.3895L41.7813 13.4814H41.8125V13.3895ZM45.6563 40.5931H45.5626L45.6563 40.6236V40.5931ZM44.5313 43.8709C44.5626 43.8709 44.5626 43.8709 44.5938 43.9016C44.5626 43.9016 44.5313 43.8709 44.5001 43.8709H44.5313ZM50.9063 52.8469V52.8162H50.875L50.9063 52.8469ZM41.4375 43.779L41.4688 43.8097H41.4375V43.779ZM17.2188 43.8097L17.1875 43.8402V43.8097H17.2188ZM42.1876 16.1466C42.2188 16.116 42.2188 16.0853 42.2188 16.0853L42.1876 16.1466ZM27.6875 38.2954C27.6875 38.2954 27.6875 38.2647 27.7188 38.2647L27.6875 38.2954ZM41.1563 43.5952L41.1876 43.6259C41.1563 43.6259 41.1563 43.5952 41.1563 43.5952ZM44.2188 46.2298V46.2604V46.2298ZM35.2188 40.2254C35.2188 40.2561 35.2501 40.2561 35.2501 40.2866C35.2188 40.2561 35.2188 40.2561 35.2188 40.2254ZM43.0938 15.6258C43.0938 15.6565 43.0938 15.6565 43.0625 15.6565L43.0938 15.6258Z" fill="#030408"/>
</svg>
