<svg width="56" height="56" viewBox="0 0 56 56" fill="none" xmlns="http://www.w3.org/2000/svg">
<g clip-path="url(#clip0_5_3)">
<path d="M28 56C43.464 56 56 43.464 56 28C56 12.536 43.464 0 28 0C12.536 0 0 12.536 0 28C0 43.464 12.536 56 28 56Z" fill="#00B2FF"/>
<path d="M28.5 15C30.9853 15 33 12.9853 33 10.5C33 8.01472 30.9853 6 28.5 6C26.0147 6 24 8.01472 24 10.5C24 12.9853 26.0147 15 28.5 15Z" fill="#E6007A"/>
<path d="M43.5 23C45.9853 23 48 20.9853 48 18.5C48 16.0147 45.9853 14 43.5 14C41.0147 14 39 16.0147 39 18.5C39 20.9853 41.0147 23 43.5 23Z" fill="#E6007A"/>
<path d="M43.5 42C45.9853 42 48 39.9853 48 37.5C48 35.0147 45.9853 33 43.5 33C41.0147 33 39 35.0147 39 37.5C39 39.9853 41.0147 42 43.5 42Z" fill="#E6007A"/>
<path d="M12.5 23C14.9853 23 17 20.9853 17 18.5C17 16.0147 14.9853 14 12.5 14C10.0147 14 8 16.0147 8 18.5C8 20.9853 10.0147 23 12.5 23Z" fill="#E6007A"/>
<path d="M12.5 42C14.9853 42 17 39.9853 17 37.5C17 35.0147 14.9853 33 12.5 33C10.0147 33 8 35.0147 8 37.5C8 39.9853 10.0147 42 12.5 42Z" fill="#E6007A"/>
<path d="M28.5 50C30.9853 50 33 47.9853 33 45.5C33 43.0147 30.9853 41 28.5 41C26.0147 41 24 43.0147 24 45.5C24 47.9853 26.0147 50 28.5 50Z" fill="#E6007A"/>
<g filter="url(#filter0_b_5_3)">
<path d="M30.712 20C32.184 20 33.448 20.256 34.504 20.768C35.576 21.264 36.392 21.968 36.952 22.88C37.528 23.792 37.816 24.856 37.816 26.072C37.816 27.288 37.528 28.352 36.952 29.264C36.392 30.176 35.576 30.888 34.504 31.4C33.448 31.896 32.184 32.144 30.712 32.144H22.84V28.472H30.472C31.336 28.472 32.016 28.264 32.512 27.848C33.008 27.416 33.256 26.824 33.256 26.072C33.256 25.32 33.008 24.736 32.512 24.32C32.016 23.888 31.336 23.672 30.472 23.672H23.248L25.288 21.56V38H20.752V20H30.712Z" fill="white"/>
</g>
</g>
<defs>
<filter id="filter0_b_5_3" x="16.752" y="16" width="25.064" height="26" filterUnits="userSpaceOnUse" color-interpolation-filters="sRGB">
<feFlood flood-opacity="0" result="BackgroundImageFix"/>
<feGaussianBlur in="BackgroundImageFix" stdDeviation="2"/>
<feComposite in2="SourceAlpha" operator="in" result="effect1_backgroundBlur_5_3"/>
<feBlend mode="normal" in="SourceGraphic" in2="effect1_backgroundBlur_5_3" result="shape"/>
</filter>
<clipPath id="clip0_5_3">
<rect width="56" height="56" fill="white"/>
</clipPath>
</defs>
</svg>
