<svg width="500" height="500" viewBox="0 0 500 500" fill="none" xmlns="http://www.w3.org/2000/svg">
<rect width="500" height="500" fill="#2B0532"/>
<mask id="mask0_895_262" style="mask-type:alpha" maskUnits="userSpaceOnUse" x="-419" y="-490" width="1395" height="1319">
<path d="M124.645 -489.54L975.498 315.335L961.582 328.499L110.73 -476.376L124.645 -489.54Z" fill="#D9D9D9"/>
<path d="M86.874 -453.809L937.727 351.066L923.811 364.23L72.9582 -440.645L86.874 -453.809Z" fill="#D9D9D9"/>
<path d="M49.1025 -418.079L899.955 386.796L886.039 399.96L35.1867 -404.915L49.1025 -418.079Z" fill="#D9D9D9"/>
<path d="M11.331 -382.348L862.184 422.527L848.268 435.691L-2.58483 -369.184L11.331 -382.348Z" fill="#D9D9D9"/>
<path d="M-26.4405 -346.618L824.412 458.257L810.496 471.421L-40.3563 -333.454L-26.4405 -346.618Z" fill="#D9D9D9"/>
<path d="M-64.212 -310.887L786.641 493.987L772.725 507.151L-78.1278 -297.724L-64.212 -310.887Z" fill="#D9D9D9"/>
<path d="M-101.983 -275.157L748.869 529.718L734.953 542.882L-115.899 -261.993L-101.983 -275.157Z" fill="#D9D9D9"/>
<path d="M-139.755 -239.427L711.098 565.448L697.182 578.612L-153.671 -226.263L-139.755 -239.427Z" fill="#D9D9D9"/>
<path d="M-177.526 -203.696L673.326 601.179L659.41 614.343L-191.442 -190.532L-177.526 -203.696Z" fill="#D9D9D9"/>
<path d="M-215.298 -167.966L635.555 636.909L621.639 650.073L-229.214 -154.802L-215.298 -167.966Z" fill="#D9D9D9"/>
<path d="M-253.069 -132.235L597.783 672.64L583.867 685.804L-266.985 -119.071L-253.069 -132.235Z" fill="#D9D9D9"/>
<path d="M-290.841 -96.5049L560.012 708.37L546.096 721.534L-304.757 -83.341L-290.841 -96.5049Z" fill="#D9D9D9"/>
<path d="M-328.612 -60.7744L522.24 744.1L508.324 757.264L-342.528 -47.6106L-328.612 -60.7744Z" fill="#D9D9D9"/>
<path d="M-366.384 -25.044L484.469 779.831L470.553 792.995L-380.3 -11.8801L-366.384 -25.044Z" fill="#D9D9D9"/>
<path d="M-404.155 10.6864L446.697 815.561L432.781 828.725L-418.071 23.8503L-404.155 10.6864Z" fill="#D9D9D9"/>
</mask>
<g mask="url(#mask0_895_262)">
<path d="M499.999 250C499.999 388.071 388.07 500 249.999 500C111.928 500 -0.000976562 388.071 -0.000976562 250C-0.000976562 111.929 111.928 0 249.999 0C388.07 0 499.999 111.929 499.999 250Z" fill="#E6007A"/>
</g>
<path d="M175.621 154.428C163.147 145.345 148.873 141.46 134.597 141.46H46.9251L1.34082 356.806H115.836L125.03 313.031C134.612 311.914 143.909 309.196 152.731 304.852C154.097 304.179 155.445 303.477 156.773 302.746C160.406 311.321 165.226 319.292 171.23 326.531C179.307 336.269 189.171 343.908 200.381 349.429L200.384 349.43L200.771 349.621L201.164 349.803C213.574 355.558 226.772 357.995 240.008 357.995C253.3 357.995 266.298 355.753 278.804 351.238C284.739 349.095 290.463 346.526 295.96 343.539L293.152 356.806H407.647L416.841 313.031C426.423 311.914 435.72 309.196 444.542 304.852C455.182 299.612 464.676 292.623 472.848 283.994L472.859 283.983L473.014 283.819L473.165 283.656L473.168 283.652C481.083 275.088 487.462 265.38 492.085 254.612C496.843 243.529 499.463 231.711 499.463 219.416C499.463 207.197 496.871 195.354 491.755 184.265C486.383 172.321 478.198 162.142 467.432 154.428C454.958 145.345 440.684 141.46 426.408 141.46H338.736L333.611 165.673C326.738 158.923 318.844 153.456 310.126 149.3C297.641 143.209 284.299 140.668 270.967 140.668C257.675 140.668 244.676 142.91 232.171 147.425C220.292 151.714 209.24 157.691 199.106 165.275C196.722 167.05 194.408 168.901 192.162 170.825C187.611 164.573 182.081 159.057 175.621 154.428Z" fill="#2B0532"/>
<path fill-rule="evenodd" clip-rule="evenodd" d="M220.385 321.237L220.447 321.267L220.51 321.296C228.233 324.878 236.855 326.598 246.258 326.598C256 326.598 265.42 324.964 274.485 321.691C283.462 318.45 291.75 313.934 299.33 308.152C306.852 302.414 313.418 295.82 319.01 288.376L319.026 288.354L319.042 288.333C324.625 280.761 328.976 272.665 332.07 264.054C335.323 255.234 336.965 246.222 336.965 237.048C336.965 228.784 335.69 220.828 333.123 213.209C330.664 205.39 326.889 198.38 321.791 192.233C316.629 186.01 310.292 181.13 302.849 177.604C295.223 173.857 286.632 172.065 277.217 172.065C267.474 172.065 258.054 173.699 248.99 176.972C240.025 180.209 231.689 184.714 223.997 190.474C216.446 196.095 209.804 202.7 204.08 210.274L204.07 210.288C198.466 217.748 194.047 225.852 190.822 234.585L190.807 234.625L190.793 234.665C187.682 243.474 186.115 252.466 186.115 261.615C186.115 269.902 187.396 277.934 189.968 285.684L189.973 285.7L189.978 285.716C192.572 293.39 196.409 300.309 201.486 306.431C206.641 312.645 212.964 317.582 220.385 321.237ZM277.277 267.353L277.287 267.339C280.22 263.095 282.371 258.589 283.765 253.804C285.199 248.88 285.893 244.159 285.893 239.624C285.893 235.388 285.211 231.635 283.926 228.298L283.885 228.192L283.848 228.084C282.752 224.88 281.045 222.521 278.764 220.78C276.783 219.267 273.822 218.227 269.329 218.227C264.111 218.227 259.747 219.442 256.047 221.714L255.995 221.745L255.943 221.776C251.98 224.099 248.679 227.186 246.01 231.098C243.2 235.215 241.028 239.685 239.494 244.528C238.072 249.429 237.384 254.128 237.384 258.643C237.384 262.902 238.008 266.774 239.205 270.302C240.424 273.532 242.219 276.02 244.569 277.926C246.572 279.434 249.468 280.437 253.751 280.437C259.126 280.437 263.549 279.21 267.23 276.95C271.247 274.484 274.581 271.304 277.267 267.367L277.277 267.353Z" fill="#E6007A"/>
<path fill-rule="evenodd" clip-rule="evenodd" d="M163.626 179.92C157.109 175.142 149.419 172.858 140.847 172.858H78.4776L46.1855 325.41H96.7415L105.812 282.22H121.128C129.636 282.22 137.693 280.37 145.226 276.66C152.557 273.049 159.043 268.271 164.655 262.344L164.68 262.318L164.704 262.292C170.275 256.264 174.662 249.554 177.829 242.176C181.019 234.748 182.651 227.148 182.651 219.416C182.651 211.696 181.023 204.313 177.777 197.329C174.602 190.21 169.872 184.369 163.626 179.92ZM128.446 234.246L128.468 234.217C129.217 233.239 129.898 231.881 130.394 229.989L130.43 229.849L130.473 229.711C131.034 227.926 131.382 225.587 131.382 222.586C131.382 220.307 131.078 219.239 130.926 218.904C130.841 218.715 130.767 218.576 130.709 218.479L130.683 218.435L130.669 218.425H119.421L115.601 236.652H125.627C125.688 236.64 125.926 236.576 126.366 236.311C126.866 236.009 127.574 235.413 128.424 234.275L128.446 234.246Z" fill="#E6007A"/>
<path fill-rule="evenodd" clip-rule="evenodd" d="M455.437 179.92C448.92 175.142 441.23 172.858 432.658 172.858H370.289L337.996 325.41H388.552L397.623 282.22H412.939C421.447 282.22 429.504 280.37 437.037 276.66C444.368 273.049 450.854 268.271 456.466 262.344L456.491 262.318L456.515 262.292C462.086 256.264 466.473 249.554 469.64 242.176C472.83 234.748 474.462 227.148 474.462 219.416C474.462 211.696 472.834 204.314 469.588 197.33C466.413 190.21 461.683 184.369 455.437 179.92ZM420.257 234.246L420.279 234.217C421.028 233.239 421.709 231.881 422.204 229.989L422.241 229.849L422.284 229.711C422.845 227.926 423.193 225.587 423.193 222.586C423.193 220.307 422.889 219.239 422.737 218.904C422.652 218.715 422.578 218.576 422.52 218.479L422.494 218.435L422.48 218.425H411.232L407.412 236.652H417.438C417.499 236.64 417.737 236.576 418.177 236.311C418.677 236.009 419.385 235.413 420.235 234.275L420.257 234.246Z" fill="#E6007A"/>
<path fill-rule="evenodd" clip-rule="evenodd" d="M63.3058 162.4H124.079C132.291 162.4 139.565 164.583 145.706 169.089C151.667 173.332 156.179 178.899 159.216 185.715C162.344 192.44 163.911 199.541 163.911 206.977C163.911 214.421 162.341 221.755 159.25 228.952C156.175 236.116 151.913 242.637 146.491 248.504L146.474 248.522L146.458 248.539C141.008 254.296 134.712 258.934 127.589 262.442C120.333 266.016 112.573 267.799 104.36 267.799H87.4447L78.3739 310.989H31.8525L63.3058 162.4ZM84.2462 263.837H104.36C111.984 263.837 119.149 262.186 125.853 258.884C132.558 255.582 138.474 251.223 143.601 245.808C148.727 240.261 152.737 234.119 155.629 227.383C158.521 220.647 159.967 213.845 159.967 206.977C159.967 200.109 158.521 193.571 155.629 187.363C152.868 181.155 148.793 176.136 143.403 172.306C138.013 168.343 131.572 166.362 124.079 166.362H66.4991L36.7233 307.027H75.1754L84.2462 263.837ZM113.248 223.005L113.262 222.986C114.2 221.761 114.983 220.152 115.532 218.054L115.557 217.961L115.585 217.869C116.222 215.842 116.585 213.292 116.585 210.147C116.585 207.747 116.273 206.352 115.953 205.645C115.522 204.692 115.208 204.468 115.209 204.467L115.047 204.374L114.885 204.257C114.58 204.039 114.386 204.005 114.219 204.005H101.052L96.4028 226.194H108.895C109.181 226.194 109.733 226.1 110.613 225.57C111.384 225.105 112.272 224.311 113.233 223.024L113.248 223.005ZM91.5422 230.157L97.8523 200.043H114.219C115.271 200.043 116.257 200.373 117.177 201.033C118.097 201.561 118.886 202.552 119.543 204.005C120.201 205.458 120.529 207.505 120.529 210.147C120.529 213.581 120.135 216.552 119.346 219.062C118.689 221.571 117.703 223.685 116.388 225.402C115.205 226.987 113.956 228.175 112.642 228.968C111.327 229.76 110.078 230.157 108.895 230.157H91.5422ZM204.526 307.039L204.485 307.019C197.302 303.481 191.203 298.715 186.233 292.723C181.314 286.793 177.595 280.089 175.077 272.64L175.07 272.618C172.567 265.074 171.318 257.254 171.318 249.176C171.318 240.259 172.845 231.49 175.883 222.888L175.893 222.861L175.903 222.835C179.06 214.283 183.387 206.349 188.875 199.042L188.882 199.033C194.495 191.606 201.004 185.134 208.404 179.626C215.942 173.981 224.107 169.568 232.888 166.398C241.736 163.203 250.93 161.607 260.448 161.607C269.617 161.607 277.908 163.352 285.227 166.951C292.424 170.358 298.533 175.064 303.508 181.062C308.44 187.009 312.096 193.796 314.48 201.386C316.981 208.798 318.225 216.546 318.225 224.609C318.225 233.543 316.626 242.325 313.449 250.935C310.422 259.361 306.164 267.289 300.689 274.715L300.679 274.729L300.668 274.743C295.187 282.04 288.75 288.505 281.369 294.135C273.95 299.795 265.839 304.214 257.049 307.388C248.202 310.582 239.008 312.178 229.489 312.178C220.329 312.178 211.996 310.503 204.568 307.058L204.526 307.039ZM309.746 249.572C312.769 241.383 314.281 233.062 314.281 224.609C314.281 216.949 313.098 209.618 310.732 202.618C308.497 195.486 305.079 189.146 300.478 183.599C295.877 178.051 290.224 173.693 283.519 170.523C276.815 167.221 269.125 165.57 260.448 165.57C251.377 165.57 242.635 167.089 234.222 170.127C225.808 173.164 217.986 177.391 210.756 182.806C203.657 188.089 197.413 194.297 192.023 201.429C186.765 208.43 182.624 216.024 179.6 224.213C176.708 232.402 175.262 240.723 175.262 249.176C175.262 256.837 176.445 264.233 178.811 271.365C181.178 278.366 184.661 284.639 189.262 290.187C193.864 295.734 199.516 300.159 206.221 303.461C213.057 306.631 220.813 308.216 229.489 308.216C238.56 308.216 247.302 306.697 255.716 303.659C264.129 300.621 271.885 296.394 278.984 290.979C286.083 285.564 292.262 279.356 297.52 272.356C302.778 265.224 306.854 257.629 309.746 249.572ZM262.125 256.049L262.139 256.029C265.189 251.616 267.434 246.917 268.889 241.921C270.371 236.833 271.096 231.925 271.096 227.185C271.096 222.732 270.379 218.733 268.996 215.143L268.969 215.073L268.944 215.001C267.732 211.456 265.805 208.761 263.189 206.763C260.773 204.918 257.353 203.807 252.561 203.807C247.022 203.807 242.295 205.101 238.25 207.584L238.216 207.605L238.181 207.626C233.961 210.099 230.446 213.39 227.615 217.539C224.69 221.824 222.432 226.477 220.839 231.511C219.365 236.583 218.644 241.477 218.644 246.204C218.644 250.673 219.301 254.773 220.581 258.534C221.92 262.097 223.928 264.9 226.59 267.051C229.019 268.89 232.372 269.979 236.983 269.979C242.669 269.979 247.458 268.677 251.49 266.201C255.746 263.589 259.283 260.214 262.125 256.049ZM224.165 270.177C220.879 267.535 218.447 264.101 216.869 259.875C215.423 255.648 214.7 251.091 214.7 246.204C214.7 241.053 215.489 235.77 217.066 230.355C218.775 224.94 221.207 219.92 224.362 215.298C227.517 210.675 231.461 206.977 236.194 204.203C240.926 201.297 246.382 199.844 252.561 199.844C257.95 199.844 262.289 201.099 265.575 203.609C268.862 206.118 271.228 209.486 272.674 213.713C274.252 217.807 275.04 222.298 275.04 227.185C275.04 232.336 274.252 237.619 272.674 243.034C271.096 248.45 268.664 253.535 265.378 258.29C262.223 262.912 258.279 266.677 253.547 269.582C248.814 272.488 243.293 273.941 236.983 273.941C231.724 273.941 227.452 272.686 224.165 270.177ZM355.117 162.4H415.89C424.102 162.4 431.376 164.583 437.518 169.089C443.478 173.332 447.989 178.899 451.026 185.714C454.154 192.44 455.722 199.541 455.722 206.977C455.722 214.421 454.152 221.755 451.061 228.952C447.986 236.116 443.724 242.637 438.302 248.504L438.285 248.522L438.269 248.539C432.819 254.296 426.523 258.934 419.4 262.442C412.144 266.016 404.384 267.799 396.171 267.799H379.256L370.185 310.989H323.664L355.117 162.4ZM376.057 263.837H396.171C403.795 263.837 410.96 262.186 417.664 258.884C424.369 255.582 430.285 251.223 435.412 245.808C440.538 240.261 444.548 234.119 447.44 227.383C450.332 220.647 451.778 213.845 451.778 206.977C451.778 200.109 450.332 193.571 447.44 187.363C444.679 181.155 440.604 176.136 435.214 172.306C429.824 168.343 423.383 166.362 415.89 166.362H358.31L328.534 307.027H366.986L376.057 263.837ZM405.059 223.005L405.073 222.986C406.011 221.761 406.794 220.152 407.343 218.054L407.368 217.961L407.396 217.869C408.033 215.842 408.396 213.292 408.396 210.147C408.396 207.747 408.084 206.352 407.764 205.645C407.333 204.692 407.019 204.468 407.02 204.467L406.858 204.374L406.696 204.257C406.391 204.039 406.197 204.005 406.03 204.005H392.863L388.214 226.194H400.706C400.992 226.194 401.544 226.1 402.424 225.57C403.195 225.105 404.083 224.311 405.044 223.024L405.059 223.005ZM383.353 230.157L389.663 200.043H406.03C407.082 200.043 408.068 200.373 408.988 201.033C409.908 201.561 410.697 202.552 411.354 204.005C412.012 205.458 412.34 207.505 412.34 210.147C412.34 213.581 411.946 216.552 411.157 219.062C410.5 221.571 409.514 223.685 408.199 225.402C407.016 226.987 405.767 228.175 404.453 228.968C403.138 229.76 401.889 230.157 400.706 230.157H383.353Z" fill="white" stroke="white" stroke-width="3"/>
</svg>
