<svg width="242" height="240" viewBox="0 0 242 240" fill="none" xmlns="http://www.w3.org/2000/svg">
<rect width="240.39" height="239" transform="translate(0 1)" fill="#1C0533"/>
<mask id="mask0_822_79" style="mask-type:alpha" maskUnits="userSpaceOnUse" x="-201" y="-233" width="670" height="631">
<path d="M59.9272 -233L469 151.73L462.31 158.022L53.2368 -226.708L59.9272 -233Z" fill="#D9D9D9"/>
<path d="M41.7675 -215.921L450.84 168.809L444.15 175.102L35.077 -209.629L41.7675 -215.921Z" fill="#D9D9D9"/>
<path d="M23.6077 -198.842L432.68 185.888L425.99 192.181L16.9173 -192.549L23.6077 -198.842Z" fill="#D9D9D9"/>
<path d="M5.44793 -181.763L414.521 202.968L407.83 209.26L-1.24252 -175.47L5.44793 -181.763Z" fill="#D9D9D9"/>
<path d="M-12.7118 -164.683L396.361 220.047L389.67 226.339L-19.4023 -158.391L-12.7118 -164.683Z" fill="#D9D9D9"/>
<path d="M-30.8716 -147.604L378.201 237.126L371.511 243.418L-37.562 -141.312L-30.8716 -147.604Z" fill="#D9D9D9"/>
<path d="M-49.0314 -130.525L360.041 254.205L353.351 260.497L-55.7218 -124.233L-49.0314 -130.525Z" fill="#D9D9D9"/>
<path d="M-67.1912 -113.446L341.882 271.284L335.191 277.577L-73.8816 -107.154L-67.1912 -113.446Z" fill="#D9D9D9"/>
<path d="M-85.3509 -96.3668L323.722 288.363L317.031 294.656L-92.0414 -90.0745L-85.3509 -96.3668Z" fill="#D9D9D9"/>
<path d="M-103.511 -79.2877L305.562 305.442L298.872 311.735L-110.201 -72.9954L-103.511 -79.2877Z" fill="#D9D9D9"/>
<path d="M-121.67 -62.2086L287.402 322.522L280.712 328.814L-128.361 -55.9162L-121.67 -62.2086Z" fill="#D9D9D9"/>
<path d="M-139.83 -45.1294L269.243 339.601L262.552 345.893L-146.521 -38.8371L-139.83 -45.1294Z" fill="#D9D9D9"/>
<path d="M-157.99 -28.0503L251.083 356.68L244.392 362.972L-164.68 -21.758L-157.99 -28.0503Z" fill="#D9D9D9"/>
<path d="M-176.15 -10.9711L232.923 373.759L226.233 380.051L-182.84 -4.67881L-176.15 -10.9711Z" fill="#D9D9D9"/>
<path d="M-194.31 6.10801L214.763 390.838L208.073 397.131L-201 12.4003L-194.31 6.10801Z" fill="#D9D9D9"/>
</mask>
<g mask="url(#mask0_822_79)">
<path d="M240 120C240 186.274 186.274 240 120 240C53.7258 240 0 186.274 0 120C0 53.7258 53.7258 0 120 0C186.274 0 240 53.7258 240 120Z" fill="#E6007A"/>
</g>
<path d="M86.2979 75.893C80.3108 71.5537 73.4588 69.6977 66.6067 69.6977H24.524L2.64355 172.579H57.6012L62.0142 151.666C66.6137 151.132 71.0764 149.834 75.3108 147.758C75.9667 147.436 76.6136 147.101 77.2512 146.752C78.9948 150.848 81.3085 154.657 84.1902 158.115C88.0674 162.768 92.802 166.417 98.1827 169.055L98.1841 169.055L98.3703 169.146L98.5585 169.233C104.516 171.983 110.85 173.147 117.204 173.147C123.584 173.147 129.823 172.076 135.826 169.919C138.675 168.895 141.422 167.668 144.061 166.241L142.713 172.579H197.67L202.083 151.666C206.683 151.132 211.146 149.834 215.38 147.758C220.487 145.254 225.045 141.915 228.967 137.793L228.972 137.788L229.047 137.71L229.119 137.631L229.121 137.63C232.92 133.538 235.982 128.9 238.201 123.756C240.485 118.461 241.742 112.815 241.742 106.941C241.742 101.103 240.498 95.4455 238.042 90.1474C235.464 84.4414 231.535 79.5784 226.367 75.893C220.38 71.5537 213.528 69.6977 206.676 69.6977H164.593L162.133 81.2651C158.834 78.0404 155.045 75.4284 150.86 73.4429C144.868 70.533 138.463 69.3191 132.064 69.3191C125.684 69.3191 119.445 70.3901 113.442 72.5473C107.74 74.5964 102.435 77.452 97.5708 81.0749C96.4267 81.9231 95.3156 82.8072 94.2379 83.7264C92.0533 80.7395 89.3987 78.1043 86.2979 75.893Z" fill="#2B0532"/>
<path fill-rule="evenodd" clip-rule="evenodd" d="M107.785 155.586L107.815 155.6L107.845 155.614C111.552 157.325 115.69 158.147 120.204 158.147C124.88 158.147 129.401 157.367 133.753 155.803C138.062 154.254 142.04 152.097 145.678 149.335C149.289 146.593 152.44 143.443 155.125 139.886L155.132 139.876L155.14 139.866C157.82 136.248 159.908 132.38 161.393 128.267C162.955 124.053 163.743 119.747 163.743 115.365C163.743 111.417 163.131 107.615 161.899 103.975C160.719 100.24 158.907 96.8908 156.459 93.9541C153.982 90.981 150.94 88.6498 147.367 86.9652C143.707 85.1752 139.583 84.3191 135.064 84.3191C130.387 84.3191 125.866 85.0997 121.515 86.6634C117.212 88.2098 113.211 90.362 109.518 93.1138C105.894 95.799 102.706 98.9546 99.9582 102.573L99.9533 102.58C97.2636 106.144 95.1423 110.016 93.5945 114.188L93.5875 114.207L93.5807 114.226C92.0874 118.434 91.3349 122.73 91.3349 127.102C91.3349 131.061 91.9502 134.898 93.1843 138.6L93.1869 138.608L93.1894 138.616C94.4347 142.282 96.2762 145.588 98.7133 148.512C101.187 151.481 104.222 153.839 107.785 155.586ZM135.093 129.843L135.098 129.836C136.506 127.809 137.538 125.656 138.207 123.37C138.896 121.017 139.229 118.762 139.229 116.595C139.229 114.572 138.901 112.778 138.284 111.184L138.265 111.133L138.247 111.082C137.721 109.551 136.901 108.424 135.807 107.592C134.856 106.87 133.434 106.373 131.278 106.373C128.773 106.373 126.679 106.953 124.902 108.039L124.878 108.054L124.852 108.068C122.95 109.178 121.366 110.653 120.084 112.522C118.736 114.489 117.693 116.624 116.957 118.938C116.274 121.279 115.944 123.525 115.944 125.682C115.944 127.716 116.244 129.566 116.818 131.252C117.403 132.795 118.265 133.983 119.393 134.894C120.354 135.614 121.744 136.093 123.8 136.093C126.38 136.093 128.503 135.507 130.27 134.428C132.198 133.249 133.799 131.73 135.088 129.85L135.093 129.843Z" fill="#E6007A"/>
<path fill-rule="evenodd" clip-rule="evenodd" d="M80.5405 88.0716C77.4121 85.7889 73.721 84.6977 69.6065 84.6977H39.6691L24.1689 157.579H48.4358L52.7898 136.945H60.1413C64.225 136.945 68.0926 136.061 71.7082 134.289C75.2274 132.564 78.3406 130.281 81.0344 127.45L81.0461 127.437L81.0578 127.425C83.7318 124.545 85.8375 121.339 87.358 117.815C88.8888 114.266 89.6726 110.635 89.6726 106.941C89.6726 103.253 88.8909 99.7256 87.3329 96.3889C85.8086 92.9877 83.5384 90.1969 80.5405 88.0716ZM63.6538 114.026L63.6644 114.012C64.0239 113.545 64.3509 112.896 64.5888 111.992L64.6063 111.925L64.6271 111.859C64.8964 111.007 65.0632 109.889 65.0632 108.455C65.0632 107.366 64.9172 106.856 64.8445 106.696C64.8035 106.606 64.768 106.54 64.7403 106.493L64.7276 106.472L64.7211 106.468H59.3218L57.4886 115.175H62.3007C62.3303 115.169 62.4443 115.139 62.6558 115.012C62.8957 114.868 63.2356 114.583 63.6434 114.04L63.6538 114.026Z" fill="#E6007A"/>
<path fill-rule="evenodd" clip-rule="evenodd" d="M220.61 88.0717C217.481 85.7889 213.79 84.6977 209.676 84.6977H179.738L164.238 157.579H188.505L192.859 136.945H200.211C204.294 136.945 208.162 136.061 211.777 134.289C215.297 132.564 218.41 130.281 221.104 127.45L221.115 127.437L221.127 127.425C223.801 124.545 225.907 121.339 227.427 117.815C228.958 114.266 229.742 110.635 229.742 106.941C229.742 103.253 228.96 99.7257 227.402 96.3891C225.878 92.9878 223.608 90.197 220.61 88.0717ZM203.723 114.026L203.734 114.012C204.093 113.545 204.42 112.896 204.658 111.992L204.676 111.925L204.696 111.859C204.966 111.007 205.132 109.889 205.132 108.455C205.132 107.366 204.986 106.856 204.914 106.696C204.873 106.606 204.837 106.54 204.81 106.493L204.797 106.472L204.79 106.468H199.391L197.558 115.175H202.37C202.4 115.169 202.514 115.139 202.725 115.012C202.965 114.868 203.305 114.583 203.713 114.04L203.723 114.026Z" fill="#E6007A"/>
<mask id="path-5-outside-1_822_79" maskUnits="userSpaceOnUse" x="16.2891" y="78.323" width="205" height="74" fill="black">
<rect fill="white" x="16.2891" y="78.323" width="205" height="74"/>
<path fill-rule="evenodd" clip-rule="evenodd" d="M32.3866 79.7016H61.5576C65.4995 79.7016 68.9909 80.7445 71.9389 82.8974C74.8 84.9243 76.9656 87.5842 78.4234 90.8403C79.9248 94.0533 80.6772 97.4458 80.6772 100.998C80.6772 104.555 79.9233 108.059 78.44 111.497C76.9636 114.92 74.9183 118.035 72.3153 120.838L72.3076 120.846L72.2997 120.855C69.6835 123.605 66.6615 125.821 63.2427 127.497C59.7596 129.204 56.0348 130.056 52.0925 130.056H43.9733L39.6193 150.69H17.2891L32.3866 79.7016ZM42.438 128.163H52.0925C55.7523 128.163 59.1913 127.374 62.4095 125.797C65.6276 124.219 68.4672 122.137 70.9281 119.55C73.389 116.9 75.3136 113.965 76.7018 110.747C78.0901 107.529 78.7842 104.279 78.7842 100.998C78.7842 97.7169 78.0901 94.5934 76.7018 91.6277C75.3767 88.6619 73.4206 86.2641 70.8334 84.4342C68.2463 82.5411 65.1544 81.5946 61.5576 81.5946H33.9194L19.627 148.797H38.0841L42.438 128.163ZM56.3587 108.656L56.3657 108.647C56.8157 108.062 57.1915 107.292 57.4553 106.29L57.467 106.246L57.4808 106.202C57.7865 105.234 57.9609 104.015 57.9609 102.513C57.9609 101.366 57.8109 100.7 57.6573 100.362C57.4505 99.9068 57.2998 99.7998 57.3003 99.7992L57.2224 99.7547L57.1445 99.6991C56.9983 99.5946 56.905 99.5784 56.825 99.5784H50.505L48.2732 110.179H54.2694C54.4069 110.179 54.6718 110.134 55.0939 109.881C55.4642 109.659 55.8906 109.28 56.3518 108.665L56.3587 108.656ZM45.9401 112.072L48.969 97.6854H56.825C57.3298 97.6854 57.8031 97.8431 58.2448 98.1586C58.6865 98.411 59.0651 98.8843 59.3806 99.5784C59.6961 100.273 59.8539 101.251 59.8539 102.513C59.8539 104.153 59.6646 105.573 59.286 106.772C58.9705 107.971 58.4972 108.98 57.8662 109.801C57.2983 110.558 56.6988 111.126 56.0678 111.504C55.4368 111.883 54.8374 112.072 54.2694 112.072H45.9401ZM100.172 148.803L100.153 148.793C96.705 147.103 93.7771 144.826 91.3915 141.964C89.0306 139.131 87.2456 135.928 86.0368 132.369L86.0334 132.359C84.832 128.754 84.2325 125.018 84.2325 121.159C84.2325 116.899 84.9656 112.71 86.4239 108.6L86.4284 108.587L86.4331 108.574C87.9487 104.489 90.0254 100.698 92.6599 97.2076L92.6632 97.2032C95.3573 93.655 98.4817 90.5628 102.034 87.9314C105.652 85.2343 109.571 83.1263 113.786 81.6115C118.033 80.0853 122.446 79.323 127.015 79.323C131.416 79.323 135.396 80.1566 138.909 81.8759C142.363 83.5037 145.296 85.752 147.683 88.6174C150.051 91.4586 151.806 94.701 152.95 98.327C154.151 101.868 154.748 105.57 154.748 109.422C154.748 113.69 153.98 117.886 152.455 121.999C151.003 126.025 148.958 129.812 146.331 133.36L146.326 133.367L146.32 133.374C143.69 136.859 140.6 139.948 137.057 142.638C133.496 145.342 129.603 147.453 125.384 148.97C121.137 150.496 116.724 151.258 112.155 151.258C107.758 151.258 103.758 150.458 100.193 148.812L100.172 148.803ZM150.678 121.348C152.129 117.436 152.855 113.461 152.855 109.422C152.855 105.762 152.287 102.26 151.151 98.9158C150.078 95.5084 148.438 92.4795 146.229 89.8293C144.021 87.1791 141.307 85.0967 138.089 83.5823C134.871 82.0048 131.18 81.216 127.015 81.216C122.661 81.216 118.465 81.9417 114.426 83.393C110.388 84.8443 106.633 86.8636 103.163 89.4507C99.7554 91.9747 96.7581 94.9405 94.1709 98.3479C91.6469 101.692 89.6592 105.321 88.2079 109.233C86.8197 113.145 86.1256 117.12 86.1256 121.159C86.1256 124.819 86.6935 128.352 87.8293 131.76C88.9651 135.104 90.6373 138.102 92.8458 140.752C95.0543 143.402 97.7677 145.516 100.986 147.093C104.267 148.608 107.99 149.365 112.155 149.365C116.509 149.365 120.705 148.639 124.743 147.188C128.782 145.737 132.505 143.718 135.912 141.13C139.32 138.543 142.285 135.577 144.809 132.233C147.333 128.826 149.29 125.197 150.678 121.348ZM127.82 124.442L127.826 124.433C129.291 122.324 130.368 120.079 131.067 117.693C131.778 115.262 132.126 112.917 132.126 110.653C132.126 108.525 131.782 106.615 131.118 104.9L131.105 104.866L131.093 104.832C130.511 103.138 129.586 101.851 128.33 100.896C127.171 100.015 125.529 99.4838 123.229 99.4838C120.571 99.4838 118.301 100.102 116.36 101.288L116.343 101.298L116.327 101.308C114.301 102.49 112.614 104.062 111.255 106.044C109.851 108.092 108.767 110.315 108.002 112.719C107.295 115.143 106.949 117.481 106.949 119.739C106.949 121.874 107.264 123.833 107.879 125.63C108.521 127.332 109.485 128.671 110.763 129.699C111.929 130.577 113.538 131.097 115.751 131.097C118.481 131.097 120.78 130.475 122.715 129.293C124.758 128.044 126.456 126.432 127.82 124.442ZM109.599 131.192C108.022 129.93 106.854 128.289 106.097 126.27C105.403 124.251 105.056 122.074 105.056 119.739C105.056 117.278 105.434 114.754 106.192 112.167C107.012 109.58 108.179 107.182 109.694 104.974C111.208 102.765 113.101 100.998 115.373 99.6731C117.644 98.2848 120.263 97.5907 123.229 97.5907C125.816 97.5907 127.898 98.1902 129.476 99.3891C131.053 100.588 132.189 102.197 132.883 104.216C133.641 106.172 134.019 108.318 134.019 110.653C134.019 113.114 133.641 115.638 132.883 118.225C132.126 120.812 130.959 123.241 129.381 125.513C127.867 127.721 125.974 129.52 123.702 130.908C121.431 132.296 118.78 132.99 115.751 132.99C113.227 132.99 111.177 132.391 109.599 131.192ZM172.456 79.7016H201.627C205.569 79.7016 209.06 80.7446 212.008 82.8974C214.869 84.9243 217.035 87.5841 218.493 90.84C219.994 94.0531 220.746 97.4456 220.746 100.998C220.746 104.555 219.993 108.059 218.509 111.497C217.033 114.92 214.988 118.035 212.385 120.838L212.377 120.846L212.369 120.855C209.753 123.605 206.731 125.821 203.312 127.497C199.829 129.204 196.104 130.056 192.162 130.056H184.043L179.689 150.69H157.358L172.456 79.7016ZM182.507 128.163H192.162C195.822 128.163 199.261 127.374 202.479 125.797C205.697 124.219 208.536 122.137 210.997 119.55C213.458 116.9 215.383 113.965 216.771 110.747C218.159 107.529 218.853 104.279 218.853 100.998C218.853 97.7169 218.159 94.5934 216.771 91.6277C215.446 88.6619 213.49 86.2641 210.903 84.4342C208.316 82.5411 205.224 81.5946 201.627 81.5946H173.989L159.696 148.797H178.153L182.507 128.163ZM196.428 108.656L196.435 108.647C196.885 108.062 197.261 107.292 197.525 106.29L197.536 106.246L197.55 106.202C197.856 105.234 198.03 104.015 198.03 102.513C198.03 101.366 197.88 100.7 197.727 100.362C197.52 99.9068 197.369 99.7998 197.37 99.7992L197.292 99.7547L197.214 99.6991C197.068 99.5946 196.974 99.5784 196.894 99.5784H190.574L188.342 110.179H194.339C194.476 110.179 194.741 110.134 195.163 109.881C195.533 109.659 195.96 109.28 196.421 108.665L196.428 108.656ZM186.009 112.072L189.038 97.6854H196.894C197.399 97.6854 197.872 97.8431 198.314 98.1586C198.756 98.411 199.134 98.8843 199.45 99.5784C199.765 100.273 199.923 101.251 199.923 102.513C199.923 104.153 199.734 105.573 199.355 106.772C199.04 107.971 198.567 108.98 197.935 109.801C197.368 110.558 196.768 111.126 196.137 111.504C195.506 111.883 194.907 112.072 194.339 112.072H186.009Z"/>
</mask>
<path fill-rule="evenodd" clip-rule="evenodd" d="M32.3866 79.7016H61.5576C65.4995 79.7016 68.9909 80.7445 71.9389 82.8974C74.8 84.9243 76.9656 87.5842 78.4234 90.8403C79.9248 94.0533 80.6772 97.4458 80.6772 100.998C80.6772 104.555 79.9233 108.059 78.44 111.497C76.9636 114.92 74.9183 118.035 72.3153 120.838L72.3076 120.846L72.2997 120.855C69.6835 123.605 66.6615 125.821 63.2427 127.497C59.7596 129.204 56.0348 130.056 52.0925 130.056H43.9733L39.6193 150.69H17.2891L32.3866 79.7016ZM42.438 128.163H52.0925C55.7523 128.163 59.1913 127.374 62.4095 125.797C65.6276 124.219 68.4672 122.137 70.9281 119.55C73.389 116.9 75.3136 113.965 76.7018 110.747C78.0901 107.529 78.7842 104.279 78.7842 100.998C78.7842 97.7169 78.0901 94.5934 76.7018 91.6277C75.3767 88.6619 73.4206 86.2641 70.8334 84.4342C68.2463 82.5411 65.1544 81.5946 61.5576 81.5946H33.9194L19.627 148.797H38.0841L42.438 128.163ZM56.3587 108.656L56.3657 108.647C56.8157 108.062 57.1915 107.292 57.4553 106.29L57.467 106.246L57.4808 106.202C57.7865 105.234 57.9609 104.015 57.9609 102.513C57.9609 101.366 57.8109 100.7 57.6573 100.362C57.4505 99.9068 57.2998 99.7998 57.3003 99.7992L57.2224 99.7547L57.1445 99.6991C56.9983 99.5946 56.905 99.5784 56.825 99.5784H50.505L48.2732 110.179H54.2694C54.4069 110.179 54.6718 110.134 55.0939 109.881C55.4642 109.659 55.8906 109.28 56.3518 108.665L56.3587 108.656ZM45.9401 112.072L48.969 97.6854H56.825C57.3298 97.6854 57.8031 97.8431 58.2448 98.1586C58.6865 98.411 59.0651 98.8843 59.3806 99.5784C59.6961 100.273 59.8539 101.251 59.8539 102.513C59.8539 104.153 59.6646 105.573 59.286 106.772C58.9705 107.971 58.4972 108.98 57.8662 109.801C57.2983 110.558 56.6988 111.126 56.0678 111.504C55.4368 111.883 54.8374 112.072 54.2694 112.072H45.9401ZM100.172 148.803L100.153 148.793C96.705 147.103 93.7771 144.826 91.3915 141.964C89.0306 139.131 87.2456 135.928 86.0368 132.369L86.0334 132.359C84.832 128.754 84.2325 125.018 84.2325 121.159C84.2325 116.899 84.9656 112.71 86.4239 108.6L86.4284 108.587L86.4331 108.574C87.9487 104.489 90.0254 100.698 92.6599 97.2076L92.6632 97.2032C95.3573 93.655 98.4817 90.5628 102.034 87.9314C105.652 85.2343 109.571 83.1263 113.786 81.6115C118.033 80.0853 122.446 79.323 127.015 79.323C131.416 79.323 135.396 80.1566 138.909 81.8759C142.363 83.5037 145.296 85.752 147.683 88.6174C150.051 91.4586 151.806 94.701 152.95 98.327C154.151 101.868 154.748 105.57 154.748 109.422C154.748 113.69 153.98 117.886 152.455 121.999C151.003 126.025 148.958 129.812 146.331 133.36L146.326 133.367L146.32 133.374C143.69 136.859 140.6 139.948 137.057 142.638C133.496 145.342 129.603 147.453 125.384 148.97C121.137 150.496 116.724 151.258 112.155 151.258C107.758 151.258 103.758 150.458 100.193 148.812L100.172 148.803ZM150.678 121.348C152.129 117.436 152.855 113.461 152.855 109.422C152.855 105.762 152.287 102.26 151.151 98.9158C150.078 95.5084 148.438 92.4795 146.229 89.8293C144.021 87.1791 141.307 85.0967 138.089 83.5823C134.871 82.0048 131.18 81.216 127.015 81.216C122.661 81.216 118.465 81.9417 114.426 83.393C110.388 84.8443 106.633 86.8636 103.163 89.4507C99.7554 91.9747 96.7581 94.9405 94.1709 98.3479C91.6469 101.692 89.6592 105.321 88.2079 109.233C86.8197 113.145 86.1256 117.12 86.1256 121.159C86.1256 124.819 86.6935 128.352 87.8293 131.76C88.9651 135.104 90.6373 138.102 92.8458 140.752C95.0543 143.402 97.7677 145.516 100.986 147.093C104.267 148.608 107.99 149.365 112.155 149.365C116.509 149.365 120.705 148.639 124.743 147.188C128.782 145.737 132.505 143.718 135.912 141.13C139.32 138.543 142.285 135.577 144.809 132.233C147.333 128.826 149.29 125.197 150.678 121.348ZM127.82 124.442L127.826 124.433C129.291 122.324 130.368 120.079 131.067 117.693C131.778 115.262 132.126 112.917 132.126 110.653C132.126 108.525 131.782 106.615 131.118 104.9L131.105 104.866L131.093 104.832C130.511 103.138 129.586 101.851 128.33 100.896C127.171 100.015 125.529 99.4838 123.229 99.4838C120.571 99.4838 118.301 100.102 116.36 101.288L116.343 101.298L116.327 101.308C114.301 102.49 112.614 104.062 111.255 106.044C109.851 108.092 108.767 110.315 108.002 112.719C107.295 115.143 106.949 117.481 106.949 119.739C106.949 121.874 107.264 123.833 107.879 125.63C108.521 127.332 109.485 128.671 110.763 129.699C111.929 130.577 113.538 131.097 115.751 131.097C118.481 131.097 120.78 130.475 122.715 129.293C124.758 128.044 126.456 126.432 127.82 124.442ZM109.599 131.192C108.022 129.93 106.854 128.289 106.097 126.27C105.403 124.251 105.056 122.074 105.056 119.739C105.056 117.278 105.434 114.754 106.192 112.167C107.012 109.58 108.179 107.182 109.694 104.974C111.208 102.765 113.101 100.998 115.373 99.6731C117.644 98.2848 120.263 97.5907 123.229 97.5907C125.816 97.5907 127.898 98.1902 129.476 99.3891C131.053 100.588 132.189 102.197 132.883 104.216C133.641 106.172 134.019 108.318 134.019 110.653C134.019 113.114 133.641 115.638 132.883 118.225C132.126 120.812 130.959 123.241 129.381 125.513C127.867 127.721 125.974 129.52 123.702 130.908C121.431 132.296 118.78 132.99 115.751 132.99C113.227 132.99 111.177 132.391 109.599 131.192ZM172.456 79.7016H201.627C205.569 79.7016 209.06 80.7446 212.008 82.8974C214.869 84.9243 217.035 87.5841 218.493 90.84C219.994 94.0531 220.746 97.4456 220.746 100.998C220.746 104.555 219.993 108.059 218.509 111.497C217.033 114.92 214.988 118.035 212.385 120.838L212.377 120.846L212.369 120.855C209.753 123.605 206.731 125.821 203.312 127.497C199.829 129.204 196.104 130.056 192.162 130.056H184.043L179.689 150.69H157.358L172.456 79.7016ZM182.507 128.163H192.162C195.822 128.163 199.261 127.374 202.479 125.797C205.697 124.219 208.536 122.137 210.997 119.55C213.458 116.9 215.383 113.965 216.771 110.747C218.159 107.529 218.853 104.279 218.853 100.998C218.853 97.7169 218.159 94.5934 216.771 91.6277C215.446 88.6619 213.49 86.2641 210.903 84.4342C208.316 82.5411 205.224 81.5946 201.627 81.5946H173.989L159.696 148.797H178.153L182.507 128.163ZM196.428 108.656L196.435 108.647C196.885 108.062 197.261 107.292 197.525 106.29L197.536 106.246L197.55 106.202C197.856 105.234 198.03 104.015 198.03 102.513C198.03 101.366 197.88 100.7 197.727 100.362C197.52 99.9068 197.369 99.7998 197.37 99.7992L197.292 99.7547L197.214 99.6991C197.068 99.5946 196.974 99.5784 196.894 99.5784H190.574L188.342 110.179H194.339C194.476 110.179 194.741 110.134 195.163 109.881C195.533 109.659 195.96 109.28 196.421 108.665L196.428 108.656ZM186.009 112.072L189.038 97.6854H196.894C197.399 97.6854 197.872 97.8431 198.314 98.1586C198.756 98.411 199.134 98.8843 199.45 99.5784C199.765 100.273 199.923 101.251 199.923 102.513C199.923 104.153 199.734 105.573 199.355 106.772C199.04 107.971 198.567 108.98 197.935 109.801C197.368 110.558 196.768 111.126 196.137 111.504C195.506 111.883 194.907 112.072 194.339 112.072H186.009Z" fill="white"/>
<path fill-rule="evenodd" clip-rule="evenodd" d="M32.3866 79.7016H61.5576C65.4995 79.7016 68.9909 80.7445 71.9389 82.8974C74.8 84.9243 76.9656 87.5842 78.4234 90.8403C79.9248 94.0533 80.6772 97.4458 80.6772 100.998C80.6772 104.555 79.9233 108.059 78.44 111.497C76.9636 114.92 74.9183 118.035 72.3153 120.838L72.3076 120.846L72.2997 120.855C69.6835 123.605 66.6615 125.821 63.2427 127.497C59.7596 129.204 56.0348 130.056 52.0925 130.056H43.9733L39.6193 150.69H17.2891L32.3866 79.7016ZM42.438 128.163H52.0925C55.7523 128.163 59.1913 127.374 62.4095 125.797C65.6276 124.219 68.4672 122.137 70.9281 119.55C73.389 116.9 75.3136 113.965 76.7018 110.747C78.0901 107.529 78.7842 104.279 78.7842 100.998C78.7842 97.7169 78.0901 94.5934 76.7018 91.6277C75.3767 88.6619 73.4206 86.2641 70.8334 84.4342C68.2463 82.5411 65.1544 81.5946 61.5576 81.5946H33.9194L19.627 148.797H38.0841L42.438 128.163ZM56.3587 108.656L56.3657 108.647C56.8157 108.062 57.1915 107.292 57.4553 106.29L57.467 106.246L57.4808 106.202C57.7865 105.234 57.9609 104.015 57.9609 102.513C57.9609 101.366 57.8109 100.7 57.6573 100.362C57.4505 99.9068 57.2998 99.7998 57.3003 99.7992L57.2224 99.7547L57.1445 99.6991C56.9983 99.5946 56.905 99.5784 56.825 99.5784H50.505L48.2732 110.179H54.2694C54.4069 110.179 54.6718 110.134 55.0939 109.881C55.4642 109.659 55.8906 109.28 56.3518 108.665L56.3587 108.656ZM45.9401 112.072L48.969 97.6854H56.825C57.3298 97.6854 57.8031 97.8431 58.2448 98.1586C58.6865 98.411 59.0651 98.8843 59.3806 99.5784C59.6961 100.273 59.8539 101.251 59.8539 102.513C59.8539 104.153 59.6646 105.573 59.286 106.772C58.9705 107.971 58.4972 108.98 57.8662 109.801C57.2983 110.558 56.6988 111.126 56.0678 111.504C55.4368 111.883 54.8374 112.072 54.2694 112.072H45.9401ZM100.172 148.803L100.153 148.793C96.705 147.103 93.7771 144.826 91.3915 141.964C89.0306 139.131 87.2456 135.928 86.0368 132.369L86.0334 132.359C84.832 128.754 84.2325 125.018 84.2325 121.159C84.2325 116.899 84.9656 112.71 86.4239 108.6L86.4284 108.587L86.4331 108.574C87.9487 104.489 90.0254 100.698 92.6599 97.2076L92.6632 97.2032C95.3573 93.655 98.4817 90.5628 102.034 87.9314C105.652 85.2343 109.571 83.1263 113.786 81.6115C118.033 80.0853 122.446 79.323 127.015 79.323C131.416 79.323 135.396 80.1566 138.909 81.8759C142.363 83.5037 145.296 85.752 147.683 88.6174C150.051 91.4586 151.806 94.701 152.95 98.327C154.151 101.868 154.748 105.57 154.748 109.422C154.748 113.69 153.98 117.886 152.455 121.999C151.003 126.025 148.958 129.812 146.331 133.36L146.326 133.367L146.32 133.374C143.69 136.859 140.6 139.948 137.057 142.638C133.496 145.342 129.603 147.453 125.384 148.97C121.137 150.496 116.724 151.258 112.155 151.258C107.758 151.258 103.758 150.458 100.193 148.812L100.172 148.803ZM150.678 121.348C152.129 117.436 152.855 113.461 152.855 109.422C152.855 105.762 152.287 102.26 151.151 98.9158C150.078 95.5084 148.438 92.4795 146.229 89.8293C144.021 87.1791 141.307 85.0967 138.089 83.5823C134.871 82.0048 131.18 81.216 127.015 81.216C122.661 81.216 118.465 81.9417 114.426 83.393C110.388 84.8443 106.633 86.8636 103.163 89.4507C99.7554 91.9747 96.7581 94.9405 94.1709 98.3479C91.6469 101.692 89.6592 105.321 88.2079 109.233C86.8197 113.145 86.1256 117.12 86.1256 121.159C86.1256 124.819 86.6935 128.352 87.8293 131.76C88.9651 135.104 90.6373 138.102 92.8458 140.752C95.0543 143.402 97.7677 145.516 100.986 147.093C104.267 148.608 107.99 149.365 112.155 149.365C116.509 149.365 120.705 148.639 124.743 147.188C128.782 145.737 132.505 143.718 135.912 141.13C139.32 138.543 142.285 135.577 144.809 132.233C147.333 128.826 149.29 125.197 150.678 121.348ZM127.82 124.442L127.826 124.433C129.291 122.324 130.368 120.079 131.067 117.693C131.778 115.262 132.126 112.917 132.126 110.653C132.126 108.525 131.782 106.615 131.118 104.9L131.105 104.866L131.093 104.832C130.511 103.138 129.586 101.851 128.33 100.896C127.171 100.015 125.529 99.4838 123.229 99.4838C120.571 99.4838 118.301 100.102 116.36 101.288L116.343 101.298L116.327 101.308C114.301 102.49 112.614 104.062 111.255 106.044C109.851 108.092 108.767 110.315 108.002 112.719C107.295 115.143 106.949 117.481 106.949 119.739C106.949 121.874 107.264 123.833 107.879 125.63C108.521 127.332 109.485 128.671 110.763 129.699C111.929 130.577 113.538 131.097 115.751 131.097C118.481 131.097 120.78 130.475 122.715 129.293C124.758 128.044 126.456 126.432 127.82 124.442ZM109.599 131.192C108.022 129.93 106.854 128.289 106.097 126.27C105.403 124.251 105.056 122.074 105.056 119.739C105.056 117.278 105.434 114.754 106.192 112.167C107.012 109.58 108.179 107.182 109.694 104.974C111.208 102.765 113.101 100.998 115.373 99.6731C117.644 98.2848 120.263 97.5907 123.229 97.5907C125.816 97.5907 127.898 98.1902 129.476 99.3891C131.053 100.588 132.189 102.197 132.883 104.216C133.641 106.172 134.019 108.318 134.019 110.653C134.019 113.114 133.641 115.638 132.883 118.225C132.126 120.812 130.959 123.241 129.381 125.513C127.867 127.721 125.974 129.52 123.702 130.908C121.431 132.296 118.78 132.99 115.751 132.99C113.227 132.99 111.177 132.391 109.599 131.192ZM172.456 79.7016H201.627C205.569 79.7016 209.06 80.7446 212.008 82.8974C214.869 84.9243 217.035 87.5841 218.493 90.84C219.994 94.0531 220.746 97.4456 220.746 100.998C220.746 104.555 219.993 108.059 218.509 111.497C217.033 114.92 214.988 118.035 212.385 120.838L212.377 120.846L212.369 120.855C209.753 123.605 206.731 125.821 203.312 127.497C199.829 129.204 196.104 130.056 192.162 130.056H184.043L179.689 150.69H157.358L172.456 79.7016ZM182.507 128.163H192.162C195.822 128.163 199.261 127.374 202.479 125.797C205.697 124.219 208.536 122.137 210.997 119.55C213.458 116.9 215.383 113.965 216.771 110.747C218.159 107.529 218.853 104.279 218.853 100.998C218.853 97.7169 218.159 94.5934 216.771 91.6277C215.446 88.6619 213.49 86.2641 210.903 84.4342C208.316 82.5411 205.224 81.5946 201.627 81.5946H173.989L159.696 148.797H178.153L182.507 128.163ZM196.428 108.656L196.435 108.647C196.885 108.062 197.261 107.292 197.525 106.29L197.536 106.246L197.55 106.202C197.856 105.234 198.03 104.015 198.03 102.513C198.03 101.366 197.88 100.7 197.727 100.362C197.52 99.9068 197.369 99.7998 197.37 99.7992L197.292 99.7547L197.214 99.6991C197.068 99.5946 196.974 99.5784 196.894 99.5784H190.574L188.342 110.179H194.339C194.476 110.179 194.741 110.134 195.163 109.881C195.533 109.659 195.96 109.28 196.421 108.665L196.428 108.656ZM186.009 112.072L189.038 97.6854H196.894C197.399 97.6854 197.872 97.8431 198.314 98.1586C198.756 98.411 199.134 98.8843 199.45 99.5784C199.765 100.273 199.923 101.251 199.923 102.513C199.923 104.153 199.734 105.573 199.355 106.772C199.04 107.971 198.567 108.98 197.935 109.801C197.368 110.558 196.768 111.126 196.137 111.504C195.506 111.883 194.907 112.072 194.339 112.072H186.009Z" stroke="white" stroke-width="0.3" mask="url(#path-5-outside-1_822_79)"/>
</svg>
