<?xml version="1.0" encoding="utf-8" standalone="yes"?>
<!DOCTYPE svg PUBLIC "-//W3C//DTD SVG 1.1//EN" "http://www.w3.org/Graphics/SVG/1.1/DTD/svg11.dtd">
<svg xmlns="http://www.w3.org/2000/svg" xmlns:xlink="http://www.w3.org/1999/xlink" xmlns:dc="http://purl.org/dc/elements/1.1/" xmlns:cc="http://web.resource.org/cc/" xmlns:rdf="http://www.w3.org/1999/02/22-rdf-syntax-ns#" xmlns:sodipodi="http://sodipodi.sourceforge.net/DTD/sodipodi-0.dtd" xmlns:inkscape="http://www.inkscape.org/namespaces/inkscape" version="1.1" baseProfile="full" width="480px" height="480px" viewBox="0 0 480 480" preserveAspectRatio="xMidYMid meet" id="svg_document" style="zoom: 1;"><!-- Created with macSVG - https://macsvg.org/ - https://github.com/dsward2/macsvg/ --><title id="svg_document_title">Untitled.svg</title><g id="main_group"><circle stroke="#802548" id="circle1" cy="240px" stroke-width="0" fill="#802548" r="240px" cx="240px" transform=""></circle><path d="M197.320007,225.281006 L168.519989,361.001007 L116.679993,361.001007 L165.639999,132.041 L218.919983,124.841003 L201.279999,208.001007 L204.160004,208.001007 A39.19,39.19 0 0 0 227.076996,200.55899 A50.269,50.269 0 0 0 230.080017,198.281006 Q241.960022,188.561005 248.619995,173.981003 A75.627,75.627 0 0 0 253.912994,158.195999 A61.957,61.957 0 0 0 255.279999,145.360992 A45.321,45.321 0 0 0 253.583008,132.666 A35.459,35.459 0 0 0 245.380005,118.181 Q235.47998,107.561005 215.679993,107.561005 A138.049,138.049 0 0 0 189.925003,109.854996 A103.948,103.948 0 0 0 164.559998,118.000999 Q142.600006,128.44101 130.540009,148.240997 Q118.479996,168.041 118.479996,195.041 Q118.479996,208.360992 121,213.580994 A180.727,180.727 0 0 1 121.591003,214.81601 Q123.134995,218.075989 123.442993,219.130997 A1.562,1.562 0 0 1 123.520004,219.520996 A75.099,75.099 0 0 1 113.369003,218.880005 Q108.130997,218.164001 103.873001,216.647003 A29.602,29.602 0 0 1 94.540009,211.42099 Q87.033997,205.048004 85.43399,192.098999 A61.237,61.237 0 0 1 85,184.600998 A59.507,59.507 0 0 1 92.018997,156.988998 Q96.235992,148.833008 102.988998,140.845001 A108.554,108.554 0 0 1 103.899994,139.781006 Q122.800003,118.000999 152.320007,104.500999 A149.276,149.276 0 0 1 189.220001,92.899002 A130.762,130.762 0 0 1 211.359985,91.000999 A153.698,153.698 0 0 1 230.39502,92.114998 Q240.489014,93.375999 249.02301,96.067001 A80.655,80.655 0 0 1 256.720001,98.920998 A77.805,77.805 0 0 1 269.979004,106.139 Q277.850006,111.542999 282.997986,118.464996 A47.826,47.826 0 0 1 284.080017,119.981003 Q293.080017,133.121002 293.080017,148.600998 A58.969,58.969 0 0 1 288.367981,171.337006 A78.219,78.219 0 0 1 282.640015,182.44101 A82.55,82.55 0 0 1 255.317993,209.480011 A95.74,95.74 0 0 1 254.200012,210.161011 A44.857,44.857 0 0 1 262.477997,213.411011 Q267.225006,215.886002 270.451996,219.341003 A24.215,24.215 0 0 1 273.460022,223.300995 A36.588,36.588 0 0 1 277.813995,234.324997 Q278.877991,239.028 279.018982,244.475006 A65.054,65.054 0 0 1 279.039978,246.160995 Q279.039978,256.601013 276.52002,268.300995 Q274.061005,279.718018 269.544983,296.449005 A1011.114,1011.114 0 0 1 269.320007,297.281006 Q266.440002,308.440979 263.919983,319.240997 Q261.399994,330.041016 261.399994,337.240997 A31.007,31.007 0 0 0 262.596008,345.985992 A26.857,26.857 0 0 0 265.179993,352.001007 Q268.960022,358.480988 275.440002,361.001007 A230.67,230.67 0 0 1 262.523987,364.227997 Q249.869019,366.97699 240.747009,367.114014 A63.084,63.084 0 0 1 239.799988,367.121002 A47.571,47.571 0 0 1 229.225006,366.053009 Q214.609009,362.705994 212.196991,348.877014 A34.219,34.219 0 0 1 211.720001,343.001007 A65.037,65.037 0 0 1 212.167999,335.622986 Q212.600006,331.850006 213.449005,327.660004 A118.854,118.854 0 0 1 214.059998,324.820984 Q216.153992,315.643005 219.830994,301.712006 A1384.266,1384.266 0 0 1 220.720001,298.360992 Q225.76001,281.440979 228.279999,269.561005 A128.859,128.859 0 0 0 230.002991,259.64801 Q230.651001,254.723022 230.772003,250.322998 A72.556,72.556 0 0 0 230.799988,248.320999 Q230.799988,227.266006 214.822021,224.320007 A31.029,31.029 0 0 0 209.200012,223.841003 A50.41,50.41 0 0 0 199.791992,224.755005 A58.016,58.016 0 0 0 197.320007,225.281006 " stroke="none" fill="#e5d3da"></path><path d="M393.480011,226.40802 L393.480011,226.64801 Q394.200012,226.888 396.119995,226.888 A36.325,36.325 0 0 0 402.950989,226.194 Q408.233002,225.181 414.359985,222.687988 A93.334,93.334 0 0 0 429.588013,214.850998 A83.94,83.94 0 0 0 433.080017,212.488007 L435.23999,218.968018 A50.801,50.801 0 0 1 426.080994,226.615997 A68.053,68.053 0 0 1 417.119995,231.567993 Q405.959991,236.727997 392.76001,238.888 A126.794,126.794 0 0 1 389.492004,258.75 A94.827,94.827 0 0 1 382.919983,277.048004 A75.486,75.486 0 0 1 374.492981,290.713013 A57.749,57.749 0 0 1 362.519989,302.247986 Q350.040009,311.127991 335.399994,311.127991 A56.111,56.111 0 0 1 324.069,310.049988 Q314.093018,307.992981 307.320007,302.007996 A27.994,27.994 0 0 1 299.5,290.022003 Q297.878998,285.399994 297.30899,279.701996 A65.309,65.309 0 0 1 297,273.208008 A93.476,93.476 0 0 1 298.47699,257.117004 Q300.149994,247.549988 303.720001,236.968018 Q310.440002,217.048004 325.320007,202.528 A50.542,50.542 0 0 1 358.597992,188.13501 A66.908,66.908 0 0 1 362.76001,188.007996 Q390.471008,188.007996 393.184998,219.252991 A82.771,82.771 0 0 1 393.480011,226.40802 M345,289.528015 A11.282,11.282 0 0 0 350.309998,288.125 Q353.415009,286.484985 356.52002,282.928009 A44.264,44.264 0 0 0 361.123993,276.505005 Q364.102997,271.518005 366.600006,264.928009 Q370.919983,253.528015 372.839996,239.608002 Q367.088013,238.328979 366.442017,231.377014 A20.013,20.013 0 0 1 366.359985,229.528015 Q366.359985,219.687988 373.799988,216.567993 Q373.320007,208.64801 371.399994,205.64801 A6.106,6.106 0 0 0 367.932983,203.087006 Q366.872009,202.757996 365.572998,202.675003 A14.095,14.095 0 0 0 364.679993,202.647995 Q357.234985,202.647995 350.213989,212.826996 A53.127,53.127 0 0 0 349.320007,214.167999 Q341.880005,225.687988 337.320007,241.768005 Q333.73999,254.393005 332.971008,264.651001 A72.747,72.747 0 0 0 332.76001,270.088013 A79.067,79.067 0 0 0 332.904999,275.071991 Q333.372009,282.429016 335.343018,285.480011 A7.207,7.207 0 0 0 335.399994,285.567993 A8.099,8.099 0 0 0 339.424011,288.65799 Q340.869995,289.200989 342.687012,289.404999 A20.763,20.763 0 0 0 345,289.528015 " stroke="none" fill="#d8bdc8"></path></g></svg>
