<svg width="200" height="200" viewBox="0 0 200 200" fill="none" xmlns="http://www.w3.org/2000/svg">
<circle cx="100" cy="100" r="100" fill="black"/>
<path d="M80 120H120V160H80V120Z" fill="white"/>
<path d="M80 40H120V80H80V40Z" fill="white"/>
<path d="M40 80H80V120H40V80Z" fill="white"/>
<path d="M160 80C160 74.7471 158.965 69.5457 156.955 64.6927C154.945 59.8396 151.999 55.4301 148.284 51.7157C144.57 48.0014 140.16 45.055 135.307 43.0448C130.454 41.0346 125.253 40 120 40V80H160Z" fill="white"/>
<path d="M120 160C125.253 160 130.454 158.965 135.307 156.955C140.16 154.945 144.57 151.999 148.284 148.284C151.999 144.57 154.945 140.16 156.955 135.307C158.965 130.454 160 125.253 160 120H120V160Z" fill="white"/>
</svg>
