<svg id="Layer_1" data-name="Layer 1" xmlns="http://www.w3.org/2000/svg" viewBox="0 0 50 50"><defs><style>.cls-1{fill:#22bb22;}.cls-2{fill:#fff;}</style></defs><circle class="cls-1" cx="25" cy="25" r="25"/><path class="cls-2" d="M14.77,15.26v1.51a2.52,2.52,0,0,1,2.46-1.51h1.36v1.91h-1.7c-1.51,0-2.09.71-2.09,2.45v2.76H18v1.79H10.2V22.38h2.22V17.07H10.2V15.26Z"/><path class="cls-2" d="M25,24.39c-2.19,0-4.26-1.26-4.26-4.67s2.07-4.65,4.26-4.65,4.25,1.24,4.25,4.65S27.17,24.39,25,24.39Zm0-7.57c-1.14,0-1.87.85-1.87,2.9s.73,2.91,1.87,2.91,1.87-.86,1.87-2.91S26.14,16.82,25,16.82Z"/><path class="cls-2" d="M39.62,18.48H37.37c-.14-.95-.58-1.66-1.64-1.66S34,17.73,34,19.73s.66,2.9,1.72,2.9c.73,0,1.47-.36,1.69-1.72H39.7a3.87,3.87,0,0,1-4,3.48c-2.59,0-4.07-2-4.07-4.66s1.51-4.66,4.12-4.66A3.74,3.74,0,0,1,39.62,18.48Z"/><path class="cls-2" d="M14.31,36.5c-2.19,0-4.26-1.26-4.26-4.67s2.07-4.65,4.26-4.65,4.25,1.24,4.25,4.65S16.47,36.5,14.31,36.5Zm0-7.57c-1.15,0-1.88.85-1.88,2.9s.73,2.91,1.88,2.91,1.87-.86,1.87-2.91S15.45,28.93,14.31,28.93Z"/><path class="cls-2" d="M28.92,30.59H26.67c-.13-.95-.58-1.66-1.64-1.66s-1.72.91-1.72,2.92S24,34.74,25,34.74c.73,0,1.48-.36,1.69-1.72H29a3.88,3.88,0,0,1-4,3.48c-2.6,0-4.07-2-4.07-4.65s1.5-4.67,4.12-4.67A3.72,3.72,0,0,1,28.92,30.59Z"/><path class="cls-2" d="M35.69,36.5c-2.18,0-4.25-1.26-4.25-4.67s2.07-4.65,4.25-4.65S40,28.42,40,31.83,37.86,36.5,35.69,36.5Zm0-7.57c-1.14,0-1.87.85-1.87,2.9s.73,2.91,1.87,2.91,1.88-.86,1.88-2.91S36.84,28.93,35.69,28.93Z"/></svg>
