<?xml version="1.0" encoding="utf-8" standalone="yes"?>
<!DOCTYPE svg PUBLIC "-//W3C//DTD SVG 1.1//EN" "http://www.w3.org/Graphics/SVG/1.1/DTD/svg11.dtd">
<svg xmlns="http://www.w3.org/2000/svg" xmlns:xlink="http://www.w3.org/1999/xlink" xmlns:dc="http://purl.org/dc/elements/1.1/" xmlns:cc="http://web.resource.org/cc/" xmlns:rdf="http://www.w3.org/1999/02/22-rdf-syntax-ns#" xmlns:sodipodi="http://sodipodi.sourceforge.net/DTD/sodipodi-0.dtd" xmlns:inkscape="http://www.inkscape.org/namespaces/inkscape" version="1.1" baseProfile="full" width="480px" height="480px" viewBox="0 0 480 480" preserveAspectRatio="xMidYMid meet" id="svg_document" style="zoom: 1;"><!-- Created with macSVG - https://macsvg.org/ - https://github.com/dsward2/macsvg/ --><title id="svg_document_title">Untitled.svg</title><g id="main_group"><circle stroke="#802548" id="circle1" cy="240px" stroke-width="0" fill="#802548" r="240px" cx="240px" transform=""></circle><path d="M243.320007,230.281006 L214.519989,366.001007 L162.679993,366.001007 L211.639999,137.041 L264.919983,129.841003 L247.279999,213.001007 L250.160004,213.001007 A39.19,39.19 0 0 0 273.076996,205.55899 A50.269,50.269 0 0 0 276.080017,203.281006 Q287.960022,193.561005 294.619995,178.981003 A75.627,75.627 0 0 0 299.912994,163.195999 A61.957,61.957 0 0 0 301.279999,150.360992 A45.321,45.321 0 0 0 299.583008,137.666 A35.459,35.459 0 0 0 291.380005,123.181 Q281.47998,112.561005 261.679993,112.561005 A138.049,138.049 0 0 0 235.925003,114.854996 A103.948,103.948 0 0 0 210.559998,123.000999 Q188.600006,133.44101 176.540009,153.240997 Q164.479996,173.041 164.479996,200.041 Q164.479996,213.360992 167,218.580994 A180.727,180.727 0 0 1 167.591003,219.81601 Q169.134995,223.075989 169.442993,224.130997 A1.562,1.562 0 0 1 169.520004,224.520996 A75.099,75.099 0 0 1 159.369003,223.880005 Q154.130997,223.164001 149.873001,221.647003 A29.602,29.602 0 0 1 140.540009,216.42099 Q133.033997,210.048004 131.43399,197.098999 A61.237,61.237 0 0 1 131,189.600998 A59.507,59.507 0 0 1 138.018997,161.988998 Q142.235992,153.833008 148.988998,145.845001 A108.554,108.554 0 0 1 149.899994,144.781006 Q168.800003,123.000999 198.320007,109.500999 A149.276,149.276 0 0 1 235.220001,97.899002 A130.762,130.762 0 0 1 257.359985,96.000999 A153.698,153.698 0 0 1 276.39502,97.114998 Q286.489014,98.375999 295.02301,101.067001 A80.655,80.655 0 0 1 302.720001,103.920998 A77.805,77.805 0 0 1 315.979004,111.139 Q323.850006,116.542999 328.997986,123.464996 A47.826,47.826 0 0 1 330.080017,124.981003 Q339.080017,138.121002 339.080017,153.600998 A58.969,58.969 0 0 1 334.367981,176.337006 A78.219,78.219 0 0 1 328.640015,187.44101 A82.55,82.55 0 0 1 301.317993,214.480011 A95.74,95.74 0 0 1 300.200012,215.161011 A44.857,44.857 0 0 1 308.477997,218.411011 Q313.225006,220.886002 316.451996,224.341003 A24.215,24.215 0 0 1 319.460022,228.300995 A36.588,36.588 0 0 1 323.813995,239.324997 Q324.877991,244.028 325.018982,249.475006 A65.054,65.054 0 0 1 325.039978,251.160995 Q325.039978,261.601013 322.52002,273.300995 Q320.061005,284.718018 315.544983,301.449005 A1011.114,1011.114 0 0 1 315.320007,302.281006 Q312.440002,313.440979 309.919983,324.240997 Q307.399994,335.041016 307.399994,342.240997 A31.007,31.007 0 0 0 308.596008,350.985992 A26.857,26.857 0 0 0 311.179993,357.001007 Q314.960022,363.480988 321.440002,366.001007 A230.67,230.67 0 0 1 308.523987,369.227997 Q295.869019,371.97699 286.747009,372.114014 A63.084,63.084 0 0 1 285.799988,372.121002 A47.571,47.571 0 0 1 275.225006,371.053009 Q260.609009,367.705994 258.196991,353.877014 A34.219,34.219 0 0 1 257.720001,348.001007 A65.037,65.037 0 0 1 258.167999,340.622986 Q258.600006,336.850006 259.449005,332.660004 A118.854,118.854 0 0 1 260.059998,329.820984 Q262.153992,320.643005 265.830994,306.712006 A1384.266,1384.266 0 0 1 266.720001,303.360992 Q271.76001,286.440979 274.279999,274.561005 A128.859,128.859 0 0 0 276.002991,264.64801 Q276.651001,259.723022 276.772003,255.322998 A72.556,72.556 0 0 0 276.799988,253.320999 Q276.799988,232.266006 260.822021,229.320007 A31.029,31.029 0 0 0 255.200012,228.841003 A50.41,50.41 0 0 0 245.791992,229.755005 A58.016,58.016 0 0 0 243.320007,230.281006 " stroke="none" fill="white"></path></g></svg>
