<?xml version="1.0" encoding="utf-8"?>
<!-- Generator: Adobe Illustrator 26.0.1, SVG Export Plug-In . SVG Version: 6.00 Build 0)  -->
<svg version="1.1" id="Layer_1" xmlns="http://www.w3.org/2000/svg" xmlns:xlink="http://www.w3.org/1999/xlink" x="0px" y="0px"
	 viewBox="0 0 60 60" style="enable-background:new 0 0 60 60;" xml:space="preserve">
<style type="text/css">
	.st0{fill:url(#SVGID_1_);}
	.st1{opacity:0.9;fill:url(#SVGID_00000140704398375507030640000013148983689079851682_);enable-background:new    ;}
	.st2{opacity:0.8;fill:#FFFFFF;enable-background:new    ;}
	.st3{opacity:0.5;fill:url(#SVGID_00000036945176036449442080000012762773783974906283_);enable-background:new    ;}
	.st4{opacity:0.6;fill:url(#SVGID_00000164501588410460359320000013592488060131180202_);enable-background:new    ;}
	.st5{opacity:0.9;fill:url(#SVGID_00000131368631488611171900000002128186226444771736_);enable-background:new    ;}
	.st6{opacity:0.4;fill:url(#SVGID_00000118383412779485754370000015860366044317395846_);enable-background:new    ;}
	.st7{opacity:0.5;fill:url(#SVGID_00000088815707932368072610000009785453309185158798_);enable-background:new    ;}
	.st8{opacity:0.9;fill:url(#SVGID_00000093162267337179845290000010848192410223905411_);enable-background:new    ;}
	.st9{opacity:0.3;fill:url(#SVGID_00000150086438119914352280000005311443745012175237_);enable-background:new    ;}
	.st10{opacity:0.4;fill:url(#SVGID_00000000908523834360426200000001872107180655359659_);enable-background:new    ;}
	.st11{opacity:0.4;fill:url(#SVGID_00000017504717060162065640000016706742996190407342_);enable-background:new    ;}
	.st12{opacity:0.4;fill:url(#SVGID_00000022543244690804212460000015404126041494511294_);enable-background:new    ;}
	.st13{opacity:0.4;fill:url(#SVGID_00000084531879452744399540000014760841031924562565_);enable-background:new    ;}
	.st14{opacity:0.5;fill:url(#SVGID_00000147197982281844571980000007184285329157397896_);enable-background:new    ;}
	.st15{opacity:0.5;fill:url(#SVGID_00000156579849517975846000000012590103320619994262_);enable-background:new    ;}
	.st16{opacity:0.5;fill:url(#SVGID_00000100365146366535844760000013409907947833774731_);enable-background:new    ;}
	.st17{opacity:0.6;fill:url(#SVGID_00000018953535332910175610000001029466905494178992_);enable-background:new    ;}
	.st18{opacity:0.5;fill:url(#SVGID_00000039819110832486225140000008570165903433586586_);enable-background:new    ;}
	.st19{opacity:0.6;fill:url(#SVGID_00000097477105678470978280000014226673226844744383_);enable-background:new    ;}
	.st20{opacity:0.3;fill:url(#SVGID_00000075844277026677648650000010407952396958987910_);enable-background:new    ;}
	.st21{opacity:0.3;fill:url(#SVGID_00000165214343623994217890000014526969038259585940_);enable-background:new    ;}
	.st22{opacity:0.3;fill:url(#SVGID_00000126295894153092702540000009922504205533384851_);enable-background:new    ;}
	.st23{opacity:0.3;fill:url(#SVGID_00000179612390990831405180000009449875766931067824_);enable-background:new    ;}
	.st24{opacity:0.3;fill:url(#SVGID_00000036936666153692908990000002129880016047160990_);enable-background:new    ;}
	.st25{opacity:0.3;fill:url(#SVGID_00000088846035967687138020000013862954576631803060_);enable-background:new    ;}
</style>
<linearGradient id="SVGID_1_" gradientUnits="userSpaceOnUse" x1="9.526" y1="9.4192" x2="47.775" y2="47.6732" gradientTransform="matrix(1 0 0 -1 0 59.8921)">
	<stop  offset="0" style="stop-color:#E6007A"/>
	<stop  offset="0.21" style="stop-color:#703AC2"/>
	<stop  offset="0.46" style="stop-color:#0070EB"/>
	<stop  offset="0.77" style="stop-color:#0297FB"/>
	<stop  offset="1" style="stop-color:#0AE2FF"/>
</linearGradient>
<path class="st0" d="M59.9,28c-1.1-16.5-15.4-29-32-27.9C19.7,0.6,12.5,4.5,7.5,10.2l0,0c0,0-0.1,0.1-0.1,0.1
	c-5,5.8-7.8,13.5-7.3,21.7c0.1,0.8,0.1,1.6,0.3,2.3c0,0,0,0.1,0,0.1c0.1,0.5,0.2,1,0.3,1.5c0.1,0.5,0.2,0.9,0.3,1.4
	C4.4,51.1,17.3,60.9,32,59.9C48.6,58.8,61.1,44.5,59.9,28C59.9,28,59.9,28,59.9,28z M53.4,28.4c0.1,2,0,4-0.4,5.9c0,0,0,0,0,0
	c-2.2-5.3-6.5-9.2-10.3-11.3c0.8-9-2.3-12.8-5.8-13.4c-2.7-0.5-5.3,1.3-5.8,4c0,0.1,0,0.2,0,0.3c-0.4,2.7,1.6,5.3,4.3,5.6
	c0,0,0,0,0,0c0.2,0,0.5,0,0.7,0c0,0.3,0,0.6,0,1c-3.2-0.8-6.2-1-8.9-0.7c-1,0.1-2,0.2-3.1,0.4c0.3-3,1.5-6.5,3.7-9
	c2.1-2.4,5.3-3.8,8.8-3.4c0.7,0.1,1.4,0.2,2,0.4c0,0,0.1,0,0.1,0C46.8,11.6,52.8,19.2,53.4,28.4C53.4,28.4,53.4,28.4,53.4,28.4z
	 M32.5,33C32.5,33,32.5,33,32.5,33c-0.8,1.1-1.6,2.1-2.6,3c-1.4-1.5-2.7-3.2-3.6-5.1c0-0.1-0.1-0.2-0.1-0.3v0
	c-0.6-1.2-1-2.5-1.3-3.7c2.1-0.5,4.2-0.7,6.2-0.6l0.3,0h0c1.3,0.1,2.6,0.3,3.9,0.7C34.6,29.1,33.7,31.2,32.5,33
	C32.5,33,32.5,33,32.5,33z M22.2,7.9L22.2,7.9c-3.5,4.6-4.7,10.2-4.7,14.5c-8.2,3.8-9.9,8.4-8.7,11.7c0,0.1,0.1,0.2,0.1,0.3
	c1.1,2.6,4,3.8,6.6,2.7c2.6-1.1,3.8-4,2.7-6.6c-0.1-0.2-0.2-0.4-0.3-0.6c0.3-0.2,0.5-0.3,0.8-0.5c0.9,3.2,2.3,5.8,3.8,8.1
	c0.6,0.8,1.2,1.7,1.9,2.4c-2.8,1.2-6.3,1.9-9.6,1.3c-3.2-0.6-5.9-2.7-7.4-5.9c-0.3-0.6-0.5-1.3-0.6-1.9c-0.1-0.6-0.1-1.2-0.2-1.7
	C5.9,20.8,12.5,11.3,22.2,7.9z M31.6,53.4c-6.4,0.4-12.3-1.7-16.9-5.6c5.7,0.8,11.2-1,14.9-3.2c7.4,5.2,12.2,4.4,14.5,1.7
	c1.8-2.1,1.6-5.3-0.5-7.1c-0.1-0.1-0.2-0.1-0.2-0.2c-2.2-1.7-5.3-1.3-7,0.9c0,0,0,0,0,0c-0.1,0.2-0.3,0.4-0.4,0.6
	c-0.3-0.1-0.6-0.3-0.9-0.5c2.1-2.2,3.8-4.6,5.1-7.4c0.5-0.9,0.9-1.9,1.2-2.8c2.5,1.8,4.9,4.5,5.9,7.7c1,3.1,0.6,6.5-1.4,9.3
	c-0.4,0.5-0.9,1.1-1.4,1.5l0,0C40.8,51.4,36.3,53.1,31.6,53.4C31.6,53.4,31.6,53.4,31.6,53.4z"/>
<radialGradient id="SVGID_00000103976507286194312470000014481433229177668737_" cx="-185.2052" cy="416.6168" r="1" gradientTransform="matrix(11.408 0 0 -11.408 2151.3711 4776.6895)" gradientUnits="userSpaceOnUse">
	<stop  offset="0" style="stop-color:#FFFFFF"/>
	<stop  offset="1" style="stop-color:#FFFFFF;stop-opacity:0"/>
</radialGradient>
<path style="opacity:0.9;fill:url(#SVGID_00000103976507286194312470000014481433229177668737_);enable-background:new    ;" d="
	M37,9.6c-0.6-0.1-1.1-0.1-1.7,0c2.9,1.6,5,5.9,3.9,14.5c-0.4,2.8-1.2,5.5-2.4,8c-1.1,2.3-2.5,4.4-4.1,6.4c0.8,0.6,1.6,1.1,2.5,1.6
	c2.1-2.2,3.8-4.6,5.1-7.4c1.2-2.5,2.1-5.2,2.4-8C43.9,14.5,40.7,10.3,37,9.6L37,9.6L37,9.6z"/>
<path class="st2" d="M39.2,24.1c1.1-8.6-1-12.9-3.9-14.5c-0.1,0-0.2,0-0.3,0.1c2.8,1.6,4.8,6,3.7,14.4c-0.4,2.8-1.2,5.5-2.4,8
	c-1,2.2-2.4,4.3-4,6.2c0.1,0.1,0.2,0.1,0.3,0.2c1.7-1.9,3.1-4.1,4.1-6.4C38,29.6,38.8,26.9,39.2,24.1L39.2,24.1z"/>
<radialGradient id="SVGID_00000005260198761442183320000007123851122312683905_" cx="-172.42" cy="391.9911" r="1" gradientTransform="matrix(6.6384 0 0 -6.6384 1166.2795 2647.2783)" gradientUnits="userSpaceOnUse">
	<stop  offset="0" style="stop-color:#FFFFFF"/>
	<stop  offset="1" style="stop-color:#FFFFFF;stop-opacity:0"/>
</radialGradient>
<path style="opacity:0.5;fill:url(#SVGID_00000005260198761442183320000007123851122312683905_);enable-background:new    ;" d="
	M28.3,43.6c-0.3-0.2-0.5-0.4-0.8-0.6c-4.2,1.8-10.1,2.9-15.9,1.5c0.9,1.2,2,2.3,3.2,3.3c5.7,0.8,11.2-1,14.9-3.2
	C29.2,44.2,28.7,43.9,28.3,43.6L28.3,43.6z"/>
<linearGradient id="SVGID_00000051350704480359066000000008662282767041586841_" gradientUnits="userSpaceOnUse" x1="11.7293" y1="15.9279" x2="18.1273" y2="16.0159" gradientTransform="matrix(1 0 0 -1 0 59.8921)">
	<stop  offset="0" style="stop-color:#FFFFFF;stop-opacity:0"/>
	<stop  offset="1" style="stop-color:#FFFFFF"/>
</linearGradient>
<path style="opacity:0.6;fill:url(#SVGID_00000051350704480359066000000008662282767041586841_);enable-background:new    ;" d="
	M27.5,42.9c-0.1-0.1-0.3-0.2-0.4-0.3c-4.3,1.7-10.2,2.7-16,1.3c0.1,0.2,0.3,0.4,0.4,0.6C17.4,45.8,23.2,44.7,27.5,42.9L27.5,42.9z"
	/>
<radialGradient id="SVGID_00000061453737537348992280000007129756772237237888_" cx="-241.5793" cy="452.6176" r="1" gradientTransform="matrix(-5.704 -9.8796 -9.8796 5.704 3114.1846 -4942.8135)" gradientUnits="userSpaceOnUse">
	<stop  offset="0" style="stop-color:#FFFFFF"/>
	<stop  offset="1" style="stop-color:#FFFFFF;stop-opacity:0"/>
</radialGradient>
<path style="opacity:0.9;fill:url(#SVGID_00000061453737537348992280000007129756772237237888_);enable-background:new    ;" d="
	M8.8,34.1c0,0.1,0.1,0.2,0.1,0.3c0.2,0.5,0.4,0.9,0.7,1.2c-0.1-3.3,2.6-7.3,10.6-10.6c2.6-1.1,5.4-1.7,8.2-1.9
	c2.5-0.2,5.1-0.1,7.6,0.4c0.1-1.1,0.2-2.1,0.2-3c-2.9-0.7-5.9-1-8.9-0.7c-2.8,0.2-5.6,0.8-8.2,1.9C9.6,25.7,7.6,30.6,8.8,34.1
	L8.8,34.1L8.8,34.1z"/>
<path class="st2" d="M20.3,25c-8,3.3-10.7,7.3-10.6,10.6c0.1,0.1,0.1,0.2,0.2,0.3c0-3.2,2.7-7.2,10.6-10.5c2.6-1.1,5.4-1.7,8.2-1.9
	c2.4-0.2,4.9-0.1,7.3,0.4c0-0.1,0-0.2,0-0.3c-2.5-0.5-5-0.6-7.6-0.4C25.7,23.3,22.9,23.9,20.3,25C20.3,25,20.3,25,20.3,25z"/>
<radialGradient id="SVGID_00000134944528227357231980000013971785309312859827_" cx="-269.2984" cy="453.8581" r="1" gradientTransform="matrix(-3.3192 -5.749 -5.749 3.3192 1762.6031 -3024.9902)" gradientUnits="userSpaceOnUse">
	<stop  offset="0" style="stop-color:#FFFFFF"/>
	<stop  offset="1" style="stop-color:#FFFFFF;stop-opacity:0"/>
</radialGradient>
<path style="opacity:0.4;fill:url(#SVGID_00000134944528227357231980000013971785309312859827_);enable-background:new    ;" d="
	M42.6,24.7c0,0.3-0.1,0.7-0.2,1c3.6,2.8,7.5,7.3,9.3,13c0.6-1.4,1-2.9,1.3-4.4c-2.2-5.3-6.5-9.1-10.3-11.3
	C42.7,23.6,42.7,24.1,42.6,24.7C42.6,24.7,42.6,24.7,42.6,24.7z"/>
<linearGradient id="SVGID_00000029025139996405840980000004927553677101380750_" gradientUnits="userSpaceOnUse" x1="51.2225" y1="21.0561" x2="47.9475" y2="26.5521" gradientTransform="matrix(1 0 0 -1 0 59.8921)">
	<stop  offset="0" style="stop-color:#FFFFFF;stop-opacity:0"/>
	<stop  offset="1" style="stop-color:#FFFFFF"/>
</linearGradient>
<path style="opacity:0.5;fill:url(#SVGID_00000029025139996405840980000004927553677101380750_);enable-background:new    ;" d="
	M42.4,25.7c0,0.2-0.1,0.3-0.1,0.5c3.6,2.8,7.4,7.4,9.1,13.2c0.1-0.2,0.2-0.4,0.3-0.7C50,33,46.1,28.5,42.4,25.7
	C42.4,25.7,42.4,25.7,42.4,25.7z"/>
<radialGradient id="SVGID_00000074428365677709244540000001170730877946296227_" cx="-182.2147" cy="483.4386" r="1" gradientTransform="matrix(-5.704 9.8796 9.8796 5.704 -5785.0996 -917.4102)" gradientUnits="userSpaceOnUse">
	<stop  offset="0" style="stop-color:#FFFFFF"/>
	<stop  offset="1" style="stop-color:#FFFFFF;stop-opacity:0"/>
</radialGradient>
<path style="opacity:0.9;fill:url(#SVGID_00000074428365677709244540000001170730877946296227_);enable-background:new    ;" d="
	M44.1,46.3c0.4-0.4,0.7-0.9,0.9-1.5c-2.8,1.7-7.6,1.3-14.5-3.9c-2.2-1.7-4.2-3.8-5.7-6.1c-1.5-2.1-2.6-4.4-3.4-6.8
	c-1,0.4-1.9,0.9-2.7,1.3c0.8,2.9,2.1,5.6,3.9,8.1c1.5,2.3,3.5,4.4,5.7,6.1C36.5,49.8,41.7,49.1,44.1,46.3L44.1,46.3L44.1,46.3z"/>
<path class="st2" d="M30.5,40.9c6.9,5.2,11.7,5.6,14.5,3.9c0-0.1,0.1-0.2,0.1-0.3c-2.8,1.6-7.6,1.2-14.4-4c-2.2-1.7-4.2-3.8-5.7-6.1
	c-1.4-2-2.5-4.2-3.3-6.5c-0.1,0-0.2,0.1-0.3,0.1c0.8,2.4,2,4.7,3.4,6.8C26.3,37.1,28.2,39.2,30.5,40.9L30.5,40.9L30.5,40.9z"/>
<radialGradient id="SVGID_00000018213622570317025410000007415516860194494385_" cx="-167.2808" cy="506.8238" r="1" gradientTransform="matrix(-3.3192 5.749 5.749 3.3192 -3447.8867 -705.285)" gradientUnits="userSpaceOnUse">
	<stop  offset="0" style="stop-color:#FFFFFF"/>
	<stop  offset="1" style="stop-color:#FFFFFF;stop-opacity:0"/>
</radialGradient>
<path style="opacity:0.3;fill:url(#SVGID_00000018213622570317025410000007415516860194494385_);enable-background:new    ;" d="
	M19.1,21.7c0.3-0.1,0.6-0.2,0.9-0.4c0.6-4.5,2.6-10.2,6.6-14.6c-1.5,0.2-3,0.6-4.5,1.1c-3.5,4.5-4.7,10.2-4.6,14.5
	C18.1,22.2,18.6,21.9,19.1,21.7L19.1,21.7L19.1,21.7z"/>
<linearGradient id="SVGID_00000181085393924862728240000016288817712456647342_" gradientUnits="userSpaceOnUse" x1="27.0256" y1="52.7017" x2="23.9066" y2="47.1147" gradientTransform="matrix(1 0 0 -1 0 59.8921)">
	<stop  offset="0" style="stop-color:#FFFFFF;stop-opacity:0"/>
	<stop  offset="1" style="stop-color:#FFFFFF"/>
</linearGradient>
<path style="opacity:0.4;fill:url(#SVGID_00000181085393924862728240000016288817712456647342_);enable-background:new    ;" d="
	M20.1,21.4c0.2-0.1,0.3-0.1,0.5-0.2c0.7-4.6,2.7-10.2,6.9-14.5c-0.2,0-0.5,0.1-0.7,0.1C22.6,11.2,20.6,16.8,20.1,21.4L20.1,21.4
	L20.1,21.4z"/>
<linearGradient id="SVGID_00000031202877466454752800000007851980731449459382_" gradientUnits="userSpaceOnUse" x1="28.4267" y1="55.5365" x2="18.6507" y2="52.6925" gradientTransform="matrix(1 0 0 -1 0 59.8921)">
	<stop  offset="0" style="stop-color:#231F20"/>
	<stop  offset="1" style="stop-color:#FFFFFF"/>
</linearGradient>
<path style="opacity:0.4;fill:url(#SVGID_00000031202877466454752800000007851980731449459382_);enable-background:new    ;" d="
	M28,0.1C19.7,0.6,12.5,4.5,7.5,10.2l-0.1,0.1c1,1,4.2,2.9,5.5,3.7c2.6-2.8,5.8-4.9,9.4-6.2c0.3-0.3,0.5-0.7,0.8-1
	c3.4-3.8,8-5.8,13.4-5.8c0.6,0,1.8,0.1,1.8,0.1C34.9,0.2,31.4-0.2,28,0.1L28,0.1z"/>
<linearGradient id="SVGID_00000158729916061444669450000013837451400714035089_" gradientUnits="userSpaceOnUse" x1="9.9566" y1="18.2624" x2="18.1306" y2="9.7304" gradientTransform="matrix(1 0 0 -1 0 59.8921)">
	<stop  offset="0" style="stop-color:#231F20"/>
	<stop  offset="1" style="stop-color:#FFFFFF"/>
</linearGradient>
<path style="opacity:0.4;fill:url(#SVGID_00000158729916061444669450000013837451400714035089_);enable-background:new    ;" d="
	M31.6,53.4c-6.4,0.4-12.3-1.7-16.9-5.6c-0.4-0.1-0.8-0.1-1.3-0.2c-5-1-9.1-4-11.8-8.7c-0.3-0.5-0.6-1-0.8-1.6
	C4.4,51.1,17.3,60.9,32,59.9C32.1,58.4,31.7,54.9,31.6,53.4C31.6,53.4,31.6,53.4,31.6,53.4z"/>
<linearGradient id="SVGID_00000129203933679139512450000001095278043479050174_" gradientUnits="userSpaceOnUse" x1="53.8246" y1="19.5482" x2="56.6686" y2="28.1942" gradientTransform="matrix(1 0 0 -1 0 59.8921)">
	<stop  offset="0" style="stop-color:#231F20"/>
	<stop  offset="1" style="stop-color:#FFFFFF"/>
</linearGradient>
<path style="opacity:0.4;fill:url(#SVGID_00000129203933679139512450000001095278043479050174_);enable-background:new    ;" d="
	M59.9,28c-0.9-0.1-5.4,0.3-6.5,0.4c0.1,2,0,4-0.4,5.9c0.2,0.4,0.3,0.8,0.4,1.2c1.6,4.8,1.1,9.9-1.6,14.5c-0.3,0.5-0.6,1-1,1.5
	c0,0,0,0,0,0C57,45.6,60.5,37.1,59.9,28C59.9,28,59.9,28,59.9,28z"/>
<linearGradient id="SVGID_00000050651093117363705360000013689170206856274869_" gradientUnits="userSpaceOnUse" x1="32.8777" y1="50.5907" x2="45.9807" y2="47.5917" gradientTransform="matrix(1 0 0 -1 0 59.8921)">
	<stop  offset="0" style="stop-color:#231F20"/>
	<stop  offset="1" style="stop-color:#FFFFFF"/>
</linearGradient>
<path style="opacity:0.5;fill:url(#SVGID_00000050651093117363705360000013689170206856274869_);enable-background:new    ;" d="
	M36.7,7.8c0.7,0.1,1.4,0.2,2,0.4c0,0,0.1,0,0.1,0c2.6,1.1,4.9,2.5,7,4.4c0,0,0,0,0,0c1-1.1,2.9-2.4,2.9-2.4s-2.9-3-7.3-3.9
	c-3.1-0.6-10.1-1.3-14.5,6.3l0,0c0.3-0.5,0.7-1,1.1-1.4C30.1,8.8,33.3,7.4,36.7,7.8z"/>
<linearGradient id="SVGID_00000142137249319132945460000004464437094416722579_" gradientUnits="userSpaceOnUse" x1="46.4858" y1="17.0514" x2="37.3308" y2="7.2014" gradientTransform="matrix(1 0 0 -1 0 59.8921)">
	<stop  offset="0" style="stop-color:#231F20"/>
	<stop  offset="1" style="stop-color:#FFFFFF"/>
</linearGradient>
<path style="opacity:0.5;fill:url(#SVGID_00000142137249319132945460000004464437094416722579_);enable-background:new    ;" d="
	M45.9,46.9c-0.4,0.5-0.9,1.1-1.4,1.5c0,0,0,0-0.1,0.1c-2.2,1.7-4.7,3-7.3,3.8c0,0,0,0,0,0c0.5,1.4,0.6,3.7,0.6,3.7s4-1,7-4.4
	c2.1-2.4,6.2-8.1,1.9-15.7c0,0,0,0,0,0.1c0.3,0.5,0.5,1.1,0.7,1.6C48.3,40.6,47.9,44.1,45.9,46.9C45.9,46.9,45.9,46.9,45.9,46.9z"/>
<linearGradient id="SVGID_00000049197054293289341610000003457193005142360452_" gradientUnits="userSpaceOnUse" x1="10.632" y1="22.0296" x2="6.682" y2="34.8786" gradientTransform="matrix(1 0 0 -1 0 59.8921)">
	<stop  offset="0" style="stop-color:#231F20"/>
	<stop  offset="1" style="stop-color:#FFFFFF"/>
</linearGradient>
<path style="opacity:0.5;fill:url(#SVGID_00000049197054293289341610000003457193005142360452_);enable-background:new    ;" d="
	M7.4,35.3c-0.3-0.6-0.5-1.3-0.6-1.9c0,0,0-0.1,0-0.1c-0.4-2.8-0.3-5.6,0.3-8.3v0c-1.5-0.3-3.5-1.3-3.5-1.3s-1.1,4,0.3,8.3
	c1,3,4,9.4,12.7,9.5c0,0,0,0-0.1,0c-0.6,0-1.2-0.1-1.8-0.2C11.6,40.5,8.8,38.5,7.4,35.3C7.4,35.3,7.4,35.3,7.4,35.3z"/>
<linearGradient id="SVGID_00000060752852370899178300000016315499052719424693_" gradientUnits="userSpaceOnUse" x1="35.7406" y1="45.7596" x2="31.5976" y2="41.6106" gradientTransform="matrix(1 0 0 -1 0 59.8921)">
	<stop  offset="0" style="stop-color:#231F20"/>
	<stop  offset="1" style="stop-color:#FFFFFF"/>
</linearGradient>
<path style="opacity:0.6;fill:url(#SVGID_00000060752852370899178300000016315499052719424693_);enable-background:new    ;" d="
	M35.5,19.5c0.2,0,0.5,0,0.7,0c0,0-0.2-3.1-0.5-4.7c-0.4-1.6-1-2.7-1.6-3.3c-0.4-0.4-1.8-1-2.9,2.3C30.8,16.6,32.7,19.2,35.5,19.5
	C35.5,19.5,35.5,19.5,35.5,19.5L35.5,19.5L35.5,19.5z"/>
<linearGradient id="SVGID_00000097459040242513397820000008606103132333977261_" gradientUnits="userSpaceOnUse" x1="13.3877" y1="26.934" x2="19.0497" y2="25.413" gradientTransform="matrix(1 0 0 -1 0 59.8921)">
	<stop  offset="0" style="stop-color:#231F20"/>
	<stop  offset="1" style="stop-color:#FFFFFF"/>
</linearGradient>
<path style="opacity:0.5;fill:url(#SVGID_00000097459040242513397820000008606103132333977261_);enable-background:new    ;" d="
	M18.2,30.5c-0.1-0.2-0.2-0.4-0.3-0.6c0,0-2.6,1.7-3.8,2.8c-1.2,1.1-1.8,2.2-2,3c-0.1,0.6,0.1,2.1,3.5,1.4
	C18.1,36,19.3,33.1,18.2,30.5L18.2,30.5z"/>
<linearGradient id="SVGID_00000106148316395369773320000002757923291886078389_" gradientUnits="userSpaceOnUse" x1="40.8622" y1="16.9882" x2="39.3452" y2="22.6482" gradientTransform="matrix(1 0 0 -1 0 59.8921)">
	<stop  offset="0" style="stop-color:#231F20"/>
	<stop  offset="1" style="stop-color:#FFFFFF"/>
</linearGradient>
<path style="opacity:0.6;fill:url(#SVGID_00000106148316395369773320000002757923291886078389_);enable-background:new    ;" d="
	M36.3,40c-0.1,0.2-0.3,0.4-0.4,0.6c0,0,2.8,1.4,4.4,1.9c1.6,0.5,2.8,0.5,3.6,0.3c0.6-0.2,1.8-1.1-0.5-3.7C41.2,37.3,38,37.8,36.3,40
	C36.3,40,36.3,40,36.3,40C36.3,40,36.3,40,36.3,40z"/>
<linearGradient id="SVGID_00000082334974036727074960000012556770789156809859_" gradientUnits="userSpaceOnUse" x1="32.2379" y1="22.0261" x2="34.7279" y2="25.4601" gradientTransform="matrix(1 0 0 -1 0 59.8921)">
	<stop  offset="0" style="stop-color:#231F20"/>
	<stop  offset="1" style="stop-color:#FFFFFF"/>
</linearGradient>
<path style="opacity:0.3;fill:url(#SVGID_00000082334974036727074960000012556770789156809859_);enable-background:new    ;" d="
	M35.3,27c-0.6,2.1-1.5,4-2.6,5.7c-0.1,0.1-0.1,0.2-0.2,0.3c0,0,0,0,0,0c-0.8,1.1-1.6,2.1-2.6,3c0.7,0.7,1.4,1.4,2.2,2.1
	c0.9,0.7,1.9,1.4,2.9,2c2.1-2.2,3.8-4.6,5.1-7.4c0.5-0.9,0.8-1.9,1.2-2.8c-1.1-0.8-2.1-1.4-3.1-1.8C37.3,27.7,36.3,27.3,35.3,27
	L35.3,27L35.3,27z"/>
<linearGradient id="SVGID_00000061459537237502812120000017891292822794755715_" gradientUnits="userSpaceOnUse" x1="23.6772" y1="23.5133" x2="18.7022" y2="21.1413" gradientTransform="matrix(1 0 0 -1 0 59.8921)">
	<stop  offset="0" style="stop-color:#231F20"/>
	<stop  offset="1" style="stop-color:#FFFFFF"/>
</linearGradient>
<path style="opacity:0.3;fill:url(#SVGID_00000061459537237502812120000017891292822794755715_);enable-background:new    ;" d="
	M14.7,47.8c5.7,0.8,11.2-1,14.9-3.2c-0.5-0.3-0.9-0.6-1.4-1c-1.4-1.1-2.7-2.3-3.9-3.7c-2.8,1.2-6.3,1.9-9.6,1.3
	c-3.2-0.6-5.9-2.7-7.4-5.9c-0.3-0.6-0.5-1.3-0.6-1.9C7.6,39.1,10.5,44.2,14.7,47.8L14.7,47.8L14.7,47.8z"/>
<linearGradient id="SVGID_00000179623011387368395410000010812718621845476502_" gradientUnits="userSpaceOnUse" x1="21.876" y1="31.7957" x2="23.416" y2="28.5967" gradientTransform="matrix(1 0 0 -1 0 59.8921)">
	<stop  offset="0" style="stop-color:#231F20"/>
	<stop  offset="1" style="stop-color:#FFFFFF"/>
</linearGradient>
<path style="opacity:0.3;fill:url(#SVGID_00000179623011387368395410000010812718621845476502_);enable-background:new    ;" d="
	M29.9,36c-1.4-1.5-2.7-3.2-3.6-5.1c0-0.1-0.1-0.2-0.1-0.3v0c-0.6-1.2-1-2.5-1.3-3.7c-1,0.2-2,0.5-2.9,0.9c-1.1,0.4-2.2,1-3.2,1.5
	c0.9,3.2,2.3,5.8,3.8,8.1c0.6,0.8,1.2,1.7,1.9,2.4c1.2-0.5,2.3-1.1,3.1-1.8C28.4,37.5,29.2,36.8,29.9,36C29.9,36,29.9,36,29.9,36z"
	/>
<linearGradient id="SVGID_00000060740709543541916200000016658141810299588769_" gradientUnits="userSpaceOnUse" x1="29.0296" y1="41.6699" x2="27.9666" y2="45.3409" gradientTransform="matrix(1 0 0 -1 0 59.8921)">
	<stop  offset="0" style="stop-color:#231F20"/>
	<stop  offset="1" style="stop-color:#FFFFFF"/>
</linearGradient>
<path style="opacity:0.3;fill:url(#SVGID_00000060740709543541916200000016658141810299588769_);enable-background:new    ;" d="
	M22.2,7.9c-3.5,4.5-4.7,10.2-4.6,14.5c0.5-0.2,1-0.5,1.5-0.7c1.6-0.7,3.4-1.2,5.1-1.5c0.3-3,1.5-6.5,3.7-9c2.1-2.4,5.3-3.8,8.8-3.4
	c0.7,0.1,1.4,0.2,2,0.4c0,0,0.1,0,0.1,0c-3.3-1.3-6.9-1.9-10.4-1.7C26.2,6.7,24.2,7.2,22.2,7.9C22.2,7.9,22.2,7.9,22.2,7.9L22.2,7.9
	L22.2,7.9z"/>
<linearGradient id="SVGID_00000152970832658843794190000016084043716957806753_" gradientUnits="userSpaceOnUse" x1="40.5237" y1="24.859" x2="43.6037" y2="24.15" gradientTransform="matrix(1 0 0 -1 0 59.8921)">
	<stop  offset="0" style="stop-color:#231F20"/>
	<stop  offset="1" style="stop-color:#FFFFFF"/>
</linearGradient>
<path style="opacity:0.3;fill:url(#SVGID_00000152970832658843794190000016084043716957806753_);enable-background:new    ;" d="
	M53,34.3C50.9,29,46.6,25.2,42.8,23c0,0.5-0.1,1.1-0.2,1.7c-0.2,1.8-0.6,3.5-1.2,5.2c2.5,1.8,4.9,4.5,5.9,7.7c1,3.1,0.6,6.5-1.4,9.3
	c-0.4,0.5-0.9,1.1-1.4,1.5l0,0C48.9,45,52,40,53,34.3C53.1,34.3,53,34.3,53,34.3L53,34.3L53,34.3z"/>
<linearGradient id="SVGID_00000103949445521785630760000000354989492508393888_" gradientUnits="userSpaceOnUse" x1="35.6916" y1="35.2648" x2="31.7846" y2="35.9738" gradientTransform="matrix(1 0 0 -1 0 59.8921)">
	<stop  offset="0" style="stop-color:#231F20"/>
	<stop  offset="1" style="stop-color:#FFFFFF"/>
</linearGradient>
<path style="opacity:0.3;fill:url(#SVGID_00000103949445521785630760000000354989492508393888_);enable-background:new    ;" d="
	M24.2,23.8c0.1,1,0.3,2.1,0.6,3.1c2.1-0.5,4.2-0.7,6.2-0.6l0.3,0h0c1.3,0.1,2.6,0.3,3.9,0.7c0.3-1,0.5-2,0.7-3
	c0.2-1.3,0.2-2.5,0.2-3.5c-3.2-0.8-6.2-1-8.9-0.7c-1,0.1-2,0.2-3.1,0.4C24.1,21.5,24.1,22.7,24.2,23.8
	C24.2,23.8,24.2,23.8,24.2,23.8z"/>
</svg>
