<svg xmlns="http://www.w3.org/2000/svg" xmlns:xlink="http://www.w3.org/1999/xlink" viewBox="0 0 143.6 165.66"><defs><style>.cls-1{fill:url(#linear-gradient);}.cls-2{fill:url(#linear-gradient-2);}.cls-3{fill:url(#linear-gradient-3);}</style><linearGradient id="linear-gradient" x1="15.25" y1="26.28" x2="128.35" y2="139.38" gradientUnits="userSpaceOnUse"><stop offset="0" stop-color="#ffbe2e"/><stop offset="1" stop-color="#ec3d3d"/></linearGradient><linearGradient id="linear-gradient-2" x1="61.62" y1="41.58" x2="112.01" y2="70.68" xlink:href="#linear-gradient"/><linearGradient id="linear-gradient-3" x1="24.28" y1="59.74" x2="115.56" y2="112.44" xlink:href="#linear-gradient"/></defs><g id="Layer_2" data-name="Layer 2"><g id="Layer_1-2" data-name="Layer 1"><path class="cls-1" d="M71.69,11.55l61.79,35.54.11,71.29L71.91,154.12,10.12,118.57,10,47.29,71.69,11.55M71.67,0,0,41.53l.13,82.83,71.8,41.3,71.67-41.52-.13-82.84L71.67,0Z"/><polygon class="cls-2" points="117.41 61.33 117.4 56.41 71.72 30.13 66.48 33.17 91.74 76.35 117.41 61.33"/><path class="cls-3" d="M117.48,65.14l-45.55,27L44.77,45.75,26.12,56.55l.08,52.7,45.68,26.28,45.6-26.42ZM83.85,102h0a1.22,1.22,0,0,1-1.83-1l-.12-6.78a1.24,1.24,0,0,1,.61-1.08,1.23,1.23,0,0,1,1.83,1l.12,6.78A1.19,1.19,0,0,1,83.85,102Zm4.83-2.79a1.22,1.22,0,0,1-1.83-1l-.12-6.77a1.22,1.22,0,1,1,2.43,0l.13,6.78A1.25,1.25,0,0,1,88.68,99.16Zm4.88-2.89a1.21,1.21,0,0,1-1.83-1l-.15-6.78A1.22,1.22,0,1,1,94,88.41l.15,6.78A1.22,1.22,0,0,1,93.56,96.27Z"/></g></g></svg>