<?xml version="1.0" encoding="utf-8"?>
<!-- Generator: Adobe Illustrator 24.0.1, SVG Export Plug-In . SVG Version: 6.00 Build 0)  -->
<svg version="1.1" id="Laag_1" xmlns="http://www.w3.org/2000/svg" xmlns:xlink="http://www.w3.org/1999/xlink" x="0px" y="0px"
	 viewBox="0 0 300 300" style="enable-background:new 0 0 300 300;" xml:space="preserve">
<style type="text/css">
	.st0{fill:url(#SVGID_1_);}
	.st1{fill:url(#SVGID_2_);}
</style>
<linearGradient id="SVGID_1_" gradientUnits="userSpaceOnUse" x1="4.8442" y1="150.4221" x2="218.8309" y2="150.4221">
	<stop  offset="0" style="stop-color:#E94081"/>
	<stop  offset="0.2171" style="stop-color:#E63F81"/>
	<stop  offset="0.4368" style="stop-color:#DF3D82"/>
	<stop  offset="0.6576" style="stop-color:#D23983"/>
	<stop  offset="0.878" style="stop-color:#C03384"/>
	<stop  offset="1" style="stop-color:#B33085"/>
</linearGradient>
<path class="st0" d="M4.8,276.1c0-54.7,0-108.7,0-163.2C6.5,114,48.8,149,55,154c1.3,1,2.4,0.9,3.5-0.3
	c5.1-5.3,121-123.7,124.8-127.7c1.9-2,2.7-1.9,5.7,1.1c4.6,4.5,26.6,27.2,29.8,30.5C147.7,130.3,76.5,203,4.8,276.1z"/>
<linearGradient id="SVGID_2_" gradientUnits="userSpaceOnUse" x1="-1176.6617" y1="660.4056" x2="-1385.3871" y2="660.4056" gradientTransform="matrix(-1 0 0 -1 -1089.5677 811.5134)">
	<stop  offset="6.961042e-02" style="stop-color:#E94081"/>
	<stop  offset="8.148406e-02" style="stop-color:#E84081"/>
	<stop  offset="0.3497" style="stop-color:#D13984"/>
	<stop  offset="0.6003" style="stop-color:#C13486"/>
	<stop  offset="0.8245" style="stop-color:#B63187"/>
	<stop  offset="1" style="stop-color:#B23087"/>
</linearGradient>
<path class="st1" d="M295.8,27.9c0,54.7-0.3,109.7-0.3,164.2c-1.6-1.2-38.4-42-44.7-47.1c-1.3-1-2.4-0.9-3.5,0.3
	c-5.1,5.3-121,123.7-124.8,127.7c-1.9,2-2.7,1.9-5.7-1.1c-4.6-4.5-26.6-27.2-29.8-30.5C158.3,168.8,224.2,101,295.8,27.9z"/>
</svg>
