<svg xmlns="http://www.w3.org/2000/svg" width="228" height="228" viewBox="0 0 228 228"><defs><style>.a{fill:#fff;}.b{fill:#493b2a;}.c{fill:#ff1f66;}.d{fill:#5cffd9;}</style></defs><g transform="translate(-55 -21)"><path class="a" d="M114,0A114,114,0,1,1,0,114,114,114,0,0,1,114,0Z" transform="translate(55 21)"/><path class="b" d="M107.5,206a103.255,103.255,0,0,1-20.657-2.082,101.936,101.936,0,0,1-36.651-15.423,102.8,102.8,0,0,1-37.136-45.1,101.986,101.986,0,0,1-5.972-19.24,103.5,103.5,0,0,1,0-41.315A101.939,101.939,0,0,1,22.506,46.191,102.8,102.8,0,0,1,67.6,9.055a101.984,101.984,0,0,1,19.24-5.973,103.5,103.5,0,0,1,41.315,0,101.937,101.937,0,0,1,36.651,15.423,102.8,102.8,0,0,1,37.136,45.1,101.983,101.983,0,0,1,5.973,19.24,103.447,103.447,0,0,1-.507,43.655,101.943,101.943,0,0,1-7.387,21.168A19.923,19.923,0,0,0,182.934,138a19.927,19.927,0,0,0-15.5,32.472,20.01,20.01,0,0,0,11.109,6.911,102.616,102.616,0,0,1-32.089,20.954,102,102,0,0,1-18.811,5.684A103.291,103.291,0,0,1,107.5,206Z" transform="translate(62 32)"/><path class="c" d="M306.92,196.477c0,1.051,0,24.87,0,24.87s71.4-.094,73.49,0,4.015,2.653,4.068,6.612-1.342,7.375-4.068,7.463-73.49,0-73.49,0-.495,15.714,0,35.852,11.615,30.4,26.65,30.245,43.236-.057,45.537,0,5.552,3.493,5.425,7.145-2.758,7.477-4.945,7.477-9.386-.039-46.017,0-43.577-24.922-43.577-44.867-.071-72.595,0-74.8,1.912-6.684,8.794-6.684S306.921,195.426,306.92,196.477Z" transform="translate(-173.991 -118.87)"/><path class="d" d="M49.651,140.884c-15.237,0-27.3-4.479-35.851-13.312A44.735,44.735,0,0,1,5.521,115.42,57.46,57.46,0,0,1,1.46,103.3,64.806,64.806,0,0,1,.12,94c-.157-2.3-.115-3.7-.114-3.718,0-.727.192-72.771.1-77.366a10.355,10.355,0,0,1,.922-4.147A14.575,14.575,0,0,1,3.981,4.383,14.765,14.765,0,0,1,14.845,0l.3,0a20.17,20.17,0,0,1,6.884,1.275,16.614,16.614,0,0,1,5.084,3.035,13.729,13.729,0,0,1,3.151,3.981,9.2,9.2,0,0,1,1.084,4.113c.007,5.058,0,18.446,0,19.013v0h.585c8.271-.015,29.254-.048,45.432-.048,11.484,0,18.459.017,20.732.05a10.508,10.508,0,0,1,4.959,1.232,9.825,9.825,0,0,1,3.392,3.133,14.1,14.1,0,0,1,1.946,4.441,20.65,20.65,0,0,1,.62,5.157,19.931,19.931,0,0,1-.691,5.239,15.721,15.721,0,0,1-2.059,4.624,10.841,10.841,0,0,1-3.413,3.325A9.548,9.548,0,0,1,98.1,59.918c-3.688.084-21.3.1-35.419.1-15.7,0-30.7-.021-31.331-.022,0,.094,0,21.858,0,27.448A33.241,33.241,0,0,0,32,93.568a31.432,31.432,0,0,0,2.676,8.08,18.973,18.973,0,0,0,5.782,7.044,15.557,15.557,0,0,0,4.4,2.2,18.5,18.5,0,0,0,5.579.816h.225c5.018-.051,10.879-.076,17.92-.076,7.493,0,14.631.028,20.367.051h.022c3.539.014,6.334.025,8.161.025a9.977,9.977,0,0,1,4.888,1.284,12.646,12.646,0,0,1,3.8,3.306,16.06,16.06,0,0,1,2.461,4.511,14.914,14.914,0,0,1,.876,4.9,14.456,14.456,0,0,1-1.043,5.079,20.355,20.355,0,0,1-2.74,4.91,15.915,15.915,0,0,1-3.854,3.706,9.742,9.742,0,0,1-2.163,1.077,6.879,6.879,0,0,1-2.224.388c-1.5,0-1.992,0-2.736,0h-.017C92.268,140.873,87.887,140.884,49.651,140.884Zm28.944-7.5c9.841,0,14.443.01,16.655.015h.014l1.623,0a2.887,2.887,0,0,0,1.677-.655,7.043,7.043,0,0,0,1.567-1.715,10.452,10.452,0,0,0,1.181-2.4,9.393,9.393,0,0,0,.519-2.709,6.772,6.772,0,0,0-.584-2.928,8.45,8.45,0,0,0-1.594-2.42,5.092,5.092,0,0,0-3.247-1.8c-1.33-.033-11.852-.082-23.663-.082-6.272,0-15.158.014-21.874.082l-.328,0c-7.545,0-13.96-2.637-18.553-7.626a27.145,27.145,0,0,1-5.54-9.46,42.848,42.848,0,0,1-2.229-13.16c-.255-10.4-.242-19.6-.185-25.478.061-6.372.184-10.335.185-10.374.176,0,31.5.039,53.225.039,12.642,0,19.46-.013,20.265-.039a3.6,3.6,0,0,0,3.077-2.28,11.54,11.54,0,0,0,.992-5.183,10.637,10.637,0,0,0-.365-2.69,7.344,7.344,0,0,0-.907-2.065,4.607,4.607,0,0,0-1.288-1.341,2.953,2.953,0,0,0-1.509-.516c-.615-.028-7.338-.042-19.98-.042-21.12,0-52.185.04-53.5.042h-.013c0-.1,0-4.488,0-9.566,0-6.9,0-14.711,0-15.3A7.146,7.146,0,0,0,22.735,10a7.072,7.072,0,0,0-2.473-2.051,9.236,9.236,0,0,0-4.174-.9,11.531,11.531,0,0,0-4.267.735A7.493,7.493,0,0,0,9.137,9.569a6.821,6.821,0,0,0-1.407,2.195,6.043,6.043,0,0,0-.436,1.974c-.049,1.521-.031,26.934-.014,49.356.007,9.9.014,19.259.014,25.442,0,12.463,2.7,22.525,8.034,29.907a32.492,32.492,0,0,0,5.627,6.019,34.354,34.354,0,0,0,7.607,4.733,44,44,0,0,0,9.852,3.1,64.81,64.81,0,0,0,12.363,1.11h.093C61.68,133.39,71.008,133.384,78.6,133.384Z" transform="translate(108.699 63.867)"/><path class="c" d="M12.38,0A12.38,12.38,0,1,1,0,12.38,12.38,12.38,0,0,1,12.38,0Z" transform="translate(232.5 177.5)"/></g></svg>