<svg width="16" height="16" viewBox="0 0 16 16" fill="none" xmlns="http://www.w3.org/2000/svg">
  <path d="M10.4913 7.07151C9.95749 7.07151 9.50768 6.88368 9.14189 6.50801C8.77611 6.13234 8.59322 5.68252 8.59322 5.15856C8.59322 4.6346 8.77611 4.18973 9.14189 3.82394C9.50768 3.45816 9.95749 3.27527 10.4913 3.27527C11.0252 3.27527 11.475 3.45816 11.8408 3.82394C12.2066 4.18973 12.3895 4.6346 12.3895 5.15856C12.3895 5.68252 12.2066 6.13234 11.8408 6.50801C11.475 6.88368 11.0252 7.07151 10.4913 7.07151ZM5.43463 7.07151C4.91066 7.07151 4.46085 6.88368 4.08518 6.50801C3.70951 6.13234 3.52167 5.68252 3.52167 5.15856C3.52167 4.6346 3.70951 4.18973 4.08518 3.82394C4.46085 3.45816 4.91066 3.27527 5.43463 3.27527C5.95859 3.27527 6.40346 3.45816 6.76924 3.82394C7.13503 4.18973 7.31792 4.6346 7.31792 5.15856C7.31792 5.68252 7.13503 6.13234 6.76924 6.50801C6.40346 6.88368 5.95859 7.07151 5.43463 7.07151ZM5.43463 8.31715C5.97836 8.31715 6.57646 8.39624 7.22894 8.55442C7.88142 8.71259 8.48447 8.96963 9.03809 9.32553C9.59171 9.68143 9.86852 10.0868 9.86852 10.5415V12.1134H1.00073V10.5415C1.00073 10.0868 1.2726 9.68143 1.81633 9.32553C2.36006 8.96963 2.96311 8.71259 3.62548 8.55442C4.28784 8.39624 4.89089 8.31715 5.43463 8.31715ZM10.4913 8.31715C11.045 8.31715 11.648 8.39624 12.3005 8.55442C12.953 8.71259 13.5511 8.96963 14.0948 9.32553C14.6385 9.68143 14.9104 10.0868 14.9104 10.5415V12.1134H11.1142V10.5415C11.1142 9.69131 10.6989 8.95975 9.86852 8.34681C10.1256 8.32704 10.3332 8.31715 10.4913 8.31715Z" fill="white"/>
</svg>
