<svg width="16" height="16" viewBox="0 0 16 16" fill="none" xmlns="http://www.w3.org/2000/svg">
  <path d="M13.25 11.2308C13.25 11.0064 13.1715 10.8157 13.0145 10.6587L11.2645 8.90865C11.1074 8.7516 10.9167 8.67307 10.6923 8.67307C10.4568 8.67307 10.2548 8.76282 10.0866 8.94231C10.1034 8.95913 10.1567 9.01102 10.2464 9.09795C10.3362 9.18489 10.3965 9.24519 10.4273 9.27884C10.4582 9.3125 10.5002 9.36578 10.5535 9.4387C10.6068 9.51162 10.6433 9.58313 10.6629 9.65324C10.6825 9.72336 10.6923 9.80048 10.6923 9.88461C10.6923 10.109 10.6138 10.2997 10.4568 10.4567C10.2997 10.6138 10.109 10.6923 9.88464 10.6923C9.80051 10.6923 9.72339 10.6825 9.65327 10.6629C9.58316 10.6432 9.51165 10.6068 9.43873 10.5535C9.36581 10.5002 9.31253 10.4581 9.27887 10.4273C9.24522 10.3964 9.18492 10.3361 9.09799 10.2464C9.01105 10.1566 8.95916 10.1034 8.94234 10.0865C8.75724 10.2604 8.66469 10.4651 8.66469 10.7007C8.66469 10.9251 8.74322 11.1158 8.90027 11.2728L10.6334 13.0144C10.7849 13.1659 10.9756 13.2416 11.2056 13.2416C11.4299 13.2416 11.6206 13.1687 11.7777 13.0228L13.0145 11.7945C13.1715 11.6374 13.25 11.4495 13.25 11.2308ZM7.33536 5.29928C7.33536 5.07492 7.25684 4.88421 7.09979 4.72716L5.36661 2.98557C5.20956 2.82852 5.01886 2.75 4.7945 2.75C4.57575 2.75 4.38504 2.82572 4.22238 2.97716L2.98561 4.20553C2.82855 4.36258 2.75003 4.55048 2.75003 4.76923C2.75003 4.99359 2.82855 5.18429 2.98561 5.34134L4.73561 7.09134C4.88705 7.24279 5.07775 7.31851 5.30772 7.31851C5.5433 7.31851 5.74522 7.23157 5.91349 7.05769C5.89666 7.04086 5.84338 6.98898 5.75363 6.90204C5.66389 6.8151 5.60359 6.75481 5.57274 6.72115C5.5419 6.6875 5.49983 6.63421 5.44654 6.5613C5.39326 6.48838 5.3568 6.41686 5.33717 6.34675C5.31754 6.27664 5.30772 6.19952 5.30772 6.11538C5.30772 5.89102 5.38625 5.70032 5.5433 5.54327C5.70035 5.38622 5.89105 5.30769 6.11541 5.30769C6.19955 5.30769 6.27667 5.31751 6.34678 5.33714C6.4169 5.35677 6.48841 5.39323 6.56133 5.44651C6.63424 5.4998 6.68753 5.54186 6.72118 5.57271C6.75484 5.60356 6.81513 5.66386 6.90207 5.7536C6.98901 5.84335 7.04089 5.89663 7.05772 5.91346C7.24282 5.73958 7.33536 5.53485 7.33536 5.29928ZM14.8654 11.2308C14.8654 11.9038 14.627 12.4732 14.1503 12.9387L12.9135 14.1671C12.4479 14.6326 11.8786 14.8654 11.2056 14.8654C10.5269 14.8654 9.95476 14.627 9.48921 14.1502L7.75604 12.4087C7.29049 11.9431 7.05772 11.3738 7.05772 10.7007C7.05772 10.0108 7.30452 9.42468 7.79811 8.94231L7.05772 8.20192C6.57535 8.69551 5.99202 8.94231 5.30772 8.94231C4.63464 8.94231 4.06253 8.70673 3.59137 8.23557L1.84137 6.48557C1.37022 6.01442 1.13464 5.44231 1.13464 4.76923C1.13464 4.09615 1.37302 3.52684 1.84979 3.0613L3.08657 1.83293C3.55211 1.36739 4.12142 1.13461 4.7945 1.13461C5.47319 1.13461 6.0453 1.37299 6.51085 1.84976L8.24402 3.59134C8.70956 4.05689 8.94234 4.6262 8.94234 5.29928C8.94234 5.98918 8.69554 6.57532 8.20195 7.05769L8.94234 7.79807C9.42471 7.30449 10.008 7.05769 10.6923 7.05769C11.3654 7.05769 11.9375 7.29327 12.4087 7.76442L14.1587 9.51442C14.6298 9.98557 14.8654 10.5577 14.8654 11.2308Z" fill="white"/>
</svg>
