<svg width="16" height="16" viewBox="0 0 16 16" fill="none" xmlns="http://www.w3.org/2000/svg">
  <g clip-path="url(#clip0)">
    <path d="M13.9219 14.125H13.375V1.65625C13.375 1.29381 13.0812 1 12.7188 1H3.53125C3.16881 1 2.875 1.29381 2.875 1.65625V14.125H2.32812C2.14692 14.125 2 14.2719 2 14.4531V15H14.25V14.4531C14.25 14.2719 14.1031 14.125 13.9219 14.125ZM5.5 3.07812C5.5 2.89692 5.64692 2.75 5.82812 2.75H6.92188C7.10308 2.75 7.25 2.89692 7.25 3.07812V4.17188C7.25 4.35308 7.10308 4.5 6.92188 4.5H5.82812C5.64692 4.5 5.5 4.35308 5.5 4.17188V3.07812ZM5.5 5.70312C5.5 5.52192 5.64692 5.375 5.82812 5.375H6.92188C7.10308 5.375 7.25 5.52192 7.25 5.70312V6.79688C7.25 6.97808 7.10308 7.125 6.92188 7.125H5.82812C5.64692 7.125 5.5 6.97808 5.5 6.79688V5.70312ZM6.92188 9.75H5.82812C5.64692 9.75 5.5 9.60308 5.5 9.42188V8.32812C5.5 8.14692 5.64692 8 5.82812 8H6.92188C7.10308 8 7.25 8.14692 7.25 8.32812V9.42188C7.25 9.60308 7.10308 9.75 6.92188 9.75ZM9 14.125H7.25V11.8281C7.25 11.6469 7.39692 11.5 7.57812 11.5H8.67188C8.85308 11.5 9 11.6469 9 11.8281V14.125ZM10.75 9.42188C10.75 9.60308 10.6031 9.75 10.4219 9.75H9.32812C9.14692 9.75 9 9.60308 9 9.42188V8.32812C9 8.14692 9.14692 8 9.32812 8H10.4219C10.6031 8 10.75 8.14692 10.75 8.32812V9.42188ZM10.75 6.79688C10.75 6.97808 10.6031 7.125 10.4219 7.125H9.32812C9.14692 7.125 9 6.97808 9 6.79688V5.70312C9 5.52192 9.14692 5.375 9.32812 5.375H10.4219C10.6031 5.375 10.75 5.52192 10.75 5.70312V6.79688ZM10.75 4.17188C10.75 4.35308 10.6031 4.5 10.4219 4.5H9.32812C9.14692 4.5 9 4.35308 9 4.17188V3.07812C9 2.89692 9.14692 2.75 9.32812 2.75H10.4219C10.6031 2.75 10.75 2.89692 10.75 3.07812V4.17188Z" fill="white"/>
  </g>
  <defs>
    <clipPath id="clip0">
      <rect width="12.25" height="14" fill="white" transform="translate(2 1)"/>
    </clipPath>
  </defs>
</svg>
