<svg width="16" height="16" viewBox="0 0 16 16" fill="none" xmlns="http://www.w3.org/2000/svg">
  <g clip-path="url(#clip0)">
    <path d="M13.1775 4.49999C12.5644 4.48826 12.0624 5.00183 12.0624 5.61515V7.9998H11.8437V3.18156C11.8437 2.56824 11.3418 2.05467 10.7286 2.0664C10.1344 2.07777 9.65619 2.56301 9.65619 3.15996V7.9998H9.43744V2.11515C9.43744 1.50183 8.93552 0.988261 8.32233 0.999991C7.72813 1.01137 7.24994 1.49661 7.24994 2.09355V7.9998H7.03119V3.2089C7.03119 2.59558 6.52927 2.08201 5.91608 2.09374C5.32188 2.10512 4.84369 2.59036 4.84369 3.1873V9.64021L3.97831 8.45023C3.62304 7.96171 2.93901 7.85367 2.45043 8.20898C1.96193 8.56428 1.85392 9.24832 2.2092 9.73687L5.6436 14.4593C5.76537 14.6267 5.925 14.7629 6.10948 14.8569C6.29396 14.9508 6.49804 14.9998 6.70506 14.9998H12.1079C12.717 14.9998 13.246 14.5808 13.3855 13.9879L14.1103 10.9074C14.2031 10.5133 14.2499 10.1098 14.2499 9.70493V5.59355C14.2499 4.99661 13.7718 4.51137 13.1775 4.49999Z" fill="white"/>
  </g>
  <defs>
    <clipPath id="clip0">
      <rect width="12.25" height="14" fill="white" transform="translate(2 1)"/>
    </clipPath>
  </defs>
</svg>
