<svg width="16" height="16" viewBox="0 0 16 16" fill="none" xmlns="http://www.w3.org/2000/svg">
  <path d="M1 11.1421L2.03306 11.0742C2.39553 11.056 2.66286 10.9563 2.83504 10.7751C3.00721 10.5848 3.0933 10.3039 3.0933 9.93235V3.12234H5.22738V9.90517C5.22738 11.7085 4.28041 12.6645 2.38647 12.7733L1.12234 12.8412L1 11.1421Z" fill="white"/>
  <path d="M11.0309 12.8276C10.3059 12.8276 9.60817 12.7325 8.93759 12.5422C8.26701 12.3428 7.7097 12.071 7.26567 11.7266L7.94531 10.2178C8.86962 10.8612 9.90721 11.1829 11.0581 11.1829C11.6562 11.1829 12.1138 11.0877 12.431 10.8974C12.7572 10.6981 12.9203 10.4262 12.9203 10.0819C12.9203 9.77377 12.7708 9.53363 12.4717 9.36145C12.1817 9.18928 11.6607 9.02163 10.9086 8.85852C10.0658 8.68634 9.39068 8.47792 8.88322 8.23325C8.38481 7.98858 8.01781 7.68953 7.7822 7.33612C7.55565 6.97364 7.44237 6.52961 7.44237 6.00402C7.44237 5.42406 7.60096 4.90753 7.91812 4.45443C8.24435 4.00134 8.69745 3.64793 9.27741 3.39419C9.85737 3.1314 10.528 3 11.2892 3C11.9688 3 12.6213 3.09968 13.2465 3.29904C13.8809 3.4984 14.3838 3.76573 14.7553 4.10102L14.0757 5.60983C13.1967 4.96643 12.2724 4.64473 11.3027 4.64473C10.75 4.64473 10.315 4.75348 9.99783 4.97096C9.68066 5.17939 9.52208 5.46937 9.52208 5.84091C9.52208 6.05839 9.58098 6.23963 9.69879 6.38462C9.82565 6.52055 10.0295 6.64288 10.3105 6.75163C10.6004 6.86037 11.0082 6.97364 11.5338 7.09145C12.7662 7.36331 13.6498 7.71219 14.1844 8.1381C14.7281 8.56401 15 9.15303 15 9.90517C15 10.8114 14.6511 11.5272 13.9534 12.0528C13.2556 12.5694 12.2814 12.8276 11.0309 12.8276Z" fill="white"/>
</svg>
