<svg width="16" height="16" viewBox="0 0 16 16" fill="none" xmlns="http://www.w3.org/2000/svg">
  <path fill-rule="evenodd" clip-rule="evenodd" d="M4.44488 4.45275C6.34743 4.45275 7.88975 3.67983 7.88975 2.72638C7.88975 1.77292 6.34743 1 4.44488 1C2.54232 1 1 1.77292 1 2.72638C1 3.67983 2.54232 4.45275 4.44488 4.45275ZM11.9139 7.95275C13.5922 7.95275 14.9528 7.17983 14.9528 6.22638C14.9528 5.27292 13.5922 4.5 11.9139 4.5C10.2355 4.5 8.875 5.27292 8.875 6.22638C8.875 7.17983 10.2355 7.95275 11.9139 7.95275ZM11.9594 8.94582C9.78588 8.94582 8.9205 8.03495 8.9205 7.50732V9.76745C8.9205 10.7212 10.2811 11.4929 11.9594 11.4929C13.6394 11.4929 15 10.7212 15 9.76745V7.56157C15 8.09007 14.1338 8.94582 11.9594 8.94582ZM8.9205 11.0344C8.9205 11.5621 10.0151 12.4379 11.9594 12.4379C13.9045 12.4379 15 11.5349 15 11.0073V13.2736C15 14.2273 13.6394 14.9999 11.9594 14.9999C10.2811 14.9999 8.9205 14.2273 8.9205 13.2736V11.0344ZM1.10938 4.00732C1.10938 4.53495 2.09112 5.44582 4.55425 5.44582C7.01737 5.44582 8 4.59007 8 4.06157V6.26745C8 7.2212 6.45825 7.99295 4.55425 7.99295C2.652 7.99295 1.10938 7.2212 1.10938 6.26745V4.00732ZM4.55425 8.93795C2.35012 8.93795 1.10938 8.06207 1.10938 7.53445V9.77357C1.10938 10.7273 2.652 11.4999 4.55425 11.4999C6.45825 11.4999 8 10.7273 8 9.77357V7.50732C8 8.03495 6.7575 8.93795 4.55425 8.93795ZM1.10938 11.0344C1.10938 11.5621 2.35012 12.4379 4.55425 12.4379C6.7575 12.4379 8 11.5349 8 11.0073V13.2736C8 14.2273 6.45825 14.9999 4.55425 14.9999C2.652 14.9999 1.10938 14.2273 1.10938 13.2736V11.0344Z" fill="white"/>
</svg>
