<svg width="16" height="16" viewBox="0 0 16 16" fill="none" xmlns="http://www.w3.org/2000/svg">
  <path d="M2.4 7.6C3.2825 7.6 4 6.8825 4 6C4 5.1175 3.2825 4.4 2.4 4.4C1.5175 4.4 0.8 5.1175 0.8 6C0.8 6.8825 1.5175 7.6 2.4 7.6ZM13.6 7.6C14.4825 7.6 15.2 6.8825 15.2 6C15.2 5.1175 14.4825 4.4 13.6 4.4C12.7175 4.4 12 5.1175 12 6C12 6.8825 12.7175 7.6 13.6 7.6ZM14.4 8.4H12.8C12.36 8.4 11.9625 8.5775 11.6725 8.865C12.68 9.4175 13.395 10.415 13.55 11.6H15.2C15.6425 11.6 16 11.2425 16 10.8V10C16 9.1175 15.2825 8.4 14.4 8.4ZM8 8.4C9.5475 8.4 10.8 7.1475 10.8 5.6C10.8 4.0525 9.5475 2.8 8 2.8C6.4525 2.8 5.2 4.0525 5.2 5.6C5.2 7.1475 6.4525 8.4 8 8.4ZM9.92 9.2H9.7125C9.1925 9.45 8.615 9.6 8 9.6C7.385 9.6 6.81 9.45 6.2875 9.2H6.08C4.49 9.2 3.2 10.49 3.2 12.08V12.8C3.2 13.4625 3.7375 14 4.4 14H11.6C12.2625 14 12.8 13.4625 12.8 12.8V12.08C12.8 10.49 11.51 9.2 9.92 9.2ZM4.3275 8.865C4.0375 8.5775 3.64 8.4 3.2 8.4H1.6C0.7175 8.4 0 9.1175 0 10V10.8C0 11.2425 0.3575 11.6 0.8 11.6H2.4475C2.605 10.415 3.32 9.4175 4.3275 8.865Z" fill="white"/>
</svg>
