<svg width="16" height="16" viewBox="0 0 16 16" fill="none" xmlns="http://www.w3.org/2000/svg">
  <path d="M14.7499 8.2446L13.1011 7.54605C13.074 7.22925 13.0185 6.9164 12.9352 6.61124L14.1415 5.23347C14.2532 5.10583 14.2749 4.92255 14.1958 4.77237C13.8272 4.07169 13.3484 3.4416 12.7726 2.89964C12.6425 2.77724 12.448 2.75299 12.2918 2.84015L10.8157 3.66292C10.4913 3.44588 10.1452 3.26793 9.78197 3.13132L9.49294 1.43248C9.46367 1.26041 9.32877 1.12572 9.15659 1.09677C8.77495 1.03258 8.38584 1 8.00003 1C7.61423 1 7.22511 1.03258 6.84337 1.09677C6.6713 1.12572 6.53639 1.26041 6.50713 1.43248L6.2181 3.13121C5.85483 3.26793 5.50876 3.44588 5.18427 3.66292L3.70824 2.84015C3.55208 2.75299 3.35758 2.77713 3.22737 2.89964C2.65155 3.4416 2.17272 4.07169 1.80411 4.77237C1.72518 4.92255 1.74675 5.10583 1.85858 5.23347L3.06491 6.61124C2.98149 6.9164 2.92595 7.22925 2.89882 7.54605L1.25018 8.2446C1.08847 8.31317 0.988283 8.47702 1.0011 8.65219C1.06038 9.46172 1.25392 10.248 1.57628 10.989C1.64464 11.1461 1.80336 11.2448 1.97458 11.2349L3.91417 11.1297C4.04384 11.3034 4.1844 11.4689 4.33447 11.625L3.80832 13.498C3.76154 13.6644 3.82424 13.8423 3.96491 13.9428C4.63013 14.4177 5.36424 14.7683 6.14664 14.985C6.31369 15.0314 6.49196 14.9675 6.59162 14.8257L7.74475 13.1854C7.91576 13.194 8.08431 13.194 8.25531 13.1854L9.40845 14.8257C9.48653 14.9368 9.61267 15 9.74394 15C9.78037 15 9.81722 14.9951 9.85343 14.985C10.6359 14.7682 11.3699 14.4176 12.0351 13.9428C12.1758 13.8423 12.2384 13.6644 12.1916 13.498L11.6655 11.6251C11.8157 11.469 11.9561 11.3034 12.0858 11.1297L14.0255 11.2349C14.196 11.2445 14.3554 11.1461 14.4238 10.989C14.7461 10.248 14.9397 9.46172 14.999 8.65219C15.0117 8.47702 14.9116 8.31317 14.7499 8.2446ZM8.03923 10.934C6.46376 10.934 5.18202 9.63571 5.18202 8.03984C5.18202 6.44397 6.46376 5.14568 8.03923 5.14568C9.6147 5.14568 10.8964 6.44397 10.8964 8.03984C10.8964 9.63571 9.6147 10.934 8.03923 10.934Z" fill="white"/>
</svg>
