<svg width="16" height="16" viewBox="0 0 16 16" fill="none" xmlns="http://www.w3.org/2000/svg">
  <path fill-rule="evenodd" clip-rule="evenodd" d="M7.99998 2.16663C10.5299 2.16663 12.6666 3.23529 12.6666 4.49996V5.66663C12.6666 6.93129 10.5299 7.99996 7.99998 7.99996C5.47006 7.99996 3.33331 6.93129 3.33331 5.66663V4.49996C3.33331 3.23529 5.47006 2.16663 7.99998 2.16663ZM3.33331 9.74996C3.33331 11.0146 5.47006 12.0833 7.99998 12.0833C10.5299 12.0833 12.6666 11.0146 12.6666 9.74996V11.5C12.6666 12.7646 10.5299 13.8333 7.99998 13.8333C5.47006 13.8333 3.33331 12.7646 3.33331 11.5V9.74996ZM7.99998 9.16671C10.5299 9.16671 12.6666 8.09804 12.6666 6.83337V8.58337C12.6666 9.84804 10.5299 10.9167 7.99998 10.9167C5.47006 10.9167 3.33331 9.84804 3.33331 8.58337V6.83337C3.33331 8.09804 5.47006 9.16671 7.99998 9.16671Z" fill="white"/>
</svg>
