<svg width="16" height="16" viewBox="0 0 16 16" fill="none" xmlns="http://www.w3.org/2000/svg">
  <g clip-path="url(#clip0)">
    <path d="M15.4829 5.63412L10.6864 4.90414L8.54222 0.352196C8.48365 0.227567 8.38731 0.126676 8.26829 0.0653505C7.96981 -0.0889528 7.6071 0.0396333 7.45786 0.352196L5.3137 4.90414L0.517213 5.63412C0.384974 5.6539 0.26407 5.71918 0.171503 5.81809C0.0595945 5.93854 -0.0020722 6.10059 5.31712e-05 6.26862C0.00217854 6.43666 0.0679221 6.59694 0.182838 6.71424L3.65316 10.2573L2.83328 15.2603C2.81405 15.3766 2.82635 15.4963 2.86878 15.6058C2.91121 15.7152 2.98207 15.81 3.07333 15.8794C3.16459 15.9488 3.27259 15.9901 3.38509 15.9985C3.4976 16.0069 3.6101 15.9821 3.70983 15.9269L8.00004 13.5649L12.2902 15.9269C12.4074 15.9922 12.5434 16.014 12.6737 15.9902C13.0024 15.9309 13.2235 15.6045 13.1668 15.2603L12.3469 10.2573L15.8172 6.71424C15.9117 6.61731 15.974 6.4907 15.9929 6.35222C16.0439 6.00603 15.8135 5.68555 15.4829 5.63412Z" fill="white"/>
  </g>
  <defs>
    <clipPath id="clip0">
      <rect width="16" height="16" fill="white"/>
    </clipPath>
  </defs>
</svg>
