<svg width="16" height="16" viewBox="0 0 16 16" fill="none" xmlns="http://www.w3.org/2000/svg">
  <path d="M12.375 2.3125V13.6875C12.375 14.4124 11.7874 15 11.0625 15H4.9375C4.21262 15 3.625 14.4124 3.625 13.6875V2.3125C3.625 1.58762 4.21262 1 4.9375 1H11.0625C11.7874 1 12.375 1.58762 12.375 2.3125ZM15 3.89844V4.22656C15 4.27007 14.9827 4.3118 14.9519 4.34257C14.9212 4.37334 14.8794 4.39062 14.8359 4.39062H14.3438V4.55469C14.3438 4.5982 14.3265 4.63993 14.2957 4.6707C14.2649 4.70147 14.2232 4.71875 14.1797 4.71875H13.0312V3.40625H14.1797C14.2232 3.40625 14.2649 3.42354 14.2957 3.4543C14.3265 3.48507 14.3438 3.5268 14.3438 3.57031V3.73438H14.8359C14.8794 3.73438 14.9212 3.75166 14.9519 3.78243C14.9827 3.8132 15 3.85493 15 3.89844ZM15 6.52344V6.85156C15 6.89507 14.9827 6.9368 14.9519 6.96757C14.9212 6.99834 14.8794 7.01562 14.8359 7.01562H14.3438V7.17969C14.3438 7.2232 14.3265 7.26493 14.2957 7.2957C14.2649 7.32647 14.2232 7.34375 14.1797 7.34375H13.0312V6.03125H14.1797C14.2232 6.03125 14.2649 6.04853 14.2957 6.0793C14.3265 6.11007 14.3438 6.1518 14.3438 6.19531V6.35938H14.8359C14.8794 6.35938 14.9212 6.37666 14.9519 6.40743C14.9827 6.4382 15 6.47993 15 6.52344ZM15 9.14844V9.47656C15 9.52007 14.9827 9.5618 14.9519 9.59257C14.9212 9.62334 14.8794 9.64062 14.8359 9.64062H14.3438V9.80469C14.3438 9.8482 14.3265 9.88993 14.2957 9.9207C14.2649 9.95146 14.2232 9.96875 14.1797 9.96875H13.0312V8.65625H14.1797C14.2232 8.65625 14.2649 8.67353 14.2957 8.7043C14.3265 8.73507 14.3438 8.7768 14.3438 8.82031V8.98438H14.8359C14.8794 8.98438 14.9212 9.00166 14.9519 9.03243C14.9827 9.0632 15 9.10493 15 9.14844ZM15 11.7734V12.1016C15 12.1451 14.9827 12.1868 14.9519 12.2176C14.9212 12.2483 14.8794 12.2656 14.8359 12.2656H14.3438V12.4297C14.3438 12.4732 14.3265 12.5149 14.2957 12.5457C14.2649 12.5765 14.2232 12.5938 14.1797 12.5938H13.0312V11.2812H14.1797C14.2232 11.2812 14.2649 11.2985 14.2957 11.3293C14.3265 11.3601 14.3438 11.4018 14.3438 11.4453V11.6094H14.8359C14.8794 11.6094 14.9212 11.6267 14.9519 11.6574C14.9827 11.6882 15 11.7299 15 11.7734ZM1.82031 11.2812H2.96875V12.5938H1.82031C1.7768 12.5938 1.73507 12.5765 1.7043 12.5457C1.67354 12.5149 1.65625 12.4732 1.65625 12.4297V12.2656H1.16406C1.12055 12.2656 1.07882 12.2483 1.04805 12.2176C1.01729 12.1868 1 12.1451 1 12.1016V11.7734C1 11.7299 1.01729 11.6882 1.04805 11.6574C1.07882 11.6267 1.12055 11.6094 1.16406 11.6094H1.65625V11.4453C1.65625 11.4018 1.67354 11.3601 1.7043 11.3293C1.73507 11.2985 1.7768 11.2812 1.82031 11.2812ZM1.82031 8.65625H2.96875V9.96875H1.82031C1.7768 9.96875 1.73507 9.95146 1.7043 9.9207C1.67354 9.88993 1.65625 9.8482 1.65625 9.80469V9.64062H1.16406C1.12055 9.64062 1.07882 9.62334 1.04805 9.59257C1.01729 9.5618 1 9.52007 1 9.47656V9.14844C1 9.10493 1.01729 9.0632 1.04805 9.03243C1.07882 9.00166 1.12055 8.98438 1.16406 8.98438H1.65625V8.82031C1.65625 8.7768 1.67354 8.73507 1.7043 8.7043C1.73507 8.67353 1.7768 8.65625 1.82031 8.65625ZM1.82031 6.03125H2.96875V7.34375H1.82031C1.7768 7.34375 1.73507 7.32647 1.7043 7.2957C1.67354 7.26493 1.65625 7.2232 1.65625 7.17969V7.01562H1.16406C1.12055 7.01562 1.07882 6.99834 1.04805 6.96757C1.01729 6.9368 1 6.89507 1 6.85156V6.52344C1 6.47993 1.01729 6.4382 1.04805 6.40743C1.07882 6.37666 1.12055 6.35938 1.16406 6.35938H1.65625V6.19531C1.65625 6.1518 1.67354 6.11007 1.7043 6.0793C1.73507 6.04853 1.7768 6.03125 1.82031 6.03125ZM1.82031 3.40625H2.96875V4.71875H1.82031C1.7768 4.71875 1.73507 4.70147 1.7043 4.6707C1.67354 4.63993 1.65625 4.5982 1.65625 4.55469V4.39062H1.16406C1.12055 4.39062 1.07882 4.37334 1.04805 4.34257C1.01729 4.3118 1 4.27007 1 4.22656V3.89844C1 3.85493 1.01729 3.8132 1.04805 3.78243C1.07882 3.75166 1.12055 3.73438 1.16406 3.73438H1.65625V3.57031C1.65625 3.5268 1.67354 3.48507 1.7043 3.4543C1.73507 3.42354 1.7768 3.40625 1.82031 3.40625Z" fill="white"/>
</svg>
