<svg width="16" height="16" viewBox="0 0 16 16" fill="none" xmlns="http://www.w3.org/2000/svg">
  <path d="M12.676 7.83901C12.2317 8.28424 11.6654 8.58772 11.0486 8.71107C10.4318 8.83443 9.79235 8.77211 9.211 8.53201L5.424 13.096C4.731 13.789 3.611 13.789 2.918 13.096C2.225 12.403 2.225 11.283 2.918 10.597L7.482 6.80301C7.006 5.64801 7.237 4.27601 8.175 3.33801C9.071 2.44201 10.359 2.20401 11.479 2.59601L9.456 4.61901L11.43 6.59301L13.432 4.58401C13.803 5.69001 13.558 6.95701 12.676 7.83901ZM3.667 12.347C3.947 12.62 4.395 12.62 4.668 12.347C4.948 12.067 4.948 11.619 4.668 11.346C4.395 11.066 3.947 11.066 3.667 11.346C3.53576 11.4795 3.46222 11.6593 3.46222 11.8465C3.46222 12.0337 3.53576 12.2135 3.667 12.347Z" fill="white"/>
</svg>
