<?xml version="1.0" encoding="UTF-8"?>
<svg width="40px" height="40px" viewBox="0 0 40 40" version="1.1" xmlns="http://www.w3.org/2000/svg" xmlns:xlink="http://www.w3.org/1999/xlink">
    <!-- Generator: Sketch 64 (93537) - https://sketch.com -->
    <title>Centrality_Icon_Negative_dark round</title>
    <desc>Created with Sketch.</desc>
    <g id="Phase-2-Onboarding" stroke="none" stroke-width="1" fill="none" fill-rule="evenodd">
        <g id="Centrality_Icon_Negative_dark-round" fill-rule="nonzero">
            <circle id="Oval" fill="#1E2022" cx="20" cy="20" r="20"></circle>
            <g id="Centrality_Icon_Negative" transform="translate(10.000000, 8.000000)" fill="#FFFFFF">
                <path d="M14.8270119,12.3631568 C15.1221868,12.4981451 15.4725407,12.4562214 15.7238478,12.2558408 L19.6976646,9.11237615 C19.8896703,8.96046945 20.0005714,8.73438344 20.0000001,8.49605436 L20.0000001,6.2193155 C20.0003141,3.64471052 18.0759583,1.43810995 15.4277594,0.976481487 L10.336599,0.0881434414 C8.71001888,-0.198817623 7.03436422,0.222755319 5.76593051,1.23806425 C5.12167539,1.76520225 4.60913966,2.42374851 4.26600948,3.16528085 C1.76494837,3.73976731 0.00126733222,5.87863971 7.83405258e-08,8.33880662 L7.83405258e-08,17.8273301 C-0.00044799132,20.3976955 1.92120579,22.6005044 4.5652145,23.0604758 L9.67429617,23.9547759 C9.88306967,23.9880678 10.0945881,24.003035 10.3062109,23.9994909 L10.4939933,23.9994909 L10.6794381,23.9994909 C12.0320941,23.9994909 13.2616398,23.5888581 14.2371728,22.8108171 C14.8803215,22.2949652 15.3937729,21.6472218 15.7394313,20.9156462 C17.0920875,20.6011507 18.2881283,19.7754137 19.1078254,18.5897209 C19.699867,17.716737 20.0096502,16.6961699 19.998428,15.6556715 L19.998428,12.5256213 C19.9986322,12.1757391 19.7875534,11.8572159 19.4566473,11.7080605 C19.125741,11.558905 18.7345372,11.6059502 18.4525353,11.8288125 L14.6594882,14.8262082 C14.4570469,15.0030593 14.3419144,15.2533296 14.3423621,15.5155645 L14.3423621,18.6739341 C14.3419868,18.8530961 14.3274002,19.0319726 14.2987281,19.2090236 L14.2036681,19.2090236 L14.1950971,19.2090236 C14.0518149,19.2185366 13.9078786,19.2132897 13.765769,19.1933735 L8.67460854,18.3050354 C6.92736717,18.0005046 5.65742767,16.5450072 5.65684535,14.8463299 L5.65684535,5.37643771 C5.65694086,5.19399225 5.67205167,5.01183705 5.70203777,4.83165993 C5.87719386,4.8377914 6.05166141,4.85597278 6.2240882,4.88606319 L11.3316115,5.73192197 C13.0757448,6.035834 14.3432366,7.48902359 14.3431413,9.1846654 L14.3431413,11.633557 C14.3411649,11.9463933 14.530279,12.2315471 14.8270119,12.3631568 Z M11.6728922,3.95002914 L6.56225222,3.05572909 L6.5357601,3.05572909 L6.53108503,3.05572909 C7.3809149,2.09528871 8.70296139,1.64299925 9.99687658,1.87003628 L15.0880371,2.75762907 C16.8358566,3.06226067 18.1059708,4.51858568 18.1058003,6.217825 L18.1058003,8.02356585 L16.2357689,9.50065143 L16.2357689,9.1831749 C16.236737,6.61340415 14.3161401,4.41067887 11.6728922,3.95002914 Z M8.33722371,20.089164 L13.4283843,20.9782472 L13.4486429,20.9782472 C13.3233593,21.1361784 13.1815975,21.2815056 13.0255483,21.4119828 C12.190718,22.0797969 11.0883088,22.3573293 10.0179144,22.1691569 L4.90883278,21.2800735 C3.15152969,20.9626039 1.88356412,19.4878479 1.89697655,17.7773983 L1.89697655,8.33880662 C1.89607072,7.29802378 2.37821111,6.31047919 3.21333763,5.64323722 C3.3851888,5.50688972 3.56956449,5.38566676 3.76421771,5.28104571 C3.76421771,5.31309146 3.76421771,5.34513721 3.76421771,5.37643771 L3.76421771,14.8463299 C3.7639585,17.4211694 5.68871521,19.6278536 8.33722371,20.089164 Z M16.2381064,18.7521854 C16.2381064,18.7261016 16.2381064,18.6992726 16.2381064,18.6731889 L16.2381064,15.9291782 L18.1081499,14.4513474 L18.1081499,15.6892077 C18.1097606,16.7335602 17.624067,17.7241316 16.7835322,18.3907392 C16.6129829,18.5271122 16.4296145,18.6481094 16.2357689,18.7521854 L16.2381064,18.7521854 Z" id="Shape"></path>
            </g>
        </g>
    </g>
</svg>