<?xml version="1.0" encoding="UTF-8"?>
<svg width="44px" height="44px" viewBox="0 0 44 44" version="1.1" xmlns="http://www.w3.org/2000/svg" xmlns:xlink="http://www.w3.org/1999/xlink">
    <title>BEVM logo  2</title>
    <defs>
        <linearGradient x1="0%" y1="50.0303895%" x2="99.990685%" y2="50.0303895%" id="linearGradient-1">
            <stop stop-color="#997D4C" offset="18%"></stop>
            <stop stop-color="#AA8C52" offset="91%"></stop>
            <stop stop-color="#AC8E53" offset="98%"></stop>
        </linearGradient>
    </defs>
    <g id="页面-1" stroke="none" stroke-width="1" fill="none" fill-rule="evenodd">
        <g id="BEVM-logo-">
            <rect id="矩形" fill="#131415" x="0" y="0" width="44" height="44" rx="8"></rect>
            <g id="编组-23" transform="translate(6, 6)" fill-rule="nonzero">
                <g id="编组">
                    <polygon id="路径" fill="#B0915A" points="13.790631 0 17.2054353 2.15352468 14.5545979 11.1678446 11.1407743 9.01431996"></polygon>
                    <polygon id="路径" fill="#B0915A" points="9.75308104 13.734374 13.1669046 15.8878987 9.8315372 27.2386454 6.41673295 25.0851208"></polygon>
                    <path d="M19.3325778,4.77610473 C19.0712856,4.61330184 18.7693365,4.52806458 18.4617145,4.53026858 L13.5640889,4.53026858 L16.9788931,6.68674329 L21.8765187,6.68674329 C22.1856679,6.68257879 22.4895504,6.76719911 22.7522856,6.93061275 L19.3325778,4.77610473 Z" id="路径" fill="#997D4C"></path>
                    <polygon id="路径" fill="#997D4C" points="15.4666507 13.734374 18.8804742 15.8878987 13.1669046 15.8878987 9.75308104 13.734374"></polygon>
                    <polygon id="路径" fill="#AB8E56" points="18.0772793 9.01431996 21.4920836 11.1678446 18.8804742 15.8878987 15.4666507 13.734374"></polygon>
                    <path d="M28.930708,8.18929384 C28.9218816,8.00737508 28.9081518,7.82545633 28.8855957,7.64648762 L28.8855957,7.62977076 C28.8561746,7.40425706 28.8162927,7.18234896 28.76595,6.96404646 C28.7522202,6.90504579 28.7326062,6.84899514 28.7178956,6.78999447 C28.6767061,6.63167599 28.6325746,6.47434085 28.5805974,6.32093909 C28.5737324,6.3012722 28.5698096,6.28062197 28.5629447,6.26095507 C28.5443114,6.20785446 28.5188131,6.16262061 28.4991991,6.10656997 C28.4452605,5.96300166 28.3873991,5.82041669 28.3236534,5.68274845 C28.2883482,5.60506422 28.2501008,5.52934669 28.2118534,5.45362916 C28.1451657,5.32481101 28.0755358,5.19795956 28.0010025,5.07405814 C27.9755042,5.03177432 27.9558902,4.98555713 27.9294113,4.94425665 C27.9029323,4.90295618 27.867627,4.85378895 27.8372253,4.8085551 L27.7587691,4.69252044 C27.6606989,4.54895212 27.5528217,4.4073505 27.440041,4.27263229 L27.4351375,4.26673222 C27.2967989,4.10262522 27.1498108,3.94605006 26.9948023,3.79767685 L26.9771496,3.7789933 C26.9104619,3.7150759 26.8369093,3.65902526 26.7672794,3.59805789 C26.6976496,3.53709053 26.617232,3.46333968 26.5377952,3.40138897 L26.5172004,3.38368877 C26.3707489,3.27093192 26.219067,3.16473071 26.0621547,3.06508512 L22.6395049,0.911560445 C22.8042628,1.01579497 22.9631365,1.1288796 23.1151453,1.2478643 C23.1955629,1.31079835 23.2700962,1.37963247 23.346591,1.44453322 C23.4230857,1.50943396 23.5005612,1.57236802 23.5721524,1.64120214 C23.727161,1.78957535 23.8741491,1.94615051 24.0124876,2.11025751 C24.1272297,2.24694241 24.2341262,2.38952738 24.3361193,2.53604573 C24.3635789,2.57439616 24.3890772,2.61372995 24.4155561,2.65306373 C24.4724368,2.73861471 24.5253947,2.82809907 24.5783526,2.91758343 C24.652886,3.04148485 24.7231696,3.1683363 24.7892036,3.29813779 C24.8274509,3.37287198 24.8656983,3.44858952 24.9010036,3.52529039 C24.9657299,3.66394198 25.0226106,3.80652695 25.0775299,3.95009526 C25.1040089,4.02187942 25.13343,4.09169688 25.1579475,4.16446438 C25.2109054,4.31786614 25.2560177,4.47520128 25.2952458,4.6345031 C25.3099563,4.69252044 25.3295703,4.74857108 25.3433002,4.80757175 C25.3946771,5.02724753 25.434613,5.24945637 25.4629458,5.47329605 C25.4874634,5.65816483 25.5021739,5.84500031 25.5110002,6.03281913 C25.5110002,6.06723619 25.5110002,6.10165325 25.5159037,6.13705365 C25.5217879,6.32290578 25.5208072,6.5107246 25.5159037,6.69854342 C25.5159037,6.73296048 25.5159037,6.76737754 25.5100195,6.80277795 C25.4992318,6.98371336 25.4815791,7.16661545 25.4560809,7.34951755 C25.4560809,7.37016778 25.4560809,7.39180136 25.4482353,7.41343495 C25.4188142,7.61010387 25.3795861,7.80677279 25.3334932,8.01130846 C25.3256475,8.04474218 25.3178019,8.07719255 25.3089756,8.10964292 C25.2638633,8.29451171 25.2109054,8.47839715 25.1491212,8.66228259 C25.1147966,8.76061705 25.0736071,8.86583492 25.0353598,8.96810276 C24.9971124,9.0703706 24.949058,9.20017209 24.8990422,9.31620675 C24.8598141,9.40569111 24.8137211,9.49517547 24.7705702,9.58465982 C24.698979,9.7341282 24.6293491,9.8796632 24.5459895,10.0320816 L22.0756012,14.4394321 L21.5460222,15.2969086 C21.5509257,15.2969086 21.5626941,15.3175588 21.5764239,15.3362424 L21.5940766,15.3588593 L21.6391889,15.4198267 C21.6480152,15.4326102 21.6588029,15.4483437 21.6695906,15.4621105 L21.7284327,15.5466781 L21.7686415,15.6056788 C21.7911977,15.6391125 21.8147345,15.6764796 21.8392521,15.7148301 L21.8843643,15.7846475 C21.9333994,15.8633151 21.9824345,15.9498494 22.0412767,16.0452339 C22.0491223,16.059984 22.0579486,16.0767009 22.0667749,16.091451 C22.1148293,16.1760187 22.1648451,16.2684531 22.2138802,16.3648208 C22.2285907,16.3933378 22.2433013,16.4218548 22.2580118,16.4523385 C22.3158732,16.5683732 22.3747153,16.6912913 22.4325767,16.8220761 C22.438461,16.8368263 22.4443452,16.8535431 22.4512101,16.8682933 C22.5022066,16.9862946 22.5492803,17.1111794 22.5992961,17.2409809 C22.6149873,17.2852314 22.6316592,17.3294819 22.6473505,17.3747158 C22.6689259,17.4346998 22.68854,17.4966505 22.7091347,17.5586012 C22.7297294,17.6205519 22.7454207,17.6736525 22.7620926,17.7326532 C22.7787645,17.7916539 22.7983786,17.8624547 22.8160312,17.9293221 C22.8336838,17.9961895 22.8474137,18.0502735 22.8621242,18.1132075 C22.8768347,18.1761416 22.892526,18.2498924 22.9062558,18.3197099 C22.9199856,18.3895274 22.931754,18.4465614 22.9435225,18.5163788 C22.9552909,18.5861963 22.9660786,18.6609305 22.9768663,18.733698 C22.9876541,18.8064655 22.9935383,18.8585828 23.0004032,18.9225002 C23.0190365,19.0906521 23.033747,19.261754 23.0386506,19.4377727 L26.4534548,21.5912974 C26.4485513,21.4152787 26.4338408,21.2441768 26.4152074,21.0760248 C26.4152074,21.0583246 26.4152074,21.0396411 26.4152074,21.0219409 C26.4093232,20.9757237 26.4014776,20.9324565 26.3946127,20.8862393 C26.3848057,20.8144552 26.3740179,20.7416877 26.3622495,20.6708869 C26.3504811,20.600086 26.337732,20.5410854 26.3249828,20.4742179 C26.3122337,20.4073505 26.2965425,20.3365497 26.2808512,20.2686989 C26.26516,20.2008481 26.2504495,20.1447975 26.2347583,20.0848135 C26.219067,20.0248295 26.199453,19.9540286 26.1808196,19.8881446 C26.1621863,19.8222605 26.1455144,19.7701432 26.126881,19.7131092 C26.1082477,19.6560752 26.0866723,19.5901911 26.0660775,19.5302071 C26.0582319,19.5066068 26.0503863,19.4810399 26.0425407,19.458423 C26.0346951,19.435806 26.0258687,19.4171225 26.0170424,19.3954889 C25.9699687,19.2656874 25.9189722,19.1408027 25.8689564,19.0228013 C25.8630722,19.0080511 25.857188,18.9913343 25.8503231,18.9775675 C25.7934424,18.8457993 25.7346003,18.7228812 25.6767388,18.6068465 L25.6316265,18.5193289 C25.5825915,18.4209944 25.5335564,18.3305267 25.485502,18.2459591 L25.4600037,18.2007252 C25.4041037,18.1023908 25.3521265,18.0178231 25.3021107,17.9381722 L25.2893616,17.917522 L25.2589598,17.8703214 L25.1873686,17.7601868 L25.1461791,17.7002028 C25.1255843,17.6697191 25.1059703,17.6431688 25.0883177,17.6176019 L25.0569352,17.5743347 L25.0128036,17.5133673 L24.995151,17.4907504 L24.9647492,17.4514166 L25.4943283,16.5939401 L27.9568709,12.1934731 C27.9892341,12.1354557 28.0206165,12.0774384 28.0549411,12.0204044 C28.1029955,11.9289534 28.1412429,11.8375023 28.1853745,11.7460513 C28.2295061,11.6546002 28.2736376,11.5670825 28.3128657,11.4775982 C28.3236534,11.4549813 28.3364026,11.4323643 28.3462096,11.4087641 C28.3854377,11.3163297 28.4148587,11.2229119 28.450164,11.1294942 C28.4854693,11.0360765 28.5296009,10.9259419 28.5639254,10.8246574 C28.5698096,10.8040071 28.5796167,10.7843402 28.5855009,10.76369 C28.6384588,10.6004548 28.6835711,10.4352529 28.7237798,10.2720177 C28.7316255,10.2395673 28.7404518,10.207117 28.7473167,10.1736832 C28.7541816,10.1402495 28.7698728,10.0871489 28.7786992,10.0438818 C28.812043,9.88752996 28.8404834,9.73117817 28.8630395,9.57580972 C28.8630395,9.55417614 28.867943,9.5335259 28.8708851,9.51189232 C28.8875571,9.39094094 28.9032483,9.2709729 28.9130553,9.15100486 C28.9189395,9.08905415 28.9209009,9.02710344 28.9248237,8.96515273 L28.930708,8.8609182 C28.9395343,8.67309938 28.940515,8.48528056 28.930708,8.29942843 C28.930708,8.26009465 28.930708,8.2237109 28.930708,8.18929384 Z" id="路径" fill="#B29257"></path>
                    <polygon id="路径" fill="#997D4C" points="23.0347277 19.4338393 26.449532 21.5883474 16.5003106 21.5883474 13.0855063 19.4338393"></polygon>
                    <path d="M31.5786033,20.8292053 C31.5786033,20.685637 31.5727191,20.5420687 31.5638927,20.3994837 C31.5638927,20.3552332 31.5638927,20.3119661 31.5570278,20.2686989 C31.5462401,20.1015303 31.5315296,19.9353451 31.5119155,19.7701432 C31.5119155,19.7583431 31.5119155,19.7465429 31.507012,19.7347428 C31.4952436,19.6364083 31.4785717,19.5380739 31.4638611,19.4397394 C31.4491506,19.341405 31.4344401,19.2352037 31.4158067,19.1339192 C31.3971734,19.0326347 31.3765787,18.9372503 31.3559839,18.8457993 C31.3353892,18.7543482 31.3157751,18.6442136 31.2912576,18.5439125 C31.26674,18.4436113 31.2412418,18.3551103 31.2157435,18.2607092 C31.1902453,18.1663082 31.1637663,18.0640403 31.1343453,17.9657059 C31.1049242,17.8673714 31.0735418,17.7798537 31.04314,17.6874193 C31.0127382,17.5949849 30.9911628,17.5192674 30.9617417,17.4376498 C30.9568382,17.4248663 30.950954,17.4130662 30.9470312,17.4002827 C30.9107452,17.3019483 30.8715171,17.2036138 30.8342505,17.1111794 C30.7969838,17.018745 30.7656013,16.9322107 30.727354,16.844693 C30.6891066,16.7571753 30.6430136,16.6568742 30.5998627,16.5634565 C30.5567118,16.4700387 30.5223872,16.3903878 30.4802171,16.3048368 C30.4380469,16.2192858 30.3821469,16.1239014 30.3380153,16.0334337 C30.2938837,15.942966 30.2517135,15.8652818 30.2056205,15.7836642 C30.1595275,15.7020466 30.1026468,15.6076455 30.0496889,15.5211112 C29.996731,15.4345769 29.9663292,15.3765595 29.9221976,15.3067421 C29.9178658,15.2991563 29.9129472,15.2919229 29.9074871,15.2851085 C29.7917643,15.1022064 29.6711379,14.9252044 29.5456081,14.7521357 C29.5152063,14.7088685 29.4818625,14.6685514 29.4475379,14.6262676 C29.3494677,14.4974494 29.2513975,14.370598 29.1533273,14.2476799 C29.1366554,14.2270297 29.1219448,14.2044128 29.1042922,14.1847459 C29.0611413,14.1336119 29.016029,14.0864114 28.9718974,14.0352775 C28.9150167,13.9693934 28.858136,13.9044927 28.7992939,13.8386086 C28.7404518,13.7727245 28.6649377,13.6970069 28.5972693,13.6281728 C28.5296009,13.5593387 28.4776237,13.5052547 28.4168201,13.4472374 C28.3991675,13.4295372 28.3824956,13.4108537 28.3648429,13.3941368 C28.2667727,13.3007191 28.1687025,13.209268 28.0637674,13.120767 L24.6489632,10.9672423 C24.7695895,11.0714769 24.8862931,11.1816115 25.0020159,11.2927294 C25.0628194,11.3517301 25.1226422,11.4136808 25.1814843,11.4736648 C25.2403265,11.5336488 25.3187826,11.6132997 25.3854704,11.6850839 C25.4521581,11.756868 25.5002125,11.813902 25.5570932,11.8817528 C25.6139739,11.9496036 25.6796809,12.0223711 25.7395038,12.0951386 C25.8401892,12.2183844 25.9382594,12.3442526 26.0337144,12.4727429 C26.0660775,12.5160101 26.0994214,12.5563272 26.1317846,12.5995944 C26.2560068,12.772663 26.3763062,12.9499928 26.4926829,13.1315838 C26.5426987,13.2102514 26.5907531,13.291869 26.6378268,13.3725032 C26.6849005,13.4531375 26.7417812,13.5426218 26.7908163,13.6301395 C26.8398514,13.7176572 26.8810409,13.7982914 26.9251724,13.8828591 C26.969304,13.9674267 27.0232426,14.0608444 27.0654128,14.1522955 C27.107583,14.2437465 27.1458304,14.3253641 27.1860392,14.4118985 C27.2262479,14.4984328 27.2723409,14.5967673 27.3135304,14.6911683 C27.3547199,14.7855694 27.3851217,14.8701371 27.4204269,14.9606048 C27.4557322,15.0510725 27.4969217,15.1503903 27.532227,15.246758 C27.5675322,15.3431258 27.5969533,15.443427 27.6302972,15.5358613 C27.663641,15.6282957 27.6940428,15.7197468 27.7215024,15.8131645 C27.7489621,15.9065823 27.7764217,16.0098334 27.8029007,16.1081679 C27.8293797,16.2065024 27.8558586,16.2969701 27.8784147,16.3923545 C27.9009709,16.4877389 27.9215656,16.5890234 27.9431411,16.6873579 C27.9647165,16.7856923 27.9853113,16.8840268 28.0029639,16.9823613 C28.0206165,17.0806957 28.0353271,17.1790302 28.0500376,17.2852314 C28.0647481,17.3914326 28.0824008,17.4819003 28.0941692,17.5802348 C28.1157446,17.7562535 28.1324166,17.9342388 28.1451657,18.1122242 C28.1451657,18.1564747 28.1451657,18.2007252 28.1520306,18.2439924 C28.1598762,18.3875607 28.1647797,18.5301457 28.1667411,18.673714 C28.1667411,18.7258312 28.1667411,18.7779485 28.1667411,18.8300658 C28.1667411,19.0139512 28.1667411,19.1978366 28.1510499,19.3827054 C28.1373201,19.6147748 28.1137832,19.8448774 28.0873043,20.0710466 C28.0676902,20.2441153 28.0431727,20.4171839 28.0147323,20.5882859 C28.005906,20.6453199 27.9931569,20.7023539 27.9833499,20.7593879 C27.9627551,20.8724725 27.9431411,20.9865405 27.9186235,21.0986418 C27.9078358,21.1517424 27.894106,21.2038596 27.8813569,21.2579436 C27.8548779,21.3769283 27.8264375,21.4968963 27.7960358,21.615881 C27.7783831,21.6817651 27.7587691,21.7466658 27.7401358,21.8125499 C27.7107147,21.9167845 27.6812937,22.021019 27.6479498,22.1242702 C27.6234322,22.2019544 27.5969533,22.2796386 27.5704743,22.3573228 C27.5439954,22.4350071 27.5165357,22.5166247 27.4880954,22.5952922 C27.459655,22.6739598 27.4292532,22.7506607 27.3988515,22.8283449 C27.3684497,22.9060291 27.338048,22.9837134 27.3056848,23.0613976 C27.2880322,23.1036814 27.2693988,23.1449819 27.2507655,23.1872657 C27.1379848,23.4498187 27.0163777,23.7084383 26.883983,23.9601745 C26.8692724,23.9877082 26.8535812,24.0142585 26.8388707,24.0408088 C26.7022262,24.2964784 26.5567554,24.5462479 26.4024583,24.7901174 L26.3651916,24.8442013 C26.2004337,25.0998709 26.0261956,25.3476738 25.8424775,25.5876099 C25.8316897,25.60236 25.8199213,25.6161269 25.8091336,25.6298937 C25.6129932,25.8835966 25.406392,26.1281216 25.18933,26.3634687 C25.1520633,26.4037859 25.1138159,26.4431197 25.0765492,26.4824534 C24.9941703,26.5699711 24.9108106,26.6555221 24.8254895,26.7400897 L24.6793649,26.8816914 C24.596986,26.9593756 24.5136263,27.0370598 24.4292859,27.1127773 L24.2880649,27.2386454 C24.1301718,27.3753303 23.9703174,27.5090652 23.8065402,27.6319833 C23.800656,27.6369 23.7947718,27.63985 23.7898683,27.6447668 C23.6300138,27.7676848 23.4662366,27.8847028 23.2995173,27.9987708 L23.1661418,28.0882552 C22.9788277,28.2131399 22.7895523,28.3340913 22.5953733,28.4461926 L22.5708557,28.4599594 C22.3825609,28.5681273 22.1913241,28.6694118 21.9961644,28.766763 L21.8608275,28.8336304 C21.6646871,28.9319648 21.4597204,29.0194825 21.2547537,29.1030668 L21.1566835,29.1404339 C20.9713308,29.2132014 20.783036,29.2800688 20.5937606,29.3430029 L20.4662693,29.3852867 C20.2554184,29.4511708 20.0416254,29.5101715 19.8268516,29.5622887 L19.690534,29.5937558 C19.4943937,29.6389896 19.2946574,29.6783234 19.0913251,29.7117571 C19.0599427,29.7117571 19.0295409,29.7235572 18.9991392,29.7274906 C18.7775005,29.762891 18.5529198,29.788458 18.328339,29.8071415 C18.2766887,29.8117305 18.2247115,29.8156639 18.1724074,29.8189417 C17.9419424,29.8356585 17.7104968,29.8464753 17.4770897,29.8464753 L0,29.8464753 L3.41480424,32 L20.8889518,32 C21.1223589,32 21.3538046,31.9891832 21.5842695,31.9724664 C21.6372274,31.9724664 21.6882239,31.9655829 21.7402012,31.9606662 C21.9657626,31.9419827 22.1903434,31.9164157 22.411982,31.8819986 L22.5031873,31.8652818 C22.7052119,31.8318481 22.9042944,31.7925143 23.1033769,31.7472804 L23.2387138,31.7158134 C23.4544682,31.6633684 23.6679343,31.6043677 23.8791121,31.5388114 L24.0056227,31.4965276 C24.1958789,31.4349046 24.3838467,31.3673816 24.5695263,31.2939586 L24.6675965,31.2565915 C24.8725632,31.1730072 25.0745878,31.0825395 25.2736703,30.9871551 L25.4090072,30.9202876 C25.6051476,30.8219532 25.7954038,30.7236187 25.9836986,30.6134841 L26.0082161,30.5997173 C26.2043565,30.487616 26.3916706,30.3666646 26.5789846,30.2417799 C26.6015408,30.2270297 26.6250776,30.2142462 26.6466531,30.199496 C26.6682285,30.1847459 26.689804,30.168029 26.7113794,30.1532788 C26.8780987,30.0382275 27.041876,29.9212095 27.2017304,29.7973081 L27.2174216,29.7864913 C27.3821796,29.6586565 27.542034,29.5249216 27.699927,29.3882367 C27.7185603,29.3715199 27.7381744,29.3567697 27.7568077,29.3410362 L27.8401674,29.263352 C27.9254884,29.1866511 28.0088481,29.1089669 28.0912271,29.0302993 C28.1402622,28.9840821 28.1892973,28.9378649 28.236371,28.889681 C28.3226727,28.8051134 28.4060324,28.7185791 28.4884114,28.6310614 C28.5188131,28.5995944 28.5511763,28.5681273 28.5864816,28.5327269 C28.5933465,28.5258435 28.5992307,28.5169934 28.6060956,28.51011 C28.8225038,28.2741073 29.0291051,28.0292545 29.2258992,27.7755516 L29.2494361,27.7490013 L29.2582624,27.7352345 C29.4426344,27.4952984 29.6171993,27.2435622 29.7819573,26.9918259 L29.8084362,26.9544589 C29.8120763,26.9487733 29.8153519,26.9428613 29.8182432,26.9367587 C29.9741748,26.6938725 30.1193187,26.4450863 30.2556363,26.1884334 C30.2654433,26.1697499 30.2772118,26.153033 30.2860381,26.1353328 C30.2948644,26.1176326 30.2948644,26.1156659 30.2997679,26.1068158 C30.4305282,25.8537685 30.5531159,25.5958044 30.6675311,25.3329236 C30.6773382,25.3122734 30.6881259,25.2935898 30.6969522,25.2719562 C30.7057785,25.2503227 30.7136241,25.2296724 30.7224504,25.2090222 C30.7548136,25.1303546 30.7852154,25.0516871 30.8205206,24.9730195 C30.8558259,24.8943519 30.8803435,24.8206011 30.9087838,24.7429168 C30.9372242,24.6652326 30.9646838,24.5826317 30.9921435,24.5019974 C31.0107768,24.4449634 31.0323523,24.3889128 31.0509856,24.3318788 L31.0686382,24.2718948 C31.1010014,24.1686436 31.1314032,24.0634257 31.1608242,23.9591912 C31.1794576,23.8942905 31.1990716,23.8293897 31.2157435,23.7625223 C31.247126,23.6435376 31.2755664,23.5225862 31.303026,23.4016348 C31.312833,23.3554176 31.3255822,23.3101838 31.3363699,23.2639666 L31.3363699,23.245283 C31.3608874,23.1321984 31.3805015,23.0181304 31.4010962,22.9040624 C31.4109032,22.8470285 31.4236524,22.7919612 31.4324787,22.7349272 C31.460919,22.5638252 31.4844559,22.3917399 31.5050506,22.2176879 C31.5197611,22.0849364 31.5344717,21.9531682 31.5462401,21.8194333 C31.5550664,21.7210989 31.562912,21.6227644 31.5687962,21.52443 C31.579584,21.3395612 31.5835068,21.1556757 31.5844875,20.9727736 C31.5786033,20.9334399 31.5786033,20.8813226 31.5786033,20.8292053 Z" id="路径" fill="url(#linearGradient-1)"></path>
                </g>
                <path d="M19.3943621,0 C24.3724052,0 27.1066023,5.45756253 24.5420667,10.0350317 L22.0716784,14.4423822 L21.5420994,15.2998586 C21.6136906,15.389343 22.9660786,17.0974126 23.0347277,19.429906 L13.0855063,19.429906 L19.8641183,7.1675988 C20.5339377,5.96103497 19.7719323,4.52535185 18.4617145,4.52535185 L13.5640889,4.52535185 L14.72524,0 L19.3943621,0 Z" id="路径" fill="#F4D78B"></path>
                <path d="M24.6499439,10.9721591 C26.8516198,12.8827976 28.348171,16.085551 28.1510499,19.3846721 C28.1373201,19.6167414 28.1137832,19.8468441 28.0873043,20.0730133 C27.4625971,25.5207424 22.8219154,29.851392 17.4780704,29.851392 L0,29.851392 L8.81847207,0 L13.790631,0 L11.1427357,9.01431996 L18.0792407,9.01431996 L15.4686121,13.734374 L9.75308104,13.734374 L6.41869436,25.0851208 L17.7458021,25.0851208 C20.7810746,25.0851208 23.4073945,22.5284248 23.5956893,19.3817221 C23.6839524,17.9126052 23.0974927,16.2202692 22.2746837,15.2103743 L24.6499439,10.9721591 Z" id="路径" fill="#F4D78B"></path>
            </g>
        </g>
    </g>
</svg>